G04 #@! TF.FileFunction,Soldermask,Bot*
%FSLAX46Y46*%
G04 Gerber Fmt 4.6, Leading zero omitted, Abs format (unit mm)*
G04 Created by KiCad (PCBNEW 4.0.7-e1-6374~58~ubuntu17.04.1) date Mon Aug 21 14:59:55 2017*
%MOMM*%
%LPD*%
G01*
G04 APERTURE LIST*
%ADD10C,0.100000*%
%ADD11C,2.200000*%
%ADD12C,3.500000*%
%ADD13R,1.000000X1.000000*%
%ADD14R,1.800000X1.800000*%
%ADD15C,1.800000*%
%ADD16C,1.524000*%
%ADD17R,1.700000X1.700000*%
%ADD18O,1.700000X1.700000*%
%ADD19R,2.000000X2.000000*%
%ADD20O,2.000000X2.000000*%
G04 APERTURE END LIST*
D10*
D11*
X134000000Y-115000000D03*
D12*
X180500000Y-116492000D03*
X180500000Y-109992000D03*
X109500000Y-103500000D03*
D13*
X127444500Y-120967500D03*
X127444500Y-120967500D03*
D14*
X126318000Y-109996000D03*
D15*
X123778000Y-109996000D03*
D16*
X127468000Y-104394000D03*
X122468000Y-104394000D03*
D17*
X115015000Y-98947000D03*
D18*
X115015000Y-96407000D03*
X117555000Y-98947000D03*
X117555000Y-96407000D03*
X120095000Y-98947000D03*
X120095000Y-96407000D03*
D17*
X175213000Y-98947000D03*
D18*
X175213000Y-96407000D03*
X172673000Y-98947000D03*
X172673000Y-96407000D03*
X170133000Y-98947000D03*
X170133000Y-96407000D03*
X167593000Y-98947000D03*
X167593000Y-96407000D03*
X165053000Y-98947000D03*
X165053000Y-96407000D03*
X162513000Y-98947000D03*
X162513000Y-96407000D03*
X159973000Y-98947000D03*
X159973000Y-96407000D03*
D16*
X130492500Y-128016000D03*
X127468000Y-128016000D03*
X122468000Y-128016000D03*
D19*
X128270000Y-91694000D03*
D20*
X130810000Y-91694000D03*
D19*
X128270000Y-94234000D03*
D20*
X130810000Y-94234000D03*
D19*
X155448000Y-127000000D03*
D20*
X155448000Y-129540000D03*
D19*
X155448000Y-116840000D03*
D20*
X155448000Y-119380000D03*
D19*
X152908000Y-127000000D03*
D20*
X152908000Y-129540000D03*
D19*
X152908000Y-116840000D03*
D20*
X152908000Y-119380000D03*
D12*
X109500000Y-110000000D03*
D11*
X115000000Y-110000000D03*
M02*
