G04 #@! TF.FileFunction,Soldermask,Top*
%FSLAX46Y46*%
G04 Gerber Fmt 4.6, Leading zero omitted, Abs format (unit mm)*
G04 Created by KiCad (PCBNEW 4.0.7-e1-6374~58~ubuntu17.04.1) date Mon Aug 21 14:59:55 2017*
%MOMM*%
%LPD*%
G01*
G04 APERTURE LIST*
%ADD10C,0.100000*%
%ADD11C,2.200000*%
%ADD12C,3.500000*%
%ADD13R,1.143000X0.508000*%
%ADD14R,1.300000X0.700000*%
%ADD15R,0.700000X1.300000*%
%ADD16R,1.800000X1.800000*%
%ADD17C,1.800000*%
%ADD18C,1.524000*%
%ADD19R,0.900000X0.800000*%
%ADD20R,0.508000X1.143000*%
%ADD21R,1.700000X1.700000*%
%ADD22O,1.700000X1.700000*%
%ADD23R,1.000000X1.000000*%
%ADD24R,2.000000X2.000000*%
%ADD25O,2.000000X2.000000*%
%ADD26C,0.200000*%
G04 APERTURE END LIST*
D10*
D11*
X134000000Y-115000000D03*
D12*
X180500000Y-116492000D03*
X180500000Y-109992000D03*
X109500000Y-103500000D03*
D13*
X141605000Y-106870500D03*
X141605000Y-105600500D03*
X141605000Y-104330500D03*
X141605000Y-103060500D03*
X147955000Y-103060500D03*
X147955000Y-104330500D03*
X147955000Y-105600500D03*
X147955000Y-106870500D03*
D14*
X146304000Y-108397000D03*
X146304000Y-110297000D03*
X136525000Y-126812000D03*
X136525000Y-128712000D03*
X138811000Y-126812000D03*
X138811000Y-128712000D03*
X141097000Y-126812000D03*
X141097000Y-128712000D03*
X140970000Y-122684500D03*
X140970000Y-124584500D03*
X143256000Y-122684500D03*
X143256000Y-124584500D03*
X145478500Y-122684500D03*
X145478500Y-124584500D03*
D15*
X109747000Y-95518000D03*
X111647000Y-95518000D03*
X110631000Y-121807000D03*
X108731000Y-121807000D03*
X110631000Y-124093000D03*
X108731000Y-124093000D03*
X110631000Y-119648000D03*
X108731000Y-119648000D03*
X124394000Y-96393000D03*
X122494000Y-96393000D03*
D14*
X141732000Y-108397000D03*
X141732000Y-110297000D03*
X144018000Y-108397000D03*
X144018000Y-110297000D03*
X139573000Y-104079000D03*
X139573000Y-105979000D03*
D16*
X126318000Y-109996000D03*
D17*
X123778000Y-109996000D03*
D18*
X127468000Y-104394000D03*
X122468000Y-104394000D03*
D19*
X138287000Y-112964000D03*
X138287000Y-111064000D03*
X136287000Y-112014000D03*
D15*
X109747000Y-93359000D03*
X111647000Y-93359000D03*
D14*
X113411000Y-128590000D03*
X113411000Y-130490000D03*
D15*
X124394000Y-94361000D03*
X122494000Y-94361000D03*
D14*
X113030000Y-115890000D03*
X113030000Y-117790000D03*
X115316000Y-117790000D03*
X115316000Y-115890000D03*
X138303000Y-109408000D03*
X138303000Y-107508000D03*
X137160000Y-104079000D03*
X137160000Y-105979000D03*
D20*
X112141000Y-119761000D03*
X113411000Y-119761000D03*
X114681000Y-119761000D03*
X115951000Y-119761000D03*
X115951000Y-126111000D03*
X114681000Y-126111000D03*
X113411000Y-126111000D03*
X112141000Y-126111000D03*
D21*
X115015000Y-98947000D03*
D22*
X115015000Y-96407000D03*
X117555000Y-98947000D03*
X117555000Y-96407000D03*
X120095000Y-98947000D03*
X120095000Y-96407000D03*
D21*
X175213000Y-98947000D03*
D22*
X175213000Y-96407000D03*
X172673000Y-98947000D03*
X172673000Y-96407000D03*
X170133000Y-98947000D03*
X170133000Y-96407000D03*
X167593000Y-98947000D03*
X167593000Y-96407000D03*
X165053000Y-98947000D03*
X165053000Y-96407000D03*
X162513000Y-98947000D03*
X162513000Y-96407000D03*
X159973000Y-98947000D03*
X159973000Y-96407000D03*
D18*
X130492500Y-128016000D03*
D23*
X165100000Y-101600000D03*
X167640000Y-101600000D03*
X177800000Y-96393000D03*
D18*
X127468000Y-128016000D03*
X122468000Y-128016000D03*
D15*
X127442000Y-122682000D03*
X125542000Y-122682000D03*
X120716000Y-122682000D03*
X122616000Y-122682000D03*
X125542000Y-118618000D03*
X127442000Y-118618000D03*
D13*
X136525000Y-121412000D03*
X136525000Y-122682000D03*
X136525000Y-123952000D03*
X136525000Y-125222000D03*
X130175000Y-125222000D03*
X130175000Y-123952000D03*
X130175000Y-122682000D03*
X130175000Y-121412000D03*
D14*
X160274000Y-117795000D03*
X160274000Y-119695000D03*
D15*
X166944000Y-123063000D03*
X168844000Y-123063000D03*
D14*
X171196000Y-116525000D03*
X171196000Y-118425000D03*
X160147000Y-127828000D03*
X160147000Y-129728000D03*
X170815000Y-130368000D03*
X170815000Y-132268000D03*
X170815000Y-126304000D03*
X170815000Y-128204000D03*
D24*
X128270000Y-91694000D03*
D25*
X130810000Y-91694000D03*
D24*
X128270000Y-94234000D03*
D25*
X130810000Y-94234000D03*
D24*
X155448000Y-127000000D03*
D25*
X155448000Y-129540000D03*
D24*
X155448000Y-116840000D03*
D25*
X155448000Y-119380000D03*
D24*
X152908000Y-127000000D03*
D25*
X152908000Y-129540000D03*
D24*
X152908000Y-116840000D03*
D25*
X152908000Y-119380000D03*
D14*
X111252000Y-128590000D03*
X111252000Y-130490000D03*
X150241000Y-106233000D03*
X150241000Y-104333000D03*
D13*
X168783000Y-116332000D03*
X168783000Y-117602000D03*
X168783000Y-118872000D03*
X168783000Y-120142000D03*
X162433000Y-120142000D03*
X162433000Y-118872000D03*
X162433000Y-117602000D03*
X162433000Y-116332000D03*
X168656000Y-126365000D03*
X168656000Y-127635000D03*
X168656000Y-128905000D03*
X168656000Y-130175000D03*
X162306000Y-130175000D03*
X162306000Y-128905000D03*
X162306000Y-127635000D03*
X162306000Y-126365000D03*
D12*
X109500000Y-110000000D03*
D11*
X115000000Y-110000000D03*
D23*
X177800000Y-98933000D03*
D26*
G36*
X128551000Y-121983500D02*
X128558879Y-122022406D01*
X128581273Y-122055181D01*
X128614654Y-122076661D01*
X128651000Y-122083500D01*
X132551500Y-122083500D01*
X132551500Y-123280500D01*
X128333500Y-123280500D01*
X128294594Y-123288379D01*
X128261819Y-123310773D01*
X128240339Y-123344154D01*
X128233500Y-123380500D01*
X128233500Y-126301500D01*
X128241379Y-126340406D01*
X128263773Y-126373181D01*
X128297154Y-126394661D01*
X128333500Y-126401500D01*
X132234000Y-126401500D01*
X132234000Y-130075000D01*
X125639500Y-130075000D01*
X125639500Y-127036500D01*
X126301500Y-127036500D01*
X126340406Y-127028621D01*
X126373181Y-127006227D01*
X126394661Y-126972846D01*
X126401500Y-126936500D01*
X126401500Y-119797500D01*
X128551000Y-119797500D01*
X128551000Y-121983500D01*
X128551000Y-121983500D01*
G37*
X128551000Y-121983500D02*
X128558879Y-122022406D01*
X128581273Y-122055181D01*
X128614654Y-122076661D01*
X128651000Y-122083500D01*
X132551500Y-122083500D01*
X132551500Y-123280500D01*
X128333500Y-123280500D01*
X128294594Y-123288379D01*
X128261819Y-123310773D01*
X128240339Y-123344154D01*
X128233500Y-123380500D01*
X128233500Y-126301500D01*
X128241379Y-126340406D01*
X128263773Y-126373181D01*
X128297154Y-126394661D01*
X128333500Y-126401500D01*
X132234000Y-126401500D01*
X132234000Y-130075000D01*
X125639500Y-130075000D01*
X125639500Y-127036500D01*
X126301500Y-127036500D01*
X126340406Y-127028621D01*
X126373181Y-127006227D01*
X126394661Y-126972846D01*
X126401500Y-126936500D01*
X126401500Y-119797500D01*
X128551000Y-119797500D01*
X128551000Y-121983500D01*
M02*
