M48
;DRILL file {KiCad 4.0.7-e1-6374~58~ubuntu17.04.1} date Mon Aug 21 15:00:01 2017
;FORMAT={-:-/ absolute / metric / decimal}
FMAT,2
METRIC,TZ
T1C0.200
T2C0.400
T3C0.762
T4C0.900
T5C1.000
T6C1.200
%
G90
G05
M71
T1
X125.857Y-127.127
X125.857Y-127.635
X125.857Y-128.143
X125.857Y-128.651
X125.857Y-129.159
X125.984Y-129.794
X126.365Y-119.888
X126.365Y-120.396
X126.365Y-120.904
X126.365Y-121.412
X126.492Y-121.92
X126.492Y-122.428
X126.492Y-122.936
X126.492Y-123.571
X126.492Y-124.079
X126.492Y-124.587
X126.492Y-125.095
X126.492Y-125.603
X126.492Y-126.111
X126.492Y-126.746
X126.492Y-129.794
X127.Y-129.794
X127.508Y-129.794
X128.016Y-129.794
X128.27Y-123.444
X128.27Y-123.952
X128.27Y-124.46
X128.27Y-124.968
X128.27Y-125.476
X128.27Y-125.984
X128.524Y-119.888
X128.524Y-120.396
X128.524Y-120.904
X128.524Y-121.412
X128.524Y-121.92
X128.524Y-126.492
X128.524Y-129.794
X128.778Y-123.317
X129.032Y-126.492
X129.032Y-129.794
X129.54Y-126.492
X129.54Y-129.794
X130.048Y-126.492
X130.048Y-129.794
X130.556Y-126.492
X130.556Y-129.794
X131.064Y-126.492
X131.064Y-129.794
X131.572Y-126.492
X131.572Y-129.794
X131.699Y-122.174
X131.699Y-122.682
X131.699Y-123.19
X132.08Y-126.746
X132.08Y-127.254
X132.08Y-127.762
X132.08Y-128.27
X132.08Y-128.778
X132.08Y-129.286
X132.08Y-129.794
T2
X107.188Y-88.011
X107.188Y-89.281
X107.188Y-90.551
X107.188Y-94.361
X107.188Y-95.631
X107.188Y-96.901
X107.188Y-98.171
X107.188Y-99.441
X107.188Y-100.711
X107.188Y-101.981
X107.188Y-103.251
X107.188Y-104.521
X107.188Y-105.791
X107.188Y-107.061
X107.188Y-108.331
X107.188Y-109.601
X107.188Y-110.871
X107.188Y-112.141
X107.315Y-86.36
X107.442Y-113.284
X107.442Y-117.348
X107.442Y-118.618
X107.442Y-119.888
X107.442Y-121.158
X107.442Y-122.428
X107.442Y-123.698
X107.442Y-124.968
X107.442Y-127.508
X107.442Y-131.318
X107.95Y-115.951
X107.95Y-133.35
X108.585Y-86.36
X108.712Y-113.284
X109.22Y-115.951
X109.22Y-133.35
X109.855Y-86.36
X109.982Y-113.284
X110.49Y-115.951
X110.49Y-133.35
X110.617Y-121.793
X111.125Y-86.36
X111.252Y-113.284
X111.76Y-115.951
X111.76Y-133.35
X112.395Y-86.36
X113.03Y-117.729
X113.03Y-133.35
X113.665Y-86.36
X114.3Y-133.35
X114.935Y-86.36
X115.57Y-133.35
X116.205Y-86.36
X116.84Y-115.951
X116.84Y-133.35
X117.475Y-86.36
X117.602Y-101.219
X118.11Y-115.951
X118.11Y-133.35
X118.745Y-86.36
X119.38Y-133.35
X120.015Y-86.36
X120.142Y-113.284
X120.65Y-115.951
X120.65Y-133.35
X121.285Y-86.36
X121.412Y-113.284
X121.92Y-115.951
X121.92Y-133.35
X122.555Y-86.36
X122.682Y-113.284
X123.19Y-115.951
X123.19Y-133.35
X123.825Y-86.36
X123.952Y-113.284
X124.46Y-115.951
X124.46Y-133.35
X125.095Y-86.36
X125.095Y-124.841
X125.222Y-113.284
X125.73Y-115.951
X125.73Y-133.35
X126.365Y-86.36
X126.492Y-113.284
X127.Y-115.951
X127.Y-133.35
X127.442Y-118.618
X127.635Y-86.36
X127.762Y-113.284
X128.27Y-115.951
X128.27Y-133.35
X128.905Y-86.36
X129.032Y-113.284
X129.54Y-133.35
X130.175Y-86.36
X130.81Y-133.35
X131.445Y-86.36
X131.572Y-113.284
X132.08Y-115.951
X132.08Y-120.015
X132.08Y-124.714
X132.08Y-133.35
X132.715Y-86.36
X132.842Y-113.284
X133.35Y-133.35
X133.985Y-86.36
X134.112Y-113.284
X134.62Y-133.35
X135.255Y-86.36
X135.382Y-113.284
X135.89Y-115.951
X135.89Y-133.35
X136.525Y-86.36
X136.652Y-113.284
X137.16Y-115.951
X137.16Y-133.35
X137.795Y-86.36
X138.303Y-109.474
X138.43Y-115.951
X138.43Y-133.35
X139.065Y-86.36
X139.7Y-115.951
X139.7Y-133.35
X140.335Y-86.36
X140.97Y-115.951
X140.97Y-133.35
X141.605Y-86.36
X142.24Y-133.35
X142.875Y-86.36
X143.51Y-133.35
X144.145Y-86.36
X144.78Y-115.951
X144.78Y-133.35
X145.415Y-86.36
X146.05Y-115.951
X146.05Y-133.35
X146.685Y-86.36
X147.256Y-117.03
X147.256Y-118.3
X147.256Y-120.84
X147.256Y-122.11
X147.256Y-123.38
X147.256Y-124.65
X147.256Y-128.46
X147.256Y-129.731
X147.256Y-131.
X147.256Y-132.27
X147.32Y-115.951
X147.955Y-86.36
X147.955Y-105.6
X147.955Y-113.284
X149.225Y-86.36
X149.225Y-113.284
X150.495Y-86.36
X151.13Y-115.443
X151.13Y-116.713
X151.13Y-117.983
X151.13Y-120.523
X151.13Y-121.793
X151.13Y-123.063
X151.13Y-124.333
X151.13Y-125.603
X151.13Y-128.143
X151.13Y-129.413
X151.13Y-130.683
X151.13Y-131.953
X151.13Y-133.35
X151.765Y-86.36
X152.4Y-133.35
X153.035Y-86.36
X153.67Y-133.35
X154.305Y-86.36
X154.94Y-133.35
X155.575Y-86.36
X156.21Y-133.35
X156.845Y-86.36
X157.48Y-133.35
X158.115Y-86.36
X158.75Y-133.35
X159.385Y-86.36
X160.02Y-133.35
X160.655Y-86.36
X161.29Y-133.35
X161.925Y-86.36
X162.56Y-133.35
X163.195Y-86.36
X163.83Y-133.35
X164.465Y-86.36
X165.1Y-133.35
X165.735Y-86.36
X166.37Y-133.35
X167.005Y-86.36
X167.64Y-133.35
X168.275Y-86.36
X168.91Y-133.35
X169.545Y-86.36
X170.18Y-133.35
X170.815Y-86.36
X171.45Y-133.35
X172.085Y-86.36
X172.72Y-133.35
X173.355Y-86.36
X173.99Y-133.35
X174.625Y-86.36
X175.26Y-133.35
X175.895Y-86.36
X176.53Y-133.35
X177.165Y-86.36
X177.8Y-133.35
X178.435Y-86.36
X179.07Y-133.35
X179.705Y-86.36
X180.34Y-133.35
X180.975Y-86.36
X181.61Y-133.35
X182.245Y-86.36
X183.325Y-87.566
X183.325Y-88.837
X183.325Y-90.106
X183.325Y-91.376
X183.325Y-92.646
X183.325Y-93.916
X183.325Y-95.186
X183.325Y-96.456
X183.325Y-97.727
X183.325Y-98.996
X183.325Y-100.266
X183.325Y-101.536
X183.325Y-102.806
X183.325Y-104.076
X183.325Y-105.346
X183.325Y-106.617
X183.325Y-107.886
X183.325Y-109.156
X183.325Y-110.426
X183.325Y-111.697
X183.325Y-112.966
X183.325Y-114.236
X183.325Y-115.506
X183.325Y-116.776
X183.325Y-118.046
X183.325Y-119.316
X183.325Y-120.587
X183.325Y-121.856
X183.325Y-123.126
X183.325Y-124.396
X183.325Y-125.666
X183.325Y-126.936
X183.325Y-128.207
X183.325Y-129.476
X183.325Y-130.746
X183.325Y-132.017
T3
X122.468Y-104.394
X122.468Y-128.016
X127.468Y-104.394
X127.468Y-128.016
X130.493Y-128.016
T4
X123.778Y-109.996
X126.318Y-109.996
T5
X115.015Y-96.407
X115.015Y-98.947
X117.555Y-96.407
X117.555Y-98.947
X120.095Y-96.407
X120.095Y-98.947
X159.973Y-96.407
X159.973Y-98.947
X162.513Y-96.407
X162.513Y-98.947
X165.053Y-96.407
X165.053Y-98.947
X167.593Y-96.407
X167.593Y-98.947
X170.133Y-96.407
X170.133Y-98.947
X172.673Y-96.407
X172.673Y-98.947
X175.213Y-96.407
X175.213Y-98.947
T6
X128.27Y-91.694
X128.27Y-94.234
X130.81Y-91.694
X130.81Y-94.234
X152.908Y-116.84
X152.908Y-119.38
X152.908Y-127.
X152.908Y-129.54
X155.448Y-116.84
X155.448Y-119.38
X155.448Y-127.
X155.448Y-129.54
T0
M30
