G04 #@! TF.FileFunction,Legend,Top*
%FSLAX46Y46*%
G04 Gerber Fmt 4.6, Leading zero omitted, Abs format (unit mm)*
G04 Created by KiCad (PCBNEW 4.0.7-e1-6374~58~ubuntu17.04.1) date Mon Aug 21 14:59:55 2017*
%MOMM*%
%LPD*%
G01*
G04 APERTURE LIST*
%ADD10C,0.100000*%
%ADD11C,0.300000*%
%ADD12C,0.150000*%
%ADD13C,0.120000*%
%ADD14C,0.010000*%
G04 APERTURE END LIST*
D10*
D11*
X149079000Y-121860571D02*
X149579000Y-123360571D01*
X150079000Y-121860571D01*
X150221857Y-123503429D02*
X151364714Y-123503429D01*
X151650428Y-123289143D02*
X151864714Y-123360571D01*
X152221857Y-123360571D01*
X152364714Y-123289143D01*
X152436143Y-123217714D01*
X152507571Y-123074857D01*
X152507571Y-122932000D01*
X152436143Y-122789143D01*
X152364714Y-122717714D01*
X152221857Y-122646286D01*
X151936143Y-122574857D01*
X151793285Y-122503429D01*
X151721857Y-122432000D01*
X151650428Y-122289143D01*
X151650428Y-122146286D01*
X151721857Y-122003429D01*
X151793285Y-121932000D01*
X151936143Y-121860571D01*
X152293285Y-121860571D01*
X152507571Y-121932000D01*
X153150428Y-122574857D02*
X153650428Y-122574857D01*
X153864714Y-123360571D02*
X153150428Y-123360571D01*
X153150428Y-121860571D01*
X153864714Y-121860571D01*
X154507571Y-123360571D02*
X154507571Y-121860571D01*
X155364714Y-123360571D01*
X155364714Y-121860571D01*
X156007571Y-123289143D02*
X156221857Y-123360571D01*
X156579000Y-123360571D01*
X156721857Y-123289143D01*
X156793286Y-123217714D01*
X156864714Y-123074857D01*
X156864714Y-122932000D01*
X156793286Y-122789143D01*
X156721857Y-122717714D01*
X156579000Y-122646286D01*
X156293286Y-122574857D01*
X156150428Y-122503429D01*
X156079000Y-122432000D01*
X156007571Y-122289143D01*
X156007571Y-122146286D01*
X156079000Y-122003429D01*
X156150428Y-121932000D01*
X156293286Y-121860571D01*
X156650428Y-121860571D01*
X156864714Y-121932000D01*
X157150428Y-123503429D02*
X158293285Y-123503429D01*
X158650428Y-123360571D02*
X158650428Y-121860571D01*
X159507571Y-123360571D01*
X159507571Y-121860571D01*
X160221857Y-122574857D02*
X160721857Y-122574857D01*
X160936143Y-123360571D02*
X160221857Y-123360571D01*
X160221857Y-121860571D01*
X160936143Y-121860571D01*
X162364714Y-121932000D02*
X162221857Y-121860571D01*
X162007571Y-121860571D01*
X161793286Y-121932000D01*
X161650428Y-122074857D01*
X161579000Y-122217714D01*
X161507571Y-122503429D01*
X161507571Y-122717714D01*
X161579000Y-123003429D01*
X161650428Y-123146286D01*
X161793286Y-123289143D01*
X162007571Y-123360571D01*
X162150428Y-123360571D01*
X162364714Y-123289143D01*
X162436143Y-123217714D01*
X162436143Y-122717714D01*
X162150428Y-122717714D01*
X149043286Y-111446571D02*
X149543286Y-112946571D01*
X150043286Y-111446571D01*
X150186143Y-113089429D02*
X151329000Y-113089429D01*
X151614714Y-112875143D02*
X151829000Y-112946571D01*
X152186143Y-112946571D01*
X152329000Y-112875143D01*
X152400429Y-112803714D01*
X152471857Y-112660857D01*
X152471857Y-112518000D01*
X152400429Y-112375143D01*
X152329000Y-112303714D01*
X152186143Y-112232286D01*
X151900429Y-112160857D01*
X151757571Y-112089429D01*
X151686143Y-112018000D01*
X151614714Y-111875143D01*
X151614714Y-111732286D01*
X151686143Y-111589429D01*
X151757571Y-111518000D01*
X151900429Y-111446571D01*
X152257571Y-111446571D01*
X152471857Y-111518000D01*
X153114714Y-112160857D02*
X153614714Y-112160857D01*
X153829000Y-112946571D02*
X153114714Y-112946571D01*
X153114714Y-111446571D01*
X153829000Y-111446571D01*
X154471857Y-112946571D02*
X154471857Y-111446571D01*
X155329000Y-112946571D01*
X155329000Y-111446571D01*
X155971857Y-112875143D02*
X156186143Y-112946571D01*
X156543286Y-112946571D01*
X156686143Y-112875143D01*
X156757572Y-112803714D01*
X156829000Y-112660857D01*
X156829000Y-112518000D01*
X156757572Y-112375143D01*
X156686143Y-112303714D01*
X156543286Y-112232286D01*
X156257572Y-112160857D01*
X156114714Y-112089429D01*
X156043286Y-112018000D01*
X155971857Y-111875143D01*
X155971857Y-111732286D01*
X156043286Y-111589429D01*
X156114714Y-111518000D01*
X156257572Y-111446571D01*
X156614714Y-111446571D01*
X156829000Y-111518000D01*
X157114714Y-113089429D02*
X158257571Y-113089429D01*
X158614714Y-112946571D02*
X158614714Y-111446571D01*
X159186142Y-111446571D01*
X159329000Y-111518000D01*
X159400428Y-111589429D01*
X159471857Y-111732286D01*
X159471857Y-111946571D01*
X159400428Y-112089429D01*
X159329000Y-112160857D01*
X159186142Y-112232286D01*
X158614714Y-112232286D01*
X160400428Y-111446571D02*
X160686142Y-111446571D01*
X160829000Y-111518000D01*
X160971857Y-111660857D01*
X161043285Y-111946571D01*
X161043285Y-112446571D01*
X160971857Y-112732286D01*
X160829000Y-112875143D01*
X160686142Y-112946571D01*
X160400428Y-112946571D01*
X160257571Y-112875143D01*
X160114714Y-112732286D01*
X160043285Y-112446571D01*
X160043285Y-111946571D01*
X160114714Y-111660857D01*
X160257571Y-111518000D01*
X160400428Y-111446571D01*
X161614714Y-112875143D02*
X161829000Y-112946571D01*
X162186143Y-112946571D01*
X162329000Y-112875143D01*
X162400429Y-112803714D01*
X162471857Y-112660857D01*
X162471857Y-112518000D01*
X162400429Y-112375143D01*
X162329000Y-112303714D01*
X162186143Y-112232286D01*
X161900429Y-112160857D01*
X161757571Y-112089429D01*
X161686143Y-112018000D01*
X161614714Y-111875143D01*
X161614714Y-111732286D01*
X161686143Y-111589429D01*
X161757571Y-111518000D01*
X161900429Y-111446571D01*
X162257571Y-111446571D01*
X162471857Y-111518000D01*
X147447143Y-128917000D02*
X147304286Y-128845571D01*
X147090000Y-128845571D01*
X146875715Y-128917000D01*
X146732857Y-129059857D01*
X146661429Y-129202714D01*
X146590000Y-129488429D01*
X146590000Y-129702714D01*
X146661429Y-129988429D01*
X146732857Y-130131286D01*
X146875715Y-130274143D01*
X147090000Y-130345571D01*
X147232857Y-130345571D01*
X147447143Y-130274143D01*
X147518572Y-130202714D01*
X147518572Y-129702714D01*
X147232857Y-129702714D01*
X148161429Y-130345571D02*
X148161429Y-128845571D01*
X149018572Y-130345571D01*
X149018572Y-128845571D01*
X149732858Y-130345571D02*
X149732858Y-128845571D01*
X150090001Y-128845571D01*
X150304286Y-128917000D01*
X150447144Y-129059857D01*
X150518572Y-129202714D01*
X150590001Y-129488429D01*
X150590001Y-129702714D01*
X150518572Y-129988429D01*
X150447144Y-130131286D01*
X150304286Y-130274143D01*
X150090001Y-130345571D01*
X149732858Y-130345571D01*
X142970715Y-127107143D02*
X144113572Y-127107143D01*
X145613572Y-127678571D02*
X144756429Y-127678571D01*
X145185001Y-127678571D02*
X145185001Y-126178571D01*
X145042144Y-126392857D01*
X144899286Y-126535714D01*
X144756429Y-126607143D01*
X146256429Y-127535714D02*
X146327857Y-127607143D01*
X146256429Y-127678571D01*
X146185000Y-127607143D01*
X146256429Y-127535714D01*
X146256429Y-127678571D01*
X147613572Y-126178571D02*
X147327858Y-126178571D01*
X147185001Y-126250000D01*
X147113572Y-126321429D01*
X146970715Y-126535714D01*
X146899286Y-126821429D01*
X146899286Y-127392857D01*
X146970715Y-127535714D01*
X147042143Y-127607143D01*
X147185001Y-127678571D01*
X147470715Y-127678571D01*
X147613572Y-127607143D01*
X147685001Y-127535714D01*
X147756429Y-127392857D01*
X147756429Y-127035714D01*
X147685001Y-126892857D01*
X147613572Y-126821429D01*
X147470715Y-126750000D01*
X147185001Y-126750000D01*
X147042143Y-126821429D01*
X146970715Y-126892857D01*
X146899286Y-127035714D01*
X149113572Y-126178571D02*
X148399286Y-126178571D01*
X148327857Y-126892857D01*
X148399286Y-126821429D01*
X148542143Y-126750000D01*
X148899286Y-126750000D01*
X149042143Y-126821429D01*
X149113572Y-126892857D01*
X149185000Y-127035714D01*
X149185000Y-127392857D01*
X149113572Y-127535714D01*
X149042143Y-127607143D01*
X148899286Y-127678571D01*
X148542143Y-127678571D01*
X148399286Y-127607143D01*
X148327857Y-127535714D01*
X149613571Y-126178571D02*
X150113571Y-127678571D01*
X150613571Y-126178571D01*
X145701001Y-120058571D02*
X144843858Y-120058571D01*
X145272430Y-120058571D02*
X145272430Y-118558571D01*
X145129573Y-118772857D01*
X144986715Y-118915714D01*
X144843858Y-118987143D01*
X146343858Y-119915714D02*
X146415286Y-119987143D01*
X146343858Y-120058571D01*
X146272429Y-119987143D01*
X146343858Y-119915714D01*
X146343858Y-120058571D01*
X147701001Y-118558571D02*
X147415287Y-118558571D01*
X147272430Y-118630000D01*
X147201001Y-118701429D01*
X147058144Y-118915714D01*
X146986715Y-119201429D01*
X146986715Y-119772857D01*
X147058144Y-119915714D01*
X147129572Y-119987143D01*
X147272430Y-120058571D01*
X147558144Y-120058571D01*
X147701001Y-119987143D01*
X147772430Y-119915714D01*
X147843858Y-119772857D01*
X147843858Y-119415714D01*
X147772430Y-119272857D01*
X147701001Y-119201429D01*
X147558144Y-119130000D01*
X147272430Y-119130000D01*
X147129572Y-119201429D01*
X147058144Y-119272857D01*
X146986715Y-119415714D01*
X149201001Y-118558571D02*
X148486715Y-118558571D01*
X148415286Y-119272857D01*
X148486715Y-119201429D01*
X148629572Y-119130000D01*
X148986715Y-119130000D01*
X149129572Y-119201429D01*
X149201001Y-119272857D01*
X149272429Y-119415714D01*
X149272429Y-119772857D01*
X149201001Y-119915714D01*
X149129572Y-119987143D01*
X148986715Y-120058571D01*
X148629572Y-120058571D01*
X148486715Y-119987143D01*
X148415286Y-119915714D01*
X149701000Y-118558571D02*
X150201000Y-120058571D01*
X150701000Y-118558571D01*
X146248715Y-116018571D02*
X147177286Y-116018571D01*
X146677286Y-116590000D01*
X146891572Y-116590000D01*
X147034429Y-116661429D01*
X147105858Y-116732857D01*
X147177286Y-116875714D01*
X147177286Y-117232857D01*
X147105858Y-117375714D01*
X147034429Y-117447143D01*
X146891572Y-117518571D01*
X146463000Y-117518571D01*
X146320143Y-117447143D01*
X146248715Y-117375714D01*
X147820143Y-117375714D02*
X147891571Y-117447143D01*
X147820143Y-117518571D01*
X147748714Y-117447143D01*
X147820143Y-117375714D01*
X147820143Y-117518571D01*
X148391572Y-116018571D02*
X149320143Y-116018571D01*
X148820143Y-116590000D01*
X149034429Y-116590000D01*
X149177286Y-116661429D01*
X149248715Y-116732857D01*
X149320143Y-116875714D01*
X149320143Y-117232857D01*
X149248715Y-117375714D01*
X149177286Y-117447143D01*
X149034429Y-117518571D01*
X148605857Y-117518571D01*
X148463000Y-117447143D01*
X148391572Y-117375714D01*
X149748714Y-116018571D02*
X150248714Y-117518571D01*
X150748714Y-116018571D01*
X132691430Y-93539571D02*
X133691430Y-95039571D01*
X133691430Y-93539571D02*
X132691430Y-95039571D01*
X135048572Y-95039571D02*
X134191429Y-95039571D01*
X134620001Y-95039571D02*
X134620001Y-93539571D01*
X134477144Y-93753857D01*
X134334286Y-93896714D01*
X134191429Y-93968143D01*
X136477143Y-95039571D02*
X135620000Y-95039571D01*
X136048572Y-95039571D02*
X136048572Y-93539571D01*
X135905715Y-93753857D01*
X135762857Y-93896714D01*
X135620000Y-93968143D01*
X132564430Y-90618571D02*
X133564430Y-92118571D01*
X133564430Y-90618571D02*
X132564430Y-92118571D01*
X133993001Y-90618571D02*
X134921572Y-90618571D01*
X134421572Y-91190000D01*
X134635858Y-91190000D01*
X134778715Y-91261429D01*
X134850144Y-91332857D01*
X134921572Y-91475714D01*
X134921572Y-91832857D01*
X134850144Y-91975714D01*
X134778715Y-92047143D01*
X134635858Y-92118571D01*
X134207286Y-92118571D01*
X134064429Y-92047143D01*
X133993001Y-91975714D01*
X136207286Y-91118571D02*
X136207286Y-92118571D01*
X135850143Y-90547143D02*
X135493000Y-91618571D01*
X136421572Y-91618571D01*
X123992429Y-88150000D02*
X123849572Y-88078571D01*
X123635286Y-88078571D01*
X123421001Y-88150000D01*
X123278143Y-88292857D01*
X123206715Y-88435714D01*
X123135286Y-88721429D01*
X123135286Y-88935714D01*
X123206715Y-89221429D01*
X123278143Y-89364286D01*
X123421001Y-89507143D01*
X123635286Y-89578571D01*
X123778143Y-89578571D01*
X123992429Y-89507143D01*
X124063858Y-89435714D01*
X124063858Y-88935714D01*
X123778143Y-88935714D01*
X125349572Y-89578571D02*
X125349572Y-88792857D01*
X125278143Y-88650000D01*
X125135286Y-88578571D01*
X124849572Y-88578571D01*
X124706715Y-88650000D01*
X125349572Y-89507143D02*
X125206715Y-89578571D01*
X124849572Y-89578571D01*
X124706715Y-89507143D01*
X124635286Y-89364286D01*
X124635286Y-89221429D01*
X124706715Y-89078571D01*
X124849572Y-89007143D01*
X125206715Y-89007143D01*
X125349572Y-88935714D01*
X126063858Y-89578571D02*
X126063858Y-88578571D01*
X126063858Y-88078571D02*
X125992429Y-88150000D01*
X126063858Y-88221429D01*
X126135286Y-88150000D01*
X126063858Y-88078571D01*
X126063858Y-88221429D01*
X126778144Y-88578571D02*
X126778144Y-89578571D01*
X126778144Y-88721429D02*
X126849572Y-88650000D01*
X126992430Y-88578571D01*
X127206715Y-88578571D01*
X127349572Y-88650000D01*
X127421001Y-88792857D01*
X127421001Y-89578571D01*
X129706715Y-88078571D02*
X129706715Y-89150000D01*
X129635287Y-89364286D01*
X129492430Y-89507143D01*
X129278144Y-89578571D01*
X129135287Y-89578571D01*
X131063858Y-88578571D02*
X131063858Y-89578571D01*
X130421001Y-88578571D02*
X130421001Y-89364286D01*
X130492429Y-89507143D01*
X130635287Y-89578571D01*
X130849572Y-89578571D01*
X130992429Y-89507143D01*
X131063858Y-89435714D01*
X131778144Y-89578571D02*
X131778144Y-88578571D01*
X131778144Y-88721429D02*
X131849572Y-88650000D01*
X131992430Y-88578571D01*
X132206715Y-88578571D01*
X132349572Y-88650000D01*
X132421001Y-88792857D01*
X132421001Y-89578571D01*
X132421001Y-88792857D02*
X132492430Y-88650000D01*
X132635287Y-88578571D01*
X132849572Y-88578571D01*
X132992430Y-88650000D01*
X133063858Y-88792857D01*
X133063858Y-89578571D01*
X133778144Y-88578571D02*
X133778144Y-90078571D01*
X133778144Y-88650000D02*
X133921001Y-88578571D01*
X134206715Y-88578571D01*
X134349572Y-88650000D01*
X134421001Y-88721429D01*
X134492430Y-88864286D01*
X134492430Y-89292857D01*
X134421001Y-89435714D01*
X134349572Y-89507143D01*
X134206715Y-89578571D01*
X133921001Y-89578571D01*
X133778144Y-89507143D01*
X135706715Y-89507143D02*
X135563858Y-89578571D01*
X135278144Y-89578571D01*
X135135287Y-89507143D01*
X135063858Y-89364286D01*
X135063858Y-88792857D01*
X135135287Y-88650000D01*
X135278144Y-88578571D01*
X135563858Y-88578571D01*
X135706715Y-88650000D01*
X135778144Y-88792857D01*
X135778144Y-88935714D01*
X135063858Y-89078571D01*
X136421001Y-89578571D02*
X136421001Y-88578571D01*
X136421001Y-88864286D02*
X136492429Y-88721429D01*
X136563858Y-88650000D01*
X136706715Y-88578571D01*
X136849572Y-88578571D01*
X121634572Y-100199000D02*
X122348858Y-100199000D01*
X121491715Y-100627571D02*
X121991715Y-99127571D01*
X122491715Y-100627571D01*
X122991715Y-100627571D02*
X122991715Y-99127571D01*
X123348858Y-99127571D01*
X123563143Y-99199000D01*
X123706001Y-99341857D01*
X123777429Y-99484714D01*
X123848858Y-99770429D01*
X123848858Y-99984714D01*
X123777429Y-100270429D01*
X123706001Y-100413286D01*
X123563143Y-100556143D01*
X123348858Y-100627571D01*
X122991715Y-100627571D01*
X125348858Y-100484714D02*
X125277429Y-100556143D01*
X125063143Y-100627571D01*
X124920286Y-100627571D01*
X124706001Y-100556143D01*
X124563143Y-100413286D01*
X124491715Y-100270429D01*
X124420286Y-99984714D01*
X124420286Y-99770429D01*
X124491715Y-99484714D01*
X124563143Y-99341857D01*
X124706001Y-99199000D01*
X124920286Y-99127571D01*
X125063143Y-99127571D01*
X125277429Y-99199000D01*
X125348858Y-99270429D01*
X125920286Y-99270429D02*
X125991715Y-99199000D01*
X126134572Y-99127571D01*
X126491715Y-99127571D01*
X126634572Y-99199000D01*
X126706001Y-99270429D01*
X126777429Y-99413286D01*
X126777429Y-99556143D01*
X126706001Y-99770429D01*
X125848858Y-100627571D01*
X126777429Y-100627571D01*
X107664572Y-98040000D02*
X108378858Y-98040000D01*
X107521715Y-98468571D02*
X108021715Y-96968571D01*
X108521715Y-98468571D01*
X109021715Y-98468571D02*
X109021715Y-96968571D01*
X109378858Y-96968571D01*
X109593143Y-97040000D01*
X109736001Y-97182857D01*
X109807429Y-97325714D01*
X109878858Y-97611429D01*
X109878858Y-97825714D01*
X109807429Y-98111429D01*
X109736001Y-98254286D01*
X109593143Y-98397143D01*
X109378858Y-98468571D01*
X109021715Y-98468571D01*
X111378858Y-98325714D02*
X111307429Y-98397143D01*
X111093143Y-98468571D01*
X110950286Y-98468571D01*
X110736001Y-98397143D01*
X110593143Y-98254286D01*
X110521715Y-98111429D01*
X110450286Y-97825714D01*
X110450286Y-97611429D01*
X110521715Y-97325714D01*
X110593143Y-97182857D01*
X110736001Y-97040000D01*
X110950286Y-96968571D01*
X111093143Y-96968571D01*
X111307429Y-97040000D01*
X111378858Y-97111429D01*
X112807429Y-98468571D02*
X111950286Y-98468571D01*
X112378858Y-98468571D02*
X112378858Y-96968571D01*
X112236001Y-97182857D01*
X112093143Y-97325714D01*
X111950286Y-97397143D01*
X132191143Y-118804571D02*
X131048286Y-119233143D01*
X132191143Y-119661714D01*
X133691143Y-119804571D02*
X132834000Y-119804571D01*
X133262572Y-119804571D02*
X133262572Y-118304571D01*
X133119715Y-118518857D01*
X132976857Y-118661714D01*
X132834000Y-118733143D01*
D12*
X142494000Y-107505500D02*
X142494000Y-102425500D01*
X142494000Y-102425500D02*
X147066000Y-102425500D01*
X147066000Y-102425500D02*
X147066000Y-107505500D01*
X147066000Y-107505500D02*
X142494000Y-107505500D01*
X144018000Y-107505500D02*
X144018000Y-106997500D01*
X144018000Y-106997500D02*
X145288000Y-106997500D01*
X145288000Y-106997500D02*
X145288000Y-107505500D01*
D13*
X145424000Y-109947000D02*
X145424000Y-108747000D01*
X147184000Y-108747000D02*
X147184000Y-109947000D01*
X135645000Y-128362000D02*
X135645000Y-127162000D01*
X137405000Y-127162000D02*
X137405000Y-128362000D01*
X137931000Y-128362000D02*
X137931000Y-127162000D01*
X139691000Y-127162000D02*
X139691000Y-128362000D01*
X140217000Y-128362000D02*
X140217000Y-127162000D01*
X141977000Y-127162000D02*
X141977000Y-128362000D01*
X140090000Y-124234500D02*
X140090000Y-123034500D01*
X141850000Y-123034500D02*
X141850000Y-124234500D01*
X142376000Y-124234500D02*
X142376000Y-123034500D01*
X144136000Y-123034500D02*
X144136000Y-124234500D01*
X144598500Y-124234500D02*
X144598500Y-123034500D01*
X146358500Y-123034500D02*
X146358500Y-124234500D01*
X111297000Y-96398000D02*
X110097000Y-96398000D01*
X110097000Y-94638000D02*
X111297000Y-94638000D01*
X109081000Y-120927000D02*
X110281000Y-120927000D01*
X110281000Y-122687000D02*
X109081000Y-122687000D01*
X109081000Y-123213000D02*
X110281000Y-123213000D01*
X110281000Y-124973000D02*
X109081000Y-124973000D01*
X109081000Y-118768000D02*
X110281000Y-118768000D01*
X110281000Y-120528000D02*
X109081000Y-120528000D01*
X122844000Y-95513000D02*
X124044000Y-95513000D01*
X124044000Y-97273000D02*
X122844000Y-97273000D01*
X140852000Y-109947000D02*
X140852000Y-108747000D01*
X142612000Y-108747000D02*
X142612000Y-109947000D01*
X143138000Y-109947000D02*
X143138000Y-108747000D01*
X144898000Y-108747000D02*
X144898000Y-109947000D01*
X138693000Y-105629000D02*
X138693000Y-104429000D01*
X140453000Y-104429000D02*
X140453000Y-105629000D01*
X122058000Y-109995538D02*
G75*
G03X127608000Y-111540830I2990000J-462D01*
G01*
X122058000Y-109996462D02*
G75*
G02X127608000Y-108451170I2990000J462D01*
G01*
X127548000Y-109996000D02*
G75*
G03X127548000Y-109996000I-2500000J0D01*
G01*
X127608000Y-111541000D02*
X127608000Y-108451000D01*
D12*
X125768000Y-105594000D02*
X125568000Y-105494000D01*
X125768000Y-105594000D02*
X125768000Y-105894000D01*
X125468000Y-105194000D02*
X125468000Y-105394000D01*
X125468000Y-105394000D02*
X125468000Y-105194000D01*
X125468000Y-105194000D02*
X125268000Y-105094000D01*
X125468000Y-105194000D02*
X124668000Y-105694000D01*
X125768000Y-105594000D02*
X124968000Y-106094000D01*
X126068000Y-105294000D02*
X126068000Y-103494000D01*
X126068000Y-104394000D02*
X124368000Y-103494000D01*
X124368000Y-104394000D02*
X124368000Y-103494000D01*
X124368000Y-105294000D02*
X124368000Y-104394000D01*
X126068000Y-104394000D02*
X124368000Y-105294000D01*
X126568000Y-104394000D02*
X123468000Y-104394000D01*
X123468000Y-104394000D02*
X123368000Y-104394000D01*
X122968000Y-103394000D02*
X122968000Y-102394000D01*
X122968000Y-106394000D02*
X122968000Y-105394000D01*
X126968000Y-103394000D02*
X126968000Y-102394000D01*
X126968000Y-106394000D02*
X122968000Y-106394000D01*
X126968000Y-102394000D02*
X122968000Y-102394000D01*
X126968000Y-106394000D02*
X126968000Y-105394000D01*
D13*
X136527000Y-110434000D02*
X136527000Y-111364000D01*
X136527000Y-113594000D02*
X136527000Y-112664000D01*
X136527000Y-113594000D02*
X138687000Y-113594000D01*
X136527000Y-110434000D02*
X137987000Y-110434000D01*
X111297000Y-94239000D02*
X110097000Y-94239000D01*
X110097000Y-92479000D02*
X111297000Y-92479000D01*
X112531000Y-130140000D02*
X112531000Y-128940000D01*
X114291000Y-128940000D02*
X114291000Y-130140000D01*
X122844000Y-93481000D02*
X124044000Y-93481000D01*
X124044000Y-95241000D02*
X122844000Y-95241000D01*
X112150000Y-117440000D02*
X112150000Y-116240000D01*
X113910000Y-116240000D02*
X113910000Y-117440000D01*
X116196000Y-116240000D02*
X116196000Y-117440000D01*
X114436000Y-117440000D02*
X114436000Y-116240000D01*
X139183000Y-107858000D02*
X139183000Y-109058000D01*
X137423000Y-109058000D02*
X137423000Y-107858000D01*
X136280000Y-105629000D02*
X136280000Y-104429000D01*
X138040000Y-104429000D02*
X138040000Y-105629000D01*
D12*
X111506000Y-120650000D02*
X116586000Y-120650000D01*
X116586000Y-120650000D02*
X116586000Y-125222000D01*
X116586000Y-125222000D02*
X111506000Y-125222000D01*
X111506000Y-125222000D02*
X111506000Y-120650000D01*
X111506000Y-122174000D02*
X112014000Y-122174000D01*
X112014000Y-122174000D02*
X112014000Y-123444000D01*
X112014000Y-123444000D02*
X111506000Y-123444000D01*
D13*
X113625000Y-95127000D02*
X116285000Y-95127000D01*
X116285000Y-95127000D02*
X116285000Y-92387000D01*
X116285000Y-92387000D02*
X113625000Y-92387000D01*
X113625000Y-92387000D02*
X113625000Y-95127000D01*
X114575000Y-92387000D02*
X115455000Y-92387000D01*
X115455000Y-92387000D02*
X115455000Y-86387000D01*
X115455000Y-86387000D02*
X114575000Y-86387000D01*
X114575000Y-86387000D02*
X114575000Y-92387000D01*
X114575000Y-95437000D02*
X114575000Y-95127000D01*
X115455000Y-95437000D02*
X115455000Y-95127000D01*
X114575000Y-97977000D02*
X114575000Y-97377000D01*
X115455000Y-97977000D02*
X115455000Y-97377000D01*
X114695000Y-92387000D02*
X114695000Y-86387000D01*
X114815000Y-92387000D02*
X114815000Y-86387000D01*
X114935000Y-92387000D02*
X114935000Y-86387000D01*
X115055000Y-92387000D02*
X115055000Y-86387000D01*
X115175000Y-92387000D02*
X115175000Y-86387000D01*
X115295000Y-92387000D02*
X115295000Y-86387000D01*
X115415000Y-92387000D02*
X115415000Y-86387000D01*
X116285000Y-95127000D02*
X118825000Y-95127000D01*
X118825000Y-95127000D02*
X118825000Y-92387000D01*
X118825000Y-92387000D02*
X116285000Y-92387000D01*
X116285000Y-92387000D02*
X116285000Y-95127000D01*
X117115000Y-92387000D02*
X117995000Y-92387000D01*
X117995000Y-92387000D02*
X117995000Y-86387000D01*
X117995000Y-86387000D02*
X117115000Y-86387000D01*
X117115000Y-86387000D02*
X117115000Y-92387000D01*
X117115000Y-95437000D02*
X117115000Y-95127000D01*
X117995000Y-95437000D02*
X117995000Y-95127000D01*
X117115000Y-97977000D02*
X117115000Y-97377000D01*
X117995000Y-97977000D02*
X117995000Y-97377000D01*
X118825000Y-95127000D02*
X121485000Y-95127000D01*
X121485000Y-95127000D02*
X121485000Y-92387000D01*
X121485000Y-92387000D02*
X118825000Y-92387000D01*
X118825000Y-92387000D02*
X118825000Y-95127000D01*
X119655000Y-92387000D02*
X120535000Y-92387000D01*
X120535000Y-92387000D02*
X120535000Y-86387000D01*
X120535000Y-86387000D02*
X119655000Y-86387000D01*
X119655000Y-86387000D02*
X119655000Y-92387000D01*
X119655000Y-95437000D02*
X119655000Y-95127000D01*
X120535000Y-95437000D02*
X120535000Y-95127000D01*
X119655000Y-97977000D02*
X119655000Y-97377000D01*
X120535000Y-97977000D02*
X120535000Y-97377000D01*
X115015000Y-100217000D02*
X113745000Y-100217000D01*
X113745000Y-100217000D02*
X113745000Y-98947000D01*
X159394000Y-119345000D02*
X159394000Y-118145000D01*
X161154000Y-118145000D02*
X161154000Y-119345000D01*
X168494000Y-123943000D02*
X167294000Y-123943000D01*
X167294000Y-122183000D02*
X168494000Y-122183000D01*
X170316000Y-118075000D02*
X170316000Y-116875000D01*
X172076000Y-116875000D02*
X172076000Y-118075000D01*
X159267000Y-129378000D02*
X159267000Y-128178000D01*
X161027000Y-128178000D02*
X161027000Y-129378000D01*
X169935000Y-131918000D02*
X169935000Y-130718000D01*
X171695000Y-130718000D02*
X171695000Y-131918000D01*
X169935000Y-127854000D02*
X169935000Y-126654000D01*
X171695000Y-126654000D02*
X171695000Y-127854000D01*
X129540000Y-93084000D02*
X132200000Y-93084000D01*
X132200000Y-93084000D02*
X132200000Y-90304000D01*
X132200000Y-90304000D02*
X129540000Y-90304000D01*
X129540000Y-90304000D02*
X129540000Y-93084000D01*
X128270000Y-93084000D02*
X126880000Y-93084000D01*
X126880000Y-93084000D02*
X126880000Y-91694000D01*
X129540000Y-95624000D02*
X132200000Y-95624000D01*
X132200000Y-95624000D02*
X132200000Y-92844000D01*
X132200000Y-92844000D02*
X129540000Y-92844000D01*
X129540000Y-92844000D02*
X129540000Y-95624000D01*
X128270000Y-95624000D02*
X126880000Y-95624000D01*
X126880000Y-95624000D02*
X126880000Y-94234000D01*
X154058000Y-128270000D02*
X154058000Y-130930000D01*
X154058000Y-130930000D02*
X156838000Y-130930000D01*
X156838000Y-130930000D02*
X156838000Y-128270000D01*
X156838000Y-128270000D02*
X154058000Y-128270000D01*
X154058000Y-127000000D02*
X154058000Y-125610000D01*
X154058000Y-125610000D02*
X155448000Y-125610000D01*
X154058000Y-118110000D02*
X154058000Y-120770000D01*
X154058000Y-120770000D02*
X156838000Y-120770000D01*
X156838000Y-120770000D02*
X156838000Y-118110000D01*
X156838000Y-118110000D02*
X154058000Y-118110000D01*
X154058000Y-116840000D02*
X154058000Y-115450000D01*
X154058000Y-115450000D02*
X155448000Y-115450000D01*
X151518000Y-128270000D02*
X151518000Y-130930000D01*
X151518000Y-130930000D02*
X154298000Y-130930000D01*
X154298000Y-130930000D02*
X154298000Y-128270000D01*
X154298000Y-128270000D02*
X151518000Y-128270000D01*
X151518000Y-127000000D02*
X151518000Y-125610000D01*
X151518000Y-125610000D02*
X152908000Y-125610000D01*
X151518000Y-118110000D02*
X151518000Y-120770000D01*
X151518000Y-120770000D02*
X154298000Y-120770000D01*
X154298000Y-120770000D02*
X154298000Y-118110000D01*
X154298000Y-118110000D02*
X151518000Y-118110000D01*
X151518000Y-116840000D02*
X151518000Y-115450000D01*
X151518000Y-115450000D02*
X152908000Y-115450000D01*
X110372000Y-130140000D02*
X110372000Y-128940000D01*
X112132000Y-128940000D02*
X112132000Y-130140000D01*
X151121000Y-104683000D02*
X151121000Y-105883000D01*
X149361000Y-105883000D02*
X149361000Y-104683000D01*
D12*
X167894000Y-115697000D02*
X167894000Y-120777000D01*
X167894000Y-120777000D02*
X163322000Y-120777000D01*
X163322000Y-120777000D02*
X163322000Y-115697000D01*
X163322000Y-115697000D02*
X167894000Y-115697000D01*
X166370000Y-115697000D02*
X166370000Y-116205000D01*
X166370000Y-116205000D02*
X165100000Y-116205000D01*
X165100000Y-116205000D02*
X165100000Y-115697000D01*
X167767000Y-125730000D02*
X167767000Y-130810000D01*
X167767000Y-130810000D02*
X163195000Y-130810000D01*
X163195000Y-130810000D02*
X163195000Y-125730000D01*
X163195000Y-125730000D02*
X167767000Y-125730000D01*
X166243000Y-125730000D02*
X166243000Y-126238000D01*
X166243000Y-126238000D02*
X164973000Y-126238000D01*
X164973000Y-126238000D02*
X164973000Y-125730000D01*
D14*
G36*
X142829260Y-94989073D02*
X143393064Y-95523301D01*
X143953433Y-96002438D01*
X144519800Y-96433572D01*
X145101600Y-96823795D01*
X145708268Y-97180195D01*
X145839162Y-97251113D01*
X146142313Y-97413091D01*
X146493594Y-97219000D01*
X147094354Y-96865555D01*
X147681844Y-96477891D01*
X148246261Y-96063631D01*
X148777806Y-95630396D01*
X149266676Y-95185808D01*
X149703071Y-94737489D01*
X149746247Y-94689617D01*
X150034625Y-94367360D01*
X150345304Y-94364180D01*
X150475922Y-94362518D01*
X150564796Y-94365502D01*
X150612355Y-94380431D01*
X150619031Y-94414604D01*
X150585252Y-94475319D01*
X150511449Y-94569876D01*
X150398051Y-94705572D01*
X150367559Y-94742000D01*
X149768465Y-95411062D01*
X149127884Y-96034735D01*
X148449160Y-96610292D01*
X147735636Y-97135010D01*
X146990658Y-97606162D01*
X146555020Y-97848756D01*
X146412400Y-97922036D01*
X146285721Y-97982758D01*
X146187584Y-98025185D01*
X146130593Y-98043579D01*
X146126395Y-98043910D01*
X146079856Y-98029040D01*
X145988348Y-97987852D01*
X145862123Y-97925390D01*
X145711426Y-97846698D01*
X145573750Y-97771923D01*
X145120690Y-97508422D01*
X144657795Y-97214763D01*
X144206504Y-96905260D01*
X143788254Y-96594231D01*
X143668750Y-96499814D01*
X143426030Y-96296197D01*
X143164604Y-96061372D01*
X142893755Y-95804835D01*
X142622767Y-95536083D01*
X142360921Y-95264613D01*
X142117501Y-94999921D01*
X141901790Y-94751505D01*
X141723071Y-94528860D01*
X141663421Y-94448312D01*
X141600676Y-94361000D01*
X142196146Y-94361000D01*
X142829260Y-94989073D01*
X142829260Y-94989073D01*
G37*
X142829260Y-94989073D02*
X143393064Y-95523301D01*
X143953433Y-96002438D01*
X144519800Y-96433572D01*
X145101600Y-96823795D01*
X145708268Y-97180195D01*
X145839162Y-97251113D01*
X146142313Y-97413091D01*
X146493594Y-97219000D01*
X147094354Y-96865555D01*
X147681844Y-96477891D01*
X148246261Y-96063631D01*
X148777806Y-95630396D01*
X149266676Y-95185808D01*
X149703071Y-94737489D01*
X149746247Y-94689617D01*
X150034625Y-94367360D01*
X150345304Y-94364180D01*
X150475922Y-94362518D01*
X150564796Y-94365502D01*
X150612355Y-94380431D01*
X150619031Y-94414604D01*
X150585252Y-94475319D01*
X150511449Y-94569876D01*
X150398051Y-94705572D01*
X150367559Y-94742000D01*
X149768465Y-95411062D01*
X149127884Y-96034735D01*
X148449160Y-96610292D01*
X147735636Y-97135010D01*
X146990658Y-97606162D01*
X146555020Y-97848756D01*
X146412400Y-97922036D01*
X146285721Y-97982758D01*
X146187584Y-98025185D01*
X146130593Y-98043579D01*
X146126395Y-98043910D01*
X146079856Y-98029040D01*
X145988348Y-97987852D01*
X145862123Y-97925390D01*
X145711426Y-97846698D01*
X145573750Y-97771923D01*
X145120690Y-97508422D01*
X144657795Y-97214763D01*
X144206504Y-96905260D01*
X143788254Y-96594231D01*
X143668750Y-96499814D01*
X143426030Y-96296197D01*
X143164604Y-96061372D01*
X142893755Y-95804835D01*
X142622767Y-95536083D01*
X142360921Y-95264613D01*
X142117501Y-94999921D01*
X141901790Y-94751505D01*
X141723071Y-94528860D01*
X141663421Y-94448312D01*
X141600676Y-94361000D01*
X142196146Y-94361000D01*
X142829260Y-94989073D01*
G36*
X144866664Y-89420124D02*
X144895627Y-89431630D01*
X144906051Y-89467771D01*
X144922215Y-89564711D01*
X144943830Y-89720036D01*
X144970610Y-89931332D01*
X145002265Y-90196185D01*
X145038509Y-90512181D01*
X145079053Y-90876907D01*
X145123610Y-91287947D01*
X145171891Y-91742888D01*
X145176761Y-91789250D01*
X145216736Y-92167687D01*
X145255278Y-92527724D01*
X145291823Y-92864375D01*
X145325805Y-93172650D01*
X145356658Y-93447565D01*
X145383817Y-93684130D01*
X145406716Y-93877359D01*
X145424789Y-94022264D01*
X145437472Y-94113859D01*
X145444111Y-94147077D01*
X145467470Y-94131040D01*
X145513849Y-94069163D01*
X145576276Y-93971577D01*
X145639849Y-93862612D01*
X145729399Y-93710253D01*
X145799358Y-93608876D01*
X145855303Y-93551166D01*
X145891871Y-93532012D01*
X145950594Y-93524094D01*
X146059420Y-93517009D01*
X146204957Y-93511353D01*
X146373807Y-93507725D01*
X146453707Y-93506914D01*
X146936790Y-93503750D01*
X147047109Y-93406888D01*
X147103482Y-93344599D01*
X147182348Y-93240237D01*
X147274518Y-93106761D01*
X147370803Y-92957131D01*
X147401666Y-92906826D01*
X147518065Y-92717054D01*
X147608839Y-92575881D01*
X147679470Y-92476548D01*
X147735440Y-92412295D01*
X147782230Y-92376360D01*
X147825323Y-92361986D01*
X147844488Y-92360750D01*
X147878822Y-92363786D01*
X147911519Y-92377392D01*
X147947785Y-92408314D01*
X147992826Y-92463295D01*
X148051848Y-92549083D01*
X148130057Y-92672421D01*
X148232659Y-92840056D01*
X148298984Y-92949624D01*
X148410093Y-93130924D01*
X148496504Y-93264831D01*
X148564354Y-93359462D01*
X148619780Y-93422933D01*
X148668918Y-93463363D01*
X148701032Y-93481436D01*
X148733577Y-93494491D01*
X148775365Y-93505284D01*
X148832302Y-93514027D01*
X148910297Y-93520930D01*
X149015256Y-93526203D01*
X149153087Y-93530058D01*
X149329698Y-93532704D01*
X149550995Y-93534351D01*
X149822885Y-93535211D01*
X150151277Y-93535494D01*
X150218555Y-93535500D01*
X151622705Y-93535500D01*
X152273000Y-92884625D01*
X152923294Y-92233750D01*
X155176822Y-92233750D01*
X156178746Y-91233625D01*
X157180670Y-90233499D01*
X157853478Y-90233500D01*
X158526286Y-90233500D01*
X158578827Y-90313688D01*
X158612502Y-90374286D01*
X158607160Y-90415954D01*
X158574638Y-90456563D01*
X158551143Y-90478163D01*
X158519297Y-90494155D01*
X158470048Y-90505375D01*
X158394346Y-90512659D01*
X158283139Y-90516842D01*
X158127375Y-90518759D01*
X157918003Y-90519247D01*
X157895577Y-90519250D01*
X157273247Y-90519250D01*
X156273500Y-91519375D01*
X155273752Y-92519500D01*
X153048221Y-92519500D01*
X152908000Y-92662375D01*
X152767778Y-92805250D01*
X153847445Y-92805250D01*
X154927112Y-92805249D01*
X155051124Y-92932250D01*
X155175137Y-93059250D01*
X156633541Y-93059250D01*
X156847308Y-92852875D01*
X156944104Y-92762818D01*
X157026184Y-92692675D01*
X157081591Y-92652370D01*
X157095912Y-92646500D01*
X157130866Y-92665741D01*
X157117325Y-92721804D01*
X157056663Y-92812198D01*
X156950254Y-92934433D01*
X156919166Y-92967087D01*
X156707582Y-93186250D01*
X156009370Y-93186250D01*
X155782069Y-93186376D01*
X155611097Y-93187231D01*
X155489280Y-93189523D01*
X155409449Y-93193965D01*
X155364430Y-93201266D01*
X155347052Y-93212138D01*
X155350144Y-93227291D01*
X155366533Y-93247435D01*
X155368625Y-93249750D01*
X155392451Y-93271833D01*
X155424309Y-93288120D01*
X155473385Y-93299486D01*
X155548865Y-93306806D01*
X155659936Y-93310956D01*
X155815782Y-93312812D01*
X156025591Y-93313249D01*
X156034761Y-93313250D01*
X156245371Y-93313435D01*
X156401881Y-93314719D01*
X156513692Y-93318193D01*
X156590205Y-93324950D01*
X156640819Y-93336082D01*
X156674935Y-93352681D01*
X156701953Y-93375839D01*
X156718000Y-93392625D01*
X156763143Y-93433675D01*
X156814502Y-93457570D01*
X156890086Y-93468823D01*
X157007904Y-93471951D01*
X157034590Y-93472000D01*
X157158281Y-93470728D01*
X157238651Y-93462245D01*
X157295879Y-93439551D01*
X157350143Y-93395643D01*
X157400625Y-93345000D01*
X157524637Y-93218000D01*
X158473023Y-93218000D01*
X158610802Y-93091000D01*
X158708721Y-93011291D01*
X158785551Y-92969349D01*
X158833309Y-92968371D01*
X158845250Y-92997110D01*
X158824941Y-93035550D01*
X158771728Y-93104343D01*
X158698030Y-93187610D01*
X158550810Y-93345000D01*
X157556387Y-93345000D01*
X157432375Y-93472000D01*
X157358065Y-93543416D01*
X157296759Y-93581387D01*
X157222437Y-93596413D01*
X157117695Y-93599000D01*
X156927028Y-93599000D01*
X157067250Y-93741875D01*
X157207471Y-93884750D01*
X157550110Y-93884750D01*
X157704746Y-93886150D01*
X157806065Y-93891291D01*
X157864210Y-93901581D01*
X157889320Y-93918432D01*
X157892750Y-93932375D01*
X157883107Y-93953078D01*
X157847652Y-93966943D01*
X157776594Y-93975215D01*
X157660139Y-93979144D01*
X157518986Y-93980000D01*
X157145223Y-93980000D01*
X156876750Y-93710125D01*
X156608276Y-93440250D01*
X156089764Y-93440250D01*
X155876953Y-93442109D01*
X155721522Y-93447610D01*
X155625354Y-93456630D01*
X155590334Y-93469050D01*
X155590875Y-93472000D01*
X155629500Y-93484490D01*
X155722503Y-93494347D01*
X155860791Y-93500958D01*
X156035275Y-93503707D01*
X156061338Y-93503750D01*
X156512178Y-93503749D01*
X157194250Y-94186375D01*
X157876321Y-94869000D01*
X158061247Y-94869000D01*
X158212757Y-94878016D01*
X158309824Y-94907180D01*
X158359196Y-94959668D01*
X158369000Y-95013777D01*
X158350214Y-95077888D01*
X158289536Y-95121116D01*
X158180484Y-95145895D01*
X158016577Y-95154658D01*
X157993593Y-95154750D01*
X157781071Y-95154750D01*
X157099000Y-94472125D01*
X156416928Y-93789500D01*
X155528368Y-93789500D01*
X155178621Y-93441415D01*
X154828875Y-93093330D01*
X153876375Y-93071652D01*
X153622113Y-93066945D01*
X153375619Y-93064383D01*
X153147658Y-93063930D01*
X152948996Y-93065544D01*
X152790400Y-93069188D01*
X152682635Y-93074824D01*
X152669875Y-93076004D01*
X152544584Y-93091297D01*
X152482229Y-93104976D01*
X152482263Y-93116991D01*
X152544141Y-93127290D01*
X152667317Y-93135825D01*
X152851244Y-93142544D01*
X153095378Y-93147397D01*
X153399173Y-93150333D01*
X153479884Y-93150743D01*
X154353393Y-93154500D01*
X155334699Y-94137340D01*
X155891412Y-94145982D01*
X156095336Y-94149880D01*
X156243923Y-94154850D01*
X156345333Y-94161715D01*
X156407729Y-94171301D01*
X156439272Y-94184434D01*
X156448123Y-94201937D01*
X156448125Y-94202250D01*
X156439758Y-94219406D01*
X156409344Y-94232380D01*
X156348912Y-94241933D01*
X156250494Y-94248826D01*
X156106117Y-94253822D01*
X155907813Y-94257682D01*
X155860750Y-94258388D01*
X155273375Y-94266901D01*
X154781634Y-93774200D01*
X154289893Y-93281500D01*
X152269889Y-93281500D01*
X151996142Y-93569161D01*
X151722394Y-93856823D01*
X150195884Y-93846974D01*
X148669375Y-93837125D01*
X148520407Y-93749555D01*
X148462313Y-93711337D01*
X148406108Y-93663431D01*
X148346197Y-93598556D01*
X148276982Y-93509429D01*
X148192869Y-93388766D01*
X148088259Y-93229286D01*
X147957559Y-93023704D01*
X147934498Y-92987074D01*
X147891535Y-92919855D01*
X147857423Y-92879835D01*
X147824724Y-92871632D01*
X147786002Y-92899862D01*
X147733821Y-92969143D01*
X147660747Y-93084091D01*
X147588434Y-93201943D01*
X147504929Y-93331727D01*
X147418222Y-93456060D01*
X147343282Y-93553768D01*
X147323234Y-93577061D01*
X147247436Y-93656442D01*
X147176491Y-93715196D01*
X147098807Y-93756822D01*
X147002791Y-93784820D01*
X146876852Y-93802690D01*
X146709397Y-93813932D01*
X146514475Y-93821250D01*
X146010576Y-93837125D01*
X145741938Y-94345125D01*
X145651661Y-94512965D01*
X145567206Y-94664698D01*
X145494607Y-94789882D01*
X145439899Y-94878077D01*
X145411729Y-94916413D01*
X145362734Y-94957803D01*
X145317414Y-94957912D01*
X145264552Y-94931652D01*
X145178945Y-94883602D01*
X145093387Y-94058738D01*
X145064851Y-93783885D01*
X145033424Y-93481649D01*
X145001272Y-93172826D01*
X144970562Y-92878216D01*
X144943458Y-92618617D01*
X144935145Y-92539115D01*
X144912498Y-92334415D01*
X144890892Y-92161115D01*
X144871411Y-92026424D01*
X144855138Y-91937549D01*
X144843157Y-91901700D01*
X144839693Y-91904115D01*
X144832612Y-91947635D01*
X144821661Y-92047658D01*
X144807429Y-92197343D01*
X144790509Y-92389850D01*
X144771490Y-92618338D01*
X144750963Y-92875966D01*
X144729518Y-93155893D01*
X144716647Y-93329125D01*
X144682094Y-93795026D01*
X144651232Y-94200965D01*
X144623735Y-94550353D01*
X144599282Y-94846602D01*
X144577546Y-95093122D01*
X144558204Y-95293325D01*
X144540931Y-95450621D01*
X144525405Y-95568421D01*
X144511299Y-95650137D01*
X144498291Y-95699180D01*
X144489845Y-95715682D01*
X144421131Y-95754577D01*
X144336737Y-95742282D01*
X144297465Y-95718312D01*
X144274015Y-95675327D01*
X144237816Y-95576300D01*
X144190649Y-95427006D01*
X144134293Y-95233219D01*
X144070528Y-95000712D01*
X144035706Y-94869000D01*
X143977388Y-94646602D01*
X143922808Y-94439879D01*
X143874471Y-94258207D01*
X143834884Y-94110966D01*
X143806552Y-94007533D01*
X143792901Y-93960138D01*
X143761683Y-93860901D01*
X143401351Y-93847109D01*
X143213663Y-93836680D01*
X143076528Y-93818072D01*
X142977039Y-93785354D01*
X142902290Y-93732593D01*
X142839372Y-93653859D01*
X142787028Y-93564786D01*
X142724235Y-93451228D01*
X142661392Y-93340015D01*
X142634245Y-93293050D01*
X142568115Y-93180200D01*
X142409917Y-93458382D01*
X142356332Y-93554328D01*
X142310473Y-93633726D01*
X142266048Y-93698046D01*
X142216764Y-93748757D01*
X142156327Y-93787329D01*
X142078445Y-93815229D01*
X141976824Y-93833928D01*
X141845172Y-93844894D01*
X141677196Y-93849597D01*
X141466602Y-93849505D01*
X141207098Y-93846088D01*
X140892390Y-93840815D01*
X140779587Y-93838985D01*
X140448204Y-93833619D01*
X140175002Y-93828440D01*
X139954671Y-93822639D01*
X139781899Y-93815412D01*
X139651374Y-93805950D01*
X139557787Y-93793448D01*
X139495826Y-93777097D01*
X139460180Y-93756093D01*
X139445538Y-93729627D01*
X139446590Y-93696894D01*
X139458023Y-93657086D01*
X139464248Y-93639186D01*
X139495106Y-93551375D01*
X140737944Y-93535500D01*
X141013129Y-93531339D01*
X141268504Y-93526237D01*
X141497083Y-93520426D01*
X141691878Y-93514139D01*
X141845901Y-93507609D01*
X141952166Y-93501068D01*
X142003683Y-93494749D01*
X142007204Y-93493216D01*
X142033664Y-93456386D01*
X142084488Y-93377522D01*
X142151688Y-93269230D01*
X142208250Y-93175916D01*
X142310963Y-93014340D01*
X142396531Y-92905327D01*
X142472878Y-92843101D01*
X142547930Y-92821885D01*
X142629614Y-92835901D01*
X142659231Y-92847213D01*
X142716438Y-92881243D01*
X142774409Y-92940127D01*
X142841511Y-93034309D01*
X142926112Y-93174231D01*
X142938500Y-93195746D01*
X143025896Y-93339438D01*
X143100967Y-93445797D01*
X143157720Y-93506726D01*
X143176625Y-93517439D01*
X143232253Y-93524195D01*
X143336338Y-93529780D01*
X143473838Y-93533602D01*
X143625034Y-93535066D01*
X144009944Y-93535500D01*
X144148288Y-94057350D01*
X144194089Y-94227933D01*
X144234462Y-94374171D01*
X144266618Y-94486291D01*
X144287767Y-94554523D01*
X144294880Y-94570952D01*
X144298194Y-94555949D01*
X144303385Y-94513788D01*
X144310709Y-94441369D01*
X144320422Y-94335587D01*
X144332779Y-94193340D01*
X144348034Y-94011524D01*
X144366444Y-93787036D01*
X144388263Y-93516775D01*
X144413748Y-93197635D01*
X144443152Y-92826516D01*
X144476733Y-92400313D01*
X144514744Y-91915923D01*
X144542058Y-91567000D01*
X144574933Y-91147111D01*
X144603388Y-90786061D01*
X144627953Y-90479381D01*
X144649155Y-90222602D01*
X144667524Y-90011256D01*
X144683588Y-89840873D01*
X144697875Y-89706986D01*
X144710914Y-89605125D01*
X144723233Y-89530822D01*
X144735362Y-89479609D01*
X144747827Y-89447016D01*
X144761159Y-89428576D01*
X144775886Y-89419819D01*
X144792535Y-89416277D01*
X144796496Y-89415755D01*
X144866664Y-89420124D01*
X144866664Y-89420124D01*
G37*
X144866664Y-89420124D02*
X144895627Y-89431630D01*
X144906051Y-89467771D01*
X144922215Y-89564711D01*
X144943830Y-89720036D01*
X144970610Y-89931332D01*
X145002265Y-90196185D01*
X145038509Y-90512181D01*
X145079053Y-90876907D01*
X145123610Y-91287947D01*
X145171891Y-91742888D01*
X145176761Y-91789250D01*
X145216736Y-92167687D01*
X145255278Y-92527724D01*
X145291823Y-92864375D01*
X145325805Y-93172650D01*
X145356658Y-93447565D01*
X145383817Y-93684130D01*
X145406716Y-93877359D01*
X145424789Y-94022264D01*
X145437472Y-94113859D01*
X145444111Y-94147077D01*
X145467470Y-94131040D01*
X145513849Y-94069163D01*
X145576276Y-93971577D01*
X145639849Y-93862612D01*
X145729399Y-93710253D01*
X145799358Y-93608876D01*
X145855303Y-93551166D01*
X145891871Y-93532012D01*
X145950594Y-93524094D01*
X146059420Y-93517009D01*
X146204957Y-93511353D01*
X146373807Y-93507725D01*
X146453707Y-93506914D01*
X146936790Y-93503750D01*
X147047109Y-93406888D01*
X147103482Y-93344599D01*
X147182348Y-93240237D01*
X147274518Y-93106761D01*
X147370803Y-92957131D01*
X147401666Y-92906826D01*
X147518065Y-92717054D01*
X147608839Y-92575881D01*
X147679470Y-92476548D01*
X147735440Y-92412295D01*
X147782230Y-92376360D01*
X147825323Y-92361986D01*
X147844488Y-92360750D01*
X147878822Y-92363786D01*
X147911519Y-92377392D01*
X147947785Y-92408314D01*
X147992826Y-92463295D01*
X148051848Y-92549083D01*
X148130057Y-92672421D01*
X148232659Y-92840056D01*
X148298984Y-92949624D01*
X148410093Y-93130924D01*
X148496504Y-93264831D01*
X148564354Y-93359462D01*
X148619780Y-93422933D01*
X148668918Y-93463363D01*
X148701032Y-93481436D01*
X148733577Y-93494491D01*
X148775365Y-93505284D01*
X148832302Y-93514027D01*
X148910297Y-93520930D01*
X149015256Y-93526203D01*
X149153087Y-93530058D01*
X149329698Y-93532704D01*
X149550995Y-93534351D01*
X149822885Y-93535211D01*
X150151277Y-93535494D01*
X150218555Y-93535500D01*
X151622705Y-93535500D01*
X152273000Y-92884625D01*
X152923294Y-92233750D01*
X155176822Y-92233750D01*
X156178746Y-91233625D01*
X157180670Y-90233499D01*
X157853478Y-90233500D01*
X158526286Y-90233500D01*
X158578827Y-90313688D01*
X158612502Y-90374286D01*
X158607160Y-90415954D01*
X158574638Y-90456563D01*
X158551143Y-90478163D01*
X158519297Y-90494155D01*
X158470048Y-90505375D01*
X158394346Y-90512659D01*
X158283139Y-90516842D01*
X158127375Y-90518759D01*
X157918003Y-90519247D01*
X157895577Y-90519250D01*
X157273247Y-90519250D01*
X156273500Y-91519375D01*
X155273752Y-92519500D01*
X153048221Y-92519500D01*
X152908000Y-92662375D01*
X152767778Y-92805250D01*
X153847445Y-92805250D01*
X154927112Y-92805249D01*
X155051124Y-92932250D01*
X155175137Y-93059250D01*
X156633541Y-93059250D01*
X156847308Y-92852875D01*
X156944104Y-92762818D01*
X157026184Y-92692675D01*
X157081591Y-92652370D01*
X157095912Y-92646500D01*
X157130866Y-92665741D01*
X157117325Y-92721804D01*
X157056663Y-92812198D01*
X156950254Y-92934433D01*
X156919166Y-92967087D01*
X156707582Y-93186250D01*
X156009370Y-93186250D01*
X155782069Y-93186376D01*
X155611097Y-93187231D01*
X155489280Y-93189523D01*
X155409449Y-93193965D01*
X155364430Y-93201266D01*
X155347052Y-93212138D01*
X155350144Y-93227291D01*
X155366533Y-93247435D01*
X155368625Y-93249750D01*
X155392451Y-93271833D01*
X155424309Y-93288120D01*
X155473385Y-93299486D01*
X155548865Y-93306806D01*
X155659936Y-93310956D01*
X155815782Y-93312812D01*
X156025591Y-93313249D01*
X156034761Y-93313250D01*
X156245371Y-93313435D01*
X156401881Y-93314719D01*
X156513692Y-93318193D01*
X156590205Y-93324950D01*
X156640819Y-93336082D01*
X156674935Y-93352681D01*
X156701953Y-93375839D01*
X156718000Y-93392625D01*
X156763143Y-93433675D01*
X156814502Y-93457570D01*
X156890086Y-93468823D01*
X157007904Y-93471951D01*
X157034590Y-93472000D01*
X157158281Y-93470728D01*
X157238651Y-93462245D01*
X157295879Y-93439551D01*
X157350143Y-93395643D01*
X157400625Y-93345000D01*
X157524637Y-93218000D01*
X158473023Y-93218000D01*
X158610802Y-93091000D01*
X158708721Y-93011291D01*
X158785551Y-92969349D01*
X158833309Y-92968371D01*
X158845250Y-92997110D01*
X158824941Y-93035550D01*
X158771728Y-93104343D01*
X158698030Y-93187610D01*
X158550810Y-93345000D01*
X157556387Y-93345000D01*
X157432375Y-93472000D01*
X157358065Y-93543416D01*
X157296759Y-93581387D01*
X157222437Y-93596413D01*
X157117695Y-93599000D01*
X156927028Y-93599000D01*
X157067250Y-93741875D01*
X157207471Y-93884750D01*
X157550110Y-93884750D01*
X157704746Y-93886150D01*
X157806065Y-93891291D01*
X157864210Y-93901581D01*
X157889320Y-93918432D01*
X157892750Y-93932375D01*
X157883107Y-93953078D01*
X157847652Y-93966943D01*
X157776594Y-93975215D01*
X157660139Y-93979144D01*
X157518986Y-93980000D01*
X157145223Y-93980000D01*
X156876750Y-93710125D01*
X156608276Y-93440250D01*
X156089764Y-93440250D01*
X155876953Y-93442109D01*
X155721522Y-93447610D01*
X155625354Y-93456630D01*
X155590334Y-93469050D01*
X155590875Y-93472000D01*
X155629500Y-93484490D01*
X155722503Y-93494347D01*
X155860791Y-93500958D01*
X156035275Y-93503707D01*
X156061338Y-93503750D01*
X156512178Y-93503749D01*
X157194250Y-94186375D01*
X157876321Y-94869000D01*
X158061247Y-94869000D01*
X158212757Y-94878016D01*
X158309824Y-94907180D01*
X158359196Y-94959668D01*
X158369000Y-95013777D01*
X158350214Y-95077888D01*
X158289536Y-95121116D01*
X158180484Y-95145895D01*
X158016577Y-95154658D01*
X157993593Y-95154750D01*
X157781071Y-95154750D01*
X157099000Y-94472125D01*
X156416928Y-93789500D01*
X155528368Y-93789500D01*
X155178621Y-93441415D01*
X154828875Y-93093330D01*
X153876375Y-93071652D01*
X153622113Y-93066945D01*
X153375619Y-93064383D01*
X153147658Y-93063930D01*
X152948996Y-93065544D01*
X152790400Y-93069188D01*
X152682635Y-93074824D01*
X152669875Y-93076004D01*
X152544584Y-93091297D01*
X152482229Y-93104976D01*
X152482263Y-93116991D01*
X152544141Y-93127290D01*
X152667317Y-93135825D01*
X152851244Y-93142544D01*
X153095378Y-93147397D01*
X153399173Y-93150333D01*
X153479884Y-93150743D01*
X154353393Y-93154500D01*
X155334699Y-94137340D01*
X155891412Y-94145982D01*
X156095336Y-94149880D01*
X156243923Y-94154850D01*
X156345333Y-94161715D01*
X156407729Y-94171301D01*
X156439272Y-94184434D01*
X156448123Y-94201937D01*
X156448125Y-94202250D01*
X156439758Y-94219406D01*
X156409344Y-94232380D01*
X156348912Y-94241933D01*
X156250494Y-94248826D01*
X156106117Y-94253822D01*
X155907813Y-94257682D01*
X155860750Y-94258388D01*
X155273375Y-94266901D01*
X154781634Y-93774200D01*
X154289893Y-93281500D01*
X152269889Y-93281500D01*
X151996142Y-93569161D01*
X151722394Y-93856823D01*
X150195884Y-93846974D01*
X148669375Y-93837125D01*
X148520407Y-93749555D01*
X148462313Y-93711337D01*
X148406108Y-93663431D01*
X148346197Y-93598556D01*
X148276982Y-93509429D01*
X148192869Y-93388766D01*
X148088259Y-93229286D01*
X147957559Y-93023704D01*
X147934498Y-92987074D01*
X147891535Y-92919855D01*
X147857423Y-92879835D01*
X147824724Y-92871632D01*
X147786002Y-92899862D01*
X147733821Y-92969143D01*
X147660747Y-93084091D01*
X147588434Y-93201943D01*
X147504929Y-93331727D01*
X147418222Y-93456060D01*
X147343282Y-93553768D01*
X147323234Y-93577061D01*
X147247436Y-93656442D01*
X147176491Y-93715196D01*
X147098807Y-93756822D01*
X147002791Y-93784820D01*
X146876852Y-93802690D01*
X146709397Y-93813932D01*
X146514475Y-93821250D01*
X146010576Y-93837125D01*
X145741938Y-94345125D01*
X145651661Y-94512965D01*
X145567206Y-94664698D01*
X145494607Y-94789882D01*
X145439899Y-94878077D01*
X145411729Y-94916413D01*
X145362734Y-94957803D01*
X145317414Y-94957912D01*
X145264552Y-94931652D01*
X145178945Y-94883602D01*
X145093387Y-94058738D01*
X145064851Y-93783885D01*
X145033424Y-93481649D01*
X145001272Y-93172826D01*
X144970562Y-92878216D01*
X144943458Y-92618617D01*
X144935145Y-92539115D01*
X144912498Y-92334415D01*
X144890892Y-92161115D01*
X144871411Y-92026424D01*
X144855138Y-91937549D01*
X144843157Y-91901700D01*
X144839693Y-91904115D01*
X144832612Y-91947635D01*
X144821661Y-92047658D01*
X144807429Y-92197343D01*
X144790509Y-92389850D01*
X144771490Y-92618338D01*
X144750963Y-92875966D01*
X144729518Y-93155893D01*
X144716647Y-93329125D01*
X144682094Y-93795026D01*
X144651232Y-94200965D01*
X144623735Y-94550353D01*
X144599282Y-94846602D01*
X144577546Y-95093122D01*
X144558204Y-95293325D01*
X144540931Y-95450621D01*
X144525405Y-95568421D01*
X144511299Y-95650137D01*
X144498291Y-95699180D01*
X144489845Y-95715682D01*
X144421131Y-95754577D01*
X144336737Y-95742282D01*
X144297465Y-95718312D01*
X144274015Y-95675327D01*
X144237816Y-95576300D01*
X144190649Y-95427006D01*
X144134293Y-95233219D01*
X144070528Y-95000712D01*
X144035706Y-94869000D01*
X143977388Y-94646602D01*
X143922808Y-94439879D01*
X143874471Y-94258207D01*
X143834884Y-94110966D01*
X143806552Y-94007533D01*
X143792901Y-93960138D01*
X143761683Y-93860901D01*
X143401351Y-93847109D01*
X143213663Y-93836680D01*
X143076528Y-93818072D01*
X142977039Y-93785354D01*
X142902290Y-93732593D01*
X142839372Y-93653859D01*
X142787028Y-93564786D01*
X142724235Y-93451228D01*
X142661392Y-93340015D01*
X142634245Y-93293050D01*
X142568115Y-93180200D01*
X142409917Y-93458382D01*
X142356332Y-93554328D01*
X142310473Y-93633726D01*
X142266048Y-93698046D01*
X142216764Y-93748757D01*
X142156327Y-93787329D01*
X142078445Y-93815229D01*
X141976824Y-93833928D01*
X141845172Y-93844894D01*
X141677196Y-93849597D01*
X141466602Y-93849505D01*
X141207098Y-93846088D01*
X140892390Y-93840815D01*
X140779587Y-93838985D01*
X140448204Y-93833619D01*
X140175002Y-93828440D01*
X139954671Y-93822639D01*
X139781899Y-93815412D01*
X139651374Y-93805950D01*
X139557787Y-93793448D01*
X139495826Y-93777097D01*
X139460180Y-93756093D01*
X139445538Y-93729627D01*
X139446590Y-93696894D01*
X139458023Y-93657086D01*
X139464248Y-93639186D01*
X139495106Y-93551375D01*
X140737944Y-93535500D01*
X141013129Y-93531339D01*
X141268504Y-93526237D01*
X141497083Y-93520426D01*
X141691878Y-93514139D01*
X141845901Y-93507609D01*
X141952166Y-93501068D01*
X142003683Y-93494749D01*
X142007204Y-93493216D01*
X142033664Y-93456386D01*
X142084488Y-93377522D01*
X142151688Y-93269230D01*
X142208250Y-93175916D01*
X142310963Y-93014340D01*
X142396531Y-92905327D01*
X142472878Y-92843101D01*
X142547930Y-92821885D01*
X142629614Y-92835901D01*
X142659231Y-92847213D01*
X142716438Y-92881243D01*
X142774409Y-92940127D01*
X142841511Y-93034309D01*
X142926112Y-93174231D01*
X142938500Y-93195746D01*
X143025896Y-93339438D01*
X143100967Y-93445797D01*
X143157720Y-93506726D01*
X143176625Y-93517439D01*
X143232253Y-93524195D01*
X143336338Y-93529780D01*
X143473838Y-93533602D01*
X143625034Y-93535066D01*
X144009944Y-93535500D01*
X144148288Y-94057350D01*
X144194089Y-94227933D01*
X144234462Y-94374171D01*
X144266618Y-94486291D01*
X144287767Y-94554523D01*
X144294880Y-94570952D01*
X144298194Y-94555949D01*
X144303385Y-94513788D01*
X144310709Y-94441369D01*
X144320422Y-94335587D01*
X144332779Y-94193340D01*
X144348034Y-94011524D01*
X144366444Y-93787036D01*
X144388263Y-93516775D01*
X144413748Y-93197635D01*
X144443152Y-92826516D01*
X144476733Y-92400313D01*
X144514744Y-91915923D01*
X144542058Y-91567000D01*
X144574933Y-91147111D01*
X144603388Y-90786061D01*
X144627953Y-90479381D01*
X144649155Y-90222602D01*
X144667524Y-90011256D01*
X144683588Y-89840873D01*
X144697875Y-89706986D01*
X144710914Y-89605125D01*
X144723233Y-89530822D01*
X144735362Y-89479609D01*
X144747827Y-89447016D01*
X144761159Y-89428576D01*
X144775886Y-89419819D01*
X144792535Y-89416277D01*
X144796496Y-89415755D01*
X144866664Y-89420124D01*
G36*
X158862106Y-94558536D02*
X158959647Y-94627713D01*
X159021217Y-94734636D01*
X159035750Y-94830526D01*
X159015781Y-94963314D01*
X158950901Y-95057859D01*
X158877635Y-95106796D01*
X158762102Y-95148610D01*
X158659459Y-95139586D01*
X158594744Y-95110442D01*
X158495143Y-95024073D01*
X158443775Y-94912865D01*
X158441497Y-94838001D01*
X158623000Y-94838001D01*
X158647725Y-94917487D01*
X158708004Y-94960534D01*
X158782991Y-94959880D01*
X158846030Y-94915684D01*
X158870140Y-94860068D01*
X158850598Y-94788684D01*
X158795603Y-94724472D01*
X158726249Y-94708978D01*
X158662905Y-94737790D01*
X158625940Y-94806494D01*
X158623000Y-94838001D01*
X158441497Y-94838001D01*
X158440116Y-94792657D01*
X158483641Y-94679293D01*
X158573827Y-94588612D01*
X158612733Y-94566841D01*
X158742000Y-94535460D01*
X158862106Y-94558536D01*
X158862106Y-94558536D01*
G37*
X158862106Y-94558536D02*
X158959647Y-94627713D01*
X159021217Y-94734636D01*
X159035750Y-94830526D01*
X159015781Y-94963314D01*
X158950901Y-95057859D01*
X158877635Y-95106796D01*
X158762102Y-95148610D01*
X158659459Y-95139586D01*
X158594744Y-95110442D01*
X158495143Y-95024073D01*
X158443775Y-94912865D01*
X158441497Y-94838001D01*
X158623000Y-94838001D01*
X158647725Y-94917487D01*
X158708004Y-94960534D01*
X158782991Y-94959880D01*
X158846030Y-94915684D01*
X158870140Y-94860068D01*
X158850598Y-94788684D01*
X158795603Y-94724472D01*
X158726249Y-94708978D01*
X158662905Y-94737790D01*
X158625940Y-94806494D01*
X158623000Y-94838001D01*
X158441497Y-94838001D01*
X158440116Y-94792657D01*
X158483641Y-94679293D01*
X158573827Y-94588612D01*
X158612733Y-94566841D01*
X158742000Y-94535460D01*
X158862106Y-94558536D01*
G36*
X166306500Y-94358732D02*
X166303394Y-94509497D01*
X166292867Y-94609162D01*
X166273098Y-94669877D01*
X166256607Y-94692107D01*
X166175287Y-94733740D01*
X166072258Y-94736770D01*
X165976602Y-94700700D01*
X165971305Y-94696970D01*
X165932428Y-94650777D01*
X165944002Y-94622045D01*
X165993040Y-94625435D01*
X166021763Y-94640014D01*
X166114278Y-94676001D01*
X166183000Y-94653274D01*
X166210132Y-94617087D01*
X166239008Y-94551984D01*
X166226065Y-94528970D01*
X166165916Y-94537886D01*
X166052066Y-94542656D01*
X165969638Y-94492327D01*
X165926508Y-94411681D01*
X165909604Y-94307086D01*
X166020750Y-94307086D01*
X166025221Y-94396500D01*
X166036457Y-94456670D01*
X166041916Y-94466833D01*
X166101994Y-94488666D01*
X166170502Y-94467176D01*
X166212090Y-94422929D01*
X166238874Y-94329414D01*
X166227550Y-94240767D01*
X166186173Y-94172839D01*
X166122796Y-94141484D01*
X166072690Y-94148575D01*
X166036258Y-94186730D01*
X166021502Y-94271491D01*
X166020750Y-94307086D01*
X165909604Y-94307086D01*
X165908049Y-94297466D01*
X165926533Y-94215407D01*
X165966374Y-94135853D01*
X166021283Y-94093482D01*
X166110438Y-94077361D01*
X166171562Y-94075736D01*
X166306500Y-94075250D01*
X166306500Y-94358732D01*
X166306500Y-94358732D01*
G37*
X166306500Y-94358732D02*
X166303394Y-94509497D01*
X166292867Y-94609162D01*
X166273098Y-94669877D01*
X166256607Y-94692107D01*
X166175287Y-94733740D01*
X166072258Y-94736770D01*
X165976602Y-94700700D01*
X165971305Y-94696970D01*
X165932428Y-94650777D01*
X165944002Y-94622045D01*
X165993040Y-94625435D01*
X166021763Y-94640014D01*
X166114278Y-94676001D01*
X166183000Y-94653274D01*
X166210132Y-94617087D01*
X166239008Y-94551984D01*
X166226065Y-94528970D01*
X166165916Y-94537886D01*
X166052066Y-94542656D01*
X165969638Y-94492327D01*
X165926508Y-94411681D01*
X165909604Y-94307086D01*
X166020750Y-94307086D01*
X166025221Y-94396500D01*
X166036457Y-94456670D01*
X166041916Y-94466833D01*
X166101994Y-94488666D01*
X166170502Y-94467176D01*
X166212090Y-94422929D01*
X166238874Y-94329414D01*
X166227550Y-94240767D01*
X166186173Y-94172839D01*
X166122796Y-94141484D01*
X166072690Y-94148575D01*
X166036258Y-94186730D01*
X166021502Y-94271491D01*
X166020750Y-94307086D01*
X165909604Y-94307086D01*
X165908049Y-94297466D01*
X165926533Y-94215407D01*
X165966374Y-94135853D01*
X166021283Y-94093482D01*
X166110438Y-94077361D01*
X166171562Y-94075736D01*
X166306500Y-94075250D01*
X166306500Y-94358732D01*
G36*
X159517873Y-93894970D02*
X159532020Y-93932465D01*
X159540032Y-94007486D01*
X159543373Y-94130284D01*
X159543750Y-94218125D01*
X159542289Y-94370362D01*
X159536933Y-94469396D01*
X159526216Y-94525479D01*
X159508673Y-94548861D01*
X159496125Y-94551500D01*
X159466175Y-94534505D01*
X159451547Y-94475664D01*
X159448500Y-94392750D01*
X159448500Y-94234000D01*
X159131000Y-94234000D01*
X159131000Y-94392750D01*
X159125901Y-94492581D01*
X159108249Y-94541341D01*
X159083375Y-94551500D01*
X159061700Y-94541321D01*
X159047571Y-94503975D01*
X159039538Y-94429240D01*
X159036154Y-94306898D01*
X159035750Y-94215479D01*
X159037637Y-94058912D01*
X159043935Y-93957988D01*
X159055599Y-93904940D01*
X159073582Y-93892006D01*
X159075437Y-93892509D01*
X159102229Y-93929494D01*
X159121452Y-94006346D01*
X159124888Y-94038030D01*
X159134651Y-94170500D01*
X159448500Y-94170500D01*
X159448500Y-94027625D01*
X159454732Y-93933454D01*
X159475925Y-93890559D01*
X159496125Y-93884750D01*
X159517873Y-93894970D01*
X159517873Y-93894970D01*
G37*
X159517873Y-93894970D02*
X159532020Y-93932465D01*
X159540032Y-94007486D01*
X159543373Y-94130284D01*
X159543750Y-94218125D01*
X159542289Y-94370362D01*
X159536933Y-94469396D01*
X159526216Y-94525479D01*
X159508673Y-94548861D01*
X159496125Y-94551500D01*
X159466175Y-94534505D01*
X159451547Y-94475664D01*
X159448500Y-94392750D01*
X159448500Y-94234000D01*
X159131000Y-94234000D01*
X159131000Y-94392750D01*
X159125901Y-94492581D01*
X159108249Y-94541341D01*
X159083375Y-94551500D01*
X159061700Y-94541321D01*
X159047571Y-94503975D01*
X159039538Y-94429240D01*
X159036154Y-94306898D01*
X159035750Y-94215479D01*
X159037637Y-94058912D01*
X159043935Y-93957988D01*
X159055599Y-93904940D01*
X159073582Y-93892006D01*
X159075437Y-93892509D01*
X159102229Y-93929494D01*
X159121452Y-94006346D01*
X159124888Y-94038030D01*
X159134651Y-94170500D01*
X159448500Y-94170500D01*
X159448500Y-94027625D01*
X159454732Y-93933454D01*
X159475925Y-93890559D01*
X159496125Y-93884750D01*
X159517873Y-93894970D01*
G36*
X159993887Y-94112323D02*
X160060493Y-94178869D01*
X160083500Y-94260312D01*
X160076254Y-94301977D01*
X160043748Y-94322430D01*
X159969832Y-94328929D01*
X159930041Y-94329250D01*
X159818822Y-94333817D01*
X159762041Y-94351057D01*
X159751065Y-94386273D01*
X159768234Y-94428674D01*
X159826652Y-94478818D01*
X159912258Y-94481474D01*
X159987236Y-94449514D01*
X160048164Y-94428211D01*
X160077097Y-94445203D01*
X160061047Y-94485831D01*
X160037694Y-94506470D01*
X159944512Y-94544487D01*
X159838174Y-94546545D01*
X159747135Y-94513824D01*
X159723295Y-94493437D01*
X159685248Y-94414987D01*
X159671552Y-94309195D01*
X159678434Y-94242600D01*
X159750111Y-94242600D01*
X159769046Y-94260862D01*
X159835574Y-94265649D01*
X159860132Y-94265750D01*
X159940090Y-94260159D01*
X159984820Y-94246181D01*
X159988250Y-94240350D01*
X159961713Y-94188655D01*
X159901189Y-94148386D01*
X159856017Y-94138750D01*
X159797610Y-94164201D01*
X159766000Y-94202250D01*
X159750111Y-94242600D01*
X159678434Y-94242600D01*
X159682410Y-94204135D01*
X159718025Y-94127879D01*
X159720642Y-94125142D01*
X159805000Y-94078396D01*
X159902402Y-94076478D01*
X159993887Y-94112323D01*
X159993887Y-94112323D01*
G37*
X159993887Y-94112323D02*
X160060493Y-94178869D01*
X160083500Y-94260312D01*
X160076254Y-94301977D01*
X160043748Y-94322430D01*
X159969832Y-94328929D01*
X159930041Y-94329250D01*
X159818822Y-94333817D01*
X159762041Y-94351057D01*
X159751065Y-94386273D01*
X159768234Y-94428674D01*
X159826652Y-94478818D01*
X159912258Y-94481474D01*
X159987236Y-94449514D01*
X160048164Y-94428211D01*
X160077097Y-94445203D01*
X160061047Y-94485831D01*
X160037694Y-94506470D01*
X159944512Y-94544487D01*
X159838174Y-94546545D01*
X159747135Y-94513824D01*
X159723295Y-94493437D01*
X159685248Y-94414987D01*
X159671552Y-94309195D01*
X159678434Y-94242600D01*
X159750111Y-94242600D01*
X159769046Y-94260862D01*
X159835574Y-94265649D01*
X159860132Y-94265750D01*
X159940090Y-94260159D01*
X159984820Y-94246181D01*
X159988250Y-94240350D01*
X159961713Y-94188655D01*
X159901189Y-94148386D01*
X159856017Y-94138750D01*
X159797610Y-94164201D01*
X159766000Y-94202250D01*
X159750111Y-94242600D01*
X159678434Y-94242600D01*
X159682410Y-94204135D01*
X159718025Y-94127879D01*
X159720642Y-94125142D01*
X159805000Y-94078396D01*
X159902402Y-94076478D01*
X159993887Y-94112323D01*
G36*
X160451263Y-94082597D02*
X160515786Y-94109415D01*
X160521085Y-94114937D01*
X160540254Y-94166361D01*
X160556531Y-94258986D01*
X160564661Y-94347669D01*
X160575625Y-94540714D01*
X160397790Y-94545543D01*
X160296688Y-94544786D01*
X160223304Y-94537749D01*
X160199353Y-94529769D01*
X160184190Y-94485755D01*
X160180184Y-94437563D01*
X160250469Y-94437563D01*
X160257265Y-94454859D01*
X160306403Y-94483033D01*
X160380544Y-94484073D01*
X160447661Y-94458769D01*
X160458150Y-94449900D01*
X160495493Y-94387870D01*
X160474261Y-94344423D01*
X160404887Y-94329250D01*
X160323763Y-94345969D01*
X160266785Y-94386758D01*
X160250469Y-94437563D01*
X160180184Y-94437563D01*
X160178750Y-94420325D01*
X160204835Y-94332728D01*
X160283117Y-94281243D01*
X160402309Y-94265750D01*
X160470690Y-94258930D01*
X160488514Y-94233558D01*
X160483771Y-94215528D01*
X160466961Y-94164915D01*
X160464500Y-94152028D01*
X160438830Y-94138280D01*
X160378964Y-94142157D01*
X160310615Y-94160239D01*
X160275013Y-94177235D01*
X160213799Y-94199116D01*
X160185992Y-94179937D01*
X160204547Y-94130358D01*
X160209863Y-94123642D01*
X160269707Y-94090511D01*
X160359706Y-94076563D01*
X160451263Y-94082597D01*
X160451263Y-94082597D01*
G37*
X160451263Y-94082597D02*
X160515786Y-94109415D01*
X160521085Y-94114937D01*
X160540254Y-94166361D01*
X160556531Y-94258986D01*
X160564661Y-94347669D01*
X160575625Y-94540714D01*
X160397790Y-94545543D01*
X160296688Y-94544786D01*
X160223304Y-94537749D01*
X160199353Y-94529769D01*
X160184190Y-94485755D01*
X160180184Y-94437563D01*
X160250469Y-94437563D01*
X160257265Y-94454859D01*
X160306403Y-94483033D01*
X160380544Y-94484073D01*
X160447661Y-94458769D01*
X160458150Y-94449900D01*
X160495493Y-94387870D01*
X160474261Y-94344423D01*
X160404887Y-94329250D01*
X160323763Y-94345969D01*
X160266785Y-94386758D01*
X160250469Y-94437563D01*
X160180184Y-94437563D01*
X160178750Y-94420325D01*
X160204835Y-94332728D01*
X160283117Y-94281243D01*
X160402309Y-94265750D01*
X160470690Y-94258930D01*
X160488514Y-94233558D01*
X160483771Y-94215528D01*
X160466961Y-94164915D01*
X160464500Y-94152028D01*
X160438830Y-94138280D01*
X160378964Y-94142157D01*
X160310615Y-94160239D01*
X160275013Y-94177235D01*
X160213799Y-94199116D01*
X160185992Y-94179937D01*
X160204547Y-94130358D01*
X160209863Y-94123642D01*
X160269707Y-94090511D01*
X160359706Y-94076563D01*
X160451263Y-94082597D01*
G36*
X160905912Y-94090593D02*
X160936573Y-94110204D01*
X160905341Y-94142080D01*
X160861375Y-94164722D01*
X160815196Y-94192950D01*
X160791398Y-94235897D01*
X160782822Y-94312639D01*
X160782000Y-94376194D01*
X160777754Y-94481734D01*
X160762849Y-94536179D01*
X160734375Y-94551500D01*
X160709055Y-94538872D01*
X160694290Y-94493299D01*
X160687729Y-94403240D01*
X160686750Y-94317704D01*
X160686750Y-94083909D01*
X160813750Y-94083909D01*
X160905912Y-94090593D01*
X160905912Y-94090593D01*
G37*
X160905912Y-94090593D02*
X160936573Y-94110204D01*
X160905341Y-94142080D01*
X160861375Y-94164722D01*
X160815196Y-94192950D01*
X160791398Y-94235897D01*
X160782822Y-94312639D01*
X160782000Y-94376194D01*
X160777754Y-94481734D01*
X160762849Y-94536179D01*
X160734375Y-94551500D01*
X160709055Y-94538872D01*
X160694290Y-94493299D01*
X160687729Y-94403240D01*
X160686750Y-94317704D01*
X160686750Y-94083909D01*
X160813750Y-94083909D01*
X160905912Y-94090593D01*
G36*
X161092097Y-93969635D02*
X161099500Y-94009104D01*
X161117803Y-94068846D01*
X161139187Y-94088479D01*
X161162536Y-94109330D01*
X161139187Y-94125520D01*
X161112043Y-94168292D01*
X161099253Y-94248435D01*
X161100274Y-94341993D01*
X161114565Y-94425010D01*
X161141583Y-94473529D01*
X161147125Y-94476518D01*
X161191556Y-94508784D01*
X161179379Y-94538615D01*
X161117514Y-94551500D01*
X161048111Y-94530176D01*
X161023169Y-94495937D01*
X161010462Y-94424078D01*
X161002305Y-94319027D01*
X160999001Y-94201605D01*
X161000855Y-94092633D01*
X161008172Y-94012931D01*
X161015731Y-93987109D01*
X161058761Y-93950010D01*
X161092097Y-93969635D01*
X161092097Y-93969635D01*
G37*
X161092097Y-93969635D02*
X161099500Y-94009104D01*
X161117803Y-94068846D01*
X161139187Y-94088479D01*
X161162536Y-94109330D01*
X161139187Y-94125520D01*
X161112043Y-94168292D01*
X161099253Y-94248435D01*
X161100274Y-94341993D01*
X161114565Y-94425010D01*
X161141583Y-94473529D01*
X161147125Y-94476518D01*
X161191556Y-94508784D01*
X161179379Y-94538615D01*
X161117514Y-94551500D01*
X161048111Y-94530176D01*
X161023169Y-94495937D01*
X161010462Y-94424078D01*
X161002305Y-94319027D01*
X160999001Y-94201605D01*
X161000855Y-94092633D01*
X161008172Y-94012931D01*
X161015731Y-93987109D01*
X161058761Y-93950010D01*
X161092097Y-93969635D01*
G36*
X161726562Y-93891236D02*
X161849737Y-93902435D01*
X161919881Y-93920269D01*
X161934641Y-93940661D01*
X161891663Y-93959536D01*
X161788593Y-93972817D01*
X161774187Y-93973721D01*
X161677224Y-93981423D01*
X161627761Y-93996599D01*
X161609843Y-94029128D01*
X161607500Y-94076909D01*
X161611786Y-94134470D01*
X161636127Y-94161734D01*
X161697744Y-94169981D01*
X161750375Y-94170500D01*
X161844545Y-94176732D01*
X161887440Y-94197925D01*
X161893250Y-94218125D01*
X161874551Y-94249515D01*
X161810973Y-94263813D01*
X161750375Y-94265750D01*
X161607500Y-94265750D01*
X161607500Y-94408625D01*
X161601267Y-94502795D01*
X161580074Y-94545690D01*
X161559875Y-94551500D01*
X161538167Y-94541302D01*
X161524029Y-94503889D01*
X161516006Y-94429025D01*
X161512642Y-94306478D01*
X161512250Y-94216674D01*
X161512250Y-93881848D01*
X161726562Y-93891236D01*
X161726562Y-93891236D01*
G37*
X161726562Y-93891236D02*
X161849737Y-93902435D01*
X161919881Y-93920269D01*
X161934641Y-93940661D01*
X161891663Y-93959536D01*
X161788593Y-93972817D01*
X161774187Y-93973721D01*
X161677224Y-93981423D01*
X161627761Y-93996599D01*
X161609843Y-94029128D01*
X161607500Y-94076909D01*
X161611786Y-94134470D01*
X161636127Y-94161734D01*
X161697744Y-94169981D01*
X161750375Y-94170500D01*
X161844545Y-94176732D01*
X161887440Y-94197925D01*
X161893250Y-94218125D01*
X161874551Y-94249515D01*
X161810973Y-94263813D01*
X161750375Y-94265750D01*
X161607500Y-94265750D01*
X161607500Y-94408625D01*
X161601267Y-94502795D01*
X161580074Y-94545690D01*
X161559875Y-94551500D01*
X161538167Y-94541302D01*
X161524029Y-94503889D01*
X161516006Y-94429025D01*
X161512642Y-94306478D01*
X161512250Y-94216674D01*
X161512250Y-93881848D01*
X161726562Y-93891236D01*
G36*
X162329961Y-94083892D02*
X162394885Y-94113335D01*
X162394900Y-94113350D01*
X162415655Y-94164599D01*
X162429399Y-94257985D01*
X162433000Y-94344656D01*
X162433000Y-94537863D01*
X162257579Y-94545204D01*
X162152049Y-94545762D01*
X162093353Y-94533528D01*
X162065437Y-94504497D01*
X162062183Y-94496459D01*
X162039231Y-94437563D01*
X162123719Y-94437563D01*
X162130515Y-94454859D01*
X162183382Y-94485553D01*
X162266456Y-94473741D01*
X162308087Y-94455132D01*
X162363664Y-94405339D01*
X162361740Y-94358561D01*
X162306220Y-94331215D01*
X162278137Y-94329250D01*
X162197013Y-94345969D01*
X162140035Y-94386758D01*
X162123719Y-94437563D01*
X162039231Y-94437563D01*
X162039116Y-94437269D01*
X162030071Y-94417720D01*
X162038828Y-94376023D01*
X162087961Y-94327324D01*
X162158013Y-94285895D01*
X162229529Y-94266010D01*
X162237208Y-94265750D01*
X162323163Y-94256388D01*
X162355121Y-94224730D01*
X162348040Y-94183270D01*
X162303951Y-94145499D01*
X162228591Y-94144407D01*
X162148263Y-94177235D01*
X162087049Y-94199116D01*
X162059242Y-94179937D01*
X162077797Y-94130358D01*
X162083113Y-94123642D01*
X162144396Y-94090026D01*
X162236571Y-94076449D01*
X162329961Y-94083892D01*
X162329961Y-94083892D01*
G37*
X162329961Y-94083892D02*
X162394885Y-94113335D01*
X162394900Y-94113350D01*
X162415655Y-94164599D01*
X162429399Y-94257985D01*
X162433000Y-94344656D01*
X162433000Y-94537863D01*
X162257579Y-94545204D01*
X162152049Y-94545762D01*
X162093353Y-94533528D01*
X162065437Y-94504497D01*
X162062183Y-94496459D01*
X162039231Y-94437563D01*
X162123719Y-94437563D01*
X162130515Y-94454859D01*
X162183382Y-94485553D01*
X162266456Y-94473741D01*
X162308087Y-94455132D01*
X162363664Y-94405339D01*
X162361740Y-94358561D01*
X162306220Y-94331215D01*
X162278137Y-94329250D01*
X162197013Y-94345969D01*
X162140035Y-94386758D01*
X162123719Y-94437563D01*
X162039231Y-94437563D01*
X162039116Y-94437269D01*
X162030071Y-94417720D01*
X162038828Y-94376023D01*
X162087961Y-94327324D01*
X162158013Y-94285895D01*
X162229529Y-94266010D01*
X162237208Y-94265750D01*
X162323163Y-94256388D01*
X162355121Y-94224730D01*
X162348040Y-94183270D01*
X162303951Y-94145499D01*
X162228591Y-94144407D01*
X162148263Y-94177235D01*
X162087049Y-94199116D01*
X162059242Y-94179937D01*
X162077797Y-94130358D01*
X162083113Y-94123642D01*
X162144396Y-94090026D01*
X162236571Y-94076449D01*
X162329961Y-94083892D01*
G36*
X162632745Y-94087723D02*
X162647491Y-94132800D01*
X162654158Y-94221964D01*
X162655250Y-94313375D01*
X162652755Y-94438979D01*
X162643739Y-94512708D01*
X162625907Y-94546044D01*
X162607625Y-94551500D01*
X162582504Y-94539026D01*
X162567758Y-94493949D01*
X162561091Y-94404785D01*
X162560000Y-94313375D01*
X162562494Y-94187770D01*
X162571510Y-94114041D01*
X162589342Y-94080705D01*
X162607625Y-94075250D01*
X162632745Y-94087723D01*
X162632745Y-94087723D01*
G37*
X162632745Y-94087723D02*
X162647491Y-94132800D01*
X162654158Y-94221964D01*
X162655250Y-94313375D01*
X162652755Y-94438979D01*
X162643739Y-94512708D01*
X162625907Y-94546044D01*
X162607625Y-94551500D01*
X162582504Y-94539026D01*
X162567758Y-94493949D01*
X162561091Y-94404785D01*
X162560000Y-94313375D01*
X162562494Y-94187770D01*
X162571510Y-94114041D01*
X162589342Y-94080705D01*
X162607625Y-94075250D01*
X162632745Y-94087723D01*
G36*
X162821937Y-93892620D02*
X162843196Y-93926362D01*
X162858457Y-94014020D01*
X162868297Y-94159569D01*
X162870673Y-94228641D01*
X162873491Y-94376927D01*
X162871080Y-94472543D01*
X162862123Y-94526198D01*
X162845304Y-94548602D01*
X162830985Y-94551500D01*
X162808883Y-94542027D01*
X162794479Y-94506688D01*
X162786267Y-94435100D01*
X162782742Y-94316879D01*
X162782250Y-94215479D01*
X162784134Y-94058944D01*
X162790426Y-93958048D01*
X162802078Y-93905024D01*
X162820047Y-93892104D01*
X162821937Y-93892620D01*
X162821937Y-93892620D01*
G37*
X162821937Y-93892620D02*
X162843196Y-93926362D01*
X162858457Y-94014020D01*
X162868297Y-94159569D01*
X162870673Y-94228641D01*
X162873491Y-94376927D01*
X162871080Y-94472543D01*
X162862123Y-94526198D01*
X162845304Y-94548602D01*
X162830985Y-94551500D01*
X162808883Y-94542027D01*
X162794479Y-94506688D01*
X162786267Y-94435100D01*
X162782742Y-94316879D01*
X162782250Y-94215479D01*
X162784134Y-94058944D01*
X162790426Y-93958048D01*
X162802078Y-93905024D01*
X162820047Y-93892104D01*
X162821937Y-93892620D01*
G36*
X163363244Y-94087916D02*
X163378014Y-94133617D01*
X163384548Y-94223905D01*
X163385500Y-94307959D01*
X163385500Y-94540668D01*
X163234687Y-94542534D01*
X163136559Y-94540658D01*
X163062611Y-94533759D01*
X163044187Y-94529429D01*
X163024561Y-94493910D01*
X163011197Y-94417197D01*
X163004431Y-94318428D01*
X163004597Y-94216741D01*
X163012029Y-94131275D01*
X163027062Y-94081165D01*
X163036250Y-94075250D01*
X163054488Y-94103777D01*
X163065970Y-94176603D01*
X163068000Y-94231403D01*
X163074076Y-94365975D01*
X163094468Y-94447033D01*
X163132416Y-94483587D01*
X163160296Y-94488000D01*
X163230953Y-94466764D01*
X163273024Y-94399081D01*
X163289680Y-94278985D01*
X163290250Y-94243525D01*
X163294825Y-94140385D01*
X163310801Y-94088311D01*
X163337875Y-94075250D01*
X163363244Y-94087916D01*
X163363244Y-94087916D01*
G37*
X163363244Y-94087916D02*
X163378014Y-94133617D01*
X163384548Y-94223905D01*
X163385500Y-94307959D01*
X163385500Y-94540668D01*
X163234687Y-94542534D01*
X163136559Y-94540658D01*
X163062611Y-94533759D01*
X163044187Y-94529429D01*
X163024561Y-94493910D01*
X163011197Y-94417197D01*
X163004431Y-94318428D01*
X163004597Y-94216741D01*
X163012029Y-94131275D01*
X163027062Y-94081165D01*
X163036250Y-94075250D01*
X163054488Y-94103777D01*
X163065970Y-94176603D01*
X163068000Y-94231403D01*
X163074076Y-94365975D01*
X163094468Y-94447033D01*
X163132416Y-94483587D01*
X163160296Y-94488000D01*
X163230953Y-94466764D01*
X163273024Y-94399081D01*
X163289680Y-94278985D01*
X163290250Y-94243525D01*
X163294825Y-94140385D01*
X163310801Y-94088311D01*
X163337875Y-94075250D01*
X163363244Y-94087916D01*
G36*
X163707239Y-94090230D02*
X163730637Y-94111491D01*
X163692746Y-94145761D01*
X163655375Y-94164722D01*
X163609196Y-94192950D01*
X163585398Y-94235897D01*
X163576822Y-94312639D01*
X163576000Y-94376194D01*
X163570799Y-94472036D01*
X163557380Y-94535711D01*
X163544250Y-94551500D01*
X163528139Y-94522021D01*
X163516947Y-94442524D01*
X163512511Y-94326414D01*
X163512500Y-94319667D01*
X163512500Y-94087834D01*
X163623625Y-94084685D01*
X163707239Y-94090230D01*
X163707239Y-94090230D01*
G37*
X163707239Y-94090230D02*
X163730637Y-94111491D01*
X163692746Y-94145761D01*
X163655375Y-94164722D01*
X163609196Y-94192950D01*
X163585398Y-94235897D01*
X163576822Y-94312639D01*
X163576000Y-94376194D01*
X163570799Y-94472036D01*
X163557380Y-94535711D01*
X163544250Y-94551500D01*
X163528139Y-94522021D01*
X163516947Y-94442524D01*
X163512511Y-94326414D01*
X163512500Y-94319667D01*
X163512500Y-94087834D01*
X163623625Y-94084685D01*
X163707239Y-94090230D01*
G36*
X164111207Y-94103328D02*
X164183814Y-94175600D01*
X164211000Y-94272814D01*
X164200953Y-94305787D01*
X164161233Y-94322945D01*
X164077468Y-94328933D01*
X164036375Y-94329250D01*
X163931072Y-94331073D01*
X163878599Y-94341421D01*
X163868296Y-94367614D01*
X163889503Y-94416970D01*
X163894617Y-94426587D01*
X163951810Y-94475557D01*
X164031191Y-94484870D01*
X164103931Y-94452681D01*
X164115459Y-94440724D01*
X164161086Y-94409861D01*
X164184915Y-94412126D01*
X164197250Y-94445081D01*
X164165329Y-94486874D01*
X164104886Y-94525517D01*
X164031652Y-94549021D01*
X164002008Y-94551500D01*
X163900352Y-94528723D01*
X163832304Y-94467843D01*
X163774784Y-94360222D01*
X163777822Y-94252789D01*
X163782058Y-94242600D01*
X163877611Y-94242600D01*
X163896546Y-94260862D01*
X163963074Y-94265649D01*
X163987632Y-94265750D01*
X164067590Y-94260159D01*
X164112320Y-94246181D01*
X164115750Y-94240350D01*
X164089213Y-94188655D01*
X164028689Y-94148386D01*
X163983517Y-94138750D01*
X163925110Y-94164201D01*
X163893500Y-94202250D01*
X163877611Y-94242600D01*
X163782058Y-94242600D01*
X163803003Y-94192225D01*
X163856212Y-94116748D01*
X163926261Y-94082610D01*
X164010762Y-94075736D01*
X164111207Y-94103328D01*
X164111207Y-94103328D01*
G37*
X164111207Y-94103328D02*
X164183814Y-94175600D01*
X164211000Y-94272814D01*
X164200953Y-94305787D01*
X164161233Y-94322945D01*
X164077468Y-94328933D01*
X164036375Y-94329250D01*
X163931072Y-94331073D01*
X163878599Y-94341421D01*
X163868296Y-94367614D01*
X163889503Y-94416970D01*
X163894617Y-94426587D01*
X163951810Y-94475557D01*
X164031191Y-94484870D01*
X164103931Y-94452681D01*
X164115459Y-94440724D01*
X164161086Y-94409861D01*
X164184915Y-94412126D01*
X164197250Y-94445081D01*
X164165329Y-94486874D01*
X164104886Y-94525517D01*
X164031652Y-94549021D01*
X164002008Y-94551500D01*
X163900352Y-94528723D01*
X163832304Y-94467843D01*
X163774784Y-94360222D01*
X163777822Y-94252789D01*
X163782058Y-94242600D01*
X163877611Y-94242600D01*
X163896546Y-94260862D01*
X163963074Y-94265649D01*
X163987632Y-94265750D01*
X164067590Y-94260159D01*
X164112320Y-94246181D01*
X164115750Y-94240350D01*
X164089213Y-94188655D01*
X164028689Y-94148386D01*
X163983517Y-94138750D01*
X163925110Y-94164201D01*
X163893500Y-94202250D01*
X163877611Y-94242600D01*
X163782058Y-94242600D01*
X163803003Y-94192225D01*
X163856212Y-94116748D01*
X163926261Y-94082610D01*
X164010762Y-94075736D01*
X164111207Y-94103328D01*
G36*
X164766625Y-93909753D02*
X164920564Y-93932400D01*
X165023040Y-93987128D01*
X165080631Y-94080260D01*
X165099914Y-94218121D01*
X165100000Y-94230236D01*
X165082395Y-94364118D01*
X165025338Y-94457231D01*
X164922466Y-94515290D01*
X164767416Y-94544014D01*
X164749161Y-94545467D01*
X164557942Y-94559299D01*
X164567033Y-94229962D01*
X164573933Y-93980000D01*
X164655500Y-93980000D01*
X164655500Y-94495066D01*
X164774562Y-94472972D01*
X164868883Y-94445184D01*
X164942792Y-94406301D01*
X164949187Y-94401017D01*
X164990141Y-94328112D01*
X165004501Y-94225002D01*
X164992037Y-94119248D01*
X164952520Y-94038413D01*
X164952204Y-94038062D01*
X164870481Y-93991738D01*
X164777579Y-93980000D01*
X164655500Y-93980000D01*
X164573933Y-93980000D01*
X164576125Y-93900625D01*
X164766625Y-93909753D01*
X164766625Y-93909753D01*
G37*
X164766625Y-93909753D02*
X164920564Y-93932400D01*
X165023040Y-93987128D01*
X165080631Y-94080260D01*
X165099914Y-94218121D01*
X165100000Y-94230236D01*
X165082395Y-94364118D01*
X165025338Y-94457231D01*
X164922466Y-94515290D01*
X164767416Y-94544014D01*
X164749161Y-94545467D01*
X164557942Y-94559299D01*
X164567033Y-94229962D01*
X164573933Y-93980000D01*
X164655500Y-93980000D01*
X164655500Y-94495066D01*
X164774562Y-94472972D01*
X164868883Y-94445184D01*
X164942792Y-94406301D01*
X164949187Y-94401017D01*
X164990141Y-94328112D01*
X165004501Y-94225002D01*
X164992037Y-94119248D01*
X164952520Y-94038413D01*
X164952204Y-94038062D01*
X164870481Y-93991738D01*
X164777579Y-93980000D01*
X164655500Y-93980000D01*
X164573933Y-93980000D01*
X164576125Y-93900625D01*
X164766625Y-93909753D01*
G36*
X165274748Y-94104797D02*
X165285898Y-94184779D01*
X165290470Y-94302208D01*
X165290500Y-94313375D01*
X165286560Y-94433360D01*
X165275896Y-94516990D01*
X165260238Y-94551277D01*
X165258750Y-94551500D01*
X165242751Y-94521952D01*
X165231601Y-94441970D01*
X165227029Y-94324541D01*
X165227000Y-94313375D01*
X165230939Y-94193389D01*
X165241603Y-94109759D01*
X165257261Y-94075472D01*
X165258750Y-94075250D01*
X165274748Y-94104797D01*
X165274748Y-94104797D01*
G37*
X165274748Y-94104797D02*
X165285898Y-94184779D01*
X165290470Y-94302208D01*
X165290500Y-94313375D01*
X165286560Y-94433360D01*
X165275896Y-94516990D01*
X165260238Y-94551277D01*
X165258750Y-94551500D01*
X165242751Y-94521952D01*
X165231601Y-94441970D01*
X165227029Y-94324541D01*
X165227000Y-94313375D01*
X165230939Y-94193389D01*
X165241603Y-94109759D01*
X165257261Y-94075472D01*
X165258750Y-94075250D01*
X165274748Y-94104797D01*
G36*
X165695461Y-94083892D02*
X165760385Y-94113335D01*
X165760400Y-94113350D01*
X165781155Y-94164599D01*
X165794899Y-94257985D01*
X165798500Y-94344656D01*
X165798500Y-94537863D01*
X165625223Y-94545114D01*
X165519576Y-94545460D01*
X165458694Y-94532097D01*
X165424474Y-94500251D01*
X165418962Y-94490732D01*
X165408244Y-94437563D01*
X165489219Y-94437563D01*
X165496015Y-94454859D01*
X165545153Y-94483033D01*
X165619294Y-94484073D01*
X165686411Y-94458769D01*
X165696900Y-94449900D01*
X165734243Y-94387870D01*
X165713011Y-94344423D01*
X165643637Y-94329250D01*
X165562513Y-94345969D01*
X165505535Y-94386758D01*
X165489219Y-94437563D01*
X165408244Y-94437563D01*
X165401603Y-94404622D01*
X165438007Y-94331107D01*
X165518456Y-94281257D01*
X165616496Y-94265750D01*
X165696011Y-94254233D01*
X165721073Y-94216691D01*
X165713540Y-94183270D01*
X165669451Y-94145499D01*
X165594091Y-94144407D01*
X165513763Y-94177235D01*
X165452549Y-94199116D01*
X165424742Y-94179937D01*
X165443297Y-94130358D01*
X165448613Y-94123642D01*
X165509896Y-94090026D01*
X165602071Y-94076449D01*
X165695461Y-94083892D01*
X165695461Y-94083892D01*
G37*
X165695461Y-94083892D02*
X165760385Y-94113335D01*
X165760400Y-94113350D01*
X165781155Y-94164599D01*
X165794899Y-94257985D01*
X165798500Y-94344656D01*
X165798500Y-94537863D01*
X165625223Y-94545114D01*
X165519576Y-94545460D01*
X165458694Y-94532097D01*
X165424474Y-94500251D01*
X165418962Y-94490732D01*
X165408244Y-94437563D01*
X165489219Y-94437563D01*
X165496015Y-94454859D01*
X165545153Y-94483033D01*
X165619294Y-94484073D01*
X165686411Y-94458769D01*
X165696900Y-94449900D01*
X165734243Y-94387870D01*
X165713011Y-94344423D01*
X165643637Y-94329250D01*
X165562513Y-94345969D01*
X165505535Y-94386758D01*
X165489219Y-94437563D01*
X165408244Y-94437563D01*
X165401603Y-94404622D01*
X165438007Y-94331107D01*
X165518456Y-94281257D01*
X165616496Y-94265750D01*
X165696011Y-94254233D01*
X165721073Y-94216691D01*
X165713540Y-94183270D01*
X165669451Y-94145499D01*
X165594091Y-94144407D01*
X165513763Y-94177235D01*
X165452549Y-94199116D01*
X165424742Y-94179937D01*
X165443297Y-94130358D01*
X165448613Y-94123642D01*
X165509896Y-94090026D01*
X165602071Y-94076449D01*
X165695461Y-94083892D01*
G36*
X166760987Y-94093177D02*
X166791322Y-94125367D01*
X166811772Y-94176324D01*
X166837481Y-94280934D01*
X166847033Y-94387997D01*
X166841047Y-94479894D01*
X166820140Y-94539004D01*
X166798625Y-94551500D01*
X166768455Y-94534256D01*
X166753867Y-94474710D01*
X166751000Y-94395346D01*
X166744923Y-94260774D01*
X166724531Y-94179716D01*
X166686583Y-94143162D01*
X166658703Y-94138750D01*
X166588046Y-94159985D01*
X166545975Y-94227668D01*
X166529319Y-94347764D01*
X166528750Y-94383225D01*
X166524174Y-94486364D01*
X166508198Y-94538438D01*
X166481125Y-94551500D01*
X166455746Y-94538826D01*
X166440975Y-94493102D01*
X166434446Y-94402773D01*
X166433500Y-94318984D01*
X166433500Y-94086469D01*
X166605397Y-94081946D01*
X166705368Y-94081610D01*
X166760987Y-94093177D01*
X166760987Y-94093177D01*
G37*
X166760987Y-94093177D02*
X166791322Y-94125367D01*
X166811772Y-94176324D01*
X166837481Y-94280934D01*
X166847033Y-94387997D01*
X166841047Y-94479894D01*
X166820140Y-94539004D01*
X166798625Y-94551500D01*
X166768455Y-94534256D01*
X166753867Y-94474710D01*
X166751000Y-94395346D01*
X166744923Y-94260774D01*
X166724531Y-94179716D01*
X166686583Y-94143162D01*
X166658703Y-94138750D01*
X166588046Y-94159985D01*
X166545975Y-94227668D01*
X166529319Y-94347764D01*
X166528750Y-94383225D01*
X166524174Y-94486364D01*
X166508198Y-94538438D01*
X166481125Y-94551500D01*
X166455746Y-94538826D01*
X166440975Y-94493102D01*
X166434446Y-94402773D01*
X166433500Y-94318984D01*
X166433500Y-94086469D01*
X166605397Y-94081946D01*
X166705368Y-94081610D01*
X166760987Y-94093177D01*
G36*
X167280008Y-94114117D02*
X167301704Y-94133312D01*
X167342183Y-94215619D01*
X167354140Y-94322775D01*
X167337993Y-94427056D01*
X167296187Y-94498954D01*
X167209046Y-94542256D01*
X167105948Y-94546640D01*
X167015741Y-94512632D01*
X166994045Y-94493437D01*
X166953566Y-94411130D01*
X166945767Y-94341229D01*
X167017058Y-94341229D01*
X167043843Y-94424462D01*
X167100279Y-94474853D01*
X167176031Y-94480429D01*
X167222487Y-94459865D01*
X167250454Y-94411370D01*
X167263686Y-94328904D01*
X167261080Y-94240514D01*
X167241535Y-94174247D01*
X167234086Y-94164636D01*
X167170239Y-94138933D01*
X167097533Y-94158147D01*
X167040878Y-94213419D01*
X167030256Y-94237128D01*
X167017058Y-94341229D01*
X166945767Y-94341229D01*
X166941609Y-94303974D01*
X166957756Y-94199693D01*
X166999562Y-94127795D01*
X167086703Y-94084493D01*
X167189801Y-94080109D01*
X167280008Y-94114117D01*
X167280008Y-94114117D01*
G37*
X167280008Y-94114117D02*
X167301704Y-94133312D01*
X167342183Y-94215619D01*
X167354140Y-94322775D01*
X167337993Y-94427056D01*
X167296187Y-94498954D01*
X167209046Y-94542256D01*
X167105948Y-94546640D01*
X167015741Y-94512632D01*
X166994045Y-94493437D01*
X166953566Y-94411130D01*
X166945767Y-94341229D01*
X167017058Y-94341229D01*
X167043843Y-94424462D01*
X167100279Y-94474853D01*
X167176031Y-94480429D01*
X167222487Y-94459865D01*
X167250454Y-94411370D01*
X167263686Y-94328904D01*
X167261080Y-94240514D01*
X167241535Y-94174247D01*
X167234086Y-94164636D01*
X167170239Y-94138933D01*
X167097533Y-94158147D01*
X167040878Y-94213419D01*
X167030256Y-94237128D01*
X167017058Y-94341229D01*
X166945767Y-94341229D01*
X166941609Y-94303974D01*
X166957756Y-94199693D01*
X166999562Y-94127795D01*
X167086703Y-94084493D01*
X167189801Y-94080109D01*
X167280008Y-94114117D01*
G36*
X167707404Y-94088662D02*
X167766304Y-94122036D01*
X167790407Y-94172806D01*
X167775949Y-94198920D01*
X167735250Y-94182751D01*
X167728370Y-94176320D01*
X167671431Y-94145771D01*
X167605161Y-94140576D01*
X167555628Y-94159657D01*
X167544750Y-94183912D01*
X167571963Y-94222717D01*
X167638899Y-94259747D01*
X167653335Y-94264911D01*
X167764360Y-94315263D01*
X167816006Y-94376176D01*
X167812186Y-94453052D01*
X167804098Y-94473065D01*
X167766348Y-94526793D01*
X167704323Y-94548727D01*
X167645601Y-94551500D01*
X167530289Y-94532533D01*
X167470226Y-94493360D01*
X167436418Y-94436688D01*
X167449119Y-94410275D01*
X167496482Y-94427270D01*
X167515742Y-94442857D01*
X167579796Y-94475738D01*
X167650831Y-94480543D01*
X167704720Y-94459113D01*
X167719375Y-94427332D01*
X167692199Y-94388670D01*
X167625310Y-94351291D01*
X167610374Y-94345840D01*
X167505432Y-94293313D01*
X167455222Y-94227784D01*
X167463891Y-94155086D01*
X167468752Y-94146687D01*
X167528541Y-94101618D01*
X167617668Y-94081483D01*
X167707404Y-94088662D01*
X167707404Y-94088662D01*
G37*
X167707404Y-94088662D02*
X167766304Y-94122036D01*
X167790407Y-94172806D01*
X167775949Y-94198920D01*
X167735250Y-94182751D01*
X167728370Y-94176320D01*
X167671431Y-94145771D01*
X167605161Y-94140576D01*
X167555628Y-94159657D01*
X167544750Y-94183912D01*
X167571963Y-94222717D01*
X167638899Y-94259747D01*
X167653335Y-94264911D01*
X167764360Y-94315263D01*
X167816006Y-94376176D01*
X167812186Y-94453052D01*
X167804098Y-94473065D01*
X167766348Y-94526793D01*
X167704323Y-94548727D01*
X167645601Y-94551500D01*
X167530289Y-94532533D01*
X167470226Y-94493360D01*
X167436418Y-94436688D01*
X167449119Y-94410275D01*
X167496482Y-94427270D01*
X167515742Y-94442857D01*
X167579796Y-94475738D01*
X167650831Y-94480543D01*
X167704720Y-94459113D01*
X167719375Y-94427332D01*
X167692199Y-94388670D01*
X167625310Y-94351291D01*
X167610374Y-94345840D01*
X167505432Y-94293313D01*
X167455222Y-94227784D01*
X167463891Y-94155086D01*
X167468752Y-94146687D01*
X167528541Y-94101618D01*
X167617668Y-94081483D01*
X167707404Y-94088662D01*
G36*
X168013597Y-93969635D02*
X168021000Y-94009104D01*
X168039303Y-94068846D01*
X168060687Y-94088479D01*
X168084036Y-94109330D01*
X168060687Y-94125520D01*
X168037471Y-94165945D01*
X168024219Y-94244882D01*
X168021489Y-94338045D01*
X168029837Y-94421147D01*
X168049818Y-94469902D01*
X168052750Y-94472125D01*
X168083929Y-94512573D01*
X168060487Y-94544737D01*
X168023139Y-94551500D01*
X167964207Y-94526443D01*
X167944669Y-94495937D01*
X167931962Y-94424078D01*
X167923805Y-94319027D01*
X167920501Y-94201605D01*
X167922355Y-94092633D01*
X167929672Y-94012931D01*
X167937231Y-93987109D01*
X167980261Y-93950010D01*
X168013597Y-93969635D01*
X168013597Y-93969635D01*
G37*
X168013597Y-93969635D02*
X168021000Y-94009104D01*
X168039303Y-94068846D01*
X168060687Y-94088479D01*
X168084036Y-94109330D01*
X168060687Y-94125520D01*
X168037471Y-94165945D01*
X168024219Y-94244882D01*
X168021489Y-94338045D01*
X168029837Y-94421147D01*
X168049818Y-94469902D01*
X168052750Y-94472125D01*
X168083929Y-94512573D01*
X168060487Y-94544737D01*
X168023139Y-94551500D01*
X167964207Y-94526443D01*
X167944669Y-94495937D01*
X167931962Y-94424078D01*
X167923805Y-94319027D01*
X167920501Y-94201605D01*
X167922355Y-94092633D01*
X167929672Y-94012931D01*
X167937231Y-93987109D01*
X167980261Y-93950010D01*
X168013597Y-93969635D01*
G36*
X168252495Y-94087723D02*
X168267241Y-94132800D01*
X168273908Y-94221964D01*
X168275000Y-94313375D01*
X168272505Y-94438979D01*
X168263489Y-94512708D01*
X168245657Y-94546044D01*
X168227375Y-94551500D01*
X168202254Y-94539026D01*
X168187508Y-94493949D01*
X168180841Y-94404785D01*
X168179750Y-94313375D01*
X168182244Y-94187770D01*
X168191260Y-94114041D01*
X168209092Y-94080705D01*
X168227375Y-94075250D01*
X168252495Y-94087723D01*
X168252495Y-94087723D01*
G37*
X168252495Y-94087723D02*
X168267241Y-94132800D01*
X168273908Y-94221964D01*
X168275000Y-94313375D01*
X168272505Y-94438979D01*
X168263489Y-94512708D01*
X168245657Y-94546044D01*
X168227375Y-94551500D01*
X168202254Y-94539026D01*
X168187508Y-94493949D01*
X168180841Y-94404785D01*
X168179750Y-94313375D01*
X168182244Y-94187770D01*
X168191260Y-94114041D01*
X168209092Y-94080705D01*
X168227375Y-94075250D01*
X168252495Y-94087723D01*
G36*
X168690107Y-94099723D02*
X168720136Y-94123642D01*
X168743346Y-94173848D01*
X168727477Y-94198911D01*
X168685806Y-94181018D01*
X168680870Y-94176320D01*
X168612195Y-94142090D01*
X168541369Y-94157492D01*
X168482233Y-94210703D01*
X168448629Y-94289904D01*
X168451332Y-94372375D01*
X168496625Y-94449985D01*
X168571252Y-94476799D01*
X168652570Y-94451023D01*
X168714794Y-94428041D01*
X168743938Y-94445622D01*
X168727264Y-94493949D01*
X168720136Y-94503107D01*
X168652087Y-94541899D01*
X168558251Y-94549047D01*
X168467351Y-94525487D01*
X168422795Y-94493437D01*
X168382316Y-94411130D01*
X168370359Y-94303974D01*
X168386506Y-94199693D01*
X168428312Y-94127795D01*
X168508273Y-94087073D01*
X168605009Y-94077580D01*
X168690107Y-94099723D01*
X168690107Y-94099723D01*
G37*
X168690107Y-94099723D02*
X168720136Y-94123642D01*
X168743346Y-94173848D01*
X168727477Y-94198911D01*
X168685806Y-94181018D01*
X168680870Y-94176320D01*
X168612195Y-94142090D01*
X168541369Y-94157492D01*
X168482233Y-94210703D01*
X168448629Y-94289904D01*
X168451332Y-94372375D01*
X168496625Y-94449985D01*
X168571252Y-94476799D01*
X168652570Y-94451023D01*
X168714794Y-94428041D01*
X168743938Y-94445622D01*
X168727264Y-94493949D01*
X168720136Y-94503107D01*
X168652087Y-94541899D01*
X168558251Y-94549047D01*
X168467351Y-94525487D01*
X168422795Y-94493437D01*
X168382316Y-94411130D01*
X168370359Y-94303974D01*
X168386506Y-94199693D01*
X168428312Y-94127795D01*
X168508273Y-94087073D01*
X168605009Y-94077580D01*
X168690107Y-94099723D01*
G36*
X169065908Y-94075706D02*
X169132846Y-94099518D01*
X169153043Y-94124244D01*
X169159930Y-94180017D01*
X169124905Y-94190478D01*
X169076047Y-94167689D01*
X169008302Y-94146320D01*
X168944648Y-94155430D01*
X168910905Y-94190211D01*
X168910000Y-94198607D01*
X168937309Y-94225780D01*
X169006261Y-94259414D01*
X169044937Y-94273528D01*
X169146341Y-94326539D01*
X169193968Y-94395942D01*
X169183792Y-94473792D01*
X169162549Y-94505622D01*
X169100523Y-94539179D01*
X169008208Y-94550362D01*
X168914659Y-94539401D01*
X168848926Y-94506527D01*
X168845863Y-94503107D01*
X168820233Y-94451864D01*
X168843414Y-94430800D01*
X168905450Y-94446048D01*
X168923780Y-94455129D01*
X169002823Y-94479095D01*
X169068615Y-94469398D01*
X169100040Y-94429883D01*
X169100500Y-94422942D01*
X169073652Y-94390614D01*
X169006315Y-94351746D01*
X168975323Y-94338471D01*
X168872541Y-94284392D01*
X168829306Y-94223162D01*
X168841673Y-94148534D01*
X168847730Y-94136449D01*
X168898547Y-94095163D01*
X168979541Y-94074585D01*
X169065908Y-94075706D01*
X169065908Y-94075706D01*
G37*
X169065908Y-94075706D02*
X169132846Y-94099518D01*
X169153043Y-94124244D01*
X169159930Y-94180017D01*
X169124905Y-94190478D01*
X169076047Y-94167689D01*
X169008302Y-94146320D01*
X168944648Y-94155430D01*
X168910905Y-94190211D01*
X168910000Y-94198607D01*
X168937309Y-94225780D01*
X169006261Y-94259414D01*
X169044937Y-94273528D01*
X169146341Y-94326539D01*
X169193968Y-94395942D01*
X169183792Y-94473792D01*
X169162549Y-94505622D01*
X169100523Y-94539179D01*
X169008208Y-94550362D01*
X168914659Y-94539401D01*
X168848926Y-94506527D01*
X168845863Y-94503107D01*
X168820233Y-94451864D01*
X168843414Y-94430800D01*
X168905450Y-94446048D01*
X168923780Y-94455129D01*
X169002823Y-94479095D01*
X169068615Y-94469398D01*
X169100040Y-94429883D01*
X169100500Y-94422942D01*
X169073652Y-94390614D01*
X169006315Y-94351746D01*
X168975323Y-94338471D01*
X168872541Y-94284392D01*
X168829306Y-94223162D01*
X168841673Y-94148534D01*
X168847730Y-94136449D01*
X168898547Y-94095163D01*
X168979541Y-94074585D01*
X169065908Y-94075706D01*
G36*
X154201595Y-93509614D02*
X154308509Y-93584491D01*
X154382061Y-93697770D01*
X154394813Y-93736570D01*
X154404026Y-93880974D01*
X154360098Y-94012405D01*
X154272756Y-94118036D01*
X154151725Y-94185044D01*
X154041688Y-94202250D01*
X153938384Y-94190652D01*
X153851073Y-94161872D01*
X153835633Y-94152697D01*
X153733897Y-94045863D01*
X153682022Y-93911978D01*
X153682205Y-93888956D01*
X153886514Y-93888956D01*
X153913279Y-93945974D01*
X153985432Y-94001746D01*
X154074197Y-94003397D01*
X154151687Y-93959204D01*
X154202696Y-93876409D01*
X154197217Y-93784162D01*
X154145288Y-93709254D01*
X154066778Y-93670603D01*
X153989302Y-93681842D01*
X153925203Y-93730376D01*
X153886826Y-93803612D01*
X153886514Y-93888956D01*
X153682205Y-93888956D01*
X153683175Y-93767025D01*
X153733633Y-93637896D01*
X153827338Y-93537279D01*
X153946344Y-93483820D01*
X154075985Y-93475327D01*
X154201595Y-93509614D01*
X154201595Y-93509614D01*
G37*
X154201595Y-93509614D02*
X154308509Y-93584491D01*
X154382061Y-93697770D01*
X154394813Y-93736570D01*
X154404026Y-93880974D01*
X154360098Y-94012405D01*
X154272756Y-94118036D01*
X154151725Y-94185044D01*
X154041688Y-94202250D01*
X153938384Y-94190652D01*
X153851073Y-94161872D01*
X153835633Y-94152697D01*
X153733897Y-94045863D01*
X153682022Y-93911978D01*
X153682205Y-93888956D01*
X153886514Y-93888956D01*
X153913279Y-93945974D01*
X153985432Y-94001746D01*
X154074197Y-94003397D01*
X154151687Y-93959204D01*
X154202696Y-93876409D01*
X154197217Y-93784162D01*
X154145288Y-93709254D01*
X154066778Y-93670603D01*
X153989302Y-93681842D01*
X153925203Y-93730376D01*
X153886826Y-93803612D01*
X153886514Y-93888956D01*
X153682205Y-93888956D01*
X153683175Y-93767025D01*
X153733633Y-93637896D01*
X153827338Y-93537279D01*
X153946344Y-93483820D01*
X154075985Y-93475327D01*
X154201595Y-93509614D01*
G36*
X162644852Y-93936455D02*
X162649164Y-93945868D01*
X162633838Y-93974819D01*
X162607625Y-93980000D01*
X162568109Y-93963890D01*
X162566085Y-93945868D01*
X162598863Y-93913065D01*
X162607625Y-93911737D01*
X162644852Y-93936455D01*
X162644852Y-93936455D01*
G37*
X162644852Y-93936455D02*
X162649164Y-93945868D01*
X162633838Y-93974819D01*
X162607625Y-93980000D01*
X162568109Y-93963890D01*
X162566085Y-93945868D01*
X162598863Y-93913065D01*
X162607625Y-93911737D01*
X162644852Y-93936455D01*
G36*
X165285931Y-93907822D02*
X165290500Y-93930501D01*
X165273923Y-93973942D01*
X165258750Y-93980000D01*
X165227908Y-93957212D01*
X165227000Y-93950123D01*
X165250079Y-93907123D01*
X165258750Y-93900625D01*
X165285931Y-93907822D01*
X165285931Y-93907822D01*
G37*
X165285931Y-93907822D02*
X165290500Y-93930501D01*
X165273923Y-93973942D01*
X165258750Y-93980000D01*
X165227908Y-93957212D01*
X165227000Y-93950123D01*
X165250079Y-93907123D01*
X165258750Y-93900625D01*
X165285931Y-93907822D01*
G36*
X168264602Y-93936455D02*
X168268914Y-93945868D01*
X168253588Y-93974819D01*
X168227375Y-93980000D01*
X168187859Y-93963890D01*
X168185835Y-93945868D01*
X168218613Y-93913065D01*
X168227375Y-93911737D01*
X168264602Y-93936455D01*
X168264602Y-93936455D01*
G37*
X168264602Y-93936455D02*
X168268914Y-93945868D01*
X168253588Y-93974819D01*
X168227375Y-93980000D01*
X168187859Y-93963890D01*
X168185835Y-93945868D01*
X168218613Y-93913065D01*
X168227375Y-93911737D01*
X168264602Y-93936455D01*
G36*
X161036532Y-93539539D02*
X161553475Y-93539874D01*
X162124977Y-93540448D01*
X162753731Y-93541242D01*
X163442427Y-93542239D01*
X163676994Y-93542599D01*
X164387187Y-93543675D01*
X165036558Y-93544647D01*
X165627787Y-93545591D01*
X166163552Y-93546581D01*
X166646532Y-93547692D01*
X167079407Y-93548997D01*
X167464853Y-93550572D01*
X167805551Y-93552491D01*
X168104178Y-93554829D01*
X168363414Y-93557660D01*
X168585937Y-93561058D01*
X168774426Y-93565099D01*
X168931560Y-93569856D01*
X169060017Y-93575405D01*
X169162476Y-93581820D01*
X169241616Y-93589175D01*
X169300115Y-93597544D01*
X169340652Y-93607004D01*
X169365906Y-93617627D01*
X169378556Y-93629488D01*
X169381280Y-93642663D01*
X169376756Y-93657225D01*
X169367665Y-93673249D01*
X169356683Y-93690810D01*
X169351167Y-93700476D01*
X169345364Y-93707754D01*
X169334222Y-93714382D01*
X169314924Y-93720385D01*
X169284650Y-93725791D01*
X169240583Y-93730626D01*
X169179902Y-93734916D01*
X169099791Y-93738688D01*
X168997429Y-93741968D01*
X168869999Y-93744782D01*
X168714682Y-93747156D01*
X168528659Y-93749117D01*
X168309112Y-93750692D01*
X168053222Y-93751906D01*
X167758171Y-93752787D01*
X167421139Y-93753359D01*
X167039309Y-93753650D01*
X166609861Y-93753687D01*
X166129977Y-93753495D01*
X165596839Y-93753100D01*
X165007628Y-93752530D01*
X164359525Y-93751810D01*
X163916195Y-93751287D01*
X163330883Y-93750526D01*
X162760181Y-93749666D01*
X162207562Y-93748716D01*
X161676499Y-93747688D01*
X161170464Y-93746591D01*
X160692933Y-93745437D01*
X160247376Y-93744236D01*
X159837269Y-93742998D01*
X159466083Y-93741734D01*
X159137293Y-93740455D01*
X158854371Y-93739170D01*
X158620790Y-93737892D01*
X158440025Y-93736629D01*
X158315547Y-93735393D01*
X158250830Y-93734194D01*
X158248439Y-93734104D01*
X158093558Y-93721901D01*
X157997739Y-93698897D01*
X157957118Y-93662824D01*
X157967834Y-93611416D01*
X157989030Y-93581882D01*
X157999103Y-93575862D01*
X158020668Y-93570378D01*
X158056415Y-93565412D01*
X158109037Y-93560945D01*
X158181226Y-93556960D01*
X158275673Y-93553436D01*
X158395070Y-93550357D01*
X158542108Y-93547702D01*
X158719481Y-93545454D01*
X158929878Y-93543594D01*
X159175993Y-93542103D01*
X159460516Y-93540963D01*
X159786140Y-93540155D01*
X160155556Y-93539661D01*
X160571456Y-93539462D01*
X161036532Y-93539539D01*
X161036532Y-93539539D01*
G37*
X161036532Y-93539539D02*
X161553475Y-93539874D01*
X162124977Y-93540448D01*
X162753731Y-93541242D01*
X163442427Y-93542239D01*
X163676994Y-93542599D01*
X164387187Y-93543675D01*
X165036558Y-93544647D01*
X165627787Y-93545591D01*
X166163552Y-93546581D01*
X166646532Y-93547692D01*
X167079407Y-93548997D01*
X167464853Y-93550572D01*
X167805551Y-93552491D01*
X168104178Y-93554829D01*
X168363414Y-93557660D01*
X168585937Y-93561058D01*
X168774426Y-93565099D01*
X168931560Y-93569856D01*
X169060017Y-93575405D01*
X169162476Y-93581820D01*
X169241616Y-93589175D01*
X169300115Y-93597544D01*
X169340652Y-93607004D01*
X169365906Y-93617627D01*
X169378556Y-93629488D01*
X169381280Y-93642663D01*
X169376756Y-93657225D01*
X169367665Y-93673249D01*
X169356683Y-93690810D01*
X169351167Y-93700476D01*
X169345364Y-93707754D01*
X169334222Y-93714382D01*
X169314924Y-93720385D01*
X169284650Y-93725791D01*
X169240583Y-93730626D01*
X169179902Y-93734916D01*
X169099791Y-93738688D01*
X168997429Y-93741968D01*
X168869999Y-93744782D01*
X168714682Y-93747156D01*
X168528659Y-93749117D01*
X168309112Y-93750692D01*
X168053222Y-93751906D01*
X167758171Y-93752787D01*
X167421139Y-93753359D01*
X167039309Y-93753650D01*
X166609861Y-93753687D01*
X166129977Y-93753495D01*
X165596839Y-93753100D01*
X165007628Y-93752530D01*
X164359525Y-93751810D01*
X163916195Y-93751287D01*
X163330883Y-93750526D01*
X162760181Y-93749666D01*
X162207562Y-93748716D01*
X161676499Y-93747688D01*
X161170464Y-93746591D01*
X160692933Y-93745437D01*
X160247376Y-93744236D01*
X159837269Y-93742998D01*
X159466083Y-93741734D01*
X159137293Y-93740455D01*
X158854371Y-93739170D01*
X158620790Y-93737892D01*
X158440025Y-93736629D01*
X158315547Y-93735393D01*
X158250830Y-93734194D01*
X158248439Y-93734104D01*
X158093558Y-93721901D01*
X157997739Y-93698897D01*
X157957118Y-93662824D01*
X157967834Y-93611416D01*
X157989030Y-93581882D01*
X157999103Y-93575862D01*
X158020668Y-93570378D01*
X158056415Y-93565412D01*
X158109037Y-93560945D01*
X158181226Y-93556960D01*
X158275673Y-93553436D01*
X158395070Y-93550357D01*
X158542108Y-93547702D01*
X158719481Y-93545454D01*
X158929878Y-93543594D01*
X159175993Y-93542103D01*
X159460516Y-93540963D01*
X159786140Y-93540155D01*
X160155556Y-93539661D01*
X160571456Y-93539462D01*
X161036532Y-93539539D01*
G36*
X161377329Y-92214718D02*
X161489800Y-92290224D01*
X161566361Y-92414208D01*
X161604008Y-92582901D01*
X161607500Y-92662931D01*
X161582842Y-92839433D01*
X161512129Y-92977891D01*
X161400252Y-93072915D01*
X161252101Y-93119110D01*
X161190468Y-93122750D01*
X161036000Y-93122750D01*
X161036000Y-93231278D01*
X161027622Y-93346924D01*
X160997754Y-93412105D01*
X160939293Y-93438203D01*
X160905603Y-93440250D01*
X160813750Y-93440250D01*
X160813750Y-92664684D01*
X161036000Y-92664684D01*
X161040088Y-92783556D01*
X161054772Y-92854531D01*
X161083677Y-92892832D01*
X161091562Y-92897956D01*
X161187811Y-92929347D01*
X161273192Y-92914696D01*
X161322461Y-92867421D01*
X161342992Y-92798308D01*
X161356100Y-92695644D01*
X161358428Y-92638448D01*
X161341857Y-92503950D01*
X161293915Y-92416189D01*
X161220889Y-92379732D01*
X161129067Y-92399148D01*
X161075687Y-92433066D01*
X161051931Y-92484193D01*
X161038353Y-92585562D01*
X161036000Y-92664684D01*
X160813750Y-92664684D01*
X160813750Y-92201487D01*
X160948687Y-92198374D01*
X161070885Y-92195465D01*
X161203887Y-92192174D01*
X161231951Y-92191460D01*
X161377329Y-92214718D01*
X161377329Y-92214718D01*
G37*
X161377329Y-92214718D02*
X161489800Y-92290224D01*
X161566361Y-92414208D01*
X161604008Y-92582901D01*
X161607500Y-92662931D01*
X161582842Y-92839433D01*
X161512129Y-92977891D01*
X161400252Y-93072915D01*
X161252101Y-93119110D01*
X161190468Y-93122750D01*
X161036000Y-93122750D01*
X161036000Y-93231278D01*
X161027622Y-93346924D01*
X160997754Y-93412105D01*
X160939293Y-93438203D01*
X160905603Y-93440250D01*
X160813750Y-93440250D01*
X160813750Y-92664684D01*
X161036000Y-92664684D01*
X161040088Y-92783556D01*
X161054772Y-92854531D01*
X161083677Y-92892832D01*
X161091562Y-92897956D01*
X161187811Y-92929347D01*
X161273192Y-92914696D01*
X161322461Y-92867421D01*
X161342992Y-92798308D01*
X161356100Y-92695644D01*
X161358428Y-92638448D01*
X161341857Y-92503950D01*
X161293915Y-92416189D01*
X161220889Y-92379732D01*
X161129067Y-92399148D01*
X161075687Y-92433066D01*
X161051931Y-92484193D01*
X161038353Y-92585562D01*
X161036000Y-92664684D01*
X160813750Y-92664684D01*
X160813750Y-92201487D01*
X160948687Y-92198374D01*
X161070885Y-92195465D01*
X161203887Y-92192174D01*
X161231951Y-92191460D01*
X161377329Y-92214718D01*
G36*
X162561129Y-92201020D02*
X162646006Y-92241065D01*
X162657145Y-92250391D01*
X162751745Y-92374169D01*
X162803046Y-92526796D01*
X162811502Y-92691526D01*
X162777566Y-92851612D01*
X162701692Y-92990308D01*
X162635284Y-93057039D01*
X162565841Y-93101018D01*
X162489585Y-93118429D01*
X162379137Y-93115459D01*
X162377437Y-93115321D01*
X162210750Y-93101650D01*
X162210750Y-93270950D01*
X162208864Y-93368875D01*
X162197592Y-93419162D01*
X162168508Y-93437666D01*
X162120791Y-93440250D01*
X162048076Y-93433450D01*
X162009666Y-93419083D01*
X162003026Y-93382093D01*
X161997239Y-93291862D01*
X161992655Y-93158645D01*
X161989626Y-92992700D01*
X161988500Y-92804284D01*
X161988500Y-92543275D01*
X162218870Y-92543275D01*
X162221666Y-92631001D01*
X162228139Y-92693193D01*
X162245380Y-92798652D01*
X162267724Y-92877427D01*
X162286005Y-92907951D01*
X162371615Y-92931074D01*
X162464795Y-92912600D01*
X162510107Y-92882357D01*
X162544737Y-92812371D01*
X162559337Y-92688752D01*
X162560000Y-92646032D01*
X162555808Y-92533598D01*
X162539603Y-92465392D01*
X162505941Y-92422483D01*
X162492855Y-92412570D01*
X162411448Y-92381929D01*
X162325135Y-92407201D01*
X162264008Y-92451957D01*
X162232054Y-92489849D01*
X162218870Y-92543275D01*
X161988500Y-92543275D01*
X161988500Y-92200833D01*
X162139312Y-92198001D01*
X162272062Y-92195278D01*
X162410676Y-92192102D01*
X162438451Y-92191414D01*
X162561129Y-92201020D01*
X162561129Y-92201020D01*
G37*
X162561129Y-92201020D02*
X162646006Y-92241065D01*
X162657145Y-92250391D01*
X162751745Y-92374169D01*
X162803046Y-92526796D01*
X162811502Y-92691526D01*
X162777566Y-92851612D01*
X162701692Y-92990308D01*
X162635284Y-93057039D01*
X162565841Y-93101018D01*
X162489585Y-93118429D01*
X162379137Y-93115459D01*
X162377437Y-93115321D01*
X162210750Y-93101650D01*
X162210750Y-93270950D01*
X162208864Y-93368875D01*
X162197592Y-93419162D01*
X162168508Y-93437666D01*
X162120791Y-93440250D01*
X162048076Y-93433450D01*
X162009666Y-93419083D01*
X162003026Y-93382093D01*
X161997239Y-93291862D01*
X161992655Y-93158645D01*
X161989626Y-92992700D01*
X161988500Y-92804284D01*
X161988500Y-92543275D01*
X162218870Y-92543275D01*
X162221666Y-92631001D01*
X162228139Y-92693193D01*
X162245380Y-92798652D01*
X162267724Y-92877427D01*
X162286005Y-92907951D01*
X162371615Y-92931074D01*
X162464795Y-92912600D01*
X162510107Y-92882357D01*
X162544737Y-92812371D01*
X162559337Y-92688752D01*
X162560000Y-92646032D01*
X162555808Y-92533598D01*
X162539603Y-92465392D01*
X162505941Y-92422483D01*
X162492855Y-92412570D01*
X162411448Y-92381929D01*
X162325135Y-92407201D01*
X162264008Y-92451957D01*
X162232054Y-92489849D01*
X162218870Y-92543275D01*
X161988500Y-92543275D01*
X161988500Y-92200833D01*
X162139312Y-92198001D01*
X162272062Y-92195278D01*
X162410676Y-92192102D01*
X162438451Y-92191414D01*
X162561129Y-92201020D01*
G36*
X163840876Y-91876694D02*
X163985422Y-91946945D01*
X164086591Y-92061133D01*
X164132916Y-92178187D01*
X164142261Y-92236123D01*
X164120860Y-92260349D01*
X164053323Y-92265474D01*
X164040934Y-92265500D01*
X163950514Y-92252765D01*
X163897714Y-92207645D01*
X163889863Y-92194062D01*
X163839193Y-92120150D01*
X163774045Y-92084878D01*
X163670700Y-92075492D01*
X163669380Y-92075486D01*
X163557322Y-92091484D01*
X163480782Y-92135278D01*
X163451836Y-92198940D01*
X163453484Y-92217206D01*
X163481041Y-92255741D01*
X163553753Y-92296811D01*
X163679171Y-92344367D01*
X163726256Y-92359863D01*
X163926194Y-92437650D01*
X164065254Y-92524372D01*
X164145776Y-92622994D01*
X164170102Y-92736480D01*
X164140573Y-92867795D01*
X164136077Y-92878866D01*
X164053432Y-92998410D01*
X163926153Y-93082673D01*
X163765130Y-93127180D01*
X163581256Y-93127455D01*
X163544250Y-93122072D01*
X163438151Y-93091043D01*
X163344189Y-93044799D01*
X163266875Y-92976160D01*
X163207904Y-92891405D01*
X163172126Y-92804864D01*
X163164394Y-92730865D01*
X163189559Y-92683738D01*
X163218812Y-92674488D01*
X163327653Y-92679728D01*
X163380110Y-92714027D01*
X163382252Y-92719041D01*
X163449279Y-92816291D01*
X163560940Y-92879234D01*
X163697669Y-92900500D01*
X163825023Y-92886927D01*
X163898539Y-92844231D01*
X163922238Y-92769446D01*
X163919749Y-92736778D01*
X163904051Y-92696283D01*
X163861989Y-92662493D01*
X163781111Y-92628198D01*
X163671250Y-92592871D01*
X163508633Y-92540999D01*
X163395618Y-92496516D01*
X163319925Y-92452557D01*
X163269277Y-92402255D01*
X163237106Y-92350078D01*
X163201827Y-92222948D01*
X163222440Y-92101763D01*
X163291407Y-91995464D01*
X163401191Y-91912988D01*
X163544255Y-91863277D01*
X163656426Y-91852750D01*
X163840876Y-91876694D01*
X163840876Y-91876694D01*
G37*
X163840876Y-91876694D02*
X163985422Y-91946945D01*
X164086591Y-92061133D01*
X164132916Y-92178187D01*
X164142261Y-92236123D01*
X164120860Y-92260349D01*
X164053323Y-92265474D01*
X164040934Y-92265500D01*
X163950514Y-92252765D01*
X163897714Y-92207645D01*
X163889863Y-92194062D01*
X163839193Y-92120150D01*
X163774045Y-92084878D01*
X163670700Y-92075492D01*
X163669380Y-92075486D01*
X163557322Y-92091484D01*
X163480782Y-92135278D01*
X163451836Y-92198940D01*
X163453484Y-92217206D01*
X163481041Y-92255741D01*
X163553753Y-92296811D01*
X163679171Y-92344367D01*
X163726256Y-92359863D01*
X163926194Y-92437650D01*
X164065254Y-92524372D01*
X164145776Y-92622994D01*
X164170102Y-92736480D01*
X164140573Y-92867795D01*
X164136077Y-92878866D01*
X164053432Y-92998410D01*
X163926153Y-93082673D01*
X163765130Y-93127180D01*
X163581256Y-93127455D01*
X163544250Y-93122072D01*
X163438151Y-93091043D01*
X163344189Y-93044799D01*
X163266875Y-92976160D01*
X163207904Y-92891405D01*
X163172126Y-92804864D01*
X163164394Y-92730865D01*
X163189559Y-92683738D01*
X163218812Y-92674488D01*
X163327653Y-92679728D01*
X163380110Y-92714027D01*
X163382252Y-92719041D01*
X163449279Y-92816291D01*
X163560940Y-92879234D01*
X163697669Y-92900500D01*
X163825023Y-92886927D01*
X163898539Y-92844231D01*
X163922238Y-92769446D01*
X163919749Y-92736778D01*
X163904051Y-92696283D01*
X163861989Y-92662493D01*
X163781111Y-92628198D01*
X163671250Y-92592871D01*
X163508633Y-92540999D01*
X163395618Y-92496516D01*
X163319925Y-92452557D01*
X163269277Y-92402255D01*
X163237106Y-92350078D01*
X163201827Y-92222948D01*
X163222440Y-92101763D01*
X163291407Y-91995464D01*
X163401191Y-91912988D01*
X163544255Y-91863277D01*
X163656426Y-91852750D01*
X163840876Y-91876694D01*
G36*
X160283991Y-91869431D02*
X160310958Y-91903171D01*
X160326725Y-91972019D01*
X160334101Y-92084392D01*
X160335896Y-92248707D01*
X160335707Y-92324459D01*
X160331782Y-92545511D01*
X160320379Y-92713254D01*
X160298942Y-92837687D01*
X160264917Y-92928810D01*
X160215749Y-92996623D01*
X160150242Y-93050213D01*
X160038645Y-93097510D01*
X159894423Y-93121866D01*
X159742368Y-93122506D01*
X159607271Y-93098655D01*
X159539711Y-93069292D01*
X159472725Y-93021323D01*
X159423783Y-92966007D01*
X159390142Y-92893010D01*
X159369056Y-92791996D01*
X159357780Y-92652631D01*
X159353571Y-92464580D01*
X159353250Y-92367185D01*
X159354205Y-92172343D01*
X159358794Y-92032825D01*
X159369596Y-91940462D01*
X159389194Y-91887086D01*
X159420166Y-91864530D01*
X159465096Y-91864625D01*
X159508937Y-91874499D01*
X159536022Y-91885001D01*
X159554575Y-91906845D01*
X159566223Y-91950560D01*
X159572590Y-92026676D01*
X159575299Y-92145720D01*
X159575968Y-92308890D01*
X159578052Y-92512876D01*
X159586213Y-92662179D01*
X159604099Y-92765574D01*
X159635361Y-92831830D01*
X159683646Y-92869721D01*
X159752606Y-92888018D01*
X159819441Y-92894121D01*
X159920313Y-92894002D01*
X159991962Y-92874200D01*
X160039247Y-92826012D01*
X160067026Y-92740738D01*
X160080157Y-92609674D01*
X160083499Y-92424117D01*
X160083500Y-92421154D01*
X160085734Y-92220408D01*
X160093490Y-92074530D01*
X160108350Y-91975009D01*
X160131893Y-91913335D01*
X160165702Y-91880997D01*
X160185218Y-91873608D01*
X160243014Y-91862382D01*
X160283991Y-91869431D01*
X160283991Y-91869431D01*
G37*
X160283991Y-91869431D02*
X160310958Y-91903171D01*
X160326725Y-91972019D01*
X160334101Y-92084392D01*
X160335896Y-92248707D01*
X160335707Y-92324459D01*
X160331782Y-92545511D01*
X160320379Y-92713254D01*
X160298942Y-92837687D01*
X160264917Y-92928810D01*
X160215749Y-92996623D01*
X160150242Y-93050213D01*
X160038645Y-93097510D01*
X159894423Y-93121866D01*
X159742368Y-93122506D01*
X159607271Y-93098655D01*
X159539711Y-93069292D01*
X159472725Y-93021323D01*
X159423783Y-92966007D01*
X159390142Y-92893010D01*
X159369056Y-92791996D01*
X159357780Y-92652631D01*
X159353571Y-92464580D01*
X159353250Y-92367185D01*
X159354205Y-92172343D01*
X159358794Y-92032825D01*
X159369596Y-91940462D01*
X159389194Y-91887086D01*
X159420166Y-91864530D01*
X159465096Y-91864625D01*
X159508937Y-91874499D01*
X159536022Y-91885001D01*
X159554575Y-91906845D01*
X159566223Y-91950560D01*
X159572590Y-92026676D01*
X159575299Y-92145720D01*
X159575968Y-92308890D01*
X159578052Y-92512876D01*
X159586213Y-92662179D01*
X159604099Y-92765574D01*
X159635361Y-92831830D01*
X159683646Y-92869721D01*
X159752606Y-92888018D01*
X159819441Y-92894121D01*
X159920313Y-92894002D01*
X159991962Y-92874200D01*
X160039247Y-92826012D01*
X160067026Y-92740738D01*
X160080157Y-92609674D01*
X160083499Y-92424117D01*
X160083500Y-92421154D01*
X160085734Y-92220408D01*
X160093490Y-92074530D01*
X160108350Y-91975009D01*
X160131893Y-91913335D01*
X160165702Y-91880997D01*
X160185218Y-91873608D01*
X160243014Y-91862382D01*
X160283991Y-91869431D01*
G36*
X165146175Y-92215223D02*
X165268120Y-92298005D01*
X165352211Y-92429783D01*
X165387133Y-92541509D01*
X165400307Y-92627150D01*
X165388040Y-92684452D01*
X165341425Y-92718941D01*
X165251556Y-92736142D01*
X165109526Y-92741580D01*
X165064362Y-92741750D01*
X164924961Y-92743804D01*
X164838496Y-92751103D01*
X164794499Y-92765346D01*
X164782500Y-92787574D01*
X164809908Y-92843963D01*
X164876797Y-92896079D01*
X164960157Y-92928350D01*
X164996250Y-92932250D01*
X165072179Y-92909021D01*
X165123241Y-92868750D01*
X165184286Y-92825971D01*
X165261583Y-92805302D01*
X165333769Y-92807775D01*
X165379483Y-92834425D01*
X165385750Y-92856050D01*
X165364567Y-92907365D01*
X165310901Y-92979241D01*
X165277800Y-93014800D01*
X165204837Y-93079827D01*
X165137223Y-93111867D01*
X165046104Y-93122118D01*
X164999987Y-93122631D01*
X164826319Y-93101608D01*
X164725026Y-93058436D01*
X164616955Y-92958582D01*
X164552050Y-92826779D01*
X164529917Y-92677286D01*
X164550164Y-92524359D01*
X164564280Y-92492127D01*
X164799427Y-92492127D01*
X164812954Y-92511087D01*
X164867099Y-92518376D01*
X164956007Y-92519500D01*
X165051998Y-92515348D01*
X165115831Y-92504633D01*
X165131750Y-92494100D01*
X165104916Y-92438521D01*
X165038666Y-92403850D01*
X164954377Y-92392651D01*
X164873426Y-92407490D01*
X164817191Y-92450931D01*
X164814250Y-92456000D01*
X164799427Y-92492127D01*
X164564280Y-92492127D01*
X164612399Y-92382256D01*
X164716228Y-92265233D01*
X164747507Y-92242320D01*
X164884291Y-92181191D01*
X165029045Y-92179329D01*
X165146175Y-92215223D01*
X165146175Y-92215223D01*
G37*
X165146175Y-92215223D02*
X165268120Y-92298005D01*
X165352211Y-92429783D01*
X165387133Y-92541509D01*
X165400307Y-92627150D01*
X165388040Y-92684452D01*
X165341425Y-92718941D01*
X165251556Y-92736142D01*
X165109526Y-92741580D01*
X165064362Y-92741750D01*
X164924961Y-92743804D01*
X164838496Y-92751103D01*
X164794499Y-92765346D01*
X164782500Y-92787574D01*
X164809908Y-92843963D01*
X164876797Y-92896079D01*
X164960157Y-92928350D01*
X164996250Y-92932250D01*
X165072179Y-92909021D01*
X165123241Y-92868750D01*
X165184286Y-92825971D01*
X165261583Y-92805302D01*
X165333769Y-92807775D01*
X165379483Y-92834425D01*
X165385750Y-92856050D01*
X165364567Y-92907365D01*
X165310901Y-92979241D01*
X165277800Y-93014800D01*
X165204837Y-93079827D01*
X165137223Y-93111867D01*
X165046104Y-93122118D01*
X164999987Y-93122631D01*
X164826319Y-93101608D01*
X164725026Y-93058436D01*
X164616955Y-92958582D01*
X164552050Y-92826779D01*
X164529917Y-92677286D01*
X164550164Y-92524359D01*
X164564280Y-92492127D01*
X164799427Y-92492127D01*
X164812954Y-92511087D01*
X164867099Y-92518376D01*
X164956007Y-92519500D01*
X165051998Y-92515348D01*
X165115831Y-92504633D01*
X165131750Y-92494100D01*
X165104916Y-92438521D01*
X165038666Y-92403850D01*
X164954377Y-92392651D01*
X164873426Y-92407490D01*
X164817191Y-92450931D01*
X164814250Y-92456000D01*
X164799427Y-92492127D01*
X164564280Y-92492127D01*
X164612399Y-92382256D01*
X164716228Y-92265233D01*
X164747507Y-92242320D01*
X164884291Y-92181191D01*
X165029045Y-92179329D01*
X165146175Y-92215223D01*
G36*
X166430347Y-92237299D02*
X166445225Y-92248184D01*
X166497353Y-92323804D01*
X166532296Y-92451641D01*
X166548579Y-92622390D01*
X166544729Y-92826744D01*
X166542237Y-92860812D01*
X166521239Y-93122750D01*
X166338250Y-93122750D01*
X166335896Y-92908437D01*
X166328812Y-92699058D01*
X166311261Y-92547896D01*
X166280885Y-92450189D01*
X166235326Y-92401172D01*
X166172226Y-92396085D01*
X166097009Y-92425917D01*
X166063137Y-92448414D01*
X166040942Y-92481021D01*
X166027415Y-92536775D01*
X166019549Y-92628717D01*
X166014334Y-92769885D01*
X166013870Y-92786236D01*
X166004875Y-93106875D01*
X165906232Y-93116485D01*
X165846113Y-93118362D01*
X165814036Y-93098285D01*
X165796676Y-93040655D01*
X165787169Y-92977116D01*
X165772351Y-92811017D01*
X165767905Y-92624074D01*
X165773825Y-92445415D01*
X165787329Y-92319824D01*
X165803878Y-92243513D01*
X165833436Y-92209577D01*
X165896910Y-92201664D01*
X165937792Y-92202150D01*
X166045788Y-92198656D01*
X166142456Y-92186664D01*
X166155100Y-92183923D01*
X166297531Y-92180802D01*
X166430347Y-92237299D01*
X166430347Y-92237299D01*
G37*
X166430347Y-92237299D02*
X166445225Y-92248184D01*
X166497353Y-92323804D01*
X166532296Y-92451641D01*
X166548579Y-92622390D01*
X166544729Y-92826744D01*
X166542237Y-92860812D01*
X166521239Y-93122750D01*
X166338250Y-93122750D01*
X166335896Y-92908437D01*
X166328812Y-92699058D01*
X166311261Y-92547896D01*
X166280885Y-92450189D01*
X166235326Y-92401172D01*
X166172226Y-92396085D01*
X166097009Y-92425917D01*
X166063137Y-92448414D01*
X166040942Y-92481021D01*
X166027415Y-92536775D01*
X166019549Y-92628717D01*
X166014334Y-92769885D01*
X166013870Y-92786236D01*
X166004875Y-93106875D01*
X165906232Y-93116485D01*
X165846113Y-93118362D01*
X165814036Y-93098285D01*
X165796676Y-93040655D01*
X165787169Y-92977116D01*
X165772351Y-92811017D01*
X165767905Y-92624074D01*
X165773825Y-92445415D01*
X165787329Y-92319824D01*
X165803878Y-92243513D01*
X165833436Y-92209577D01*
X165896910Y-92201664D01*
X165937792Y-92202150D01*
X166045788Y-92198656D01*
X166142456Y-92186664D01*
X166155100Y-92183923D01*
X166297531Y-92180802D01*
X166430347Y-92237299D01*
G36*
X167485077Y-92207001D02*
X167588039Y-92262642D01*
X167654482Y-92341020D01*
X167671750Y-92413909D01*
X167662350Y-92464064D01*
X167621963Y-92484548D01*
X167560625Y-92487750D01*
X167487170Y-92480055D01*
X167450458Y-92461134D01*
X167449500Y-92457117D01*
X167422119Y-92414306D01*
X167357353Y-92384634D01*
X167281261Y-92378668D01*
X167264133Y-92381958D01*
X167204174Y-92411256D01*
X167203257Y-92448935D01*
X167258201Y-92490697D01*
X167365825Y-92532247D01*
X167378062Y-92535851D01*
X167539101Y-92595851D01*
X167642782Y-92668824D01*
X167694758Y-92759861D01*
X167703500Y-92829101D01*
X167680936Y-92935707D01*
X167610692Y-93029942D01*
X167549411Y-93083305D01*
X167486924Y-93111243D01*
X167399151Y-93121644D01*
X167327378Y-93122750D01*
X167207901Y-93117624D01*
X167126172Y-93097442D01*
X167056929Y-93054999D01*
X167039186Y-93040552D01*
X166967564Y-92959035D01*
X166941500Y-92881802D01*
X166951207Y-92828566D01*
X166992851Y-92807854D01*
X167044987Y-92805250D01*
X167145220Y-92827509D01*
X167188131Y-92868750D01*
X167253946Y-92919324D01*
X167351334Y-92931296D01*
X167431028Y-92912978D01*
X167480456Y-92878307D01*
X167468942Y-92837481D01*
X167398517Y-92792517D01*
X167271210Y-92745437D01*
X167258814Y-92741694D01*
X167102138Y-92684476D01*
X167002835Y-92619746D01*
X166954779Y-92540459D01*
X166951846Y-92439569D01*
X166960241Y-92398271D01*
X167003617Y-92299112D01*
X167086785Y-92231245D01*
X167100250Y-92224054D01*
X167226866Y-92182951D01*
X167359914Y-92178852D01*
X167485077Y-92207001D01*
X167485077Y-92207001D01*
G37*
X167485077Y-92207001D02*
X167588039Y-92262642D01*
X167654482Y-92341020D01*
X167671750Y-92413909D01*
X167662350Y-92464064D01*
X167621963Y-92484548D01*
X167560625Y-92487750D01*
X167487170Y-92480055D01*
X167450458Y-92461134D01*
X167449500Y-92457117D01*
X167422119Y-92414306D01*
X167357353Y-92384634D01*
X167281261Y-92378668D01*
X167264133Y-92381958D01*
X167204174Y-92411256D01*
X167203257Y-92448935D01*
X167258201Y-92490697D01*
X167365825Y-92532247D01*
X167378062Y-92535851D01*
X167539101Y-92595851D01*
X167642782Y-92668824D01*
X167694758Y-92759861D01*
X167703500Y-92829101D01*
X167680936Y-92935707D01*
X167610692Y-93029942D01*
X167549411Y-93083305D01*
X167486924Y-93111243D01*
X167399151Y-93121644D01*
X167327378Y-93122750D01*
X167207901Y-93117624D01*
X167126172Y-93097442D01*
X167056929Y-93054999D01*
X167039186Y-93040552D01*
X166967564Y-92959035D01*
X166941500Y-92881802D01*
X166951207Y-92828566D01*
X166992851Y-92807854D01*
X167044987Y-92805250D01*
X167145220Y-92827509D01*
X167188131Y-92868750D01*
X167253946Y-92919324D01*
X167351334Y-92931296D01*
X167431028Y-92912978D01*
X167480456Y-92878307D01*
X167468942Y-92837481D01*
X167398517Y-92792517D01*
X167271210Y-92745437D01*
X167258814Y-92741694D01*
X167102138Y-92684476D01*
X167002835Y-92619746D01*
X166954779Y-92540459D01*
X166951846Y-92439569D01*
X166960241Y-92398271D01*
X167003617Y-92299112D01*
X167086785Y-92231245D01*
X167100250Y-92224054D01*
X167226866Y-92182951D01*
X167359914Y-92178852D01*
X167485077Y-92207001D01*
G36*
X168582619Y-92185176D02*
X168715762Y-92242982D01*
X168821741Y-92343921D01*
X168889844Y-92481270D01*
X168909950Y-92622687D01*
X168910000Y-92741750D01*
X168608375Y-92741750D01*
X168450739Y-92745290D01*
X168351637Y-92757672D01*
X168306404Y-92781538D01*
X168310375Y-92819529D01*
X168358888Y-92874286D01*
X168364812Y-92879704D01*
X168458594Y-92927084D01*
X168559530Y-92917530D01*
X168650064Y-92852875D01*
X168724718Y-92793669D01*
X168799940Y-92773423D01*
X168860690Y-92788891D01*
X168891928Y-92836831D01*
X168883124Y-92903134D01*
X168821407Y-93008314D01*
X168725805Y-93075311D01*
X168585744Y-93110323D01*
X168519265Y-93116493D01*
X168400660Y-93119909D01*
X168321850Y-93108671D01*
X168259934Y-93078194D01*
X168234678Y-93059518D01*
X168122909Y-92935946D01*
X168063952Y-92780833D01*
X168052750Y-92655518D01*
X168075606Y-92494100D01*
X168306750Y-92494100D01*
X168335464Y-92508011D01*
X168409535Y-92517237D01*
X168481375Y-92519500D01*
X168577017Y-92515323D01*
X168640445Y-92504549D01*
X168656000Y-92494100D01*
X168627580Y-92439777D01*
X168555085Y-92402532D01*
X168481375Y-92392500D01*
X168388008Y-92409035D01*
X168323993Y-92451214D01*
X168306750Y-92494100D01*
X168075606Y-92494100D01*
X168077229Y-92482643D01*
X168146690Y-92339830D01*
X168255167Y-92238474D01*
X168277692Y-92225861D01*
X168433024Y-92177228D01*
X168582619Y-92185176D01*
X168582619Y-92185176D01*
G37*
X168582619Y-92185176D02*
X168715762Y-92242982D01*
X168821741Y-92343921D01*
X168889844Y-92481270D01*
X168909950Y-92622687D01*
X168910000Y-92741750D01*
X168608375Y-92741750D01*
X168450739Y-92745290D01*
X168351637Y-92757672D01*
X168306404Y-92781538D01*
X168310375Y-92819529D01*
X168358888Y-92874286D01*
X168364812Y-92879704D01*
X168458594Y-92927084D01*
X168559530Y-92917530D01*
X168650064Y-92852875D01*
X168724718Y-92793669D01*
X168799940Y-92773423D01*
X168860690Y-92788891D01*
X168891928Y-92836831D01*
X168883124Y-92903134D01*
X168821407Y-93008314D01*
X168725805Y-93075311D01*
X168585744Y-93110323D01*
X168519265Y-93116493D01*
X168400660Y-93119909D01*
X168321850Y-93108671D01*
X168259934Y-93078194D01*
X168234678Y-93059518D01*
X168122909Y-92935946D01*
X168063952Y-92780833D01*
X168052750Y-92655518D01*
X168075606Y-92494100D01*
X168306750Y-92494100D01*
X168335464Y-92508011D01*
X168409535Y-92517237D01*
X168481375Y-92519500D01*
X168577017Y-92515323D01*
X168640445Y-92504549D01*
X168656000Y-92494100D01*
X168627580Y-92439777D01*
X168555085Y-92402532D01*
X168481375Y-92392500D01*
X168388008Y-92409035D01*
X168323993Y-92451214D01*
X168306750Y-92494100D01*
X168075606Y-92494100D01*
X168077229Y-92482643D01*
X168146690Y-92339830D01*
X168255167Y-92238474D01*
X168277692Y-92225861D01*
X168433024Y-92177228D01*
X168582619Y-92185176D01*
G36*
X157872343Y-92302816D02*
X157945769Y-92327401D01*
X158015952Y-92382836D01*
X158038800Y-92405200D01*
X158109815Y-92488481D01*
X158141116Y-92567696D01*
X158146750Y-92644901D01*
X158134675Y-92755265D01*
X158104978Y-92856268D01*
X158098587Y-92869789D01*
X158011966Y-92973763D01*
X157890887Y-93037442D01*
X157753158Y-93056592D01*
X157616589Y-93026980D01*
X157561515Y-92997453D01*
X157455776Y-92901447D01*
X157399754Y-92779312D01*
X157385875Y-92651262D01*
X157387983Y-92625077D01*
X157574166Y-92625077D01*
X157575967Y-92717549D01*
X157612585Y-92803682D01*
X157683688Y-92868837D01*
X157788945Y-92898379D01*
X157791005Y-92898487D01*
X157839715Y-92879047D01*
X157903534Y-92828956D01*
X157910068Y-92822568D01*
X157963750Y-92750513D01*
X157987895Y-92681800D01*
X157988000Y-92678250D01*
X157964202Y-92607375D01*
X157906558Y-92532073D01*
X157835693Y-92474485D01*
X157780980Y-92456000D01*
X157676341Y-92479665D01*
X157607513Y-92540903D01*
X157574166Y-92625077D01*
X157387983Y-92625077D01*
X157393773Y-92553167D01*
X157428442Y-92477996D01*
X157492700Y-92405200D01*
X157567269Y-92339143D01*
X157636804Y-92307209D01*
X157731230Y-92297566D01*
X157765750Y-92297250D01*
X157872343Y-92302816D01*
X157872343Y-92302816D01*
G37*
X157872343Y-92302816D02*
X157945769Y-92327401D01*
X158015952Y-92382836D01*
X158038800Y-92405200D01*
X158109815Y-92488481D01*
X158141116Y-92567696D01*
X158146750Y-92644901D01*
X158134675Y-92755265D01*
X158104978Y-92856268D01*
X158098587Y-92869789D01*
X158011966Y-92973763D01*
X157890887Y-93037442D01*
X157753158Y-93056592D01*
X157616589Y-93026980D01*
X157561515Y-92997453D01*
X157455776Y-92901447D01*
X157399754Y-92779312D01*
X157385875Y-92651262D01*
X157387983Y-92625077D01*
X157574166Y-92625077D01*
X157575967Y-92717549D01*
X157612585Y-92803682D01*
X157683688Y-92868837D01*
X157788945Y-92898379D01*
X157791005Y-92898487D01*
X157839715Y-92879047D01*
X157903534Y-92828956D01*
X157910068Y-92822568D01*
X157963750Y-92750513D01*
X157987895Y-92681800D01*
X157988000Y-92678250D01*
X157964202Y-92607375D01*
X157906558Y-92532073D01*
X157835693Y-92474485D01*
X157780980Y-92456000D01*
X157676341Y-92479665D01*
X157607513Y-92540903D01*
X157574166Y-92625077D01*
X157387983Y-92625077D01*
X157393773Y-92553167D01*
X157428442Y-92477996D01*
X157492700Y-92405200D01*
X157567269Y-92339143D01*
X157636804Y-92307209D01*
X157731230Y-92297566D01*
X157765750Y-92297250D01*
X157872343Y-92302816D01*
G36*
X157058906Y-91545387D02*
X157209370Y-91593137D01*
X157342638Y-91688738D01*
X157407585Y-91767129D01*
X157484093Y-91927778D01*
X157504681Y-92091549D01*
X157475664Y-92248958D01*
X157403358Y-92390519D01*
X157294080Y-92506747D01*
X157154145Y-92588160D01*
X156989870Y-92625270D01*
X156842223Y-92616141D01*
X156683577Y-92555838D01*
X156550634Y-92447037D01*
X156454220Y-92302975D01*
X156405167Y-92136886D01*
X156401197Y-92077086D01*
X156408731Y-92028605D01*
X156564260Y-92028605D01*
X156575548Y-92173113D01*
X156632918Y-92305009D01*
X156730645Y-92407227D01*
X156790062Y-92440677D01*
X156903646Y-92479071D01*
X157001692Y-92479129D01*
X157115199Y-92442035D01*
X157237337Y-92361259D01*
X157315305Y-92248727D01*
X157349014Y-92118394D01*
X157338374Y-91984212D01*
X157283292Y-91860136D01*
X157183680Y-91760120D01*
X157119851Y-91724680D01*
X156962032Y-91683510D01*
X156816680Y-91700389D01*
X156693156Y-91772338D01*
X156604781Y-91888548D01*
X156564260Y-92028605D01*
X156408731Y-92028605D01*
X156427516Y-91907735D01*
X156501588Y-91766233D01*
X156612588Y-91655913D01*
X156749690Y-91580109D01*
X156902071Y-91542156D01*
X157058906Y-91545387D01*
X157058906Y-91545387D01*
G37*
X157058906Y-91545387D02*
X157209370Y-91593137D01*
X157342638Y-91688738D01*
X157407585Y-91767129D01*
X157484093Y-91927778D01*
X157504681Y-92091549D01*
X157475664Y-92248958D01*
X157403358Y-92390519D01*
X157294080Y-92506747D01*
X157154145Y-92588160D01*
X156989870Y-92625270D01*
X156842223Y-92616141D01*
X156683577Y-92555838D01*
X156550634Y-92447037D01*
X156454220Y-92302975D01*
X156405167Y-92136886D01*
X156401197Y-92077086D01*
X156408731Y-92028605D01*
X156564260Y-92028605D01*
X156575548Y-92173113D01*
X156632918Y-92305009D01*
X156730645Y-92407227D01*
X156790062Y-92440677D01*
X156903646Y-92479071D01*
X157001692Y-92479129D01*
X157115199Y-92442035D01*
X157237337Y-92361259D01*
X157315305Y-92248727D01*
X157349014Y-92118394D01*
X157338374Y-91984212D01*
X157283292Y-91860136D01*
X157183680Y-91760120D01*
X157119851Y-91724680D01*
X156962032Y-91683510D01*
X156816680Y-91700389D01*
X156693156Y-91772338D01*
X156604781Y-91888548D01*
X156564260Y-92028605D01*
X156408731Y-92028605D01*
X156427516Y-91907735D01*
X156501588Y-91766233D01*
X156612588Y-91655913D01*
X156749690Y-91580109D01*
X156902071Y-91542156D01*
X157058906Y-91545387D01*
G36*
X149437547Y-87320994D02*
X149762724Y-87404249D01*
X150034558Y-87505382D01*
X150262112Y-87612839D01*
X150464411Y-87737941D01*
X150660478Y-87892008D01*
X150806473Y-88025317D01*
X151114684Y-88352526D01*
X151366345Y-88693735D01*
X151566156Y-89057868D01*
X151718819Y-89453848D01*
X151829039Y-89890600D01*
X151850357Y-90006298D01*
X151884165Y-90274146D01*
X151902773Y-90581777D01*
X151906357Y-90908251D01*
X151895095Y-91232634D01*
X151869165Y-91533987D01*
X151835512Y-91757500D01*
X151798118Y-91955650D01*
X151769307Y-92100418D01*
X151743289Y-92200273D01*
X151714278Y-92263686D01*
X151676484Y-92299125D01*
X151624120Y-92315060D01*
X151551397Y-92319962D01*
X151452528Y-92322301D01*
X151449460Y-92322407D01*
X151320891Y-92326259D01*
X151243932Y-92324622D01*
X151206743Y-92314437D01*
X151197480Y-92292644D01*
X151203638Y-92258907D01*
X151257274Y-92017347D01*
X151294766Y-91792520D01*
X151318344Y-91563721D01*
X151330236Y-91310241D01*
X151332821Y-91059000D01*
X151331155Y-90836828D01*
X151326058Y-90663302D01*
X151316287Y-90523604D01*
X151300602Y-90402919D01*
X151277760Y-90286429D01*
X151262805Y-90223251D01*
X151189650Y-89970524D01*
X151095620Y-89710983D01*
X150989039Y-89464768D01*
X150878230Y-89252019D01*
X150827462Y-89169925D01*
X150624998Y-88904523D01*
X150382606Y-88653362D01*
X150114209Y-88428068D01*
X149833730Y-88240265D01*
X149555092Y-88101577D01*
X149541297Y-88096077D01*
X149213698Y-88000449D01*
X148869366Y-87961902D01*
X148518130Y-87979839D01*
X148169823Y-88053664D01*
X147834274Y-88182781D01*
X147795420Y-88201918D01*
X147653711Y-88286358D01*
X147485749Y-88406586D01*
X147306534Y-88550116D01*
X147131069Y-88704465D01*
X146974354Y-88857147D01*
X146871810Y-88970606D01*
X146758807Y-89114574D01*
X146632279Y-89289343D01*
X146504125Y-89477211D01*
X146386248Y-89660474D01*
X146290547Y-89821432D01*
X146253751Y-89889940D01*
X146205522Y-89977673D01*
X146164656Y-90039835D01*
X146148663Y-90056765D01*
X146120591Y-90039888D01*
X146072696Y-89978749D01*
X146014214Y-89885544D01*
X146000081Y-89860574D01*
X145732778Y-89426124D01*
X145438503Y-89035180D01*
X145122247Y-88693552D01*
X144788999Y-88407051D01*
X144690278Y-88335376D01*
X144409294Y-88174439D01*
X144098753Y-88057734D01*
X143771122Y-87986825D01*
X143438871Y-87963277D01*
X143114465Y-87988654D01*
X142810374Y-88064519D01*
X142740810Y-88090815D01*
X142410372Y-88255562D01*
X142092788Y-88472145D01*
X141802341Y-88728915D01*
X141553313Y-89014224D01*
X141476168Y-89122250D01*
X141262474Y-89496158D01*
X141099942Y-89903883D01*
X140989392Y-90340536D01*
X140931642Y-90801230D01*
X140927514Y-91281079D01*
X140977827Y-91775195D01*
X141004913Y-91932125D01*
X141030281Y-92069715D01*
X141050382Y-92185732D01*
X141062629Y-92264835D01*
X141065153Y-92289312D01*
X141036726Y-92310666D01*
X140963436Y-92324339D01*
X140863452Y-92330343D01*
X140754942Y-92328691D01*
X140656075Y-92319395D01*
X140585021Y-92302469D01*
X140563548Y-92288964D01*
X140544366Y-92243262D01*
X140517250Y-92149216D01*
X140485921Y-92020900D01*
X140456473Y-91884151D01*
X140431133Y-91751478D01*
X140412296Y-91630103D01*
X140399069Y-91506880D01*
X140390557Y-91368662D01*
X140385864Y-91202303D01*
X140384096Y-90994655D01*
X140384113Y-90820875D01*
X140385490Y-90575517D01*
X140389015Y-90381418D01*
X140395536Y-90226352D01*
X140405899Y-90098089D01*
X140420953Y-89984402D01*
X140441543Y-89873065D01*
X140453713Y-89816551D01*
X140570668Y-89392155D01*
X140725268Y-89011364D01*
X140923836Y-88662546D01*
X141172696Y-88334071D01*
X141382750Y-88107457D01*
X141600775Y-87901166D01*
X141804964Y-87738266D01*
X142013423Y-87607270D01*
X142244259Y-87496689D01*
X142494000Y-87402406D01*
X142621965Y-87359828D01*
X142725796Y-87330849D01*
X142823689Y-87312904D01*
X142933842Y-87303432D01*
X143074451Y-87299869D01*
X143224250Y-87299557D01*
X143408522Y-87301293D01*
X143547456Y-87307201D01*
X143659189Y-87319604D01*
X143761855Y-87340829D01*
X143873590Y-87373199D01*
X143922750Y-87389086D01*
X144168490Y-87476805D01*
X144376591Y-87569288D01*
X144562844Y-87676487D01*
X144743038Y-87808358D01*
X144932965Y-87974854D01*
X145083952Y-88121112D01*
X145292899Y-88338102D01*
X145472170Y-88545892D01*
X145634169Y-88761124D01*
X145791297Y-89000440D01*
X145955958Y-89280481D01*
X145980237Y-89323741D01*
X146135524Y-89601740D01*
X146329192Y-89255905D01*
X146581397Y-88843810D01*
X146851705Y-88473867D01*
X147135847Y-88150611D01*
X147429554Y-87878573D01*
X147728556Y-87662288D01*
X147939395Y-87546167D01*
X148312013Y-87399721D01*
X148689475Y-87313100D01*
X149066435Y-87286719D01*
X149437547Y-87320994D01*
X149437547Y-87320994D01*
G37*
X149437547Y-87320994D02*
X149762724Y-87404249D01*
X150034558Y-87505382D01*
X150262112Y-87612839D01*
X150464411Y-87737941D01*
X150660478Y-87892008D01*
X150806473Y-88025317D01*
X151114684Y-88352526D01*
X151366345Y-88693735D01*
X151566156Y-89057868D01*
X151718819Y-89453848D01*
X151829039Y-89890600D01*
X151850357Y-90006298D01*
X151884165Y-90274146D01*
X151902773Y-90581777D01*
X151906357Y-90908251D01*
X151895095Y-91232634D01*
X151869165Y-91533987D01*
X151835512Y-91757500D01*
X151798118Y-91955650D01*
X151769307Y-92100418D01*
X151743289Y-92200273D01*
X151714278Y-92263686D01*
X151676484Y-92299125D01*
X151624120Y-92315060D01*
X151551397Y-92319962D01*
X151452528Y-92322301D01*
X151449460Y-92322407D01*
X151320891Y-92326259D01*
X151243932Y-92324622D01*
X151206743Y-92314437D01*
X151197480Y-92292644D01*
X151203638Y-92258907D01*
X151257274Y-92017347D01*
X151294766Y-91792520D01*
X151318344Y-91563721D01*
X151330236Y-91310241D01*
X151332821Y-91059000D01*
X151331155Y-90836828D01*
X151326058Y-90663302D01*
X151316287Y-90523604D01*
X151300602Y-90402919D01*
X151277760Y-90286429D01*
X151262805Y-90223251D01*
X151189650Y-89970524D01*
X151095620Y-89710983D01*
X150989039Y-89464768D01*
X150878230Y-89252019D01*
X150827462Y-89169925D01*
X150624998Y-88904523D01*
X150382606Y-88653362D01*
X150114209Y-88428068D01*
X149833730Y-88240265D01*
X149555092Y-88101577D01*
X149541297Y-88096077D01*
X149213698Y-88000449D01*
X148869366Y-87961902D01*
X148518130Y-87979839D01*
X148169823Y-88053664D01*
X147834274Y-88182781D01*
X147795420Y-88201918D01*
X147653711Y-88286358D01*
X147485749Y-88406586D01*
X147306534Y-88550116D01*
X147131069Y-88704465D01*
X146974354Y-88857147D01*
X146871810Y-88970606D01*
X146758807Y-89114574D01*
X146632279Y-89289343D01*
X146504125Y-89477211D01*
X146386248Y-89660474D01*
X146290547Y-89821432D01*
X146253751Y-89889940D01*
X146205522Y-89977673D01*
X146164656Y-90039835D01*
X146148663Y-90056765D01*
X146120591Y-90039888D01*
X146072696Y-89978749D01*
X146014214Y-89885544D01*
X146000081Y-89860574D01*
X145732778Y-89426124D01*
X145438503Y-89035180D01*
X145122247Y-88693552D01*
X144788999Y-88407051D01*
X144690278Y-88335376D01*
X144409294Y-88174439D01*
X144098753Y-88057734D01*
X143771122Y-87986825D01*
X143438871Y-87963277D01*
X143114465Y-87988654D01*
X142810374Y-88064519D01*
X142740810Y-88090815D01*
X142410372Y-88255562D01*
X142092788Y-88472145D01*
X141802341Y-88728915D01*
X141553313Y-89014224D01*
X141476168Y-89122250D01*
X141262474Y-89496158D01*
X141099942Y-89903883D01*
X140989392Y-90340536D01*
X140931642Y-90801230D01*
X140927514Y-91281079D01*
X140977827Y-91775195D01*
X141004913Y-91932125D01*
X141030281Y-92069715D01*
X141050382Y-92185732D01*
X141062629Y-92264835D01*
X141065153Y-92289312D01*
X141036726Y-92310666D01*
X140963436Y-92324339D01*
X140863452Y-92330343D01*
X140754942Y-92328691D01*
X140656075Y-92319395D01*
X140585021Y-92302469D01*
X140563548Y-92288964D01*
X140544366Y-92243262D01*
X140517250Y-92149216D01*
X140485921Y-92020900D01*
X140456473Y-91884151D01*
X140431133Y-91751478D01*
X140412296Y-91630103D01*
X140399069Y-91506880D01*
X140390557Y-91368662D01*
X140385864Y-91202303D01*
X140384096Y-90994655D01*
X140384113Y-90820875D01*
X140385490Y-90575517D01*
X140389015Y-90381418D01*
X140395536Y-90226352D01*
X140405899Y-90098089D01*
X140420953Y-89984402D01*
X140441543Y-89873065D01*
X140453713Y-89816551D01*
X140570668Y-89392155D01*
X140725268Y-89011364D01*
X140923836Y-88662546D01*
X141172696Y-88334071D01*
X141382750Y-88107457D01*
X141600775Y-87901166D01*
X141804964Y-87738266D01*
X142013423Y-87607270D01*
X142244259Y-87496689D01*
X142494000Y-87402406D01*
X142621965Y-87359828D01*
X142725796Y-87330849D01*
X142823689Y-87312904D01*
X142933842Y-87303432D01*
X143074451Y-87299869D01*
X143224250Y-87299557D01*
X143408522Y-87301293D01*
X143547456Y-87307201D01*
X143659189Y-87319604D01*
X143761855Y-87340829D01*
X143873590Y-87373199D01*
X143922750Y-87389086D01*
X144168490Y-87476805D01*
X144376591Y-87569288D01*
X144562844Y-87676487D01*
X144743038Y-87808358D01*
X144932965Y-87974854D01*
X145083952Y-88121112D01*
X145292899Y-88338102D01*
X145472170Y-88545892D01*
X145634169Y-88761124D01*
X145791297Y-89000440D01*
X145955958Y-89280481D01*
X145980237Y-89323741D01*
X146135524Y-89601740D01*
X146329192Y-89255905D01*
X146581397Y-88843810D01*
X146851705Y-88473867D01*
X147135847Y-88150611D01*
X147429554Y-87878573D01*
X147728556Y-87662288D01*
X147939395Y-87546167D01*
X148312013Y-87399721D01*
X148689475Y-87313100D01*
X149066435Y-87286719D01*
X149437547Y-87320994D01*
G36*
X158370063Y-91556100D02*
X158477223Y-91605878D01*
X158570840Y-91698450D01*
X158632318Y-91813312D01*
X158643178Y-91857242D01*
X158640124Y-92005341D01*
X158587564Y-92130416D01*
X158496838Y-92224670D01*
X158379289Y-92280306D01*
X158246256Y-92289528D01*
X158109082Y-92244539D01*
X158093213Y-92235330D01*
X157995642Y-92158118D01*
X157942838Y-92063865D01*
X157924821Y-91933129D01*
X157924500Y-91906744D01*
X157929788Y-91879247D01*
X158093317Y-91879247D01*
X158093963Y-91974883D01*
X158146139Y-92058589D01*
X158242000Y-92113666D01*
X158325266Y-92110424D01*
X158407613Y-92061102D01*
X158462675Y-91986401D01*
X158476262Y-91895479D01*
X158441567Y-91816908D01*
X158373749Y-91760298D01*
X158287967Y-91735260D01*
X158199380Y-91751404D01*
X158148673Y-91787326D01*
X158093317Y-91879247D01*
X157929788Y-91879247D01*
X157952364Y-91761856D01*
X158028887Y-91648117D01*
X158143459Y-91573875D01*
X158285475Y-91547478D01*
X158370063Y-91556100D01*
X158370063Y-91556100D01*
G37*
X158370063Y-91556100D02*
X158477223Y-91605878D01*
X158570840Y-91698450D01*
X158632318Y-91813312D01*
X158643178Y-91857242D01*
X158640124Y-92005341D01*
X158587564Y-92130416D01*
X158496838Y-92224670D01*
X158379289Y-92280306D01*
X158246256Y-92289528D01*
X158109082Y-92244539D01*
X158093213Y-92235330D01*
X157995642Y-92158118D01*
X157942838Y-92063865D01*
X157924821Y-91933129D01*
X157924500Y-91906744D01*
X157929788Y-91879247D01*
X158093317Y-91879247D01*
X158093963Y-91974883D01*
X158146139Y-92058589D01*
X158242000Y-92113666D01*
X158325266Y-92110424D01*
X158407613Y-92061102D01*
X158462675Y-91986401D01*
X158476262Y-91895479D01*
X158441567Y-91816908D01*
X158373749Y-91760298D01*
X158287967Y-91735260D01*
X158199380Y-91751404D01*
X158148673Y-91787326D01*
X158093317Y-91879247D01*
X157929788Y-91879247D01*
X157952364Y-91761856D01*
X158028887Y-91648117D01*
X158143459Y-91573875D01*
X158285475Y-91547478D01*
X158370063Y-91556100D01*
G36*
X157407048Y-90764563D02*
X157477290Y-90795114D01*
X157546104Y-90861063D01*
X157621875Y-90986186D01*
X157640712Y-91117149D01*
X157605535Y-91240595D01*
X157519263Y-91343168D01*
X157429245Y-91395728D01*
X157346752Y-91427717D01*
X157290084Y-91434787D01*
X157226978Y-91416661D01*
X157172492Y-91393528D01*
X157062040Y-91314731D01*
X156995753Y-91203275D01*
X156976844Y-91075036D01*
X157008531Y-90945888D01*
X157064645Y-90861063D01*
X157134503Y-90794368D01*
X157205002Y-90764299D01*
X157305375Y-90757375D01*
X157407048Y-90764563D01*
X157407048Y-90764563D01*
G37*
X157407048Y-90764563D02*
X157477290Y-90795114D01*
X157546104Y-90861063D01*
X157621875Y-90986186D01*
X157640712Y-91117149D01*
X157605535Y-91240595D01*
X157519263Y-91343168D01*
X157429245Y-91395728D01*
X157346752Y-91427717D01*
X157290084Y-91434787D01*
X157226978Y-91416661D01*
X157172492Y-91393528D01*
X157062040Y-91314731D01*
X156995753Y-91203275D01*
X156976844Y-91075036D01*
X157008531Y-90945888D01*
X157064645Y-90861063D01*
X157134503Y-90794368D01*
X157205002Y-90764299D01*
X157305375Y-90757375D01*
X157407048Y-90764563D01*
G36*
X155903634Y-90524949D02*
X156013839Y-90574450D01*
X156102847Y-90665582D01*
X156145765Y-90755148D01*
X156160962Y-90888777D01*
X156123909Y-91009920D01*
X156045810Y-91108529D01*
X155937867Y-91174558D01*
X155811284Y-91197959D01*
X155682261Y-91170837D01*
X155564909Y-91092293D01*
X155497963Y-90976040D01*
X155480232Y-90846635D01*
X155703867Y-90846635D01*
X155718579Y-90917385D01*
X155749695Y-90951852D01*
X155826078Y-90976210D01*
X155895242Y-90941086D01*
X155923901Y-90900900D01*
X155933309Y-90829513D01*
X155894569Y-90771530D01*
X155822849Y-90745194D01*
X155795471Y-90746422D01*
X155731353Y-90781324D01*
X155703867Y-90846635D01*
X155480232Y-90846635D01*
X155479750Y-90843118D01*
X155505183Y-90709660D01*
X155573006Y-90609435D01*
X155670500Y-90544122D01*
X155784948Y-90515400D01*
X155903634Y-90524949D01*
X155903634Y-90524949D01*
G37*
X155903634Y-90524949D02*
X156013839Y-90574450D01*
X156102847Y-90665582D01*
X156145765Y-90755148D01*
X156160962Y-90888777D01*
X156123909Y-91009920D01*
X156045810Y-91108529D01*
X155937867Y-91174558D01*
X155811284Y-91197959D01*
X155682261Y-91170837D01*
X155564909Y-91092293D01*
X155497963Y-90976040D01*
X155480232Y-90846635D01*
X155703867Y-90846635D01*
X155718579Y-90917385D01*
X155749695Y-90951852D01*
X155826078Y-90976210D01*
X155895242Y-90941086D01*
X155923901Y-90900900D01*
X155933309Y-90829513D01*
X155894569Y-90771530D01*
X155822849Y-90745194D01*
X155795471Y-90746422D01*
X155731353Y-90781324D01*
X155703867Y-90846635D01*
X155480232Y-90846635D01*
X155479750Y-90843118D01*
X155505183Y-90709660D01*
X155573006Y-90609435D01*
X155670500Y-90544122D01*
X155784948Y-90515400D01*
X155903634Y-90524949D01*
D12*
X145288095Y-101052381D02*
X145288095Y-101861905D01*
X145335714Y-101957143D01*
X145383333Y-102004762D01*
X145478571Y-102052381D01*
X145669048Y-102052381D01*
X145764286Y-102004762D01*
X145811905Y-101957143D01*
X145859524Y-101861905D01*
X145859524Y-101052381D01*
X146240476Y-101052381D02*
X146859524Y-101052381D01*
X146526190Y-101433333D01*
X146669048Y-101433333D01*
X146764286Y-101480952D01*
X146811905Y-101528571D01*
X146859524Y-101623810D01*
X146859524Y-101861905D01*
X146811905Y-101957143D01*
X146764286Y-102004762D01*
X146669048Y-102052381D01*
X146383333Y-102052381D01*
X146288095Y-102004762D01*
X146240476Y-101957143D01*
X146677143Y-112117143D02*
X146629524Y-112164762D01*
X146486667Y-112212381D01*
X146391429Y-112212381D01*
X146248571Y-112164762D01*
X146153333Y-112069524D01*
X146105714Y-111974286D01*
X146058095Y-111783810D01*
X146058095Y-111640952D01*
X146105714Y-111450476D01*
X146153333Y-111355238D01*
X146248571Y-111260000D01*
X146391429Y-111212381D01*
X146486667Y-111212381D01*
X146629524Y-111260000D01*
X146677143Y-111307619D01*
X147629524Y-112212381D02*
X147058095Y-112212381D01*
X147343809Y-112212381D02*
X147343809Y-111212381D01*
X147248571Y-111355238D01*
X147153333Y-111450476D01*
X147058095Y-111498095D01*
X148534286Y-111212381D02*
X148058095Y-111212381D01*
X148010476Y-111688571D01*
X148058095Y-111640952D01*
X148153333Y-111593333D01*
X148391429Y-111593333D01*
X148486667Y-111640952D01*
X148534286Y-111688571D01*
X148581905Y-111783810D01*
X148581905Y-112021905D01*
X148534286Y-112117143D01*
X148486667Y-112164762D01*
X148391429Y-112212381D01*
X148153333Y-112212381D01*
X148058095Y-112164762D01*
X148010476Y-112117143D01*
X136231334Y-130405143D02*
X136183715Y-130452762D01*
X136040858Y-130500381D01*
X135945620Y-130500381D01*
X135802762Y-130452762D01*
X135707524Y-130357524D01*
X135659905Y-130262286D01*
X135612286Y-130071810D01*
X135612286Y-129928952D01*
X135659905Y-129738476D01*
X135707524Y-129643238D01*
X135802762Y-129548000D01*
X135945620Y-129500381D01*
X136040858Y-129500381D01*
X136183715Y-129548000D01*
X136231334Y-129595619D01*
X136612286Y-129595619D02*
X136659905Y-129548000D01*
X136755143Y-129500381D01*
X136993239Y-129500381D01*
X137088477Y-129548000D01*
X137136096Y-129595619D01*
X137183715Y-129690857D01*
X137183715Y-129786095D01*
X137136096Y-129928952D01*
X136564667Y-130500381D01*
X137183715Y-130500381D01*
X138771334Y-130405143D02*
X138723715Y-130452762D01*
X138580858Y-130500381D01*
X138485620Y-130500381D01*
X138342762Y-130452762D01*
X138247524Y-130357524D01*
X138199905Y-130262286D01*
X138152286Y-130071810D01*
X138152286Y-129928952D01*
X138199905Y-129738476D01*
X138247524Y-129643238D01*
X138342762Y-129548000D01*
X138485620Y-129500381D01*
X138580858Y-129500381D01*
X138723715Y-129548000D01*
X138771334Y-129595619D01*
X139676096Y-129500381D02*
X139199905Y-129500381D01*
X139152286Y-129976571D01*
X139199905Y-129928952D01*
X139295143Y-129881333D01*
X139533239Y-129881333D01*
X139628477Y-129928952D01*
X139676096Y-129976571D01*
X139723715Y-130071810D01*
X139723715Y-130309905D01*
X139676096Y-130405143D01*
X139628477Y-130452762D01*
X139533239Y-130500381D01*
X139295143Y-130500381D01*
X139199905Y-130452762D01*
X139152286Y-130405143D01*
X141057334Y-130405143D02*
X141009715Y-130452762D01*
X140866858Y-130500381D01*
X140771620Y-130500381D01*
X140628762Y-130452762D01*
X140533524Y-130357524D01*
X140485905Y-130262286D01*
X140438286Y-130071810D01*
X140438286Y-129928952D01*
X140485905Y-129738476D01*
X140533524Y-129643238D01*
X140628762Y-129548000D01*
X140771620Y-129500381D01*
X140866858Y-129500381D01*
X141009715Y-129548000D01*
X141057334Y-129595619D01*
X141390667Y-129500381D02*
X142057334Y-129500381D01*
X141628762Y-130500381D01*
X140803334Y-121769143D02*
X140755715Y-121816762D01*
X140612858Y-121864381D01*
X140517620Y-121864381D01*
X140374762Y-121816762D01*
X140279524Y-121721524D01*
X140231905Y-121626286D01*
X140184286Y-121435810D01*
X140184286Y-121292952D01*
X140231905Y-121102476D01*
X140279524Y-121007238D01*
X140374762Y-120912000D01*
X140517620Y-120864381D01*
X140612858Y-120864381D01*
X140755715Y-120912000D01*
X140803334Y-120959619D01*
X141755715Y-121864381D02*
X141184286Y-121864381D01*
X141470000Y-121864381D02*
X141470000Y-120864381D01*
X141374762Y-121007238D01*
X141279524Y-121102476D01*
X141184286Y-121150095D01*
X143089334Y-121769143D02*
X143041715Y-121816762D01*
X142898858Y-121864381D01*
X142803620Y-121864381D01*
X142660762Y-121816762D01*
X142565524Y-121721524D01*
X142517905Y-121626286D01*
X142470286Y-121435810D01*
X142470286Y-121292952D01*
X142517905Y-121102476D01*
X142565524Y-121007238D01*
X142660762Y-120912000D01*
X142803620Y-120864381D01*
X142898858Y-120864381D01*
X143041715Y-120912000D01*
X143089334Y-120959619D01*
X143946477Y-121197714D02*
X143946477Y-121864381D01*
X143708381Y-120816762D02*
X143470286Y-121531048D01*
X144089334Y-121531048D01*
X145375334Y-121769143D02*
X145327715Y-121816762D01*
X145184858Y-121864381D01*
X145089620Y-121864381D01*
X144946762Y-121816762D01*
X144851524Y-121721524D01*
X144803905Y-121626286D01*
X144756286Y-121435810D01*
X144756286Y-121292952D01*
X144803905Y-121102476D01*
X144851524Y-121007238D01*
X144946762Y-120912000D01*
X145089620Y-120864381D01*
X145184858Y-120864381D01*
X145327715Y-120912000D01*
X145375334Y-120959619D01*
X146232477Y-120864381D02*
X146042000Y-120864381D01*
X145946762Y-120912000D01*
X145899143Y-120959619D01*
X145803905Y-121102476D01*
X145756286Y-121292952D01*
X145756286Y-121673905D01*
X145803905Y-121769143D01*
X145851524Y-121816762D01*
X145946762Y-121864381D01*
X146137239Y-121864381D01*
X146232477Y-121816762D01*
X146280096Y-121769143D01*
X146327715Y-121673905D01*
X146327715Y-121435810D01*
X146280096Y-121340571D01*
X146232477Y-121292952D01*
X146137239Y-121245333D01*
X145946762Y-121245333D01*
X145851524Y-121292952D01*
X145803905Y-121340571D01*
X145756286Y-121435810D01*
X107783334Y-95861143D02*
X107735715Y-95908762D01*
X107592858Y-95956381D01*
X107497620Y-95956381D01*
X107354762Y-95908762D01*
X107259524Y-95813524D01*
X107211905Y-95718286D01*
X107164286Y-95527810D01*
X107164286Y-95384952D01*
X107211905Y-95194476D01*
X107259524Y-95099238D01*
X107354762Y-95004000D01*
X107497620Y-94956381D01*
X107592858Y-94956381D01*
X107735715Y-95004000D01*
X107783334Y-95051619D01*
X108354762Y-95384952D02*
X108259524Y-95337333D01*
X108211905Y-95289714D01*
X108164286Y-95194476D01*
X108164286Y-95146857D01*
X108211905Y-95051619D01*
X108259524Y-95004000D01*
X108354762Y-94956381D01*
X108545239Y-94956381D01*
X108640477Y-95004000D01*
X108688096Y-95051619D01*
X108735715Y-95146857D01*
X108735715Y-95194476D01*
X108688096Y-95289714D01*
X108640477Y-95337333D01*
X108545239Y-95384952D01*
X108354762Y-95384952D01*
X108259524Y-95432571D01*
X108211905Y-95480190D01*
X108164286Y-95575429D01*
X108164286Y-95765905D01*
X108211905Y-95861143D01*
X108259524Y-95908762D01*
X108354762Y-95956381D01*
X108545239Y-95956381D01*
X108640477Y-95908762D01*
X108688096Y-95861143D01*
X108735715Y-95765905D01*
X108735715Y-95575429D01*
X108688096Y-95480190D01*
X108640477Y-95432571D01*
X108545239Y-95384952D01*
X106513334Y-122023143D02*
X106465715Y-122070762D01*
X106322858Y-122118381D01*
X106227620Y-122118381D01*
X106084762Y-122070762D01*
X105989524Y-121975524D01*
X105941905Y-121880286D01*
X105894286Y-121689810D01*
X105894286Y-121546952D01*
X105941905Y-121356476D01*
X105989524Y-121261238D01*
X106084762Y-121166000D01*
X106227620Y-121118381D01*
X106322858Y-121118381D01*
X106465715Y-121166000D01*
X106513334Y-121213619D01*
X106989524Y-122118381D02*
X107180000Y-122118381D01*
X107275239Y-122070762D01*
X107322858Y-122023143D01*
X107418096Y-121880286D01*
X107465715Y-121689810D01*
X107465715Y-121308857D01*
X107418096Y-121213619D01*
X107370477Y-121166000D01*
X107275239Y-121118381D01*
X107084762Y-121118381D01*
X106989524Y-121166000D01*
X106941905Y-121213619D01*
X106894286Y-121308857D01*
X106894286Y-121546952D01*
X106941905Y-121642190D01*
X106989524Y-121689810D01*
X107084762Y-121737429D01*
X107275239Y-121737429D01*
X107370477Y-121689810D01*
X107418096Y-121642190D01*
X107465715Y-121546952D01*
X106037143Y-124309143D02*
X105989524Y-124356762D01*
X105846667Y-124404381D01*
X105751429Y-124404381D01*
X105608571Y-124356762D01*
X105513333Y-124261524D01*
X105465714Y-124166286D01*
X105418095Y-123975810D01*
X105418095Y-123832952D01*
X105465714Y-123642476D01*
X105513333Y-123547238D01*
X105608571Y-123452000D01*
X105751429Y-123404381D01*
X105846667Y-123404381D01*
X105989524Y-123452000D01*
X106037143Y-123499619D01*
X106989524Y-124404381D02*
X106418095Y-124404381D01*
X106703809Y-124404381D02*
X106703809Y-123404381D01*
X106608571Y-123547238D01*
X106513333Y-123642476D01*
X106418095Y-123690095D01*
X107608571Y-123404381D02*
X107703810Y-123404381D01*
X107799048Y-123452000D01*
X107846667Y-123499619D01*
X107894286Y-123594857D01*
X107941905Y-123785333D01*
X107941905Y-124023429D01*
X107894286Y-124213905D01*
X107846667Y-124309143D01*
X107799048Y-124356762D01*
X107703810Y-124404381D01*
X107608571Y-124404381D01*
X107513333Y-124356762D01*
X107465714Y-124309143D01*
X107418095Y-124213905D01*
X107370476Y-124023429D01*
X107370476Y-123785333D01*
X107418095Y-123594857D01*
X107465714Y-123499619D01*
X107513333Y-123452000D01*
X107608571Y-123404381D01*
X106037143Y-119991143D02*
X105989524Y-120038762D01*
X105846667Y-120086381D01*
X105751429Y-120086381D01*
X105608571Y-120038762D01*
X105513333Y-119943524D01*
X105465714Y-119848286D01*
X105418095Y-119657810D01*
X105418095Y-119514952D01*
X105465714Y-119324476D01*
X105513333Y-119229238D01*
X105608571Y-119134000D01*
X105751429Y-119086381D01*
X105846667Y-119086381D01*
X105989524Y-119134000D01*
X106037143Y-119181619D01*
X106989524Y-120086381D02*
X106418095Y-120086381D01*
X106703809Y-120086381D02*
X106703809Y-119086381D01*
X106608571Y-119229238D01*
X106513333Y-119324476D01*
X106418095Y-119372095D01*
X107941905Y-120086381D02*
X107370476Y-120086381D01*
X107656190Y-120086381D02*
X107656190Y-119086381D01*
X107560952Y-119229238D01*
X107465714Y-119324476D01*
X107370476Y-119372095D01*
X122801143Y-98655143D02*
X122753524Y-98702762D01*
X122610667Y-98750381D01*
X122515429Y-98750381D01*
X122372571Y-98702762D01*
X122277333Y-98607524D01*
X122229714Y-98512286D01*
X122182095Y-98321810D01*
X122182095Y-98178952D01*
X122229714Y-97988476D01*
X122277333Y-97893238D01*
X122372571Y-97798000D01*
X122515429Y-97750381D01*
X122610667Y-97750381D01*
X122753524Y-97798000D01*
X122801143Y-97845619D01*
X123753524Y-98750381D02*
X123182095Y-98750381D01*
X123467809Y-98750381D02*
X123467809Y-97750381D01*
X123372571Y-97893238D01*
X123277333Y-97988476D01*
X123182095Y-98036095D01*
X124134476Y-97845619D02*
X124182095Y-97798000D01*
X124277333Y-97750381D01*
X124515429Y-97750381D01*
X124610667Y-97798000D01*
X124658286Y-97845619D01*
X124705905Y-97940857D01*
X124705905Y-98036095D01*
X124658286Y-98178952D01*
X124086857Y-98750381D01*
X124705905Y-98750381D01*
X140327143Y-112117143D02*
X140279524Y-112164762D01*
X140136667Y-112212381D01*
X140041429Y-112212381D01*
X139898571Y-112164762D01*
X139803333Y-112069524D01*
X139755714Y-111974286D01*
X139708095Y-111783810D01*
X139708095Y-111640952D01*
X139755714Y-111450476D01*
X139803333Y-111355238D01*
X139898571Y-111260000D01*
X140041429Y-111212381D01*
X140136667Y-111212381D01*
X140279524Y-111260000D01*
X140327143Y-111307619D01*
X141279524Y-112212381D02*
X140708095Y-112212381D01*
X140993809Y-112212381D02*
X140993809Y-111212381D01*
X140898571Y-111355238D01*
X140803333Y-111450476D01*
X140708095Y-111498095D01*
X141612857Y-111212381D02*
X142231905Y-111212381D01*
X141898571Y-111593333D01*
X142041429Y-111593333D01*
X142136667Y-111640952D01*
X142184286Y-111688571D01*
X142231905Y-111783810D01*
X142231905Y-112021905D01*
X142184286Y-112117143D01*
X142136667Y-112164762D01*
X142041429Y-112212381D01*
X141755714Y-112212381D01*
X141660476Y-112164762D01*
X141612857Y-112117143D01*
X143375143Y-112117143D02*
X143327524Y-112164762D01*
X143184667Y-112212381D01*
X143089429Y-112212381D01*
X142946571Y-112164762D01*
X142851333Y-112069524D01*
X142803714Y-111974286D01*
X142756095Y-111783810D01*
X142756095Y-111640952D01*
X142803714Y-111450476D01*
X142851333Y-111355238D01*
X142946571Y-111260000D01*
X143089429Y-111212381D01*
X143184667Y-111212381D01*
X143327524Y-111260000D01*
X143375143Y-111307619D01*
X144327524Y-112212381D02*
X143756095Y-112212381D01*
X144041809Y-112212381D02*
X144041809Y-111212381D01*
X143946571Y-111355238D01*
X143851333Y-111450476D01*
X143756095Y-111498095D01*
X145184667Y-111545714D02*
X145184667Y-112212381D01*
X144946571Y-111164762D02*
X144708476Y-111879048D01*
X145327524Y-111879048D01*
X138803143Y-103227143D02*
X138755524Y-103274762D01*
X138612667Y-103322381D01*
X138517429Y-103322381D01*
X138374571Y-103274762D01*
X138279333Y-103179524D01*
X138231714Y-103084286D01*
X138184095Y-102893810D01*
X138184095Y-102750952D01*
X138231714Y-102560476D01*
X138279333Y-102465238D01*
X138374571Y-102370000D01*
X138517429Y-102322381D01*
X138612667Y-102322381D01*
X138755524Y-102370000D01*
X138803143Y-102417619D01*
X139755524Y-103322381D02*
X139184095Y-103322381D01*
X139469809Y-103322381D02*
X139469809Y-102322381D01*
X139374571Y-102465238D01*
X139279333Y-102560476D01*
X139184095Y-102608095D01*
X140612667Y-102322381D02*
X140422190Y-102322381D01*
X140326952Y-102370000D01*
X140279333Y-102417619D01*
X140184095Y-102560476D01*
X140136476Y-102750952D01*
X140136476Y-103131905D01*
X140184095Y-103227143D01*
X140231714Y-103274762D01*
X140326952Y-103322381D01*
X140517429Y-103322381D01*
X140612667Y-103274762D01*
X140660286Y-103227143D01*
X140707905Y-103131905D01*
X140707905Y-102893810D01*
X140660286Y-102798571D01*
X140612667Y-102750952D01*
X140517429Y-102703333D01*
X140326952Y-102703333D01*
X140231714Y-102750952D01*
X140184095Y-102798571D01*
X140136476Y-102893810D01*
X124483905Y-114498381D02*
X124483905Y-113498381D01*
X124722000Y-113498381D01*
X124864858Y-113546000D01*
X124960096Y-113641238D01*
X125007715Y-113736476D01*
X125055334Y-113926952D01*
X125055334Y-114069810D01*
X125007715Y-114260286D01*
X124960096Y-114355524D01*
X124864858Y-114450762D01*
X124722000Y-114498381D01*
X124483905Y-114498381D01*
X125436286Y-113593619D02*
X125483905Y-113546000D01*
X125579143Y-113498381D01*
X125817239Y-113498381D01*
X125912477Y-113546000D01*
X125960096Y-113593619D01*
X126007715Y-113688857D01*
X126007715Y-113784095D01*
X125960096Y-113926952D01*
X125388667Y-114498381D01*
X126007715Y-114498381D01*
X124229905Y-102052381D02*
X124229905Y-101052381D01*
X124468000Y-101052381D01*
X124610858Y-101100000D01*
X124706096Y-101195238D01*
X124753715Y-101290476D01*
X124801334Y-101480952D01*
X124801334Y-101623810D01*
X124753715Y-101814286D01*
X124706096Y-101909524D01*
X124610858Y-102004762D01*
X124468000Y-102052381D01*
X124229905Y-102052381D01*
X125134667Y-101052381D02*
X125753715Y-101052381D01*
X125420381Y-101433333D01*
X125563239Y-101433333D01*
X125658477Y-101480952D01*
X125706096Y-101528571D01*
X125753715Y-101623810D01*
X125753715Y-101861905D01*
X125706096Y-101957143D01*
X125658477Y-102004762D01*
X125563239Y-102052381D01*
X125277524Y-102052381D01*
X125182286Y-102004762D01*
X125134667Y-101957143D01*
X140366762Y-114593619D02*
X140271524Y-114546000D01*
X140176286Y-114450762D01*
X140033429Y-114307905D01*
X139938190Y-114260286D01*
X139842952Y-114260286D01*
X139890571Y-114498381D02*
X139795333Y-114450762D01*
X139700095Y-114355524D01*
X139652476Y-114165048D01*
X139652476Y-113831714D01*
X139700095Y-113641238D01*
X139795333Y-113546000D01*
X139890571Y-113498381D01*
X140081048Y-113498381D01*
X140176286Y-113546000D01*
X140271524Y-113641238D01*
X140319143Y-113831714D01*
X140319143Y-114165048D01*
X140271524Y-114355524D01*
X140176286Y-114450762D01*
X140081048Y-114498381D01*
X139890571Y-114498381D01*
X141271524Y-114498381D02*
X140700095Y-114498381D01*
X140985809Y-114498381D02*
X140985809Y-113498381D01*
X140890571Y-113641238D01*
X140795333Y-113736476D01*
X140700095Y-113784095D01*
X107783334Y-93924381D02*
X107450000Y-93448190D01*
X107211905Y-93924381D02*
X107211905Y-92924381D01*
X107592858Y-92924381D01*
X107688096Y-92972000D01*
X107735715Y-93019619D01*
X107783334Y-93114857D01*
X107783334Y-93257714D01*
X107735715Y-93352952D01*
X107688096Y-93400571D01*
X107592858Y-93448190D01*
X107211905Y-93448190D01*
X108640477Y-93257714D02*
X108640477Y-93924381D01*
X108402381Y-92876762D02*
X108164286Y-93591048D01*
X108783334Y-93591048D01*
X113371334Y-132532381D02*
X113038000Y-132056190D01*
X112799905Y-132532381D02*
X112799905Y-131532381D01*
X113180858Y-131532381D01*
X113276096Y-131580000D01*
X113323715Y-131627619D01*
X113371334Y-131722857D01*
X113371334Y-131865714D01*
X113323715Y-131960952D01*
X113276096Y-132008571D01*
X113180858Y-132056190D01*
X112799905Y-132056190D01*
X114276096Y-131532381D02*
X113799905Y-131532381D01*
X113752286Y-132008571D01*
X113799905Y-131960952D01*
X113895143Y-131913333D01*
X114133239Y-131913333D01*
X114228477Y-131960952D01*
X114276096Y-132008571D01*
X114323715Y-132103810D01*
X114323715Y-132341905D01*
X114276096Y-132437143D01*
X114228477Y-132484762D01*
X114133239Y-132532381D01*
X113895143Y-132532381D01*
X113799905Y-132484762D01*
X113752286Y-132437143D01*
X123277334Y-92908381D02*
X122944000Y-92432190D01*
X122705905Y-92908381D02*
X122705905Y-91908381D01*
X123086858Y-91908381D01*
X123182096Y-91956000D01*
X123229715Y-92003619D01*
X123277334Y-92098857D01*
X123277334Y-92241714D01*
X123229715Y-92336952D01*
X123182096Y-92384571D01*
X123086858Y-92432190D01*
X122705905Y-92432190D01*
X123753524Y-92908381D02*
X123944000Y-92908381D01*
X124039239Y-92860762D01*
X124086858Y-92813143D01*
X124182096Y-92670286D01*
X124229715Y-92479810D01*
X124229715Y-92098857D01*
X124182096Y-92003619D01*
X124134477Y-91956000D01*
X124039239Y-91908381D01*
X123848762Y-91908381D01*
X123753524Y-91956000D01*
X123705905Y-92003619D01*
X123658286Y-92098857D01*
X123658286Y-92336952D01*
X123705905Y-92432190D01*
X123753524Y-92479810D01*
X123848762Y-92527429D01*
X124039239Y-92527429D01*
X124134477Y-92479810D01*
X124182096Y-92432190D01*
X124229715Y-92336952D01*
X113117334Y-115006381D02*
X112784000Y-114530190D01*
X112545905Y-115006381D02*
X112545905Y-114006381D01*
X112926858Y-114006381D01*
X113022096Y-114054000D01*
X113069715Y-114101619D01*
X113117334Y-114196857D01*
X113117334Y-114339714D01*
X113069715Y-114434952D01*
X113022096Y-114482571D01*
X112926858Y-114530190D01*
X112545905Y-114530190D01*
X113450667Y-114006381D02*
X114117334Y-114006381D01*
X113688762Y-115006381D01*
X115196334Y-114992381D02*
X114863000Y-114516190D01*
X114624905Y-114992381D02*
X114624905Y-113992381D01*
X115005858Y-113992381D01*
X115101096Y-114040000D01*
X115148715Y-114087619D01*
X115196334Y-114182857D01*
X115196334Y-114325714D01*
X115148715Y-114420952D01*
X115101096Y-114468571D01*
X115005858Y-114516190D01*
X114624905Y-114516190D01*
X115767762Y-114420952D02*
X115672524Y-114373333D01*
X115624905Y-114325714D01*
X115577286Y-114230476D01*
X115577286Y-114182857D01*
X115624905Y-114087619D01*
X115672524Y-114040000D01*
X115767762Y-113992381D01*
X115958239Y-113992381D01*
X116053477Y-114040000D01*
X116101096Y-114087619D01*
X116148715Y-114182857D01*
X116148715Y-114230476D01*
X116101096Y-114325714D01*
X116053477Y-114373333D01*
X115958239Y-114420952D01*
X115767762Y-114420952D01*
X115672524Y-114468571D01*
X115624905Y-114516190D01*
X115577286Y-114611429D01*
X115577286Y-114801905D01*
X115624905Y-114897143D01*
X115672524Y-114944762D01*
X115767762Y-114992381D01*
X115958239Y-114992381D01*
X116053477Y-114944762D01*
X116101096Y-114897143D01*
X116148715Y-114801905D01*
X116148715Y-114611429D01*
X116101096Y-114516190D01*
X116053477Y-114468571D01*
X115958239Y-114420952D01*
X135247143Y-108910381D02*
X134913809Y-108434190D01*
X134675714Y-108910381D02*
X134675714Y-107910381D01*
X135056667Y-107910381D01*
X135151905Y-107958000D01*
X135199524Y-108005619D01*
X135247143Y-108100857D01*
X135247143Y-108243714D01*
X135199524Y-108338952D01*
X135151905Y-108386571D01*
X135056667Y-108434190D01*
X134675714Y-108434190D01*
X136199524Y-108910381D02*
X135628095Y-108910381D01*
X135913809Y-108910381D02*
X135913809Y-107910381D01*
X135818571Y-108053238D01*
X135723333Y-108148476D01*
X135628095Y-108196095D01*
X136818571Y-107910381D02*
X136913810Y-107910381D01*
X137009048Y-107958000D01*
X137056667Y-108005619D01*
X137104286Y-108100857D01*
X137151905Y-108291333D01*
X137151905Y-108529429D01*
X137104286Y-108719905D01*
X137056667Y-108815143D01*
X137009048Y-108862762D01*
X136913810Y-108910381D01*
X136818571Y-108910381D01*
X136723333Y-108862762D01*
X136675714Y-108815143D01*
X136628095Y-108719905D01*
X136580476Y-108529429D01*
X136580476Y-108291333D01*
X136628095Y-108100857D01*
X136675714Y-108005619D01*
X136723333Y-107958000D01*
X136818571Y-107910381D01*
X135501143Y-103322381D02*
X135167809Y-102846190D01*
X134929714Y-103322381D02*
X134929714Y-102322381D01*
X135310667Y-102322381D01*
X135405905Y-102370000D01*
X135453524Y-102417619D01*
X135501143Y-102512857D01*
X135501143Y-102655714D01*
X135453524Y-102750952D01*
X135405905Y-102798571D01*
X135310667Y-102846190D01*
X134929714Y-102846190D01*
X136453524Y-103322381D02*
X135882095Y-103322381D01*
X136167809Y-103322381D02*
X136167809Y-102322381D01*
X136072571Y-102465238D01*
X135977333Y-102560476D01*
X135882095Y-102608095D01*
X136834476Y-102417619D02*
X136882095Y-102370000D01*
X136977333Y-102322381D01*
X137215429Y-102322381D01*
X137310667Y-102370000D01*
X137358286Y-102417619D01*
X137405905Y-102512857D01*
X137405905Y-102608095D01*
X137358286Y-102750952D01*
X136786857Y-103322381D01*
X137405905Y-103322381D01*
X117094095Y-120737381D02*
X117094095Y-121546905D01*
X117141714Y-121642143D01*
X117189333Y-121689762D01*
X117284571Y-121737381D01*
X117475048Y-121737381D01*
X117570286Y-121689762D01*
X117617905Y-121642143D01*
X117665524Y-121546905D01*
X117665524Y-120737381D01*
X118094095Y-120832619D02*
X118141714Y-120785000D01*
X118236952Y-120737381D01*
X118475048Y-120737381D01*
X118570286Y-120785000D01*
X118617905Y-120832619D01*
X118665524Y-120927857D01*
X118665524Y-121023095D01*
X118617905Y-121165952D01*
X118046476Y-121737381D01*
X118665524Y-121737381D01*
X111426667Y-89368381D02*
X111426667Y-90082667D01*
X111379047Y-90225524D01*
X111283809Y-90320762D01*
X111140952Y-90368381D01*
X111045714Y-90368381D01*
X112331429Y-89701714D02*
X112331429Y-90368381D01*
X112093333Y-89320762D02*
X111855238Y-90035048D01*
X112474286Y-90035048D01*
X133778667Y-127468381D02*
X133778667Y-128182667D01*
X133731047Y-128325524D01*
X133635809Y-128420762D01*
X133492952Y-128468381D01*
X133397714Y-128468381D01*
X134778667Y-128468381D02*
X134207238Y-128468381D01*
X134492952Y-128468381D02*
X134492952Y-127468381D01*
X134397714Y-127611238D01*
X134302476Y-127706476D01*
X134207238Y-127754095D01*
X161877524Y-103528762D02*
X162020381Y-103576381D01*
X162258477Y-103576381D01*
X162353715Y-103528762D01*
X162401334Y-103481143D01*
X162448953Y-103385905D01*
X162448953Y-103290667D01*
X162401334Y-103195429D01*
X162353715Y-103147810D01*
X162258477Y-103100190D01*
X162068000Y-103052571D01*
X161972762Y-103004952D01*
X161925143Y-102957333D01*
X161877524Y-102862095D01*
X161877524Y-102766857D01*
X161925143Y-102671619D01*
X161972762Y-102624000D01*
X162068000Y-102576381D01*
X162306096Y-102576381D01*
X162448953Y-102624000D01*
X163448953Y-103481143D02*
X163401334Y-103528762D01*
X163258477Y-103576381D01*
X163163239Y-103576381D01*
X163020381Y-103528762D01*
X162925143Y-103433524D01*
X162877524Y-103338286D01*
X162829905Y-103147810D01*
X162829905Y-103004952D01*
X162877524Y-102814476D01*
X162925143Y-102719238D01*
X163020381Y-102624000D01*
X163163239Y-102576381D01*
X163258477Y-102576381D01*
X163401334Y-102624000D01*
X163448953Y-102671619D01*
X164353715Y-103576381D02*
X163877524Y-103576381D01*
X163877524Y-102576381D01*
X168711714Y-103528762D02*
X168854571Y-103576381D01*
X169092667Y-103576381D01*
X169187905Y-103528762D01*
X169235524Y-103481143D01*
X169283143Y-103385905D01*
X169283143Y-103290667D01*
X169235524Y-103195429D01*
X169187905Y-103147810D01*
X169092667Y-103100190D01*
X168902190Y-103052571D01*
X168806952Y-103004952D01*
X168759333Y-102957333D01*
X168711714Y-102862095D01*
X168711714Y-102766857D01*
X168759333Y-102671619D01*
X168806952Y-102624000D01*
X168902190Y-102576381D01*
X169140286Y-102576381D01*
X169283143Y-102624000D01*
X169711714Y-103576381D02*
X169711714Y-102576381D01*
X169949809Y-102576381D01*
X170092667Y-102624000D01*
X170187905Y-102719238D01*
X170235524Y-102814476D01*
X170283143Y-103004952D01*
X170283143Y-103147810D01*
X170235524Y-103338286D01*
X170187905Y-103433524D01*
X170092667Y-103528762D01*
X169949809Y-103576381D01*
X169711714Y-103576381D01*
X170664095Y-103290667D02*
X171140286Y-103290667D01*
X170568857Y-103576381D02*
X170902190Y-102576381D01*
X171235524Y-103576381D01*
X178927333Y-96972381D02*
X178927333Y-95972381D01*
X179165428Y-95972381D01*
X179308286Y-96020000D01*
X179403524Y-96115238D01*
X179451143Y-96210476D01*
X179498762Y-96400952D01*
X179498762Y-96543810D01*
X179451143Y-96734286D01*
X179403524Y-96829524D01*
X179308286Y-96924762D01*
X179165428Y-96972381D01*
X178927333Y-96972381D01*
X179879714Y-96686667D02*
X180355905Y-96686667D01*
X179784476Y-96972381D02*
X180117809Y-95972381D01*
X180451143Y-96972381D01*
X181355905Y-96877143D02*
X181308286Y-96924762D01*
X181165429Y-96972381D01*
X181070191Y-96972381D01*
X180927333Y-96924762D01*
X180832095Y-96829524D01*
X180784476Y-96734286D01*
X180736857Y-96543810D01*
X180736857Y-96400952D01*
X180784476Y-96210476D01*
X180832095Y-96115238D01*
X180927333Y-96020000D01*
X181070191Y-95972381D01*
X181165429Y-95972381D01*
X181308286Y-96020000D01*
X181355905Y-96067619D01*
X181736857Y-96067619D02*
X181784476Y-96020000D01*
X181879714Y-95972381D01*
X182117810Y-95972381D01*
X182213048Y-96020000D01*
X182260667Y-96067619D01*
X182308286Y-96162857D01*
X182308286Y-96258095D01*
X182260667Y-96400952D01*
X181689238Y-96972381D01*
X182308286Y-96972381D01*
X128420905Y-132786381D02*
X128420905Y-131786381D01*
X128659000Y-131786381D01*
X128801858Y-131834000D01*
X128897096Y-131929238D01*
X128944715Y-132024476D01*
X128992334Y-132214952D01*
X128992334Y-132357810D01*
X128944715Y-132548286D01*
X128897096Y-132643524D01*
X128801858Y-132738762D01*
X128659000Y-132786381D01*
X128420905Y-132786381D01*
X129944715Y-132786381D02*
X129373286Y-132786381D01*
X129659000Y-132786381D02*
X129659000Y-131786381D01*
X129563762Y-131929238D01*
X129468524Y-132024476D01*
X129373286Y-132072095D01*
X124547334Y-124912381D02*
X124214000Y-124436190D01*
X123975905Y-124912381D02*
X123975905Y-123912381D01*
X124356858Y-123912381D01*
X124452096Y-123960000D01*
X124499715Y-124007619D01*
X124547334Y-124102857D01*
X124547334Y-124245714D01*
X124499715Y-124340952D01*
X124452096Y-124388571D01*
X124356858Y-124436190D01*
X123975905Y-124436190D01*
X125499715Y-124912381D02*
X124928286Y-124912381D01*
X125214000Y-124912381D02*
X125214000Y-123912381D01*
X125118762Y-124055238D01*
X125023524Y-124150476D01*
X124928286Y-124198095D01*
X121499334Y-121102381D02*
X121166000Y-120626190D01*
X120927905Y-121102381D02*
X120927905Y-120102381D01*
X121308858Y-120102381D01*
X121404096Y-120150000D01*
X121451715Y-120197619D01*
X121499334Y-120292857D01*
X121499334Y-120435714D01*
X121451715Y-120530952D01*
X121404096Y-120578571D01*
X121308858Y-120626190D01*
X120927905Y-120626190D01*
X121880286Y-120197619D02*
X121927905Y-120150000D01*
X122023143Y-120102381D01*
X122261239Y-120102381D01*
X122356477Y-120150000D01*
X122404096Y-120197619D01*
X122451715Y-120292857D01*
X122451715Y-120388095D01*
X122404096Y-120530952D01*
X121832667Y-121102381D01*
X122451715Y-121102381D01*
X126325334Y-117292381D02*
X125992000Y-116816190D01*
X125753905Y-117292381D02*
X125753905Y-116292381D01*
X126134858Y-116292381D01*
X126230096Y-116340000D01*
X126277715Y-116387619D01*
X126325334Y-116482857D01*
X126325334Y-116625714D01*
X126277715Y-116720952D01*
X126230096Y-116768571D01*
X126134858Y-116816190D01*
X125753905Y-116816190D01*
X126658667Y-116292381D02*
X127277715Y-116292381D01*
X126944381Y-116673333D01*
X127087239Y-116673333D01*
X127182477Y-116720952D01*
X127230096Y-116768571D01*
X127277715Y-116863810D01*
X127277715Y-117101905D01*
X127230096Y-117197143D01*
X127182477Y-117244762D01*
X127087239Y-117292381D01*
X126801524Y-117292381D01*
X126706286Y-117244762D01*
X126658667Y-117197143D01*
X135382095Y-119340381D02*
X135382095Y-120149905D01*
X135429714Y-120245143D01*
X135477333Y-120292762D01*
X135572571Y-120340381D01*
X135763048Y-120340381D01*
X135858286Y-120292762D01*
X135905905Y-120245143D01*
X135953524Y-120149905D01*
X135953524Y-119340381D01*
X136953524Y-120340381D02*
X136382095Y-120340381D01*
X136667809Y-120340381D02*
X136667809Y-119340381D01*
X136572571Y-119483238D01*
X136477333Y-119578476D01*
X136382095Y-119626095D01*
X159631143Y-116562143D02*
X159583524Y-116609762D01*
X159440667Y-116657381D01*
X159345429Y-116657381D01*
X159202571Y-116609762D01*
X159107333Y-116514524D01*
X159059714Y-116419286D01*
X159012095Y-116228810D01*
X159012095Y-116085952D01*
X159059714Y-115895476D01*
X159107333Y-115800238D01*
X159202571Y-115705000D01*
X159345429Y-115657381D01*
X159440667Y-115657381D01*
X159583524Y-115705000D01*
X159631143Y-115752619D01*
X160583524Y-116657381D02*
X160012095Y-116657381D01*
X160297809Y-116657381D02*
X160297809Y-115657381D01*
X160202571Y-115800238D01*
X160107333Y-115895476D01*
X160012095Y-115943095D01*
X160916857Y-115657381D02*
X161583524Y-115657381D01*
X161154952Y-116657381D01*
X170553143Y-123420143D02*
X170505524Y-123467762D01*
X170362667Y-123515381D01*
X170267429Y-123515381D01*
X170124571Y-123467762D01*
X170029333Y-123372524D01*
X169981714Y-123277286D01*
X169934095Y-123086810D01*
X169934095Y-122943952D01*
X169981714Y-122753476D01*
X170029333Y-122658238D01*
X170124571Y-122563000D01*
X170267429Y-122515381D01*
X170362667Y-122515381D01*
X170505524Y-122563000D01*
X170553143Y-122610619D01*
X171505524Y-123515381D02*
X170934095Y-123515381D01*
X171219809Y-123515381D02*
X171219809Y-122515381D01*
X171124571Y-122658238D01*
X171029333Y-122753476D01*
X170934095Y-122801095D01*
X172076952Y-122943952D02*
X171981714Y-122896333D01*
X171934095Y-122848714D01*
X171886476Y-122753476D01*
X171886476Y-122705857D01*
X171934095Y-122610619D01*
X171981714Y-122563000D01*
X172076952Y-122515381D01*
X172267429Y-122515381D01*
X172362667Y-122563000D01*
X172410286Y-122610619D01*
X172457905Y-122705857D01*
X172457905Y-122753476D01*
X172410286Y-122848714D01*
X172362667Y-122896333D01*
X172267429Y-122943952D01*
X172076952Y-122943952D01*
X171981714Y-122991571D01*
X171934095Y-123039190D01*
X171886476Y-123134429D01*
X171886476Y-123324905D01*
X171934095Y-123420143D01*
X171981714Y-123467762D01*
X172076952Y-123515381D01*
X172267429Y-123515381D01*
X172362667Y-123467762D01*
X172410286Y-123420143D01*
X172457905Y-123324905D01*
X172457905Y-123134429D01*
X172410286Y-123039190D01*
X172362667Y-122991571D01*
X172267429Y-122943952D01*
X173093143Y-117832143D02*
X173045524Y-117879762D01*
X172902667Y-117927381D01*
X172807429Y-117927381D01*
X172664571Y-117879762D01*
X172569333Y-117784524D01*
X172521714Y-117689286D01*
X172474095Y-117498810D01*
X172474095Y-117355952D01*
X172521714Y-117165476D01*
X172569333Y-117070238D01*
X172664571Y-116975000D01*
X172807429Y-116927381D01*
X172902667Y-116927381D01*
X173045524Y-116975000D01*
X173093143Y-117022619D01*
X174045524Y-117927381D02*
X173474095Y-117927381D01*
X173759809Y-117927381D02*
X173759809Y-116927381D01*
X173664571Y-117070238D01*
X173569333Y-117165476D01*
X173474095Y-117213095D01*
X174521714Y-117927381D02*
X174712190Y-117927381D01*
X174807429Y-117879762D01*
X174855048Y-117832143D01*
X174950286Y-117689286D01*
X174997905Y-117498810D01*
X174997905Y-117117857D01*
X174950286Y-117022619D01*
X174902667Y-116975000D01*
X174807429Y-116927381D01*
X174616952Y-116927381D01*
X174521714Y-116975000D01*
X174474095Y-117022619D01*
X174426476Y-117117857D01*
X174426476Y-117355952D01*
X174474095Y-117451190D01*
X174521714Y-117498810D01*
X174616952Y-117546429D01*
X174807429Y-117546429D01*
X174902667Y-117498810D01*
X174950286Y-117451190D01*
X174997905Y-117355952D01*
X159504143Y-126722143D02*
X159456524Y-126769762D01*
X159313667Y-126817381D01*
X159218429Y-126817381D01*
X159075571Y-126769762D01*
X158980333Y-126674524D01*
X158932714Y-126579286D01*
X158885095Y-126388810D01*
X158885095Y-126245952D01*
X158932714Y-126055476D01*
X158980333Y-125960238D01*
X159075571Y-125865000D01*
X159218429Y-125817381D01*
X159313667Y-125817381D01*
X159456524Y-125865000D01*
X159504143Y-125912619D01*
X159885095Y-125912619D02*
X159932714Y-125865000D01*
X160027952Y-125817381D01*
X160266048Y-125817381D01*
X160361286Y-125865000D01*
X160408905Y-125912619D01*
X160456524Y-126007857D01*
X160456524Y-126103095D01*
X160408905Y-126245952D01*
X159837476Y-126817381D01*
X160456524Y-126817381D01*
X161075571Y-125817381D02*
X161170810Y-125817381D01*
X161266048Y-125865000D01*
X161313667Y-125912619D01*
X161361286Y-126007857D01*
X161408905Y-126198333D01*
X161408905Y-126436429D01*
X161361286Y-126626905D01*
X161313667Y-126722143D01*
X161266048Y-126769762D01*
X161170810Y-126817381D01*
X161075571Y-126817381D01*
X160980333Y-126769762D01*
X160932714Y-126722143D01*
X160885095Y-126626905D01*
X160837476Y-126436429D01*
X160837476Y-126198333D01*
X160885095Y-126007857D01*
X160932714Y-125912619D01*
X160980333Y-125865000D01*
X161075571Y-125817381D01*
X172712143Y-131675143D02*
X172664524Y-131722762D01*
X172521667Y-131770381D01*
X172426429Y-131770381D01*
X172283571Y-131722762D01*
X172188333Y-131627524D01*
X172140714Y-131532286D01*
X172093095Y-131341810D01*
X172093095Y-131198952D01*
X172140714Y-131008476D01*
X172188333Y-130913238D01*
X172283571Y-130818000D01*
X172426429Y-130770381D01*
X172521667Y-130770381D01*
X172664524Y-130818000D01*
X172712143Y-130865619D01*
X173093095Y-130865619D02*
X173140714Y-130818000D01*
X173235952Y-130770381D01*
X173474048Y-130770381D01*
X173569286Y-130818000D01*
X173616905Y-130865619D01*
X173664524Y-130960857D01*
X173664524Y-131056095D01*
X173616905Y-131198952D01*
X173045476Y-131770381D01*
X173664524Y-131770381D01*
X174616905Y-131770381D02*
X174045476Y-131770381D01*
X174331190Y-131770381D02*
X174331190Y-130770381D01*
X174235952Y-130913238D01*
X174140714Y-131008476D01*
X174045476Y-131056095D01*
X172712143Y-127611143D02*
X172664524Y-127658762D01*
X172521667Y-127706381D01*
X172426429Y-127706381D01*
X172283571Y-127658762D01*
X172188333Y-127563524D01*
X172140714Y-127468286D01*
X172093095Y-127277810D01*
X172093095Y-127134952D01*
X172140714Y-126944476D01*
X172188333Y-126849238D01*
X172283571Y-126754000D01*
X172426429Y-126706381D01*
X172521667Y-126706381D01*
X172664524Y-126754000D01*
X172712143Y-126801619D01*
X173093095Y-126801619D02*
X173140714Y-126754000D01*
X173235952Y-126706381D01*
X173474048Y-126706381D01*
X173569286Y-126754000D01*
X173616905Y-126801619D01*
X173664524Y-126896857D01*
X173664524Y-126992095D01*
X173616905Y-127134952D01*
X173045476Y-127706381D01*
X173664524Y-127706381D01*
X174045476Y-126801619D02*
X174093095Y-126754000D01*
X174188333Y-126706381D01*
X174426429Y-126706381D01*
X174521667Y-126754000D01*
X174569286Y-126801619D01*
X174616905Y-126896857D01*
X174616905Y-126992095D01*
X174569286Y-127134952D01*
X173997857Y-127706381D01*
X174616905Y-127706381D01*
X125523667Y-90130381D02*
X125523667Y-90844667D01*
X125476047Y-90987524D01*
X125380809Y-91082762D01*
X125237952Y-91130381D01*
X125142714Y-91130381D01*
X125952238Y-90225619D02*
X125999857Y-90178000D01*
X126095095Y-90130381D01*
X126333191Y-90130381D01*
X126428429Y-90178000D01*
X126476048Y-90225619D01*
X126523667Y-90320857D01*
X126523667Y-90416095D01*
X126476048Y-90558952D01*
X125904619Y-91130381D01*
X126523667Y-91130381D01*
X125650667Y-94956381D02*
X125650667Y-95670667D01*
X125603047Y-95813524D01*
X125507809Y-95908762D01*
X125364952Y-95956381D01*
X125269714Y-95956381D01*
X126031619Y-94956381D02*
X126650667Y-94956381D01*
X126317333Y-95337333D01*
X126460191Y-95337333D01*
X126555429Y-95384952D01*
X126603048Y-95432571D01*
X126650667Y-95527810D01*
X126650667Y-95765905D01*
X126603048Y-95861143D01*
X126555429Y-95908762D01*
X126460191Y-95956381D01*
X126174476Y-95956381D01*
X126079238Y-95908762D01*
X126031619Y-95861143D01*
X155114667Y-124062381D02*
X155114667Y-124776667D01*
X155067047Y-124919524D01*
X154971809Y-125014762D01*
X154828952Y-125062381D01*
X154733714Y-125062381D01*
X156019429Y-124062381D02*
X155828952Y-124062381D01*
X155733714Y-124110000D01*
X155686095Y-124157619D01*
X155590857Y-124300476D01*
X155543238Y-124490952D01*
X155543238Y-124871905D01*
X155590857Y-124967143D01*
X155638476Y-125014762D01*
X155733714Y-125062381D01*
X155924191Y-125062381D01*
X156019429Y-125014762D01*
X156067048Y-124967143D01*
X156114667Y-124871905D01*
X156114667Y-124633810D01*
X156067048Y-124538571D01*
X156019429Y-124490952D01*
X155924191Y-124443333D01*
X155733714Y-124443333D01*
X155638476Y-124490952D01*
X155590857Y-124538571D01*
X155543238Y-124633810D01*
X155114667Y-113902381D02*
X155114667Y-114616667D01*
X155067047Y-114759524D01*
X154971809Y-114854762D01*
X154828952Y-114902381D01*
X154733714Y-114902381D01*
X155495619Y-113902381D02*
X156162286Y-113902381D01*
X155733714Y-114902381D01*
X152574667Y-124062381D02*
X152574667Y-124776667D01*
X152527047Y-124919524D01*
X152431809Y-125014762D01*
X152288952Y-125062381D01*
X152193714Y-125062381D01*
X153193714Y-124490952D02*
X153098476Y-124443333D01*
X153050857Y-124395714D01*
X153003238Y-124300476D01*
X153003238Y-124252857D01*
X153050857Y-124157619D01*
X153098476Y-124110000D01*
X153193714Y-124062381D01*
X153384191Y-124062381D01*
X153479429Y-124110000D01*
X153527048Y-124157619D01*
X153574667Y-124252857D01*
X153574667Y-124300476D01*
X153527048Y-124395714D01*
X153479429Y-124443333D01*
X153384191Y-124490952D01*
X153193714Y-124490952D01*
X153098476Y-124538571D01*
X153050857Y-124586190D01*
X153003238Y-124681429D01*
X153003238Y-124871905D01*
X153050857Y-124967143D01*
X153098476Y-125014762D01*
X153193714Y-125062381D01*
X153384191Y-125062381D01*
X153479429Y-125014762D01*
X153527048Y-124967143D01*
X153574667Y-124871905D01*
X153574667Y-124681429D01*
X153527048Y-124586190D01*
X153479429Y-124538571D01*
X153384191Y-124490952D01*
X152574667Y-113902381D02*
X152574667Y-114616667D01*
X152527047Y-114759524D01*
X152431809Y-114854762D01*
X152288952Y-114902381D01*
X152193714Y-114902381D01*
X153098476Y-114902381D02*
X153288952Y-114902381D01*
X153384191Y-114854762D01*
X153431810Y-114807143D01*
X153527048Y-114664286D01*
X153574667Y-114473810D01*
X153574667Y-114092857D01*
X153527048Y-113997619D01*
X153479429Y-113950000D01*
X153384191Y-113902381D01*
X153193714Y-113902381D01*
X153098476Y-113950000D01*
X153050857Y-113997619D01*
X153003238Y-114092857D01*
X153003238Y-114330952D01*
X153050857Y-114426190D01*
X153098476Y-114473810D01*
X153193714Y-114521429D01*
X153384191Y-114521429D01*
X153479429Y-114473810D01*
X153527048Y-114426190D01*
X153574667Y-114330952D01*
X111085334Y-132532381D02*
X110752000Y-132056190D01*
X110513905Y-132532381D02*
X110513905Y-131532381D01*
X110894858Y-131532381D01*
X110990096Y-131580000D01*
X111037715Y-131627619D01*
X111085334Y-131722857D01*
X111085334Y-131865714D01*
X111037715Y-131960952D01*
X110990096Y-132008571D01*
X110894858Y-132056190D01*
X110513905Y-132056190D01*
X111942477Y-131532381D02*
X111752000Y-131532381D01*
X111656762Y-131580000D01*
X111609143Y-131627619D01*
X111513905Y-131770476D01*
X111466286Y-131960952D01*
X111466286Y-132341905D01*
X111513905Y-132437143D01*
X111561524Y-132484762D01*
X111656762Y-132532381D01*
X111847239Y-132532381D01*
X111942477Y-132484762D01*
X111990096Y-132437143D01*
X112037715Y-132341905D01*
X112037715Y-132103810D01*
X111990096Y-132008571D01*
X111942477Y-131960952D01*
X111847239Y-131913333D01*
X111656762Y-131913333D01*
X111561524Y-131960952D01*
X111513905Y-132008571D01*
X111466286Y-132103810D01*
X149725143Y-108148381D02*
X149391809Y-107672190D01*
X149153714Y-108148381D02*
X149153714Y-107148381D01*
X149534667Y-107148381D01*
X149629905Y-107196000D01*
X149677524Y-107243619D01*
X149725143Y-107338857D01*
X149725143Y-107481714D01*
X149677524Y-107576952D01*
X149629905Y-107624571D01*
X149534667Y-107672190D01*
X149153714Y-107672190D01*
X150677524Y-108148381D02*
X150106095Y-108148381D01*
X150391809Y-108148381D02*
X150391809Y-107148381D01*
X150296571Y-107291238D01*
X150201333Y-107386476D01*
X150106095Y-107434095D01*
X151629905Y-108148381D02*
X151058476Y-108148381D01*
X151344190Y-108148381D02*
X151344190Y-107148381D01*
X151248952Y-107291238D01*
X151153714Y-107386476D01*
X151058476Y-107434095D01*
X166116095Y-114133381D02*
X166116095Y-114942905D01*
X166163714Y-115038143D01*
X166211333Y-115085762D01*
X166306571Y-115133381D01*
X166497048Y-115133381D01*
X166592286Y-115085762D01*
X166639905Y-115038143D01*
X166687524Y-114942905D01*
X166687524Y-114133381D01*
X167592286Y-114466714D02*
X167592286Y-115133381D01*
X167354190Y-114085762D02*
X167116095Y-114800048D01*
X167735143Y-114800048D01*
X166243095Y-124420381D02*
X166243095Y-125229905D01*
X166290714Y-125325143D01*
X166338333Y-125372762D01*
X166433571Y-125420381D01*
X166624048Y-125420381D01*
X166719286Y-125372762D01*
X166766905Y-125325143D01*
X166814524Y-125229905D01*
X166814524Y-124420381D01*
X167766905Y-124420381D02*
X167290714Y-124420381D01*
X167243095Y-124896571D01*
X167290714Y-124848952D01*
X167385952Y-124801333D01*
X167624048Y-124801333D01*
X167719286Y-124848952D01*
X167766905Y-124896571D01*
X167814524Y-124991810D01*
X167814524Y-125229905D01*
X167766905Y-125325143D01*
X167719286Y-125372762D01*
X167624048Y-125420381D01*
X167385952Y-125420381D01*
X167290714Y-125372762D01*
X167243095Y-125325143D01*
X179054333Y-99385381D02*
X179054333Y-98385381D01*
X179292428Y-98385381D01*
X179435286Y-98433000D01*
X179530524Y-98528238D01*
X179578143Y-98623476D01*
X179625762Y-98813952D01*
X179625762Y-98956810D01*
X179578143Y-99147286D01*
X179530524Y-99242524D01*
X179435286Y-99337762D01*
X179292428Y-99385381D01*
X179054333Y-99385381D01*
X180006714Y-99099667D02*
X180482905Y-99099667D01*
X179911476Y-99385381D02*
X180244809Y-98385381D01*
X180578143Y-99385381D01*
X181482905Y-99290143D02*
X181435286Y-99337762D01*
X181292429Y-99385381D01*
X181197191Y-99385381D01*
X181054333Y-99337762D01*
X180959095Y-99242524D01*
X180911476Y-99147286D01*
X180863857Y-98956810D01*
X180863857Y-98813952D01*
X180911476Y-98623476D01*
X180959095Y-98528238D01*
X181054333Y-98433000D01*
X181197191Y-98385381D01*
X181292429Y-98385381D01*
X181435286Y-98433000D01*
X181482905Y-98480619D01*
X182435286Y-99385381D02*
X181863857Y-99385381D01*
X182149571Y-99385381D02*
X182149571Y-98385381D01*
X182054333Y-98528238D01*
X181959095Y-98623476D01*
X181863857Y-98671095D01*
M02*
