solid OpenSCAD_Model
  facet normal -1 0 0
    outer loop
      vertex 0 0 20
      vertex 0 5 175
      vertex 0 5 20
    endloop
  endfacet
  facet normal -1 -0 0
    outer loop
      vertex 0 5 175
      vertex 0 0 20
      vertex 0 0 175
    endloop
  endfacet
  facet normal -0 0 1
    outer loop
      vertex 0 5 175
      vertex 15 0 175
      vertex 15 5 175
    endloop
  endfacet
  facet normal 0 0 1
    outer loop
      vertex 15 0 175
      vertex 0 5 175
      vertex 0 0 175
    endloop
  endfacet
  facet normal 1 0 0
    outer loop
      vertex 15 3.68882 166.364
      vertex 15 3.23473 27.7613
      vertex 15 3.68882 26.3637
    endloop
  endfacet
  facet normal 1 -0 0
    outer loop
      vertex 15 2.5 165.5
      vertex 15 3.23473 27.7613
      vertex 15 3.68882 166.364
    endloop
  endfacet
  facet normal 1 0 0
    outer loop
      vertex 15 2.5 165.5
      vertex 15 1.76527 27.7613
      vertex 15 3.23473 27.7613
    endloop
  endfacet
  facet normal 1 0 0
    outer loop
      vertex 15 1.31118 166.364
      vertex 15 1.76527 27.7613
      vertex 15 2.5 165.5
    endloop
  endfacet
  facet normal 1 0 0
    outer loop
      vertex 15 1.76527 27.7613
      vertex 15 1.31118 166.364
      vertex 15 1.31118 26.3637
    endloop
  endfacet
  facet normal 1 0 0
    outer loop
      vertex 15 5 175
      vertex 15 3.68882 166.364
      vertex 15 5 20
    endloop
  endfacet
  facet normal 1 0 0
    outer loop
      vertex 15 5 175
      vertex 15 3.23473 167.761
      vertex 15 3.68882 166.364
    endloop
  endfacet
  facet normal 1 0 0
    outer loop
      vertex 15 5 175
      vertex 15 1.76527 167.761
      vertex 15 3.23473 167.761
    endloop
  endfacet
  facet normal 1 0 0
    outer loop
      vertex 15 0 20
      vertex 15 1.31118 166.364
      vertex 15 0 175
    endloop
  endfacet
  facet normal 1 0 0
    outer loop
      vertex 15 1.76527 167.761
      vertex 15 0 175
      vertex 15 1.31118 166.364
    endloop
  endfacet
  facet normal 1 -0 0
    outer loop
      vertex 15 0 175
      vertex 15 1.76527 167.761
      vertex 15 5 175
    endloop
  endfacet
  facet normal 1 -0 0
    outer loop
      vertex 15 3.68882 26.3637
      vertex 15 5 20
      vertex 15 3.68882 166.364
    endloop
  endfacet
  facet normal 1 -0 0
    outer loop
      vertex 15 2.5 25.5
      vertex 15 5 20
      vertex 15 3.68882 26.3637
    endloop
  endfacet
  facet normal 1 0 0
    outer loop
      vertex 15 0 20
      vertex 15 2.5 25.5
      vertex 15 1.31118 26.3637
    endloop
  endfacet
  facet normal 1 0 0
    outer loop
      vertex 15 2.5 25.5
      vertex 15 0 20
      vertex 15 5 20
    endloop
  endfacet
  facet normal 1 0 0
    outer loop
      vertex 15 1.31118 166.364
      vertex 15 0 20
      vertex 15 1.31118 26.3637
    endloop
  endfacet
  facet normal 0 1 -0
    outer loop
      vertex 17.537 5 11.1472
      vertex 15 5 20
      vertex 30 5 20
    endloop
  endfacet
  facet normal 0 1 0
    outer loop
      vertex 15 5 20
      vertex 9.06793 5 14.9178
      vertex 0 5 20
    endloop
  endfacet
  facet normal 0 1 -0
    outer loop
      vertex 5.93207 5 14.9178
      vertex 0 5 20
      vertex 9.06793 5 14.9178
    endloop
  endfacet
  facet normal 0 1 0
    outer loop
      vertex 15 5 20
      vertex 12.1353 5 14.2658
      vertex 9.06793 5 14.9178
    endloop
  endfacet
  facet normal 0 1 0
    outer loop
      vertex 15 5 20
      vertex 15 5 12.9904
      vertex 12.1353 5 14.2658
    endloop
  endfacet
  facet normal 0 1 0
    outer loop
      vertex 15 5 20
      vertex 17.537 5 11.1472
      vertex 15 5 12.9904
    endloop
  endfacet
  facet normal 0 1 0
    outer loop
      vertex 30 5 20
      vertex 19.6353 5 8.81678
      vertex 17.537 5 11.1472
    endloop
  endfacet
  facet normal 0 1 0
    outer loop
      vertex 30 5 20
      vertex 21.2032 5 6.10105
      vertex 19.6353 5 8.81678
    endloop
  endfacet
  facet normal 0 1 -0
    outer loop
      vertex 30 5 0
      vertex 21.2032 5 6.10105
      vertex 30 5 20
    endloop
  endfacet
  facet normal 0 1 0
    outer loop
      vertex 21.2032 5 6.10105
      vertex 30 5 0
      vertex 22.1722 5 3.11868
    endloop
  endfacet
  facet normal 0 1 0
    outer loop
      vertex 22.1722 5 3.11868
      vertex 30 5 0
      vertex 22.5 5 0
    endloop
  endfacet
  facet normal 0 1 -0
    outer loop
      vertex 2.86474 5 14.2658
      vertex 0 5 20
      vertex 5.93207 5 14.9178
    endloop
  endfacet
  facet normal 0 1 0
    outer loop
      vertex 0 5 12.9904
      vertex 0 5 20
      vertex 2.86474 5 14.2658
    endloop
  endfacet
  facet normal 0 1 0
    outer loop
      vertex -2.53696 5 11.1472
      vertex 0 5 20
      vertex 0 5 12.9904
    endloop
  endfacet
  facet normal 0 1 0
    outer loop
      vertex 0 5 20
      vertex -2.53696 5 11.1472
      vertex -15 5 20
    endloop
  endfacet
  facet normal 0 1 -0
    outer loop
      vertex -4.63525 5 8.81678
      vertex -15 5 20
      vertex -2.53696 5 11.1472
    endloop
  endfacet
  facet normal 0 1 -0
    outer loop
      vertex -6.20318 5 6.10105
      vertex -15 5 20
      vertex -4.63525 5 8.81678
    endloop
  endfacet
  facet normal 0 1 0
    outer loop
      vertex -15 5 0
      vertex -6.20318 5 6.10105
      vertex -7.17221 5 3.11868
    endloop
  endfacet
  facet normal 0 1 0
    outer loop
      vertex -15 5 0
      vertex -7.17221 5 3.11868
      vertex -7.5 5 0
    endloop
  endfacet
  facet normal 0 1 0
    outer loop
      vertex -6.20318 5 6.10105
      vertex -15 5 0
      vertex -15 5 20
    endloop
  endfacet
  facet normal 0 1 0
    outer loop
      vertex 15 5 175
      vertex 10.25 5 172
      vertex 0 5 175
    endloop
  endfacet
  facet normal 0 1 0
    outer loop
      vertex 15 5 175
      vertex 10.25 5 161.5
      vertex 10.25 5 172
    endloop
  endfacet
  facet normal 0 1 0
    outer loop
      vertex 10.25 5 161.5
      vertex 10.25 5 32
      vertex 4.75 5 161.5
    endloop
  endfacet
  facet normal 0 1 -0
    outer loop
      vertex 15 5 20
      vertex 10.25 5 161.5
      vertex 15 5 175
    endloop
  endfacet
  facet normal 0 1 0
    outer loop
      vertex 10.25 5 161.5
      vertex 15 5 20
      vertex 10.25 5 32
    endloop
  endfacet
  facet normal 0 1 0
    outer loop
      vertex 10.25 5 21.5
      vertex 15 5 20
      vertex 4.75 5 21.5
    endloop
  endfacet
  facet normal 0 1 0
    outer loop
      vertex 10.25 5 32
      vertex 15 5 20
      vertex 10.25 5 21.5
    endloop
  endfacet
  facet normal 0 1 -0
    outer loop
      vertex 4.75 5 172
      vertex 0 5 175
      vertex 10.25 5 172
    endloop
  endfacet
  facet normal 0 1 -0
    outer loop
      vertex 4.75 5 161.5
      vertex 0 5 175
      vertex 4.75 5 172
    endloop
  endfacet
  facet normal 0 1 0
    outer loop
      vertex 4.75 5 32
      vertex 4.75 5 161.5
      vertex 10.25 5 32
    endloop
  endfacet
  facet normal 0 1 0
    outer loop
      vertex 0 5 20
      vertex 4.75 5 161.5
      vertex 4.75 5 32
    endloop
  endfacet
  facet normal 0 1 0
    outer loop
      vertex 0 5 20
      vertex 4.75 5 32
      vertex 4.75 5 21.5
    endloop
  endfacet
  facet normal 0 1 0
    outer loop
      vertex 4.75 5 161.5
      vertex 0 5 20
      vertex 0 5 175
    endloop
  endfacet
  facet normal 0 1 0
    outer loop
      vertex 0 5 20
      vertex 4.75 5 21.5
      vertex 15 5 20
    endloop
  endfacet
  facet normal 0 0 -1
    outer loop
      vertex -15 0 0
      vertex -7.5 5 0
      vertex -7.5 0 0
    endloop
  endfacet
  facet normal -0 0 -1
    outer loop
      vertex -7.5 5 0
      vertex -15 0 0
      vertex -15 5 0
    endloop
  endfacet
  facet normal 0 0 -1
    outer loop
      vertex 22.5 0 0
      vertex 30 5 0
      vertex 30 0 0
    endloop
  endfacet
  facet normal -0 0 -1
    outer loop
      vertex 30 5 0
      vertex 22.5 0 0
      vertex 22.5 5 0
    endloop
  endfacet
  facet normal 0 -1 0
    outer loop
      vertex -2.53696 0 11.1472
      vertex 0 0 20
      vertex -15 0 20
    endloop
  endfacet
  facet normal 0 -1 0
    outer loop
      vertex 0 0 20
      vertex 5.93207 0 14.9178
      vertex 15 0 20
    endloop
  endfacet
  facet normal 0 -1 0
    outer loop
      vertex 9.06793 0 14.9178
      vertex 15 0 20
      vertex 5.93207 0 14.9178
    endloop
  endfacet
  facet normal 0 -1 0
    outer loop
      vertex 0 0 20
      vertex 2.86474 0 14.2658
      vertex 5.93207 0 14.9178
    endloop
  endfacet
  facet normal 0 -1 0
    outer loop
      vertex 0 0 20
      vertex 0 0 12.9904
      vertex 2.86474 0 14.2658
    endloop
  endfacet
  facet normal 0 -1 -0
    outer loop
      vertex 0 0 20
      vertex -2.53696 0 11.1472
      vertex 0 0 12.9904
    endloop
  endfacet
  facet normal 0 -1 0
    outer loop
      vertex -15 0 20
      vertex -4.63525 0 8.81678
      vertex -2.53696 0 11.1472
    endloop
  endfacet
  facet normal 0 -1 0
    outer loop
      vertex -15 0 20
      vertex -6.20318 0 6.10105
      vertex -4.63525 0 8.81678
    endloop
  endfacet
  facet normal 0 -1 0
    outer loop
      vertex -15 0 0
      vertex -6.20318 0 6.10105
      vertex -15 0 20
    endloop
  endfacet
  facet normal 0 -1 0
    outer loop
      vertex -6.20318 0 6.10105
      vertex -15 0 0
      vertex -7.17221 0 3.11868
    endloop
  endfacet
  facet normal 0 -1 0
    outer loop
      vertex -7.17221 0 3.11868
      vertex -15 0 0
      vertex -7.5 0 0
    endloop
  endfacet
  facet normal 0 -1 0
    outer loop
      vertex 12.1353 0 14.2658
      vertex 15 0 20
      vertex 9.06793 0 14.9178
    endloop
  endfacet
  facet normal 0 -1 0
    outer loop
      vertex 15 0 12.9904
      vertex 15 0 20
      vertex 12.1353 0 14.2658
    endloop
  endfacet
  facet normal 0 -1 0
    outer loop
      vertex 17.537 0 11.1472
      vertex 15 0 20
      vertex 15 0 12.9904
    endloop
  endfacet
  facet normal 0 -1 0
    outer loop
      vertex 15 0 20
      vertex 17.537 0 11.1472
      vertex 30 0 20
    endloop
  endfacet
  facet normal 0 -1 0
    outer loop
      vertex 19.6353 0 8.81678
      vertex 30 0 20
      vertex 17.537 0 11.1472
    endloop
  endfacet
  facet normal 0 -1 0
    outer loop
      vertex 21.2032 0 6.10105
      vertex 30 0 20
      vertex 19.6353 0 8.81678
    endloop
  endfacet
  facet normal 0 -1 0
    outer loop
      vertex 30 0 0
      vertex 21.2032 0 6.10105
      vertex 22.1722 0 3.11868
    endloop
  endfacet
  facet normal 0 -1 0
    outer loop
      vertex 30 0 0
      vertex 22.1722 0 3.11868
      vertex 22.5 0 0
    endloop
  endfacet
  facet normal 0 -1 0
    outer loop
      vertex 21.2032 0 6.10105
      vertex 30 0 0
      vertex 30 0 20
    endloop
  endfacet
  facet normal 0 -1 0
    outer loop
      vertex 0 0 175
      vertex 4.75 0 172
      vertex 15 0 175
    endloop
  endfacet
  facet normal 0 -1 0
    outer loop
      vertex 0 0 175
      vertex 4.75 0 161.5
      vertex 4.75 0 172
    endloop
  endfacet
  facet normal 0 -1 0
    outer loop
      vertex 4.75 0 161.5
      vertex 6.5 0 158.5
      vertex 10.25 0 161.5
    endloop
  endfacet
  facet normal 0 -1 0
    outer loop
      vertex 4.75 0 161.5
      vertex 6.5 0 38.5
      vertex 6.5 0 158.5
    endloop
  endfacet
  facet normal 0 -1 0
    outer loop
      vertex 0 0 20
      vertex 4.75 0 161.5
      vertex 0 0 175
    endloop
  endfacet
  facet normal 0 -1 -0
    outer loop
      vertex 6.5 0 38.5
      vertex 4.75 0 32
      vertex 8.5 0 38.5
    endloop
  endfacet
  facet normal 0 -1 -0
    outer loop
      vertex 4.75 0 161.5
      vertex 0 0 20
      vertex 6.5 0 38.5
    endloop
  endfacet
  facet normal 0 -1 0
    outer loop
      vertex 6.5 0 38.5
      vertex 0 0 20
      vertex 4.75 0 32
    endloop
  endfacet
  facet normal 0 -1 -0
    outer loop
      vertex 4.75 0 21.5
      vertex 0 0 20
      vertex 10.25 0 21.5
    endloop
  endfacet
  facet normal 0 -1 -0
    outer loop
      vertex 4.75 0 32
      vertex 0 0 20
      vertex 4.75 0 21.5
    endloop
  endfacet
  facet normal 0 -1 0
    outer loop
      vertex 10.25 0 172
      vertex 15 0 175
      vertex 4.75 0 172
    endloop
  endfacet
  facet normal 0 -1 0
    outer loop
      vertex 10.25 0 161.5
      vertex 15 0 175
      vertex 10.25 0 172
    endloop
  endfacet
  facet normal 0 -1 0
    outer loop
      vertex 8.5 0 158.5
      vertex 10.25 0 161.5
      vertex 6.5 0 158.5
    endloop
  endfacet
  facet normal 0 -1 0
    outer loop
      vertex 8.5 0 38.5
      vertex 10.25 0 161.5
      vertex 8.5 0 158.5
    endloop
  endfacet
  facet normal 0 -1 0
    outer loop
      vertex 15 0 20
      vertex 10.25 0 161.5
      vertex 8.5 0 38.5
    endloop
  endfacet
  facet normal 0 -1 0
    outer loop
      vertex 10.25 0 32
      vertex 8.5 0 38.5
      vertex 4.75 0 32
    endloop
  endfacet
  facet normal 0 -1 0
    outer loop
      vertex 15 0 20
      vertex 8.5 0 38.5
      vertex 10.25 0 32
    endloop
  endfacet
  facet normal 0 -1 0
    outer loop
      vertex 15 0 20
      vertex 10.25 0 32
      vertex 10.25 0 21.5
    endloop
  endfacet
  facet normal 0 -1 0
    outer loop
      vertex 10.25 0 161.5
      vertex 15 0 20
      vertex 15 0 175
    endloop
  endfacet
  facet normal 0 -1 0
    outer loop
      vertex 15 0 20
      vertex 10.25 0 21.5
      vertex 0 0 20
    endloop
  endfacet
  facet normal -0 0 1
    outer loop
      vertex 15 5 20
      vertex 30 0 20
      vertex 30 5 20
    endloop
  endfacet
  facet normal 0 0 1
    outer loop
      vertex 30 0 20
      vertex 15 5 20
      vertex 15 0 20
    endloop
  endfacet
  facet normal 1 -0 0
    outer loop
      vertex 30 0 20
      vertex 30 5 0
      vertex 30 5 20
    endloop
  endfacet
  facet normal 1 0 0
    outer loop
      vertex 30 5 0
      vertex 30 0 20
      vertex 30 0 0
    endloop
  endfacet
  facet normal -1 0 0
    outer loop
      vertex -15 0 0
      vertex -15 5 20
      vertex -15 5 0
    endloop
  endfacet
  facet normal -1 -0 0
    outer loop
      vertex -15 5 20
      vertex -15 0 0
      vertex -15 0 20
    endloop
  endfacet
  facet normal -0 0 1
    outer loop
      vertex -15 5 20
      vertex 0 0 20
      vertex 0 5 20
    endloop
  endfacet
  facet normal 0 0 1
    outer loop
      vertex 0 0 20
      vertex -15 5 20
      vertex -15 0 20
    endloop
  endfacet
  facet normal -0.994522 0 -0.104528
    outer loop
      vertex 22.5 0 0
      vertex 22.1722 5 3.11868
      vertex 22.5 5 0
    endloop
  endfacet
  facet normal -0.994522 -0 -0.104528
    outer loop
      vertex 22.1722 5 3.11868
      vertex 22.5 0 0
      vertex 22.1722 0 3.11868
    endloop
  endfacet
  facet normal -0.951057 0 -0.309017
    outer loop
      vertex 22.1722 0 3.11868
      vertex 21.2032 5 6.10105
      vertex 22.1722 5 3.11868
    endloop
  endfacet
  facet normal -0.951057 -0 -0.309017
    outer loop
      vertex 21.2032 5 6.10105
      vertex 22.1722 0 3.11868
      vertex 21.2032 0 6.10105
    endloop
  endfacet
  facet normal 0.994522 0 -0.104529
    outer loop
      vertex -7.17221 0 3.11868
      vertex -7.5 5 0
      vertex -7.17221 5 3.11868
    endloop
  endfacet
  facet normal 0.994522 0 -0.104529
    outer loop
      vertex -7.5 5 0
      vertex -7.17221 0 3.11868
      vertex -7.5 0 0
    endloop
  endfacet
  facet normal 0 0 -1
    outer loop
      vertex 5.93207 0 14.9178
      vertex 9.06793 5 14.9178
      vertex 9.06793 0 14.9178
    endloop
  endfacet
  facet normal -0 0 -1
    outer loop
      vertex 9.06793 5 14.9178
      vertex 5.93207 0 14.9178
      vertex 5.93207 5 14.9178
    endloop
  endfacet
  facet normal -0.587785 0 -0.809017
    outer loop
      vertex 15 0 12.9904
      vertex 17.537 5 11.1472
      vertex 17.537 0 11.1472
    endloop
  endfacet
  facet normal -0.587785 0 -0.809017
    outer loop
      vertex 17.537 5 11.1472
      vertex 15 0 12.9904
      vertex 15 5 12.9904
    endloop
  endfacet
  facet normal -0.866025 0 -0.5
    outer loop
      vertex 21.2032 0 6.10105
      vertex 19.6353 5 8.81678
      vertex 21.2032 5 6.10105
    endloop
  endfacet
  facet normal -0.866025 -0 -0.5
    outer loop
      vertex 19.6353 5 8.81678
      vertex 21.2032 0 6.10105
      vertex 19.6353 0 8.81678
    endloop
  endfacet
  facet normal 0.743145 0 -0.669131
    outer loop
      vertex -2.53696 0 11.1472
      vertex -4.63525 5 8.81678
      vertex -2.53696 5 11.1472
    endloop
  endfacet
  facet normal 0.743145 0 -0.669131
    outer loop
      vertex -4.63525 5 8.81678
      vertex -2.53696 0 11.1472
      vertex -4.63525 0 8.81678
    endloop
  endfacet
  facet normal 0.406737 0 -0.913545
    outer loop
      vertex 0 0 12.9904
      vertex 2.86474 5 14.2658
      vertex 2.86474 0 14.2658
    endloop
  endfacet
  facet normal 0.406737 0 -0.913545
    outer loop
      vertex 2.86474 5 14.2658
      vertex 0 0 12.9904
      vertex 0 5 12.9904
    endloop
  endfacet
  facet normal -0.743145 0 -0.66913
    outer loop
      vertex 19.6353 0 8.81678
      vertex 17.537 5 11.1472
      vertex 19.6353 5 8.81678
    endloop
  endfacet
  facet normal -0.743145 -0 -0.66913
    outer loop
      vertex 17.537 5 11.1472
      vertex 19.6353 0 8.81678
      vertex 17.537 0 11.1472
    endloop
  endfacet
  facet normal -0.406737 0 -0.913545
    outer loop
      vertex 12.1353 0 14.2658
      vertex 15 5 12.9904
      vertex 15 0 12.9904
    endloop
  endfacet
  facet normal -0.406737 0 -0.913545
    outer loop
      vertex 15 5 12.9904
      vertex 12.1353 0 14.2658
      vertex 12.1353 5 14.2658
    endloop
  endfacet
  facet normal -0.207912 0 -0.978148
    outer loop
      vertex 9.06793 0 14.9178
      vertex 12.1353 5 14.2658
      vertex 12.1353 0 14.2658
    endloop
  endfacet
  facet normal -0.207912 0 -0.978148
    outer loop
      vertex 12.1353 5 14.2658
      vertex 9.06793 0 14.9178
      vertex 9.06793 5 14.9178
    endloop
  endfacet
  facet normal 0.587785 0 -0.809017
    outer loop
      vertex -2.53696 0 11.1472
      vertex 0 5 12.9904
      vertex 0 0 12.9904
    endloop
  endfacet
  facet normal 0.587785 0 -0.809017
    outer loop
      vertex 0 5 12.9904
      vertex -2.53696 0 11.1472
      vertex -2.53696 5 11.1472
    endloop
  endfacet
  facet normal 0.866025 0 -0.5
    outer loop
      vertex -4.63525 0 8.81678
      vertex -6.20318 5 6.10105
      vertex -4.63525 5 8.81678
    endloop
  endfacet
  facet normal 0.866025 0 -0.5
    outer loop
      vertex -6.20318 5 6.10105
      vertex -4.63525 0 8.81678
      vertex -6.20318 0 6.10105
    endloop
  endfacet
  facet normal 0.951057 0 -0.309017
    outer loop
      vertex -6.20318 0 6.10105
      vertex -7.17221 5 3.11868
      vertex -6.20318 5 6.10105
    endloop
  endfacet
  facet normal 0.951057 0 -0.309017
    outer loop
      vertex -7.17221 5 3.11868
      vertex -6.20318 0 6.10105
      vertex -7.17221 0 3.11868
    endloop
  endfacet
  facet normal 0.207912 0 -0.978148
    outer loop
      vertex 2.86474 0 14.2658
      vertex 5.93207 5 14.9178
      vertex 5.93207 0 14.9178
    endloop
  endfacet
  facet normal 0.207912 0 -0.978148
    outer loop
      vertex 5.93207 5 14.9178
      vertex 2.86474 0 14.2658
      vertex 2.86474 5 14.2658
    endloop
  endfacet
  facet normal 1 -0 0
    outer loop
      vertex 6.5 0 158.5
      vertex 6.5 2 38.5
      vertex 6.5 2 158.5
    endloop
  endfacet
  facet normal 1 0 0
    outer loop
      vertex 6.5 2 38.5
      vertex 6.5 0 158.5
      vertex 6.5 0 38.5
    endloop
  endfacet
  facet normal 0 0 -1
    outer loop
      vertex 6.5 0 158.5
      vertex 8.5 2 158.5
      vertex 8.5 0 158.5
    endloop
  endfacet
  facet normal -0 0 -1
    outer loop
      vertex 8.5 2 158.5
      vertex 6.5 0 158.5
      vertex 6.5 2 158.5
    endloop
  endfacet
  facet normal -1 0 0
    outer loop
      vertex 8.5 0 38.5
      vertex 8.5 2 158.5
      vertex 8.5 2 38.5
    endloop
  endfacet
  facet normal -1 -0 0
    outer loop
      vertex 8.5 2 158.5
      vertex 8.5 0 38.5
      vertex 8.5 0 158.5
    endloop
  endfacet
  facet normal 0 -1 0
    outer loop
      vertex 6.5 2 38.5
      vertex 8.5 2 158.5
      vertex 6.5 2 158.5
    endloop
  endfacet
  facet normal 0 -1 -0
    outer loop
      vertex 8.5 2 158.5
      vertex 6.5 2 38.5
      vertex 8.5 2 38.5
    endloop
  endfacet
  facet normal -0 0 1
    outer loop
      vertex 6.5 2 38.5
      vertex 8.5 0 38.5
      vertex 8.5 2 38.5
    endloop
  endfacet
  facet normal 0 0 1
    outer loop
      vertex 8.5 0 38.5
      vertex 6.5 2 38.5
      vertex 6.5 0 38.5
    endloop
  endfacet
  facet normal 1 -0 0
    outer loop
      vertex 4.75 0 32
      vertex 4.75 5 21.5
      vertex 4.75 5 32
    endloop
  endfacet
  facet normal 1 0 0
    outer loop
      vertex 4.75 5 21.5
      vertex 4.75 0 32
      vertex 4.75 0 21.5
    endloop
  endfacet
  facet normal 0 0 -1
    outer loop
      vertex 4.75 0 32
      vertex 10.25 5 32
      vertex 10.25 0 32
    endloop
  endfacet
  facet normal -0 0 -1
    outer loop
      vertex 10.25 5 32
      vertex 4.75 0 32
      vertex 4.75 5 32
    endloop
  endfacet
  facet normal -1 0 0
    outer loop
      vertex 10.25 5 21.5
      vertex 10.25 3.68882 26.3637
      vertex 10.25 5 32
    endloop
  endfacet
  facet normal -1 0 0
    outer loop
      vertex 10.25 5 21.5
      vertex 10.25 2.5 25.5
      vertex 10.25 3.68882 26.3637
    endloop
  endfacet
  facet normal -1 0 0
    outer loop
      vertex 10.25 0 21.5
      vertex 10.25 2.5 25.5
      vertex 10.25 5 21.5
    endloop
  endfacet
  facet normal -1 -0 0
    outer loop
      vertex 10.25 2.5 25.5
      vertex 10.25 0 21.5
      vertex 10.25 1.31118 26.3637
    endloop
  endfacet
  facet normal -1 0 0
    outer loop
      vertex 10.25 3.23473 27.7613
      vertex 10.25 5 32
      vertex 10.25 3.68882 26.3637
    endloop
  endfacet
  facet normal -1 0 0
    outer loop
      vertex 10.25 1.76527 27.7613
      vertex 10.25 5 32
      vertex 10.25 3.23473 27.7613
    endloop
  endfacet
  facet normal -1 0 0
    outer loop
      vertex 10.25 1.76527 27.7613
      vertex 10.25 0 32
      vertex 10.25 5 32
    endloop
  endfacet
  facet normal -1 0 0
    outer loop
      vertex 10.25 1.31118 26.3637
      vertex 10.25 0 32
      vertex 10.25 1.76527 27.7613
    endloop
  endfacet
  facet normal -1 0 0
    outer loop
      vertex 10.25 0 32
      vertex 10.25 1.31118 26.3637
      vertex 10.25 0 21.5
    endloop
  endfacet
  facet normal -0 0 1
    outer loop
      vertex 4.75 5 21.5
      vertex 10.25 0 21.5
      vertex 10.25 5 21.5
    endloop
  endfacet
  facet normal 0 0 1
    outer loop
      vertex 10.25 0 21.5
      vertex 4.75 5 21.5
      vertex 4.75 0 21.5
    endloop
  endfacet
  facet normal 1 -0 0
    outer loop
      vertex 4.75 0 172
      vertex 4.75 5 161.5
      vertex 4.75 5 172
    endloop
  endfacet
  facet normal 1 0 0
    outer loop
      vertex 4.75 5 161.5
      vertex 4.75 0 172
      vertex 4.75 0 161.5
    endloop
  endfacet
  facet normal 0 0 -1
    outer loop
      vertex 4.75 0 172
      vertex 10.25 5 172
      vertex 10.25 0 172
    endloop
  endfacet
  facet normal -0 0 -1
    outer loop
      vertex 10.25 5 172
      vertex 4.75 0 172
      vertex 4.75 5 172
    endloop
  endfacet
  facet normal -1 0 0
    outer loop
      vertex 10.25 5 161.5
      vertex 10.25 3.68882 166.364
      vertex 10.25 5 172
    endloop
  endfacet
  facet normal -1 0 0
    outer loop
      vertex 10.25 5 161.5
      vertex 10.25 2.5 165.5
      vertex 10.25 3.68882 166.364
    endloop
  endfacet
  facet normal -1 0 0
    outer loop
      vertex 10.25 0 161.5
      vertex 10.25 2.5 165.5
      vertex 10.25 5 161.5
    endloop
  endfacet
  facet normal -1 -0 0
    outer loop
      vertex 10.25 2.5 165.5
      vertex 10.25 0 161.5
      vertex 10.25 1.31118 166.364
    endloop
  endfacet
  facet normal -1 0 0
    outer loop
      vertex 10.25 3.23473 167.761
      vertex 10.25 5 172
      vertex 10.25 3.68882 166.364
    endloop
  endfacet
  facet normal -1 0 0
    outer loop
      vertex 10.25 1.76527 167.761
      vertex 10.25 5 172
      vertex 10.25 3.23473 167.761
    endloop
  endfacet
  facet normal -1 0 0
    outer loop
      vertex 10.25 1.76527 167.761
      vertex 10.25 0 172
      vertex 10.25 5 172
    endloop
  endfacet
  facet normal -1 0 0
    outer loop
      vertex 10.25 1.31118 166.364
      vertex 10.25 0 172
      vertex 10.25 1.76527 167.761
    endloop
  endfacet
  facet normal -1 0 0
    outer loop
      vertex 10.25 0 172
      vertex 10.25 1.31118 166.364
      vertex 10.25 0 161.5
    endloop
  endfacet
  facet normal -0 0 1
    outer loop
      vertex 4.75 5 161.5
      vertex 10.25 0 161.5
      vertex 10.25 5 161.5
    endloop
  endfacet
  facet normal 0 0 1
    outer loop
      vertex 10.25 0 161.5
      vertex 4.75 5 161.5
      vertex 4.75 0 161.5
    endloop
  endfacet
  facet normal 0 -0.587785 0.809017
    outer loop
      vertex 10.25 3.68882 26.3637
      vertex 15 2.5 25.5
      vertex 15 3.68882 26.3637
    endloop
  endfacet
  facet normal 0 -0.587785 0.809017
    outer loop
      vertex 15 2.5 25.5
      vertex 10.25 3.68882 26.3637
      vertex 10.25 2.5 25.5
    endloop
  endfacet
  facet normal 0 0 -1
    outer loop
      vertex 10.25 1.76527 27.7613
      vertex 15 3.23473 27.7613
      vertex 15 1.76527 27.7613
    endloop
  endfacet
  facet normal -0 0 -1
    outer loop
      vertex 15 3.23473 27.7613
      vertex 10.25 1.76527 27.7613
      vertex 10.25 3.23473 27.7613
    endloop
  endfacet
  facet normal 0 -0.951057 -0.309017
    outer loop
      vertex 10.25 3.68882 26.3637
      vertex 15 3.23473 27.7613
      vertex 10.25 3.23473 27.7613
    endloop
  endfacet
  facet normal 0 -0.951057 -0.309017
    outer loop
      vertex 15 3.23473 27.7613
      vertex 10.25 3.68882 26.3637
      vertex 15 3.68882 26.3637
    endloop
  endfacet
  facet normal 0 0.951057 -0.309017
    outer loop
      vertex 15 1.31118 26.3637
      vertex 10.25 1.76527 27.7613
      vertex 15 1.76527 27.7613
    endloop
  endfacet
  facet normal 0 0.951057 -0.309017
    outer loop
      vertex 10.25 1.76527 27.7613
      vertex 15 1.31118 26.3637
      vertex 10.25 1.31118 26.3637
    endloop
  endfacet
  facet normal -0 0.587785 0.809017
    outer loop
      vertex 10.25 2.5 25.5
      vertex 15 1.31118 26.3637
      vertex 15 2.5 25.5
    endloop
  endfacet
  facet normal 0 0.587785 0.809017
    outer loop
      vertex 15 1.31118 26.3637
      vertex 10.25 2.5 25.5
      vertex 10.25 1.31118 26.3637
    endloop
  endfacet
  facet normal 0 -0.587783 0.809018
    outer loop
      vertex 10.25 3.68882 166.364
      vertex 15 2.5 165.5
      vertex 15 3.68882 166.364
    endloop
  endfacet
  facet normal 0 -0.587783 0.809018
    outer loop
      vertex 15 2.5 165.5
      vertex 10.25 3.68882 166.364
      vertex 10.25 2.5 165.5
    endloop
  endfacet
  facet normal 0 0 -1
    outer loop
      vertex 10.25 1.76527 167.761
      vertex 15 3.23473 167.761
      vertex 15 1.76527 167.761
    endloop
  endfacet
  facet normal -0 0 -1
    outer loop
      vertex 15 3.23473 167.761
      vertex 10.25 1.76527 167.761
      vertex 10.25 3.23473 167.761
    endloop
  endfacet
  facet normal 0 -0.951057 -0.309015
    outer loop
      vertex 10.25 3.68882 166.364
      vertex 15 3.23473 167.761
      vertex 10.25 3.23473 167.761
    endloop
  endfacet
  facet normal 0 -0.951057 -0.309015
    outer loop
      vertex 15 3.23473 167.761
      vertex 10.25 3.68882 166.364
      vertex 15 3.68882 166.364
    endloop
  endfacet
  facet normal 0 0.951057 -0.309015
    outer loop
      vertex 15 1.31118 166.364
      vertex 10.25 1.76527 167.761
      vertex 15 1.76527 167.761
    endloop
  endfacet
  facet normal 0 0.951057 -0.309015
    outer loop
      vertex 10.25 1.76527 167.761
      vertex 15 1.31118 166.364
      vertex 10.25 1.31118 166.364
    endloop
  endfacet
  facet normal -0 0.587783 0.809019
    outer loop
      vertex 10.25 2.5 165.5
      vertex 15 1.31118 166.364
      vertex 15 2.5 165.5
    endloop
  endfacet
  facet normal 0 0.587783 0.809019
    outer loop
      vertex 15 1.31118 166.364
      vertex 10.25 2.5 165.5
      vertex 10.25 1.31118 166.364
    endloop
  endfacet
endsolid OpenSCAD_Model
