999
Inkscape export via OpenSCAD DXF Export
  0
SECTION
  2
HEADER
  9
$ACADVER
  1
AC1014
  9
$HANDSEED
  5
FFFF
  9
$MEASUREMENT
 70
     1
  0
ENDSEC
  0
SECTION
  2
TABLES
  0
TABLE
  2
VPORT
  5
8
330
0
100
AcDbSymbolTable
 70
     4
  0
VPORT
  5
2E
330
8
100
AcDbSymbolTableRecord
100
AcDbViewportTableRecord
  2
*ACTIVE
 70
     0
 10
0.0
 20
0.0
 11
1.0
 21
1.0
 12
210.0
 22
148.5
 13
0.0
 23
0.0
 14
10.0
 24
10.0
 15
10.0
 25
10.0
 16
0.0
 26
0.0
 36
1.0
 17
0.0
 27
0.0
 37
0.0
 40
341.0
 41
1.24
 42
50.0
 43
0.0
 44
0.0
 50
0.0
 51
0.0
 71
     0
 72
   100
 73
     1
 74
     3
 75
     0
 76
     0
 77
     0
 78
     0
  0
ENDTAB
  0
TABLE
  2
LTYPE
  5
5
330
0
100
AcDbSymbolTable
 70
     1
  0
LTYPE
  5
14
330
5
100
AcDbSymbolTableRecord
100
AcDbLinetypeTableRecord
  2
BYBLOCK
 70
     0
  3

 72
    65
 73
     0
 40
0.0
  0
LTYPE
  5
15
330
5
100
AcDbSymbolTableRecord
100
AcDbLinetypeTableRecord
  2
BYLAYER
 70
     0
  3

 72
    65
 73
     0
 40
0.0
  0
LTYPE
  5
16
330
5
100
AcDbSymbolTableRecord
100
AcDbLinetypeTableRecord
  2
CONTINUOUS
 70
     0
  3
Solid line
 72
    65
 73
     0
 40
0.0
  0
ENDTAB
  0
TABLE
0
TABLE
2
LAYER
5
2
330
0
100
AcDbSymbolTable
70
1
0
LAYER
5
10
330
2
100
AcDbSymbolTableRecord
100
AcDbLayerTableRecord
2
Layer_1
70
0
62
7
6
CONTINUOUS
0
ENDTAB
0
ENDSEC
  0
ENDTAB
  0
TABLE
  2
STYLE
  5
3
330
0
100
AcDbSymbolTable
 70
     1
  0
STYLE
  5
11
330
3
100
AcDbSymbolTableRecord
100
AcDbTextStyleTableRecord
  2
STANDARD
 70
     0
 40
0.0
 41
1.0
 50
0.0
 71
     0
 42
2.5
  3
txt
  4

  0
ENDTAB
  0
TABLE
  2
VIEW
  5
6
330
0
100
AcDbSymbolTable
 70
     0
  0
ENDTAB
  0
TABLE
  2
UCS
  5
7
330
0
100
AcDbSymbolTable
 70
     0
  0
ENDTAB
  0
TABLE
  2
APPID
  5
9
330
0
100
AcDbSymbolTable
 70
     2
  0
APPID
  5
12
330
9
100
AcDbSymbolTableRecord
100
AcDbRegAppTableRecord
  2
ACAD
 70
     0
  0
ENDTAB
  0
TABLE
  2
DIMSTYLE
  5
A
330
0
100
AcDbSymbolTable
 70
     1
  0
DIMSTYLE
105
27
330
A
100
AcDbSymbolTableRecord
100
AcDbDimStyleTableRecord
  2
ISO-25
 70
     0
  3

  4

  5

  6

  7

 40
1.0
 41
2.5
 42
0.625
 43
3.75
 44
1.25
 45
0.0
 46
0.0
 47
0.0
 48
0.0
140
2.5
141
2.5
142
0.0
143
0.03937007874016
144
1.0
145
0.0
146
1.0
147
0.625
 71
     0
 72
     0
 73
     0
 74
     0
 75
     0
 76
     0
 77
     1
 78
     8
170
     0
171
     3
172
     1
173
     0
174
     0
175
     0
176
     0
177
     0
178
     0
270
     2
271
     2
272
     2
273
     2
274
     3
340
11
275
     0
280
     0
281
     0
282
     0
283
     0
284
     8
285
     0
286
     0
287
     3
288
     0
  0
ENDTAB
  0
TABLE
  2
BLOCK_RECORD
  5
1
330
0
100
AcDbSymbolTable
 70
     1
  0
BLOCK_RECORD
  5
1F
330
1
100
AcDbSymbolTableRecord
100
AcDbBlockTableRecord
  2
*MODEL_SPACE
  0
BLOCK_RECORD
  5
1B
330
1
100
AcDbSymbolTableRecord
100
AcDbBlockTableRecord
  2
*PAPER_SPACE
  0
ENDTAB
  0
ENDSEC
  0
SECTION
  2
BLOCKS
  0
BLOCK
  5
20
330
1F
100
AcDbEntity
  8
0
100
AcDbBlockBegin
  2
*MODEL_SPACE
 70
     0
 10
0.0
 20
0.0
 30
0.0
  3
*MODEL_SPACE
  1

  0
ENDBLK
  5
21
330
1F
100
AcDbEntity
  8
0
100
AcDbBlockEnd
  0
BLOCK
  5
1C
330
1B
100
AcDbEntity
 67
     1
  8
0
100
AcDbBlockBegin
  2
*PAPER_SPACE
  1

  0
ENDBLK
  5
1D
330
1B
100
AcDbEntity
 67
     1
  8
0
100
AcDbBlockEnd
  0
ENDSEC
  0
SECTION
  2
ENTITIES
0
DIMENSION
5
83
100
AcDbEntity
62
256
370
-1
6
ByLayer
1
total_width
3
Standard
70
0
71
5
72
1
41
1.0
100
AcDbAlignedDimension
13
0.684331
23
0.000000
33
0.0
14
99.122075
24
0.000000
34
0.0
50
0.000000
100
AcDbRotatedDimension
0
DIMENSION
5
83
100
AcDbEntity
62
256
370
-1
6
ByLayer
1
total_minx
3
Standard
70
0
71
5
72
1
41
1.0
100
AcDbAlignedDimension
13
0.684331
23
0.000000
33
0.0
14
0.000000
24
0.000000
34
0.0
50
0.000000
100
AcDbRotatedDimension
0
DIMENSION
5
83
100
AcDbEntity
62
256
370
-1
6
ByLayer
1
total_maxx
3
Standard
70
0
71
5
72
1
41
1.0
100
AcDbAlignedDimension
13
0.000000
23
0.000000
33
0.0
14
99.122075
24
0.000000
34
0.0
50
0.000000
100
AcDbRotatedDimension
0
DIMENSION
5
83
100
AcDbEntity
62
256
370
-1
6
ByLayer
1
total_height
3
Standard
70
0
71
5
72
1
41
1.0
100
AcDbAlignedDimension
13
0.000000
23
1.129860
33
0.0
14
0.000000
24
36.599997
34
0.0
50
90.000000
100
AcDbRotatedDimension
0
DIMENSION
5
83
100
AcDbEntity
62
256
370
-1
6
ByLayer
1
total_miny
3
Standard
70
0
71
5
72
1
41
1.0
100
AcDbAlignedDimension
13
1.129860
23
0.000000
33
0.0
14
0.000000
24
0.000000
34
0.0
50
0.000000
100
AcDbRotatedDimension
0
DIMENSION
5
83
100
AcDbEntity
62
256
370
-1
6
ByLayer
1
total_maxy
3
Standard
70
0
71
5
72
1
41
1.0
100
AcDbAlignedDimension
13
0.000000
23
0.000000
33
0.0
14
36.599997
24
0.000000
34
0.0
50
0.000000
100
AcDbRotatedDimension
0
DIMENSION
8
Layer_1
5
83
100
AcDbEntity
62
256
370
-1
6
ByLayer
1
Layer_1_width
3
Standard
70
0
71
5
72
1
41
1.0
100
AcDbAlignedDimension
13
0.684331
23
0.000000
33
0.0
14
99.122075
24
0.000000
34
0.0
50
0.000000
100
AcDbRotatedDimension
0
DIMENSION
8
Layer_1
5
83
100
AcDbEntity
62
256
370
-1
6
ByLayer
1
Layer_1_minx
3
Standard
70
0
71
5
72
1
41
1.0
100
AcDbAlignedDimension
13
0.684331
23
0.000000
33
0.0
14
0.000000
24
0.000000
34
0.0
50
0.000000
100
AcDbRotatedDimension
0
DIMENSION
8
Layer_1
5
83
100
AcDbEntity
62
256
370
-1
6
ByLayer
1
Layer_1_maxx
3
Standard
70
0
71
5
72
1
41
1.0
100
AcDbAlignedDimension
13
0.000000
23
0.000000
33
0.0
14
99.122075
24
0.000000
34
0.0
50
0.000000
100
AcDbRotatedDimension
0
DIMENSION
8
Layer_1
5
83
100
AcDbEntity
62
256
370
-1
6
ByLayer
1
Layer_1_height
3
Standard
70
0
71
5
72
1
41
1.0
100
AcDbAlignedDimension
13
0.000000
23
1.129860
33
0.0
14
0.000000
24
36.599997
34
0.0
50
90.000000
100
AcDbRotatedDimension
0
DIMENSION
8
Layer_1
5
83
100
AcDbEntity
62
256
370
-1
6
ByLayer
1
Layer_1_miny
3
Standard
70
0
71
5
72
1
41
1.0
100
AcDbAlignedDimension
13
1.129860
23
0.000000
33
0.0
14
0.000000
24
0.000000
34
0.0
50
0.000000
100
AcDbRotatedDimension
0
DIMENSION
8
Layer_1
5
83
100
AcDbEntity
62
256
370
-1
6
ByLayer
1
Layer_1_maxy
3
Standard
70
0
71
5
72
1
41
1.0
100
AcDbAlignedDimension
13
0.000000
23
0.000000
33
0.0
14
36.599997
24
0.000000
34
0.0
50
0.000000
100
AcDbRotatedDimension
62
0
0
LWPOLYLINE
100
AcDbPolyline
8
Layer_1
90
35
70
0
10
21.780730
20
1.556348
30
0.0
10
17.578670
20
4.031107
30
0.0
10
15.034066
20
5.879836
30
0.0
10
12.651018
20
7.908034
30
0.0
10
10.426471
20
10.118511
30
0.0
10
8.357369
20
12.514078
30
0.0
10
7.850880
20
13.185641
30
0.0
10
7.855169
20
13.338952
30
0.0
10
8.844829
20
13.327324
30
0.0
10
9.781807
20
13.320212
30
0.0
10
10.143051
20
12.904471
30
0.0
10
13.123318
20
9.888052
30
0.0
10
15.228942
20
8.086483
30
0.0
10
17.450734
20
6.413398
30
0.0
10
19.736450
20
4.905665
30
0.0
10
22.033844
20
3.600151
30
0.0
10
22.677920
20
3.264250
30
0.0
10
23.341862
20
3.610627
30
0.0
10
26.341633
20
5.353997
30
0.0
10
29.259309
20
7.396252
30
0.0
10
32.000722
20
9.665647
30
0.0
10
34.471706
20
12.090438
30
0.0
10
35.391254
20
13.103548
30
0.0
10
35.565630
20
13.315158
30
0.0
10
36.570341
20
13.318036
30
0.0
10
37.575053
20
13.253182
30
0.0
10
37.540017
20
13.185448
30
0.0
10
37.270871
20
12.872611
30
0.0
10
34.896247
20
10.116489
30
0.0
10
32.133808
20
7.401854
30
0.0
10
28.447230
20
4.499222
30
0.0
10
24.513550
20
2.060459
30
0.0
10
22.663183
20
1.129860
30
0.0
10
21.780730
20
1.556371
30
0.0
10
21.780730
20
1.556348
30
0.0
62
0
0
LWPOLYLINE
100
AcDbPolyline
8
Layer_1
90
193
70
0
10
16.714099
20
8.748959
30
0.0
10
16.500621
20
8.940800
30
0.0
10
15.692387
20
11.943645
30
0.0
10
14.899568
20
14.912623
30
0.0
10
13.846442
20
14.991645
30
0.0
10
12.695422
20
15.034817
30
0.0
10
12.165213
20
15.232609
30
0.0
10
11.509286
20
16.188268
30
0.0
10
11.007659
20
17.105473
30
0.0
10
10.892847
20
17.072754
30
0.0
10
10.502332
20
16.382984
30
0.0
10
9.906374
20
15.392155
30
0.0
10
9.521784
20
15.121222
30
0.0
10
9.285096
20
15.014223
30
0.0
10
5.171495
20
15.014223
30
0.0
10
1.328358
20
15.041849
30
0.0
10
0.865533
20
15.117247
30
0.0
10
0.746844
20
15.270026
30
0.0
10
0.684331
20
15.591548
30
0.0
10
0.836491
20
15.876694
30
0.0
10
0.990020
20
16.030223
30
0.0
10
5.008377
20
16.030223
30
0.0
10
9.119835
20
16.109245
30
0.0
10
9.693632
20
17.068801
30
0.0
10
10.294156
20
18.077542
30
0.0
10
10.595350
20
18.294427
30
0.0
10
10.935450
20
18.368061
30
0.0
10
11.277999
20
18.298242
30
0.0
10
11.586542
20
18.084767
30
0.0
10
12.242785
20
17.005366
30
0.0
10
12.821459
20
16.071106
30
0.0
10
14.276684
20
16.030229
30
0.0
10
15.627369
20
16.030229
30
0.0
10
15.690682
20
15.928629
30
0.0
10
16.199326
20
14.112272
30
0.0
10
16.656709
20
12.464094
30
0.0
10
17.323589
20
20.968497
30
0.0
10
18.003423
20
29.446774
30
0.0
10
18.164321
20
29.557501
30
0.0
10
18.420307
20
29.598474
30
0.0
10
18.650383
20
29.468785
30
0.0
10
19.538921
20
21.693083
30
0.0
10
20.374361
20
13.976664
30
0.0
10
20.608631
20
14.121947
30
0.0
10
21.279569
20
15.352895
30
0.0
10
21.669422
20
16.018940
30
0.0
10
23.403144
20
16.075384
30
0.0
10
25.311440
20
16.168122
30
0.0
10
25.923482
20
16.624645
30
0.0
10
26.943941
20
18.220431
30
0.0
10
28.034371
20
19.847459
30
0.0
10
28.340586
20
19.897820
30
0.0
10
28.633194
20
19.786578
30
0.0
10
29.635910
20
18.193668
30
0.0
10
30.585180
20
16.607763
30
0.0
10
30.914608
20
16.280244
30
0.0
10
31.219448
20
16.104229
30
0.0
10
31.826234
20
16.017196
30
0.0
10
36.172318
20
15.985073
30
0.0
10
40.713722
20
15.985073
30
0.0
10
42.858253
20
18.129962
30
0.0
10
45.002786
20
20.274851
30
0.0
10
48.728720
20
20.274851
30
0.0
10
52.454655
20
20.274851
30
0.0
10
55.727275
20
23.548629
30
0.0
10
58.999899
20
26.822406
30
0.0
10
61.243103
20
26.822406
30
0.0
10
63.486315
20
26.822406
30
0.0
10
63.603217
20
26.683474
30
0.0
10
63.721885
20
26.381943
30
0.0
10
63.588118
20
26.096443
30
0.0
10
63.456131
20
25.964451
30
0.0
10
61.409258
20
25.964451
30
0.0
10
59.362380
20
25.964451
30
0.0
10
56.066255
20
22.668095
30
0.0
10
52.770128
20
19.371740
30
0.0
10
49.089031
20
19.371740
30
0.0
10
45.407930
20
19.371740
30
0.0
10
44.935408
20
18.897606
30
0.0
10
44.462889
20
18.423473
30
0.0
10
48.030263
20
18.423473
30
0.0
10
51.597639
20
18.423473
30
0.0
10
52.024833
20
17.994495
30
0.0
10
52.452027
20
17.565518
30
0.0
10
54.844391
20
17.565518
30
0.0
10
57.236758
20
17.565518
30
0.0
10
57.941628
20
18.265429
30
0.0
10
58.715331
20
18.965340
30
0.0
10
58.869320
20
18.872537
30
0.0
10
58.893394
20
18.689431
30
0.0
10
58.135667
20
17.870741
30
0.0
10
57.420744
20
17.159964
30
0.0
10
55.142824
20
17.148252
30
0.0
10
52.864907
20
17.136540
30
0.0
10
53.047479
20
16.944629
30
0.0
10
53.230046
20
16.752718
30
0.0
10
55.214012
20
16.752718
30
0.0
10
57.197969
20
16.752718
30
0.0
10
57.466078
20
16.481784
30
0.0
10
57.734183
20
16.210851
30
0.0
10
58.504181
20
16.210851
30
0.0
10
59.274182
20
16.210851
30
0.0
10
59.678700
20
16.617251
30
0.0
10
60.083215
20
17.023651
30
0.0
10
61.688026
20
17.023651
30
0.0
10
63.292838
20
17.023651
30
0.0
10
63.742700
20
17.475206
30
0.0
10
64.209443
20
17.886513
30
0.0
10
64.433580
20
17.872575
30
0.0
10
64.440916
20
17.640226
30
0.0
10
63.979061
20
17.124514
30
0.0
10
63.470353
20
16.617251
30
0.0
10
61.844518
20
16.617251
30
0.0
10
60.218681
20
16.617251
30
0.0
10
59.814166
20
16.210851
30
0.0
10
59.409649
20
15.804451
30
0.0
10
58.777375
20
15.804451
30
0.0
10
58.145104
20
15.804451
30
0.0
10
58.594966
20
15.352895
30
0.0
10
59.044829
20
14.901340
30
0.0
10
60.184264
20
14.901340
30
0.0
10
61.370281
20
14.814300
30
0.0
10
61.391955
20
14.662371
30
0.0
10
61.109221
20
14.524505
30
0.0
10
60.026115
20
14.494940
30
0.0
10
58.910228
20
14.494940
30
0.0
10
57.985366
20
15.420629
30
0.0
10
57.060502
20
16.346318
30
0.0
10
55.347021
20
16.346318
30
0.0
10
53.633534
20
16.346318
30
0.0
10
53.763322
20
16.210851
30
0.0
10
53.893108
20
16.075384
30
0.0
10
55.386252
20
16.075384
30
0.0
10
56.879397
20
16.075384
30
0.0
10
59.114255
20
13.840184
30
0.0
10
61.349111
20
11.604984
30
0.0
10
61.972416
20
11.604984
30
0.0
10
62.656339
20
11.559296
30
0.0
10
62.898528
20
11.357890
30
0.0
10
62.898528
20
10.948967
30
0.0
10
62.636673
20
10.743713
30
0.0
10
61.791794
20
10.701873
30
0.0
10
60.987872
20
10.701873
30
0.0
10
58.730433
20
12.959651
30
0.0
10
56.472994
20
15.217429
30
0.0
10
55.005585
20
15.217429
30
0.0
10
53.538185
20
15.217429
30
0.0
10
52.386397
20
16.366508
30
0.0
10
51.234611
20
17.515590
30
0.0
10
47.385599
20
17.525439
30
0.0
10
43.445777
20
17.453092
30
0.0
10
43.354964
20
17.332752
30
0.0
10
46.527379
20
17.294596
30
0.0
10
49.699791
20
17.294596
30
0.0
10
51.324922
20
15.668996
30
0.0
10
52.950051
20
14.043396
30
0.0
10
54.703032
20
14.043396
30
0.0
10
56.543355
20
13.996651
30
0.0
10
56.627964
20
13.845300
30
0.0
10
56.559752
20
13.662799
30
0.0
10
54.606540
20
13.591840
30
0.0
10
52.724284
20
13.591840
30
0.0
10
51.099156
20
15.217440
30
0.0
10
49.474024
20
16.843040
30
0.0
10
46.169941
20
16.843040
30
0.0
10
42.865858
20
16.843040
30
0.0
10
41.950773
20
15.917351
30
0.0
10
41.035690
20
14.991662
30
0.0
10
36.175261
20
14.991662
30
0.0
10
31.552318
20
15.022674
30
0.0
10
30.905252
20
15.111065
30
0.0
10
30.540497
20
15.292161
30
0.0
10
29.870012
20
15.855392
30
0.0
10
29.021560
20
17.159129
30
0.0
10
28.273019
20
18.321043
30
0.0
10
27.506779
20
17.169577
30
0.0
10
26.490779
20
15.720775
30
0.0
10
25.479907
20
15.128379
30
0.0
10
23.736211
20
15.036818
30
0.0
10
22.279504
20
15.036818
30
0.0
10
21.342148
20
13.251449
30
0.0
10
20.397677
20
11.545841
30
0.0
10
20.176521
20
11.349220
30
0.0
10
19.945747
20
11.348890
30
0.0
10
19.645784
20
11.502783
30
0.0
10
19.427420
20
12.645749
30
0.0
10
18.434066
20
22.035929
30
0.0
10
17.930655
20
15.444739
30
0.0
10
17.448189
20
9.508910
30
0.0
10
17.322114
20
8.856046
30
0.0
10
17.155800
20
8.732994
30
0.0
10
16.714099
20
8.748968
30
0.0
10
16.714099
20
8.748959
30
0.0
62
0
0
LWPOLYLINE
100
AcDbPolyline
8
Layer_1
90
13
70
0
10
63.844932
20
10.746828
30
0.0
10
63.285884
20
11.164667
30
0.0
10
63.155678
20
11.721164
30
0.0
10
63.280239
20
12.273936
30
0.0
10
63.826053
20
12.687107
30
0.0
10
64.511070
20
12.668256
30
0.0
10
64.862125
20
12.433251
30
0.0
10
65.079489
20
12.080001
30
0.0
10
65.142439
20
11.665274
30
0.0
10
65.030254
20
11.245834
30
0.0
10
64.526215
20
10.791054
30
0.0
10
63.844932
20
10.746828
30
0.0
10
63.844932
20
10.746828
30
0.0
62
0
0
LWPOLYLINE
100
AcDbPolyline
8
Layer_1
90
12
70
0
10
64.348179
20
11.354492
30
0.0
10
64.539940
20
11.562859
30
0.0
10
64.550690
20
11.825835
30
0.0
10
64.405759
20
12.051227
30
0.0
10
64.130476
20
12.146845
30
0.0
10
63.871542
20
12.075225
30
0.0
10
63.722222
20
11.859698
30
0.0
10
63.715082
20
11.601984
30
0.0
10
63.880884
20
11.385130
30
0.0
10
64.101797
20
11.293298
30
0.0
10
64.348179
20
11.354492
30
0.0
10
64.348179
20
11.354492
30
0.0
62
0
0
LWPOLYLINE
100
AcDbPolyline
8
Layer_1
90
24
70
0
10
88.081544
20
12.078031
30
0.0
10
87.890793
20
12.146165
30
0.0
10
87.742878
20
12.460691
30
0.0
10
87.890215
20
12.508090
30
0.0
10
88.082126
20
12.407655
30
0.0
10
88.273413
20
12.266438
30
0.0
10
88.548317
20
12.279261
30
0.0
10
88.781455
20
12.694114
30
0.0
10
88.781455
20
12.830732
30
0.0
10
88.662473
20
12.737144
30
0.0
10
88.309279
20
12.637986
30
0.0
10
87.950376
20
12.781306
30
0.0
10
87.710127
20
13.368269
30
0.0
10
87.864563
20
14.018800
30
0.0
10
88.228907
20
14.247151
30
0.0
10
88.657278
20
14.203822
30
0.0
10
88.781455
20
14.181526
30
0.0
10
88.916922
20
14.224004
30
0.0
10
89.052389
20
14.224004
30
0.0
10
89.052389
20
13.364597
30
0.0
10
89.006445
20
12.430219
30
0.0
10
88.785790
20
12.126514
30
0.0
10
88.081544
20
12.078034
30
0.0
10
88.081544
20
12.078031
30
0.0
62
0
0
LWPOLYLINE
100
AcDbPolyline
8
Layer_1
90
10
70
0
10
88.654808
20
12.990670
30
0.0
10
88.781455
20
13.484104
30
0.0
10
88.662473
20
13.949788
30
0.0
10
88.392584
20
14.041679
30
0.0
10
88.145860
20
13.926843
30
0.0
10
88.036389
20
13.434874
30
0.0
10
88.122410
20
12.964378
30
0.0
10
88.375815
20
12.867644
30
0.0
10
88.654808
20
12.990653
30
0.0
10
88.654808
20
12.990670
30
0.0
62
0
0
LWPOLYLINE
100
AcDbPolyline
8
Layer_1
90
25
70
0
10
65.074789
20
13.727290
30
0.0
10
65.074789
20
14.811023
30
0.0
10
65.232833
20
14.811023
30
0.0
10
65.390878
20
14.811023
30
0.0
10
65.390878
20
14.382045
30
0.0
10
65.390878
20
13.953068
30
0.0
10
65.932744
20
13.953068
30
0.0
10
66.474611
20
13.953068
30
0.0
10
66.474611
20
14.382045
30
0.0
10
66.474611
20
14.811023
30
0.0
10
66.632655
20
14.811023
30
0.0
10
66.790700
20
14.811023
30
0.0
10
66.790700
20
13.727290
30
0.0
10
66.790700
20
12.643556
30
0.0
10
66.632655
20
12.643556
30
0.0
10
66.474611
20
12.643556
30
0.0
10
66.474611
20
13.162845
30
0.0
10
66.474611
20
13.682134
30
0.0
10
65.932744
20
13.682134
30
0.0
10
65.390878
20
13.682134
30
0.0
10
65.390878
20
13.162845
30
0.0
10
65.390878
20
12.643556
30
0.0
10
65.232833
20
12.643556
30
0.0
10
65.074789
20
12.643556
30
0.0
10
65.074789
20
13.727290
30
0.0
62
0
0
LWPOLYLINE
100
AcDbPolyline
8
Layer_1
90
20
70
0
10
67.478910
20
12.733622
30
0.0
10
67.226436
20
13.001416
30
0.0
10
67.152111
20
13.434481
30
0.0
10
67.309393
20
14.031155
30
0.0
10
67.800635
20
14.259239
30
0.0
10
68.336531
20
14.111580
30
0.0
10
68.582653
20
13.592723
30
0.0
10
68.609492
20
13.366045
30
0.0
10
68.016179
20
13.366045
30
0.0
10
67.422869
20
13.327626
30
0.0
10
67.627856
20
12.940045
30
0.0
10
67.917895
20
12.870609
30
0.0
10
68.181996
20
12.961409
30
0.0
10
68.280825
20
13.096876
30
0.0
10
68.416291
20
13.140273
30
0.0
10
68.551758
20
13.060009
30
0.0
10
68.280328
20
12.711039
30
0.0
10
67.875126
20
12.643893
30
0.0
10
67.478902
20
12.733616
30
0.0
10
67.478910
20
12.733622
30
0.0
62
0
0
LWPOLYLINE
100
AcDbPolyline
8
Layer_1
90
7
70
0
10
68.280833
20
13.685606
30
0.0
10
67.902610
20
14.043379
30
0.0
10
67.492787
20
13.793231
30
0.0
10
67.422878
20
13.618866
30
0.0
10
67.851855
20
13.591829
30
0.0
10
68.280833
20
13.685611
30
0.0
10
68.280833
20
13.685606
30
0.0
62
0
0
LWPOLYLINE
100
AcDbPolyline
8
Layer_1
90
24
70
0
10
68.954692
20
12.775549
30
0.0
10
68.815611
20
13.093484
30
0.0
10
68.948991
20
13.408963
30
0.0
10
69.733688
20
13.636979
30
0.0
10
69.890863
20
13.655535
30
0.0
10
69.888902
20
13.783734
30
0.0
10
69.776879
20
13.985326
30
0.0
10
69.513992
20
14.043379
30
0.0
10
69.138800
20
13.817601
30
0.0
10
69.003333
20
13.772445
30
0.0
10
68.869049
20
13.841998
30
0.0
10
68.941501
20
14.038101
30
0.0
10
69.197577
20
14.215901
30
0.0
10
69.552440
20
14.266046
30
0.0
10
69.896367
20
14.192249
30
0.0
10
70.119635
20
13.998223
30
0.0
10
70.176715
20
13.264445
30
0.0
10
70.177279
20
12.643556
30
0.0
10
70.041812
20
12.643556
30
0.0
10
69.906346
20
12.711290
30
0.0
10
69.725723
20
12.711290
30
0.0
10
69.349716
20
12.645157
30
0.0
10
68.954605
20
12.775549
30
0.0
10
68.954692
20
12.775549
30
0.0
62
0
0
LWPOLYLINE
100
AcDbPolyline
8
Layer_1
90
9
70
0
10
69.722582
20
12.935397
30
0.0
10
69.906433
20
13.279426
30
0.0
10
69.875680
20
13.393365
30
0.0
10
69.679205
20
13.411201
30
0.0
10
69.295350
20
13.343716
30
0.0
10
69.112466
20
13.164000
30
0.0
10
69.276352
20
12.893564
30
0.0
10
69.722582
20
12.935397
30
0.0
10
69.722582
20
12.935397
30
0.0
62
0
0
LWPOLYLINE
100
AcDbPolyline
8
Layer_1
90
14
70
0
10
70.583766
20
13.433779
30
0.0
10
70.583766
20
14.224001
30
0.0
10
70.719233
20
14.224001
30
0.0
10
70.854700
20
14.156268
30
0.0
10
71.022997
20
14.178845
30
0.0
10
71.267190
20
14.269156
30
0.0
10
71.396566
20
14.133690
30
0.0
10
71.281434
20
13.998223
30
0.0
10
70.882750
20
13.793000
30
0.0
10
70.854697
20
13.181729
30
0.0
10
70.854697
20
12.643556
30
0.0
10
70.719230
20
12.643556
30
0.0
10
70.583764
20
12.643556
30
0.0
10
70.583766
20
13.433779
30
0.0
62
0
0
LWPOLYLINE
100
AcDbPolyline
8
Layer_1
90
22
70
0
10
71.712655
20
12.733868
30
0.0
10
71.622344
20
13.411201
30
0.0
10
71.532033
20
13.998223
30
0.0
10
71.441722
20
14.111112
30
0.0
10
71.532033
20
14.224001
30
0.0
10
71.622344
20
14.427201
30
0.0
10
71.641161
20
14.602178
30
0.0
10
71.757811
20
14.630401
30
0.0
10
71.874463
20
14.602175
30
0.0
10
71.893278
20
14.427201
30
0.0
10
71.912095
20
14.252222
30
0.0
10
72.028744
20
14.224001
30
0.0
10
72.164211
20
14.111112
30
0.0
10
72.028744
20
13.998223
30
0.0
10
71.893278
20
13.998223
30
0.0
10
71.893278
20
13.487965
30
0.0
10
71.929702
20
12.975521
30
0.0
10
72.105509
20
12.869334
30
0.0
10
72.209366
20
12.756445
30
0.0
10
72.006166
20
12.643556
30
0.0
10
71.712655
20
12.733868
30
0.0
10
71.712655
20
12.733868
30
0.0
62
0
0
LWPOLYLINE
100
AcDbPolyline
8
Layer_1
90
21
70
0
10
73.247944
20
13.727290
30
0.0
10
73.247944
20
14.811023
30
0.0
10
73.970433
20
14.811023
30
0.0
10
74.692922
20
14.811023
30
0.0
10
74.692922
20
14.698134
30
0.0
10
74.692922
20
14.585245
30
0.0
10
74.128478
20
14.585245
30
0.0
10
73.564033
20
14.585245
30
0.0
10
73.564033
20
14.246579
30
0.0
10
73.564033
20
13.907912
30
0.0
10
74.060744
20
13.907912
30
0.0
10
74.557455
20
13.907912
30
0.0
10
74.557455
20
13.772445
30
0.0
10
74.557455
20
13.636979
30
0.0
10
74.060744
20
13.636979
30
0.0
10
73.564033
20
13.636979
30
0.0
10
73.564033
20
13.140268
30
0.0
10
73.564033
20
12.643556
30
0.0
10
73.405989
20
12.643556
30
0.0
10
73.247944
20
12.643556
30
0.0
10
73.247944
20
13.727290
30
0.0
62
0
0
LWPOLYLINE
100
AcDbPolyline
8
Layer_1
90
23
70
0
10
75.131758
20
12.745379
30
0.0
10
74.981662
20
13.003324
30
0.0
10
75.024824
20
13.307812
30
0.0
10
75.269911
20
13.521487
30
0.0
10
75.732801
20
13.623686
30
0.0
10
76.047589
20
13.756415
30
0.0
10
75.794949
20
14.035587
30
0.0
10
75.370255
20
13.907912
30
0.0
10
75.126362
20
13.772445
30
0.0
10
75.015455
20
13.817337
30
0.0
10
75.079741
20
14.004023
30
0.0
10
75.319371
20
14.202147
30
0.0
10
75.682095
20
14.271160
30
0.0
10
76.040483
20
14.209723
30
0.0
10
76.267107
20
14.016497
30
0.0
10
76.318522
20
13.273606
30
0.0
10
76.318522
20
12.643554
30
0.0
10
76.183055
20
12.643554
30
0.0
10
76.047589
20
12.711287
30
0.0
10
75.883417
20
12.711558
30
0.0
10
75.487997
20
12.642846
30
0.0
10
75.131758
20
12.745371
30
0.0
10
75.131758
20
12.745379
30
0.0
62
0
0
LWPOLYLINE
100
AcDbPolyline
8
Layer_1
90
8
70
0
10
75.900833
20
12.959149
30
0.0
10
76.047589
20
13.235176
30
0.0
10
76.047589
20
13.421722
30
0.0
10
75.756632
20
13.403208
30
0.0
10
75.372809
20
13.300637
30
0.0
10
75.334131
20
12.923532
30
0.0
10
75.900833
20
12.959163
30
0.0
10
75.900833
20
12.959149
30
0.0
62
0
0
LWPOLYLINE
100
AcDbPolyline
8
Layer_1
90
9
70
0
10
76.724922
20
13.433779
30
0.0
10
76.724922
20
14.224001
30
0.0
10
76.860389
20
14.224001
30
0.0
10
76.995855
20
14.224001
30
0.0
10
76.995855
20
13.433779
30
0.0
10
76.995855
20
12.643556
30
0.0
10
76.860389
20
12.643556
30
0.0
10
76.724922
20
12.643556
30
0.0
10
76.724922
20
13.433779
30
0.0
62
0
0
LWPOLYLINE
100
AcDbPolyline
8
Layer_1
90
9
70
0
10
77.402255
20
13.727290
30
0.0
10
77.402255
20
14.811023
30
0.0
10
77.560300
20
14.811023
30
0.0
10
77.718344
20
14.811023
30
0.0
10
77.718344
20
13.727290
30
0.0
10
77.718344
20
12.643556
30
0.0
10
77.560300
20
12.643556
30
0.0
10
77.402255
20
12.643556
30
0.0
10
77.402255
20
13.727290
30
0.0
62
0
0
LWPOLYLINE
100
AcDbPolyline
8
Layer_1
90
23
70
0
10
78.256737
20
12.775549
30
0.0
10
78.124744
20
12.907541
30
0.0
10
78.124744
20
13.565771
30
0.0
10
78.124744
20
14.224001
30
0.0
10
78.260211
20
14.224001
30
0.0
10
78.395678
20
14.224001
30
0.0
10
78.395678
20
13.621400
30
0.0
10
78.478253
20
12.944067
30
0.0
10
78.661119
20
12.869334
30
0.0
10
79.071673
20
13.092611
30
0.0
10
79.118166
20
13.701743
30
0.0
10
79.118166
20
14.224001
30
0.0
10
79.253633
20
14.224001
30
0.0
10
79.389100
20
14.224001
30
0.0
10
79.389100
20
13.433779
30
0.0
10
79.389100
20
12.643556
30
0.0
10
79.253633
20
12.643556
30
0.0
10
79.118166
20
12.737551
30
0.0
10
79.118166
20
12.831545
30
0.0
10
78.966083
20
12.737551
30
0.0
10
78.601361
20
12.643556
30
0.0
10
78.256737
20
12.775549
30
0.0
10
78.256737
20
12.775549
30
0.0
62
0
0
LWPOLYLINE
100
AcDbPolyline
8
Layer_1
90
15
70
0
10
79.795500
20
13.433779
30
0.0
10
79.795500
20
14.224001
30
0.0
10
79.930966
20
14.224001
30
0.0
10
80.069995
20
14.122401
30
0.0
10
80.096665
20
14.078194
30
0.0
10
80.493176
20
14.269156
30
0.0
10
80.608308
20
14.133690
30
0.0
10
80.484131
20
13.998054
30
0.0
10
80.213197
20
13.908406
30
0.0
10
80.066442
20
13.818927
30
0.0
10
80.066442
20
13.231242
30
0.0
10
80.066442
20
12.643556
30
0.0
10
79.930975
20
12.643556
30
0.0
10
79.795508
20
12.643556
30
0.0
10
79.795500
20
13.433779
30
0.0
62
0
0
LWPOLYLINE
100
AcDbPolyline
8
Layer_1
90
21
70
0
10
81.024002
20
12.740319
30
0.0
10
80.783066
20
13.022197
30
0.0
10
80.698611
20
13.440301
30
0.0
10
80.912313
20
14.068446
30
0.0
10
81.489564
20
14.259682
30
0.0
10
81.967219
20
14.043623
30
0.0
10
82.143589
20
13.551132
30
0.0
10
82.143589
20
13.366045
30
0.0
10
81.559719
20
13.366045
30
0.0
10
80.975846
20
13.366045
30
0.0
10
81.016771
20
13.223348
30
0.0
10
81.174402
20
12.958925
30
0.0
10
81.441502
20
12.869334
30
0.0
10
81.827500
20
13.075094
30
0.0
10
81.985674
20
13.140268
30
0.0
10
82.143846
20
13.140268
30
0.0
10
82.084136
20
12.993512
30
0.0
10
81.853144
20
12.731649
30
0.0
10
81.448286
20
12.644316
30
0.0
10
81.024002
20
12.740319
30
0.0
10
81.024002
20
12.740319
30
0.0
62
0
0
LWPOLYLINE
100
AcDbPolyline
8
Layer_1
90
8
70
0
10
81.827500
20
13.685606
30
0.0
10
81.686943
20
13.919640
30
0.0
10
81.421100
20
14.043379
30
0.0
10
81.155256
20
13.919640
30
0.0
10
81.014700
20
13.685606
30
0.0
10
81.421100
20
13.591823
30
0.0
10
81.827500
20
13.685606
30
0.0
10
81.827500
20
13.685606
30
0.0
62
0
0
LWPOLYLINE
100
AcDbPolyline
8
Layer_1
90
13
70
0
10
83.317633
20
13.720578
30
0.0
10
83.317633
20
14.811023
30
0.0
10
83.848211
20
14.809894
30
0.0
10
84.504417
20
14.746493
30
0.0
10
84.864341
20
14.499819
30
0.0
10
85.078195
20
13.749729
30
0.0
10
85.015044
20
13.258131
30
0.0
10
84.806015
20
12.929077
30
0.0
10
84.421740
20
12.736759
30
0.0
10
83.832852
20
12.655373
30
0.0
10
83.317633
20
12.630001
30
0.0
10
83.317633
20
13.720446
30
0.0
10
83.317633
20
13.720578
30
0.0
62
0
0
LWPOLYLINE
100
AcDbPolyline
8
Layer_1
90
12
70
0
10
84.291686
20
12.965163
30
0.0
10
84.595365
20
13.143882
30
0.0
10
84.757872
20
13.499090
30
0.0
10
84.733510
20
14.107224
30
0.0
10
84.422259
20
14.491655
30
0.0
10
83.938522
20
14.576479
30
0.0
10
83.588566
20
14.596856
30
0.0
10
83.588566
20
13.755678
30
0.0
10
83.588566
20
12.914498
30
0.0
10
83.839504
20
12.914498
30
0.0
10
84.291686
20
12.965171
30
0.0
10
84.291686
20
12.965163
30
0.0
62
0
0
LWPOLYLINE
100
AcDbPolyline
8
Layer_1
90
9
70
0
10
85.439944
20
13.433779
30
0.0
10
85.439944
20
14.224001
30
0.0
10
85.575411
20
14.224001
30
0.0
10
85.710878
20
14.224001
30
0.0
10
85.710878
20
13.433779
30
0.0
10
85.710878
20
12.643556
30
0.0
10
85.575411
20
12.643556
30
0.0
10
85.439944
20
12.643556
30
0.0
10
85.439944
20
13.433779
30
0.0
62
0
0
LWPOLYLINE
100
AcDbPolyline
8
Layer_1
90
21
70
0
10
86.257714
20
12.706571
30
0.0
10
86.028564
20
13.081698
30
0.0
10
86.224549
20
13.451929
30
0.0
10
86.798621
20
13.623912
30
0.0
10
87.069192
20
13.663400
30
0.0
10
87.110700
20
13.776433
30
0.0
10
87.008673
20
13.970895
30
0.0
10
86.734946
20
14.043379
30
0.0
10
86.433366
20
13.907912
30
0.0
10
86.206338
20
13.775834
30
0.0
10
86.072122
20
13.819842
30
0.0
10
86.367183
20
14.204979
30
0.0
10
87.105335
20
14.219090
30
0.0
10
87.331556
20
13.987112
30
0.0
10
87.381633
20
13.277964
30
0.0
10
87.381633
20
12.643542
30
0.0
10
87.246166
20
12.643542
30
0.0
10
87.110700
20
12.711276
30
0.0
10
86.955314
20
12.709865
30
0.0
10
86.257714
20
12.706591
30
0.0
10
86.257714
20
12.706571
30
0.0
62
0
0
LWPOLYLINE
100
AcDbPolyline
8
Layer_1
90
8
70
0
10
87.019689
20
12.981588
30
0.0
10
87.110700
20
13.242836
30
0.0
10
87.110700
20
13.421722
30
0.0
10
86.819743
20
13.403208
30
0.0
10
86.435921
20
13.300637
30
0.0
10
86.399500
20
12.919680
30
0.0
10
87.019689
20
12.981602
30
0.0
10
87.019689
20
12.981588
30
0.0
62
0
0
LWPOLYLINE
100
AcDbPolyline
8
Layer_1
90
23
70
0
10
89.458789
20
13.433779
30
0.0
10
89.458789
20
14.224001
30
0.0
10
89.616833
20
14.224001
30
0.0
10
89.774878
20
14.156931
30
0.0
10
89.921633
20
14.179339
30
0.0
10
90.255281
20
14.267525
30
0.0
10
90.557454
20
14.176799
30
0.0
10
90.724307
20
13.877239
30
0.0
10
90.768046
20
13.196720
30
0.0
10
90.768610
20
12.643565
30
0.0
10
90.639034
20
12.643565
30
0.0
10
90.509460
20
12.643565
30
0.0
10
90.488547
20
13.260178
30
0.0
10
90.364762
20
13.960089
30
0.0
10
90.176913
20
14.038072
30
0.0
10
89.951202
20
13.940080
30
0.0
10
89.797766
20
13.836764
30
0.0
10
89.785179
20
13.240169
30
0.0
10
89.772592
20
12.643571
30
0.0
10
89.615859
20
12.643571
30
0.0
10
89.459125
20
12.643571
30
0.0
10
89.459125
20
13.433793
30
0.0
10
89.458789
20
13.433779
30
0.0
62
0
0
LWPOLYLINE
100
AcDbPolyline
8
Layer_1
90
13
70
0
10
91.392886
20
12.720705
30
0.0
10
91.152175
20
13.011319
30
0.0
10
91.065821
20
13.458843
30
0.0
10
91.236526
20
14.035252
30
0.0
10
91.749829
20
14.258937
30
0.0
10
92.163973
20
14.171553
30
0.0
10
92.440846
20
13.890780
30
0.0
10
92.506786
20
13.464332
30
0.0
10
92.430338
20
12.998736
30
0.0
10
92.175564
20
12.722579
30
0.0
10
91.780343
20
12.644239
30
0.0
10
91.392886
20
12.720603
30
0.0
10
91.392886
20
12.720705
30
0.0
62
0
0
LWPOLYLINE
100
AcDbPolyline
8
Layer_1
90
11
70
0
10
92.079180
20
12.983682
30
0.0
10
92.210144
20
13.527080
30
0.0
10
91.990000
20
13.996885
30
0.0
10
91.574310
20
13.994628
30
0.0
10
91.413851
20
13.785409
30
0.0
10
91.359300
20
13.461136
30
0.0
10
91.411125
20
13.134488
30
0.0
10
91.569794
20
12.918145
30
0.0
10
91.838100
20
12.871935
30
0.0
10
92.079160
20
12.983719
30
0.0
10
92.079180
20
12.983682
30
0.0
62
0
0
LWPOLYLINE
100
AcDbPolyline
8
Layer_1
90
27
70
0
10
92.945929
20
12.731536
30
0.0
10
92.709986
20
13.098050
30
0.0
10
92.846573
20
13.140268
30
0.0
10
93.023732
20
13.033537
30
0.0
10
93.139760
20
12.902676
30
0.0
10
93.412547
20
12.869334
30
0.0
10
93.680813
20
12.975859
30
0.0
10
93.693732
20
13.179739
30
0.0
10
93.310812
20
13.347424
30
0.0
10
92.841518
20
13.550599
30
0.0
10
92.755249
20
13.807098
30
0.0
10
92.883022
20
14.094766
30
0.0
10
93.261781
20
14.258694
30
0.0
10
93.675204
20
14.222694
30
0.0
10
93.907393
20
14.041860
30
0.0
10
93.974341
20
13.864997
30
0.0
10
93.631718
20
13.930490
30
0.0
10
93.379898
20
14.042778
30
0.0
10
93.110101
20
13.955890
30
0.0
10
93.065825
20
13.773572
30
0.0
10
93.459667
20
13.606242
30
0.0
10
93.894062
20
13.410541
30
0.0
10
94.019497
20
13.115878
30
0.0
10
93.888732
20
12.814710
30
0.0
10
93.425888
20
12.653601
30
0.0
10
92.945929
20
12.731528
30
0.0
10
92.945929
20
12.731536
30
0.0
62
0
0
LWPOLYLINE
100
AcDbPolyline
8
Layer_1
90
22
70
0
10
94.471053
20
12.733794
30
0.0
10
94.380741
20
13.411127
30
0.0
10
94.290430
20
13.998150
30
0.0
10
94.200119
20
14.111039
30
0.0
10
94.290430
20
14.223927
30
0.0
10
94.380741
20
14.427127
30
0.0
10
94.399559
20
14.602105
30
0.0
10
94.516208
20
14.630327
30
0.0
10
94.632860
20
14.602102
30
0.0
10
94.651675
20
14.427127
30
0.0
10
94.670492
20
14.252150
30
0.0
10
94.787141
20
14.223927
30
0.0
10
94.922608
20
14.111039
30
0.0
10
94.787141
20
13.998150
30
0.0
10
94.651675
20
13.998150
30
0.0
10
94.651675
20
13.487892
30
0.0
10
94.685985
20
12.981179
30
0.0
10
94.841328
20
12.869261
30
0.0
10
94.922608
20
12.756372
30
0.0
10
94.741986
20
12.643483
30
0.0
10
94.471053
20
12.733794
30
0.0
10
94.471053
20
12.733794
30
0.0
62
0
0
LWPOLYLINE
100
AcDbPolyline
8
Layer_1
90
9
70
0
10
95.193541
20
13.433705
30
0.0
10
95.193541
20
14.223927
30
0.0
10
95.329008
20
14.223927
30
0.0
10
95.464475
20
14.223927
30
0.0
10
95.464475
20
13.433705
30
0.0
10
95.464475
20
12.643483
30
0.0
10
95.329008
20
12.643483
30
0.0
10
95.193541
20
12.643483
30
0.0
10
95.193541
20
13.433705
30
0.0
62
0
0
LWPOLYLINE
100
AcDbPolyline
8
Layer_1
90
22
70
0
10
96.107529
20
12.733549
30
0.0
10
95.855105
20
13.001246
30
0.0
10
95.780804
20
13.433705
30
0.0
10
95.936501
20
14.032020
30
0.0
10
96.426062
20
14.258903
30
0.0
10
96.798215
20
14.209895
30
0.0
10
97.046748
20
13.984668
30
0.0
10
97.125185
20
13.805331
30
0.0
10
96.977186
20
13.772361
30
0.0
10
96.819141
20
13.837534
30
0.0
10
96.493719
20
14.043294
30
0.0
10
96.219200
20
13.909798
30
0.0
10
96.065727
20
13.605886
30
0.0
10
96.138957
20
13.071716
30
0.0
10
96.494005
20
12.869250
30
0.0
10
96.819141
20
13.087294
30
0.0
10
96.977186
20
13.140183
30
0.0
10
97.135230
20
13.113146
30
0.0
10
96.867887
20
12.720516
30
0.0
10
96.489480
20
12.643437
30
0.0
10
96.107529
20
12.733554
30
0.0
10
96.107529
20
12.733549
30
0.0
62
0
0
LWPOLYLINE
100
AcDbPolyline
8
Layer_1
90
24
70
0
10
97.519053
20
12.695895
30
0.0
10
97.271699
20
13.038594
30
0.0
10
97.406164
20
13.140194
30
0.0
10
97.541630
20
13.079460
30
0.0
10
97.808162
20
12.877613
30
0.0
10
98.189387
20
12.951839
30
0.0
10
98.207675
20
13.218714
30
0.0
10
97.812564
20
13.363872
30
0.0
10
97.394875
20
13.535175
30
0.0
10
97.362346
20
14.045806
30
0.0
10
97.879507
20
14.269083
30
0.0
10
98.317978
20
14.161814
30
0.0
10
98.489897
20
13.888230
30
0.0
10
98.365919
20
13.817406
30
0.0
10
98.165739
20
13.930416
30
0.0
10
97.817693
20
14.043260
30
0.0
10
97.586786
20
13.839967
30
0.0
10
97.974542
20
13.611847
30
0.0
10
98.428689
20
13.415700
30
0.0
10
98.535053
20
13.137225
30
0.0
10
98.485472
20
12.870517
30
0.0
10
98.310178
20
12.711682
30
0.0
10
97.519053
20
12.695906
30
0.0
10
97.519053
20
12.695895
30
0.0
62
0
0
LWPOLYLINE
100
AcDbPolyline
8
Layer_1
90
15
70
0
10
48.249168
20
13.845383
30
0.0
10
47.863385
20
14.088464
30
0.0
10
47.574793
20
14.472760
30
0.0
10
47.472326
20
15.047331
30
0.0
10
47.581160
20
15.539001
30
0.0
10
47.835188
20
15.911794
30
0.0
10
48.216178
20
16.148217
30
0.0
10
48.705897
20
16.230776
30
0.0
10
49.354139
20
16.056517
30
0.0
10
49.795687
20
15.547668
30
0.0
10
49.905559
20
14.811833
30
0.0
10
49.596529
20
14.186086
30
0.0
10
49.000448
20
13.815559
30
0.0
10
48.249168
20
13.845383
30
0.0
10
48.249168
20
13.845383
30
0.0
62
0
0
LWPOLYLINE
100
AcDbPolyline
8
Layer_1
90
11
70
0
10
49.068095
20
14.599661
30
0.0
10
49.248613
20
14.977018
30
0.0
10
49.149074
20
15.333813
30
0.0
10
48.851754
20
15.551042
30
0.0
10
48.438926
20
15.509704
30
0.0
10
48.213581
20
15.304987
30
0.0
10
48.141453
20
14.965269
30
0.0
10
48.302714
20
14.601781
30
0.0
10
48.691052
20
14.449694
30
0.0
10
49.068095
20
14.599661
30
0.0
10
49.068095
20
14.599661
30
0.0
62
0
0
LWPOLYLINE
100
AcDbPolyline
8
Layer_1
90
6
70
0
10
76.724922
20
14.675472
30
0.0
10
76.860389
20
14.810938
30
0.0
10
76.995855
20
14.675472
30
0.0
10
76.860389
20
14.540005
30
0.0
10
76.724922
20
14.675472
30
0.0
10
76.724922
20
14.675472
30
0.0
62
0
0
LWPOLYLINE
100
AcDbPolyline
8
Layer_1
90
6
70
0
10
85.439944
20
14.675472
30
0.0
10
85.575411
20
14.810938
30
0.0
10
85.710878
20
14.675472
30
0.0
10
85.575411
20
14.540005
30
0.0
10
85.439944
20
14.675472
30
0.0
10
85.439944
20
14.675472
30
0.0
62
0
0
LWPOLYLINE
100
AcDbPolyline
8
Layer_1
90
6
70
0
10
95.193541
20
14.675472
30
0.0
10
95.329008
20
14.810938
30
0.0
10
95.464475
20
14.675472
30
0.0
10
95.329008
20
14.540005
30
0.0
10
95.193541
20
14.675472
30
0.0
10
95.193541
20
14.675472
30
0.0
62
0
0
LWPOLYLINE
100
AcDbPolyline
8
Layer_1
90
12
70
0
10
61.642966
20
15.397961
30
0.0
10
61.550970
20
15.651123
30
0.0
10
61.671635
20
15.891392
30
0.0
10
61.790611
20
15.984983
30
0.0
10
80.296176
20
15.984983
30
0.0
10
98.911771
20
15.934846
30
0.0
10
99.122075
20
15.605126
30
0.0
10
99.028484
20
15.426629
30
0.0
10
98.934897
20
15.307650
30
0.0
10
80.334087
20
15.307650
30
0.0
10
61.642966
20
15.397961
30
0.0
10
61.642966
20
15.397961
30
0.0
62
0
0
LWPOLYLINE
100
AcDbPolyline
8
Layer_1
90
21
70
0
10
70.955826
20
16.338588
30
0.0
10
70.910670
20
18.381185
30
0.0
10
70.922439
20
20.387650
30
0.0
10
71.250471
20
20.400942
30
0.0
10
71.604762
20
20.345790
30
0.0
10
71.810395
20
20.368876
30
0.0
10
72.227223
20
20.485777
30
0.0
10
72.677830
20
20.436415
30
0.0
10
73.106124
20
20.202312
30
0.0
10
73.415937
20
19.785317
30
0.0
10
73.541461
20
18.942689
30
0.0
10
73.424500
20
18.107311
30
0.0
10
73.170661
20
17.703725
30
0.0
10
72.845555
20
17.454585
30
0.0
10
72.307426
20
17.312974
30
0.0
10
71.742918
20
17.410702
30
0.0
10
71.667505
20
16.941324
30
0.0
10
71.609077
20
16.394832
30
0.0
10
71.269169
20
16.301780
30
0.0
10
70.955831
20
16.338607
30
0.0
10
70.955826
20
16.338588
30
0.0
62
0
0
LWPOLYLINE
100
AcDbPolyline
8
Layer_1
90
14
70
0
10
72.476453
20
18.037571
30
0.0
10
72.685554
20
18.274638
30
0.0
10
72.752500
20
19.367495
30
0.0
10
72.600962
20
19.667075
30
0.0
10
72.369422
20
19.811879
30
0.0
10
72.089215
20
19.794127
30
0.0
10
71.791678
20
19.606038
30
0.0
10
71.667500
20
19.490220
30
0.0
10
71.667500
20
18.846987
30
0.0
10
71.667500
20
18.203755
30
0.0
10
71.791678
20
18.116808
30
0.0
10
71.983589
20
18.004407
30
0.0
10
72.476453
20
18.037571
30
0.0
10
72.476453
20
18.037571
30
0.0
62
0
0
LWPOLYLINE
100
AcDbPolyline
8
Layer_1
90
19
70
0
10
74.882575
20
16.355258
30
0.0
10
74.828389
20
18.338409
30
0.0
10
74.855792
20
20.338800
30
0.0
10
75.577347
20
20.348621
30
0.0
10
75.762389
20
20.369308
30
0.0
10
76.375195
20
20.484811
30
0.0
10
76.973272
20
20.282299
30
0.0
10
77.291497
20
19.921560
30
0.0
10
77.492372
20
19.417697
30
0.0
10
77.423563
20
18.184710
30
0.0
10
77.118599
20
17.719931
30
0.0
10
76.689334
20
17.399170
30
0.0
10
76.189519
20
17.320651
30
0.0
10
75.742783
20
17.400581
30
0.0
10
75.596028
20
17.477526
30
0.0
10
75.596028
20
16.943531
30
0.0
10
75.541841
20
16.355352
30
0.0
10
74.882570
20
16.355352
30
0.0
10
74.882575
20
16.355258
30
0.0
62
0
0
LWPOLYLINE
100
AcDbPolyline
8
Layer_1
90
14
70
0
10
76.492664
20
18.086192
30
0.0
10
76.683684
20
18.380099
30
0.0
10
76.744559
20
18.874938
30
0.0
10
76.705460
20
19.387640
30
0.0
10
76.547320
20
19.684504
30
0.0
10
76.229285
20
19.829156
30
0.0
10
75.870556
20
19.712963
30
0.0
10
75.632480
20
19.437654
30
0.0
10
75.606035
20
18.801304
30
0.0
10
75.618622
20
18.182165
30
0.0
10
75.817637
20
18.076997
30
0.0
10
76.189596
20
17.973891
30
0.0
10
76.492676
20
18.086198
30
0.0
10
76.492664
20
18.086192
30
0.0
62
0
0
LWPOLYLINE
100
AcDbPolyline
8
Layer_1
90
23
70
0
10
67.297842
20
17.341904
30
0.0
10
66.566638
20
17.682137
30
0.0
10
66.322831
20
17.959166
30
0.0
10
66.186239
20
18.340069
30
0.0
10
66.113366
20
20.046372
30
0.0
10
66.184791
20
21.466551
30
0.0
10
66.827866
20
21.435854
30
0.0
10
66.889839
20
19.979587
30
0.0
10
66.993900
20
18.403650
30
0.0
10
67.262414
20
18.135992
30
0.0
10
67.737555
20
18.054168
30
0.0
10
68.206040
20
18.132162
30
0.0
10
68.482777
20
18.378227
30
0.0
10
68.588602
20
19.957622
30
0.0
10
68.650575
20
21.436466
30
0.0
10
69.338763
20
21.423004
30
0.0
10
69.408497
20
20.260249
30
0.0
10
69.368316
20
18.812932
30
0.0
10
69.227113
20
18.112690
30
0.0
10
68.912896
20
17.689718
30
0.0
10
68.463157
20
17.416470
30
0.0
10
67.297842
20
17.341907
30
0.0
10
67.297842
20
17.341904
30
0.0
62
0
0
LWPOLYLINE
100
AcDbPolyline
8
Layer_1
90
42
70
0
10
80.089011
20
17.325987
30
0.0
10
79.551892
20
17.465278
30
0.0
10
79.133820
20
17.720607
30
0.0
10
78.843452
20
18.084408
30
0.0
10
78.689446
20
18.549116
30
0.0
10
78.723358
20
18.814422
30
0.0
10
79.050433
20
18.874933
30
0.0
10
79.346407
20
18.833341
30
0.0
10
79.453607
20
18.629332
30
0.0
10
79.762801
20
18.209544
30
0.0
10
80.381658
20
18.054222
30
0.0
10
80.849447
20
18.104909
30
0.0
10
81.120724
20
18.293130
30
0.0
10
81.240478
20
18.556219
30
0.0
10
81.004535
20
18.903348
30
0.0
10
80.089011
20
19.189836
30
0.0
10
79.449586
20
19.396660
30
0.0
10
78.937633
20
19.856141
30
0.0
10
78.807793
20
20.449202
30
0.0
10
79.046388
20
21.028394
30
0.0
10
79.639739
20
21.446268
30
0.0
10
80.405100
20
21.531716
30
0.0
10
81.156556
20
21.391243
30
0.0
10
81.594006
20
21.063852
30
0.0
10
81.847055
20
20.632091
30
0.0
10
81.883149
20
20.216662
30
0.0
10
81.482077
20
20.148421
30
0.0
10
81.157468
20
20.252177
30
0.0
10
80.905501
20
20.681029
30
0.0
10
80.327875
20
20.816551
30
0.0
10
79.724127
20
20.666150
30
0.0
10
79.594823
20
20.289117
30
0.0
10
79.807697
20
20.088212
30
0.0
10
80.439364
20
19.896188
30
0.0
10
81.403976
20
19.575529
30
0.0
10
81.864220
20
19.149035
30
0.0
10
81.985536
20
18.603999
30
0.0
10
81.854077
20
18.028069
30
0.0
10
81.563867
20
17.678759
30
0.0
10
81.154701
20
17.438049
30
0.0
10
80.089011
20
17.325987
30
0.0
10
80.089011
20
17.325987
30
0.0
62
0
0
LWPOLYLINE
100
AcDbPolyline
8
Layer_1
90
27
70
0
10
84.319869
20
17.342666
30
0.0
10
83.740154
20
17.597038
30
0.0
10
83.332074
20
18.107294
30
0.0
10
83.204767
20
18.897516
30
0.0
10
83.284762
20
19.613533
30
0.0
10
83.602477
20
20.085152
30
0.0
10
84.053548
20
20.389558
30
0.0
10
84.627144
20
20.477594
30
0.0
10
85.267521
20
20.351731
30
0.0
10
85.785893
20
19.908054
30
0.0
10
86.028894
20
19.175127
30
0.0
10
86.063828
20
18.859152
30
0.0
10
85.977401
20
18.704328
30
0.0
10
84.986800
20
18.649161
30
0.0
10
83.994966
20
18.649161
30
0.0
10
83.994966
20
18.547561
30
0.0
10
84.321766
20
18.061896
30
0.0
10
84.823748
20
17.989718
30
0.0
10
85.201275
20
18.273576
30
0.0
10
85.282442
20
18.445963
30
0.0
10
85.620756
20
18.445963
30
0.0
10
85.973595
20
18.343579
30
0.0
10
85.821392
20
17.871960
30
0.0
10
85.397701
20
17.477411
30
0.0
10
84.880480
20
17.321963
30
0.0
10
84.319703
20
17.342666
30
0.0
10
84.319869
20
17.342666
30
0.0
62
0
0
LWPOLYLINE
100
AcDbPolyline
8
Layer_1
90
10
70
0
10
85.214166
20
19.351315
30
0.0
10
85.144243
20
19.511358
30
0.0
10
84.934070
20
19.728563
30
0.0
10
84.643104
20
19.817632
30
0.0
10
84.347264
20
19.772836
30
0.0
10
84.122472
20
19.588447
30
0.0
10
84.050692
20
19.357180
30
0.0
10
84.605983
20
19.326494
30
0.0
10
85.214166
20
19.351330
30
0.0
10
85.214166
20
19.351315
30
0.0
62
0
0
LWPOLYLINE
100
AcDbPolyline
8
Layer_1
90
38
70
0
10
91.942344
20
17.354096
30
0.0
10
91.361975
20
17.624437
30
0.0
10
91.090837
20
18.146128
30
0.0
10
91.112615
20
18.414188
30
0.0
10
91.465420
20
18.459547
30
0.0
10
91.742090
20
18.428637
30
0.0
10
91.825589
20
18.300661
30
0.0
10
91.976699
20
18.064858
30
0.0
10
92.278491
20
17.981451
30
0.0
10
92.747841
20
18.060898
30
0.0
10
92.867618
20
18.334364
30
0.0
10
92.515162
20
18.517081
30
0.0
10
91.360902
20
18.947269
30
0.0
10
91.188849
20
19.183193
30
0.0
10
91.153008
20
19.532804
30
0.0
10
91.263777
20
20.030091
30
0.0
10
91.657819
20
20.349335
30
0.0
10
92.348744
20
20.475819
30
0.0
10
93.030161
20
20.357435
30
0.0
10
93.355295
20
20.126944
30
0.0
10
93.514892
20
19.790812
30
0.0
10
93.499089
20
19.520286
30
0.0
10
93.156950
20
19.461961
30
0.0
10
92.875919
20
19.479860
30
0.0
10
92.793199
20
19.598381
30
0.0
10
92.653863
20
19.777100
30
0.0
10
92.339180
20
19.823205
30
0.0
10
92.018230
20
19.761403
30
0.0
10
91.897189
20
19.597532
30
0.0
10
91.969931
20
19.480461
30
0.0
10
92.531026
20
19.304077
30
0.0
10
93.252806
20
19.040123
30
0.0
10
93.548646
20
18.752302
30
0.0
10
93.613098
20
18.157124
30
0.0
10
93.334707
20
17.624079
30
0.0
10
92.715470
20
17.349627
30
0.0
10
91.942344
20
17.354096
30
0.0
10
91.942344
20
17.354096
30
0.0
62
0
0
LWPOLYLINE
100
AcDbPolyline
8
Layer_1
90
30
70
0
10
95.880922
20
17.339929
30
0.0
10
95.424274
20
17.515655
30
0.0
10
95.078747
20
17.821867
30
0.0
10
94.852224
20
18.248466
30
0.0
10
94.752589
20
18.785355
30
0.0
10
94.934169
20
19.766803
30
0.0
10
95.197363
20
20.122845
30
0.0
10
95.564748
20
20.368162
30
0.0
10
96.202114
20
20.484472
30
0.0
10
96.826389
20
20.352442
30
0.0
10
97.364993
20
19.875871
30
0.0
10
97.611517
20
19.113427
30
0.0
10
97.630657
20
18.838149
30
0.0
10
97.532569
20
18.701085
30
0.0
10
96.540975
20
18.649163
30
0.0
10
95.543497
20
18.649163
30
0.0
10
95.571352
20
18.509898
30
0.0
10
95.811496
20
18.119600
30
0.0
10
96.269150
20
17.971830
30
0.0
10
96.588250
20
18.070721
30
0.0
10
96.765409
20
18.274903
30
0.0
10
96.873090
20
18.432711
30
0.0
10
97.210191
20
18.459409
30
0.0
10
97.519055
20
18.445975
30
0.0
10
97.516798
20
18.240463
30
0.0
10
97.368338
20
17.824210
30
0.0
10
96.989558
20
17.504184
30
0.0
10
96.465434
20
17.327165
30
0.0
10
95.880942
20
17.339932
30
0.0
10
95.880922
20
17.339929
30
0.0
62
0
0
LWPOLYLINE
100
AcDbPolyline
8
Layer_1
90
9
70
0
10
96.750962
20
19.428108
30
0.0
10
96.567958
20
19.676464
30
0.0
10
96.205884
20
19.823219
30
0.0
10
95.865770
20
19.740871
30
0.0
10
95.639882
20
19.495841
30
0.0
10
95.552951
20
19.326508
30
0.0
10
96.166514
20
19.326508
30
0.0
10
96.780073
20
19.326508
30
0.0
10
96.750962
20
19.428108
30
0.0
62
0
0
LWPOLYLINE
100
AcDbPolyline
8
Layer_1
90
22
70
0
10
87.347270
20
17.437245
30
0.0
10
87.291322
20
18.880289
30
0.0
10
87.318726
20
20.338814
30
0.0
10
87.676425
20
20.416037
30
0.0
10
88.047212
20
20.342539
30
0.0
10
88.258495
20
20.363226
30
0.0
10
88.933332
20
20.485902
30
0.0
10
89.525478
20
20.214348
30
0.0
10
89.777673
20
19.760807
30
0.0
10
89.809532
20
18.528513
30
0.0
10
89.797453
20
17.407405
30
0.0
10
89.458786
20
17.407405
30
0.0
10
89.120119
20
17.407405
30
0.0
10
89.093675
20
18.491139
30
0.0
10
89.034747
20
19.647779
30
0.0
10
88.687216
20
19.823228
30
0.0
10
88.161453
20
19.543435
30
0.0
10
88.048564
20
18.421441
30
0.0
10
88.036400
20
17.407405
30
0.0
10
87.719814
20
17.394367
30
0.0
10
87.347281
20
17.437265
30
0.0
10
87.347270
20
17.437245
30
0.0
62
0
0
LWPOLYLINE
100
AcDbPolyline
8
Layer_1
90
17
70
0
10
60.399467
20
17.672260
30
0.0
10
59.985171
20
17.990412
30
0.0
10
59.699368
20
18.518179
30
0.0
10
59.675353
20
19.085268
30
0.0
10
59.897405
20
19.605383
30
0.0
10
60.349805
20
19.992228
30
0.0
10
60.943055
20
20.113558
30
0.0
10
61.551346
20
19.980219
30
0.0
10
61.937707
20
19.654939
30
0.0
10
62.178980
20
19.237930
30
0.0
10
62.230757
20
18.763211
30
0.0
10
62.115645
20
18.313365
30
0.0
10
61.853042
20
17.931123
30
0.0
10
61.462344
20
17.659215
30
0.0
10
60.933481
20
17.563516
30
0.0
10
60.399467
20
17.672254
30
0.0
10
60.399467
20
17.672260
30
0.0
62
0
0
LWPOLYLINE
100
AcDbPolyline
8
Layer_1
90
12
70
0
10
61.324817
20
18.226163
30
0.0
10
61.632830
20
18.667933
30
0.0
10
61.555277
20
19.209375
30
0.0
10
61.093326
20
19.519788
30
0.0
10
60.563142
20
19.427261
30
0.0
10
60.314581
20
19.145993
30
0.0
10
60.253533
20
18.803082
30
0.0
10
60.374255
20
18.443728
30
0.0
10
60.631849
20
18.206893
30
0.0
10
60.968106
20
18.123922
30
0.0
10
61.324817
20
18.226163
30
0.0
10
61.324817
20
18.226163
30
0.0
62
0
0
LWPOLYLINE
100
AcDbPolyline
8
Layer_1
90
18
70
0
10
57.827322
20
19.027849
30
0.0
10
57.100466
20
19.397578
30
0.0
10
56.593675
20
20.039150
30
0.0
10
56.472655
20
20.794064
30
0.0
10
56.613529
20
21.584286
30
0.0
10
56.974192
20
22.088243
30
0.0
10
57.487227
20
22.456022
30
0.0
10
58.255352
20
22.600286
30
0.0
10
59.034815
20
22.456099
30
0.0
10
59.530608
20
22.114463
30
0.0
10
59.881603
20
21.648334
30
0.0
10
60.066226
20
21.098633
30
0.0
10
60.062900
20
20.506279
30
0.0
10
59.781166
20
19.795271
30
0.0
10
59.262995
20
19.277697
30
0.0
10
58.585883
20
19.004807
30
0.0
10
57.827322
20
19.027849
30
0.0
10
57.827322
20
19.027849
30
0.0
62
0
0
LWPOLYLINE
100
AcDbPolyline
8
Layer_1
90
17
70
0
10
58.814558
20
19.594447
30
0.0
10
59.241680
20
19.917624
30
0.0
10
59.506268
20
20.361717
30
0.0
10
59.586350
20
20.866253
30
0.0
10
59.459952
20
21.370759
30
0.0
10
59.182110
20
21.752144
30
0.0
10
58.761322
20
22.025602
30
0.0
10
58.194821
20
22.116328
30
0.0
10
57.714148
20
22.009444
30
0.0
10
57.326640
20
21.735348
30
0.0
10
57.048241
20
21.321663
30
0.0
10
56.945192
20
20.847826
30
0.0
10
57.019150
20
20.368093
30
0.0
10
57.271768
20
19.936723
30
0.0
10
57.962789
20
19.501698
30
0.0
10
58.814558
20
19.594447
30
0.0
10
58.814558
20
19.594447
30
0.0
62
0
0
LWPOLYLINE
100
AcDbPolyline
8
Layer_1
90
82
70
0
10
4.317226
20
20.060286
30
0.0
10
3.869136
20
22.216464
30
0.0
10
3.680006
20
24.070797
30
0.0
10
3.709407
20
26.041372
30
0.0
10
3.945989
20
27.962160
30
0.0
10
4.378406
20
29.667130
30
0.0
10
5.149804
20
31.395752
30
0.0
10
6.116550
20
32.895753
30
0.0
10
8.183738
20
34.931562
30
0.0
10
9.467744
20
35.683354
30
0.0
10
11.019027
20
36.281208
30
0.0
10
12.209082
20
36.541234
30
0.0
10
13.341232
20
36.599997
30
0.0
10
14.507716
20
36.453995
30
0.0
10
15.800772
20
36.099728
30
0.0
10
17.573495
20
35.266053
30
0.0
10
19.242034
20
33.868479
30
0.0
10
20.856091
20
31.987938
30
0.0
10
22.355975
20
29.537562
30
0.0
10
22.685337
20
28.933861
30
0.0
10
22.851685
20
29.244051
30
0.0
10
24.169805
20
31.488013
30
0.0
10
25.477472
20
33.193353
30
0.0
10
27.388402
20
34.982887
30
0.0
10
28.367595
20
35.597572
30
0.0
10
29.401897
20
36.054180
30
0.0
10
31.298430
20
36.537483
30
0.0
10
33.240119
20
36.537765
30
0.0
10
35.183460
20
35.990717
30
0.0
10
36.955803
20
35.096654
30
0.0
10
38.981606
20
33.216775
30
0.0
10
39.704942
20
32.262544
30
0.0
10
40.341896
20
31.164420
30
0.0
10
41.275624
20
28.696184
30
0.0
10
41.588214
20
26.820686
30
0.0
10
41.729414
20
24.790229
30
0.0
10
41.572275
20
22.757930
30
0.0
10
41.158936
20
20.489162
30
0.0
10
41.044154
20
20.003740
30
0.0
10
40.197662
20
20.003740
30
0.0
10
39.325875
20
20.029027
30
0.0
10
39.363314
20
20.288671
30
0.0
10
39.727914
20
22.171195
30
0.0
10
39.807755
20
24.135462
30
0.0
10
39.732839
20
25.941235
30
0.0
10
39.447764
20
27.323261
30
0.0
10
38.649484
20
29.458083
30
0.0
10
37.569697
20
31.128221
30
0.0
10
36.246398
20
32.494469
30
0.0
10
34.613498
20
33.580484
30
0.0
10
32.924030
20
34.219321
30
0.0
10
31.546786
20
34.338944
30
0.0
10
30.079230
20
34.217046
30
0.0
10
28.592724
20
33.777941
30
0.0
10
27.445577
20
33.153887
30
0.0
10
25.706695
20
31.681754
30
0.0
10
24.326095
20
30.022004
30
0.0
10
22.971186
20
27.804351
30
0.0
10
22.680105
20
27.318929
30
0.0
10
22.358304
20
27.872084
30
0.0
10
20.931586
20
30.195312
30
0.0
10
20.556524
20
30.705595
30
0.0
10
18.981046
20
32.295618
30
0.0
10
17.097007
20
33.643447
30
0.0
10
15.200474
20
34.237375
30
0.0
10
13.834086
20
34.346434
30
0.0
10
12.581451
20
34.258796
30
0.0
10
10.807306
20
33.597049
30
0.0
10
9.262518
20
32.609788
30
0.0
10
8.205285
20
31.608933
30
0.0
10
7.340554
20
30.507199
30
0.0
10
6.641169
20
29.263870
30
0.0
10
6.079974
20
27.838232
30
0.0
10
5.742987
20
26.567316
30
0.0
10
5.560135
20
25.083743
30
0.0
10
5.566675
20
22.944493
30
0.0
10
5.900320
20
20.748809
30
0.0
10
6.041335
20
20.127920
30
0.0
10
6.067751
20
20.003743
30
0.0
10
5.202734
20
20.003743
30
0.0
10
4.317214
20
20.060187
30
0.0
10
4.317226
20
20.060286
30
0.0
62
0
0
LWPOLYLINE
100
AcDbPolyline
8
Layer_1
90
15
70
0
10
62.274851
20
20.133658
30
0.0
10
61.794291
20
20.420044
30
0.0
10
61.485337
20
20.876997
30
0.0
10
61.424419
20
21.394945
30
0.0
10
61.523584
20
21.888369
30
0.0
10
61.981571
20
22.370299
30
0.0
10
62.640659
20
22.543133
30
0.0
10
63.119384
20
22.458369
30
0.0
10
63.502639
20
22.195478
30
0.0
10
63.753748
20
21.838589
30
0.0
10
63.847351
20
21.390004
30
0.0
10
63.699528
20
20.696868
30
0.0
10
63.203912
20
20.219211
30
0.0
10
62.274851
20
20.133658
30
0.0
10
62.274851
20
20.133658
30
0.0
62
0
0
LWPOLYLINE
100
AcDbPolyline
8
Layer_1
90
11
70
0
10
62.889209
20
20.722060
30
0.0
10
63.266415
20
21.142932
30
0.0
10
63.196682
20
21.659995
30
0.0
10
62.784440
20
21.964402
30
0.0
10
62.315161
20
21.892060
30
0.0
10
62.068753
20
21.639071
30
0.0
10
61.959055
20
21.320222
30
0.0
10
62.167726
20
20.867417
30
0.0
10
62.636389
20
20.642248
30
0.0
10
62.889209
20
20.722060
30
0.0
10
62.889209
20
20.722060
30
0.0
62
0
0
LWPOLYLINE
100
AcDbPolyline
8
Layer_1
90
15
70
0
10
58.928327
20
23.065061
30
0.0
10
58.568777
20
23.349785
30
0.0
10
58.359615
20
23.727093
30
0.0
10
58.313708
20
24.156304
30
0.0
10
58.443924
20
24.596737
30
0.0
10
58.969115
20
25.093573
30
0.0
10
59.644420
20
25.155955
30
0.0
10
60.245652
20
24.830146
30
0.0
10
60.548622
20
24.162411
30
0.0
10
60.491315
20
23.699927
30
0.0
10
60.256268
20
23.309510
30
0.0
10
59.887828
20
23.039678
30
0.0
10
59.430344
20
22.938953
30
0.0
10
58.928327
20
23.065061
30
0.0
10
58.928327
20
23.065061
30
0.0
62
0
0
LWPOLYLINE
100
AcDbPolyline
8
Layer_1
90
15
70
0
10
54.130324
20
23.725348
30
0.0
10
53.581861
20
24.157524
30
0.0
10
53.373472
20
24.830891
30
0.0
10
53.460069
20
25.285478
30
0.0
10
53.723896
20
25.657368
30
0.0
10
54.092222
20
25.900256
30
0.0
10
54.540539
20
25.972768
30
0.0
10
55.044131
20
25.852330
30
0.0
10
55.442530
20
25.522209
30
0.0
10
55.655994
20
25.047978
30
0.0
10
55.645309
20
24.548610
30
0.0
10
55.428431
20
24.098982
30
0.0
10
55.023314
20
23.773972
30
0.0
10
54.130324
20
23.725348
30
0.0
10
54.130324
20
23.725348
30
0.0
62
0
0
LWPOLYLINE
100
AcDbPolyline
8
Layer_1
90
10
70
0
10
54.808676
20
24.525761
30
0.0
10
54.936604
20
24.754892
30
0.0
10
54.894607
20
25.011474
30
0.0
10
54.593139
20
25.242457
30
0.0
10
54.233981
20
25.109891
30
0.0
10
54.101339
20
24.755686
30
0.0
10
54.317609
20
24.452493
30
0.0
10
54.569170
20
24.409438
30
0.0
10
54.808676
20
24.525761
30
0.0
10
54.808676
20
24.525761
30
0.0
  0
ENDSEC
  0
SECTION
  2
OBJECTS
  0
DICTIONARY
  5
C
330
0
100
AcDbDictionary
  3
ACAD_GROUP
350
D
  3
ACAD_MLINESTYLE
350
17
  0
DICTIONARY
  5
D
330
C
100
AcDbDictionary
  0
DICTIONARY
  5
1A
330
C
100
AcDbDictionary
  0
DICTIONARY
  5
17
330
C
100
AcDbDictionary
  3
STANDARD
350
18
  0
DICTIONARY
  5
19
330
C
100
AcDbDictionary
  0
ENDSEC
  0
EOF
