solid OpenSCAD_Model
  facet normal -1 0 0
    outer loop
      vertex 0 0 0
      vertex 0 5 160
      vertex 0 5 0
    endloop
  endfacet
  facet normal -1 -0 0
    outer loop
      vertex 0 5 160
      vertex 0 0 0
      vertex 0 0 160
    endloop
  endfacet
  facet normal -0 0 1
    outer loop
      vertex 0 5 160
      vertex 3.75 0 160
      vertex 3.75 5 160
    endloop
  endfacet
  facet normal 0 0 1
    outer loop
      vertex 3.75 0 160
      vertex 0 5 160
      vertex 0 0 160
    endloop
  endfacet
  facet normal -0 0 1
    outer loop
      vertex 11.25 5 160
      vertex 15 0 160
      vertex 15 5 160
    endloop
  endfacet
  facet normal 0 0 1
    outer loop
      vertex 15 0 160
      vertex 11.25 5 160
      vertex 11.25 0 160
    endloop
  endfacet
  facet normal 1 0 0
    outer loop
      vertex 15 3.68882 153.364
      vertex 15 3.23473 7.26127
      vertex 15 3.68882 5.86373
    endloop
  endfacet
  facet normal 1 -0 0
    outer loop
      vertex 15 2.5 152.5
      vertex 15 3.23473 7.26127
      vertex 15 3.68882 153.364
    endloop
  endfacet
  facet normal 1 0 0
    outer loop
      vertex 15 2.5 152.5
      vertex 15 1.76527 7.26127
      vertex 15 3.23473 7.26127
    endloop
  endfacet
  facet normal 1 0 0
    outer loop
      vertex 15 1.31118 153.364
      vertex 15 1.76527 7.26127
      vertex 15 2.5 152.5
    endloop
  endfacet
  facet normal 1 0 0
    outer loop
      vertex 15 1.76527 7.26127
      vertex 15 1.31118 153.364
      vertex 15 1.31118 5.86373
    endloop
  endfacet
  facet normal 1 0 0
    outer loop
      vertex 15 5 160
      vertex 15 3.68882 153.364
      vertex 15 5 0
    endloop
  endfacet
  facet normal 1 0 0
    outer loop
      vertex 15 5 160
      vertex 15 3.23473 154.761
      vertex 15 3.68882 153.364
    endloop
  endfacet
  facet normal 1 0 0
    outer loop
      vertex 15 5 160
      vertex 15 1.76527 154.761
      vertex 15 3.23473 154.761
    endloop
  endfacet
  facet normal 1 0 0
    outer loop
      vertex 15 0 0
      vertex 15 1.31118 153.364
      vertex 15 0 160
    endloop
  endfacet
  facet normal 1 0 0
    outer loop
      vertex 15 1.76527 154.761
      vertex 15 0 160
      vertex 15 1.31118 153.364
    endloop
  endfacet
  facet normal 1 -0 0
    outer loop
      vertex 15 0 160
      vertex 15 1.76527 154.761
      vertex 15 5 160
    endloop
  endfacet
  facet normal 1 -0 0
    outer loop
      vertex 15 3.68882 5.86373
      vertex 15 5 0
      vertex 15 3.68882 153.364
    endloop
  endfacet
  facet normal 1 -0 0
    outer loop
      vertex 15 2.5 5
      vertex 15 5 0
      vertex 15 3.68882 5.86373
    endloop
  endfacet
  facet normal 1 0 0
    outer loop
      vertex 15 0 0
      vertex 15 2.5 5
      vertex 15 1.31118 5.86373
    endloop
  endfacet
  facet normal 1 0 0
    outer loop
      vertex 15 2.5 5
      vertex 15 0 0
      vertex 15 5 0
    endloop
  endfacet
  facet normal 1 0 0
    outer loop
      vertex 15 1.31118 153.364
      vertex 15 0 0
      vertex 15 1.31118 5.86373
    endloop
  endfacet
  facet normal 0 1 0
    outer loop
      vertex 10.25 5 156.5
      vertex 11.25 5 160
      vertex 15 5 160
    endloop
  endfacet
  facet normal 0 1 0
    outer loop
      vertex 11.25 5 160
      vertex 10.25 5 156.5
      vertex 3.75 5 160
    endloop
  endfacet
  facet normal 0 1 -0
    outer loop
      vertex 4.75 5 156.5
      vertex 3.75 5 160
      vertex 10.25 5 156.5
    endloop
  endfacet
  facet normal 0 1 0
    outer loop
      vertex 15 5 160
      vertex 10.25 5 151
      vertex 10.25 5 156.5
    endloop
  endfacet
  facet normal 0 1 0
    outer loop
      vertex 10.25 5 151
      vertex 10.25 5 9
      vertex 4.75 5 151
    endloop
  endfacet
  facet normal 0 1 0
    outer loop
      vertex 15 5 160
      vertex 10.25 5 9
      vertex 10.25 5 151
    endloop
  endfacet
  facet normal 0 1 -0
    outer loop
      vertex 15 5 0
      vertex 10.25 5 9
      vertex 15 5 160
    endloop
  endfacet
  facet normal 0 1 0
    outer loop
      vertex 10.25 5 3.5
      vertex 15 5 0
      vertex 4.75 5 3.5
    endloop
  endfacet
  facet normal 0 1 0
    outer loop
      vertex 10.25 5 9
      vertex 15 5 0
      vertex 10.25 5 3.5
    endloop
  endfacet
  facet normal 0 1 -0
    outer loop
      vertex 11.25 5 160
      vertex 3.75 5 163.5
      vertex 11.25 5 163.5
    endloop
  endfacet
  facet normal 0 1 0
    outer loop
      vertex 3.75 5 163.5
      vertex 11.25 5 160
      vertex 3.75 5 160
    endloop
  endfacet
  facet normal 0 1 0
    outer loop
      vertex 11.25 5 163.5
      vertex 15 5 168.5
      vertex 15 5 163.5
    endloop
  endfacet
  facet normal 0 1 0
    outer loop
      vertex 15 5 168.5
      vertex 11.25 5 163.5
      vertex 0 5 168.5
    endloop
  endfacet
  facet normal 0 1 -0
    outer loop
      vertex 3.75 5 163.5
      vertex 0 5 168.5
      vertex 11.25 5 163.5
    endloop
  endfacet
  facet normal 0 1 0
    outer loop
      vertex 0 5 168.5
      vertex 3.75 5 163.5
      vertex 0 5 163.5
    endloop
  endfacet
  facet normal 0 1 0
    outer loop
      vertex 3.75 5 160
      vertex 4.75 5 156.5
      vertex 0 5 160
    endloop
  endfacet
  facet normal 0 1 -0
    outer loop
      vertex 4.75 5 151
      vertex 0 5 160
      vertex 4.75 5 156.5
    endloop
  endfacet
  facet normal 0 1 0
    outer loop
      vertex 4.75 5 9
      vertex 4.75 5 151
      vertex 10.25 5 9
    endloop
  endfacet
  facet normal 0 1 0
    outer loop
      vertex 4.75 5 151
      vertex 4.75 5 9
      vertex 0 5 160
    endloop
  endfacet
  facet normal 0 1 0
    outer loop
      vertex 0 5 0
      vertex 4.75 5 9
      vertex 4.75 5 3.5
    endloop
  endfacet
  facet normal 0 1 0
    outer loop
      vertex 4.75 5 9
      vertex 0 5 0
      vertex 0 5 160
    endloop
  endfacet
  facet normal 0 1 0
    outer loop
      vertex 0 5 0
      vertex 4.75 5 3.5
      vertex 15 5 0
    endloop
  endfacet
  facet normal 0 0 -1
    outer loop
      vertex 0 0 0
      vertex 15 5 0
      vertex 15 0 0
    endloop
  endfacet
  facet normal -0 0 -1
    outer loop
      vertex 15 5 0
      vertex 0 0 0
      vertex 0 5 0
    endloop
  endfacet
  facet normal 0 -1 0
    outer loop
      vertex 4.75 0 156.5
      vertex 3.75 0 160
      vertex 0 0 160
    endloop
  endfacet
  facet normal 0 -1 0
    outer loop
      vertex 3.75 0 160
      vertex 4.75 0 156.5
      vertex 11.25 0 160
    endloop
  endfacet
  facet normal 0 -1 0
    outer loop
      vertex 10.25 0 156.5
      vertex 11.25 0 160
      vertex 4.75 0 156.5
    endloop
  endfacet
  facet normal 0 -1 0
    outer loop
      vertex 0 0 160
      vertex 4.75 0 151
      vertex 4.75 0 156.5
    endloop
  endfacet
  facet normal 0 -1 0
    outer loop
      vertex 4.75 0 151
      vertex 6.5 0 147.5
      vertex 10.25 0 151
    endloop
  endfacet
  facet normal 0 -1 0
    outer loop
      vertex 4.75 0 9
      vertex 4.75 0 151
      vertex 0 0 160
    endloop
  endfacet
  facet normal 0 -1 0
    outer loop
      vertex 4.75 0 151
      vertex 4.75 0 9
      vertex 6.5 0 147.5
    endloop
  endfacet
  facet normal 0 -1 -0
    outer loop
      vertex 6.5 0 12.5
      vertex 4.75 0 9
      vertex 8.5 0 12.5
    endloop
  endfacet
  facet normal 0 -1 -0
    outer loop
      vertex 6.5 0 147.5
      vertex 4.75 0 9
      vertex 6.5 0 12.5
    endloop
  endfacet
  facet normal 0 -1 0
    outer loop
      vertex 0 0 0
      vertex 4.75 0 9
      vertex 0 0 160
    endloop
  endfacet
  facet normal 0 -1 -0
    outer loop
      vertex 4.75 0 3.5
      vertex 0 0 0
      vertex 10.25 0 3.5
    endloop
  endfacet
  facet normal 0 -1 -0
    outer loop
      vertex 4.75 0 9
      vertex 0 0 0
      vertex 4.75 0 3.5
    endloop
  endfacet
  facet normal 0 -1 0
    outer loop
      vertex 3.75 0 160
      vertex 11.25 0 163.5
      vertex 3.75 0 163.5
    endloop
  endfacet
  facet normal 0 -1 -0
    outer loop
      vertex 11.25 0 163.5
      vertex 3.75 0 160
      vertex 11.25 0 160
    endloop
  endfacet
  facet normal 0 -1 0
    outer loop
      vertex 3.75 0 163.5
      vertex 0 0 168.5
      vertex 0 0 163.5
    endloop
  endfacet
  facet normal 0 -1 0
    outer loop
      vertex 0 0 168.5
      vertex 3.75 0 163.5
      vertex 15 0 168.5
    endloop
  endfacet
  facet normal 0 -1 0
    outer loop
      vertex 11.25 0 163.5
      vertex 15 0 168.5
      vertex 3.75 0 163.5
    endloop
  endfacet
  facet normal 0 -1 -0
    outer loop
      vertex 15 0 168.5
      vertex 11.25 0 163.5
      vertex 15 0 163.5
    endloop
  endfacet
  facet normal 0 -1 -0
    outer loop
      vertex 11.25 0 160
      vertex 10.25 0 156.5
      vertex 15 0 160
    endloop
  endfacet
  facet normal 0 -1 0
    outer loop
      vertex 10.25 0 151
      vertex 15 0 160
      vertex 10.25 0 156.5
    endloop
  endfacet
  facet normal 0 -1 0
    outer loop
      vertex 8.5 0 147.5
      vertex 10.25 0 151
      vertex 6.5 0 147.5
    endloop
  endfacet
  facet normal 0 -1 0
    outer loop
      vertex 10.25 0 9
      vertex 10.25 0 151
      vertex 8.5 0 147.5
    endloop
  endfacet
  facet normal 0 -1 0
    outer loop
      vertex 10.25 0 9
      vertex 8.5 0 147.5
      vertex 8.5 0 12.5
    endloop
  endfacet
  facet normal 0 -1 0
    outer loop
      vertex 10.25 0 9
      vertex 8.5 0 12.5
      vertex 4.75 0 9
    endloop
  endfacet
  facet normal 0 -1 0
    outer loop
      vertex 10.25 0 151
      vertex 10.25 0 9
      vertex 15 0 160
    endloop
  endfacet
  facet normal 0 -1 0
    outer loop
      vertex 15 0 0
      vertex 10.25 0 9
      vertex 10.25 0 3.5
    endloop
  endfacet
  facet normal 0 -1 0
    outer loop
      vertex 10.25 0 9
      vertex 15 0 0
      vertex 15 0 160
    endloop
  endfacet
  facet normal 0 -1 0
    outer loop
      vertex 15 0 0
      vertex 10.25 0 3.5
      vertex 0 0 0
    endloop
  endfacet
  facet normal -1 0 0
    outer loop
      vertex 0 0 163.5
      vertex 0 5 168.5
      vertex 0 5 163.5
    endloop
  endfacet
  facet normal -1 -0 0
    outer loop
      vertex 0 5 168.5
      vertex 0 0 163.5
      vertex 0 0 168.5
    endloop
  endfacet
  facet normal -0 0 1
    outer loop
      vertex 0 5 168.5
      vertex 15 0 168.5
      vertex 15 5 168.5
    endloop
  endfacet
  facet normal 0 0 1
    outer loop
      vertex 15 0 168.5
      vertex 0 5 168.5
      vertex 0 0 168.5
    endloop
  endfacet
  facet normal 1 -0 0
    outer loop
      vertex 15 0 168.5
      vertex 15 5 163.5
      vertex 15 5 168.5
    endloop
  endfacet
  facet normal 1 0 0
    outer loop
      vertex 15 5 163.5
      vertex 15 0 168.5
      vertex 15 0 163.5
    endloop
  endfacet
  facet normal 0 0 -1
    outer loop
      vertex 0 0 163.5
      vertex 3.75 5 163.5
      vertex 3.75 0 163.5
    endloop
  endfacet
  facet normal -0 0 -1
    outer loop
      vertex 3.75 5 163.5
      vertex 0 0 163.5
      vertex 0 5 163.5
    endloop
  endfacet
  facet normal 0 0 -1
    outer loop
      vertex 11.25 0 163.5
      vertex 15 5 163.5
      vertex 15 0 163.5
    endloop
  endfacet
  facet normal -0 0 -1
    outer loop
      vertex 15 5 163.5
      vertex 11.25 0 163.5
      vertex 11.25 5 163.5
    endloop
  endfacet
  facet normal -1 0 0
    outer loop
      vertex 3.75 0 160
      vertex 3.75 5 163.5
      vertex 3.75 5 160
    endloop
  endfacet
  facet normal -1 -0 0
    outer loop
      vertex 3.75 5 163.5
      vertex 3.75 0 160
      vertex 3.75 0 163.5
    endloop
  endfacet
  facet normal 1 -0 0
    outer loop
      vertex 11.25 0 163.5
      vertex 11.25 5 160
      vertex 11.25 5 163.5
    endloop
  endfacet
  facet normal 1 0 0
    outer loop
      vertex 11.25 5 160
      vertex 11.25 0 163.5
      vertex 11.25 0 160
    endloop
  endfacet
  facet normal 1 -0 0
    outer loop
      vertex 6.5 0 147.5
      vertex 6.5 2 12.5
      vertex 6.5 2 147.5
    endloop
  endfacet
  facet normal 1 0 0
    outer loop
      vertex 6.5 2 12.5
      vertex 6.5 0 147.5
      vertex 6.5 0 12.5
    endloop
  endfacet
  facet normal 0 0 -1
    outer loop
      vertex 6.5 0 147.5
      vertex 8.5 2 147.5
      vertex 8.5 0 147.5
    endloop
  endfacet
  facet normal -0 0 -1
    outer loop
      vertex 8.5 2 147.5
      vertex 6.5 0 147.5
      vertex 6.5 2 147.5
    endloop
  endfacet
  facet normal -1 0 0
    outer loop
      vertex 8.5 0 12.5
      vertex 8.5 2 147.5
      vertex 8.5 2 12.5
    endloop
  endfacet
  facet normal -1 -0 0
    outer loop
      vertex 8.5 2 147.5
      vertex 8.5 0 12.5
      vertex 8.5 0 147.5
    endloop
  endfacet
  facet normal -0 0 1
    outer loop
      vertex 6.5 2 12.5
      vertex 8.5 0 12.5
      vertex 8.5 2 12.5
    endloop
  endfacet
  facet normal 0 0 1
    outer loop
      vertex 8.5 0 12.5
      vertex 6.5 2 12.5
      vertex 6.5 0 12.5
    endloop
  endfacet
  facet normal 0 -1 0
    outer loop
      vertex 6.5 2 12.5
      vertex 8.5 2 147.5
      vertex 6.5 2 147.5
    endloop
  endfacet
  facet normal 0 -1 -0
    outer loop
      vertex 8.5 2 147.5
      vertex 6.5 2 12.5
      vertex 8.5 2 12.5
    endloop
  endfacet
  facet normal 1 -0 0
    outer loop
      vertex 4.75 0 9
      vertex 4.75 5 3.5
      vertex 4.75 5 9
    endloop
  endfacet
  facet normal 1 0 0
    outer loop
      vertex 4.75 5 3.5
      vertex 4.75 0 9
      vertex 4.75 0 3.5
    endloop
  endfacet
  facet normal 0 0 -1
    outer loop
      vertex 4.75 0 9
      vertex 10.25 5 9
      vertex 10.25 0 9
    endloop
  endfacet
  facet normal -0 0 -1
    outer loop
      vertex 10.25 5 9
      vertex 4.75 0 9
      vertex 4.75 5 9
    endloop
  endfacet
  facet normal -1 0 0
    outer loop
      vertex 10.25 5 3.5
      vertex 10.25 3.68882 5.86373
      vertex 10.25 5 9
    endloop
  endfacet
  facet normal -1 0 0
    outer loop
      vertex 10.25 5 3.5
      vertex 10.25 2.5 5
      vertex 10.25 3.68882 5.86373
    endloop
  endfacet
  facet normal -1 -0 0
    outer loop
      vertex 10.25 2.5 5
      vertex 10.25 0 3.5
      vertex 10.25 1.31118 5.86373
    endloop
  endfacet
  facet normal -1 0 0
    outer loop
      vertex 10.25 0 3.5
      vertex 10.25 2.5 5
      vertex 10.25 5 3.5
    endloop
  endfacet
  facet normal -1 0 0
    outer loop
      vertex 10.25 3.23473 7.26127
      vertex 10.25 5 9
      vertex 10.25 3.68882 5.86373
    endloop
  endfacet
  facet normal -1 0 0
    outer loop
      vertex 10.25 1.76527 7.26127
      vertex 10.25 5 9
      vertex 10.25 3.23473 7.26127
    endloop
  endfacet
  facet normal -1 0 0
    outer loop
      vertex 10.25 0 9
      vertex 10.25 1.31118 5.86373
      vertex 10.25 0 3.5
    endloop
  endfacet
  facet normal -1 0 0
    outer loop
      vertex 10.25 1.76527 7.26127
      vertex 10.25 0 9
      vertex 10.25 5 9
    endloop
  endfacet
  facet normal -1 0 0
    outer loop
      vertex 10.25 1.31118 5.86373
      vertex 10.25 0 9
      vertex 10.25 1.76527 7.26127
    endloop
  endfacet
  facet normal -0 0 1
    outer loop
      vertex 4.75 5 3.5
      vertex 10.25 0 3.5
      vertex 10.25 5 3.5
    endloop
  endfacet
  facet normal 0 0 1
    outer loop
      vertex 10.25 0 3.5
      vertex 4.75 5 3.5
      vertex 4.75 0 3.5
    endloop
  endfacet
  facet normal 1 -0 0
    outer loop
      vertex 4.75 0 156.5
      vertex 4.75 5 151
      vertex 4.75 5 156.5
    endloop
  endfacet
  facet normal 1 0 0
    outer loop
      vertex 4.75 5 151
      vertex 4.75 0 156.5
      vertex 4.75 0 151
    endloop
  endfacet
  facet normal 0 0 -1
    outer loop
      vertex 4.75 0 156.5
      vertex 10.25 5 156.5
      vertex 10.25 0 156.5
    endloop
  endfacet
  facet normal -0 0 -1
    outer loop
      vertex 10.25 5 156.5
      vertex 4.75 0 156.5
      vertex 4.75 5 156.5
    endloop
  endfacet
  facet normal -1 0 0
    outer loop
      vertex 10.25 5 151
      vertex 10.25 3.68882 153.364
      vertex 10.25 5 156.5
    endloop
  endfacet
  facet normal -1 0 0
    outer loop
      vertex 10.25 5 151
      vertex 10.25 2.5 152.5
      vertex 10.25 3.68882 153.364
    endloop
  endfacet
  facet normal -1 -0 0
    outer loop
      vertex 10.25 2.5 152.5
      vertex 10.25 0 151
      vertex 10.25 1.31118 153.364
    endloop
  endfacet
  facet normal -1 0 0
    outer loop
      vertex 10.25 0 151
      vertex 10.25 2.5 152.5
      vertex 10.25 5 151
    endloop
  endfacet
  facet normal -1 0 0
    outer loop
      vertex 10.25 3.23473 154.761
      vertex 10.25 5 156.5
      vertex 10.25 3.68882 153.364
    endloop
  endfacet
  facet normal -1 0 0
    outer loop
      vertex 10.25 1.76527 154.761
      vertex 10.25 5 156.5
      vertex 10.25 3.23473 154.761
    endloop
  endfacet
  facet normal -1 0 0
    outer loop
      vertex 10.25 0 156.5
      vertex 10.25 1.31118 153.364
      vertex 10.25 0 151
    endloop
  endfacet
  facet normal -1 0 0
    outer loop
      vertex 10.25 1.76527 154.761
      vertex 10.25 0 156.5
      vertex 10.25 5 156.5
    endloop
  endfacet
  facet normal -1 0 0
    outer loop
      vertex 10.25 1.31118 153.364
      vertex 10.25 0 156.5
      vertex 10.25 1.76527 154.761
    endloop
  endfacet
  facet normal -0 0 1
    outer loop
      vertex 4.75 5 151
      vertex 10.25 0 151
      vertex 10.25 5 151
    endloop
  endfacet
  facet normal 0 0 1
    outer loop
      vertex 10.25 0 151
      vertex 4.75 5 151
      vertex 4.75 0 151
    endloop
  endfacet
  facet normal 0 -0.587785 0.809017
    outer loop
      vertex 10.25 3.68882 5.86373
      vertex 15 2.5 5
      vertex 15 3.68882 5.86373
    endloop
  endfacet
  facet normal 0 -0.587785 0.809017
    outer loop
      vertex 15 2.5 5
      vertex 10.25 3.68882 5.86373
      vertex 10.25 2.5 5
    endloop
  endfacet
  facet normal 0 0 -1
    outer loop
      vertex 10.25 1.76527 7.26127
      vertex 15 3.23473 7.26127
      vertex 15 1.76527 7.26127
    endloop
  endfacet
  facet normal -0 0 -1
    outer loop
      vertex 15 3.23473 7.26127
      vertex 10.25 1.76527 7.26127
      vertex 10.25 3.23473 7.26127
    endloop
  endfacet
  facet normal 0 -0.951056 -0.309017
    outer loop
      vertex 10.25 3.68882 5.86373
      vertex 15 3.23473 7.26127
      vertex 10.25 3.23473 7.26127
    endloop
  endfacet
  facet normal 0 -0.951056 -0.309017
    outer loop
      vertex 15 3.23473 7.26127
      vertex 10.25 3.68882 5.86373
      vertex 15 3.68882 5.86373
    endloop
  endfacet
  facet normal 0 0.951056 -0.309017
    outer loop
      vertex 15 1.31118 5.86373
      vertex 10.25 1.76527 7.26127
      vertex 15 1.76527 7.26127
    endloop
  endfacet
  facet normal 0 0.951056 -0.309017
    outer loop
      vertex 10.25 1.76527 7.26127
      vertex 15 1.31118 5.86373
      vertex 10.25 1.31118 5.86373
    endloop
  endfacet
  facet normal -0 0.587785 0.809017
    outer loop
      vertex 10.25 2.5 5
      vertex 15 1.31118 5.86373
      vertex 15 2.5 5
    endloop
  endfacet
  facet normal 0 0.587785 0.809017
    outer loop
      vertex 15 1.31118 5.86373
      vertex 10.25 2.5 5
      vertex 10.25 1.31118 5.86373
    endloop
  endfacet
  facet normal 0 -0.587783 0.809018
    outer loop
      vertex 10.25 3.68882 153.364
      vertex 15 2.5 152.5
      vertex 15 3.68882 153.364
    endloop
  endfacet
  facet normal 0 -0.587783 0.809018
    outer loop
      vertex 15 2.5 152.5
      vertex 10.25 3.68882 153.364
      vertex 10.25 2.5 152.5
    endloop
  endfacet
  facet normal 0 0 -1
    outer loop
      vertex 10.25 1.76527 154.761
      vertex 15 3.23473 154.761
      vertex 15 1.76527 154.761
    endloop
  endfacet
  facet normal -0 0 -1
    outer loop
      vertex 15 3.23473 154.761
      vertex 10.25 1.76527 154.761
      vertex 10.25 3.23473 154.761
    endloop
  endfacet
  facet normal 0 -0.951057 -0.309015
    outer loop
      vertex 10.25 3.68882 153.364
      vertex 15 3.23473 154.761
      vertex 10.25 3.23473 154.761
    endloop
  endfacet
  facet normal 0 -0.951057 -0.309015
    outer loop
      vertex 15 3.23473 154.761
      vertex 10.25 3.68882 153.364
      vertex 15 3.68882 153.364
    endloop
  endfacet
  facet normal 0 0.951057 -0.309015
    outer loop
      vertex 15 1.31118 153.364
      vertex 10.25 1.76527 154.761
      vertex 15 1.76527 154.761
    endloop
  endfacet
  facet normal 0 0.951057 -0.309015
    outer loop
      vertex 10.25 1.76527 154.761
      vertex 15 1.31118 153.364
      vertex 10.25 1.31118 153.364
    endloop
  endfacet
  facet normal -0 0.587783 0.809019
    outer loop
      vertex 10.25 2.5 152.5
      vertex 15 1.31118 153.364
      vertex 15 2.5 152.5
    endloop
  endfacet
  facet normal 0 0.587783 0.809019
    outer loop
      vertex 15 1.31118 153.364
      vertex 10.25 2.5 152.5
      vertex 10.25 1.31118 153.364
    endloop
  endfacet
endsolid OpenSCAD_Model
