solid OpenSCAD_Model
  facet normal -1 0 0
    outer loop
      vertex -99 -34 0
      vertex -99 34 20
      vertex -99 34 0
    endloop
  endfacet
  facet normal -1 -0 0
    outer loop
      vertex -99 34 20
      vertex -99 -34 0
      vertex -99 -34 20
    endloop
  endfacet
  facet normal 0 0 1
    outer loop
      vertex -84 -15.5885 20
      vertex -81 -20 20
      vertex -80.5623 -17.119 20
    endloop
  endfacet
  facet normal 0 0 1
    outer loop
      vertex -91 -20 20
      vertex -84 -15.5885 20
      vertex -87.0443 -13.3766 20
    endloop
  endfacet
  facet normal 0 0 1
    outer loop
      vertex -84 -15.5885 20
      vertex -91 -20 20
      vertex -81 -20 20
    endloop
  endfacet
  facet normal 0 0 1
    outer loop
      vertex -89.5623 -10.5801 20
      vertex -91 -20 20
      vertex -87.0443 -13.3766 20
    endloop
  endfacet
  facet normal 0 0 1
    outer loop
      vertex -99 -34 20
      vertex -91 -20 20
      vertex -91.4438 -7.32126 20
    endloop
  endfacet
  facet normal 0 0 1
    outer loop
      vertex -91.4438 -7.32126 20
      vertex -91 -20 20
      vertex -89.5623 -10.5801 20
    endloop
  endfacet
  facet normal -0 0 1
    outer loop
      vertex 88 -4 20
      vertex 99 -34 20
      vertex 99 34 20
    endloop
  endfacet
  facet normal 0 0 1
    outer loop
      vertex 88 -4 20
      vertex 99 34 20
      vertex 88 4 20
    endloop
  endfacet
  facet normal 0 0 1
    outer loop
      vertex 99 34 20
      vertex -54 4 20
      vertex 88 4 20
    endloop
  endfacet
  facet normal 0 0 1
    outer loop
      vertex -54 4 20
      vertex -57 0 20
      vertex -54 -4 20
    endloop
  endfacet
  facet normal 0 0 1
    outer loop
      vertex -54 4 20
      vertex -57.3933 3.74241 20
      vertex -57 0 20
    endloop
  endfacet
  facet normal -0 0 1
    outer loop
      vertex -60.4377 10.5801 20
      vertex -54 4 20
      vertex 99 34 20
    endloop
  endfacet
  facet normal 0 0 1
    outer loop
      vertex -54 4 20
      vertex -58.5562 7.32126 20
      vertex -57.3933 3.74241 20
    endloop
  endfacet
  facet normal 0 0 1
    outer loop
      vertex -54 4 20
      vertex -60.4377 10.5801 20
      vertex -58.5562 7.32126 20
    endloop
  endfacet
  facet normal 0 0 1
    outer loop
      vertex 99 34 20
      vertex -62.9557 13.3766 20
      vertex -60.4377 10.5801 20
    endloop
  endfacet
  facet normal 0 0 1
    outer loop
      vertex 99 34 20
      vertex -66 15.5885 20
      vertex -62.9557 13.3766 20
    endloop
  endfacet
  facet normal 0 0 1
    outer loop
      vertex 99 34 20
      vertex -69.4377 17.119 20
      vertex -66 15.5885 20
    endloop
  endfacet
  facet normal -0 0 1
    outer loop
      vertex -99 34 20
      vertex -69.4377 17.119 20
      vertex 99 34 20
    endloop
  endfacet
  facet normal 0 0 1
    outer loop
      vertex -69.4377 17.119 20
      vertex -99 34 20
      vertex -73.1185 17.9014 20
    endloop
  endfacet
  facet normal 0 0 1
    outer loop
      vertex -92.6067 3.74241 20
      vertex -99 34 20
      vertex -93 0 20
    endloop
  endfacet
  facet normal 0 0 1
    outer loop
      vertex -91.4438 7.32126 20
      vertex -99 34 20
      vertex -92.6067 3.74241 20
    endloop
  endfacet
  facet normal 0 0 1
    outer loop
      vertex -89.5623 10.5801 20
      vertex -99 34 20
      vertex -91.4438 7.32126 20
    endloop
  endfacet
  facet normal 0 0 1
    outer loop
      vertex -87.0443 13.3766 20
      vertex -99 34 20
      vertex -89.5623 10.5801 20
    endloop
  endfacet
  facet normal 0 0 1
    outer loop
      vertex -84 15.5885 20
      vertex -99 34 20
      vertex -87.0443 13.3766 20
    endloop
  endfacet
  facet normal 0 0 1
    outer loop
      vertex -80.5623 17.119 20
      vertex -99 34 20
      vertex -84 15.5885 20
    endloop
  endfacet
  facet normal 0 0 1
    outer loop
      vertex -76.8815 17.9014 20
      vertex -99 34 20
      vertex -80.5623 17.119 20
    endloop
  endfacet
  facet normal 0 0 1
    outer loop
      vertex -73.1185 17.9014 20
      vertex -99 34 20
      vertex -76.8815 17.9014 20
    endloop
  endfacet
  facet normal -0 0 1
    outer loop
      vertex 91 -30 20
      vertex 99 -34 20
      vertex 91 -20 20
    endloop
  endfacet
  facet normal -0 0 1
    outer loop
      vertex 81 -30 20
      vertex 99 -34 20
      vertex 91 -30 20
    endloop
  endfacet
  facet normal -0 0 1
    outer loop
      vertex -60.4377 -10.5801 20
      vertex 81 -30 20
      vertex -54 -4 20
    endloop
  endfacet
  facet normal -0 0 1
    outer loop
      vertex -57.3933 -3.74241 20
      vertex -54 -4 20
      vertex -57 0 20
    endloop
  endfacet
  facet normal 0 0 1
    outer loop
      vertex -58.5562 -7.32126 20
      vertex -54 -4 20
      vertex -57.3933 -3.74241 20
    endloop
  endfacet
  facet normal 0 0 1
    outer loop
      vertex -60.4377 -10.5801 20
      vertex -54 -4 20
      vertex -58.5562 -7.32126 20
    endloop
  endfacet
  facet normal -0 0 1
    outer loop
      vertex -62.9557 -13.3766 20
      vertex 81 -30 20
      vertex -60.4377 -10.5801 20
    endloop
  endfacet
  facet normal 0 0 1
    outer loop
      vertex -81 -30 20
      vertex 81 -30 20
      vertex -62.9557 -13.3766 20
    endloop
  endfacet
  facet normal 0 0 1
    outer loop
      vertex -81 -30 20
      vertex -62.9557 -13.3766 20
      vertex -66 -15.5885 20
    endloop
  endfacet
  facet normal 0 0 1
    outer loop
      vertex -81 -30 20
      vertex -66 -15.5885 20
      vertex -69.4377 -17.119 20
    endloop
  endfacet
  facet normal 0 0 1
    outer loop
      vertex -81 -30 20
      vertex -69.4377 -17.119 20
      vertex -73.1185 -17.9014 20
    endloop
  endfacet
  facet normal 0 0 1
    outer loop
      vertex -81 -30 20
      vertex -73.1185 -17.9014 20
      vertex -76.8815 -17.9014 20
    endloop
  endfacet
  facet normal 0 0 1
    outer loop
      vertex -81 -20 20
      vertex -76.8815 -17.9014 20
      vertex -80.5623 -17.119 20
    endloop
  endfacet
  facet normal 0 0 1
    outer loop
      vertex -81 -30 20
      vertex -76.8815 -17.9014 20
      vertex -81 -20 20
    endloop
  endfacet
  facet normal 0 0 1
    outer loop
      vertex 81 -30 20
      vertex -81 -30 20
      vertex 99 -34 20
    endloop
  endfacet
  facet normal 0 0 1
    outer loop
      vertex -99 -34 20
      vertex -81 -30 20
      vertex -91 -30 20
    endloop
  endfacet
  facet normal 0 0 1
    outer loop
      vertex -99 -34 20
      vertex -91.4438 -7.32126 20
      vertex -92.6067 -3.74241 20
    endloop
  endfacet
  facet normal 0 0 1
    outer loop
      vertex -99 -34 20
      vertex -92.6067 -3.74241 20
      vertex -93 0 20
    endloop
  endfacet
  facet normal 0 0 1
    outer loop
      vertex -99 -34 20
      vertex -93 0 20
      vertex -99 34 20
    endloop
  endfacet
  facet normal 0 0 1
    outer loop
      vertex -81 -30 20
      vertex -99 -34 20
      vertex 99 -34 20
    endloop
  endfacet
  facet normal 0 0 1
    outer loop
      vertex -91 -20 20
      vertex -99 -34 20
      vertex -91 -30 20
    endloop
  endfacet
  facet normal 0 0 1
    outer loop
      vertex 99 -34 20
      vertex 88 -4 20
      vertex 91 -20 20
    endloop
  endfacet
  facet normal 0 0 1
    outer loop
      vertex 88 -4 20
      vertex 81 -20 20
      vertex 91 -20 20
    endloop
  endfacet
  facet normal 0 0 1
    outer loop
      vertex 81 -20 20
      vertex -54 -4 20
      vertex 81 -30 20
    endloop
  endfacet
  facet normal -0 0 1
    outer loop
      vertex -54 -4 20
      vertex 81 -20 20
      vertex 88 -4 20
    endloop
  endfacet
  facet normal 1 -0 0
    outer loop
      vertex 99 -34 20
      vertex 99 34 0
      vertex 99 34 20
    endloop
  endfacet
  facet normal 1 0 0
    outer loop
      vertex 99 34 0
      vertex 99 -34 20
      vertex 99 -34 0
    endloop
  endfacet
  facet normal 0 1 -0
    outer loop
      vertex 99 34 0
      vertex -99 34 20
      vertex 99 34 20
    endloop
  endfacet
  facet normal 0 1 0
    outer loop
      vertex -99 34 20
      vertex 99 34 0
      vertex -99 34 0
    endloop
  endfacet
  facet normal 0 0 -1
    outer loop
      vertex 99 -34 0
      vertex 96.5 -31.5 0
      vertex 99 34 0
    endloop
  endfacet
  facet normal 0 0 -1
    outer loop
      vertex 99 -34 0
      vertex -96.5 -31.5 0
      vertex 96.5 -31.5 0
    endloop
  endfacet
  facet normal -0 0 -1
    outer loop
      vertex -96.5 -31.5 0
      vertex -99 -34 0
      vertex -96.5 31.5 0
    endloop
  endfacet
  facet normal 0 0 -1
    outer loop
      vertex -99 -34 0
      vertex -96.5 -31.5 0
      vertex 99 -34 0
    endloop
  endfacet
  facet normal 0 0 -1
    outer loop
      vertex 96.5 31.5 0
      vertex 99 34 0
      vertex 96.5 -31.5 0
    endloop
  endfacet
  facet normal 0 0 -1
    outer loop
      vertex -96.5 31.5 0
      vertex 99 34 0
      vertex 96.5 31.5 0
    endloop
  endfacet
  facet normal 0 0 -1
    outer loop
      vertex -96.5 31.5 0
      vertex -99 34 0
      vertex 99 34 0
    endloop
  endfacet
  facet normal 0 0 -1
    outer loop
      vertex -99 34 0
      vertex -96.5 31.5 0
      vertex -99 -34 0
    endloop
  endfacet
  facet normal 0 -1 0
    outer loop
      vertex -99 -34 0
      vertex 99 -34 20
      vertex -99 -34 20
    endloop
  endfacet
  facet normal 0 -1 -0
    outer loop
      vertex 99 -34 20
      vertex -99 -34 0
      vertex 99 -34 0
    endloop
  endfacet
  facet normal 0.994522 0.104528 0
    outer loop
      vertex -57 0 60
      vertex -57.3933 3.74241 20
      vertex -57.3933 3.74241 60
    endloop
  endfacet
  facet normal 0.994522 0.104528 0
    outer loop
      vertex -57.3933 3.74241 20
      vertex -57 0 60
      vertex -57 0 20
    endloop
  endfacet
  facet normal -0.994522 0.104528 0
    outer loop
      vertex -93 0 20
      vertex -92.6067 3.74241 60
      vertex -92.6067 3.74241 20
    endloop
  endfacet
  facet normal -0.994522 0.104528 0
    outer loop
      vertex -92.6067 3.74241 60
      vertex -93 0 20
      vertex -93 0 60
    endloop
  endfacet
  facet normal 0 1 -0
    outer loop
      vertex -73.1185 17.9014 20
      vertex -76.8815 17.9014 60
      vertex -73.1185 17.9014 60
    endloop
  endfacet
  facet normal 0 1 0
    outer loop
      vertex -76.8815 17.9014 60
      vertex -73.1185 17.9014 20
      vertex -76.8815 17.9014 20
    endloop
  endfacet
  facet normal 0 -1 0
    outer loop
      vertex -76.8815 -17.9014 20
      vertex -73.1185 -17.9014 60
      vertex -76.8815 -17.9014 60
    endloop
  endfacet
  facet normal 0 -1 -0
    outer loop
      vertex -73.1185 -17.9014 60
      vertex -76.8815 -17.9014 20
      vertex -73.1185 -17.9014 20
    endloop
  endfacet
  facet normal 0.587786 0.809017 -0
    outer loop
      vertex -62.9557 13.3766 20
      vertex -66 15.5885 60
      vertex -62.9557 13.3766 60
    endloop
  endfacet
  facet normal 0.587786 0.809017 0
    outer loop
      vertex -66 15.5885 60
      vertex -62.9557 13.3766 20
      vertex -66 15.5885 20
    endloop
  endfacet
  facet normal -0.743145 0.66913 0
    outer loop
      vertex -89.5623 10.5801 20
      vertex -87.0443 13.3766 60
      vertex -87.0443 13.3766 20
    endloop
  endfacet
  facet normal -0.743145 0.66913 0
    outer loop
      vertex -87.0443 13.3766 60
      vertex -89.5623 10.5801 20
      vertex -89.5623 10.5801 60
    endloop
  endfacet
  facet normal -0.866025 0.500001 0
    outer loop
      vertex -91.4438 7.32126 20
      vertex -89.5623 10.5801 60
      vertex -89.5623 10.5801 20
    endloop
  endfacet
  facet normal -0.866025 0.500001 0
    outer loop
      vertex -89.5623 10.5801 60
      vertex -91.4438 7.32126 20
      vertex -91.4438 7.32126 60
    endloop
  endfacet
  facet normal -0.406736 0.913546 0
    outer loop
      vertex -80.5623 17.119 20
      vertex -84 15.5885 60
      vertex -80.5623 17.119 60
    endloop
  endfacet
  facet normal -0.406736 0.913546 0
    outer loop
      vertex -84 15.5885 60
      vertex -80.5623 17.119 20
      vertex -84 15.5885 20
    endloop
  endfacet
  facet normal 0.866025 -0.5 0
    outer loop
      vertex -60.4377 -10.5801 60
      vertex -58.5562 -7.32126 20
      vertex -58.5562 -7.32126 60
    endloop
  endfacet
  facet normal 0.866025 -0.5 0
    outer loop
      vertex -58.5562 -7.32126 20
      vertex -60.4377 -10.5801 60
      vertex -60.4377 -10.5801 20
    endloop
  endfacet
  facet normal 0.866025 0.5 0
    outer loop
      vertex -58.5562 7.32126 60
      vertex -60.4377 10.5801 20
      vertex -60.4377 10.5801 60
    endloop
  endfacet
  facet normal 0.866025 0.5 0
    outer loop
      vertex -60.4377 10.5801 20
      vertex -58.5562 7.32126 60
      vertex -58.5562 7.32126 20
    endloop
  endfacet
  facet normal 0.951056 0.309018 0
    outer loop
      vertex -57.3933 3.74241 60
      vertex -58.5562 7.32126 20
      vertex -58.5562 7.32126 60
    endloop
  endfacet
  facet normal 0.951056 0.309018 0
    outer loop
      vertex -58.5562 7.32126 20
      vertex -57.3933 3.74241 60
      vertex -57.3933 3.74241 20
    endloop
  endfacet
  facet normal 0.743145 0.669131 0
    outer loop
      vertex -60.4377 10.5801 60
      vertex -62.9557 13.3766 20
      vertex -62.9557 13.3766 60
    endloop
  endfacet
  facet normal 0.743145 0.669131 0
    outer loop
      vertex -62.9557 13.3766 20
      vertex -60.4377 10.5801 60
      vertex -60.4377 10.5801 20
    endloop
  endfacet
  facet normal 0.207912 0.978148 -0
    outer loop
      vertex -69.4377 17.119 20
      vertex -73.1185 17.9014 60
      vertex -69.4377 17.119 60
    endloop
  endfacet
  facet normal 0.207912 0.978148 0
    outer loop
      vertex -73.1185 17.9014 60
      vertex -69.4377 17.119 20
      vertex -73.1185 17.9014 20
    endloop
  endfacet
  facet normal 0.406737 0.913545 -0
    outer loop
      vertex -66 15.5885 20
      vertex -69.4377 17.119 60
      vertex -66 15.5885 60
    endloop
  endfacet
  facet normal 0.406737 0.913545 0
    outer loop
      vertex -69.4377 17.119 60
      vertex -66 15.5885 20
      vertex -69.4377 17.119 20
    endloop
  endfacet
  facet normal -0.951056 0.309018 0
    outer loop
      vertex -92.6067 3.74241 20
      vertex -91.4438 7.32126 60
      vertex -91.4438 7.32126 20
    endloop
  endfacet
  facet normal -0.951056 0.309018 0
    outer loop
      vertex -91.4438 7.32126 60
      vertex -92.6067 3.74241 20
      vertex -92.6067 3.74241 60
    endloop
  endfacet
  facet normal 0 0 1
    outer loop
      vertex -60 0 60
      vertex -57 0 60
      vertex -57.3933 3.74241 60
    endloop
  endfacet
  facet normal 0 0 1
    outer loop
      vertex -60.3278 3.11868 60
      vertex -57.3933 3.74241 60
      vertex -58.5562 7.32126 60
    endloop
  endfacet
  facet normal 0 0 1
    outer loop
      vertex -57 0 60
      vertex -60 0 60
      vertex -57.3933 -3.74241 60
    endloop
  endfacet
  facet normal -0 0 1
    outer loop
      vertex -60.3278 -3.11868 60
      vertex -57.3933 -3.74241 60
      vertex -60 0 60
    endloop
  endfacet
  facet normal 0 0 1
    outer loop
      vertex -57.3933 3.74241 60
      vertex -60.3278 3.11868 60
      vertex -60 0 60
    endloop
  endfacet
  facet normal 0 0 1
    outer loop
      vertex -61.2968 6.10105 60
      vertex -58.5562 7.32126 60
      vertex -60.4377 10.5801 60
    endloop
  endfacet
  facet normal 0 0 1
    outer loop
      vertex -58.5562 7.32126 60
      vertex -61.2968 6.10105 60
      vertex -60.3278 3.11868 60
    endloop
  endfacet
  facet normal 0 0 1
    outer loop
      vertex -60.4377 10.5801 60
      vertex -62.8647 8.81678 60
      vertex -61.2968 6.10105 60
    endloop
  endfacet
  facet normal 0 0 1
    outer loop
      vertex -62.9557 13.3766 60
      vertex -62.8647 8.81678 60
      vertex -60.4377 10.5801 60
    endloop
  endfacet
  facet normal 0 0 1
    outer loop
      vertex -62.9557 13.3766 60
      vertex -64.963 11.1472 60
      vertex -62.8647 8.81678 60
    endloop
  endfacet
  facet normal 0 0 1
    outer loop
      vertex -66 15.5885 60
      vertex -64.963 11.1472 60
      vertex -62.9557 13.3766 60
    endloop
  endfacet
  facet normal 0 0 1
    outer loop
      vertex -66 15.5885 60
      vertex -67.5 12.9904 60
      vertex -64.963 11.1472 60
    endloop
  endfacet
  facet normal 0 0 1
    outer loop
      vertex -69.4377 17.119 60
      vertex -67.5 12.9904 60
      vertex -66 15.5885 60
    endloop
  endfacet
  facet normal 0 0 1
    outer loop
      vertex -69.4377 17.119 60
      vertex -70.3647 14.2658 60
      vertex -67.5 12.9904 60
    endloop
  endfacet
  facet normal 0 0 1
    outer loop
      vertex -73.1185 17.9014 60
      vertex -70.3647 14.2658 60
      vertex -69.4377 17.119 60
    endloop
  endfacet
  facet normal 0 0 1
    outer loop
      vertex -73.1185 17.9014 60
      vertex -73.4321 14.9178 60
      vertex -70.3647 14.2658 60
    endloop
  endfacet
  facet normal 0 0 1
    outer loop
      vertex -73.1185 17.9014 60
      vertex -76.5679 14.9178 60
      vertex -73.4321 14.9178 60
    endloop
  endfacet
  facet normal -0 0 1
    outer loop
      vertex -76.8815 17.9014 60
      vertex -76.5679 14.9178 60
      vertex -73.1185 17.9014 60
    endloop
  endfacet
  facet normal 0 0 1
    outer loop
      vertex -76.8815 17.9014 60
      vertex -79.6353 14.2658 60
      vertex -76.5679 14.9178 60
    endloop
  endfacet
  facet normal -0 0 1
    outer loop
      vertex -80.5623 17.119 60
      vertex -79.6353 14.2658 60
      vertex -76.8815 17.9014 60
    endloop
  endfacet
  facet normal 0 0 1
    outer loop
      vertex -80.5623 17.119 60
      vertex -82.5 12.9904 60
      vertex -79.6353 14.2658 60
    endloop
  endfacet
  facet normal -0 0 1
    outer loop
      vertex -84 15.5885 60
      vertex -82.5 12.9904 60
      vertex -80.5623 17.119 60
    endloop
  endfacet
  facet normal 0 0 1
    outer loop
      vertex -84 15.5885 60
      vertex -85.037 11.1472 60
      vertex -82.5 12.9904 60
    endloop
  endfacet
  facet normal -0 0 1
    outer loop
      vertex -87.0443 13.3766 60
      vertex -85.037 11.1472 60
      vertex -84 15.5885 60
    endloop
  endfacet
  facet normal 0 0 1
    outer loop
      vertex -87.0443 13.3766 60
      vertex -87.1353 8.81678 60
      vertex -85.037 11.1472 60
    endloop
  endfacet
  facet normal -0 0 1
    outer loop
      vertex -89.5623 10.5801 60
      vertex -87.1353 8.81678 60
      vertex -87.0443 13.3766 60
    endloop
  endfacet
  facet normal 0 0 1
    outer loop
      vertex -87.1353 8.81678 60
      vertex -89.5623 10.5801 60
      vertex -88.7032 6.10105 60
    endloop
  endfacet
  facet normal -0 0 1
    outer loop
      vertex -91.4438 7.32126 60
      vertex -88.7032 6.10105 60
      vertex -89.5623 10.5801 60
    endloop
  endfacet
  facet normal 0 0 1
    outer loop
      vertex -88.7032 6.10105 60
      vertex -91.4438 7.32126 60
      vertex -89.6722 3.11868 60
    endloop
  endfacet
  facet normal -0 0 1
    outer loop
      vertex -92.6067 3.74241 60
      vertex -89.6722 3.11868 60
      vertex -91.4438 7.32126 60
    endloop
  endfacet
  facet normal 0 0 1
    outer loop
      vertex -57.3933 -3.74241 60
      vertex -60.3278 -3.11868 60
      vertex -58.5562 -7.32126 60
    endloop
  endfacet
  facet normal -0 0 1
    outer loop
      vertex -61.2968 -6.10105 60
      vertex -58.5562 -7.32126 60
      vertex -60.3278 -3.11868 60
    endloop
  endfacet
  facet normal 0 0 1
    outer loop
      vertex -58.5562 -7.32126 60
      vertex -61.2968 -6.10105 60
      vertex -60.4377 -10.5801 60
    endloop
  endfacet
  facet normal -0 0 1
    outer loop
      vertex -62.8647 -8.81678 60
      vertex -60.4377 -10.5801 60
      vertex -61.2968 -6.10105 60
    endloop
  endfacet
  facet normal 0 0 1
    outer loop
      vertex -62.8647 -8.81678 60
      vertex -62.9557 -13.3766 60
      vertex -60.4377 -10.5801 60
    endloop
  endfacet
  facet normal -0 0 1
    outer loop
      vertex -64.963 -11.1472 60
      vertex -62.9557 -13.3766 60
      vertex -62.8647 -8.81678 60
    endloop
  endfacet
  facet normal 0 0 1
    outer loop
      vertex -64.963 -11.1472 60
      vertex -66 -15.5885 60
      vertex -62.9557 -13.3766 60
    endloop
  endfacet
  facet normal -0 0 1
    outer loop
      vertex -67.5 -12.9904 60
      vertex -66 -15.5885 60
      vertex -64.963 -11.1472 60
    endloop
  endfacet
  facet normal 0 0 1
    outer loop
      vertex -67.5 -12.9904 60
      vertex -69.4377 -17.119 60
      vertex -66 -15.5885 60
    endloop
  endfacet
  facet normal -0 0 1
    outer loop
      vertex -70.3647 -14.2658 60
      vertex -69.4377 -17.119 60
      vertex -67.5 -12.9904 60
    endloop
  endfacet
  facet normal 0 0 1
    outer loop
      vertex -70.3647 -14.2658 60
      vertex -73.1185 -17.9014 60
      vertex -69.4377 -17.119 60
    endloop
  endfacet
  facet normal -0 0 1
    outer loop
      vertex -73.4321 -14.9178 60
      vertex -73.1185 -17.9014 60
      vertex -70.3647 -14.2658 60
    endloop
  endfacet
  facet normal -0 0 1
    outer loop
      vertex -76.5679 -14.9178 60
      vertex -73.1185 -17.9014 60
      vertex -73.4321 -14.9178 60
    endloop
  endfacet
  facet normal 0 0 1
    outer loop
      vertex -76.5679 -14.9178 60
      vertex -76.8815 -17.9014 60
      vertex -73.1185 -17.9014 60
    endloop
  endfacet
  facet normal 0 0 1
    outer loop
      vertex -79.6353 -14.2658 60
      vertex -76.8815 -17.9014 60
      vertex -76.5679 -14.9178 60
    endloop
  endfacet
  facet normal 0 0 1
    outer loop
      vertex -79.6353 -14.2658 60
      vertex -80.5623 -17.119 60
      vertex -76.8815 -17.9014 60
    endloop
  endfacet
  facet normal 0 0 1
    outer loop
      vertex -82.5 -12.9904 60
      vertex -80.5623 -17.119 60
      vertex -79.6353 -14.2658 60
    endloop
  endfacet
  facet normal 0 0 1
    outer loop
      vertex -82.5 -12.9904 60
      vertex -84 -15.5885 60
      vertex -80.5623 -17.119 60
    endloop
  endfacet
  facet normal 0 0 1
    outer loop
      vertex -85.037 -11.1472 60
      vertex -84 -15.5885 60
      vertex -82.5 -12.9904 60
    endloop
  endfacet
  facet normal 0 0 1
    outer loop
      vertex -85.037 -11.1472 60
      vertex -87.0443 -13.3766 60
      vertex -84 -15.5885 60
    endloop
  endfacet
  facet normal 0 0 1
    outer loop
      vertex -87.1353 -8.81678 60
      vertex -87.0443 -13.3766 60
      vertex -85.037 -11.1472 60
    endloop
  endfacet
  facet normal 0 0 1
    outer loop
      vertex -89.5623 -10.5801 60
      vertex -87.1353 -8.81678 60
      vertex -88.7032 -6.10105 60
    endloop
  endfacet
  facet normal 0 0 1
    outer loop
      vertex -87.1353 -8.81678 60
      vertex -89.5623 -10.5801 60
      vertex -87.0443 -13.3766 60
    endloop
  endfacet
  facet normal 0 0 1
    outer loop
      vertex -91.4438 -7.32126 60
      vertex -88.7032 -6.10105 60
      vertex -89.6722 -3.11868 60
    endloop
  endfacet
  facet normal 0 0 1
    outer loop
      vertex -92.6067 -3.74241 60
      vertex -89.6722 -3.11868 60
      vertex -90 0 60
    endloop
  endfacet
  facet normal 0 0 1
    outer loop
      vertex -89.6722 3.11868 60
      vertex -92.6067 3.74241 60
      vertex -90 0 60
    endloop
  endfacet
  facet normal 0 0 1
    outer loop
      vertex -88.7032 -6.10105 60
      vertex -91.4438 -7.32126 60
      vertex -89.5623 -10.5801 60
    endloop
  endfacet
  facet normal 0 0 1
    outer loop
      vertex -93 0 60
      vertex -90 0 60
      vertex -92.6067 3.74241 60
    endloop
  endfacet
  facet normal 0 0 1
    outer loop
      vertex -89.6722 -3.11868 60
      vertex -92.6067 -3.74241 60
      vertex -91.4438 -7.32126 60
    endloop
  endfacet
  facet normal 0 0 1
    outer loop
      vertex -90 0 60
      vertex -93 0 60
      vertex -92.6067 -3.74241 60
    endloop
  endfacet
  facet normal -0.587786 0.809017 0
    outer loop
      vertex -84 15.5885 20
      vertex -87.0443 13.3766 60
      vertex -84 15.5885 60
    endloop
  endfacet
  facet normal -0.587786 0.809017 0
    outer loop
      vertex -87.0443 13.3766 60
      vertex -84 15.5885 20
      vertex -87.0443 13.3766 20
    endloop
  endfacet
  facet normal -0.207912 0.978147 0
    outer loop
      vertex -76.8815 17.9014 20
      vertex -80.5623 17.119 60
      vertex -76.8815 17.9014 60
    endloop
  endfacet
  facet normal -0.207912 0.978147 0
    outer loop
      vertex -80.5623 17.119 60
      vertex -76.8815 17.9014 20
      vertex -80.5623 17.119 20
    endloop
  endfacet
  facet normal 0.994522 -0.104528 0
    outer loop
      vertex -57.3933 -3.74241 60
      vertex -57 0 20
      vertex -57 0 60
    endloop
  endfacet
  facet normal 0.994522 -0.104528 0
    outer loop
      vertex -57 0 20
      vertex -57.3933 -3.74241 60
      vertex -57.3933 -3.74241 20
    endloop
  endfacet
  facet normal 0.951056 -0.309018 0
    outer loop
      vertex -58.5562 -7.32126 60
      vertex -57.3933 -3.74241 20
      vertex -57.3933 -3.74241 60
    endloop
  endfacet
  facet normal 0.951056 -0.309018 0
    outer loop
      vertex -57.3933 -3.74241 20
      vertex -58.5562 -7.32126 60
      vertex -58.5562 -7.32126 20
    endloop
  endfacet
  facet normal -0.866025 -0.500001 0
    outer loop
      vertex -89.5623 -10.5801 20
      vertex -91.4438 -7.32126 60
      vertex -91.4438 -7.32126 20
    endloop
  endfacet
  facet normal -0.866025 -0.500001 0
    outer loop
      vertex -91.4438 -7.32126 60
      vertex -89.5623 -10.5801 20
      vertex -89.5623 -10.5801 60
    endloop
  endfacet
  facet normal 0.587786 -0.809017 0
    outer loop
      vertex -66 -15.5885 20
      vertex -62.9557 -13.3766 60
      vertex -66 -15.5885 60
    endloop
  endfacet
  facet normal 0.587786 -0.809017 0
    outer loop
      vertex -62.9557 -13.3766 60
      vertex -66 -15.5885 20
      vertex -62.9557 -13.3766 20
    endloop
  endfacet
  facet normal -0.207912 -0.978147 0
    outer loop
      vertex -80.5623 -17.119 20
      vertex -76.8815 -17.9014 60
      vertex -80.5623 -17.119 60
    endloop
  endfacet
  facet normal -0.207912 -0.978147 -0
    outer loop
      vertex -76.8815 -17.9014 60
      vertex -80.5623 -17.119 20
      vertex -76.8815 -17.9014 20
    endloop
  endfacet
  facet normal -0.743145 -0.66913 0
    outer loop
      vertex -87.0443 -13.3766 20
      vertex -89.5623 -10.5801 60
      vertex -89.5623 -10.5801 20
    endloop
  endfacet
  facet normal -0.743145 -0.66913 0
    outer loop
      vertex -89.5623 -10.5801 60
      vertex -87.0443 -13.3766 20
      vertex -87.0443 -13.3766 60
    endloop
  endfacet
  facet normal -0.951056 -0.309018 0
    outer loop
      vertex -91.4438 -7.32126 20
      vertex -92.6067 -3.74241 60
      vertex -92.6067 -3.74241 20
    endloop
  endfacet
  facet normal -0.951056 -0.309018 0
    outer loop
      vertex -92.6067 -3.74241 60
      vertex -91.4438 -7.32126 20
      vertex -91.4438 -7.32126 60
    endloop
  endfacet
  facet normal -0.994522 -0.104528 0
    outer loop
      vertex -92.6067 -3.74241 20
      vertex -93 0 60
      vertex -93 0 20
    endloop
  endfacet
  facet normal -0.994522 -0.104528 0
    outer loop
      vertex -93 0 60
      vertex -92.6067 -3.74241 20
      vertex -92.6067 -3.74241 60
    endloop
  endfacet
  facet normal 0.406737 -0.913545 0
    outer loop
      vertex -69.4377 -17.119 20
      vertex -66 -15.5885 60
      vertex -69.4377 -17.119 60
    endloop
  endfacet
  facet normal 0.406737 -0.913545 0
    outer loop
      vertex -66 -15.5885 60
      vertex -69.4377 -17.119 20
      vertex -66 -15.5885 20
    endloop
  endfacet
  facet normal 0.207912 -0.978148 0
    outer loop
      vertex -73.1185 -17.9014 20
      vertex -69.4377 -17.119 60
      vertex -73.1185 -17.9014 60
    endloop
  endfacet
  facet normal 0.207912 -0.978148 0
    outer loop
      vertex -69.4377 -17.119 60
      vertex -73.1185 -17.9014 20
      vertex -69.4377 -17.119 20
    endloop
  endfacet
  facet normal 0.743145 -0.669131 0
    outer loop
      vertex -62.9557 -13.3766 60
      vertex -60.4377 -10.5801 20
      vertex -60.4377 -10.5801 60
    endloop
  endfacet
  facet normal 0.743145 -0.669131 0
    outer loop
      vertex -60.4377 -10.5801 20
      vertex -62.9557 -13.3766 60
      vertex -62.9557 -13.3766 20
    endloop
  endfacet
  facet normal -0.406736 -0.913546 0
    outer loop
      vertex -84 -15.5885 20
      vertex -80.5623 -17.119 60
      vertex -84 -15.5885 60
    endloop
  endfacet
  facet normal -0.406736 -0.913546 -0
    outer loop
      vertex -80.5623 -17.119 60
      vertex -84 -15.5885 20
      vertex -80.5623 -17.119 20
    endloop
  endfacet
  facet normal -0.587786 -0.809017 0
    outer loop
      vertex -87.0443 -13.3766 20
      vertex -84 -15.5885 60
      vertex -87.0443 -13.3766 60
    endloop
  endfacet
  facet normal -0.587786 -0.809017 -0
    outer loop
      vertex -84 -15.5885 60
      vertex -87.0443 -13.3766 20
      vertex -84 -15.5885 20
    endloop
  endfacet
  facet normal 1 -0 0
    outer loop
      vertex -96.5 -31.5 14
      vertex -96.5 31.5 0
      vertex -96.5 31.5 14
    endloop
  endfacet
  facet normal 1 0 0
    outer loop
      vertex -96.5 31.5 0
      vertex -96.5 -31.5 14
      vertex -96.5 -31.5 0
    endloop
  endfacet
  facet normal 0 0 -1
    outer loop
      vertex 81 -20 14
      vertex 88 -4 14
      vertex 91 -20 14
    endloop
  endfacet
  facet normal -0 0 -1
    outer loop
      vertex 88 -4 14
      vertex 81 -20 14
      vertex -54 -4 14
    endloop
  endfacet
  facet normal 0 0 -1
    outer loop
      vertex 91 -20 14
      vertex 96.5 -31.5 14
      vertex 91 -30 14
    endloop
  endfacet
  facet normal 0 0 -1
    outer loop
      vertex 96.5 -31.5 14
      vertex 81 -30 14
      vertex 91 -30 14
    endloop
  endfacet
  facet normal 0 0 -1
    outer loop
      vertex 81 -30 14
      vertex -54 -4 14
      vertex 81 -20 14
    endloop
  endfacet
  facet normal 0 0 -1
    outer loop
      vertex -54 -4 14
      vertex -60 0 14
      vertex -54 4 14
    endloop
  endfacet
  facet normal 0 0 -1
    outer loop
      vertex -54 -4 14
      vertex -60.3278 -3.11868 14
      vertex -60 0 14
    endloop
  endfacet
  facet normal 0 0 -1
    outer loop
      vertex -81 -30 14
      vertex -54 -4 14
      vertex 81 -30 14
    endloop
  endfacet
  facet normal -0 0 -1
    outer loop
      vertex -54 -4 14
      vertex -61.2968 -6.10105 14
      vertex -60.3278 -3.11868 14
    endloop
  endfacet
  facet normal 0 0 -1
    outer loop
      vertex -54 -4 14
      vertex -62.8647 -8.81678 14
      vertex -61.2968 -6.10105 14
    endloop
  endfacet
  facet normal 0 0 -1
    outer loop
      vertex -54 -4 14
      vertex -64.963 -11.1472 14
      vertex -62.8647 -8.81678 14
    endloop
  endfacet
  facet normal 0 0 -1
    outer loop
      vertex -54 -4 14
      vertex -81 -30 14
      vertex -64.963 -11.1472 14
    endloop
  endfacet
  facet normal 0 0 -1
    outer loop
      vertex -64.963 -11.1472 14
      vertex -81 -30 14
      vertex -67.5 -12.9904 14
    endloop
  endfacet
  facet normal 0 0 -1
    outer loop
      vertex -67.5 -12.9904 14
      vertex -81 -30 14
      vertex -70.3647 -14.2658 14
    endloop
  endfacet
  facet normal 0 0 -1
    outer loop
      vertex -70.3647 -14.2658 14
      vertex -81 -30 14
      vertex -73.4321 -14.9178 14
    endloop
  endfacet
  facet normal 0 0 -1
    outer loop
      vertex -81 -30 14
      vertex 81 -30 14
      vertex 96.5 -31.5 14
    endloop
  endfacet
  facet normal -0 0 -1
    outer loop
      vertex -73.4321 -14.9178 14
      vertex -81 -20 14
      vertex -76.5679 -14.9178 14
    endloop
  endfacet
  facet normal 0 0 -1
    outer loop
      vertex -81 -20 14
      vertex -73.4321 -14.9178 14
      vertex -81 -30 14
    endloop
  endfacet
  facet normal 0 0 -1
    outer loop
      vertex -96.5 -31.5 14
      vertex -81 -30 14
      vertex 96.5 -31.5 14
    endloop
  endfacet
  facet normal -0 0 -1
    outer loop
      vertex -91 -30 14
      vertex -96.5 -31.5 14
      vertex -91 -20 14
    endloop
  endfacet
  facet normal -0 0 -1
    outer loop
      vertex -81 -30 14
      vertex -96.5 -31.5 14
      vertex -91 -30 14
    endloop
  endfacet
  facet normal 0 0 -1
    outer loop
      vertex 88 -4 14
      vertex 96.5 -31.5 14
      vertex 91 -20 14
    endloop
  endfacet
  facet normal 0 0 -1
    outer loop
      vertex 96.5 -31.5 14
      vertex 88 -4 14
      vertex 96.5 31.5 14
    endloop
  endfacet
  facet normal 0 0 -1
    outer loop
      vertex 88 4 14
      vertex 96.5 31.5 14
      vertex 88 -4 14
    endloop
  endfacet
  facet normal 0 0 -1
    outer loop
      vertex -54 4 14
      vertex 96.5 31.5 14
      vertex 88 4 14
    endloop
  endfacet
  facet normal 0 0 -1
    outer loop
      vertex -60.3278 3.11868 14
      vertex -54 4 14
      vertex -60 0 14
    endloop
  endfacet
  facet normal 0 0 -1
    outer loop
      vertex -61.2968 6.10105 14
      vertex -54 4 14
      vertex -60.3278 3.11868 14
    endloop
  endfacet
  facet normal 0 0 -1
    outer loop
      vertex -62.8647 8.81678 14
      vertex -54 4 14
      vertex -61.2968 6.10105 14
    endloop
  endfacet
  facet normal 0 0 -1
    outer loop
      vertex -64.963 11.1472 14
      vertex -54 4 14
      vertex -62.8647 8.81678 14
    endloop
  endfacet
  facet normal 0 0 -1
    outer loop
      vertex -54 4 14
      vertex -64.963 11.1472 14
      vertex 96.5 31.5 14
    endloop
  endfacet
  facet normal 0 0 -1
    outer loop
      vertex -67.5 12.9904 14
      vertex 96.5 31.5 14
      vertex -64.963 11.1472 14
    endloop
  endfacet
  facet normal 0 0 -1
    outer loop
      vertex -96.5 31.5 14
      vertex -67.5 12.9904 14
      vertex -70.3647 14.2658 14
    endloop
  endfacet
  facet normal 0 0 -1
    outer loop
      vertex -96.5 31.5 14
      vertex -70.3647 14.2658 14
      vertex -73.4321 14.9178 14
    endloop
  endfacet
  facet normal 0 0 -1
    outer loop
      vertex -96.5 31.5 14
      vertex -73.4321 14.9178 14
      vertex -76.5679 14.9178 14
    endloop
  endfacet
  facet normal -0 0 -1
    outer loop
      vertex -89.6722 -3.11868 14
      vertex -96.5 -31.5 14
      vertex -90 0 14
    endloop
  endfacet
  facet normal 0 0 -1
    outer loop
      vertex -96.5 31.5 14
      vertex -90 0 14
      vertex -96.5 -31.5 14
    endloop
  endfacet
  facet normal 0 0 -1
    outer loop
      vertex -67.5 12.9904 14
      vertex -96.5 31.5 14
      vertex 96.5 31.5 14
    endloop
  endfacet
  facet normal 0 0 -1
    outer loop
      vertex -79.6353 14.2658 14
      vertex -96.5 31.5 14
      vertex -76.5679 14.9178 14
    endloop
  endfacet
  facet normal 0 0 -1
    outer loop
      vertex -82.5 12.9904 14
      vertex -96.5 31.5 14
      vertex -79.6353 14.2658 14
    endloop
  endfacet
  facet normal 0 0 -1
    outer loop
      vertex -85.037 11.1472 14
      vertex -96.5 31.5 14
      vertex -82.5 12.9904 14
    endloop
  endfacet
  facet normal 0 0 -1
    outer loop
      vertex -87.1353 8.81678 14
      vertex -96.5 31.5 14
      vertex -85.037 11.1472 14
    endloop
  endfacet
  facet normal 0 0 -1
    outer loop
      vertex -88.7032 6.10105 14
      vertex -96.5 31.5 14
      vertex -87.1353 8.81678 14
    endloop
  endfacet
  facet normal 0 0 -1
    outer loop
      vertex -89.6722 3.11868 14
      vertex -96.5 31.5 14
      vertex -88.7032 6.10105 14
    endloop
  endfacet
  facet normal 0 0 -1
    outer loop
      vertex -90 0 14
      vertex -96.5 31.5 14
      vertex -89.6722 3.11868 14
    endloop
  endfacet
  facet normal -0 0 -1
    outer loop
      vertex -76.5679 -14.9178 14
      vertex -81 -20 14
      vertex -79.6353 -14.2658 14
    endloop
  endfacet
  facet normal 0 0 -1
    outer loop
      vertex -81 -20 14
      vertex -82.5 -12.9904 14
      vertex -79.6353 -14.2658 14
    endloop
  endfacet
  facet normal 0 0 -1
    outer loop
      vertex -91 -20 14
      vertex -82.5 -12.9904 14
      vertex -81 -20 14
    endloop
  endfacet
  facet normal -0 0 -1
    outer loop
      vertex -82.5 -12.9904 14
      vertex -91 -20 14
      vertex -85.037 -11.1472 14
    endloop
  endfacet
  facet normal -0 0 -1
    outer loop
      vertex -85.037 -11.1472 14
      vertex -91 -20 14
      vertex -87.1353 -8.81678 14
    endloop
  endfacet
  facet normal 0 0 -1
    outer loop
      vertex -96.5 -31.5 14
      vertex -89.6722 -3.11868 14
      vertex -91 -20 14
    endloop
  endfacet
  facet normal -0 0 -1
    outer loop
      vertex -88.7032 -6.10105 14
      vertex -91 -20 14
      vertex -89.6722 -3.11868 14
    endloop
  endfacet
  facet normal -0 0 -1
    outer loop
      vertex -87.1353 -8.81678 14
      vertex -91 -20 14
      vertex -88.7032 -6.10105 14
    endloop
  endfacet
  facet normal -1 0 0
    outer loop
      vertex 96.5 -31.5 0
      vertex 96.5 31.5 14
      vertex 96.5 31.5 0
    endloop
  endfacet
  facet normal -1 -0 0
    outer loop
      vertex 96.5 31.5 14
      vertex 96.5 -31.5 0
      vertex 96.5 -31.5 14
    endloop
  endfacet
  facet normal 0 1 -0
    outer loop
      vertex 96.5 -31.5 0
      vertex -96.5 -31.5 14
      vertex 96.5 -31.5 14
    endloop
  endfacet
  facet normal 0 1 0
    outer loop
      vertex -96.5 -31.5 14
      vertex 96.5 -31.5 0
      vertex -96.5 -31.5 0
    endloop
  endfacet
  facet normal 0 -1 0
    outer loop
      vertex -96.5 31.5 0
      vertex 96.5 31.5 14
      vertex -96.5 31.5 14
    endloop
  endfacet
  facet normal 0 -1 -0
    outer loop
      vertex 96.5 31.5 14
      vertex -96.5 31.5 0
      vertex 96.5 31.5 0
    endloop
  endfacet
  facet normal -0.866025 -0.5 0
    outer loop
      vertex -61.2968 6.10105 14
      vertex -62.8647 8.81678 60
      vertex -62.8647 8.81678 14
    endloop
  endfacet
  facet normal -0.866025 -0.5 0
    outer loop
      vertex -62.8647 8.81678 60
      vertex -61.2968 6.10105 14
      vertex -61.2968 6.10105 60
    endloop
  endfacet
  facet normal -0.743145 -0.669131 0
    outer loop
      vertex -62.8647 8.81678 14
      vertex -64.963 11.1472 60
      vertex -64.963 11.1472 14
    endloop
  endfacet
  facet normal -0.743145 -0.669131 0
    outer loop
      vertex -64.963 11.1472 60
      vertex -62.8647 8.81678 14
      vertex -62.8647 8.81678 60
    endloop
  endfacet
  facet normal -0.207912 -0.978148 0
    outer loop
      vertex -73.4321 14.9178 14
      vertex -70.3647 14.2658 60
      vertex -73.4321 14.9178 60
    endloop
  endfacet
  facet normal -0.207912 -0.978148 -0
    outer loop
      vertex -70.3647 14.2658 60
      vertex -73.4321 14.9178 14
      vertex -70.3647 14.2658 14
    endloop
  endfacet
  facet normal -0.406737 -0.913545 0
    outer loop
      vertex -70.3647 14.2658 14
      vertex -67.5 12.9904 60
      vertex -70.3647 14.2658 60
    endloop
  endfacet
  facet normal -0.406737 -0.913545 -0
    outer loop
      vertex -67.5 12.9904 60
      vertex -70.3647 14.2658 14
      vertex -67.5 12.9904 14
    endloop
  endfacet
  facet normal 0.207912 -0.978148 0
    outer loop
      vertex -79.6353 14.2658 14
      vertex -76.5679 14.9178 60
      vertex -79.6353 14.2658 60
    endloop
  endfacet
  facet normal 0.207912 -0.978148 0
    outer loop
      vertex -76.5679 14.9178 60
      vertex -79.6353 14.2658 14
      vertex -76.5679 14.9178 14
    endloop
  endfacet
  facet normal 0.866026 -0.499999 0
    outer loop
      vertex -88.7032 6.10105 60
      vertex -87.1353 8.81678 14
      vertex -87.1353 8.81678 60
    endloop
  endfacet
  facet normal 0.866026 -0.499999 0
    outer loop
      vertex -87.1353 8.81678 14
      vertex -88.7032 6.10105 60
      vertex -88.7032 6.10105 14
    endloop
  endfacet
  facet normal -0.994522 0.104528 0
    outer loop
      vertex -60.3278 -3.11868 14
      vertex -60 0 60
      vertex -60 0 14
    endloop
  endfacet
  facet normal -0.994522 0.104528 0
    outer loop
      vertex -60 0 60
      vertex -60.3278 -3.11868 14
      vertex -60.3278 -3.11868 60
    endloop
  endfacet
  facet normal 0 -1 0
    outer loop
      vertex -76.5679 14.9178 14
      vertex -73.4321 14.9178 60
      vertex -76.5679 14.9178 60
    endloop
  endfacet
  facet normal 0 -1 -0
    outer loop
      vertex -73.4321 14.9178 60
      vertex -76.5679 14.9178 14
      vertex -73.4321 14.9178 14
    endloop
  endfacet
  facet normal -0.587786 -0.809017 0
    outer loop
      vertex -67.5 12.9904 14
      vertex -64.963 11.1472 60
      vertex -67.5 12.9904 60
    endloop
  endfacet
  facet normal -0.587786 -0.809017 -0
    outer loop
      vertex -64.963 11.1472 60
      vertex -67.5 12.9904 14
      vertex -64.963 11.1472 14
    endloop
  endfacet
  facet normal 0.994522 -0.10453 0
    outer loop
      vertex -90 0 60
      vertex -89.6722 3.11868 14
      vertex -89.6722 3.11868 60
    endloop
  endfacet
  facet normal 0.994522 -0.10453 0
    outer loop
      vertex -89.6722 3.11868 14
      vertex -90 0 60
      vertex -90 0 14
    endloop
  endfacet
  facet normal 0.743145 -0.669131 0
    outer loop
      vertex -87.1353 8.81678 60
      vertex -85.037 11.1472 14
      vertex -85.037 11.1472 60
    endloop
  endfacet
  facet normal 0.743145 -0.669131 0
    outer loop
      vertex -85.037 11.1472 14
      vertex -87.1353 8.81678 60
      vertex -87.1353 8.81678 14
    endloop
  endfacet
  facet normal 0.406737 -0.913545 0
    outer loop
      vertex -82.5 12.9904 14
      vertex -79.6353 14.2658 60
      vertex -82.5 12.9904 60
    endloop
  endfacet
  facet normal 0.406737 -0.913545 0
    outer loop
      vertex -79.6353 14.2658 60
      vertex -82.5 12.9904 14
      vertex -79.6353 14.2658 14
    endloop
  endfacet
  facet normal 0.587786 -0.809017 0
    outer loop
      vertex -85.037 11.1472 14
      vertex -82.5 12.9904 60
      vertex -85.037 11.1472 60
    endloop
  endfacet
  facet normal 0.587786 -0.809017 0
    outer loop
      vertex -82.5 12.9904 60
      vertex -85.037 11.1472 14
      vertex -82.5 12.9904 14
    endloop
  endfacet
  facet normal -0.994522 -0.104528 0
    outer loop
      vertex -60 0 14
      vertex -60.3278 3.11868 60
      vertex -60.3278 3.11868 14
    endloop
  endfacet
  facet normal -0.994522 -0.104528 0
    outer loop
      vertex -60.3278 3.11868 60
      vertex -60 0 14
      vertex -60 0 60
    endloop
  endfacet
  facet normal -0.951057 0.309017 0
    outer loop
      vertex -61.2968 -6.10105 14
      vertex -60.3278 -3.11868 60
      vertex -60.3278 -3.11868 14
    endloop
  endfacet
  facet normal -0.951057 0.309017 0
    outer loop
      vertex -60.3278 -3.11868 60
      vertex -61.2968 -6.10105 14
      vertex -61.2968 -6.10105 60
    endloop
  endfacet
  facet normal 0.587786 0.809017 -0
    outer loop
      vertex -82.5 -12.9904 14
      vertex -85.037 -11.1472 60
      vertex -82.5 -12.9904 60
    endloop
  endfacet
  facet normal 0.587786 0.809017 0
    outer loop
      vertex -85.037 -11.1472 60
      vertex -82.5 -12.9904 14
      vertex -85.037 -11.1472 14
    endloop
  endfacet
  facet normal 0.866026 0.499999 0
    outer loop
      vertex -87.1353 -8.81678 60
      vertex -88.7032 -6.10105 14
      vertex -88.7032 -6.10105 60
    endloop
  endfacet
  facet normal 0.866026 0.499999 0
    outer loop
      vertex -88.7032 -6.10105 14
      vertex -87.1353 -8.81678 60
      vertex -87.1353 -8.81678 14
    endloop
  endfacet
  facet normal -0.951057 -0.309017 0
    outer loop
      vertex -60.3278 3.11868 14
      vertex -61.2968 6.10105 60
      vertex -61.2968 6.10105 14
    endloop
  endfacet
  facet normal -0.951057 -0.309017 0
    outer loop
      vertex -61.2968 6.10105 60
      vertex -60.3278 3.11868 14
      vertex -60.3278 3.11868 60
    endloop
  endfacet
  facet normal 0.951057 -0.309017 0
    outer loop
      vertex -89.6722 3.11868 60
      vertex -88.7032 6.10105 14
      vertex -88.7032 6.10105 60
    endloop
  endfacet
  facet normal 0.951057 -0.309017 0
    outer loop
      vertex -88.7032 6.10105 14
      vertex -89.6722 3.11868 60
      vertex -89.6722 3.11868 14
    endloop
  endfacet
  facet normal 0 1 -0
    outer loop
      vertex -73.4321 -14.9178 14
      vertex -76.5679 -14.9178 60
      vertex -73.4321 -14.9178 60
    endloop
  endfacet
  facet normal 0 1 0
    outer loop
      vertex -76.5679 -14.9178 60
      vertex -73.4321 -14.9178 14
      vertex -76.5679 -14.9178 14
    endloop
  endfacet
  facet normal 0.743145 0.669131 0
    outer loop
      vertex -85.037 -11.1472 60
      vertex -87.1353 -8.81678 14
      vertex -87.1353 -8.81678 60
    endloop
  endfacet
  facet normal 0.743145 0.669131 0
    outer loop
      vertex -87.1353 -8.81678 14
      vertex -85.037 -11.1472 60
      vertex -85.037 -11.1472 14
    endloop
  endfacet
  facet normal -0.207912 0.978148 0
    outer loop
      vertex -70.3647 -14.2658 14
      vertex -73.4321 -14.9178 60
      vertex -70.3647 -14.2658 60
    endloop
  endfacet
  facet normal -0.207912 0.978148 0
    outer loop
      vertex -73.4321 -14.9178 60
      vertex -70.3647 -14.2658 14
      vertex -73.4321 -14.9178 14
    endloop
  endfacet
  facet normal -0.406737 0.913545 0
    outer loop
      vertex -67.5 -12.9904 14
      vertex -70.3647 -14.2658 60
      vertex -67.5 -12.9904 60
    endloop
  endfacet
  facet normal -0.406737 0.913545 0
    outer loop
      vertex -70.3647 -14.2658 60
      vertex -67.5 -12.9904 14
      vertex -70.3647 -14.2658 14
    endloop
  endfacet
  facet normal -0.743145 0.669131 0
    outer loop
      vertex -64.963 -11.1472 14
      vertex -62.8647 -8.81678 60
      vertex -62.8647 -8.81678 14
    endloop
  endfacet
  facet normal -0.743145 0.669131 0
    outer loop
      vertex -62.8647 -8.81678 60
      vertex -64.963 -11.1472 14
      vertex -64.963 -11.1472 60
    endloop
  endfacet
  facet normal -0.587786 0.809017 0
    outer loop
      vertex -64.963 -11.1472 14
      vertex -67.5 -12.9904 60
      vertex -64.963 -11.1472 60
    endloop
  endfacet
  facet normal -0.587786 0.809017 0
    outer loop
      vertex -67.5 -12.9904 60
      vertex -64.963 -11.1472 14
      vertex -67.5 -12.9904 14
    endloop
  endfacet
  facet normal -0.866025 0.5 0
    outer loop
      vertex -62.8647 -8.81678 14
      vertex -61.2968 -6.10105 60
      vertex -61.2968 -6.10105 14
    endloop
  endfacet
  facet normal -0.866025 0.5 0
    outer loop
      vertex -61.2968 -6.10105 60
      vertex -62.8647 -8.81678 14
      vertex -62.8647 -8.81678 60
    endloop
  endfacet
  facet normal 0.207912 0.978148 -0
    outer loop
      vertex -76.5679 -14.9178 14
      vertex -79.6353 -14.2658 60
      vertex -76.5679 -14.9178 60
    endloop
  endfacet
  facet normal 0.207912 0.978148 0
    outer loop
      vertex -79.6353 -14.2658 60
      vertex -76.5679 -14.9178 14
      vertex -79.6353 -14.2658 14
    endloop
  endfacet
  facet normal 0.951057 0.309017 0
    outer loop
      vertex -88.7032 -6.10105 60
      vertex -89.6722 -3.11868 14
      vertex -89.6722 -3.11868 60
    endloop
  endfacet
  facet normal 0.951057 0.309017 0
    outer loop
      vertex -89.6722 -3.11868 14
      vertex -88.7032 -6.10105 60
      vertex -88.7032 -6.10105 14
    endloop
  endfacet
  facet normal 0.994522 0.10453 0
    outer loop
      vertex -89.6722 -3.11868 60
      vertex -90 0 14
      vertex -90 0 60
    endloop
  endfacet
  facet normal 0.994522 0.10453 0
    outer loop
      vertex -90 0 14
      vertex -89.6722 -3.11868 60
      vertex -89.6722 -3.11868 14
    endloop
  endfacet
  facet normal 0.406737 0.913545 -0
    outer loop
      vertex -79.6353 -14.2658 14
      vertex -82.5 -12.9904 60
      vertex -79.6353 -14.2658 60
    endloop
  endfacet
  facet normal 0.406737 0.913545 0
    outer loop
      vertex -82.5 -12.9904 60
      vertex -79.6353 -14.2658 14
      vertex -82.5 -12.9904 14
    endloop
  endfacet
  facet normal 1 -0 0
    outer loop
      vertex -54 -4 20
      vertex -54 4 14
      vertex -54 4 20
    endloop
  endfacet
  facet normal 1 0 0
    outer loop
      vertex -54 4 14
      vertex -54 -4 20
      vertex -54 -4 14
    endloop
  endfacet
  facet normal -1 0 0
    outer loop
      vertex 88 -4 14
      vertex 88 4 20
      vertex 88 4 14
    endloop
  endfacet
  facet normal -1 -0 0
    outer loop
      vertex 88 4 20
      vertex 88 -4 14
      vertex 88 -4 20
    endloop
  endfacet
  facet normal 0 1 -0
    outer loop
      vertex 88 -4 14
      vertex -54 -4 20
      vertex 88 -4 20
    endloop
  endfacet
  facet normal 0 1 0
    outer loop
      vertex -54 -4 20
      vertex 88 -4 14
      vertex -54 -4 14
    endloop
  endfacet
  facet normal 0 -1 0
    outer loop
      vertex -54 4 14
      vertex 88 4 20
      vertex -54 4 20
    endloop
  endfacet
  facet normal 0 -1 -0
    outer loop
      vertex 88 4 20
      vertex -54 4 14
      vertex 88 4 14
    endloop
  endfacet
  facet normal 1 -0 0
    outer loop
      vertex -91 -30 20
      vertex -91 -20 14
      vertex -91 -20 20
    endloop
  endfacet
  facet normal 1 0 0
    outer loop
      vertex -91 -20 14
      vertex -91 -30 20
      vertex -91 -30 14
    endloop
  endfacet
  facet normal -1 0 0
    outer loop
      vertex -81 -30 14
      vertex -81 -20 20
      vertex -81 -20 14
    endloop
  endfacet
  facet normal -1 -0 0
    outer loop
      vertex -81 -20 20
      vertex -81 -30 14
      vertex -81 -30 20
    endloop
  endfacet
  facet normal 0 -1 0
    outer loop
      vertex -91 -20 14
      vertex -81 -20 20
      vertex -91 -20 20
    endloop
  endfacet
  facet normal 0 -1 -0
    outer loop
      vertex -81 -20 20
      vertex -91 -20 14
      vertex -81 -20 14
    endloop
  endfacet
  facet normal 0 1 -0
    outer loop
      vertex -81 -30 14
      vertex -91 -30 20
      vertex -81 -30 20
    endloop
  endfacet
  facet normal 0 1 0
    outer loop
      vertex -91 -30 20
      vertex -81 -30 14
      vertex -91 -30 14
    endloop
  endfacet
  facet normal 1 -0 0
    outer loop
      vertex 81 -30 20
      vertex 81 -20 14
      vertex 81 -20 20
    endloop
  endfacet
  facet normal 1 0 0
    outer loop
      vertex 81 -20 14
      vertex 81 -30 20
      vertex 81 -30 14
    endloop
  endfacet
  facet normal -1 0 0
    outer loop
      vertex 91 -30 14
      vertex 91 -20 20
      vertex 91 -20 14
    endloop
  endfacet
  facet normal -1 -0 0
    outer loop
      vertex 91 -20 20
      vertex 91 -30 14
      vertex 91 -30 20
    endloop
  endfacet
  facet normal 0 -1 0
    outer loop
      vertex 81 -20 14
      vertex 91 -20 20
      vertex 81 -20 20
    endloop
  endfacet
  facet normal 0 -1 -0
    outer loop
      vertex 91 -20 20
      vertex 81 -20 14
      vertex 91 -20 14
    endloop
  endfacet
  facet normal 0 1 -0
    outer loop
      vertex 91 -30 14
      vertex 81 -30 20
      vertex 91 -30 20
    endloop
  endfacet
  facet normal 0 1 0
    outer loop
      vertex 81 -30 20
      vertex 91 -30 14
      vertex 81 -30 14
    endloop
  endfacet
endsolid OpenSCAD_Model
