G04 #@! TF.FileFunction,Soldermask,Top*
%FSLAX46Y46*%
G04 Gerber Fmt 4.6, Leading zero omitted, Abs format (unit mm)*
G04 Created by KiCad (PCBNEW 4.0.6-e0-6349~52~ubuntu17.04.1) date Thu Jul  6 18:27:12 2017*
%MOMM*%
%LPD*%
G01*
G04 APERTURE LIST*
%ADD10C,0.100000*%
%ADD11C,3.200000*%
%ADD12R,1.300000X0.700000*%
%ADD13R,0.700000X1.300000*%
%ADD14R,1.800000X1.800000*%
%ADD15C,1.800000*%
%ADD16C,1.524000*%
%ADD17C,1.000000*%
%ADD18R,2.100000X1.900000*%
%ADD19O,2.100000X1.900000*%
%ADD20R,0.900000X0.800000*%
%ADD21R,0.508000X1.143000*%
%ADD22R,1.143000X0.508000*%
%ADD23R,1.700000X1.700000*%
%ADD24O,1.700000X1.700000*%
%ADD25R,1.000000X1.000000*%
%ADD26C,2.200000*%
%ADD27C,0.200000*%
G04 APERTURE END LIST*
D10*
D11*
X109500000Y-103500000D03*
X180500000Y-116500000D03*
X109500000Y-110000000D03*
D12*
X146304000Y-108397000D03*
X146304000Y-110297000D03*
X136525000Y-126812000D03*
X136525000Y-128712000D03*
X138811000Y-126812000D03*
X138811000Y-128712000D03*
X141097000Y-126812000D03*
X141097000Y-128712000D03*
X140970000Y-122684500D03*
X140970000Y-124584500D03*
X143256000Y-122684500D03*
X143256000Y-124584500D03*
X145478500Y-122684500D03*
X145478500Y-124584500D03*
D13*
X109747000Y-95518000D03*
X111647000Y-95518000D03*
X110631000Y-121807000D03*
X108731000Y-121807000D03*
X115953500Y-128143000D03*
X117853500Y-128143000D03*
X124474000Y-97550000D03*
X122574000Y-97550000D03*
X110631000Y-124093000D03*
X108731000Y-124093000D03*
X115953500Y-130302000D03*
X117853500Y-130302000D03*
X110631000Y-119648000D03*
X108731000Y-119648000D03*
X115953500Y-132461000D03*
X117853500Y-132461000D03*
D12*
X116539000Y-103834000D03*
X116539000Y-101934000D03*
X151464000Y-125937000D03*
X151464000Y-127837000D03*
X160735000Y-129747000D03*
X160735000Y-131647000D03*
X163656000Y-124413000D03*
X163656000Y-126313000D03*
X141732000Y-108397000D03*
X141732000Y-110297000D03*
X144018000Y-108397000D03*
X144018000Y-110297000D03*
X139446000Y-103063000D03*
X139446000Y-104963000D03*
D14*
X126318000Y-109996000D03*
D15*
X123778000Y-109996000D03*
D16*
X133684000Y-101654000D03*
X133684000Y-106654000D03*
D17*
X169304000Y-131840000D03*
X170554000Y-131840000D03*
X173054000Y-131840000D03*
X171804000Y-131840000D03*
D18*
X150622000Y-117348000D03*
D19*
X150622000Y-119888000D03*
X150622000Y-122428000D03*
D18*
X149940000Y-91200000D03*
D19*
X149940000Y-93740000D03*
X149940000Y-96280000D03*
D18*
X152480000Y-91200000D03*
D19*
X152480000Y-93740000D03*
X152480000Y-96280000D03*
D20*
X174975000Y-120222000D03*
X174975000Y-122122000D03*
X176975000Y-121172000D03*
X174975000Y-124667000D03*
X174975000Y-126567000D03*
X176975000Y-125617000D03*
X166974000Y-112856000D03*
X166974000Y-114756000D03*
X168974000Y-113806000D03*
X166974000Y-117301000D03*
X166974000Y-119201000D03*
X168974000Y-118251000D03*
X170530000Y-120222000D03*
X170530000Y-122122000D03*
X172530000Y-121172000D03*
X170530000Y-124667000D03*
X170530000Y-126567000D03*
X172530000Y-125617000D03*
X162529000Y-112856000D03*
X162529000Y-114756000D03*
X164529000Y-113806000D03*
X162529000Y-117301000D03*
X162529000Y-119201000D03*
X164529000Y-118251000D03*
X134430000Y-110946000D03*
X134430000Y-109046000D03*
X132430000Y-109996000D03*
D13*
X109747000Y-93359000D03*
X111647000Y-93359000D03*
D12*
X113411000Y-128590000D03*
X113411000Y-130490000D03*
X111125000Y-128590000D03*
X111125000Y-130490000D03*
D13*
X124474000Y-95518000D03*
X122574000Y-95518000D03*
D12*
X118698000Y-103834000D03*
X118698000Y-101934000D03*
X114761000Y-118312000D03*
X114761000Y-116412000D03*
X117047000Y-118312000D03*
X117047000Y-116412000D03*
D13*
X136290000Y-108980000D03*
X138190000Y-108980000D03*
X135655000Y-96280000D03*
X137555000Y-96280000D03*
X148985000Y-88025000D03*
X147085000Y-88025000D03*
X153430000Y-88025000D03*
X151530000Y-88025000D03*
D12*
X137160000Y-103063000D03*
X137160000Y-104963000D03*
D17*
X142320000Y-96280000D03*
X142320000Y-91200000D03*
X144860000Y-93740000D03*
D21*
X112141000Y-119761000D03*
X113411000Y-119761000D03*
X114681000Y-119761000D03*
X115951000Y-119761000D03*
X115951000Y-126111000D03*
X114681000Y-126111000D03*
X113411000Y-126111000D03*
X112141000Y-126111000D03*
D22*
X160745000Y-124335000D03*
X160745000Y-125605000D03*
X160745000Y-126875000D03*
X160745000Y-128145000D03*
X154395000Y-128145000D03*
X154395000Y-126875000D03*
X154395000Y-125605000D03*
X154395000Y-124335000D03*
X141668500Y-105600500D03*
X141668500Y-104330500D03*
X141668500Y-103060500D03*
X141668500Y-101790500D03*
X148018500Y-101790500D03*
X148018500Y-103060500D03*
X148018500Y-104330500D03*
X148018500Y-105600500D03*
D23*
X115015000Y-98947000D03*
D24*
X115015000Y-96407000D03*
X117555000Y-98947000D03*
X117555000Y-96407000D03*
X120095000Y-98947000D03*
X120095000Y-96407000D03*
D23*
X175213000Y-98947000D03*
D24*
X175213000Y-96407000D03*
X172673000Y-98947000D03*
X172673000Y-96407000D03*
X170133000Y-98947000D03*
X170133000Y-96407000D03*
X167593000Y-98947000D03*
X167593000Y-96407000D03*
X165053000Y-98947000D03*
X165053000Y-96407000D03*
X162513000Y-98947000D03*
X162513000Y-96407000D03*
X159973000Y-98947000D03*
X159973000Y-96407000D03*
D11*
X180500000Y-110000000D03*
D16*
X130492500Y-128016000D03*
D25*
X155702000Y-93726000D03*
X176403000Y-114935000D03*
X172085000Y-114935000D03*
X168529000Y-110871000D03*
X163957000Y-110871000D03*
X163195000Y-129794000D03*
X165100000Y-101600000D03*
X167640000Y-101600000D03*
X177800000Y-96393000D03*
D16*
X127468000Y-128016000D03*
X122468000Y-128016000D03*
D26*
X129750000Y-114000000D03*
X125000000Y-103750000D03*
D13*
X127442000Y-122682000D03*
X125542000Y-122682000D03*
X120716000Y-122682000D03*
X122616000Y-122682000D03*
X125542000Y-118618000D03*
X127442000Y-118618000D03*
D22*
X136525000Y-121412000D03*
X136525000Y-122682000D03*
X136525000Y-123952000D03*
X136525000Y-125222000D03*
X130175000Y-125222000D03*
X130175000Y-123952000D03*
X130175000Y-122682000D03*
X130175000Y-121412000D03*
D27*
G36*
X128551000Y-121983500D02*
X128558879Y-122022406D01*
X128581273Y-122055181D01*
X128614654Y-122076661D01*
X128651000Y-122083500D01*
X132551500Y-122083500D01*
X132551500Y-123280500D01*
X128333500Y-123280500D01*
X128294594Y-123288379D01*
X128261819Y-123310773D01*
X128240339Y-123344154D01*
X128233500Y-123380500D01*
X128233500Y-126301500D01*
X128241379Y-126340406D01*
X128263773Y-126373181D01*
X128297154Y-126394661D01*
X128333500Y-126401500D01*
X132234000Y-126401500D01*
X132234000Y-130075000D01*
X125639500Y-130075000D01*
X125639500Y-127036500D01*
X126301500Y-127036500D01*
X126340406Y-127028621D01*
X126373181Y-127006227D01*
X126394661Y-126972846D01*
X126401500Y-126936500D01*
X126401500Y-119797500D01*
X128551000Y-119797500D01*
X128551000Y-121983500D01*
X128551000Y-121983500D01*
G37*
X128551000Y-121983500D02*
X128558879Y-122022406D01*
X128581273Y-122055181D01*
X128614654Y-122076661D01*
X128651000Y-122083500D01*
X132551500Y-122083500D01*
X132551500Y-123280500D01*
X128333500Y-123280500D01*
X128294594Y-123288379D01*
X128261819Y-123310773D01*
X128240339Y-123344154D01*
X128233500Y-123380500D01*
X128233500Y-126301500D01*
X128241379Y-126340406D01*
X128263773Y-126373181D01*
X128297154Y-126394661D01*
X128333500Y-126401500D01*
X132234000Y-126401500D01*
X132234000Y-130075000D01*
X125639500Y-130075000D01*
X125639500Y-127036500D01*
X126301500Y-127036500D01*
X126340406Y-127028621D01*
X126373181Y-127006227D01*
X126394661Y-126972846D01*
X126401500Y-126936500D01*
X126401500Y-119797500D01*
X128551000Y-119797500D01*
X128551000Y-121983500D01*
M02*
