M48
;DRILL file {KiCad 4.0.6-e0-6349~52~ubuntu17.04.1} date Sun Jul  9 19:17:05 2017
;FORMAT={-:-/ absolute / metric / decimal}
FMAT,2
METRIC,TZ
T1C0.200
T2C0.400
T3C0.500
T4C0.700
T5C0.762
T6C0.900
T7C1.000
T8C1.200
%
G90
G05
M71
T1
X125.984Y-127.572
X125.984Y-128.588
X126.365Y-129.413
X126.492Y-119.888
X126.492Y-120.904
X126.492Y-121.92
X126.492Y-122.936
X126.492Y-123.952
X126.492Y-124.968
X126.492Y-125.984
X126.492Y-126.873
X127.254Y-129.603
X128.27Y-123.571
X128.27Y-124.587
X128.27Y-125.603
X128.27Y-126.619
X128.27Y-129.603
X128.524Y-119.888
X128.524Y-120.904
X128.524Y-121.73
X128.778Y-128.905
X128.905Y-127.254
X129.032Y-128.143
X131.572Y-122.301
X131.572Y-122.936
T2
X107.442Y-90.678
X107.442Y-116.586
X107.442Y-119.888
X107.442Y-122.428
X107.442Y-124.968
X107.442Y-127.508
X107.442Y-130.048
X109.22Y-132.334
X109.664Y-93.408
X109.791Y-97.346
X109.791Y-99.885
X109.982Y-116.586
X110.49Y-90.678
X111.76Y-132.334
X112.014Y-107.696
X112.141Y-119.761
X112.522Y-116.586
X114.3Y-132.334
X114.554Y-107.696
X115.57Y-90.678
X117.094Y-107.696
X118.11Y-90.678
X119.38Y-132.334
X119.634Y-107.696
X120.142Y-116.586
X120.65Y-90.678
X121.92Y-132.334
X122.174Y-107.696
X123.19Y-90.678
X123.507Y-115.062
X124.46Y-86.868
X124.46Y-132.334
X124.714Y-107.696
X125.73Y-90.678
X127.Y-86.868
X127.Y-132.334
X127.254Y-107.696
X127.442Y-118.618
X127.762Y-116.586
X128.27Y-90.678
X129.54Y-86.868
X129.54Y-132.334
X129.794Y-107.696
X130.302Y-116.586
X130.81Y-90.678
X132.08Y-86.868
X132.08Y-132.334
X132.334Y-107.696
X132.842Y-116.586
X133.35Y-90.678
X134.62Y-86.868
X134.62Y-132.334
X134.874Y-107.696
X135.382Y-116.586
X135.589Y-96.407
X136.29Y-108.98
X136.525Y-122.682
X137.16Y-86.868
X137.16Y-132.334
X137.414Y-107.696
X137.922Y-116.586
X138.43Y-90.678
X139.7Y-86.868
X139.7Y-132.334
X140.462Y-116.586
X140.97Y-90.678
X140.97Y-122.684
X142.24Y-86.868
X142.24Y-132.334
X143.002Y-116.586
X143.51Y-90.678
X144.78Y-86.868
X145.478Y-122.684
X146.05Y-90.678
X146.05Y-125.73
X146.05Y-129.794
X146.05Y-132.334
X147.32Y-86.868
X147.955Y-104.331
X148.463Y-110.363
X149.86Y-86.868
X152.4Y-86.868
X152.4Y-122.174
X152.4Y-124.714
X152.4Y-132.334
X153.416Y-88.011
X154.686Y-100.584
X154.686Y-103.124
X154.686Y-105.664
X154.686Y-108.204
X154.686Y-110.744
X154.686Y-113.284
X154.686Y-115.824
X154.94Y-86.868
X154.94Y-132.334
X156.21Y-90.678
X157.226Y-107.95
X157.48Y-86.868
X157.48Y-132.334
X158.75Y-90.678
X160.02Y-86.868
X160.02Y-132.334
X161.036Y-107.95
X161.29Y-90.678
X162.56Y-86.868
X162.56Y-114.808
X162.56Y-132.334
X163.83Y-90.678
X164.846Y-107.95
X165.1Y-86.868
X165.1Y-132.334
X166.37Y-90.678
X167.005Y-114.808
X167.64Y-132.334
X168.91Y-90.678
X169.926Y-107.95
X170.434Y-122.174
X171.45Y-90.678
X173.99Y-90.678
X174.975Y-122.122
X175.006Y-107.95
X176.53Y-90.678
X177.8Y-132.334
X179.07Y-90.678
X180.34Y-132.334
X181.61Y-90.678
X182.88Y-132.334
X183.261Y-104.521
X183.261Y-107.061
X183.261Y-109.601
X183.261Y-112.141
X183.261Y-114.681
X183.261Y-117.221
X183.261Y-119.761
X183.261Y-122.301
X183.261Y-124.841
X183.261Y-127.381
X183.261Y-129.921
T3
X142.32Y-91.2
X142.32Y-96.28
X144.86Y-93.74
T4
X169.304Y-131.84
X170.554Y-131.84
X171.804Y-131.84
X173.054Y-131.84
T5
X122.468Y-128.016
X127.468Y-128.016
X130.493Y-128.016
X133.684Y-101.654
X133.684Y-106.654
T6
X123.778Y-109.996
X126.318Y-109.996
T7
X115.015Y-96.407
X115.015Y-98.947
X117.555Y-96.407
X117.555Y-98.947
X120.095Y-96.407
X120.095Y-98.947
X159.973Y-96.407
X159.973Y-98.947
X162.513Y-96.407
X162.513Y-98.947
X165.053Y-96.407
X165.053Y-98.947
X167.593Y-96.407
X167.593Y-98.947
X170.133Y-96.407
X170.133Y-98.947
X172.673Y-96.407
X172.673Y-98.947
X175.213Y-96.407
X175.213Y-98.947
T8
X149.94Y-91.2
X149.94Y-93.74
X149.94Y-96.28
X150.622Y-117.348
X150.622Y-119.888
X150.622Y-122.428
X152.48Y-91.2
X152.48Y-93.74
X152.48Y-96.28
T0
M30
