G04 #@! TF.FileFunction,Legend,Top*
%FSLAX46Y46*%
G04 Gerber Fmt 4.6, Leading zero omitted, Abs format (unit mm)*
G04 Created by KiCad (PCBNEW 4.0.6-e0-6349~52~ubuntu17.04.1) date Thu Jul  6 18:27:12 2017*
%MOMM*%
%LPD*%
G01*
G04 APERTURE LIST*
%ADD10C,0.100000*%
%ADD11C,0.300000*%
%ADD12C,0.200000*%
%ADD13C,0.120000*%
%ADD14C,0.150000*%
G04 APERTURE END LIST*
D10*
D11*
X132191143Y-118804571D02*
X131048286Y-119233143D01*
X132191143Y-119661714D01*
X133691143Y-119804571D02*
X132834000Y-119804571D01*
X133262572Y-119804571D02*
X133262572Y-118304571D01*
X133119715Y-118518857D01*
X132976857Y-118661714D01*
X132834000Y-118733143D01*
X166950000Y-129202571D02*
X166950000Y-127702571D01*
X166950000Y-128416857D02*
X167807143Y-128416857D01*
X167807143Y-129202571D02*
X167807143Y-127702571D01*
X169664286Y-129202571D02*
X169664286Y-127702571D01*
X169664286Y-128274000D02*
X169807143Y-128202571D01*
X170092857Y-128202571D01*
X170235714Y-128274000D01*
X170307143Y-128345429D01*
X170378572Y-128488286D01*
X170378572Y-128916857D01*
X170307143Y-129059714D01*
X170235714Y-129131143D01*
X170092857Y-129202571D01*
X169807143Y-129202571D01*
X169664286Y-129131143D01*
X171021429Y-129202571D02*
X171021429Y-128202571D01*
X171021429Y-128488286D02*
X171092857Y-128345429D01*
X171164286Y-128274000D01*
X171307143Y-128202571D01*
X171450000Y-128202571D01*
X171950000Y-129202571D02*
X171950000Y-128202571D01*
X171950000Y-127702571D02*
X171878571Y-127774000D01*
X171950000Y-127845429D01*
X172021428Y-127774000D01*
X171950000Y-127702571D01*
X171950000Y-127845429D01*
X173307143Y-129202571D02*
X173307143Y-127702571D01*
X173307143Y-129131143D02*
X173164286Y-129202571D01*
X172878572Y-129202571D01*
X172735714Y-129131143D01*
X172664286Y-129059714D01*
X172592857Y-128916857D01*
X172592857Y-128488286D01*
X172664286Y-128345429D01*
X172735714Y-128274000D01*
X172878572Y-128202571D01*
X173164286Y-128202571D01*
X173307143Y-128274000D01*
X174664286Y-128202571D02*
X174664286Y-129416857D01*
X174592857Y-129559714D01*
X174521429Y-129631143D01*
X174378572Y-129702571D01*
X174164286Y-129702571D01*
X174021429Y-129631143D01*
X174664286Y-129131143D02*
X174521429Y-129202571D01*
X174235715Y-129202571D01*
X174092857Y-129131143D01*
X174021429Y-129059714D01*
X173950000Y-128916857D01*
X173950000Y-128488286D01*
X174021429Y-128345429D01*
X174092857Y-128274000D01*
X174235715Y-128202571D01*
X174521429Y-128202571D01*
X174664286Y-128274000D01*
X175950000Y-129131143D02*
X175807143Y-129202571D01*
X175521429Y-129202571D01*
X175378572Y-129131143D01*
X175307143Y-128988286D01*
X175307143Y-128416857D01*
X175378572Y-128274000D01*
X175521429Y-128202571D01*
X175807143Y-128202571D01*
X175950000Y-128274000D01*
X176021429Y-128416857D01*
X176021429Y-128559714D01*
X175307143Y-128702571D01*
X150535715Y-99903571D02*
X149821429Y-99903571D01*
X149821429Y-98403571D01*
X151035715Y-99117857D02*
X151535715Y-99117857D01*
X151750001Y-99903571D02*
X151035715Y-99903571D01*
X151035715Y-98403571D01*
X151750001Y-98403571D01*
X152392858Y-99903571D02*
X152392858Y-98403571D01*
X152750001Y-98403571D01*
X152964286Y-98475000D01*
X153107144Y-98617857D01*
X153178572Y-98760714D01*
X153250001Y-99046429D01*
X153250001Y-99260714D01*
X153178572Y-99546429D01*
X153107144Y-99689286D01*
X152964286Y-99832143D01*
X152750001Y-99903571D01*
X152392858Y-99903571D01*
X149964286Y-102382143D02*
X150178572Y-102453571D01*
X150535715Y-102453571D01*
X150678572Y-102382143D01*
X150750001Y-102310714D01*
X150821429Y-102167857D01*
X150821429Y-102025000D01*
X150750001Y-101882143D01*
X150678572Y-101810714D01*
X150535715Y-101739286D01*
X150250001Y-101667857D01*
X150107143Y-101596429D01*
X150035715Y-101525000D01*
X149964286Y-101382143D01*
X149964286Y-101239286D01*
X150035715Y-101096429D01*
X150107143Y-101025000D01*
X150250001Y-100953571D01*
X150607143Y-100953571D01*
X150821429Y-101025000D01*
X151464286Y-102453571D02*
X151464286Y-100953571D01*
X152964286Y-101025000D02*
X152821429Y-100953571D01*
X152607143Y-100953571D01*
X152392858Y-101025000D01*
X152250000Y-101167857D01*
X152178572Y-101310714D01*
X152107143Y-101596429D01*
X152107143Y-101810714D01*
X152178572Y-102096429D01*
X152250000Y-102239286D01*
X152392858Y-102382143D01*
X152607143Y-102453571D01*
X152750000Y-102453571D01*
X152964286Y-102382143D01*
X153035715Y-102310714D01*
X153035715Y-101810714D01*
X152750000Y-101810714D01*
D10*
X154511905Y-95702381D02*
X154511905Y-94702381D01*
X154892858Y-94702381D01*
X154988096Y-94750000D01*
X155035715Y-94797619D01*
X155083334Y-94892857D01*
X155083334Y-95035714D01*
X155035715Y-95130952D01*
X154988096Y-95178571D01*
X154892858Y-95226190D01*
X154511905Y-95226190D01*
X155654762Y-95702381D02*
X155559524Y-95654762D01*
X155511905Y-95607143D01*
X155464286Y-95511905D01*
X155464286Y-95226190D01*
X155511905Y-95130952D01*
X155559524Y-95083333D01*
X155654762Y-95035714D01*
X155797620Y-95035714D01*
X155892858Y-95083333D01*
X155940477Y-95130952D01*
X155988096Y-95226190D01*
X155988096Y-95511905D01*
X155940477Y-95607143D01*
X155892858Y-95654762D01*
X155797620Y-95702381D01*
X155654762Y-95702381D01*
X156273810Y-95035714D02*
X156654762Y-95035714D01*
X156416667Y-94702381D02*
X156416667Y-95559524D01*
X156464286Y-95654762D01*
X156559524Y-95702381D01*
X156654762Y-95702381D01*
X156988096Y-95702381D02*
X156988096Y-95035714D01*
X156988096Y-94702381D02*
X156940477Y-94750000D01*
X156988096Y-94797619D01*
X157035715Y-94750000D01*
X156988096Y-94702381D01*
X156988096Y-94797619D01*
X154844953Y-91225714D02*
X154844953Y-91892381D01*
X154606857Y-90844762D02*
X154368762Y-91559048D01*
X154987810Y-91559048D01*
X155368762Y-91797143D02*
X155416381Y-91844762D01*
X155368762Y-91892381D01*
X155321143Y-91844762D01*
X155368762Y-91797143D01*
X155368762Y-91892381D01*
X156321143Y-90892381D02*
X155844952Y-90892381D01*
X155797333Y-91368571D01*
X155844952Y-91320952D01*
X155940190Y-91273333D01*
X156178286Y-91273333D01*
X156273524Y-91320952D01*
X156321143Y-91368571D01*
X156368762Y-91463810D01*
X156368762Y-91701905D01*
X156321143Y-91797143D01*
X156273524Y-91844762D01*
X156178286Y-91892381D01*
X155940190Y-91892381D01*
X155844952Y-91844762D01*
X155797333Y-91797143D01*
X156797333Y-91892381D02*
X156797333Y-91225714D01*
X156797333Y-91320952D02*
X156844952Y-91273333D01*
X156940190Y-91225714D01*
X157083048Y-91225714D01*
X157178286Y-91273333D01*
X157225905Y-91368571D01*
X157225905Y-91892381D01*
X157225905Y-91368571D02*
X157273524Y-91273333D01*
X157368762Y-91225714D01*
X157511619Y-91225714D01*
X157606857Y-91273333D01*
X157654476Y-91368571D01*
X157654476Y-91892381D01*
X158083047Y-91606667D02*
X158559238Y-91606667D01*
X157987809Y-91892381D02*
X158321142Y-90892381D01*
X158654476Y-91892381D01*
X154511524Y-97480381D02*
X154511524Y-96480381D01*
X154749619Y-96480381D01*
X154892477Y-96528000D01*
X154987715Y-96623238D01*
X155035334Y-96718476D01*
X155082953Y-96908952D01*
X155082953Y-97051810D01*
X155035334Y-97242286D01*
X154987715Y-97337524D01*
X154892477Y-97432762D01*
X154749619Y-97480381D01*
X154511524Y-97480381D01*
X155463905Y-97194667D02*
X155940096Y-97194667D01*
X155368667Y-97480381D02*
X155702000Y-96480381D01*
X156035334Y-97480381D01*
X156940096Y-97385143D02*
X156892477Y-97432762D01*
X156749620Y-97480381D01*
X156654382Y-97480381D01*
X156511524Y-97432762D01*
X156416286Y-97337524D01*
X156368667Y-97242286D01*
X156321048Y-97051810D01*
X156321048Y-96908952D01*
X156368667Y-96718476D01*
X156416286Y-96623238D01*
X156511524Y-96528000D01*
X156654382Y-96480381D01*
X156749620Y-96480381D01*
X156892477Y-96528000D01*
X156940096Y-96575619D01*
D11*
X143605429Y-118812571D02*
X143891143Y-118812571D01*
X144034001Y-118884000D01*
X144176858Y-119026857D01*
X144248286Y-119312571D01*
X144248286Y-119812571D01*
X144176858Y-120098286D01*
X144034001Y-120241143D01*
X143891143Y-120312571D01*
X143605429Y-120312571D01*
X143462572Y-120241143D01*
X143319715Y-120098286D01*
X143248286Y-119812571D01*
X143248286Y-119312571D01*
X143319715Y-119026857D01*
X143462572Y-118884000D01*
X143605429Y-118812571D01*
X145391144Y-119526857D02*
X144891144Y-119526857D01*
X144891144Y-120312571D02*
X144891144Y-118812571D01*
X145605430Y-118812571D01*
X146676858Y-119526857D02*
X146176858Y-119526857D01*
X146176858Y-120312571D02*
X146176858Y-118812571D01*
X146891144Y-118812571D01*
D12*
X148463000Y-122301000D02*
X146939000Y-122301000D01*
X148463000Y-119761000D02*
X146939000Y-119761000D01*
X146939000Y-119761000D02*
X146939000Y-122301000D01*
D11*
X155281428Y-117796571D02*
X155567142Y-117796571D01*
X155710000Y-117868000D01*
X155852857Y-118010857D01*
X155924285Y-118296571D01*
X155924285Y-118796571D01*
X155852857Y-119082286D01*
X155710000Y-119225143D01*
X155567142Y-119296571D01*
X155281428Y-119296571D01*
X155138571Y-119225143D01*
X154995714Y-119082286D01*
X154924285Y-118796571D01*
X154924285Y-118296571D01*
X154995714Y-118010857D01*
X155138571Y-117868000D01*
X155281428Y-117796571D01*
X156567143Y-119296571D02*
X156567143Y-117796571D01*
X157424286Y-119296571D01*
X157424286Y-117796571D01*
D12*
X154178000Y-119888000D02*
X154178000Y-117348000D01*
X152654000Y-119888000D02*
X154178000Y-119888000D01*
X152654000Y-117348000D02*
X154178000Y-117348000D01*
D11*
X128178571Y-116892857D02*
X127678571Y-116892857D01*
X127678571Y-117678571D02*
X127678571Y-116178571D01*
X128392857Y-116178571D01*
X129821428Y-117678571D02*
X129321428Y-116964286D01*
X128964285Y-117678571D02*
X128964285Y-116178571D01*
X129535713Y-116178571D01*
X129678571Y-116250000D01*
X129749999Y-116321429D01*
X129821428Y-116464286D01*
X129821428Y-116678571D01*
X129749999Y-116821429D01*
X129678571Y-116892857D01*
X129535713Y-116964286D01*
X128964285Y-116964286D01*
X130464285Y-116892857D02*
X130964285Y-116892857D01*
X131178571Y-117678571D02*
X130464285Y-117678571D01*
X130464285Y-116178571D01*
X131178571Y-116178571D01*
X132821428Y-117821429D02*
X132678571Y-117750000D01*
X132535714Y-117607143D01*
X132321428Y-117392857D01*
X132178571Y-117321429D01*
X132035714Y-117321429D01*
X132107142Y-117678571D02*
X131964285Y-117607143D01*
X131821428Y-117464286D01*
X131749999Y-117178571D01*
X131749999Y-116678571D01*
X131821428Y-116392857D01*
X131964285Y-116250000D01*
X132107142Y-116178571D01*
X132392856Y-116178571D01*
X132535714Y-116250000D01*
X132678571Y-116392857D01*
X132749999Y-116678571D01*
X132749999Y-117178571D01*
X132678571Y-117464286D01*
X132535714Y-117607143D01*
X132392856Y-117678571D01*
X132107142Y-117678571D01*
X133392857Y-116178571D02*
X133392857Y-117392857D01*
X133464285Y-117535714D01*
X133535714Y-117607143D01*
X133678571Y-117678571D01*
X133964285Y-117678571D01*
X134107143Y-117607143D01*
X134178571Y-117535714D01*
X134250000Y-117392857D01*
X134250000Y-116178571D01*
X134964286Y-116892857D02*
X135464286Y-116892857D01*
X135678572Y-117678571D02*
X134964286Y-117678571D01*
X134964286Y-116178571D01*
X135678572Y-116178571D01*
X136321429Y-117678571D02*
X136321429Y-116178571D01*
X137178572Y-117678571D01*
X137178572Y-116178571D01*
X138750001Y-117535714D02*
X138678572Y-117607143D01*
X138464286Y-117678571D01*
X138321429Y-117678571D01*
X138107144Y-117607143D01*
X137964286Y-117464286D01*
X137892858Y-117321429D01*
X137821429Y-117035714D01*
X137821429Y-116821429D01*
X137892858Y-116535714D01*
X137964286Y-116392857D01*
X138107144Y-116250000D01*
X138321429Y-116178571D01*
X138464286Y-116178571D01*
X138678572Y-116250000D01*
X138750001Y-116321429D01*
X139678572Y-116964286D02*
X139678572Y-117678571D01*
X139178572Y-116178571D02*
X139678572Y-116964286D01*
X140178572Y-116178571D01*
X142321429Y-116892857D02*
X142535715Y-116964286D01*
X142607143Y-117035714D01*
X142678572Y-117178571D01*
X142678572Y-117392857D01*
X142607143Y-117535714D01*
X142535715Y-117607143D01*
X142392857Y-117678571D01*
X141821429Y-117678571D01*
X141821429Y-116178571D01*
X142321429Y-116178571D01*
X142464286Y-116250000D01*
X142535715Y-116321429D01*
X142607143Y-116464286D01*
X142607143Y-116607143D01*
X142535715Y-116750000D01*
X142464286Y-116821429D01*
X142321429Y-116892857D01*
X141821429Y-116892857D01*
X143607143Y-116178571D02*
X143892857Y-116178571D01*
X144035715Y-116250000D01*
X144178572Y-116392857D01*
X144250000Y-116678571D01*
X144250000Y-117178571D01*
X144178572Y-117464286D01*
X144035715Y-117607143D01*
X143892857Y-117678571D01*
X143607143Y-117678571D01*
X143464286Y-117607143D01*
X143321429Y-117464286D01*
X143250000Y-117178571D01*
X143250000Y-116678571D01*
X143321429Y-116392857D01*
X143464286Y-116250000D01*
X143607143Y-116178571D01*
X145178572Y-116178571D02*
X145464286Y-116178571D01*
X145607144Y-116250000D01*
X145750001Y-116392857D01*
X145821429Y-116678571D01*
X145821429Y-117178571D01*
X145750001Y-117464286D01*
X145607144Y-117607143D01*
X145464286Y-117678571D01*
X145178572Y-117678571D01*
X145035715Y-117607143D01*
X144892858Y-117464286D01*
X144821429Y-117178571D01*
X144821429Y-116678571D01*
X144892858Y-116392857D01*
X145035715Y-116250000D01*
X145178572Y-116178571D01*
X146392858Y-117607143D02*
X146607144Y-117678571D01*
X146964287Y-117678571D01*
X147107144Y-117607143D01*
X147178573Y-117535714D01*
X147250001Y-117392857D01*
X147250001Y-117250000D01*
X147178573Y-117107143D01*
X147107144Y-117035714D01*
X146964287Y-116964286D01*
X146678573Y-116892857D01*
X146535715Y-116821429D01*
X146464287Y-116750000D01*
X146392858Y-116607143D01*
X146392858Y-116464286D01*
X146464287Y-116321429D01*
X146535715Y-116250000D01*
X146678573Y-116178571D01*
X147035715Y-116178571D01*
X147250001Y-116250000D01*
X147678572Y-116178571D02*
X148535715Y-116178571D01*
X148107144Y-117678571D02*
X148107144Y-116178571D01*
X176704572Y-134028571D02*
X175847429Y-134028571D01*
X176276001Y-134028571D02*
X176276001Y-132528571D01*
X176133144Y-132742857D01*
X175990286Y-132885714D01*
X175847429Y-132957143D01*
D13*
X145424000Y-109947000D02*
X145424000Y-108747000D01*
X147184000Y-108747000D02*
X147184000Y-109947000D01*
X135645000Y-128362000D02*
X135645000Y-127162000D01*
X137405000Y-127162000D02*
X137405000Y-128362000D01*
X137931000Y-128362000D02*
X137931000Y-127162000D01*
X139691000Y-127162000D02*
X139691000Y-128362000D01*
X140217000Y-128362000D02*
X140217000Y-127162000D01*
X141977000Y-127162000D02*
X141977000Y-128362000D01*
X140090000Y-124234500D02*
X140090000Y-123034500D01*
X141850000Y-123034500D02*
X141850000Y-124234500D01*
X142376000Y-124234500D02*
X142376000Y-123034500D01*
X144136000Y-123034500D02*
X144136000Y-124234500D01*
X144598500Y-124234500D02*
X144598500Y-123034500D01*
X146358500Y-123034500D02*
X146358500Y-124234500D01*
X111297000Y-96398000D02*
X110097000Y-96398000D01*
X110097000Y-94638000D02*
X111297000Y-94638000D01*
X109081000Y-120927000D02*
X110281000Y-120927000D01*
X110281000Y-122687000D02*
X109081000Y-122687000D01*
X117503500Y-129023000D02*
X116303500Y-129023000D01*
X116303500Y-127263000D02*
X117503500Y-127263000D01*
X122924000Y-96670000D02*
X124124000Y-96670000D01*
X124124000Y-98430000D02*
X122924000Y-98430000D01*
X109081000Y-123213000D02*
X110281000Y-123213000D01*
X110281000Y-124973000D02*
X109081000Y-124973000D01*
X117503500Y-131182000D02*
X116303500Y-131182000D01*
X116303500Y-129422000D02*
X117503500Y-129422000D01*
X109081000Y-118768000D02*
X110281000Y-118768000D01*
X110281000Y-120528000D02*
X109081000Y-120528000D01*
X117503500Y-133341000D02*
X116303500Y-133341000D01*
X116303500Y-131581000D02*
X117503500Y-131581000D01*
X117419000Y-102284000D02*
X117419000Y-103484000D01*
X115659000Y-103484000D02*
X115659000Y-102284000D01*
X150584000Y-127487000D02*
X150584000Y-126287000D01*
X152344000Y-126287000D02*
X152344000Y-127487000D01*
X159855000Y-131297000D02*
X159855000Y-130097000D01*
X161615000Y-130097000D02*
X161615000Y-131297000D01*
X162776000Y-125963000D02*
X162776000Y-124763000D01*
X164536000Y-124763000D02*
X164536000Y-125963000D01*
X140852000Y-109947000D02*
X140852000Y-108747000D01*
X142612000Y-108747000D02*
X142612000Y-109947000D01*
X143138000Y-109947000D02*
X143138000Y-108747000D01*
X144898000Y-108747000D02*
X144898000Y-109947000D01*
X138566000Y-104613000D02*
X138566000Y-103413000D01*
X140326000Y-103413000D02*
X140326000Y-104613000D01*
X122058000Y-109995538D02*
G75*
G03X127608000Y-111540830I2990000J-462D01*
G01*
X122058000Y-109996462D02*
G75*
G02X127608000Y-108451170I2990000J462D01*
G01*
X127548000Y-109996000D02*
G75*
G03X127548000Y-109996000I-2500000J0D01*
G01*
X127608000Y-111541000D02*
X127608000Y-108451000D01*
D14*
X134884000Y-103354000D02*
X134784000Y-103554000D01*
X134884000Y-103354000D02*
X135184000Y-103354000D01*
X134484000Y-103654000D02*
X134684000Y-103654000D01*
X134684000Y-103654000D02*
X134484000Y-103654000D01*
X134484000Y-103654000D02*
X134384000Y-103854000D01*
X134484000Y-103654000D02*
X134984000Y-104454000D01*
X134884000Y-103354000D02*
X135384000Y-104154000D01*
X134584000Y-103054000D02*
X132784000Y-103054000D01*
X133684000Y-103054000D02*
X132784000Y-104754000D01*
X133684000Y-104754000D02*
X132784000Y-104754000D01*
X134584000Y-104754000D02*
X133684000Y-104754000D01*
X133684000Y-103054000D02*
X134584000Y-104754000D01*
X133684000Y-102554000D02*
X133684000Y-105654000D01*
X133684000Y-105654000D02*
X133684000Y-105754000D01*
X132684000Y-106154000D02*
X131684000Y-106154000D01*
X135684000Y-106154000D02*
X134684000Y-106154000D01*
X132684000Y-102154000D02*
X131684000Y-102154000D01*
X135684000Y-102154000D02*
X135684000Y-106154000D01*
X131684000Y-102154000D02*
X131684000Y-106154000D01*
X135684000Y-102154000D02*
X134684000Y-102154000D01*
X174779000Y-133590000D02*
X167579000Y-133590000D01*
X174779000Y-130090000D02*
X167579000Y-130090000D01*
X167579000Y-130090000D02*
X167579000Y-133590000D01*
X174779000Y-130090000D02*
X174779000Y-133590000D01*
X149352000Y-118618000D02*
X149352000Y-123698000D01*
X149352000Y-123698000D02*
X151892000Y-123698000D01*
X151892000Y-123698000D02*
X151892000Y-118618000D01*
X152172000Y-115798000D02*
X152172000Y-117348000D01*
X151892000Y-118618000D02*
X149352000Y-118618000D01*
X149072000Y-117348000D02*
X149072000Y-115798000D01*
X149072000Y-115798000D02*
X152172000Y-115798000D01*
X148670000Y-92470000D02*
X148670000Y-97550000D01*
X148670000Y-97550000D02*
X151210000Y-97550000D01*
X151210000Y-97550000D02*
X151210000Y-92470000D01*
X151490000Y-89650000D02*
X151490000Y-91200000D01*
X151210000Y-92470000D02*
X148670000Y-92470000D01*
X148390000Y-91200000D02*
X148390000Y-89650000D01*
X148390000Y-89650000D02*
X151490000Y-89650000D01*
X151210000Y-92470000D02*
X151210000Y-97550000D01*
X151210000Y-97550000D02*
X153750000Y-97550000D01*
X153750000Y-97550000D02*
X153750000Y-92470000D01*
X154030000Y-89650000D02*
X154030000Y-91200000D01*
X153750000Y-92470000D02*
X151210000Y-92470000D01*
X150930000Y-91200000D02*
X150930000Y-89650000D01*
X150930000Y-89650000D02*
X154030000Y-89650000D01*
D13*
X176735000Y-122752000D02*
X176735000Y-121822000D01*
X176735000Y-119592000D02*
X176735000Y-120522000D01*
X176735000Y-119592000D02*
X174575000Y-119592000D01*
X176735000Y-122752000D02*
X175275000Y-122752000D01*
X176735000Y-127197000D02*
X176735000Y-126267000D01*
X176735000Y-124037000D02*
X176735000Y-124967000D01*
X176735000Y-124037000D02*
X174575000Y-124037000D01*
X176735000Y-127197000D02*
X175275000Y-127197000D01*
X168734000Y-115386000D02*
X168734000Y-114456000D01*
X168734000Y-112226000D02*
X168734000Y-113156000D01*
X168734000Y-112226000D02*
X166574000Y-112226000D01*
X168734000Y-115386000D02*
X167274000Y-115386000D01*
X168734000Y-119831000D02*
X168734000Y-118901000D01*
X168734000Y-116671000D02*
X168734000Y-117601000D01*
X168734000Y-116671000D02*
X166574000Y-116671000D01*
X168734000Y-119831000D02*
X167274000Y-119831000D01*
X172290000Y-122752000D02*
X172290000Y-121822000D01*
X172290000Y-119592000D02*
X172290000Y-120522000D01*
X172290000Y-119592000D02*
X170130000Y-119592000D01*
X172290000Y-122752000D02*
X170830000Y-122752000D01*
X172290000Y-127197000D02*
X172290000Y-126267000D01*
X172290000Y-124037000D02*
X172290000Y-124967000D01*
X172290000Y-124037000D02*
X170130000Y-124037000D01*
X172290000Y-127197000D02*
X170830000Y-127197000D01*
X164289000Y-115386000D02*
X164289000Y-114456000D01*
X164289000Y-112226000D02*
X164289000Y-113156000D01*
X164289000Y-112226000D02*
X162129000Y-112226000D01*
X164289000Y-115386000D02*
X162829000Y-115386000D01*
X164289000Y-119831000D02*
X164289000Y-118901000D01*
X164289000Y-116671000D02*
X164289000Y-117601000D01*
X164289000Y-116671000D02*
X162129000Y-116671000D01*
X164289000Y-119831000D02*
X162829000Y-119831000D01*
X132670000Y-108416000D02*
X132670000Y-109346000D01*
X132670000Y-111576000D02*
X132670000Y-110646000D01*
X132670000Y-111576000D02*
X134830000Y-111576000D01*
X132670000Y-108416000D02*
X134130000Y-108416000D01*
X111297000Y-94239000D02*
X110097000Y-94239000D01*
X110097000Y-92479000D02*
X111297000Y-92479000D01*
X112531000Y-130140000D02*
X112531000Y-128940000D01*
X114291000Y-128940000D02*
X114291000Y-130140000D01*
X110245000Y-130140000D02*
X110245000Y-128940000D01*
X112005000Y-128940000D02*
X112005000Y-130140000D01*
X122924000Y-94638000D02*
X124124000Y-94638000D01*
X124124000Y-96398000D02*
X122924000Y-96398000D01*
X119578000Y-102284000D02*
X119578000Y-103484000D01*
X117818000Y-103484000D02*
X117818000Y-102284000D01*
X115641000Y-116762000D02*
X115641000Y-117962000D01*
X113881000Y-117962000D02*
X113881000Y-116762000D01*
X117927000Y-116762000D02*
X117927000Y-117962000D01*
X116167000Y-117962000D02*
X116167000Y-116762000D01*
X137840000Y-109860000D02*
X136640000Y-109860000D01*
X136640000Y-108100000D02*
X137840000Y-108100000D01*
X137205000Y-97160000D02*
X136005000Y-97160000D01*
X136005000Y-95400000D02*
X137205000Y-95400000D01*
X147435000Y-87145000D02*
X148635000Y-87145000D01*
X148635000Y-88905000D02*
X147435000Y-88905000D01*
X151880000Y-87145000D02*
X153080000Y-87145000D01*
X153080000Y-88905000D02*
X151880000Y-88905000D01*
X136280000Y-104613000D02*
X136280000Y-103413000D01*
X138040000Y-103413000D02*
X138040000Y-104613000D01*
D14*
X145790000Y-97044000D02*
X138790000Y-97044000D01*
X145790000Y-90440000D02*
X138790000Y-90440000D01*
X145790000Y-90440000D02*
X145790000Y-97040000D01*
X138790000Y-90440000D02*
X138790000Y-97040000D01*
X140034000Y-92089000D02*
X140034000Y-91073000D01*
X141320000Y-91073000D02*
X140034000Y-91073000D01*
X140034000Y-95391000D02*
X140034000Y-96407000D01*
X141320000Y-96407000D02*
X140034000Y-96407000D01*
X143860000Y-93740000D02*
X140796000Y-93740000D01*
X140796000Y-93740000D02*
X141304000Y-93232000D01*
X140796000Y-93740000D02*
X141304000Y-94248000D01*
X140796000Y-95391000D02*
X139399000Y-95391000D01*
X139399000Y-95391000D02*
X139399000Y-92089000D01*
X139399000Y-92089000D02*
X140796000Y-92089000D01*
X140796000Y-92089000D02*
X140796000Y-95391000D01*
X111506000Y-120650000D02*
X116586000Y-120650000D01*
X116586000Y-120650000D02*
X116586000Y-125222000D01*
X116586000Y-125222000D02*
X111506000Y-125222000D01*
X111506000Y-125222000D02*
X111506000Y-120650000D01*
X111506000Y-122174000D02*
X112014000Y-122174000D01*
X112014000Y-122174000D02*
X112014000Y-123444000D01*
X112014000Y-123444000D02*
X111506000Y-123444000D01*
X159856000Y-123700000D02*
X159856000Y-128780000D01*
X159856000Y-128780000D02*
X155284000Y-128780000D01*
X155284000Y-128780000D02*
X155284000Y-123700000D01*
X155284000Y-123700000D02*
X159856000Y-123700000D01*
X158332000Y-123700000D02*
X158332000Y-124208000D01*
X158332000Y-124208000D02*
X157062000Y-124208000D01*
X157062000Y-124208000D02*
X157062000Y-123700000D01*
X142557500Y-106235500D02*
X142557500Y-101155500D01*
X142557500Y-101155500D02*
X147129500Y-101155500D01*
X147129500Y-101155500D02*
X147129500Y-106235500D01*
X147129500Y-106235500D02*
X142557500Y-106235500D01*
X144081500Y-106235500D02*
X144081500Y-105727500D01*
X144081500Y-105727500D02*
X145351500Y-105727500D01*
X145351500Y-105727500D02*
X145351500Y-106235500D01*
D13*
X113625000Y-95127000D02*
X116285000Y-95127000D01*
X116285000Y-95127000D02*
X116285000Y-92387000D01*
X116285000Y-92387000D02*
X113625000Y-92387000D01*
X113625000Y-92387000D02*
X113625000Y-95127000D01*
X114575000Y-92387000D02*
X115455000Y-92387000D01*
X115455000Y-92387000D02*
X115455000Y-86387000D01*
X115455000Y-86387000D02*
X114575000Y-86387000D01*
X114575000Y-86387000D02*
X114575000Y-92387000D01*
X114575000Y-95437000D02*
X114575000Y-95127000D01*
X115455000Y-95437000D02*
X115455000Y-95127000D01*
X114575000Y-97977000D02*
X114575000Y-97377000D01*
X115455000Y-97977000D02*
X115455000Y-97377000D01*
X114695000Y-92387000D02*
X114695000Y-86387000D01*
X114815000Y-92387000D02*
X114815000Y-86387000D01*
X114935000Y-92387000D02*
X114935000Y-86387000D01*
X115055000Y-92387000D02*
X115055000Y-86387000D01*
X115175000Y-92387000D02*
X115175000Y-86387000D01*
X115295000Y-92387000D02*
X115295000Y-86387000D01*
X115415000Y-92387000D02*
X115415000Y-86387000D01*
X116285000Y-95127000D02*
X118825000Y-95127000D01*
X118825000Y-95127000D02*
X118825000Y-92387000D01*
X118825000Y-92387000D02*
X116285000Y-92387000D01*
X116285000Y-92387000D02*
X116285000Y-95127000D01*
X117115000Y-92387000D02*
X117995000Y-92387000D01*
X117995000Y-92387000D02*
X117995000Y-86387000D01*
X117995000Y-86387000D02*
X117115000Y-86387000D01*
X117115000Y-86387000D02*
X117115000Y-92387000D01*
X117115000Y-95437000D02*
X117115000Y-95127000D01*
X117995000Y-95437000D02*
X117995000Y-95127000D01*
X117115000Y-97977000D02*
X117115000Y-97377000D01*
X117995000Y-97977000D02*
X117995000Y-97377000D01*
X118825000Y-95127000D02*
X121485000Y-95127000D01*
X121485000Y-95127000D02*
X121485000Y-92387000D01*
X121485000Y-92387000D02*
X118825000Y-92387000D01*
X118825000Y-92387000D02*
X118825000Y-95127000D01*
X119655000Y-92387000D02*
X120535000Y-92387000D01*
X120535000Y-92387000D02*
X120535000Y-86387000D01*
X120535000Y-86387000D02*
X119655000Y-86387000D01*
X119655000Y-86387000D02*
X119655000Y-92387000D01*
X119655000Y-95437000D02*
X119655000Y-95127000D01*
X120535000Y-95437000D02*
X120535000Y-95127000D01*
X119655000Y-97977000D02*
X119655000Y-97377000D01*
X120535000Y-97977000D02*
X120535000Y-97377000D01*
X115015000Y-100217000D02*
X113745000Y-100217000D01*
X113745000Y-100217000D02*
X113745000Y-98947000D01*
D14*
X145661143Y-107545143D02*
X145613524Y-107592762D01*
X145470667Y-107640381D01*
X145375429Y-107640381D01*
X145232571Y-107592762D01*
X145137333Y-107497524D01*
X145089714Y-107402286D01*
X145042095Y-107211810D01*
X145042095Y-107068952D01*
X145089714Y-106878476D01*
X145137333Y-106783238D01*
X145232571Y-106688000D01*
X145375429Y-106640381D01*
X145470667Y-106640381D01*
X145613524Y-106688000D01*
X145661143Y-106735619D01*
X146042095Y-106735619D02*
X146089714Y-106688000D01*
X146184952Y-106640381D01*
X146423048Y-106640381D01*
X146518286Y-106688000D01*
X146565905Y-106735619D01*
X146613524Y-106830857D01*
X146613524Y-106926095D01*
X146565905Y-107068952D01*
X145994476Y-107640381D01*
X146613524Y-107640381D01*
X146994476Y-106735619D02*
X147042095Y-106688000D01*
X147137333Y-106640381D01*
X147375429Y-106640381D01*
X147470667Y-106688000D01*
X147518286Y-106735619D01*
X147565905Y-106830857D01*
X147565905Y-106926095D01*
X147518286Y-107068952D01*
X146946857Y-107640381D01*
X147565905Y-107640381D01*
X136231334Y-130405143D02*
X136183715Y-130452762D01*
X136040858Y-130500381D01*
X135945620Y-130500381D01*
X135802762Y-130452762D01*
X135707524Y-130357524D01*
X135659905Y-130262286D01*
X135612286Y-130071810D01*
X135612286Y-129928952D01*
X135659905Y-129738476D01*
X135707524Y-129643238D01*
X135802762Y-129548000D01*
X135945620Y-129500381D01*
X136040858Y-129500381D01*
X136183715Y-129548000D01*
X136231334Y-129595619D01*
X137183715Y-130500381D02*
X136612286Y-130500381D01*
X136898000Y-130500381D02*
X136898000Y-129500381D01*
X136802762Y-129643238D01*
X136707524Y-129738476D01*
X136612286Y-129786095D01*
X138771334Y-130405143D02*
X138723715Y-130452762D01*
X138580858Y-130500381D01*
X138485620Y-130500381D01*
X138342762Y-130452762D01*
X138247524Y-130357524D01*
X138199905Y-130262286D01*
X138152286Y-130071810D01*
X138152286Y-129928952D01*
X138199905Y-129738476D01*
X138247524Y-129643238D01*
X138342762Y-129548000D01*
X138485620Y-129500381D01*
X138580858Y-129500381D01*
X138723715Y-129548000D01*
X138771334Y-129595619D01*
X139152286Y-129595619D02*
X139199905Y-129548000D01*
X139295143Y-129500381D01*
X139533239Y-129500381D01*
X139628477Y-129548000D01*
X139676096Y-129595619D01*
X139723715Y-129690857D01*
X139723715Y-129786095D01*
X139676096Y-129928952D01*
X139104667Y-130500381D01*
X139723715Y-130500381D01*
X141057334Y-130405143D02*
X141009715Y-130452762D01*
X140866858Y-130500381D01*
X140771620Y-130500381D01*
X140628762Y-130452762D01*
X140533524Y-130357524D01*
X140485905Y-130262286D01*
X140438286Y-130071810D01*
X140438286Y-129928952D01*
X140485905Y-129738476D01*
X140533524Y-129643238D01*
X140628762Y-129548000D01*
X140771620Y-129500381D01*
X140866858Y-129500381D01*
X141009715Y-129548000D01*
X141057334Y-129595619D01*
X141390667Y-129500381D02*
X142009715Y-129500381D01*
X141676381Y-129881333D01*
X141819239Y-129881333D01*
X141914477Y-129928952D01*
X141962096Y-129976571D01*
X142009715Y-130071810D01*
X142009715Y-130309905D01*
X141962096Y-130405143D01*
X141914477Y-130452762D01*
X141819239Y-130500381D01*
X141533524Y-130500381D01*
X141438286Y-130452762D01*
X141390667Y-130405143D01*
X140803334Y-121769143D02*
X140755715Y-121816762D01*
X140612858Y-121864381D01*
X140517620Y-121864381D01*
X140374762Y-121816762D01*
X140279524Y-121721524D01*
X140231905Y-121626286D01*
X140184286Y-121435810D01*
X140184286Y-121292952D01*
X140231905Y-121102476D01*
X140279524Y-121007238D01*
X140374762Y-120912000D01*
X140517620Y-120864381D01*
X140612858Y-120864381D01*
X140755715Y-120912000D01*
X140803334Y-120959619D01*
X141660477Y-121197714D02*
X141660477Y-121864381D01*
X141422381Y-120816762D02*
X141184286Y-121531048D01*
X141803334Y-121531048D01*
X143089334Y-121769143D02*
X143041715Y-121816762D01*
X142898858Y-121864381D01*
X142803620Y-121864381D01*
X142660762Y-121816762D01*
X142565524Y-121721524D01*
X142517905Y-121626286D01*
X142470286Y-121435810D01*
X142470286Y-121292952D01*
X142517905Y-121102476D01*
X142565524Y-121007238D01*
X142660762Y-120912000D01*
X142803620Y-120864381D01*
X142898858Y-120864381D01*
X143041715Y-120912000D01*
X143089334Y-120959619D01*
X143994096Y-120864381D02*
X143517905Y-120864381D01*
X143470286Y-121340571D01*
X143517905Y-121292952D01*
X143613143Y-121245333D01*
X143851239Y-121245333D01*
X143946477Y-121292952D01*
X143994096Y-121340571D01*
X144041715Y-121435810D01*
X144041715Y-121673905D01*
X143994096Y-121769143D01*
X143946477Y-121816762D01*
X143851239Y-121864381D01*
X143613143Y-121864381D01*
X143517905Y-121816762D01*
X143470286Y-121769143D01*
X145375334Y-121769143D02*
X145327715Y-121816762D01*
X145184858Y-121864381D01*
X145089620Y-121864381D01*
X144946762Y-121816762D01*
X144851524Y-121721524D01*
X144803905Y-121626286D01*
X144756286Y-121435810D01*
X144756286Y-121292952D01*
X144803905Y-121102476D01*
X144851524Y-121007238D01*
X144946762Y-120912000D01*
X145089620Y-120864381D01*
X145184858Y-120864381D01*
X145327715Y-120912000D01*
X145375334Y-120959619D01*
X146232477Y-120864381D02*
X146042000Y-120864381D01*
X145946762Y-120912000D01*
X145899143Y-120959619D01*
X145803905Y-121102476D01*
X145756286Y-121292952D01*
X145756286Y-121673905D01*
X145803905Y-121769143D01*
X145851524Y-121816762D01*
X145946762Y-121864381D01*
X146137239Y-121864381D01*
X146232477Y-121816762D01*
X146280096Y-121769143D01*
X146327715Y-121673905D01*
X146327715Y-121435810D01*
X146280096Y-121340571D01*
X146232477Y-121292952D01*
X146137239Y-121245333D01*
X145946762Y-121245333D01*
X145851524Y-121292952D01*
X145803905Y-121340571D01*
X145756286Y-121435810D01*
X107783334Y-95861143D02*
X107735715Y-95908762D01*
X107592858Y-95956381D01*
X107497620Y-95956381D01*
X107354762Y-95908762D01*
X107259524Y-95813524D01*
X107211905Y-95718286D01*
X107164286Y-95527810D01*
X107164286Y-95384952D01*
X107211905Y-95194476D01*
X107259524Y-95099238D01*
X107354762Y-95004000D01*
X107497620Y-94956381D01*
X107592858Y-94956381D01*
X107735715Y-95004000D01*
X107783334Y-95051619D01*
X108354762Y-95384952D02*
X108259524Y-95337333D01*
X108211905Y-95289714D01*
X108164286Y-95194476D01*
X108164286Y-95146857D01*
X108211905Y-95051619D01*
X108259524Y-95004000D01*
X108354762Y-94956381D01*
X108545239Y-94956381D01*
X108640477Y-95004000D01*
X108688096Y-95051619D01*
X108735715Y-95146857D01*
X108735715Y-95194476D01*
X108688096Y-95289714D01*
X108640477Y-95337333D01*
X108545239Y-95384952D01*
X108354762Y-95384952D01*
X108259524Y-95432571D01*
X108211905Y-95480190D01*
X108164286Y-95575429D01*
X108164286Y-95765905D01*
X108211905Y-95861143D01*
X108259524Y-95908762D01*
X108354762Y-95956381D01*
X108545239Y-95956381D01*
X108640477Y-95908762D01*
X108688096Y-95861143D01*
X108735715Y-95765905D01*
X108735715Y-95575429D01*
X108688096Y-95480190D01*
X108640477Y-95432571D01*
X108545239Y-95384952D01*
X106513334Y-122023143D02*
X106465715Y-122070762D01*
X106322858Y-122118381D01*
X106227620Y-122118381D01*
X106084762Y-122070762D01*
X105989524Y-121975524D01*
X105941905Y-121880286D01*
X105894286Y-121689810D01*
X105894286Y-121546952D01*
X105941905Y-121356476D01*
X105989524Y-121261238D01*
X106084762Y-121166000D01*
X106227620Y-121118381D01*
X106322858Y-121118381D01*
X106465715Y-121166000D01*
X106513334Y-121213619D01*
X106989524Y-122118381D02*
X107180000Y-122118381D01*
X107275239Y-122070762D01*
X107322858Y-122023143D01*
X107418096Y-121880286D01*
X107465715Y-121689810D01*
X107465715Y-121308857D01*
X107418096Y-121213619D01*
X107370477Y-121166000D01*
X107275239Y-121118381D01*
X107084762Y-121118381D01*
X106989524Y-121166000D01*
X106941905Y-121213619D01*
X106894286Y-121308857D01*
X106894286Y-121546952D01*
X106941905Y-121642190D01*
X106989524Y-121689810D01*
X107084762Y-121737429D01*
X107275239Y-121737429D01*
X107370477Y-121689810D01*
X107418096Y-121642190D01*
X107465715Y-121546952D01*
X119435643Y-128627143D02*
X119388024Y-128674762D01*
X119245167Y-128722381D01*
X119149929Y-128722381D01*
X119007071Y-128674762D01*
X118911833Y-128579524D01*
X118864214Y-128484286D01*
X118816595Y-128293810D01*
X118816595Y-128150952D01*
X118864214Y-127960476D01*
X118911833Y-127865238D01*
X119007071Y-127770000D01*
X119149929Y-127722381D01*
X119245167Y-127722381D01*
X119388024Y-127770000D01*
X119435643Y-127817619D01*
X120388024Y-128722381D02*
X119816595Y-128722381D01*
X120102309Y-128722381D02*
X120102309Y-127722381D01*
X120007071Y-127865238D01*
X119911833Y-127960476D01*
X119816595Y-128008095D01*
X121007071Y-127722381D02*
X121102310Y-127722381D01*
X121197548Y-127770000D01*
X121245167Y-127817619D01*
X121292786Y-127912857D01*
X121340405Y-128103333D01*
X121340405Y-128341429D01*
X121292786Y-128531905D01*
X121245167Y-128627143D01*
X121197548Y-128674762D01*
X121102310Y-128722381D01*
X121007071Y-128722381D01*
X120911833Y-128674762D01*
X120864214Y-128627143D01*
X120816595Y-128531905D01*
X120768976Y-128341429D01*
X120768976Y-128103333D01*
X120816595Y-127912857D01*
X120864214Y-127817619D01*
X120911833Y-127770000D01*
X121007071Y-127722381D01*
X126103143Y-97893143D02*
X126055524Y-97940762D01*
X125912667Y-97988381D01*
X125817429Y-97988381D01*
X125674571Y-97940762D01*
X125579333Y-97845524D01*
X125531714Y-97750286D01*
X125484095Y-97559810D01*
X125484095Y-97416952D01*
X125531714Y-97226476D01*
X125579333Y-97131238D01*
X125674571Y-97036000D01*
X125817429Y-96988381D01*
X125912667Y-96988381D01*
X126055524Y-97036000D01*
X126103143Y-97083619D01*
X127055524Y-97988381D02*
X126484095Y-97988381D01*
X126769809Y-97988381D02*
X126769809Y-96988381D01*
X126674571Y-97131238D01*
X126579333Y-97226476D01*
X126484095Y-97274095D01*
X128007905Y-97988381D02*
X127436476Y-97988381D01*
X127722190Y-97988381D02*
X127722190Y-96988381D01*
X127626952Y-97131238D01*
X127531714Y-97226476D01*
X127436476Y-97274095D01*
X106037143Y-124309143D02*
X105989524Y-124356762D01*
X105846667Y-124404381D01*
X105751429Y-124404381D01*
X105608571Y-124356762D01*
X105513333Y-124261524D01*
X105465714Y-124166286D01*
X105418095Y-123975810D01*
X105418095Y-123832952D01*
X105465714Y-123642476D01*
X105513333Y-123547238D01*
X105608571Y-123452000D01*
X105751429Y-123404381D01*
X105846667Y-123404381D01*
X105989524Y-123452000D01*
X106037143Y-123499619D01*
X106989524Y-124404381D02*
X106418095Y-124404381D01*
X106703809Y-124404381D02*
X106703809Y-123404381D01*
X106608571Y-123547238D01*
X106513333Y-123642476D01*
X106418095Y-123690095D01*
X107370476Y-123499619D02*
X107418095Y-123452000D01*
X107513333Y-123404381D01*
X107751429Y-123404381D01*
X107846667Y-123452000D01*
X107894286Y-123499619D01*
X107941905Y-123594857D01*
X107941905Y-123690095D01*
X107894286Y-123832952D01*
X107322857Y-124404381D01*
X107941905Y-124404381D01*
X119499143Y-130659143D02*
X119451524Y-130706762D01*
X119308667Y-130754381D01*
X119213429Y-130754381D01*
X119070571Y-130706762D01*
X118975333Y-130611524D01*
X118927714Y-130516286D01*
X118880095Y-130325810D01*
X118880095Y-130182952D01*
X118927714Y-129992476D01*
X118975333Y-129897238D01*
X119070571Y-129802000D01*
X119213429Y-129754381D01*
X119308667Y-129754381D01*
X119451524Y-129802000D01*
X119499143Y-129849619D01*
X120451524Y-130754381D02*
X119880095Y-130754381D01*
X120165809Y-130754381D02*
X120165809Y-129754381D01*
X120070571Y-129897238D01*
X119975333Y-129992476D01*
X119880095Y-130040095D01*
X120784857Y-129754381D02*
X121403905Y-129754381D01*
X121070571Y-130135333D01*
X121213429Y-130135333D01*
X121308667Y-130182952D01*
X121356286Y-130230571D01*
X121403905Y-130325810D01*
X121403905Y-130563905D01*
X121356286Y-130659143D01*
X121308667Y-130706762D01*
X121213429Y-130754381D01*
X120927714Y-130754381D01*
X120832476Y-130706762D01*
X120784857Y-130659143D01*
X106037143Y-119991143D02*
X105989524Y-120038762D01*
X105846667Y-120086381D01*
X105751429Y-120086381D01*
X105608571Y-120038762D01*
X105513333Y-119943524D01*
X105465714Y-119848286D01*
X105418095Y-119657810D01*
X105418095Y-119514952D01*
X105465714Y-119324476D01*
X105513333Y-119229238D01*
X105608571Y-119134000D01*
X105751429Y-119086381D01*
X105846667Y-119086381D01*
X105989524Y-119134000D01*
X106037143Y-119181619D01*
X106989524Y-120086381D02*
X106418095Y-120086381D01*
X106703809Y-120086381D02*
X106703809Y-119086381D01*
X106608571Y-119229238D01*
X106513333Y-119324476D01*
X106418095Y-119372095D01*
X107846667Y-119419714D02*
X107846667Y-120086381D01*
X107608571Y-119038762D02*
X107370476Y-119753048D01*
X107989524Y-119753048D01*
X119435643Y-132691143D02*
X119388024Y-132738762D01*
X119245167Y-132786381D01*
X119149929Y-132786381D01*
X119007071Y-132738762D01*
X118911833Y-132643524D01*
X118864214Y-132548286D01*
X118816595Y-132357810D01*
X118816595Y-132214952D01*
X118864214Y-132024476D01*
X118911833Y-131929238D01*
X119007071Y-131834000D01*
X119149929Y-131786381D01*
X119245167Y-131786381D01*
X119388024Y-131834000D01*
X119435643Y-131881619D01*
X120388024Y-132786381D02*
X119816595Y-132786381D01*
X120102309Y-132786381D02*
X120102309Y-131786381D01*
X120007071Y-131929238D01*
X119911833Y-132024476D01*
X119816595Y-132072095D01*
X121292786Y-131786381D02*
X120816595Y-131786381D01*
X120768976Y-132262571D01*
X120816595Y-132214952D01*
X120911833Y-132167333D01*
X121149929Y-132167333D01*
X121245167Y-132214952D01*
X121292786Y-132262571D01*
X121340405Y-132357810D01*
X121340405Y-132595905D01*
X121292786Y-132691143D01*
X121245167Y-132738762D01*
X121149929Y-132786381D01*
X120911833Y-132786381D01*
X120816595Y-132738762D01*
X120768976Y-132691143D01*
X113403143Y-103227143D02*
X113355524Y-103274762D01*
X113212667Y-103322381D01*
X113117429Y-103322381D01*
X112974571Y-103274762D01*
X112879333Y-103179524D01*
X112831714Y-103084286D01*
X112784095Y-102893810D01*
X112784095Y-102750952D01*
X112831714Y-102560476D01*
X112879333Y-102465238D01*
X112974571Y-102370000D01*
X113117429Y-102322381D01*
X113212667Y-102322381D01*
X113355524Y-102370000D01*
X113403143Y-102417619D01*
X114355524Y-103322381D02*
X113784095Y-103322381D01*
X114069809Y-103322381D02*
X114069809Y-102322381D01*
X113974571Y-102465238D01*
X113879333Y-102560476D01*
X113784095Y-102608095D01*
X115212667Y-102322381D02*
X115022190Y-102322381D01*
X114926952Y-102370000D01*
X114879333Y-102417619D01*
X114784095Y-102560476D01*
X114736476Y-102750952D01*
X114736476Y-103131905D01*
X114784095Y-103227143D01*
X114831714Y-103274762D01*
X114926952Y-103322381D01*
X115117429Y-103322381D01*
X115212667Y-103274762D01*
X115260286Y-103227143D01*
X115307905Y-103131905D01*
X115307905Y-102893810D01*
X115260286Y-102798571D01*
X115212667Y-102750952D01*
X115117429Y-102703333D01*
X114926952Y-102703333D01*
X114831714Y-102750952D01*
X114784095Y-102798571D01*
X114736476Y-102893810D01*
X150741143Y-129643143D02*
X150693524Y-129690762D01*
X150550667Y-129738381D01*
X150455429Y-129738381D01*
X150312571Y-129690762D01*
X150217333Y-129595524D01*
X150169714Y-129500286D01*
X150122095Y-129309810D01*
X150122095Y-129166952D01*
X150169714Y-128976476D01*
X150217333Y-128881238D01*
X150312571Y-128786000D01*
X150455429Y-128738381D01*
X150550667Y-128738381D01*
X150693524Y-128786000D01*
X150741143Y-128833619D01*
X151693524Y-129738381D02*
X151122095Y-129738381D01*
X151407809Y-129738381D02*
X151407809Y-128738381D01*
X151312571Y-128881238D01*
X151217333Y-128976476D01*
X151122095Y-129024095D01*
X152026857Y-128738381D02*
X152693524Y-128738381D01*
X152264952Y-129738381D01*
X160139143Y-133453143D02*
X160091524Y-133500762D01*
X159948667Y-133548381D01*
X159853429Y-133548381D01*
X159710571Y-133500762D01*
X159615333Y-133405524D01*
X159567714Y-133310286D01*
X159520095Y-133119810D01*
X159520095Y-132976952D01*
X159567714Y-132786476D01*
X159615333Y-132691238D01*
X159710571Y-132596000D01*
X159853429Y-132548381D01*
X159948667Y-132548381D01*
X160091524Y-132596000D01*
X160139143Y-132643619D01*
X161091524Y-133548381D02*
X160520095Y-133548381D01*
X160805809Y-133548381D02*
X160805809Y-132548381D01*
X160710571Y-132691238D01*
X160615333Y-132786476D01*
X160520095Y-132834095D01*
X161662952Y-132976952D02*
X161567714Y-132929333D01*
X161520095Y-132881714D01*
X161472476Y-132786476D01*
X161472476Y-132738857D01*
X161520095Y-132643619D01*
X161567714Y-132596000D01*
X161662952Y-132548381D01*
X161853429Y-132548381D01*
X161948667Y-132596000D01*
X161996286Y-132643619D01*
X162043905Y-132738857D01*
X162043905Y-132786476D01*
X161996286Y-132881714D01*
X161948667Y-132929333D01*
X161853429Y-132976952D01*
X161662952Y-132976952D01*
X161567714Y-133024571D01*
X161520095Y-133072190D01*
X161472476Y-133167429D01*
X161472476Y-133357905D01*
X161520095Y-133453143D01*
X161567714Y-133500762D01*
X161662952Y-133548381D01*
X161853429Y-133548381D01*
X161948667Y-133500762D01*
X161996286Y-133453143D01*
X162043905Y-133357905D01*
X162043905Y-133167429D01*
X161996286Y-133072190D01*
X161948667Y-133024571D01*
X161853429Y-132976952D01*
X163187143Y-123293143D02*
X163139524Y-123340762D01*
X162996667Y-123388381D01*
X162901429Y-123388381D01*
X162758571Y-123340762D01*
X162663333Y-123245524D01*
X162615714Y-123150286D01*
X162568095Y-122959810D01*
X162568095Y-122816952D01*
X162615714Y-122626476D01*
X162663333Y-122531238D01*
X162758571Y-122436000D01*
X162901429Y-122388381D01*
X162996667Y-122388381D01*
X163139524Y-122436000D01*
X163187143Y-122483619D01*
X164139524Y-123388381D02*
X163568095Y-123388381D01*
X163853809Y-123388381D02*
X163853809Y-122388381D01*
X163758571Y-122531238D01*
X163663333Y-122626476D01*
X163568095Y-122674095D01*
X164615714Y-123388381D02*
X164806190Y-123388381D01*
X164901429Y-123340762D01*
X164949048Y-123293143D01*
X165044286Y-123150286D01*
X165091905Y-122959810D01*
X165091905Y-122578857D01*
X165044286Y-122483619D01*
X164996667Y-122436000D01*
X164901429Y-122388381D01*
X164710952Y-122388381D01*
X164615714Y-122436000D01*
X164568095Y-122483619D01*
X164520476Y-122578857D01*
X164520476Y-122816952D01*
X164568095Y-122912190D01*
X164615714Y-122959810D01*
X164710952Y-123007429D01*
X164901429Y-123007429D01*
X164996667Y-122959810D01*
X165044286Y-122912190D01*
X165091905Y-122816952D01*
X141089143Y-107545143D02*
X141041524Y-107592762D01*
X140898667Y-107640381D01*
X140803429Y-107640381D01*
X140660571Y-107592762D01*
X140565333Y-107497524D01*
X140517714Y-107402286D01*
X140470095Y-107211810D01*
X140470095Y-107068952D01*
X140517714Y-106878476D01*
X140565333Y-106783238D01*
X140660571Y-106688000D01*
X140803429Y-106640381D01*
X140898667Y-106640381D01*
X141041524Y-106688000D01*
X141089143Y-106735619D01*
X141470095Y-106735619D02*
X141517714Y-106688000D01*
X141612952Y-106640381D01*
X141851048Y-106640381D01*
X141946286Y-106688000D01*
X141993905Y-106735619D01*
X142041524Y-106830857D01*
X142041524Y-106926095D01*
X141993905Y-107068952D01*
X141422476Y-107640381D01*
X142041524Y-107640381D01*
X142660571Y-106640381D02*
X142755810Y-106640381D01*
X142851048Y-106688000D01*
X142898667Y-106735619D01*
X142946286Y-106830857D01*
X142993905Y-107021333D01*
X142993905Y-107259429D01*
X142946286Y-107449905D01*
X142898667Y-107545143D01*
X142851048Y-107592762D01*
X142755810Y-107640381D01*
X142660571Y-107640381D01*
X142565333Y-107592762D01*
X142517714Y-107545143D01*
X142470095Y-107449905D01*
X142422476Y-107259429D01*
X142422476Y-107021333D01*
X142470095Y-106830857D01*
X142517714Y-106735619D01*
X142565333Y-106688000D01*
X142660571Y-106640381D01*
X143455143Y-111750143D02*
X143407524Y-111797762D01*
X143264667Y-111845381D01*
X143169429Y-111845381D01*
X143026571Y-111797762D01*
X142931333Y-111702524D01*
X142883714Y-111607286D01*
X142836095Y-111416810D01*
X142836095Y-111273952D01*
X142883714Y-111083476D01*
X142931333Y-110988238D01*
X143026571Y-110893000D01*
X143169429Y-110845381D01*
X143264667Y-110845381D01*
X143407524Y-110893000D01*
X143455143Y-110940619D01*
X143836095Y-110940619D02*
X143883714Y-110893000D01*
X143978952Y-110845381D01*
X144217048Y-110845381D01*
X144312286Y-110893000D01*
X144359905Y-110940619D01*
X144407524Y-111035857D01*
X144407524Y-111131095D01*
X144359905Y-111273952D01*
X143788476Y-111845381D01*
X144407524Y-111845381D01*
X145359905Y-111845381D02*
X144788476Y-111845381D01*
X145074190Y-111845381D02*
X145074190Y-110845381D01*
X144978952Y-110988238D01*
X144883714Y-111083476D01*
X144788476Y-111131095D01*
X139311143Y-100941143D02*
X139263524Y-100988762D01*
X139120667Y-101036381D01*
X139025429Y-101036381D01*
X138882571Y-100988762D01*
X138787333Y-100893524D01*
X138739714Y-100798286D01*
X138692095Y-100607810D01*
X138692095Y-100464952D01*
X138739714Y-100274476D01*
X138787333Y-100179238D01*
X138882571Y-100084000D01*
X139025429Y-100036381D01*
X139120667Y-100036381D01*
X139263524Y-100084000D01*
X139311143Y-100131619D01*
X139692095Y-100131619D02*
X139739714Y-100084000D01*
X139834952Y-100036381D01*
X140073048Y-100036381D01*
X140168286Y-100084000D01*
X140215905Y-100131619D01*
X140263524Y-100226857D01*
X140263524Y-100322095D01*
X140215905Y-100464952D01*
X139644476Y-101036381D01*
X140263524Y-101036381D01*
X140596857Y-100036381D02*
X141215905Y-100036381D01*
X140882571Y-100417333D01*
X141025429Y-100417333D01*
X141120667Y-100464952D01*
X141168286Y-100512571D01*
X141215905Y-100607810D01*
X141215905Y-100845905D01*
X141168286Y-100941143D01*
X141120667Y-100988762D01*
X141025429Y-101036381D01*
X140739714Y-101036381D01*
X140644476Y-100988762D01*
X140596857Y-100941143D01*
X119657905Y-110434381D02*
X119657905Y-109434381D01*
X119896000Y-109434381D01*
X120038858Y-109482000D01*
X120134096Y-109577238D01*
X120181715Y-109672476D01*
X120229334Y-109862952D01*
X120229334Y-110005810D01*
X120181715Y-110196286D01*
X120134096Y-110291524D01*
X120038858Y-110386762D01*
X119896000Y-110434381D01*
X119657905Y-110434381D01*
X120610286Y-109529619D02*
X120657905Y-109482000D01*
X120753143Y-109434381D01*
X120991239Y-109434381D01*
X121086477Y-109482000D01*
X121134096Y-109529619D01*
X121181715Y-109624857D01*
X121181715Y-109720095D01*
X121134096Y-109862952D01*
X120562667Y-110434381D01*
X121181715Y-110434381D01*
X129563905Y-104592381D02*
X129563905Y-103592381D01*
X129802000Y-103592381D01*
X129944858Y-103640000D01*
X130040096Y-103735238D01*
X130087715Y-103830476D01*
X130135334Y-104020952D01*
X130135334Y-104163810D01*
X130087715Y-104354286D01*
X130040096Y-104449524D01*
X129944858Y-104544762D01*
X129802000Y-104592381D01*
X129563905Y-104592381D01*
X130468667Y-103592381D02*
X131087715Y-103592381D01*
X130754381Y-103973333D01*
X130897239Y-103973333D01*
X130992477Y-104020952D01*
X131040096Y-104068571D01*
X131087715Y-104163810D01*
X131087715Y-104401905D01*
X131040096Y-104497143D01*
X130992477Y-104544762D01*
X130897239Y-104592381D01*
X130611524Y-104592381D01*
X130516286Y-104544762D01*
X130468667Y-104497143D01*
X166036667Y-131278381D02*
X166036667Y-131992667D01*
X165989047Y-132135524D01*
X165893809Y-132230762D01*
X165750952Y-132278381D01*
X165655714Y-132278381D01*
X166417619Y-131278381D02*
X167036667Y-131278381D01*
X166703333Y-131659333D01*
X166846191Y-131659333D01*
X166941429Y-131706952D01*
X166989048Y-131754571D01*
X167036667Y-131849810D01*
X167036667Y-132087905D01*
X166989048Y-132183143D01*
X166941429Y-132230762D01*
X166846191Y-132278381D01*
X166560476Y-132278381D01*
X166465238Y-132230762D01*
X166417619Y-132183143D01*
X149883905Y-115260381D02*
X149883905Y-114260381D01*
X150264858Y-114260381D01*
X150360096Y-114308000D01*
X150407715Y-114355619D01*
X150455334Y-114450857D01*
X150455334Y-114593714D01*
X150407715Y-114688952D01*
X150360096Y-114736571D01*
X150264858Y-114784190D01*
X149883905Y-114784190D01*
X151407715Y-115260381D02*
X150836286Y-115260381D01*
X151122000Y-115260381D02*
X151122000Y-114260381D01*
X151026762Y-114403238D01*
X150931524Y-114498476D01*
X150836286Y-114546095D01*
X146073905Y-90114381D02*
X146073905Y-89114381D01*
X146454858Y-89114381D01*
X146550096Y-89162000D01*
X146597715Y-89209619D01*
X146645334Y-89304857D01*
X146645334Y-89447714D01*
X146597715Y-89542952D01*
X146550096Y-89590571D01*
X146454858Y-89638190D01*
X146073905Y-89638190D01*
X147026286Y-89209619D02*
X147073905Y-89162000D01*
X147169143Y-89114381D01*
X147407239Y-89114381D01*
X147502477Y-89162000D01*
X147550096Y-89209619D01*
X147597715Y-89304857D01*
X147597715Y-89400095D01*
X147550096Y-89542952D01*
X146978667Y-90114381D01*
X147597715Y-90114381D01*
X154455905Y-90114381D02*
X154455905Y-89114381D01*
X154836858Y-89114381D01*
X154932096Y-89162000D01*
X154979715Y-89209619D01*
X155027334Y-89304857D01*
X155027334Y-89447714D01*
X154979715Y-89542952D01*
X154932096Y-89590571D01*
X154836858Y-89638190D01*
X154455905Y-89638190D01*
X155360667Y-89114381D02*
X155979715Y-89114381D01*
X155646381Y-89495333D01*
X155789239Y-89495333D01*
X155884477Y-89542952D01*
X155932096Y-89590571D01*
X155979715Y-89685810D01*
X155979715Y-89923905D01*
X155932096Y-90019143D01*
X155884477Y-90066762D01*
X155789239Y-90114381D01*
X155503524Y-90114381D01*
X155408286Y-90066762D01*
X155360667Y-90019143D01*
X178720762Y-121959619D02*
X178625524Y-121912000D01*
X178530286Y-121816762D01*
X178387429Y-121673905D01*
X178292190Y-121626286D01*
X178196952Y-121626286D01*
X178244571Y-121864381D02*
X178149333Y-121816762D01*
X178054095Y-121721524D01*
X178006476Y-121531048D01*
X178006476Y-121197714D01*
X178054095Y-121007238D01*
X178149333Y-120912000D01*
X178244571Y-120864381D01*
X178435048Y-120864381D01*
X178530286Y-120912000D01*
X178625524Y-121007238D01*
X178673143Y-121197714D01*
X178673143Y-121531048D01*
X178625524Y-121721524D01*
X178530286Y-121816762D01*
X178435048Y-121864381D01*
X178244571Y-121864381D01*
X179625524Y-121864381D02*
X179054095Y-121864381D01*
X179339809Y-121864381D02*
X179339809Y-120864381D01*
X179244571Y-121007238D01*
X179149333Y-121102476D01*
X179054095Y-121150095D01*
X178720762Y-126277619D02*
X178625524Y-126230000D01*
X178530286Y-126134762D01*
X178387429Y-125991905D01*
X178292190Y-125944286D01*
X178196952Y-125944286D01*
X178244571Y-126182381D02*
X178149333Y-126134762D01*
X178054095Y-126039524D01*
X178006476Y-125849048D01*
X178006476Y-125515714D01*
X178054095Y-125325238D01*
X178149333Y-125230000D01*
X178244571Y-125182381D01*
X178435048Y-125182381D01*
X178530286Y-125230000D01*
X178625524Y-125325238D01*
X178673143Y-125515714D01*
X178673143Y-125849048D01*
X178625524Y-126039524D01*
X178530286Y-126134762D01*
X178435048Y-126182381D01*
X178244571Y-126182381D01*
X179054095Y-125277619D02*
X179101714Y-125230000D01*
X179196952Y-125182381D01*
X179435048Y-125182381D01*
X179530286Y-125230000D01*
X179577905Y-125277619D01*
X179625524Y-125372857D01*
X179625524Y-125468095D01*
X179577905Y-125610952D01*
X179006476Y-126182381D01*
X179625524Y-126182381D01*
X170846762Y-114339619D02*
X170751524Y-114292000D01*
X170656286Y-114196762D01*
X170513429Y-114053905D01*
X170418190Y-114006286D01*
X170322952Y-114006286D01*
X170370571Y-114244381D02*
X170275333Y-114196762D01*
X170180095Y-114101524D01*
X170132476Y-113911048D01*
X170132476Y-113577714D01*
X170180095Y-113387238D01*
X170275333Y-113292000D01*
X170370571Y-113244381D01*
X170561048Y-113244381D01*
X170656286Y-113292000D01*
X170751524Y-113387238D01*
X170799143Y-113577714D01*
X170799143Y-113911048D01*
X170751524Y-114101524D01*
X170656286Y-114196762D01*
X170561048Y-114244381D01*
X170370571Y-114244381D01*
X171132476Y-113244381D02*
X171751524Y-113244381D01*
X171418190Y-113625333D01*
X171561048Y-113625333D01*
X171656286Y-113672952D01*
X171703905Y-113720571D01*
X171751524Y-113815810D01*
X171751524Y-114053905D01*
X171703905Y-114149143D01*
X171656286Y-114196762D01*
X171561048Y-114244381D01*
X171275333Y-114244381D01*
X171180095Y-114196762D01*
X171132476Y-114149143D01*
X170846762Y-118657619D02*
X170751524Y-118610000D01*
X170656286Y-118514762D01*
X170513429Y-118371905D01*
X170418190Y-118324286D01*
X170322952Y-118324286D01*
X170370571Y-118562381D02*
X170275333Y-118514762D01*
X170180095Y-118419524D01*
X170132476Y-118229048D01*
X170132476Y-117895714D01*
X170180095Y-117705238D01*
X170275333Y-117610000D01*
X170370571Y-117562381D01*
X170561048Y-117562381D01*
X170656286Y-117610000D01*
X170751524Y-117705238D01*
X170799143Y-117895714D01*
X170799143Y-118229048D01*
X170751524Y-118419524D01*
X170656286Y-118514762D01*
X170561048Y-118562381D01*
X170370571Y-118562381D01*
X171656286Y-117895714D02*
X171656286Y-118562381D01*
X171418190Y-117514762D02*
X171180095Y-118229048D01*
X171799143Y-118229048D01*
X168560762Y-121959619D02*
X168465524Y-121912000D01*
X168370286Y-121816762D01*
X168227429Y-121673905D01*
X168132190Y-121626286D01*
X168036952Y-121626286D01*
X168084571Y-121864381D02*
X167989333Y-121816762D01*
X167894095Y-121721524D01*
X167846476Y-121531048D01*
X167846476Y-121197714D01*
X167894095Y-121007238D01*
X167989333Y-120912000D01*
X168084571Y-120864381D01*
X168275048Y-120864381D01*
X168370286Y-120912000D01*
X168465524Y-121007238D01*
X168513143Y-121197714D01*
X168513143Y-121531048D01*
X168465524Y-121721524D01*
X168370286Y-121816762D01*
X168275048Y-121864381D01*
X168084571Y-121864381D01*
X169417905Y-120864381D02*
X168941714Y-120864381D01*
X168894095Y-121340571D01*
X168941714Y-121292952D01*
X169036952Y-121245333D01*
X169275048Y-121245333D01*
X169370286Y-121292952D01*
X169417905Y-121340571D01*
X169465524Y-121435810D01*
X169465524Y-121673905D01*
X169417905Y-121769143D01*
X169370286Y-121816762D01*
X169275048Y-121864381D01*
X169036952Y-121864381D01*
X168941714Y-121816762D01*
X168894095Y-121769143D01*
X168560762Y-126023619D02*
X168465524Y-125976000D01*
X168370286Y-125880762D01*
X168227429Y-125737905D01*
X168132190Y-125690286D01*
X168036952Y-125690286D01*
X168084571Y-125928381D02*
X167989333Y-125880762D01*
X167894095Y-125785524D01*
X167846476Y-125595048D01*
X167846476Y-125261714D01*
X167894095Y-125071238D01*
X167989333Y-124976000D01*
X168084571Y-124928381D01*
X168275048Y-124928381D01*
X168370286Y-124976000D01*
X168465524Y-125071238D01*
X168513143Y-125261714D01*
X168513143Y-125595048D01*
X168465524Y-125785524D01*
X168370286Y-125880762D01*
X168275048Y-125928381D01*
X168084571Y-125928381D01*
X169370286Y-124928381D02*
X169179809Y-124928381D01*
X169084571Y-124976000D01*
X169036952Y-125023619D01*
X168941714Y-125166476D01*
X168894095Y-125356952D01*
X168894095Y-125737905D01*
X168941714Y-125833143D01*
X168989333Y-125880762D01*
X169084571Y-125928381D01*
X169275048Y-125928381D01*
X169370286Y-125880762D01*
X169417905Y-125833143D01*
X169465524Y-125737905D01*
X169465524Y-125499810D01*
X169417905Y-125404571D01*
X169370286Y-125356952D01*
X169275048Y-125309333D01*
X169084571Y-125309333D01*
X168989333Y-125356952D01*
X168941714Y-125404571D01*
X168894095Y-125499810D01*
X160686762Y-114339619D02*
X160591524Y-114292000D01*
X160496286Y-114196762D01*
X160353429Y-114053905D01*
X160258190Y-114006286D01*
X160162952Y-114006286D01*
X160210571Y-114244381D02*
X160115333Y-114196762D01*
X160020095Y-114101524D01*
X159972476Y-113911048D01*
X159972476Y-113577714D01*
X160020095Y-113387238D01*
X160115333Y-113292000D01*
X160210571Y-113244381D01*
X160401048Y-113244381D01*
X160496286Y-113292000D01*
X160591524Y-113387238D01*
X160639143Y-113577714D01*
X160639143Y-113911048D01*
X160591524Y-114101524D01*
X160496286Y-114196762D01*
X160401048Y-114244381D01*
X160210571Y-114244381D01*
X160972476Y-113244381D02*
X161639143Y-113244381D01*
X161210571Y-114244381D01*
X160686762Y-118657619D02*
X160591524Y-118610000D01*
X160496286Y-118514762D01*
X160353429Y-118371905D01*
X160258190Y-118324286D01*
X160162952Y-118324286D01*
X160210571Y-118562381D02*
X160115333Y-118514762D01*
X160020095Y-118419524D01*
X159972476Y-118229048D01*
X159972476Y-117895714D01*
X160020095Y-117705238D01*
X160115333Y-117610000D01*
X160210571Y-117562381D01*
X160401048Y-117562381D01*
X160496286Y-117610000D01*
X160591524Y-117705238D01*
X160639143Y-117895714D01*
X160639143Y-118229048D01*
X160591524Y-118419524D01*
X160496286Y-118514762D01*
X160401048Y-118562381D01*
X160210571Y-118562381D01*
X161210571Y-117990952D02*
X161115333Y-117943333D01*
X161067714Y-117895714D01*
X161020095Y-117800476D01*
X161020095Y-117752857D01*
X161067714Y-117657619D01*
X161115333Y-117610000D01*
X161210571Y-117562381D01*
X161401048Y-117562381D01*
X161496286Y-117610000D01*
X161543905Y-117657619D01*
X161591524Y-117752857D01*
X161591524Y-117800476D01*
X161543905Y-117895714D01*
X161496286Y-117943333D01*
X161401048Y-117990952D01*
X161210571Y-117990952D01*
X161115333Y-118038571D01*
X161067714Y-118086190D01*
X161020095Y-118181429D01*
X161020095Y-118371905D01*
X161067714Y-118467143D01*
X161115333Y-118514762D01*
X161210571Y-118562381D01*
X161401048Y-118562381D01*
X161496286Y-118514762D01*
X161543905Y-118467143D01*
X161591524Y-118371905D01*
X161591524Y-118181429D01*
X161543905Y-118086190D01*
X161496286Y-118038571D01*
X161401048Y-117990952D01*
X133334762Y-113043619D02*
X133239524Y-112996000D01*
X133144286Y-112900762D01*
X133001429Y-112757905D01*
X132906190Y-112710286D01*
X132810952Y-112710286D01*
X132858571Y-112948381D02*
X132763333Y-112900762D01*
X132668095Y-112805524D01*
X132620476Y-112615048D01*
X132620476Y-112281714D01*
X132668095Y-112091238D01*
X132763333Y-111996000D01*
X132858571Y-111948381D01*
X133049048Y-111948381D01*
X133144286Y-111996000D01*
X133239524Y-112091238D01*
X133287143Y-112281714D01*
X133287143Y-112615048D01*
X133239524Y-112805524D01*
X133144286Y-112900762D01*
X133049048Y-112948381D01*
X132858571Y-112948381D01*
X133763333Y-112948381D02*
X133953809Y-112948381D01*
X134049048Y-112900762D01*
X134096667Y-112853143D01*
X134191905Y-112710286D01*
X134239524Y-112519810D01*
X134239524Y-112138857D01*
X134191905Y-112043619D01*
X134144286Y-111996000D01*
X134049048Y-111948381D01*
X133858571Y-111948381D01*
X133763333Y-111996000D01*
X133715714Y-112043619D01*
X133668095Y-112138857D01*
X133668095Y-112376952D01*
X133715714Y-112472190D01*
X133763333Y-112519810D01*
X133858571Y-112567429D01*
X134049048Y-112567429D01*
X134144286Y-112519810D01*
X134191905Y-112472190D01*
X134239524Y-112376952D01*
X107783334Y-93924381D02*
X107450000Y-93448190D01*
X107211905Y-93924381D02*
X107211905Y-92924381D01*
X107592858Y-92924381D01*
X107688096Y-92972000D01*
X107735715Y-93019619D01*
X107783334Y-93114857D01*
X107783334Y-93257714D01*
X107735715Y-93352952D01*
X107688096Y-93400571D01*
X107592858Y-93448190D01*
X107211905Y-93448190D01*
X108164286Y-93019619D02*
X108211905Y-92972000D01*
X108307143Y-92924381D01*
X108545239Y-92924381D01*
X108640477Y-92972000D01*
X108688096Y-93019619D01*
X108735715Y-93114857D01*
X108735715Y-93210095D01*
X108688096Y-93352952D01*
X108116667Y-93924381D01*
X108735715Y-93924381D01*
X113371334Y-132532381D02*
X113038000Y-132056190D01*
X112799905Y-132532381D02*
X112799905Y-131532381D01*
X113180858Y-131532381D01*
X113276096Y-131580000D01*
X113323715Y-131627619D01*
X113371334Y-131722857D01*
X113371334Y-131865714D01*
X113323715Y-131960952D01*
X113276096Y-132008571D01*
X113180858Y-132056190D01*
X112799905Y-132056190D01*
X113704667Y-131532381D02*
X114323715Y-131532381D01*
X113990381Y-131913333D01*
X114133239Y-131913333D01*
X114228477Y-131960952D01*
X114276096Y-132008571D01*
X114323715Y-132103810D01*
X114323715Y-132341905D01*
X114276096Y-132437143D01*
X114228477Y-132484762D01*
X114133239Y-132532381D01*
X113847524Y-132532381D01*
X113752286Y-132484762D01*
X113704667Y-132437143D01*
X111085334Y-132532381D02*
X110752000Y-132056190D01*
X110513905Y-132532381D02*
X110513905Y-131532381D01*
X110894858Y-131532381D01*
X110990096Y-131580000D01*
X111037715Y-131627619D01*
X111085334Y-131722857D01*
X111085334Y-131865714D01*
X111037715Y-131960952D01*
X110990096Y-132008571D01*
X110894858Y-132056190D01*
X110513905Y-132056190D01*
X111942477Y-131865714D02*
X111942477Y-132532381D01*
X111704381Y-131484762D02*
X111466286Y-132199048D01*
X112085334Y-132199048D01*
X126071334Y-96210381D02*
X125738000Y-95734190D01*
X125499905Y-96210381D02*
X125499905Y-95210381D01*
X125880858Y-95210381D01*
X125976096Y-95258000D01*
X126023715Y-95305619D01*
X126071334Y-95400857D01*
X126071334Y-95543714D01*
X126023715Y-95638952D01*
X125976096Y-95686571D01*
X125880858Y-95734190D01*
X125499905Y-95734190D01*
X126976096Y-95210381D02*
X126499905Y-95210381D01*
X126452286Y-95686571D01*
X126499905Y-95638952D01*
X126595143Y-95591333D01*
X126833239Y-95591333D01*
X126928477Y-95638952D01*
X126976096Y-95686571D01*
X127023715Y-95781810D01*
X127023715Y-96019905D01*
X126976096Y-96115143D01*
X126928477Y-96162762D01*
X126833239Y-96210381D01*
X126595143Y-96210381D01*
X126499905Y-96162762D01*
X126452286Y-96115143D01*
X120483334Y-103322381D02*
X120150000Y-102846190D01*
X119911905Y-103322381D02*
X119911905Y-102322381D01*
X120292858Y-102322381D01*
X120388096Y-102370000D01*
X120435715Y-102417619D01*
X120483334Y-102512857D01*
X120483334Y-102655714D01*
X120435715Y-102750952D01*
X120388096Y-102798571D01*
X120292858Y-102846190D01*
X119911905Y-102846190D01*
X121340477Y-102322381D02*
X121150000Y-102322381D01*
X121054762Y-102370000D01*
X121007143Y-102417619D01*
X120911905Y-102560476D01*
X120864286Y-102750952D01*
X120864286Y-103131905D01*
X120911905Y-103227143D01*
X120959524Y-103274762D01*
X121054762Y-103322381D01*
X121245239Y-103322381D01*
X121340477Y-103274762D01*
X121388096Y-103227143D01*
X121435715Y-103131905D01*
X121435715Y-102893810D01*
X121388096Y-102798571D01*
X121340477Y-102750952D01*
X121245239Y-102703333D01*
X121054762Y-102703333D01*
X120959524Y-102750952D01*
X120911905Y-102798571D01*
X120864286Y-102893810D01*
X114641334Y-115514381D02*
X114308000Y-115038190D01*
X114069905Y-115514381D02*
X114069905Y-114514381D01*
X114450858Y-114514381D01*
X114546096Y-114562000D01*
X114593715Y-114609619D01*
X114641334Y-114704857D01*
X114641334Y-114847714D01*
X114593715Y-114942952D01*
X114546096Y-114990571D01*
X114450858Y-115038190D01*
X114069905Y-115038190D01*
X114974667Y-114514381D02*
X115641334Y-114514381D01*
X115212762Y-115514381D01*
X116927334Y-115514381D02*
X116594000Y-115038190D01*
X116355905Y-115514381D02*
X116355905Y-114514381D01*
X116736858Y-114514381D01*
X116832096Y-114562000D01*
X116879715Y-114609619D01*
X116927334Y-114704857D01*
X116927334Y-114847714D01*
X116879715Y-114942952D01*
X116832096Y-114990571D01*
X116736858Y-115038190D01*
X116355905Y-115038190D01*
X117498762Y-114942952D02*
X117403524Y-114895333D01*
X117355905Y-114847714D01*
X117308286Y-114752476D01*
X117308286Y-114704857D01*
X117355905Y-114609619D01*
X117403524Y-114562000D01*
X117498762Y-114514381D01*
X117689239Y-114514381D01*
X117784477Y-114562000D01*
X117832096Y-114609619D01*
X117879715Y-114704857D01*
X117879715Y-114752476D01*
X117832096Y-114847714D01*
X117784477Y-114895333D01*
X117689239Y-114942952D01*
X117498762Y-114942952D01*
X117403524Y-114990571D01*
X117355905Y-115038190D01*
X117308286Y-115133429D01*
X117308286Y-115323905D01*
X117355905Y-115419143D01*
X117403524Y-115466762D01*
X117498762Y-115514381D01*
X117689239Y-115514381D01*
X117784477Y-115466762D01*
X117832096Y-115419143D01*
X117879715Y-115323905D01*
X117879715Y-115133429D01*
X117832096Y-115038190D01*
X117784477Y-114990571D01*
X117689239Y-114942952D01*
X136993334Y-111450381D02*
X136660000Y-110974190D01*
X136421905Y-111450381D02*
X136421905Y-110450381D01*
X136802858Y-110450381D01*
X136898096Y-110498000D01*
X136945715Y-110545619D01*
X136993334Y-110640857D01*
X136993334Y-110783714D01*
X136945715Y-110878952D01*
X136898096Y-110926571D01*
X136802858Y-110974190D01*
X136421905Y-110974190D01*
X137469524Y-111450381D02*
X137660000Y-111450381D01*
X137755239Y-111402762D01*
X137802858Y-111355143D01*
X137898096Y-111212286D01*
X137945715Y-111021810D01*
X137945715Y-110640857D01*
X137898096Y-110545619D01*
X137850477Y-110498000D01*
X137755239Y-110450381D01*
X137564762Y-110450381D01*
X137469524Y-110498000D01*
X137421905Y-110545619D01*
X137374286Y-110640857D01*
X137374286Y-110878952D01*
X137421905Y-110974190D01*
X137469524Y-111021810D01*
X137564762Y-111069429D01*
X137755239Y-111069429D01*
X137850477Y-111021810D01*
X137898096Y-110974190D01*
X137945715Y-110878952D01*
X135962143Y-95082381D02*
X135628809Y-94606190D01*
X135390714Y-95082381D02*
X135390714Y-94082381D01*
X135771667Y-94082381D01*
X135866905Y-94130000D01*
X135914524Y-94177619D01*
X135962143Y-94272857D01*
X135962143Y-94415714D01*
X135914524Y-94510952D01*
X135866905Y-94558571D01*
X135771667Y-94606190D01*
X135390714Y-94606190D01*
X136914524Y-95082381D02*
X136343095Y-95082381D01*
X136628809Y-95082381D02*
X136628809Y-94082381D01*
X136533571Y-94225238D01*
X136438333Y-94320476D01*
X136343095Y-94368095D01*
X137533571Y-94082381D02*
X137628810Y-94082381D01*
X137724048Y-94130000D01*
X137771667Y-94177619D01*
X137819286Y-94272857D01*
X137866905Y-94463333D01*
X137866905Y-94701429D01*
X137819286Y-94891905D01*
X137771667Y-94987143D01*
X137724048Y-95034762D01*
X137628810Y-95082381D01*
X137533571Y-95082381D01*
X137438333Y-95034762D01*
X137390714Y-94987143D01*
X137343095Y-94891905D01*
X137295476Y-94701429D01*
X137295476Y-94463333D01*
X137343095Y-94272857D01*
X137390714Y-94177619D01*
X137438333Y-94130000D01*
X137533571Y-94082381D01*
X147693143Y-86812381D02*
X147359809Y-86336190D01*
X147121714Y-86812381D02*
X147121714Y-85812381D01*
X147502667Y-85812381D01*
X147597905Y-85860000D01*
X147645524Y-85907619D01*
X147693143Y-86002857D01*
X147693143Y-86145714D01*
X147645524Y-86240952D01*
X147597905Y-86288571D01*
X147502667Y-86336190D01*
X147121714Y-86336190D01*
X148645524Y-86812381D02*
X148074095Y-86812381D01*
X148359809Y-86812381D02*
X148359809Y-85812381D01*
X148264571Y-85955238D01*
X148169333Y-86050476D01*
X148074095Y-86098095D01*
X149597905Y-86812381D02*
X149026476Y-86812381D01*
X149312190Y-86812381D02*
X149312190Y-85812381D01*
X149216952Y-85955238D01*
X149121714Y-86050476D01*
X149026476Y-86098095D01*
X151757143Y-86812381D02*
X151423809Y-86336190D01*
X151185714Y-86812381D02*
X151185714Y-85812381D01*
X151566667Y-85812381D01*
X151661905Y-85860000D01*
X151709524Y-85907619D01*
X151757143Y-86002857D01*
X151757143Y-86145714D01*
X151709524Y-86240952D01*
X151661905Y-86288571D01*
X151566667Y-86336190D01*
X151185714Y-86336190D01*
X152709524Y-86812381D02*
X152138095Y-86812381D01*
X152423809Y-86812381D02*
X152423809Y-85812381D01*
X152328571Y-85955238D01*
X152233333Y-86050476D01*
X152138095Y-86098095D01*
X153090476Y-85907619D02*
X153138095Y-85860000D01*
X153233333Y-85812381D01*
X153471429Y-85812381D01*
X153566667Y-85860000D01*
X153614286Y-85907619D01*
X153661905Y-86002857D01*
X153661905Y-86098095D01*
X153614286Y-86240952D01*
X153042857Y-86812381D01*
X153661905Y-86812381D01*
X136263143Y-101036381D02*
X135929809Y-100560190D01*
X135691714Y-101036381D02*
X135691714Y-100036381D01*
X136072667Y-100036381D01*
X136167905Y-100084000D01*
X136215524Y-100131619D01*
X136263143Y-100226857D01*
X136263143Y-100369714D01*
X136215524Y-100464952D01*
X136167905Y-100512571D01*
X136072667Y-100560190D01*
X135691714Y-100560190D01*
X137215524Y-101036381D02*
X136644095Y-101036381D01*
X136929809Y-101036381D02*
X136929809Y-100036381D01*
X136834571Y-100179238D01*
X136739333Y-100274476D01*
X136644095Y-100322095D01*
X137548857Y-100036381D02*
X138167905Y-100036381D01*
X137834571Y-100417333D01*
X137977429Y-100417333D01*
X138072667Y-100464952D01*
X138120286Y-100512571D01*
X138167905Y-100607810D01*
X138167905Y-100845905D01*
X138120286Y-100941143D01*
X138072667Y-100988762D01*
X137977429Y-101036381D01*
X137691714Y-101036381D01*
X137596476Y-100988762D01*
X137548857Y-100941143D01*
X141644762Y-89860381D02*
X141311428Y-89384190D01*
X141073333Y-89860381D02*
X141073333Y-88860381D01*
X141454286Y-88860381D01*
X141549524Y-88908000D01*
X141597143Y-88955619D01*
X141644762Y-89050857D01*
X141644762Y-89193714D01*
X141597143Y-89288952D01*
X141549524Y-89336571D01*
X141454286Y-89384190D01*
X141073333Y-89384190D01*
X141930476Y-88860381D02*
X142263809Y-89860381D01*
X142597143Y-88860381D01*
X143454286Y-89860381D02*
X142882857Y-89860381D01*
X143168571Y-89860381D02*
X143168571Y-88860381D01*
X143073333Y-89003238D01*
X142978095Y-89098476D01*
X142882857Y-89146095D01*
X117094095Y-120737381D02*
X117094095Y-121546905D01*
X117141714Y-121642143D01*
X117189333Y-121689762D01*
X117284571Y-121737381D01*
X117475048Y-121737381D01*
X117570286Y-121689762D01*
X117617905Y-121642143D01*
X117665524Y-121546905D01*
X117665524Y-120737381D01*
X118094095Y-120832619D02*
X118141714Y-120785000D01*
X118236952Y-120737381D01*
X118475048Y-120737381D01*
X118570286Y-120785000D01*
X118617905Y-120832619D01*
X118665524Y-120927857D01*
X118665524Y-121023095D01*
X118617905Y-121165952D01*
X118046476Y-121737381D01*
X118665524Y-121737381D01*
X156718095Y-122388381D02*
X156718095Y-123197905D01*
X156765714Y-123293143D01*
X156813333Y-123340762D01*
X156908571Y-123388381D01*
X157099048Y-123388381D01*
X157194286Y-123340762D01*
X157241905Y-123293143D01*
X157289524Y-123197905D01*
X157289524Y-122388381D01*
X157670476Y-122388381D02*
X158289524Y-122388381D01*
X157956190Y-122769333D01*
X158099048Y-122769333D01*
X158194286Y-122816952D01*
X158241905Y-122864571D01*
X158289524Y-122959810D01*
X158289524Y-123197905D01*
X158241905Y-123293143D01*
X158194286Y-123340762D01*
X158099048Y-123388381D01*
X157813333Y-123388381D01*
X157718095Y-123340762D01*
X157670476Y-123293143D01*
X144272095Y-99782381D02*
X144272095Y-100591905D01*
X144319714Y-100687143D01*
X144367333Y-100734762D01*
X144462571Y-100782381D01*
X144653048Y-100782381D01*
X144748286Y-100734762D01*
X144795905Y-100687143D01*
X144843524Y-100591905D01*
X144843524Y-99782381D01*
X145748286Y-100115714D02*
X145748286Y-100782381D01*
X145510190Y-99734762D02*
X145272095Y-100449048D01*
X145891143Y-100449048D01*
X111426667Y-89368381D02*
X111426667Y-90082667D01*
X111379047Y-90225524D01*
X111283809Y-90320762D01*
X111140952Y-90368381D01*
X111045714Y-90368381D01*
X112426667Y-90368381D02*
X111855238Y-90368381D01*
X112140952Y-90368381D02*
X112140952Y-89368381D01*
X112045714Y-89511238D01*
X111950476Y-89606476D01*
X111855238Y-89654095D01*
X134286667Y-127468381D02*
X134286667Y-128182667D01*
X134239047Y-128325524D01*
X134143809Y-128420762D01*
X134000952Y-128468381D01*
X133905714Y-128468381D01*
X135191429Y-127801714D02*
X135191429Y-128468381D01*
X134953333Y-127420762D02*
X134715238Y-128135048D01*
X135334286Y-128135048D01*
X157726191Y-94130762D02*
X157869048Y-94178381D01*
X158107144Y-94178381D01*
X158202382Y-94130762D01*
X158250001Y-94083143D01*
X158297620Y-93987905D01*
X158297620Y-93892667D01*
X158250001Y-93797429D01*
X158202382Y-93749810D01*
X158107144Y-93702190D01*
X157916667Y-93654571D01*
X157821429Y-93606952D01*
X157773810Y-93559333D01*
X157726191Y-93464095D01*
X157726191Y-93368857D01*
X157773810Y-93273619D01*
X157821429Y-93226000D01*
X157916667Y-93178381D01*
X158154763Y-93178381D01*
X158297620Y-93226000D01*
X158726191Y-94178381D02*
X158726191Y-93178381D01*
X159726191Y-93226000D02*
X159630953Y-93178381D01*
X159488096Y-93178381D01*
X159345238Y-93226000D01*
X159250000Y-93321238D01*
X159202381Y-93416476D01*
X159154762Y-93606952D01*
X159154762Y-93749810D01*
X159202381Y-93940286D01*
X159250000Y-94035524D01*
X159345238Y-94130762D01*
X159488096Y-94178381D01*
X159583334Y-94178381D01*
X159726191Y-94130762D01*
X159773810Y-94083143D01*
X159773810Y-93749810D01*
X159583334Y-93749810D01*
X174523810Y-112500000D02*
X174428572Y-112452381D01*
X174285715Y-112452381D01*
X174142857Y-112500000D01*
X174047619Y-112595238D01*
X174000000Y-112690476D01*
X173952381Y-112880952D01*
X173952381Y-113023810D01*
X174000000Y-113214286D01*
X174047619Y-113309524D01*
X174142857Y-113404762D01*
X174285715Y-113452381D01*
X174380953Y-113452381D01*
X174523810Y-113404762D01*
X174571429Y-113357143D01*
X174571429Y-113023810D01*
X174380953Y-113023810D01*
X175000000Y-113452381D02*
X175000000Y-112452381D01*
X175380953Y-112452381D01*
X175476191Y-112500000D01*
X175523810Y-112547619D01*
X175571429Y-112642857D01*
X175571429Y-112785714D01*
X175523810Y-112880952D01*
X175476191Y-112928571D01*
X175380953Y-112976190D01*
X175000000Y-112976190D01*
X176000000Y-113452381D02*
X176000000Y-112452381D01*
X176666666Y-112452381D02*
X176857143Y-112452381D01*
X176952381Y-112500000D01*
X177047619Y-112595238D01*
X177095238Y-112785714D01*
X177095238Y-113119048D01*
X177047619Y-113309524D01*
X176952381Y-113404762D01*
X176857143Y-113452381D01*
X176666666Y-113452381D01*
X176571428Y-113404762D01*
X176476190Y-113309524D01*
X176428571Y-113119048D01*
X176428571Y-112785714D01*
X176476190Y-112595238D01*
X176571428Y-112500000D01*
X176666666Y-112452381D01*
X178047619Y-113452381D02*
X177476190Y-113452381D01*
X177761904Y-113452381D02*
X177761904Y-112452381D01*
X177666666Y-112595238D01*
X177571428Y-112690476D01*
X177476190Y-112738095D01*
X171023810Y-116000000D02*
X170928572Y-115952381D01*
X170785715Y-115952381D01*
X170642857Y-116000000D01*
X170547619Y-116095238D01*
X170500000Y-116190476D01*
X170452381Y-116380952D01*
X170452381Y-116523810D01*
X170500000Y-116714286D01*
X170547619Y-116809524D01*
X170642857Y-116904762D01*
X170785715Y-116952381D01*
X170880953Y-116952381D01*
X171023810Y-116904762D01*
X171071429Y-116857143D01*
X171071429Y-116523810D01*
X170880953Y-116523810D01*
X171500000Y-116952381D02*
X171500000Y-115952381D01*
X171880953Y-115952381D01*
X171976191Y-116000000D01*
X172023810Y-116047619D01*
X172071429Y-116142857D01*
X172071429Y-116285714D01*
X172023810Y-116380952D01*
X171976191Y-116428571D01*
X171880953Y-116476190D01*
X171500000Y-116476190D01*
X172500000Y-116952381D02*
X172500000Y-115952381D01*
X173166666Y-115952381D02*
X173357143Y-115952381D01*
X173452381Y-116000000D01*
X173547619Y-116095238D01*
X173595238Y-116285714D01*
X173595238Y-116619048D01*
X173547619Y-116809524D01*
X173452381Y-116904762D01*
X173357143Y-116952381D01*
X173166666Y-116952381D01*
X173071428Y-116904762D01*
X172976190Y-116809524D01*
X172928571Y-116619048D01*
X172928571Y-116285714D01*
X172976190Y-116095238D01*
X173071428Y-116000000D01*
X173166666Y-115952381D01*
X173976190Y-116047619D02*
X174023809Y-116000000D01*
X174119047Y-115952381D01*
X174357143Y-115952381D01*
X174452381Y-116000000D01*
X174500000Y-116047619D01*
X174547619Y-116142857D01*
X174547619Y-116238095D01*
X174500000Y-116380952D01*
X173928571Y-116952381D01*
X174547619Y-116952381D01*
X166925810Y-108974000D02*
X166830572Y-108926381D01*
X166687715Y-108926381D01*
X166544857Y-108974000D01*
X166449619Y-109069238D01*
X166402000Y-109164476D01*
X166354381Y-109354952D01*
X166354381Y-109497810D01*
X166402000Y-109688286D01*
X166449619Y-109783524D01*
X166544857Y-109878762D01*
X166687715Y-109926381D01*
X166782953Y-109926381D01*
X166925810Y-109878762D01*
X166973429Y-109831143D01*
X166973429Y-109497810D01*
X166782953Y-109497810D01*
X167402000Y-109926381D02*
X167402000Y-108926381D01*
X167782953Y-108926381D01*
X167878191Y-108974000D01*
X167925810Y-109021619D01*
X167973429Y-109116857D01*
X167973429Y-109259714D01*
X167925810Y-109354952D01*
X167878191Y-109402571D01*
X167782953Y-109450190D01*
X167402000Y-109450190D01*
X168402000Y-109926381D02*
X168402000Y-108926381D01*
X169068666Y-108926381D02*
X169259143Y-108926381D01*
X169354381Y-108974000D01*
X169449619Y-109069238D01*
X169497238Y-109259714D01*
X169497238Y-109593048D01*
X169449619Y-109783524D01*
X169354381Y-109878762D01*
X169259143Y-109926381D01*
X169068666Y-109926381D01*
X168973428Y-109878762D01*
X168878190Y-109783524D01*
X168830571Y-109593048D01*
X168830571Y-109259714D01*
X168878190Y-109069238D01*
X168973428Y-108974000D01*
X169068666Y-108926381D01*
X169830571Y-108926381D02*
X170449619Y-108926381D01*
X170116285Y-109307333D01*
X170259143Y-109307333D01*
X170354381Y-109354952D01*
X170402000Y-109402571D01*
X170449619Y-109497810D01*
X170449619Y-109735905D01*
X170402000Y-109831143D01*
X170354381Y-109878762D01*
X170259143Y-109926381D01*
X169973428Y-109926381D01*
X169878190Y-109878762D01*
X169830571Y-109831143D01*
X162353810Y-108974000D02*
X162258572Y-108926381D01*
X162115715Y-108926381D01*
X161972857Y-108974000D01*
X161877619Y-109069238D01*
X161830000Y-109164476D01*
X161782381Y-109354952D01*
X161782381Y-109497810D01*
X161830000Y-109688286D01*
X161877619Y-109783524D01*
X161972857Y-109878762D01*
X162115715Y-109926381D01*
X162210953Y-109926381D01*
X162353810Y-109878762D01*
X162401429Y-109831143D01*
X162401429Y-109497810D01*
X162210953Y-109497810D01*
X162830000Y-109926381D02*
X162830000Y-108926381D01*
X163210953Y-108926381D01*
X163306191Y-108974000D01*
X163353810Y-109021619D01*
X163401429Y-109116857D01*
X163401429Y-109259714D01*
X163353810Y-109354952D01*
X163306191Y-109402571D01*
X163210953Y-109450190D01*
X162830000Y-109450190D01*
X163830000Y-109926381D02*
X163830000Y-108926381D01*
X164496666Y-108926381D02*
X164687143Y-108926381D01*
X164782381Y-108974000D01*
X164877619Y-109069238D01*
X164925238Y-109259714D01*
X164925238Y-109593048D01*
X164877619Y-109783524D01*
X164782381Y-109878762D01*
X164687143Y-109926381D01*
X164496666Y-109926381D01*
X164401428Y-109878762D01*
X164306190Y-109783524D01*
X164258571Y-109593048D01*
X164258571Y-109259714D01*
X164306190Y-109069238D01*
X164401428Y-108974000D01*
X164496666Y-108926381D01*
X165782381Y-109259714D02*
X165782381Y-109926381D01*
X165544285Y-108878762D02*
X165306190Y-109593048D01*
X165925238Y-109593048D01*
X164115905Y-129246381D02*
X164734953Y-129246381D01*
X164401619Y-129627333D01*
X164544477Y-129627333D01*
X164639715Y-129674952D01*
X164687334Y-129722571D01*
X164734953Y-129817810D01*
X164734953Y-130055905D01*
X164687334Y-130151143D01*
X164639715Y-130198762D01*
X164544477Y-130246381D01*
X164258762Y-130246381D01*
X164163524Y-130198762D01*
X164115905Y-130151143D01*
X165020667Y-129246381D02*
X165354000Y-130246381D01*
X165687334Y-129246381D01*
X165925429Y-129246381D02*
X166544477Y-129246381D01*
X166211143Y-129627333D01*
X166354001Y-129627333D01*
X166449239Y-129674952D01*
X166496858Y-129722571D01*
X166544477Y-129817810D01*
X166544477Y-130055905D01*
X166496858Y-130151143D01*
X166449239Y-130198762D01*
X166354001Y-130246381D01*
X166068286Y-130246381D01*
X165973048Y-130198762D01*
X165925429Y-130151143D01*
X160329905Y-103576381D02*
X160329905Y-102576381D01*
X160758476Y-102671619D02*
X160806095Y-102624000D01*
X160901333Y-102576381D01*
X161139429Y-102576381D01*
X161234667Y-102624000D01*
X161282286Y-102671619D01*
X161329905Y-102766857D01*
X161329905Y-102862095D01*
X161282286Y-103004952D01*
X160710857Y-103576381D01*
X161329905Y-103576381D01*
X162329905Y-103481143D02*
X162282286Y-103528762D01*
X162139429Y-103576381D01*
X162044191Y-103576381D01*
X161901333Y-103528762D01*
X161806095Y-103433524D01*
X161758476Y-103338286D01*
X161710857Y-103147810D01*
X161710857Y-103004952D01*
X161758476Y-102814476D01*
X161806095Y-102719238D01*
X161901333Y-102624000D01*
X162044191Y-102576381D01*
X162139429Y-102576381D01*
X162282286Y-102624000D01*
X162329905Y-102671619D01*
X162520381Y-103671619D02*
X163282286Y-103671619D01*
X163472762Y-103528762D02*
X163615619Y-103576381D01*
X163853715Y-103576381D01*
X163948953Y-103528762D01*
X163996572Y-103481143D01*
X164044191Y-103385905D01*
X164044191Y-103290667D01*
X163996572Y-103195429D01*
X163948953Y-103147810D01*
X163853715Y-103100190D01*
X163663238Y-103052571D01*
X163568000Y-103004952D01*
X163520381Y-102957333D01*
X163472762Y-102862095D01*
X163472762Y-102766857D01*
X163520381Y-102671619D01*
X163568000Y-102624000D01*
X163663238Y-102576381D01*
X163901334Y-102576381D01*
X164044191Y-102624000D01*
X165044191Y-103481143D02*
X164996572Y-103528762D01*
X164853715Y-103576381D01*
X164758477Y-103576381D01*
X164615619Y-103528762D01*
X164520381Y-103433524D01*
X164472762Y-103338286D01*
X164425143Y-103147810D01*
X164425143Y-103004952D01*
X164472762Y-102814476D01*
X164520381Y-102719238D01*
X164615619Y-102624000D01*
X164758477Y-102576381D01*
X164853715Y-102576381D01*
X164996572Y-102624000D01*
X165044191Y-102671619D01*
X165948953Y-103576381D02*
X165472762Y-103576381D01*
X165472762Y-102576381D01*
X167164095Y-103576381D02*
X167164095Y-102576381D01*
X167592666Y-102671619D02*
X167640285Y-102624000D01*
X167735523Y-102576381D01*
X167973619Y-102576381D01*
X168068857Y-102624000D01*
X168116476Y-102671619D01*
X168164095Y-102766857D01*
X168164095Y-102862095D01*
X168116476Y-103004952D01*
X167545047Y-103576381D01*
X168164095Y-103576381D01*
X169164095Y-103481143D02*
X169116476Y-103528762D01*
X168973619Y-103576381D01*
X168878381Y-103576381D01*
X168735523Y-103528762D01*
X168640285Y-103433524D01*
X168592666Y-103338286D01*
X168545047Y-103147810D01*
X168545047Y-103004952D01*
X168592666Y-102814476D01*
X168640285Y-102719238D01*
X168735523Y-102624000D01*
X168878381Y-102576381D01*
X168973619Y-102576381D01*
X169116476Y-102624000D01*
X169164095Y-102671619D01*
X169354571Y-103671619D02*
X170116476Y-103671619D01*
X170306952Y-103528762D02*
X170449809Y-103576381D01*
X170687905Y-103576381D01*
X170783143Y-103528762D01*
X170830762Y-103481143D01*
X170878381Y-103385905D01*
X170878381Y-103290667D01*
X170830762Y-103195429D01*
X170783143Y-103147810D01*
X170687905Y-103100190D01*
X170497428Y-103052571D01*
X170402190Y-103004952D01*
X170354571Y-102957333D01*
X170306952Y-102862095D01*
X170306952Y-102766857D01*
X170354571Y-102671619D01*
X170402190Y-102624000D01*
X170497428Y-102576381D01*
X170735524Y-102576381D01*
X170878381Y-102624000D01*
X171306952Y-103576381D02*
X171306952Y-102576381D01*
X171545047Y-102576381D01*
X171687905Y-102624000D01*
X171783143Y-102719238D01*
X171830762Y-102814476D01*
X171878381Y-103004952D01*
X171878381Y-103147810D01*
X171830762Y-103338286D01*
X171783143Y-103433524D01*
X171687905Y-103528762D01*
X171545047Y-103576381D01*
X171306952Y-103576381D01*
X172259333Y-103290667D02*
X172735524Y-103290667D01*
X172164095Y-103576381D02*
X172497428Y-102576381D01*
X172830762Y-103576381D01*
X178927333Y-96972381D02*
X178927333Y-95972381D01*
X179165428Y-95972381D01*
X179308286Y-96020000D01*
X179403524Y-96115238D01*
X179451143Y-96210476D01*
X179498762Y-96400952D01*
X179498762Y-96543810D01*
X179451143Y-96734286D01*
X179403524Y-96829524D01*
X179308286Y-96924762D01*
X179165428Y-96972381D01*
X178927333Y-96972381D01*
X179879714Y-96686667D02*
X180355905Y-96686667D01*
X179784476Y-96972381D02*
X180117809Y-95972381D01*
X180451143Y-96972381D01*
X181355905Y-96877143D02*
X181308286Y-96924762D01*
X181165429Y-96972381D01*
X181070191Y-96972381D01*
X180927333Y-96924762D01*
X180832095Y-96829524D01*
X180784476Y-96734286D01*
X180736857Y-96543810D01*
X180736857Y-96400952D01*
X180784476Y-96210476D01*
X180832095Y-96115238D01*
X180927333Y-96020000D01*
X181070191Y-95972381D01*
X181165429Y-95972381D01*
X181308286Y-96020000D01*
X181355905Y-96067619D01*
X181736857Y-96067619D02*
X181784476Y-96020000D01*
X181879714Y-95972381D01*
X182117810Y-95972381D01*
X182213048Y-96020000D01*
X182260667Y-96067619D01*
X182308286Y-96162857D01*
X182308286Y-96258095D01*
X182260667Y-96400952D01*
X181689238Y-96972381D01*
X182308286Y-96972381D01*
X122705905Y-130500381D02*
X122705905Y-129500381D01*
X122944000Y-129500381D01*
X123086858Y-129548000D01*
X123182096Y-129643238D01*
X123229715Y-129738476D01*
X123277334Y-129928952D01*
X123277334Y-130071810D01*
X123229715Y-130262286D01*
X123182096Y-130357524D01*
X123086858Y-130452762D01*
X122944000Y-130500381D01*
X122705905Y-130500381D01*
X124229715Y-130500381D02*
X123658286Y-130500381D01*
X123944000Y-130500381D02*
X123944000Y-129500381D01*
X123848762Y-129643238D01*
X123753524Y-129738476D01*
X123658286Y-129786095D01*
X124547334Y-124912381D02*
X124214000Y-124436190D01*
X123975905Y-124912381D02*
X123975905Y-123912381D01*
X124356858Y-123912381D01*
X124452096Y-123960000D01*
X124499715Y-124007619D01*
X124547334Y-124102857D01*
X124547334Y-124245714D01*
X124499715Y-124340952D01*
X124452096Y-124388571D01*
X124356858Y-124436190D01*
X123975905Y-124436190D01*
X125499715Y-124912381D02*
X124928286Y-124912381D01*
X125214000Y-124912381D02*
X125214000Y-123912381D01*
X125118762Y-124055238D01*
X125023524Y-124150476D01*
X124928286Y-124198095D01*
X121023143Y-121102381D02*
X120689809Y-120626190D01*
X120451714Y-121102381D02*
X120451714Y-120102381D01*
X120832667Y-120102381D01*
X120927905Y-120150000D01*
X120975524Y-120197619D01*
X121023143Y-120292857D01*
X121023143Y-120435714D01*
X120975524Y-120530952D01*
X120927905Y-120578571D01*
X120832667Y-120626190D01*
X120451714Y-120626190D01*
X121975524Y-121102381D02*
X121404095Y-121102381D01*
X121689809Y-121102381D02*
X121689809Y-120102381D01*
X121594571Y-120245238D01*
X121499333Y-120340476D01*
X121404095Y-120388095D01*
X122832667Y-120435714D02*
X122832667Y-121102381D01*
X122594571Y-120054762D02*
X122356476Y-120769048D01*
X122975524Y-120769048D01*
X124833143Y-117292381D02*
X124499809Y-116816190D01*
X124261714Y-117292381D02*
X124261714Y-116292381D01*
X124642667Y-116292381D01*
X124737905Y-116340000D01*
X124785524Y-116387619D01*
X124833143Y-116482857D01*
X124833143Y-116625714D01*
X124785524Y-116720952D01*
X124737905Y-116768571D01*
X124642667Y-116816190D01*
X124261714Y-116816190D01*
X125785524Y-117292381D02*
X125214095Y-117292381D01*
X125499809Y-117292381D02*
X125499809Y-116292381D01*
X125404571Y-116435238D01*
X125309333Y-116530476D01*
X125214095Y-116578095D01*
X126690286Y-116292381D02*
X126214095Y-116292381D01*
X126166476Y-116768571D01*
X126214095Y-116720952D01*
X126309333Y-116673333D01*
X126547429Y-116673333D01*
X126642667Y-116720952D01*
X126690286Y-116768571D01*
X126737905Y-116863810D01*
X126737905Y-117101905D01*
X126690286Y-117197143D01*
X126642667Y-117244762D01*
X126547429Y-117292381D01*
X126309333Y-117292381D01*
X126214095Y-117244762D01*
X126166476Y-117197143D01*
X135382095Y-119340381D02*
X135382095Y-120149905D01*
X135429714Y-120245143D01*
X135477333Y-120292762D01*
X135572571Y-120340381D01*
X135763048Y-120340381D01*
X135858286Y-120292762D01*
X135905905Y-120245143D01*
X135953524Y-120149905D01*
X135953524Y-119340381D01*
X136953524Y-120340381D02*
X136382095Y-120340381D01*
X136667809Y-120340381D02*
X136667809Y-119340381D01*
X136572571Y-119483238D01*
X136477333Y-119578476D01*
X136382095Y-119626095D01*
M02*
