M48
;DRILL file {KiCad 4.0.6-e0-6349~52~ubuntu17.04.1} date Sun Jul  9 19:26:21 2017
;FORMAT={-:-/ absolute / metric / decimal}
FMAT,2
METRIC,TZ
T1C0.200
T2C0.400
T3C0.500
T4C0.700
T5C0.762
T6C0.900
T7C1.000
T8C1.200
%
G90
G05
M71
T1
X119.507Y-123.571
X119.507Y-124.587
X119.507Y-125.603
X120.65Y-125.603
X120.904Y-123.571
X121.793Y-125.603
X121.92Y-123.571
X122.809Y-125.603
X122.936Y-123.571
X123.825Y-125.603
X123.952Y-123.571
X124.841Y-125.603
X124.968Y-123.571
X125.857Y-125.603
X125.857Y-126.238
X125.857Y-126.873
X125.857Y-127.889
X125.857Y-128.905
X125.857Y-129.921
X125.984Y-123.571
X126.873Y-129.921
X127.Y-123.571
X127.889Y-129.921
X128.016Y-123.571
X128.905Y-123.571
X128.905Y-124.079
X128.905Y-124.714
X128.905Y-125.603
X128.905Y-126.238
X128.905Y-126.873
X128.905Y-127.889
X128.905Y-128.905
X128.905Y-129.921
T2
X107.442Y-94.488
X107.442Y-97.028
X107.442Y-99.568
X107.442Y-102.108
X107.442Y-104.648
X107.442Y-107.188
X107.442Y-112.268
X107.442Y-116.586
X107.442Y-119.888
X107.442Y-122.428
X107.442Y-124.968
X107.442Y-127.508
X107.442Y-130.048
X107.95Y-90.678
X109.22Y-132.334
X109.728Y-93.345
X109.982Y-116.586
X110.49Y-90.678
X110.631Y-119.648
X111.76Y-132.334
X112.014Y-107.696
X112.522Y-116.586
X114.3Y-132.334
X114.554Y-107.696
X115.57Y-90.678
X117.094Y-107.696
X118.11Y-90.678
X118.872Y-117.348
X119.38Y-132.334
X119.634Y-107.696
X120.142Y-116.586
X120.206Y-122.11
X120.65Y-90.678
X121.92Y-132.334
X122.174Y-107.696
X123.19Y-90.678
X124.46Y-86.868
X124.46Y-132.334
X124.714Y-107.696
X125.222Y-116.586
X125.73Y-90.678
X127.Y-86.868
X127.Y-132.334
X127.254Y-107.696
X127.461Y-122.093
X127.762Y-116.586
X128.27Y-90.678
X129.54Y-86.868
X129.54Y-132.334
X129.794Y-107.696
X130.302Y-116.586
X130.81Y-90.678
X132.08Y-86.868
X132.08Y-132.334
X132.334Y-107.696
X132.842Y-116.586
X133.35Y-90.678
X134.62Y-86.868
X134.62Y-132.334
X134.874Y-107.696
X135.382Y-116.586
X135.589Y-96.407
X136.29Y-108.98
X137.16Y-86.868
X137.16Y-132.334
X137.414Y-107.696
X137.922Y-116.586
X138.43Y-90.678
X139.7Y-86.868
X139.7Y-132.334
X140.462Y-116.586
X140.97Y-90.678
X142.24Y-86.868
X142.24Y-132.334
X143.002Y-116.586
X143.51Y-90.678
X144.78Y-86.868
X146.05Y-90.678
X146.05Y-119.634
X146.05Y-122.174
X146.05Y-124.714
X146.05Y-127.254
X146.05Y-132.334
X147.32Y-86.868
X147.955Y-104.331
X148.463Y-110.363
X149.86Y-86.868
X152.4Y-86.868
X152.4Y-122.174
X152.4Y-124.714
X152.4Y-132.334
X153.416Y-88.011
X154.686Y-100.584
X154.686Y-103.124
X154.686Y-105.664
X154.686Y-108.204
X154.686Y-110.744
X154.686Y-113.284
X154.686Y-115.824
X154.94Y-86.868
X154.94Y-132.334
X156.21Y-90.678
X157.226Y-107.95
X157.48Y-86.868
X157.48Y-132.334
X158.75Y-90.678
X160.02Y-86.868
X160.02Y-132.334
X161.036Y-107.95
X161.29Y-90.678
X162.56Y-86.868
X162.56Y-114.808
X162.56Y-132.334
X163.83Y-90.678
X164.846Y-107.95
X165.1Y-86.868
X165.1Y-132.334
X166.37Y-90.678
X167.005Y-114.808
X167.64Y-132.334
X168.91Y-90.678
X169.926Y-107.95
X170.434Y-122.174
X171.45Y-90.678
X173.99Y-90.678
X174.975Y-122.122
X175.006Y-107.95
X176.53Y-90.678
X177.8Y-132.334
X179.07Y-90.678
X180.34Y-132.334
X181.61Y-90.678
X182.88Y-132.334
X183.261Y-104.521
X183.261Y-107.061
X183.261Y-109.601
X183.261Y-112.141
X183.261Y-114.681
X183.261Y-117.221
X183.261Y-119.761
X183.261Y-122.301
X183.261Y-124.841
X183.261Y-127.381
X183.261Y-129.921
T3
X142.32Y-91.2
X142.32Y-96.28
X144.86Y-93.74
T4
X169.304Y-131.84
X170.554Y-131.84
X171.804Y-131.84
X173.054Y-131.84
T5
X122.468Y-128.016
X127.468Y-128.016
X130.493Y-128.016
X133.684Y-101.654
X133.684Y-106.654
T6
X123.778Y-109.996
X126.318Y-109.996
T7
X115.015Y-96.407
X115.015Y-98.947
X117.555Y-96.407
X117.555Y-98.947
X120.095Y-96.407
X120.095Y-98.947
X159.973Y-96.407
X159.973Y-98.947
X162.513Y-96.407
X162.513Y-98.947
X165.053Y-96.407
X165.053Y-98.947
X167.593Y-96.407
X167.593Y-98.947
X170.133Y-96.407
X170.133Y-98.947
X172.673Y-96.407
X172.673Y-98.947
X175.213Y-96.407
X175.213Y-98.947
T8
X149.94Y-91.2
X149.94Y-93.74
X149.94Y-96.28
X150.622Y-117.348
X150.622Y-119.888
X150.622Y-122.428
X152.48Y-91.2
X152.48Y-93.74
X152.48Y-96.28
T0
M30
