G04 #@! TF.FileFunction,Legend,Bot*
%FSLAX46Y46*%
G04 Gerber Fmt 4.6, Leading zero omitted, Abs format (unit mm)*
G04 Created by KiCad (PCBNEW 4.0.6-e0-6349~52~ubuntu17.04.1) date Sun Jul  9 19:24:51 2017*
%MOMM*%
%LPD*%
G01*
G04 APERTURE LIST*
%ADD10C,0.100000*%
%ADD11C,0.120000*%
%ADD12C,0.150000*%
G04 APERTURE END LIST*
D10*
D11*
X176603000Y-95127000D02*
X173943000Y-95127000D01*
X173943000Y-95127000D02*
X173943000Y-92387000D01*
X173943000Y-92387000D02*
X176603000Y-92387000D01*
X176603000Y-92387000D02*
X176603000Y-95127000D01*
X175653000Y-92387000D02*
X174773000Y-92387000D01*
X174773000Y-92387000D02*
X174773000Y-86387000D01*
X174773000Y-86387000D02*
X175653000Y-86387000D01*
X175653000Y-86387000D02*
X175653000Y-92387000D01*
X175653000Y-95437000D02*
X175653000Y-95127000D01*
X174773000Y-95437000D02*
X174773000Y-95127000D01*
X175653000Y-97977000D02*
X175653000Y-97377000D01*
X174773000Y-97977000D02*
X174773000Y-97377000D01*
X175533000Y-92387000D02*
X175533000Y-86387000D01*
X175413000Y-92387000D02*
X175413000Y-86387000D01*
X175293000Y-92387000D02*
X175293000Y-86387000D01*
X175173000Y-92387000D02*
X175173000Y-86387000D01*
X175053000Y-92387000D02*
X175053000Y-86387000D01*
X174933000Y-92387000D02*
X174933000Y-86387000D01*
X174813000Y-92387000D02*
X174813000Y-86387000D01*
X173943000Y-95127000D02*
X171403000Y-95127000D01*
X171403000Y-95127000D02*
X171403000Y-92387000D01*
X171403000Y-92387000D02*
X173943000Y-92387000D01*
X173943000Y-92387000D02*
X173943000Y-95127000D01*
X173113000Y-92387000D02*
X172233000Y-92387000D01*
X172233000Y-92387000D02*
X172233000Y-86387000D01*
X172233000Y-86387000D02*
X173113000Y-86387000D01*
X173113000Y-86387000D02*
X173113000Y-92387000D01*
X173113000Y-95437000D02*
X173113000Y-95127000D01*
X172233000Y-95437000D02*
X172233000Y-95127000D01*
X173113000Y-97977000D02*
X173113000Y-97377000D01*
X172233000Y-97977000D02*
X172233000Y-97377000D01*
X171403000Y-95127000D02*
X168863000Y-95127000D01*
X168863000Y-95127000D02*
X168863000Y-92387000D01*
X168863000Y-92387000D02*
X171403000Y-92387000D01*
X171403000Y-92387000D02*
X171403000Y-95127000D01*
X170573000Y-92387000D02*
X169693000Y-92387000D01*
X169693000Y-92387000D02*
X169693000Y-86387000D01*
X169693000Y-86387000D02*
X170573000Y-86387000D01*
X170573000Y-86387000D02*
X170573000Y-92387000D01*
X170573000Y-95437000D02*
X170573000Y-95127000D01*
X169693000Y-95437000D02*
X169693000Y-95127000D01*
X170573000Y-97977000D02*
X170573000Y-97377000D01*
X169693000Y-97977000D02*
X169693000Y-97377000D01*
X168863000Y-95127000D02*
X166323000Y-95127000D01*
X166323000Y-95127000D02*
X166323000Y-92387000D01*
X166323000Y-92387000D02*
X168863000Y-92387000D01*
X168863000Y-92387000D02*
X168863000Y-95127000D01*
X168033000Y-92387000D02*
X167153000Y-92387000D01*
X167153000Y-92387000D02*
X167153000Y-86387000D01*
X167153000Y-86387000D02*
X168033000Y-86387000D01*
X168033000Y-86387000D02*
X168033000Y-92387000D01*
X168033000Y-95437000D02*
X168033000Y-95127000D01*
X167153000Y-95437000D02*
X167153000Y-95127000D01*
X168033000Y-97977000D02*
X168033000Y-97377000D01*
X167153000Y-97977000D02*
X167153000Y-97377000D01*
X166323000Y-95127000D02*
X163783000Y-95127000D01*
X163783000Y-95127000D02*
X163783000Y-92387000D01*
X163783000Y-92387000D02*
X166323000Y-92387000D01*
X166323000Y-92387000D02*
X166323000Y-95127000D01*
X165493000Y-92387000D02*
X164613000Y-92387000D01*
X164613000Y-92387000D02*
X164613000Y-86387000D01*
X164613000Y-86387000D02*
X165493000Y-86387000D01*
X165493000Y-86387000D02*
X165493000Y-92387000D01*
X165493000Y-95437000D02*
X165493000Y-95127000D01*
X164613000Y-95437000D02*
X164613000Y-95127000D01*
X165493000Y-97977000D02*
X165493000Y-97377000D01*
X164613000Y-97977000D02*
X164613000Y-97377000D01*
X163783000Y-95127000D02*
X161243000Y-95127000D01*
X161243000Y-95127000D02*
X161243000Y-92387000D01*
X161243000Y-92387000D02*
X163783000Y-92387000D01*
X163783000Y-92387000D02*
X163783000Y-95127000D01*
X162953000Y-92387000D02*
X162073000Y-92387000D01*
X162073000Y-92387000D02*
X162073000Y-86387000D01*
X162073000Y-86387000D02*
X162953000Y-86387000D01*
X162953000Y-86387000D02*
X162953000Y-92387000D01*
X162953000Y-95437000D02*
X162953000Y-95127000D01*
X162073000Y-95437000D02*
X162073000Y-95127000D01*
X162953000Y-97977000D02*
X162953000Y-97377000D01*
X162073000Y-97977000D02*
X162073000Y-97377000D01*
X161243000Y-95127000D02*
X158583000Y-95127000D01*
X158583000Y-95127000D02*
X158583000Y-92387000D01*
X158583000Y-92387000D02*
X161243000Y-92387000D01*
X161243000Y-92387000D02*
X161243000Y-95127000D01*
X160413000Y-92387000D02*
X159533000Y-92387000D01*
X159533000Y-92387000D02*
X159533000Y-86387000D01*
X159533000Y-86387000D02*
X160413000Y-86387000D01*
X160413000Y-86387000D02*
X160413000Y-92387000D01*
X160413000Y-95437000D02*
X160413000Y-95127000D01*
X159533000Y-95437000D02*
X159533000Y-95127000D01*
X160413000Y-97977000D02*
X160413000Y-97377000D01*
X159533000Y-97977000D02*
X159533000Y-97377000D01*
X175213000Y-100217000D02*
X176483000Y-100217000D01*
X176483000Y-100217000D02*
X176483000Y-98947000D01*
D12*
X123102666Y-125071143D02*
X123150285Y-125118762D01*
X123293142Y-125166381D01*
X123388380Y-125166381D01*
X123531238Y-125118762D01*
X123626476Y-125023524D01*
X123674095Y-124928286D01*
X123721714Y-124737810D01*
X123721714Y-124594952D01*
X123674095Y-124404476D01*
X123626476Y-124309238D01*
X123531238Y-124214000D01*
X123388380Y-124166381D01*
X123293142Y-124166381D01*
X123150285Y-124214000D01*
X123102666Y-124261619D01*
X122769333Y-124166381D02*
X122102666Y-124166381D01*
X122531238Y-125166381D01*
X178387333Y-92670381D02*
X178387333Y-93384667D01*
X178434953Y-93527524D01*
X178530191Y-93622762D01*
X178673048Y-93670381D01*
X178768286Y-93670381D01*
X177958762Y-92765619D02*
X177911143Y-92718000D01*
X177815905Y-92670381D01*
X177577809Y-92670381D01*
X177482571Y-92718000D01*
X177434952Y-92765619D01*
X177387333Y-92860857D01*
X177387333Y-92956095D01*
X177434952Y-93098952D01*
X178006381Y-93670381D01*
X177387333Y-93670381D01*
M02*
