G04 #@! TF.FileFunction,Copper,L2,Bot,Signal*
%FSLAX46Y46*%
G04 Gerber Fmt 4.6, Leading zero omitted, Abs format (unit mm)*
G04 Created by KiCad (PCBNEW 4.0.6-e0-6349~52~ubuntu17.04.1) date Wed Jul  5 19:27:27 2017*
%MOMM*%
%LPD*%
G01*
G04 APERTURE LIST*
%ADD10C,0.100000*%
%ADD11C,0.700000*%
%ADD12C,0.400000*%
%ADD13R,1.000000X1.000000*%
%ADD14R,1.800000X1.800000*%
%ADD15C,1.800000*%
%ADD16C,1.524000*%
%ADD17C,1.000000*%
%ADD18R,2.100000X1.900000*%
%ADD19O,2.100000X1.900000*%
%ADD20R,1.700000X1.700000*%
%ADD21O,1.700000X1.700000*%
%ADD22C,0.600000*%
%ADD23C,0.400000*%
%ADD24C,0.250000*%
%ADD25C,0.200000*%
G04 APERTURE END LIST*
D10*
D11*
X112014000Y-107696000D03*
X117094000Y-107696000D03*
X114554000Y-107696000D03*
X129794000Y-107696000D03*
X132334000Y-107696000D03*
X137414000Y-107696000D03*
X134874000Y-107696000D03*
X124714000Y-107696000D03*
X127254000Y-107696000D03*
X122174000Y-107696000D03*
X119634000Y-107696000D03*
X169926000Y-107950000D03*
X175006000Y-107950000D03*
X161036000Y-107950000D03*
X164846000Y-107950000D03*
X157226000Y-107950000D03*
X146050000Y-132334000D03*
X146050000Y-124714000D03*
X146050000Y-127254000D03*
X146050000Y-119634000D03*
X146050000Y-122174000D03*
X152400000Y-124714000D03*
X152400000Y-122174000D03*
X154686000Y-115824000D03*
X154686000Y-103124000D03*
X154686000Y-100584000D03*
X154686000Y-108204000D03*
X154686000Y-105664000D03*
X154686000Y-110744000D03*
X154686000Y-113284000D03*
X137160000Y-86868000D03*
X142240000Y-86868000D03*
X139700000Y-86868000D03*
X149860000Y-86868000D03*
X152400000Y-86868000D03*
X147320000Y-86868000D03*
X144780000Y-86868000D03*
X162560000Y-86868000D03*
X165100000Y-86868000D03*
X157480000Y-86868000D03*
X160020000Y-86868000D03*
X154940000Y-86868000D03*
X127000000Y-86868000D03*
X124460000Y-86868000D03*
X134620000Y-86868000D03*
X132080000Y-86868000D03*
X129540000Y-86868000D03*
X107442000Y-130048000D03*
X107442000Y-127508000D03*
X107442000Y-122428000D03*
X107442000Y-124968000D03*
X107442000Y-112268000D03*
X107442000Y-119888000D03*
X107442000Y-102108000D03*
X107442000Y-99568000D03*
X107442000Y-97028000D03*
X107442000Y-107188000D03*
X107442000Y-104648000D03*
X107442000Y-94488000D03*
X183261000Y-129921000D03*
X183261000Y-127381000D03*
X183261000Y-122301000D03*
X183261000Y-124841000D03*
X183261000Y-114681000D03*
X183261000Y-112141000D03*
X183261000Y-117221000D03*
X183261000Y-119761000D03*
X183261000Y-107061000D03*
X183261000Y-104521000D03*
X183261000Y-109601000D03*
X110490000Y-90678000D03*
X107950000Y-90678000D03*
X115570000Y-90678000D03*
X158750000Y-90678000D03*
X156210000Y-90678000D03*
X166370000Y-90678000D03*
X168910000Y-90678000D03*
X163830000Y-90678000D03*
X161290000Y-90678000D03*
X179070000Y-90678000D03*
X181610000Y-90678000D03*
X173990000Y-90678000D03*
X176530000Y-90678000D03*
X171450000Y-90678000D03*
X138430000Y-90678000D03*
X143510000Y-90678000D03*
X140970000Y-90678000D03*
X146050000Y-90678000D03*
X128270000Y-90678000D03*
X130810000Y-90678000D03*
X133350000Y-90678000D03*
X123190000Y-90678000D03*
X125730000Y-90678000D03*
X120650000Y-90678000D03*
X118110000Y-90678000D03*
X111760000Y-132334000D03*
X109220000Y-132334000D03*
X114300000Y-132334000D03*
X154940000Y-132334000D03*
X160020000Y-132334000D03*
X157480000Y-132334000D03*
X167640000Y-132334000D03*
X165100000Y-132334000D03*
X162560000Y-132334000D03*
X180340000Y-132334000D03*
X182880000Y-132334000D03*
X177800000Y-132334000D03*
X139700000Y-132334000D03*
X142240000Y-132334000D03*
X152400000Y-132334000D03*
X129540000Y-132334000D03*
X132080000Y-132334000D03*
X137160000Y-132334000D03*
X134620000Y-132334000D03*
X124460000Y-132334000D03*
X127000000Y-132334000D03*
X121920000Y-132334000D03*
X119380000Y-132334000D03*
X107442000Y-116586000D03*
X109982000Y-116586000D03*
X112522000Y-116586000D03*
X132842000Y-116586000D03*
X137922000Y-116586000D03*
X135382000Y-116586000D03*
X143002000Y-116586000D03*
X140462000Y-116586000D03*
X125222000Y-116586000D03*
X130302000Y-116586000D03*
X127762000Y-116586000D03*
X120142000Y-116586000D03*
D12*
X128905000Y-124079000D03*
X128905000Y-126238000D03*
X125857000Y-126238000D03*
X120904000Y-123571000D03*
X123952000Y-123571000D03*
X122936000Y-123571000D03*
X128905000Y-129921000D03*
X121920000Y-123571000D03*
X124968000Y-123571000D03*
X125984000Y-123571000D03*
X127000000Y-123571000D03*
X128016000Y-123571000D03*
X128905000Y-123571000D03*
X128905000Y-124714000D03*
X128905000Y-125603000D03*
X128905000Y-126873000D03*
X128905000Y-127889000D03*
X128905000Y-128905000D03*
X119507000Y-123571000D03*
X119507000Y-124587000D03*
X119507000Y-125603000D03*
X120650000Y-125603000D03*
X121793000Y-125603000D03*
X122809000Y-125603000D03*
X123825000Y-125603000D03*
X124841000Y-125603000D03*
X125857000Y-125603000D03*
X125857000Y-126873000D03*
X127889000Y-129921000D03*
X126873000Y-129921000D03*
X125857000Y-129921000D03*
X125857000Y-128905000D03*
X125857000Y-127889000D03*
D13*
X120730000Y-124569500D03*
D14*
X126318000Y-109996000D03*
D15*
X123778000Y-109996000D03*
D16*
X133684000Y-101654000D03*
X133684000Y-106654000D03*
D17*
X169304000Y-131840000D03*
X170554000Y-131840000D03*
X173054000Y-131840000D03*
X171804000Y-131840000D03*
D18*
X150622000Y-117348000D03*
D19*
X150622000Y-119888000D03*
X150622000Y-122428000D03*
D18*
X149940000Y-91200000D03*
D19*
X149940000Y-93740000D03*
X149940000Y-96280000D03*
D18*
X152480000Y-91200000D03*
D19*
X152480000Y-93740000D03*
X152480000Y-96280000D03*
D17*
X142320000Y-96280000D03*
X142320000Y-91200000D03*
X144860000Y-93740000D03*
D20*
X115015000Y-98947000D03*
D21*
X115015000Y-96407000D03*
X117555000Y-98947000D03*
X117555000Y-96407000D03*
X120095000Y-98947000D03*
X120095000Y-96407000D03*
D20*
X175213000Y-98947000D03*
D21*
X175213000Y-96407000D03*
X172673000Y-98947000D03*
X172673000Y-96407000D03*
X170133000Y-98947000D03*
X170133000Y-96407000D03*
X167593000Y-98947000D03*
X167593000Y-96407000D03*
X165053000Y-98947000D03*
X165053000Y-96407000D03*
X162513000Y-98947000D03*
X162513000Y-96407000D03*
X159973000Y-98947000D03*
X159973000Y-96407000D03*
D16*
X130492500Y-128016000D03*
X127468000Y-128016000D03*
X122468000Y-128016000D03*
D22*
X148463000Y-110363000D03*
X110631000Y-119648000D03*
X118872000Y-117348000D03*
X120205500Y-122110500D03*
X127461000Y-122093000D03*
X109728000Y-93345000D03*
X153416000Y-88011000D03*
X135589000Y-96407000D03*
X162560000Y-114808000D03*
X167005000Y-114808000D03*
X174975000Y-122122000D03*
X170434000Y-122174000D03*
X136290000Y-108980000D03*
X147955000Y-104330500D03*
D23*
X150622000Y-112522000D02*
X150622000Y-117348000D01*
X148463000Y-110363000D02*
X150622000Y-112522000D01*
X111252000Y-117348000D02*
X118872000Y-117348000D01*
X110617000Y-117983000D02*
X111252000Y-117348000D01*
X110617000Y-119634000D02*
X110617000Y-117983000D01*
X110631000Y-119648000D02*
X110617000Y-119634000D01*
D24*
X120730000Y-124569500D02*
X120730000Y-124476500D01*
X120730000Y-124476500D02*
X120205500Y-123952000D01*
X120205500Y-123952000D02*
X120205500Y-122110500D01*
X120730000Y-124569500D02*
X120730000Y-124540000D01*
X120730000Y-124569500D02*
X120730000Y-124413000D01*
D23*
X107315000Y-93345000D02*
X109728000Y-93345000D01*
X105918000Y-94742000D02*
X107315000Y-93345000D01*
X105918000Y-113665000D02*
X105918000Y-94742000D01*
X107569000Y-115316000D02*
X105918000Y-113665000D01*
X120684000Y-115316000D02*
X107569000Y-115316000D01*
X127461000Y-122093000D02*
X120684000Y-115316000D01*
X135622000Y-88914000D02*
X146036000Y-88914000D01*
X146036000Y-88914000D02*
X146939000Y-88011000D01*
X134446000Y-88914000D02*
X135622000Y-88914000D01*
X112856000Y-95518000D02*
X112856000Y-89930000D01*
X112856000Y-89930000D02*
X113872000Y-88914000D01*
X113872000Y-88914000D02*
X134446000Y-88914000D01*
X135589000Y-90057000D02*
X135589000Y-96407000D01*
X112856000Y-95518000D02*
X113745000Y-96407000D01*
X135589000Y-88947000D02*
X135589000Y-90057000D01*
X135622000Y-88914000D02*
X135589000Y-88947000D01*
X112856000Y-97296000D02*
X113745000Y-96407000D01*
X146939000Y-88011000D02*
X153416000Y-88011000D01*
X112856000Y-108853000D02*
X112856000Y-97296000D01*
X113999000Y-109996000D02*
X112856000Y-108853000D01*
X153416000Y-88011000D02*
X177927000Y-88011000D01*
X177927000Y-88011000D02*
X179070000Y-86868000D01*
X179070000Y-86868000D02*
X181991000Y-86868000D01*
X181991000Y-86868000D02*
X183134000Y-88011000D01*
X183134000Y-88011000D02*
X183134000Y-101600000D01*
X183134000Y-101600000D02*
X175387000Y-109347000D01*
X175387000Y-109347000D02*
X175387000Y-113538000D01*
X174117000Y-114808000D02*
X167005000Y-114808000D01*
X175387000Y-113538000D02*
X174117000Y-114808000D01*
X167005000Y-114808000D02*
X162560000Y-114808000D01*
X162529000Y-114756000D02*
X162560000Y-114787000D01*
X162560000Y-114787000D02*
X162560000Y-114808000D01*
X167005000Y-120777000D02*
X167005000Y-114808000D01*
X168402000Y-122174000D02*
X167005000Y-120777000D01*
X170434000Y-122174000D02*
X168402000Y-122174000D01*
X174923000Y-122174000D02*
X170434000Y-122174000D01*
X174923000Y-122174000D02*
X174975000Y-122122000D01*
X115015000Y-96407000D02*
X113745000Y-96407000D01*
X123778000Y-109996000D02*
X113999000Y-109996000D01*
X115015000Y-96407000D02*
X114888000Y-96407000D01*
X149669500Y-104330500D02*
X147955000Y-104330500D01*
X150368000Y-105029000D02*
X149669500Y-104330500D01*
X150368000Y-108267500D02*
X150368000Y-105029000D01*
X149669500Y-108966000D02*
X150368000Y-108267500D01*
X136304000Y-108966000D02*
X149669500Y-108966000D01*
X136290000Y-108980000D02*
X136304000Y-108966000D01*
X175213000Y-98947000D02*
X175213000Y-100852000D01*
X149940000Y-100852000D02*
X149940000Y-96280000D01*
X151210000Y-102122000D02*
X149940000Y-100852000D01*
X173943000Y-102122000D02*
X151210000Y-102122000D01*
X175213000Y-100852000D02*
X173943000Y-102122000D01*
D25*
G36*
X119599500Y-123952000D02*
X119645629Y-124183906D01*
X119739577Y-124324510D01*
X119739577Y-125069500D01*
X119773117Y-125247748D01*
X119878461Y-125411458D01*
X120039198Y-125521285D01*
X120230000Y-125559923D01*
X121230000Y-125559923D01*
X121408248Y-125526383D01*
X121571958Y-125421039D01*
X121681785Y-125260302D01*
X121720423Y-125069500D01*
X121720423Y-124069500D01*
X121686883Y-123891252D01*
X121581539Y-123727542D01*
X121420802Y-123617715D01*
X121230000Y-123579077D01*
X120811500Y-123579077D01*
X120811500Y-122828000D01*
X121958578Y-122828000D01*
X122310289Y-123179711D01*
X122343371Y-123201650D01*
X122381000Y-123209000D01*
X124794000Y-123209000D01*
X124832906Y-123201121D01*
X124864711Y-123179711D01*
X125216422Y-122828000D01*
X127194514Y-122828000D01*
X127304968Y-122873864D01*
X127615669Y-122874136D01*
X127727326Y-122828000D01*
X131806000Y-122828000D01*
X131806000Y-130629000D01*
X125148000Y-130629000D01*
X125148000Y-128262163D01*
X126224785Y-128262163D01*
X126413621Y-128719183D01*
X126762978Y-129069150D01*
X127219667Y-129258784D01*
X127714163Y-129259215D01*
X128171183Y-129070379D01*
X128521150Y-128721022D01*
X128710784Y-128264333D01*
X128711215Y-127769837D01*
X128522379Y-127312817D01*
X128173022Y-126962850D01*
X127716333Y-126773216D01*
X127221837Y-126772785D01*
X126764817Y-126961621D01*
X126414850Y-127310978D01*
X126225216Y-127767667D01*
X126224785Y-128262163D01*
X125148000Y-128262163D01*
X125148000Y-126411000D01*
X125140121Y-126372094D01*
X125117727Y-126339319D01*
X125084346Y-126317839D01*
X125048000Y-126311000D01*
X118544000Y-126311000D01*
X118544000Y-122828000D01*
X119599500Y-122828000D01*
X119599500Y-123952000D01*
X119599500Y-123952000D01*
G37*
X119599500Y-123952000D02*
X119645629Y-124183906D01*
X119739577Y-124324510D01*
X119739577Y-125069500D01*
X119773117Y-125247748D01*
X119878461Y-125411458D01*
X120039198Y-125521285D01*
X120230000Y-125559923D01*
X121230000Y-125559923D01*
X121408248Y-125526383D01*
X121571958Y-125421039D01*
X121681785Y-125260302D01*
X121720423Y-125069500D01*
X121720423Y-124069500D01*
X121686883Y-123891252D01*
X121581539Y-123727542D01*
X121420802Y-123617715D01*
X121230000Y-123579077D01*
X120811500Y-123579077D01*
X120811500Y-122828000D01*
X121958578Y-122828000D01*
X122310289Y-123179711D01*
X122343371Y-123201650D01*
X122381000Y-123209000D01*
X124794000Y-123209000D01*
X124832906Y-123201121D01*
X124864711Y-123179711D01*
X125216422Y-122828000D01*
X127194514Y-122828000D01*
X127304968Y-122873864D01*
X127615669Y-122874136D01*
X127727326Y-122828000D01*
X131806000Y-122828000D01*
X131806000Y-130629000D01*
X125148000Y-130629000D01*
X125148000Y-128262163D01*
X126224785Y-128262163D01*
X126413621Y-128719183D01*
X126762978Y-129069150D01*
X127219667Y-129258784D01*
X127714163Y-129259215D01*
X128171183Y-129070379D01*
X128521150Y-128721022D01*
X128710784Y-128264333D01*
X128711215Y-127769837D01*
X128522379Y-127312817D01*
X128173022Y-126962850D01*
X127716333Y-126773216D01*
X127221837Y-126772785D01*
X126764817Y-126961621D01*
X126414850Y-127310978D01*
X126225216Y-127767667D01*
X126224785Y-128262163D01*
X125148000Y-128262163D01*
X125148000Y-126411000D01*
X125140121Y-126372094D01*
X125117727Y-126339319D01*
X125084346Y-126317839D01*
X125048000Y-126311000D01*
X118544000Y-126311000D01*
X118544000Y-122828000D01*
X119599500Y-122828000D01*
X119599500Y-123952000D01*
G36*
X184650000Y-129965527D02*
X184289705Y-131776854D01*
X183283199Y-133283198D01*
X181776854Y-134289705D01*
X179965527Y-134650000D01*
X110034473Y-134650000D01*
X108223146Y-134289705D01*
X106716802Y-133283199D01*
X105858349Y-131998432D01*
X168503861Y-131998432D01*
X168625397Y-132292572D01*
X168850245Y-132517812D01*
X169144172Y-132639861D01*
X169462432Y-132640139D01*
X169756572Y-132518603D01*
X169929103Y-132346372D01*
X170100245Y-132517812D01*
X170394172Y-132639861D01*
X170712432Y-132640139D01*
X171006572Y-132518603D01*
X171179103Y-132346372D01*
X171350245Y-132517812D01*
X171644172Y-132639861D01*
X171962432Y-132640139D01*
X172256572Y-132518603D01*
X172429103Y-132346372D01*
X172600245Y-132517812D01*
X172894172Y-132639861D01*
X173212432Y-132640139D01*
X173506572Y-132518603D01*
X173731812Y-132293755D01*
X173853861Y-131999828D01*
X173854139Y-131681568D01*
X173732603Y-131387428D01*
X173507755Y-131162188D01*
X173213828Y-131040139D01*
X172895568Y-131039861D01*
X172601428Y-131161397D01*
X172428897Y-131333628D01*
X172257755Y-131162188D01*
X171963828Y-131040139D01*
X171645568Y-131039861D01*
X171351428Y-131161397D01*
X171178897Y-131333628D01*
X171007755Y-131162188D01*
X170713828Y-131040139D01*
X170395568Y-131039861D01*
X170101428Y-131161397D01*
X169928897Y-131333628D01*
X169757755Y-131162188D01*
X169463828Y-131040139D01*
X169145568Y-131039861D01*
X168851428Y-131161397D01*
X168626188Y-131386245D01*
X168504139Y-131680172D01*
X168503861Y-131998432D01*
X105858349Y-131998432D01*
X105710295Y-131776854D01*
X105350000Y-129965527D01*
X105350000Y-128826755D01*
X121869377Y-128826755D01*
X121959032Y-128971730D01*
X122363516Y-129093752D01*
X122783908Y-129051697D01*
X122976968Y-128971730D01*
X123066623Y-128826755D01*
X122468000Y-128228132D01*
X121869377Y-128826755D01*
X105350000Y-128826755D01*
X105350000Y-119766824D01*
X110030896Y-119766824D01*
X110122048Y-119987429D01*
X110290683Y-120156359D01*
X110511129Y-120247896D01*
X110749824Y-120248104D01*
X110970429Y-120156952D01*
X111139359Y-119988317D01*
X111230896Y-119767871D01*
X111231104Y-119529176D01*
X111139952Y-119308571D01*
X111117000Y-119285579D01*
X111117000Y-118190106D01*
X111459107Y-117848000D01*
X118523339Y-117848000D01*
X118531683Y-117856359D01*
X118752129Y-117947896D01*
X118990824Y-117948104D01*
X119211429Y-117856952D01*
X119380359Y-117688317D01*
X119471896Y-117467871D01*
X119472104Y-117229176D01*
X119380952Y-117008571D01*
X119212317Y-116839641D01*
X118991871Y-116748104D01*
X118753176Y-116747896D01*
X118532571Y-116839048D01*
X118523603Y-116848000D01*
X111252000Y-116848000D01*
X111060658Y-116886060D01*
X110995686Y-116929474D01*
X110898447Y-116994446D01*
X110263447Y-117629447D01*
X110155060Y-117791658D01*
X110117000Y-117983000D01*
X110117000Y-119321268D01*
X110031104Y-119528129D01*
X110030896Y-119766824D01*
X105350000Y-119766824D01*
X105350000Y-94742000D01*
X105418000Y-94742000D01*
X105418000Y-113665000D01*
X105456060Y-113856342D01*
X105564447Y-114018553D01*
X107215447Y-115669554D01*
X107312686Y-115734526D01*
X107377658Y-115777940D01*
X107569000Y-115816000D01*
X120476894Y-115816000D01*
X126480893Y-121820000D01*
X120734669Y-121820000D01*
X120714452Y-121771071D01*
X120545817Y-121602141D01*
X120325371Y-121510604D01*
X120086676Y-121510396D01*
X119866071Y-121601548D01*
X119697141Y-121770183D01*
X119676455Y-121820000D01*
X117602000Y-121820000D01*
X117563094Y-121827879D01*
X117530319Y-121850273D01*
X117508839Y-121883654D01*
X117502000Y-121920000D01*
X117502000Y-127254000D01*
X117509879Y-127292906D01*
X117532273Y-127325681D01*
X117565654Y-127347161D01*
X117602000Y-127354000D01*
X121601451Y-127354000D01*
X121597658Y-127357793D01*
X121657243Y-127417378D01*
X121512270Y-127507032D01*
X121390248Y-127911516D01*
X121432303Y-128331908D01*
X121512270Y-128524968D01*
X121657245Y-128614623D01*
X122255868Y-128016000D01*
X122241726Y-128001858D01*
X122453858Y-127789726D01*
X122468000Y-127803868D01*
X122482143Y-127789726D01*
X122694275Y-128001858D01*
X122680132Y-128016000D01*
X123278755Y-128614623D01*
X123423730Y-128524968D01*
X123545752Y-128120484D01*
X123503697Y-127700092D01*
X123423730Y-127507032D01*
X123278757Y-127417378D01*
X123338342Y-127357793D01*
X123334549Y-127354000D01*
X124106000Y-127354000D01*
X124106000Y-131572000D01*
X124113879Y-131610906D01*
X124136273Y-131643681D01*
X124169654Y-131665161D01*
X124206000Y-131672000D01*
X132842000Y-131672000D01*
X132880906Y-131664121D01*
X132913681Y-131641727D01*
X132935161Y-131608346D01*
X132942000Y-131572000D01*
X132942000Y-122428000D01*
X149245552Y-122428000D01*
X149340703Y-122906354D01*
X149611669Y-123311883D01*
X150017198Y-123582849D01*
X150495552Y-123678000D01*
X150748448Y-123678000D01*
X151226802Y-123582849D01*
X151632331Y-123311883D01*
X151903297Y-122906354D01*
X151998448Y-122428000D01*
X151903297Y-121949646D01*
X151632331Y-121544117D01*
X151226802Y-121273151D01*
X150748448Y-121178000D01*
X150495552Y-121178000D01*
X150017198Y-121273151D01*
X149611669Y-121544117D01*
X149340703Y-121949646D01*
X149245552Y-122428000D01*
X132942000Y-122428000D01*
X132942000Y-121920000D01*
X132934121Y-121881094D01*
X132911727Y-121848319D01*
X132878346Y-121826839D01*
X132842000Y-121820000D01*
X127997400Y-121820000D01*
X127969952Y-121753571D01*
X127801317Y-121584641D01*
X127580871Y-121493104D01*
X127568200Y-121493093D01*
X125963107Y-119888000D01*
X149245552Y-119888000D01*
X149340703Y-120366354D01*
X149611669Y-120771883D01*
X150017198Y-121042849D01*
X150495552Y-121138000D01*
X150748448Y-121138000D01*
X151226802Y-121042849D01*
X151632331Y-120771883D01*
X151903297Y-120366354D01*
X151998448Y-119888000D01*
X151903297Y-119409646D01*
X151632331Y-119004117D01*
X151226802Y-118733151D01*
X150748448Y-118638000D01*
X150495552Y-118638000D01*
X150017198Y-118733151D01*
X149611669Y-119004117D01*
X149340703Y-119409646D01*
X149245552Y-119888000D01*
X125963107Y-119888000D01*
X121037553Y-114962447D01*
X120875342Y-114854060D01*
X120684000Y-114816000D01*
X107776107Y-114816000D01*
X107237363Y-114277256D01*
X128349757Y-114277256D01*
X128562445Y-114792000D01*
X128955928Y-115186170D01*
X129470301Y-115399757D01*
X130027256Y-115400243D01*
X130542000Y-115187555D01*
X130936170Y-114794072D01*
X131149757Y-114279699D01*
X131150243Y-113722744D01*
X130937555Y-113208000D01*
X130544072Y-112813830D01*
X130029699Y-112600243D01*
X129472744Y-112599757D01*
X128958000Y-112812445D01*
X128563830Y-113205928D01*
X128350243Y-113720301D01*
X128349757Y-114277256D01*
X107237363Y-114277256D01*
X106418000Y-113457894D01*
X106418000Y-110376275D01*
X107599671Y-110376275D01*
X107888319Y-111074857D01*
X108422331Y-111609802D01*
X109120409Y-111899669D01*
X109876275Y-111900329D01*
X110574857Y-111611681D01*
X111109802Y-111077669D01*
X111399669Y-110379591D01*
X111400329Y-109623725D01*
X111111681Y-108925143D01*
X110577669Y-108390198D01*
X109879591Y-108100331D01*
X109123725Y-108099671D01*
X108425143Y-108388319D01*
X107890198Y-108922331D01*
X107600331Y-109620409D01*
X107599671Y-110376275D01*
X106418000Y-110376275D01*
X106418000Y-103876275D01*
X107599671Y-103876275D01*
X107888319Y-104574857D01*
X108422331Y-105109802D01*
X109120409Y-105399669D01*
X109876275Y-105400329D01*
X110574857Y-105111681D01*
X111109802Y-104577669D01*
X111399669Y-103879591D01*
X111400329Y-103123725D01*
X111111681Y-102425143D01*
X110577669Y-101890198D01*
X109879591Y-101600331D01*
X109123725Y-101599671D01*
X108425143Y-101888319D01*
X107890198Y-102422331D01*
X107600331Y-103120409D01*
X107599671Y-103876275D01*
X106418000Y-103876275D01*
X106418000Y-94949106D01*
X107522107Y-93845000D01*
X109379339Y-93845000D01*
X109387683Y-93853359D01*
X109608129Y-93944896D01*
X109846824Y-93945104D01*
X110067429Y-93853952D01*
X110236359Y-93685317D01*
X110327896Y-93464871D01*
X110328104Y-93226176D01*
X110236952Y-93005571D01*
X110068317Y-92836641D01*
X109847871Y-92745104D01*
X109609176Y-92744896D01*
X109388571Y-92836048D01*
X109379603Y-92845000D01*
X107315000Y-92845000D01*
X107123658Y-92883060D01*
X106961446Y-92991447D01*
X105564447Y-94388447D01*
X105456060Y-94550658D01*
X105418000Y-94742000D01*
X105350000Y-94742000D01*
X105350000Y-89930000D01*
X112356000Y-89930000D01*
X112356000Y-95518000D01*
X112372589Y-95601397D01*
X112394060Y-95709342D01*
X112502447Y-95871553D01*
X113037894Y-96407000D01*
X112502447Y-96942447D01*
X112394060Y-97104658D01*
X112356000Y-97296000D01*
X112356000Y-108853000D01*
X112394060Y-109044342D01*
X112502447Y-109206553D01*
X113645447Y-110349553D01*
X113807658Y-110457940D01*
X113999000Y-110496000D01*
X122686195Y-110496000D01*
X122760097Y-110674857D01*
X123097367Y-111012717D01*
X123538258Y-111195791D01*
X124015647Y-111196207D01*
X124456857Y-111013903D01*
X124794717Y-110676633D01*
X124977791Y-110235742D01*
X124978207Y-109758353D01*
X124795903Y-109317143D01*
X124575147Y-109096000D01*
X125112123Y-109096000D01*
X125112123Y-110896000D01*
X125133042Y-111007173D01*
X125198745Y-111109279D01*
X125298997Y-111177778D01*
X125418000Y-111201877D01*
X127218000Y-111201877D01*
X127329173Y-111180958D01*
X127431279Y-111115255D01*
X127499778Y-111015003D01*
X127523877Y-110896000D01*
X127523877Y-110481824D01*
X147862896Y-110481824D01*
X147954048Y-110702429D01*
X148122683Y-110871359D01*
X148343129Y-110962896D01*
X148355801Y-110962907D01*
X150122000Y-112729106D01*
X150122000Y-116092123D01*
X149572000Y-116092123D01*
X149460827Y-116113042D01*
X149358721Y-116178745D01*
X149290222Y-116278997D01*
X149266123Y-116398000D01*
X149266123Y-118298000D01*
X149287042Y-118409173D01*
X149352745Y-118511279D01*
X149452997Y-118579778D01*
X149572000Y-118603877D01*
X151672000Y-118603877D01*
X151783173Y-118582958D01*
X151885279Y-118517255D01*
X151953778Y-118417003D01*
X151977877Y-118298000D01*
X151977877Y-116398000D01*
X151956958Y-116286827D01*
X151891255Y-116184721D01*
X151791003Y-116116222D01*
X151672000Y-116092123D01*
X151122000Y-116092123D01*
X151122000Y-112522000D01*
X151083940Y-112330658D01*
X150975553Y-112168447D01*
X149063094Y-110255988D01*
X149063104Y-110244176D01*
X148971952Y-110023571D01*
X148803317Y-109854641D01*
X148582871Y-109763104D01*
X148344176Y-109762896D01*
X148123571Y-109854048D01*
X147954641Y-110022683D01*
X147863104Y-110243129D01*
X147862896Y-110481824D01*
X127523877Y-110481824D01*
X127523877Y-109098824D01*
X135689896Y-109098824D01*
X135781048Y-109319429D01*
X135949683Y-109488359D01*
X136170129Y-109579896D01*
X136408824Y-109580104D01*
X136629429Y-109488952D01*
X136652421Y-109466000D01*
X149669500Y-109466000D01*
X149860842Y-109427940D01*
X150023053Y-109319553D01*
X150721553Y-108621054D01*
X150829940Y-108458842D01*
X150868000Y-108267500D01*
X150868000Y-105029000D01*
X150829940Y-104837658D01*
X150799726Y-104792440D01*
X150721553Y-104675446D01*
X150023053Y-103976947D01*
X149860842Y-103868560D01*
X149669500Y-103830500D01*
X148303661Y-103830500D01*
X148295317Y-103822141D01*
X148074871Y-103730604D01*
X147836176Y-103730396D01*
X147615571Y-103821548D01*
X147446641Y-103990183D01*
X147355104Y-104210629D01*
X147354896Y-104449324D01*
X147446048Y-104669929D01*
X147614683Y-104838859D01*
X147835129Y-104930396D01*
X148073824Y-104930604D01*
X148294429Y-104839452D01*
X148303397Y-104830500D01*
X149462394Y-104830500D01*
X149868000Y-105236107D01*
X149868000Y-108060393D01*
X149462394Y-108466000D01*
X136616732Y-108466000D01*
X136409871Y-108380104D01*
X136171176Y-108379896D01*
X135950571Y-108471048D01*
X135781641Y-108639683D01*
X135690104Y-108860129D01*
X135689896Y-109098824D01*
X127523877Y-109098824D01*
X127523877Y-109096000D01*
X127502958Y-108984827D01*
X127437255Y-108882721D01*
X127337003Y-108814222D01*
X127218000Y-108790123D01*
X125418000Y-108790123D01*
X125306827Y-108811042D01*
X125204721Y-108876745D01*
X125136222Y-108976997D01*
X125112123Y-109096000D01*
X124575147Y-109096000D01*
X124458633Y-108979283D01*
X124017742Y-108796209D01*
X123540353Y-108795793D01*
X123099143Y-108978097D01*
X122761283Y-109315367D01*
X122686278Y-109496000D01*
X114206106Y-109496000D01*
X113356000Y-108645894D01*
X113356000Y-107464755D01*
X133085377Y-107464755D01*
X133175032Y-107609730D01*
X133579516Y-107731752D01*
X133999908Y-107689697D01*
X134192968Y-107609730D01*
X134282623Y-107464755D01*
X133684000Y-106866132D01*
X133085377Y-107464755D01*
X113356000Y-107464755D01*
X113356000Y-106549516D01*
X132606248Y-106549516D01*
X132648303Y-106969908D01*
X132728270Y-107162968D01*
X132873245Y-107252623D01*
X133471868Y-106654000D01*
X133896132Y-106654000D01*
X134494755Y-107252623D01*
X134639730Y-107162968D01*
X134761752Y-106758484D01*
X134719697Y-106338092D01*
X134639730Y-106145032D01*
X134494755Y-106055377D01*
X133896132Y-106654000D01*
X133471868Y-106654000D01*
X132873245Y-106055377D01*
X132728270Y-106145032D01*
X132606248Y-106549516D01*
X113356000Y-106549516D01*
X113356000Y-105843245D01*
X133085377Y-105843245D01*
X133684000Y-106441868D01*
X134282623Y-105843245D01*
X134192968Y-105698270D01*
X133788484Y-105576248D01*
X133368092Y-105618303D01*
X133175032Y-105698270D01*
X133085377Y-105843245D01*
X113356000Y-105843245D01*
X113356000Y-104027256D01*
X123599757Y-104027256D01*
X123812445Y-104542000D01*
X124205928Y-104936170D01*
X124720301Y-105149757D01*
X125277256Y-105150243D01*
X125792000Y-104937555D01*
X126186170Y-104544072D01*
X126399757Y-104029699D01*
X126400243Y-103472744D01*
X126187555Y-102958000D01*
X125794072Y-102563830D01*
X125279699Y-102350243D01*
X124722744Y-102349757D01*
X124208000Y-102562445D01*
X123813830Y-102955928D01*
X123600243Y-103470301D01*
X123599757Y-104027256D01*
X113356000Y-104027256D01*
X113356000Y-101864318D01*
X132621816Y-101864318D01*
X132783155Y-102254789D01*
X133081640Y-102553795D01*
X133471828Y-102715815D01*
X133894318Y-102716184D01*
X134284789Y-102554845D01*
X134583795Y-102256360D01*
X134745815Y-101866172D01*
X134746184Y-101443682D01*
X134584845Y-101053211D01*
X134286360Y-100754205D01*
X133896172Y-100592185D01*
X133473682Y-100591816D01*
X133083211Y-100753155D01*
X132784205Y-101051640D01*
X132622185Y-101441828D01*
X132621816Y-101864318D01*
X113356000Y-101864318D01*
X113356000Y-99172000D01*
X113865000Y-99172000D01*
X113865000Y-99856674D01*
X113910672Y-99966937D01*
X113995064Y-100051328D01*
X114105327Y-100097000D01*
X114790000Y-100097000D01*
X114865000Y-100022000D01*
X114865000Y-99097000D01*
X115165000Y-99097000D01*
X115165000Y-100022000D01*
X115240000Y-100097000D01*
X115924673Y-100097000D01*
X116034936Y-100051328D01*
X116119328Y-99966937D01*
X116165000Y-99856674D01*
X116165000Y-99172000D01*
X116090000Y-99097000D01*
X115165000Y-99097000D01*
X114865000Y-99097000D01*
X113940000Y-99097000D01*
X113865000Y-99172000D01*
X113356000Y-99172000D01*
X113356000Y-98924470D01*
X116405000Y-98924470D01*
X116405000Y-98969530D01*
X116492539Y-99409616D01*
X116741827Y-99782703D01*
X117114914Y-100031991D01*
X117555000Y-100119530D01*
X117995086Y-100031991D01*
X118368173Y-99782703D01*
X118617461Y-99409616D01*
X118705000Y-98969530D01*
X118705000Y-98924470D01*
X118945000Y-98924470D01*
X118945000Y-98969530D01*
X119032539Y-99409616D01*
X119281827Y-99782703D01*
X119654914Y-100031991D01*
X120095000Y-100119530D01*
X120535086Y-100031991D01*
X120908173Y-99782703D01*
X121157461Y-99409616D01*
X121245000Y-98969530D01*
X121245000Y-98924470D01*
X121157461Y-98484384D01*
X120908173Y-98111297D01*
X120535086Y-97862009D01*
X120095000Y-97774470D01*
X119654914Y-97862009D01*
X119281827Y-98111297D01*
X119032539Y-98484384D01*
X118945000Y-98924470D01*
X118705000Y-98924470D01*
X118617461Y-98484384D01*
X118368173Y-98111297D01*
X117995086Y-97862009D01*
X117555000Y-97774470D01*
X117114914Y-97862009D01*
X116741827Y-98111297D01*
X116492539Y-98484384D01*
X116405000Y-98924470D01*
X113356000Y-98924470D01*
X113356000Y-98037326D01*
X113865000Y-98037326D01*
X113865000Y-98722000D01*
X113940000Y-98797000D01*
X114865000Y-98797000D01*
X114865000Y-97872000D01*
X115165000Y-97872000D01*
X115165000Y-98797000D01*
X116090000Y-98797000D01*
X116165000Y-98722000D01*
X116165000Y-98037326D01*
X116119328Y-97927063D01*
X116034936Y-97842672D01*
X115924673Y-97797000D01*
X115240000Y-97797000D01*
X115165000Y-97872000D01*
X114865000Y-97872000D01*
X114790000Y-97797000D01*
X114105327Y-97797000D01*
X113995064Y-97842672D01*
X113910672Y-97927063D01*
X113865000Y-98037326D01*
X113356000Y-98037326D01*
X113356000Y-97503106D01*
X113952106Y-96907000D01*
X113977518Y-96907000D01*
X114201827Y-97242703D01*
X114574914Y-97491991D01*
X115015000Y-97579530D01*
X115455086Y-97491991D01*
X115828173Y-97242703D01*
X116077461Y-96869616D01*
X116165000Y-96429530D01*
X116165000Y-96384470D01*
X116405000Y-96384470D01*
X116405000Y-96429530D01*
X116492539Y-96869616D01*
X116741827Y-97242703D01*
X117114914Y-97491991D01*
X117555000Y-97579530D01*
X117995086Y-97491991D01*
X118368173Y-97242703D01*
X118617461Y-96869616D01*
X118705000Y-96429530D01*
X118705000Y-96384470D01*
X118945000Y-96384470D01*
X118945000Y-96429530D01*
X119032539Y-96869616D01*
X119281827Y-97242703D01*
X119654914Y-97491991D01*
X120095000Y-97579530D01*
X120535086Y-97491991D01*
X120908173Y-97242703D01*
X121157461Y-96869616D01*
X121245000Y-96429530D01*
X121245000Y-96384470D01*
X121157461Y-95944384D01*
X120908173Y-95571297D01*
X120535086Y-95322009D01*
X120095000Y-95234470D01*
X119654914Y-95322009D01*
X119281827Y-95571297D01*
X119032539Y-95944384D01*
X118945000Y-96384470D01*
X118705000Y-96384470D01*
X118617461Y-95944384D01*
X118368173Y-95571297D01*
X117995086Y-95322009D01*
X117555000Y-95234470D01*
X117114914Y-95322009D01*
X116741827Y-95571297D01*
X116492539Y-95944384D01*
X116405000Y-96384470D01*
X116165000Y-96384470D01*
X116077461Y-95944384D01*
X115828173Y-95571297D01*
X115455086Y-95322009D01*
X115015000Y-95234470D01*
X114574914Y-95322009D01*
X114201827Y-95571297D01*
X113977518Y-95907000D01*
X113952106Y-95907000D01*
X113356000Y-95310894D01*
X113356000Y-90137106D01*
X114079106Y-89414000D01*
X135089000Y-89414000D01*
X135089000Y-96058339D01*
X135080641Y-96066683D01*
X134989104Y-96287129D01*
X134988896Y-96525824D01*
X135080048Y-96746429D01*
X135248683Y-96915359D01*
X135469129Y-97006896D01*
X135707824Y-97007104D01*
X135928429Y-96915952D01*
X136097359Y-96747317D01*
X136188896Y-96526871D01*
X136188973Y-96438432D01*
X141519861Y-96438432D01*
X141641397Y-96732572D01*
X141866245Y-96957812D01*
X142160172Y-97079861D01*
X142478432Y-97080139D01*
X142772572Y-96958603D01*
X142997812Y-96733755D01*
X143119861Y-96439828D01*
X143120000Y-96280000D01*
X148563552Y-96280000D01*
X148658703Y-96758354D01*
X148929669Y-97163883D01*
X149335198Y-97434849D01*
X149440000Y-97455696D01*
X149440000Y-100852000D01*
X149478060Y-101043342D01*
X149586447Y-101205553D01*
X150856446Y-102475553D01*
X151018658Y-102583940D01*
X151210000Y-102622000D01*
X173943000Y-102622000D01*
X174134342Y-102583940D01*
X174296553Y-102475553D01*
X175566553Y-101205554D01*
X175674940Y-101043342D01*
X175713000Y-100852000D01*
X175713000Y-100102877D01*
X176063000Y-100102877D01*
X176174173Y-100081958D01*
X176276279Y-100016255D01*
X176344778Y-99916003D01*
X176368877Y-99797000D01*
X176368877Y-98097000D01*
X176347958Y-97985827D01*
X176282255Y-97883721D01*
X176182003Y-97815222D01*
X176063000Y-97791123D01*
X174363000Y-97791123D01*
X174251827Y-97812042D01*
X174149721Y-97877745D01*
X174081222Y-97977997D01*
X174057123Y-98097000D01*
X174057123Y-99797000D01*
X174078042Y-99908173D01*
X174143745Y-100010279D01*
X174243997Y-100078778D01*
X174363000Y-100102877D01*
X174713000Y-100102877D01*
X174713000Y-100644893D01*
X173735894Y-101622000D01*
X151417107Y-101622000D01*
X150440000Y-100644894D01*
X150440000Y-98924470D01*
X158823000Y-98924470D01*
X158823000Y-98969530D01*
X158910539Y-99409616D01*
X159159827Y-99782703D01*
X159532914Y-100031991D01*
X159973000Y-100119530D01*
X160413086Y-100031991D01*
X160786173Y-99782703D01*
X161035461Y-99409616D01*
X161062532Y-99273518D01*
X161410313Y-99273518D01*
X161619203Y-99670643D01*
X161964165Y-99957600D01*
X162186484Y-100049672D01*
X162363000Y-100011483D01*
X162363000Y-99097000D01*
X162663000Y-99097000D01*
X162663000Y-100011483D01*
X162839516Y-100049672D01*
X163061835Y-99957600D01*
X163406797Y-99670643D01*
X163615687Y-99273518D01*
X163578190Y-99097000D01*
X162663000Y-99097000D01*
X162363000Y-99097000D01*
X161447810Y-99097000D01*
X161410313Y-99273518D01*
X161062532Y-99273518D01*
X161123000Y-98969530D01*
X161123000Y-98924470D01*
X163903000Y-98924470D01*
X163903000Y-98969530D01*
X163990539Y-99409616D01*
X164239827Y-99782703D01*
X164612914Y-100031991D01*
X165053000Y-100119530D01*
X165493086Y-100031991D01*
X165866173Y-99782703D01*
X166115461Y-99409616D01*
X166203000Y-98969530D01*
X166203000Y-98924470D01*
X166443000Y-98924470D01*
X166443000Y-98969530D01*
X166530539Y-99409616D01*
X166779827Y-99782703D01*
X167152914Y-100031991D01*
X167593000Y-100119530D01*
X168033086Y-100031991D01*
X168406173Y-99782703D01*
X168655461Y-99409616D01*
X168743000Y-98969530D01*
X168743000Y-98924470D01*
X168983000Y-98924470D01*
X168983000Y-98969530D01*
X169070539Y-99409616D01*
X169319827Y-99782703D01*
X169692914Y-100031991D01*
X170133000Y-100119530D01*
X170573086Y-100031991D01*
X170946173Y-99782703D01*
X171195461Y-99409616D01*
X171283000Y-98969530D01*
X171283000Y-98924470D01*
X171523000Y-98924470D01*
X171523000Y-98969530D01*
X171610539Y-99409616D01*
X171859827Y-99782703D01*
X172232914Y-100031991D01*
X172673000Y-100119530D01*
X173113086Y-100031991D01*
X173486173Y-99782703D01*
X173735461Y-99409616D01*
X173823000Y-98969530D01*
X173823000Y-98924470D01*
X173735461Y-98484384D01*
X173486173Y-98111297D01*
X173113086Y-97862009D01*
X172673000Y-97774470D01*
X172232914Y-97862009D01*
X171859827Y-98111297D01*
X171610539Y-98484384D01*
X171523000Y-98924470D01*
X171283000Y-98924470D01*
X171195461Y-98484384D01*
X170946173Y-98111297D01*
X170573086Y-97862009D01*
X170133000Y-97774470D01*
X169692914Y-97862009D01*
X169319827Y-98111297D01*
X169070539Y-98484384D01*
X168983000Y-98924470D01*
X168743000Y-98924470D01*
X168655461Y-98484384D01*
X168406173Y-98111297D01*
X168033086Y-97862009D01*
X167593000Y-97774470D01*
X167152914Y-97862009D01*
X166779827Y-98111297D01*
X166530539Y-98484384D01*
X166443000Y-98924470D01*
X166203000Y-98924470D01*
X166115461Y-98484384D01*
X165866173Y-98111297D01*
X165493086Y-97862009D01*
X165053000Y-97774470D01*
X164612914Y-97862009D01*
X164239827Y-98111297D01*
X163990539Y-98484384D01*
X163903000Y-98924470D01*
X161123000Y-98924470D01*
X161062533Y-98620482D01*
X161410313Y-98620482D01*
X161447810Y-98797000D01*
X162363000Y-98797000D01*
X162363000Y-97882517D01*
X162663000Y-97882517D01*
X162663000Y-98797000D01*
X163578190Y-98797000D01*
X163615687Y-98620482D01*
X163406797Y-98223357D01*
X163061835Y-97936400D01*
X162839516Y-97844328D01*
X162663000Y-97882517D01*
X162363000Y-97882517D01*
X162186484Y-97844328D01*
X161964165Y-97936400D01*
X161619203Y-98223357D01*
X161410313Y-98620482D01*
X161062533Y-98620482D01*
X161035461Y-98484384D01*
X160786173Y-98111297D01*
X160413086Y-97862009D01*
X159973000Y-97774470D01*
X159532914Y-97862009D01*
X159159827Y-98111297D01*
X158910539Y-98484384D01*
X158823000Y-98924470D01*
X150440000Y-98924470D01*
X150440000Y-97455696D01*
X150544802Y-97434849D01*
X150950331Y-97163883D01*
X151210000Y-96775261D01*
X151469669Y-97163883D01*
X151875198Y-97434849D01*
X152353552Y-97530000D01*
X152606448Y-97530000D01*
X153084802Y-97434849D01*
X153490331Y-97163883D01*
X153761297Y-96758354D01*
X153835667Y-96384470D01*
X158823000Y-96384470D01*
X158823000Y-96429530D01*
X158910539Y-96869616D01*
X159159827Y-97242703D01*
X159532914Y-97491991D01*
X159973000Y-97579530D01*
X160413086Y-97491991D01*
X160786173Y-97242703D01*
X161035461Y-96869616D01*
X161123000Y-96429530D01*
X161123000Y-96384470D01*
X161363000Y-96384470D01*
X161363000Y-96429530D01*
X161450539Y-96869616D01*
X161699827Y-97242703D01*
X162072914Y-97491991D01*
X162513000Y-97579530D01*
X162953086Y-97491991D01*
X163326173Y-97242703D01*
X163575461Y-96869616D01*
X163663000Y-96429530D01*
X163663000Y-96384470D01*
X163903000Y-96384470D01*
X163903000Y-96429530D01*
X163990539Y-96869616D01*
X164239827Y-97242703D01*
X164612914Y-97491991D01*
X165053000Y-97579530D01*
X165493086Y-97491991D01*
X165866173Y-97242703D01*
X166115461Y-96869616D01*
X166203000Y-96429530D01*
X166203000Y-96384470D01*
X166443000Y-96384470D01*
X166443000Y-96429530D01*
X166530539Y-96869616D01*
X166779827Y-97242703D01*
X167152914Y-97491991D01*
X167593000Y-97579530D01*
X168033086Y-97491991D01*
X168406173Y-97242703D01*
X168655461Y-96869616D01*
X168743000Y-96429530D01*
X168743000Y-96384470D01*
X168983000Y-96384470D01*
X168983000Y-96429530D01*
X169070539Y-96869616D01*
X169319827Y-97242703D01*
X169692914Y-97491991D01*
X170133000Y-97579530D01*
X170573086Y-97491991D01*
X170946173Y-97242703D01*
X171195461Y-96869616D01*
X171283000Y-96429530D01*
X171283000Y-96384470D01*
X171523000Y-96384470D01*
X171523000Y-96429530D01*
X171610539Y-96869616D01*
X171859827Y-97242703D01*
X172232914Y-97491991D01*
X172673000Y-97579530D01*
X173113086Y-97491991D01*
X173486173Y-97242703D01*
X173735461Y-96869616D01*
X173823000Y-96429530D01*
X173823000Y-96384470D01*
X174063000Y-96384470D01*
X174063000Y-96429530D01*
X174150539Y-96869616D01*
X174399827Y-97242703D01*
X174772914Y-97491991D01*
X175213000Y-97579530D01*
X175653086Y-97491991D01*
X176026173Y-97242703D01*
X176275461Y-96869616D01*
X176363000Y-96429530D01*
X176363000Y-96384470D01*
X176275461Y-95944384D01*
X176026173Y-95571297D01*
X175653086Y-95322009D01*
X175213000Y-95234470D01*
X174772914Y-95322009D01*
X174399827Y-95571297D01*
X174150539Y-95944384D01*
X174063000Y-96384470D01*
X173823000Y-96384470D01*
X173735461Y-95944384D01*
X173486173Y-95571297D01*
X173113086Y-95322009D01*
X172673000Y-95234470D01*
X172232914Y-95322009D01*
X171859827Y-95571297D01*
X171610539Y-95944384D01*
X171523000Y-96384470D01*
X171283000Y-96384470D01*
X171195461Y-95944384D01*
X170946173Y-95571297D01*
X170573086Y-95322009D01*
X170133000Y-95234470D01*
X169692914Y-95322009D01*
X169319827Y-95571297D01*
X169070539Y-95944384D01*
X168983000Y-96384470D01*
X168743000Y-96384470D01*
X168655461Y-95944384D01*
X168406173Y-95571297D01*
X168033086Y-95322009D01*
X167593000Y-95234470D01*
X167152914Y-95322009D01*
X166779827Y-95571297D01*
X166530539Y-95944384D01*
X166443000Y-96384470D01*
X166203000Y-96384470D01*
X166115461Y-95944384D01*
X165866173Y-95571297D01*
X165493086Y-95322009D01*
X165053000Y-95234470D01*
X164612914Y-95322009D01*
X164239827Y-95571297D01*
X163990539Y-95944384D01*
X163903000Y-96384470D01*
X163663000Y-96384470D01*
X163575461Y-95944384D01*
X163326173Y-95571297D01*
X162953086Y-95322009D01*
X162513000Y-95234470D01*
X162072914Y-95322009D01*
X161699827Y-95571297D01*
X161450539Y-95944384D01*
X161363000Y-96384470D01*
X161123000Y-96384470D01*
X161035461Y-95944384D01*
X160786173Y-95571297D01*
X160413086Y-95322009D01*
X159973000Y-95234470D01*
X159532914Y-95322009D01*
X159159827Y-95571297D01*
X158910539Y-95944384D01*
X158823000Y-96384470D01*
X153835667Y-96384470D01*
X153856448Y-96280000D01*
X153761297Y-95801646D01*
X153490331Y-95396117D01*
X153084802Y-95125151D01*
X152606448Y-95030000D01*
X152353552Y-95030000D01*
X151875198Y-95125151D01*
X151469669Y-95396117D01*
X151210000Y-95784739D01*
X150950331Y-95396117D01*
X150544802Y-95125151D01*
X150066448Y-95030000D01*
X149813552Y-95030000D01*
X149335198Y-95125151D01*
X148929669Y-95396117D01*
X148658703Y-95801646D01*
X148563552Y-96280000D01*
X143120000Y-96280000D01*
X143120139Y-96121568D01*
X142998603Y-95827428D01*
X142773755Y-95602188D01*
X142479828Y-95480139D01*
X142161568Y-95479861D01*
X141867428Y-95601397D01*
X141642188Y-95826245D01*
X141520139Y-96120172D01*
X141519861Y-96438432D01*
X136188973Y-96438432D01*
X136189104Y-96288176D01*
X136097952Y-96067571D01*
X136089000Y-96058603D01*
X136089000Y-93898432D01*
X144059861Y-93898432D01*
X144181397Y-94192572D01*
X144406245Y-94417812D01*
X144700172Y-94539861D01*
X145018432Y-94540139D01*
X145312572Y-94418603D01*
X145537812Y-94193755D01*
X145659861Y-93899828D01*
X145660000Y-93740000D01*
X148563552Y-93740000D01*
X148658703Y-94218354D01*
X148929669Y-94623883D01*
X149335198Y-94894849D01*
X149813552Y-94990000D01*
X150066448Y-94990000D01*
X150544802Y-94894849D01*
X150950331Y-94623883D01*
X151210000Y-94235261D01*
X151469669Y-94623883D01*
X151875198Y-94894849D01*
X152353552Y-94990000D01*
X152606448Y-94990000D01*
X153084802Y-94894849D01*
X153490331Y-94623883D01*
X153761297Y-94218354D01*
X153856448Y-93740000D01*
X153761297Y-93261646D01*
X153490331Y-92856117D01*
X153084802Y-92585151D01*
X152606448Y-92490000D01*
X152353552Y-92490000D01*
X151875198Y-92585151D01*
X151469669Y-92856117D01*
X151210000Y-93244739D01*
X150950331Y-92856117D01*
X150544802Y-92585151D01*
X150066448Y-92490000D01*
X149813552Y-92490000D01*
X149335198Y-92585151D01*
X148929669Y-92856117D01*
X148658703Y-93261646D01*
X148563552Y-93740000D01*
X145660000Y-93740000D01*
X145660139Y-93581568D01*
X145538603Y-93287428D01*
X145313755Y-93062188D01*
X145019828Y-92940139D01*
X144701568Y-92939861D01*
X144407428Y-93061397D01*
X144182188Y-93286245D01*
X144060139Y-93580172D01*
X144059861Y-93898432D01*
X136089000Y-93898432D01*
X136089000Y-91818948D01*
X141913184Y-91818948D01*
X141970088Y-91936807D01*
X142278687Y-92014626D01*
X142593576Y-91968426D01*
X142669912Y-91936807D01*
X142726816Y-91818948D01*
X142320000Y-91412132D01*
X141913184Y-91818948D01*
X136089000Y-91818948D01*
X136089000Y-91158687D01*
X141505374Y-91158687D01*
X141551574Y-91473576D01*
X141583193Y-91549912D01*
X141701052Y-91606816D01*
X142107868Y-91200000D01*
X142532132Y-91200000D01*
X142938948Y-91606816D01*
X143056807Y-91549912D01*
X143134626Y-91241313D01*
X143088426Y-90926424D01*
X143056807Y-90850088D01*
X142938948Y-90793184D01*
X142532132Y-91200000D01*
X142107868Y-91200000D01*
X141701052Y-90793184D01*
X141583193Y-90850088D01*
X141505374Y-91158687D01*
X136089000Y-91158687D01*
X136089000Y-90581052D01*
X141913184Y-90581052D01*
X142320000Y-90987868D01*
X142726816Y-90581052D01*
X142669912Y-90463193D01*
X142361313Y-90385374D01*
X142046424Y-90431574D01*
X141970088Y-90463193D01*
X141913184Y-90581052D01*
X136089000Y-90581052D01*
X136089000Y-90250000D01*
X148584123Y-90250000D01*
X148584123Y-92150000D01*
X148605042Y-92261173D01*
X148670745Y-92363279D01*
X148770997Y-92431778D01*
X148890000Y-92455877D01*
X150990000Y-92455877D01*
X151101173Y-92434958D01*
X151203279Y-92369255D01*
X151209104Y-92360729D01*
X151210745Y-92363279D01*
X151310997Y-92431778D01*
X151430000Y-92455877D01*
X153530000Y-92455877D01*
X153641173Y-92434958D01*
X153743279Y-92369255D01*
X153811778Y-92269003D01*
X153835877Y-92150000D01*
X153835877Y-90250000D01*
X153814958Y-90138827D01*
X153749255Y-90036721D01*
X153649003Y-89968222D01*
X153530000Y-89944123D01*
X151430000Y-89944123D01*
X151318827Y-89965042D01*
X151216721Y-90030745D01*
X151210896Y-90039271D01*
X151209255Y-90036721D01*
X151109003Y-89968222D01*
X150990000Y-89944123D01*
X148890000Y-89944123D01*
X148778827Y-89965042D01*
X148676721Y-90030745D01*
X148608222Y-90130997D01*
X148584123Y-90250000D01*
X136089000Y-90250000D01*
X136089000Y-89414000D01*
X146036000Y-89414000D01*
X146227342Y-89375940D01*
X146389553Y-89267553D01*
X147146106Y-88511000D01*
X153067339Y-88511000D01*
X153075683Y-88519359D01*
X153296129Y-88610896D01*
X153534824Y-88611104D01*
X153755429Y-88519952D01*
X153764397Y-88511000D01*
X177927000Y-88511000D01*
X178118342Y-88472940D01*
X178280553Y-88364553D01*
X179277106Y-87368000D01*
X181783894Y-87368000D01*
X182634000Y-88218106D01*
X182634000Y-101392893D01*
X175033447Y-108993447D01*
X174925060Y-109155658D01*
X174887000Y-109347000D01*
X174887000Y-113330893D01*
X173909894Y-114308000D01*
X167353661Y-114308000D01*
X167345317Y-114299641D01*
X167124871Y-114208104D01*
X166886176Y-114207896D01*
X166665571Y-114299048D01*
X166656603Y-114308000D01*
X162908661Y-114308000D01*
X162900317Y-114299641D01*
X162679871Y-114208104D01*
X162441176Y-114207896D01*
X162220571Y-114299048D01*
X162051641Y-114467683D01*
X161960104Y-114688129D01*
X161959896Y-114926824D01*
X162051048Y-115147429D01*
X162219683Y-115316359D01*
X162440129Y-115407896D01*
X162678824Y-115408104D01*
X162899429Y-115316952D01*
X162908397Y-115308000D01*
X166505000Y-115308000D01*
X166505000Y-120777000D01*
X166543060Y-120968342D01*
X166651447Y-121130553D01*
X168048446Y-122527553D01*
X168203193Y-122630952D01*
X168210658Y-122635940D01*
X168402000Y-122674000D01*
X170085339Y-122674000D01*
X170093683Y-122682359D01*
X170314129Y-122773896D01*
X170552824Y-122774104D01*
X170773429Y-122682952D01*
X170782397Y-122674000D01*
X174739782Y-122674000D01*
X174855129Y-122721896D01*
X175093824Y-122722104D01*
X175314429Y-122630952D01*
X175483359Y-122462317D01*
X175574896Y-122241871D01*
X175575104Y-122003176D01*
X175483952Y-121782571D01*
X175315317Y-121613641D01*
X175094871Y-121522104D01*
X174856176Y-121521896D01*
X174635571Y-121613048D01*
X174574512Y-121674000D01*
X170782661Y-121674000D01*
X170774317Y-121665641D01*
X170553871Y-121574104D01*
X170315176Y-121573896D01*
X170094571Y-121665048D01*
X170085603Y-121674000D01*
X168609107Y-121674000D01*
X167505000Y-120569894D01*
X167505000Y-116876275D01*
X178599671Y-116876275D01*
X178888319Y-117574857D01*
X179422331Y-118109802D01*
X180120409Y-118399669D01*
X180876275Y-118400329D01*
X181574857Y-118111681D01*
X182109802Y-117577669D01*
X182399669Y-116879591D01*
X182400329Y-116123725D01*
X182111681Y-115425143D01*
X181577669Y-114890198D01*
X180879591Y-114600331D01*
X180123725Y-114599671D01*
X179425143Y-114888319D01*
X178890198Y-115422331D01*
X178600331Y-116120409D01*
X178599671Y-116876275D01*
X167505000Y-116876275D01*
X167505000Y-115308000D01*
X174117000Y-115308000D01*
X174308342Y-115269940D01*
X174470553Y-115161553D01*
X175740553Y-113891554D01*
X175848940Y-113729342D01*
X175861738Y-113665000D01*
X175887000Y-113538000D01*
X175887000Y-110376275D01*
X178599671Y-110376275D01*
X178888319Y-111074857D01*
X179422331Y-111609802D01*
X180120409Y-111899669D01*
X180876275Y-111900329D01*
X181574857Y-111611681D01*
X182109802Y-111077669D01*
X182399669Y-110379591D01*
X182400329Y-109623725D01*
X182111681Y-108925143D01*
X181577669Y-108390198D01*
X180879591Y-108100331D01*
X180123725Y-108099671D01*
X179425143Y-108388319D01*
X178890198Y-108922331D01*
X178600331Y-109620409D01*
X178599671Y-110376275D01*
X175887000Y-110376275D01*
X175887000Y-109554106D01*
X183487553Y-101953554D01*
X183595940Y-101791342D01*
X183622053Y-101660060D01*
X183634000Y-101600000D01*
X183634000Y-88011000D01*
X183595940Y-87819658D01*
X183487553Y-87657447D01*
X182344553Y-86514447D01*
X182182342Y-86406060D01*
X181991000Y-86368000D01*
X179070000Y-86368000D01*
X178878658Y-86406060D01*
X178716447Y-86514447D01*
X177719894Y-87511000D01*
X153764661Y-87511000D01*
X153756317Y-87502641D01*
X153535871Y-87411104D01*
X153297176Y-87410896D01*
X153076571Y-87502048D01*
X153067603Y-87511000D01*
X146939000Y-87511000D01*
X146747658Y-87549060D01*
X146585447Y-87657447D01*
X145828894Y-88414000D01*
X113872000Y-88414000D01*
X113706097Y-88447000D01*
X113680658Y-88452060D01*
X113518447Y-88560447D01*
X112502447Y-89576447D01*
X112394060Y-89738658D01*
X112356000Y-89930000D01*
X105350000Y-89930000D01*
X105350000Y-85350000D01*
X184650000Y-85350000D01*
X184650000Y-129965527D01*
X184650000Y-129965527D01*
G37*
X184650000Y-129965527D02*
X184289705Y-131776854D01*
X183283199Y-133283198D01*
X181776854Y-134289705D01*
X179965527Y-134650000D01*
X110034473Y-134650000D01*
X108223146Y-134289705D01*
X106716802Y-133283199D01*
X105858349Y-131998432D01*
X168503861Y-131998432D01*
X168625397Y-132292572D01*
X168850245Y-132517812D01*
X169144172Y-132639861D01*
X169462432Y-132640139D01*
X169756572Y-132518603D01*
X169929103Y-132346372D01*
X170100245Y-132517812D01*
X170394172Y-132639861D01*
X170712432Y-132640139D01*
X171006572Y-132518603D01*
X171179103Y-132346372D01*
X171350245Y-132517812D01*
X171644172Y-132639861D01*
X171962432Y-132640139D01*
X172256572Y-132518603D01*
X172429103Y-132346372D01*
X172600245Y-132517812D01*
X172894172Y-132639861D01*
X173212432Y-132640139D01*
X173506572Y-132518603D01*
X173731812Y-132293755D01*
X173853861Y-131999828D01*
X173854139Y-131681568D01*
X173732603Y-131387428D01*
X173507755Y-131162188D01*
X173213828Y-131040139D01*
X172895568Y-131039861D01*
X172601428Y-131161397D01*
X172428897Y-131333628D01*
X172257755Y-131162188D01*
X171963828Y-131040139D01*
X171645568Y-131039861D01*
X171351428Y-131161397D01*
X171178897Y-131333628D01*
X171007755Y-131162188D01*
X170713828Y-131040139D01*
X170395568Y-131039861D01*
X170101428Y-131161397D01*
X169928897Y-131333628D01*
X169757755Y-131162188D01*
X169463828Y-131040139D01*
X169145568Y-131039861D01*
X168851428Y-131161397D01*
X168626188Y-131386245D01*
X168504139Y-131680172D01*
X168503861Y-131998432D01*
X105858349Y-131998432D01*
X105710295Y-131776854D01*
X105350000Y-129965527D01*
X105350000Y-128826755D01*
X121869377Y-128826755D01*
X121959032Y-128971730D01*
X122363516Y-129093752D01*
X122783908Y-129051697D01*
X122976968Y-128971730D01*
X123066623Y-128826755D01*
X122468000Y-128228132D01*
X121869377Y-128826755D01*
X105350000Y-128826755D01*
X105350000Y-119766824D01*
X110030896Y-119766824D01*
X110122048Y-119987429D01*
X110290683Y-120156359D01*
X110511129Y-120247896D01*
X110749824Y-120248104D01*
X110970429Y-120156952D01*
X111139359Y-119988317D01*
X111230896Y-119767871D01*
X111231104Y-119529176D01*
X111139952Y-119308571D01*
X111117000Y-119285579D01*
X111117000Y-118190106D01*
X111459107Y-117848000D01*
X118523339Y-117848000D01*
X118531683Y-117856359D01*
X118752129Y-117947896D01*
X118990824Y-117948104D01*
X119211429Y-117856952D01*
X119380359Y-117688317D01*
X119471896Y-117467871D01*
X119472104Y-117229176D01*
X119380952Y-117008571D01*
X119212317Y-116839641D01*
X118991871Y-116748104D01*
X118753176Y-116747896D01*
X118532571Y-116839048D01*
X118523603Y-116848000D01*
X111252000Y-116848000D01*
X111060658Y-116886060D01*
X110995686Y-116929474D01*
X110898447Y-116994446D01*
X110263447Y-117629447D01*
X110155060Y-117791658D01*
X110117000Y-117983000D01*
X110117000Y-119321268D01*
X110031104Y-119528129D01*
X110030896Y-119766824D01*
X105350000Y-119766824D01*
X105350000Y-94742000D01*
X105418000Y-94742000D01*
X105418000Y-113665000D01*
X105456060Y-113856342D01*
X105564447Y-114018553D01*
X107215447Y-115669554D01*
X107312686Y-115734526D01*
X107377658Y-115777940D01*
X107569000Y-115816000D01*
X120476894Y-115816000D01*
X126480893Y-121820000D01*
X120734669Y-121820000D01*
X120714452Y-121771071D01*
X120545817Y-121602141D01*
X120325371Y-121510604D01*
X120086676Y-121510396D01*
X119866071Y-121601548D01*
X119697141Y-121770183D01*
X119676455Y-121820000D01*
X117602000Y-121820000D01*
X117563094Y-121827879D01*
X117530319Y-121850273D01*
X117508839Y-121883654D01*
X117502000Y-121920000D01*
X117502000Y-127254000D01*
X117509879Y-127292906D01*
X117532273Y-127325681D01*
X117565654Y-127347161D01*
X117602000Y-127354000D01*
X121601451Y-127354000D01*
X121597658Y-127357793D01*
X121657243Y-127417378D01*
X121512270Y-127507032D01*
X121390248Y-127911516D01*
X121432303Y-128331908D01*
X121512270Y-128524968D01*
X121657245Y-128614623D01*
X122255868Y-128016000D01*
X122241726Y-128001858D01*
X122453858Y-127789726D01*
X122468000Y-127803868D01*
X122482143Y-127789726D01*
X122694275Y-128001858D01*
X122680132Y-128016000D01*
X123278755Y-128614623D01*
X123423730Y-128524968D01*
X123545752Y-128120484D01*
X123503697Y-127700092D01*
X123423730Y-127507032D01*
X123278757Y-127417378D01*
X123338342Y-127357793D01*
X123334549Y-127354000D01*
X124106000Y-127354000D01*
X124106000Y-131572000D01*
X124113879Y-131610906D01*
X124136273Y-131643681D01*
X124169654Y-131665161D01*
X124206000Y-131672000D01*
X132842000Y-131672000D01*
X132880906Y-131664121D01*
X132913681Y-131641727D01*
X132935161Y-131608346D01*
X132942000Y-131572000D01*
X132942000Y-122428000D01*
X149245552Y-122428000D01*
X149340703Y-122906354D01*
X149611669Y-123311883D01*
X150017198Y-123582849D01*
X150495552Y-123678000D01*
X150748448Y-123678000D01*
X151226802Y-123582849D01*
X151632331Y-123311883D01*
X151903297Y-122906354D01*
X151998448Y-122428000D01*
X151903297Y-121949646D01*
X151632331Y-121544117D01*
X151226802Y-121273151D01*
X150748448Y-121178000D01*
X150495552Y-121178000D01*
X150017198Y-121273151D01*
X149611669Y-121544117D01*
X149340703Y-121949646D01*
X149245552Y-122428000D01*
X132942000Y-122428000D01*
X132942000Y-121920000D01*
X132934121Y-121881094D01*
X132911727Y-121848319D01*
X132878346Y-121826839D01*
X132842000Y-121820000D01*
X127997400Y-121820000D01*
X127969952Y-121753571D01*
X127801317Y-121584641D01*
X127580871Y-121493104D01*
X127568200Y-121493093D01*
X125963107Y-119888000D01*
X149245552Y-119888000D01*
X149340703Y-120366354D01*
X149611669Y-120771883D01*
X150017198Y-121042849D01*
X150495552Y-121138000D01*
X150748448Y-121138000D01*
X151226802Y-121042849D01*
X151632331Y-120771883D01*
X151903297Y-120366354D01*
X151998448Y-119888000D01*
X151903297Y-119409646D01*
X151632331Y-119004117D01*
X151226802Y-118733151D01*
X150748448Y-118638000D01*
X150495552Y-118638000D01*
X150017198Y-118733151D01*
X149611669Y-119004117D01*
X149340703Y-119409646D01*
X149245552Y-119888000D01*
X125963107Y-119888000D01*
X121037553Y-114962447D01*
X120875342Y-114854060D01*
X120684000Y-114816000D01*
X107776107Y-114816000D01*
X107237363Y-114277256D01*
X128349757Y-114277256D01*
X128562445Y-114792000D01*
X128955928Y-115186170D01*
X129470301Y-115399757D01*
X130027256Y-115400243D01*
X130542000Y-115187555D01*
X130936170Y-114794072D01*
X131149757Y-114279699D01*
X131150243Y-113722744D01*
X130937555Y-113208000D01*
X130544072Y-112813830D01*
X130029699Y-112600243D01*
X129472744Y-112599757D01*
X128958000Y-112812445D01*
X128563830Y-113205928D01*
X128350243Y-113720301D01*
X128349757Y-114277256D01*
X107237363Y-114277256D01*
X106418000Y-113457894D01*
X106418000Y-110376275D01*
X107599671Y-110376275D01*
X107888319Y-111074857D01*
X108422331Y-111609802D01*
X109120409Y-111899669D01*
X109876275Y-111900329D01*
X110574857Y-111611681D01*
X111109802Y-111077669D01*
X111399669Y-110379591D01*
X111400329Y-109623725D01*
X111111681Y-108925143D01*
X110577669Y-108390198D01*
X109879591Y-108100331D01*
X109123725Y-108099671D01*
X108425143Y-108388319D01*
X107890198Y-108922331D01*
X107600331Y-109620409D01*
X107599671Y-110376275D01*
X106418000Y-110376275D01*
X106418000Y-103876275D01*
X107599671Y-103876275D01*
X107888319Y-104574857D01*
X108422331Y-105109802D01*
X109120409Y-105399669D01*
X109876275Y-105400329D01*
X110574857Y-105111681D01*
X111109802Y-104577669D01*
X111399669Y-103879591D01*
X111400329Y-103123725D01*
X111111681Y-102425143D01*
X110577669Y-101890198D01*
X109879591Y-101600331D01*
X109123725Y-101599671D01*
X108425143Y-101888319D01*
X107890198Y-102422331D01*
X107600331Y-103120409D01*
X107599671Y-103876275D01*
X106418000Y-103876275D01*
X106418000Y-94949106D01*
X107522107Y-93845000D01*
X109379339Y-93845000D01*
X109387683Y-93853359D01*
X109608129Y-93944896D01*
X109846824Y-93945104D01*
X110067429Y-93853952D01*
X110236359Y-93685317D01*
X110327896Y-93464871D01*
X110328104Y-93226176D01*
X110236952Y-93005571D01*
X110068317Y-92836641D01*
X109847871Y-92745104D01*
X109609176Y-92744896D01*
X109388571Y-92836048D01*
X109379603Y-92845000D01*
X107315000Y-92845000D01*
X107123658Y-92883060D01*
X106961446Y-92991447D01*
X105564447Y-94388447D01*
X105456060Y-94550658D01*
X105418000Y-94742000D01*
X105350000Y-94742000D01*
X105350000Y-89930000D01*
X112356000Y-89930000D01*
X112356000Y-95518000D01*
X112372589Y-95601397D01*
X112394060Y-95709342D01*
X112502447Y-95871553D01*
X113037894Y-96407000D01*
X112502447Y-96942447D01*
X112394060Y-97104658D01*
X112356000Y-97296000D01*
X112356000Y-108853000D01*
X112394060Y-109044342D01*
X112502447Y-109206553D01*
X113645447Y-110349553D01*
X113807658Y-110457940D01*
X113999000Y-110496000D01*
X122686195Y-110496000D01*
X122760097Y-110674857D01*
X123097367Y-111012717D01*
X123538258Y-111195791D01*
X124015647Y-111196207D01*
X124456857Y-111013903D01*
X124794717Y-110676633D01*
X124977791Y-110235742D01*
X124978207Y-109758353D01*
X124795903Y-109317143D01*
X124575147Y-109096000D01*
X125112123Y-109096000D01*
X125112123Y-110896000D01*
X125133042Y-111007173D01*
X125198745Y-111109279D01*
X125298997Y-111177778D01*
X125418000Y-111201877D01*
X127218000Y-111201877D01*
X127329173Y-111180958D01*
X127431279Y-111115255D01*
X127499778Y-111015003D01*
X127523877Y-110896000D01*
X127523877Y-110481824D01*
X147862896Y-110481824D01*
X147954048Y-110702429D01*
X148122683Y-110871359D01*
X148343129Y-110962896D01*
X148355801Y-110962907D01*
X150122000Y-112729106D01*
X150122000Y-116092123D01*
X149572000Y-116092123D01*
X149460827Y-116113042D01*
X149358721Y-116178745D01*
X149290222Y-116278997D01*
X149266123Y-116398000D01*
X149266123Y-118298000D01*
X149287042Y-118409173D01*
X149352745Y-118511279D01*
X149452997Y-118579778D01*
X149572000Y-118603877D01*
X151672000Y-118603877D01*
X151783173Y-118582958D01*
X151885279Y-118517255D01*
X151953778Y-118417003D01*
X151977877Y-118298000D01*
X151977877Y-116398000D01*
X151956958Y-116286827D01*
X151891255Y-116184721D01*
X151791003Y-116116222D01*
X151672000Y-116092123D01*
X151122000Y-116092123D01*
X151122000Y-112522000D01*
X151083940Y-112330658D01*
X150975553Y-112168447D01*
X149063094Y-110255988D01*
X149063104Y-110244176D01*
X148971952Y-110023571D01*
X148803317Y-109854641D01*
X148582871Y-109763104D01*
X148344176Y-109762896D01*
X148123571Y-109854048D01*
X147954641Y-110022683D01*
X147863104Y-110243129D01*
X147862896Y-110481824D01*
X127523877Y-110481824D01*
X127523877Y-109098824D01*
X135689896Y-109098824D01*
X135781048Y-109319429D01*
X135949683Y-109488359D01*
X136170129Y-109579896D01*
X136408824Y-109580104D01*
X136629429Y-109488952D01*
X136652421Y-109466000D01*
X149669500Y-109466000D01*
X149860842Y-109427940D01*
X150023053Y-109319553D01*
X150721553Y-108621054D01*
X150829940Y-108458842D01*
X150868000Y-108267500D01*
X150868000Y-105029000D01*
X150829940Y-104837658D01*
X150799726Y-104792440D01*
X150721553Y-104675446D01*
X150023053Y-103976947D01*
X149860842Y-103868560D01*
X149669500Y-103830500D01*
X148303661Y-103830500D01*
X148295317Y-103822141D01*
X148074871Y-103730604D01*
X147836176Y-103730396D01*
X147615571Y-103821548D01*
X147446641Y-103990183D01*
X147355104Y-104210629D01*
X147354896Y-104449324D01*
X147446048Y-104669929D01*
X147614683Y-104838859D01*
X147835129Y-104930396D01*
X148073824Y-104930604D01*
X148294429Y-104839452D01*
X148303397Y-104830500D01*
X149462394Y-104830500D01*
X149868000Y-105236107D01*
X149868000Y-108060393D01*
X149462394Y-108466000D01*
X136616732Y-108466000D01*
X136409871Y-108380104D01*
X136171176Y-108379896D01*
X135950571Y-108471048D01*
X135781641Y-108639683D01*
X135690104Y-108860129D01*
X135689896Y-109098824D01*
X127523877Y-109098824D01*
X127523877Y-109096000D01*
X127502958Y-108984827D01*
X127437255Y-108882721D01*
X127337003Y-108814222D01*
X127218000Y-108790123D01*
X125418000Y-108790123D01*
X125306827Y-108811042D01*
X125204721Y-108876745D01*
X125136222Y-108976997D01*
X125112123Y-109096000D01*
X124575147Y-109096000D01*
X124458633Y-108979283D01*
X124017742Y-108796209D01*
X123540353Y-108795793D01*
X123099143Y-108978097D01*
X122761283Y-109315367D01*
X122686278Y-109496000D01*
X114206106Y-109496000D01*
X113356000Y-108645894D01*
X113356000Y-107464755D01*
X133085377Y-107464755D01*
X133175032Y-107609730D01*
X133579516Y-107731752D01*
X133999908Y-107689697D01*
X134192968Y-107609730D01*
X134282623Y-107464755D01*
X133684000Y-106866132D01*
X133085377Y-107464755D01*
X113356000Y-107464755D01*
X113356000Y-106549516D01*
X132606248Y-106549516D01*
X132648303Y-106969908D01*
X132728270Y-107162968D01*
X132873245Y-107252623D01*
X133471868Y-106654000D01*
X133896132Y-106654000D01*
X134494755Y-107252623D01*
X134639730Y-107162968D01*
X134761752Y-106758484D01*
X134719697Y-106338092D01*
X134639730Y-106145032D01*
X134494755Y-106055377D01*
X133896132Y-106654000D01*
X133471868Y-106654000D01*
X132873245Y-106055377D01*
X132728270Y-106145032D01*
X132606248Y-106549516D01*
X113356000Y-106549516D01*
X113356000Y-105843245D01*
X133085377Y-105843245D01*
X133684000Y-106441868D01*
X134282623Y-105843245D01*
X134192968Y-105698270D01*
X133788484Y-105576248D01*
X133368092Y-105618303D01*
X133175032Y-105698270D01*
X133085377Y-105843245D01*
X113356000Y-105843245D01*
X113356000Y-104027256D01*
X123599757Y-104027256D01*
X123812445Y-104542000D01*
X124205928Y-104936170D01*
X124720301Y-105149757D01*
X125277256Y-105150243D01*
X125792000Y-104937555D01*
X126186170Y-104544072D01*
X126399757Y-104029699D01*
X126400243Y-103472744D01*
X126187555Y-102958000D01*
X125794072Y-102563830D01*
X125279699Y-102350243D01*
X124722744Y-102349757D01*
X124208000Y-102562445D01*
X123813830Y-102955928D01*
X123600243Y-103470301D01*
X123599757Y-104027256D01*
X113356000Y-104027256D01*
X113356000Y-101864318D01*
X132621816Y-101864318D01*
X132783155Y-102254789D01*
X133081640Y-102553795D01*
X133471828Y-102715815D01*
X133894318Y-102716184D01*
X134284789Y-102554845D01*
X134583795Y-102256360D01*
X134745815Y-101866172D01*
X134746184Y-101443682D01*
X134584845Y-101053211D01*
X134286360Y-100754205D01*
X133896172Y-100592185D01*
X133473682Y-100591816D01*
X133083211Y-100753155D01*
X132784205Y-101051640D01*
X132622185Y-101441828D01*
X132621816Y-101864318D01*
X113356000Y-101864318D01*
X113356000Y-99172000D01*
X113865000Y-99172000D01*
X113865000Y-99856674D01*
X113910672Y-99966937D01*
X113995064Y-100051328D01*
X114105327Y-100097000D01*
X114790000Y-100097000D01*
X114865000Y-100022000D01*
X114865000Y-99097000D01*
X115165000Y-99097000D01*
X115165000Y-100022000D01*
X115240000Y-100097000D01*
X115924673Y-100097000D01*
X116034936Y-100051328D01*
X116119328Y-99966937D01*
X116165000Y-99856674D01*
X116165000Y-99172000D01*
X116090000Y-99097000D01*
X115165000Y-99097000D01*
X114865000Y-99097000D01*
X113940000Y-99097000D01*
X113865000Y-99172000D01*
X113356000Y-99172000D01*
X113356000Y-98924470D01*
X116405000Y-98924470D01*
X116405000Y-98969530D01*
X116492539Y-99409616D01*
X116741827Y-99782703D01*
X117114914Y-100031991D01*
X117555000Y-100119530D01*
X117995086Y-100031991D01*
X118368173Y-99782703D01*
X118617461Y-99409616D01*
X118705000Y-98969530D01*
X118705000Y-98924470D01*
X118945000Y-98924470D01*
X118945000Y-98969530D01*
X119032539Y-99409616D01*
X119281827Y-99782703D01*
X119654914Y-100031991D01*
X120095000Y-100119530D01*
X120535086Y-100031991D01*
X120908173Y-99782703D01*
X121157461Y-99409616D01*
X121245000Y-98969530D01*
X121245000Y-98924470D01*
X121157461Y-98484384D01*
X120908173Y-98111297D01*
X120535086Y-97862009D01*
X120095000Y-97774470D01*
X119654914Y-97862009D01*
X119281827Y-98111297D01*
X119032539Y-98484384D01*
X118945000Y-98924470D01*
X118705000Y-98924470D01*
X118617461Y-98484384D01*
X118368173Y-98111297D01*
X117995086Y-97862009D01*
X117555000Y-97774470D01*
X117114914Y-97862009D01*
X116741827Y-98111297D01*
X116492539Y-98484384D01*
X116405000Y-98924470D01*
X113356000Y-98924470D01*
X113356000Y-98037326D01*
X113865000Y-98037326D01*
X113865000Y-98722000D01*
X113940000Y-98797000D01*
X114865000Y-98797000D01*
X114865000Y-97872000D01*
X115165000Y-97872000D01*
X115165000Y-98797000D01*
X116090000Y-98797000D01*
X116165000Y-98722000D01*
X116165000Y-98037326D01*
X116119328Y-97927063D01*
X116034936Y-97842672D01*
X115924673Y-97797000D01*
X115240000Y-97797000D01*
X115165000Y-97872000D01*
X114865000Y-97872000D01*
X114790000Y-97797000D01*
X114105327Y-97797000D01*
X113995064Y-97842672D01*
X113910672Y-97927063D01*
X113865000Y-98037326D01*
X113356000Y-98037326D01*
X113356000Y-97503106D01*
X113952106Y-96907000D01*
X113977518Y-96907000D01*
X114201827Y-97242703D01*
X114574914Y-97491991D01*
X115015000Y-97579530D01*
X115455086Y-97491991D01*
X115828173Y-97242703D01*
X116077461Y-96869616D01*
X116165000Y-96429530D01*
X116165000Y-96384470D01*
X116405000Y-96384470D01*
X116405000Y-96429530D01*
X116492539Y-96869616D01*
X116741827Y-97242703D01*
X117114914Y-97491991D01*
X117555000Y-97579530D01*
X117995086Y-97491991D01*
X118368173Y-97242703D01*
X118617461Y-96869616D01*
X118705000Y-96429530D01*
X118705000Y-96384470D01*
X118945000Y-96384470D01*
X118945000Y-96429530D01*
X119032539Y-96869616D01*
X119281827Y-97242703D01*
X119654914Y-97491991D01*
X120095000Y-97579530D01*
X120535086Y-97491991D01*
X120908173Y-97242703D01*
X121157461Y-96869616D01*
X121245000Y-96429530D01*
X121245000Y-96384470D01*
X121157461Y-95944384D01*
X120908173Y-95571297D01*
X120535086Y-95322009D01*
X120095000Y-95234470D01*
X119654914Y-95322009D01*
X119281827Y-95571297D01*
X119032539Y-95944384D01*
X118945000Y-96384470D01*
X118705000Y-96384470D01*
X118617461Y-95944384D01*
X118368173Y-95571297D01*
X117995086Y-95322009D01*
X117555000Y-95234470D01*
X117114914Y-95322009D01*
X116741827Y-95571297D01*
X116492539Y-95944384D01*
X116405000Y-96384470D01*
X116165000Y-96384470D01*
X116077461Y-95944384D01*
X115828173Y-95571297D01*
X115455086Y-95322009D01*
X115015000Y-95234470D01*
X114574914Y-95322009D01*
X114201827Y-95571297D01*
X113977518Y-95907000D01*
X113952106Y-95907000D01*
X113356000Y-95310894D01*
X113356000Y-90137106D01*
X114079106Y-89414000D01*
X135089000Y-89414000D01*
X135089000Y-96058339D01*
X135080641Y-96066683D01*
X134989104Y-96287129D01*
X134988896Y-96525824D01*
X135080048Y-96746429D01*
X135248683Y-96915359D01*
X135469129Y-97006896D01*
X135707824Y-97007104D01*
X135928429Y-96915952D01*
X136097359Y-96747317D01*
X136188896Y-96526871D01*
X136188973Y-96438432D01*
X141519861Y-96438432D01*
X141641397Y-96732572D01*
X141866245Y-96957812D01*
X142160172Y-97079861D01*
X142478432Y-97080139D01*
X142772572Y-96958603D01*
X142997812Y-96733755D01*
X143119861Y-96439828D01*
X143120000Y-96280000D01*
X148563552Y-96280000D01*
X148658703Y-96758354D01*
X148929669Y-97163883D01*
X149335198Y-97434849D01*
X149440000Y-97455696D01*
X149440000Y-100852000D01*
X149478060Y-101043342D01*
X149586447Y-101205553D01*
X150856446Y-102475553D01*
X151018658Y-102583940D01*
X151210000Y-102622000D01*
X173943000Y-102622000D01*
X174134342Y-102583940D01*
X174296553Y-102475553D01*
X175566553Y-101205554D01*
X175674940Y-101043342D01*
X175713000Y-100852000D01*
X175713000Y-100102877D01*
X176063000Y-100102877D01*
X176174173Y-100081958D01*
X176276279Y-100016255D01*
X176344778Y-99916003D01*
X176368877Y-99797000D01*
X176368877Y-98097000D01*
X176347958Y-97985827D01*
X176282255Y-97883721D01*
X176182003Y-97815222D01*
X176063000Y-97791123D01*
X174363000Y-97791123D01*
X174251827Y-97812042D01*
X174149721Y-97877745D01*
X174081222Y-97977997D01*
X174057123Y-98097000D01*
X174057123Y-99797000D01*
X174078042Y-99908173D01*
X174143745Y-100010279D01*
X174243997Y-100078778D01*
X174363000Y-100102877D01*
X174713000Y-100102877D01*
X174713000Y-100644893D01*
X173735894Y-101622000D01*
X151417107Y-101622000D01*
X150440000Y-100644894D01*
X150440000Y-98924470D01*
X158823000Y-98924470D01*
X158823000Y-98969530D01*
X158910539Y-99409616D01*
X159159827Y-99782703D01*
X159532914Y-100031991D01*
X159973000Y-100119530D01*
X160413086Y-100031991D01*
X160786173Y-99782703D01*
X161035461Y-99409616D01*
X161062532Y-99273518D01*
X161410313Y-99273518D01*
X161619203Y-99670643D01*
X161964165Y-99957600D01*
X162186484Y-100049672D01*
X162363000Y-100011483D01*
X162363000Y-99097000D01*
X162663000Y-99097000D01*
X162663000Y-100011483D01*
X162839516Y-100049672D01*
X163061835Y-99957600D01*
X163406797Y-99670643D01*
X163615687Y-99273518D01*
X163578190Y-99097000D01*
X162663000Y-99097000D01*
X162363000Y-99097000D01*
X161447810Y-99097000D01*
X161410313Y-99273518D01*
X161062532Y-99273518D01*
X161123000Y-98969530D01*
X161123000Y-98924470D01*
X163903000Y-98924470D01*
X163903000Y-98969530D01*
X163990539Y-99409616D01*
X164239827Y-99782703D01*
X164612914Y-100031991D01*
X165053000Y-100119530D01*
X165493086Y-100031991D01*
X165866173Y-99782703D01*
X166115461Y-99409616D01*
X166203000Y-98969530D01*
X166203000Y-98924470D01*
X166443000Y-98924470D01*
X166443000Y-98969530D01*
X166530539Y-99409616D01*
X166779827Y-99782703D01*
X167152914Y-100031991D01*
X167593000Y-100119530D01*
X168033086Y-100031991D01*
X168406173Y-99782703D01*
X168655461Y-99409616D01*
X168743000Y-98969530D01*
X168743000Y-98924470D01*
X168983000Y-98924470D01*
X168983000Y-98969530D01*
X169070539Y-99409616D01*
X169319827Y-99782703D01*
X169692914Y-100031991D01*
X170133000Y-100119530D01*
X170573086Y-100031991D01*
X170946173Y-99782703D01*
X171195461Y-99409616D01*
X171283000Y-98969530D01*
X171283000Y-98924470D01*
X171523000Y-98924470D01*
X171523000Y-98969530D01*
X171610539Y-99409616D01*
X171859827Y-99782703D01*
X172232914Y-100031991D01*
X172673000Y-100119530D01*
X173113086Y-100031991D01*
X173486173Y-99782703D01*
X173735461Y-99409616D01*
X173823000Y-98969530D01*
X173823000Y-98924470D01*
X173735461Y-98484384D01*
X173486173Y-98111297D01*
X173113086Y-97862009D01*
X172673000Y-97774470D01*
X172232914Y-97862009D01*
X171859827Y-98111297D01*
X171610539Y-98484384D01*
X171523000Y-98924470D01*
X171283000Y-98924470D01*
X171195461Y-98484384D01*
X170946173Y-98111297D01*
X170573086Y-97862009D01*
X170133000Y-97774470D01*
X169692914Y-97862009D01*
X169319827Y-98111297D01*
X169070539Y-98484384D01*
X168983000Y-98924470D01*
X168743000Y-98924470D01*
X168655461Y-98484384D01*
X168406173Y-98111297D01*
X168033086Y-97862009D01*
X167593000Y-97774470D01*
X167152914Y-97862009D01*
X166779827Y-98111297D01*
X166530539Y-98484384D01*
X166443000Y-98924470D01*
X166203000Y-98924470D01*
X166115461Y-98484384D01*
X165866173Y-98111297D01*
X165493086Y-97862009D01*
X165053000Y-97774470D01*
X164612914Y-97862009D01*
X164239827Y-98111297D01*
X163990539Y-98484384D01*
X163903000Y-98924470D01*
X161123000Y-98924470D01*
X161062533Y-98620482D01*
X161410313Y-98620482D01*
X161447810Y-98797000D01*
X162363000Y-98797000D01*
X162363000Y-97882517D01*
X162663000Y-97882517D01*
X162663000Y-98797000D01*
X163578190Y-98797000D01*
X163615687Y-98620482D01*
X163406797Y-98223357D01*
X163061835Y-97936400D01*
X162839516Y-97844328D01*
X162663000Y-97882517D01*
X162363000Y-97882517D01*
X162186484Y-97844328D01*
X161964165Y-97936400D01*
X161619203Y-98223357D01*
X161410313Y-98620482D01*
X161062533Y-98620482D01*
X161035461Y-98484384D01*
X160786173Y-98111297D01*
X160413086Y-97862009D01*
X159973000Y-97774470D01*
X159532914Y-97862009D01*
X159159827Y-98111297D01*
X158910539Y-98484384D01*
X158823000Y-98924470D01*
X150440000Y-98924470D01*
X150440000Y-97455696D01*
X150544802Y-97434849D01*
X150950331Y-97163883D01*
X151210000Y-96775261D01*
X151469669Y-97163883D01*
X151875198Y-97434849D01*
X152353552Y-97530000D01*
X152606448Y-97530000D01*
X153084802Y-97434849D01*
X153490331Y-97163883D01*
X153761297Y-96758354D01*
X153835667Y-96384470D01*
X158823000Y-96384470D01*
X158823000Y-96429530D01*
X158910539Y-96869616D01*
X159159827Y-97242703D01*
X159532914Y-97491991D01*
X159973000Y-97579530D01*
X160413086Y-97491991D01*
X160786173Y-97242703D01*
X161035461Y-96869616D01*
X161123000Y-96429530D01*
X161123000Y-96384470D01*
X161363000Y-96384470D01*
X161363000Y-96429530D01*
X161450539Y-96869616D01*
X161699827Y-97242703D01*
X162072914Y-97491991D01*
X162513000Y-97579530D01*
X162953086Y-97491991D01*
X163326173Y-97242703D01*
X163575461Y-96869616D01*
X163663000Y-96429530D01*
X163663000Y-96384470D01*
X163903000Y-96384470D01*
X163903000Y-96429530D01*
X163990539Y-96869616D01*
X164239827Y-97242703D01*
X164612914Y-97491991D01*
X165053000Y-97579530D01*
X165493086Y-97491991D01*
X165866173Y-97242703D01*
X166115461Y-96869616D01*
X166203000Y-96429530D01*
X166203000Y-96384470D01*
X166443000Y-96384470D01*
X166443000Y-96429530D01*
X166530539Y-96869616D01*
X166779827Y-97242703D01*
X167152914Y-97491991D01*
X167593000Y-97579530D01*
X168033086Y-97491991D01*
X168406173Y-97242703D01*
X168655461Y-96869616D01*
X168743000Y-96429530D01*
X168743000Y-96384470D01*
X168983000Y-96384470D01*
X168983000Y-96429530D01*
X169070539Y-96869616D01*
X169319827Y-97242703D01*
X169692914Y-97491991D01*
X170133000Y-97579530D01*
X170573086Y-97491991D01*
X170946173Y-97242703D01*
X171195461Y-96869616D01*
X171283000Y-96429530D01*
X171283000Y-96384470D01*
X171523000Y-96384470D01*
X171523000Y-96429530D01*
X171610539Y-96869616D01*
X171859827Y-97242703D01*
X172232914Y-97491991D01*
X172673000Y-97579530D01*
X173113086Y-97491991D01*
X173486173Y-97242703D01*
X173735461Y-96869616D01*
X173823000Y-96429530D01*
X173823000Y-96384470D01*
X174063000Y-96384470D01*
X174063000Y-96429530D01*
X174150539Y-96869616D01*
X174399827Y-97242703D01*
X174772914Y-97491991D01*
X175213000Y-97579530D01*
X175653086Y-97491991D01*
X176026173Y-97242703D01*
X176275461Y-96869616D01*
X176363000Y-96429530D01*
X176363000Y-96384470D01*
X176275461Y-95944384D01*
X176026173Y-95571297D01*
X175653086Y-95322009D01*
X175213000Y-95234470D01*
X174772914Y-95322009D01*
X174399827Y-95571297D01*
X174150539Y-95944384D01*
X174063000Y-96384470D01*
X173823000Y-96384470D01*
X173735461Y-95944384D01*
X173486173Y-95571297D01*
X173113086Y-95322009D01*
X172673000Y-95234470D01*
X172232914Y-95322009D01*
X171859827Y-95571297D01*
X171610539Y-95944384D01*
X171523000Y-96384470D01*
X171283000Y-96384470D01*
X171195461Y-95944384D01*
X170946173Y-95571297D01*
X170573086Y-95322009D01*
X170133000Y-95234470D01*
X169692914Y-95322009D01*
X169319827Y-95571297D01*
X169070539Y-95944384D01*
X168983000Y-96384470D01*
X168743000Y-96384470D01*
X168655461Y-95944384D01*
X168406173Y-95571297D01*
X168033086Y-95322009D01*
X167593000Y-95234470D01*
X167152914Y-95322009D01*
X166779827Y-95571297D01*
X166530539Y-95944384D01*
X166443000Y-96384470D01*
X166203000Y-96384470D01*
X166115461Y-95944384D01*
X165866173Y-95571297D01*
X165493086Y-95322009D01*
X165053000Y-95234470D01*
X164612914Y-95322009D01*
X164239827Y-95571297D01*
X163990539Y-95944384D01*
X163903000Y-96384470D01*
X163663000Y-96384470D01*
X163575461Y-95944384D01*
X163326173Y-95571297D01*
X162953086Y-95322009D01*
X162513000Y-95234470D01*
X162072914Y-95322009D01*
X161699827Y-95571297D01*
X161450539Y-95944384D01*
X161363000Y-96384470D01*
X161123000Y-96384470D01*
X161035461Y-95944384D01*
X160786173Y-95571297D01*
X160413086Y-95322009D01*
X159973000Y-95234470D01*
X159532914Y-95322009D01*
X159159827Y-95571297D01*
X158910539Y-95944384D01*
X158823000Y-96384470D01*
X153835667Y-96384470D01*
X153856448Y-96280000D01*
X153761297Y-95801646D01*
X153490331Y-95396117D01*
X153084802Y-95125151D01*
X152606448Y-95030000D01*
X152353552Y-95030000D01*
X151875198Y-95125151D01*
X151469669Y-95396117D01*
X151210000Y-95784739D01*
X150950331Y-95396117D01*
X150544802Y-95125151D01*
X150066448Y-95030000D01*
X149813552Y-95030000D01*
X149335198Y-95125151D01*
X148929669Y-95396117D01*
X148658703Y-95801646D01*
X148563552Y-96280000D01*
X143120000Y-96280000D01*
X143120139Y-96121568D01*
X142998603Y-95827428D01*
X142773755Y-95602188D01*
X142479828Y-95480139D01*
X142161568Y-95479861D01*
X141867428Y-95601397D01*
X141642188Y-95826245D01*
X141520139Y-96120172D01*
X141519861Y-96438432D01*
X136188973Y-96438432D01*
X136189104Y-96288176D01*
X136097952Y-96067571D01*
X136089000Y-96058603D01*
X136089000Y-93898432D01*
X144059861Y-93898432D01*
X144181397Y-94192572D01*
X144406245Y-94417812D01*
X144700172Y-94539861D01*
X145018432Y-94540139D01*
X145312572Y-94418603D01*
X145537812Y-94193755D01*
X145659861Y-93899828D01*
X145660000Y-93740000D01*
X148563552Y-93740000D01*
X148658703Y-94218354D01*
X148929669Y-94623883D01*
X149335198Y-94894849D01*
X149813552Y-94990000D01*
X150066448Y-94990000D01*
X150544802Y-94894849D01*
X150950331Y-94623883D01*
X151210000Y-94235261D01*
X151469669Y-94623883D01*
X151875198Y-94894849D01*
X152353552Y-94990000D01*
X152606448Y-94990000D01*
X153084802Y-94894849D01*
X153490331Y-94623883D01*
X153761297Y-94218354D01*
X153856448Y-93740000D01*
X153761297Y-93261646D01*
X153490331Y-92856117D01*
X153084802Y-92585151D01*
X152606448Y-92490000D01*
X152353552Y-92490000D01*
X151875198Y-92585151D01*
X151469669Y-92856117D01*
X151210000Y-93244739D01*
X150950331Y-92856117D01*
X150544802Y-92585151D01*
X150066448Y-92490000D01*
X149813552Y-92490000D01*
X149335198Y-92585151D01*
X148929669Y-92856117D01*
X148658703Y-93261646D01*
X148563552Y-93740000D01*
X145660000Y-93740000D01*
X145660139Y-93581568D01*
X145538603Y-93287428D01*
X145313755Y-93062188D01*
X145019828Y-92940139D01*
X144701568Y-92939861D01*
X144407428Y-93061397D01*
X144182188Y-93286245D01*
X144060139Y-93580172D01*
X144059861Y-93898432D01*
X136089000Y-93898432D01*
X136089000Y-91818948D01*
X141913184Y-91818948D01*
X141970088Y-91936807D01*
X142278687Y-92014626D01*
X142593576Y-91968426D01*
X142669912Y-91936807D01*
X142726816Y-91818948D01*
X142320000Y-91412132D01*
X141913184Y-91818948D01*
X136089000Y-91818948D01*
X136089000Y-91158687D01*
X141505374Y-91158687D01*
X141551574Y-91473576D01*
X141583193Y-91549912D01*
X141701052Y-91606816D01*
X142107868Y-91200000D01*
X142532132Y-91200000D01*
X142938948Y-91606816D01*
X143056807Y-91549912D01*
X143134626Y-91241313D01*
X143088426Y-90926424D01*
X143056807Y-90850088D01*
X142938948Y-90793184D01*
X142532132Y-91200000D01*
X142107868Y-91200000D01*
X141701052Y-90793184D01*
X141583193Y-90850088D01*
X141505374Y-91158687D01*
X136089000Y-91158687D01*
X136089000Y-90581052D01*
X141913184Y-90581052D01*
X142320000Y-90987868D01*
X142726816Y-90581052D01*
X142669912Y-90463193D01*
X142361313Y-90385374D01*
X142046424Y-90431574D01*
X141970088Y-90463193D01*
X141913184Y-90581052D01*
X136089000Y-90581052D01*
X136089000Y-90250000D01*
X148584123Y-90250000D01*
X148584123Y-92150000D01*
X148605042Y-92261173D01*
X148670745Y-92363279D01*
X148770997Y-92431778D01*
X148890000Y-92455877D01*
X150990000Y-92455877D01*
X151101173Y-92434958D01*
X151203279Y-92369255D01*
X151209104Y-92360729D01*
X151210745Y-92363279D01*
X151310997Y-92431778D01*
X151430000Y-92455877D01*
X153530000Y-92455877D01*
X153641173Y-92434958D01*
X153743279Y-92369255D01*
X153811778Y-92269003D01*
X153835877Y-92150000D01*
X153835877Y-90250000D01*
X153814958Y-90138827D01*
X153749255Y-90036721D01*
X153649003Y-89968222D01*
X153530000Y-89944123D01*
X151430000Y-89944123D01*
X151318827Y-89965042D01*
X151216721Y-90030745D01*
X151210896Y-90039271D01*
X151209255Y-90036721D01*
X151109003Y-89968222D01*
X150990000Y-89944123D01*
X148890000Y-89944123D01*
X148778827Y-89965042D01*
X148676721Y-90030745D01*
X148608222Y-90130997D01*
X148584123Y-90250000D01*
X136089000Y-90250000D01*
X136089000Y-89414000D01*
X146036000Y-89414000D01*
X146227342Y-89375940D01*
X146389553Y-89267553D01*
X147146106Y-88511000D01*
X153067339Y-88511000D01*
X153075683Y-88519359D01*
X153296129Y-88610896D01*
X153534824Y-88611104D01*
X153755429Y-88519952D01*
X153764397Y-88511000D01*
X177927000Y-88511000D01*
X178118342Y-88472940D01*
X178280553Y-88364553D01*
X179277106Y-87368000D01*
X181783894Y-87368000D01*
X182634000Y-88218106D01*
X182634000Y-101392893D01*
X175033447Y-108993447D01*
X174925060Y-109155658D01*
X174887000Y-109347000D01*
X174887000Y-113330893D01*
X173909894Y-114308000D01*
X167353661Y-114308000D01*
X167345317Y-114299641D01*
X167124871Y-114208104D01*
X166886176Y-114207896D01*
X166665571Y-114299048D01*
X166656603Y-114308000D01*
X162908661Y-114308000D01*
X162900317Y-114299641D01*
X162679871Y-114208104D01*
X162441176Y-114207896D01*
X162220571Y-114299048D01*
X162051641Y-114467683D01*
X161960104Y-114688129D01*
X161959896Y-114926824D01*
X162051048Y-115147429D01*
X162219683Y-115316359D01*
X162440129Y-115407896D01*
X162678824Y-115408104D01*
X162899429Y-115316952D01*
X162908397Y-115308000D01*
X166505000Y-115308000D01*
X166505000Y-120777000D01*
X166543060Y-120968342D01*
X166651447Y-121130553D01*
X168048446Y-122527553D01*
X168203193Y-122630952D01*
X168210658Y-122635940D01*
X168402000Y-122674000D01*
X170085339Y-122674000D01*
X170093683Y-122682359D01*
X170314129Y-122773896D01*
X170552824Y-122774104D01*
X170773429Y-122682952D01*
X170782397Y-122674000D01*
X174739782Y-122674000D01*
X174855129Y-122721896D01*
X175093824Y-122722104D01*
X175314429Y-122630952D01*
X175483359Y-122462317D01*
X175574896Y-122241871D01*
X175575104Y-122003176D01*
X175483952Y-121782571D01*
X175315317Y-121613641D01*
X175094871Y-121522104D01*
X174856176Y-121521896D01*
X174635571Y-121613048D01*
X174574512Y-121674000D01*
X170782661Y-121674000D01*
X170774317Y-121665641D01*
X170553871Y-121574104D01*
X170315176Y-121573896D01*
X170094571Y-121665048D01*
X170085603Y-121674000D01*
X168609107Y-121674000D01*
X167505000Y-120569894D01*
X167505000Y-116876275D01*
X178599671Y-116876275D01*
X178888319Y-117574857D01*
X179422331Y-118109802D01*
X180120409Y-118399669D01*
X180876275Y-118400329D01*
X181574857Y-118111681D01*
X182109802Y-117577669D01*
X182399669Y-116879591D01*
X182400329Y-116123725D01*
X182111681Y-115425143D01*
X181577669Y-114890198D01*
X180879591Y-114600331D01*
X180123725Y-114599671D01*
X179425143Y-114888319D01*
X178890198Y-115422331D01*
X178600331Y-116120409D01*
X178599671Y-116876275D01*
X167505000Y-116876275D01*
X167505000Y-115308000D01*
X174117000Y-115308000D01*
X174308342Y-115269940D01*
X174470553Y-115161553D01*
X175740553Y-113891554D01*
X175848940Y-113729342D01*
X175861738Y-113665000D01*
X175887000Y-113538000D01*
X175887000Y-110376275D01*
X178599671Y-110376275D01*
X178888319Y-111074857D01*
X179422331Y-111609802D01*
X180120409Y-111899669D01*
X180876275Y-111900329D01*
X181574857Y-111611681D01*
X182109802Y-111077669D01*
X182399669Y-110379591D01*
X182400329Y-109623725D01*
X182111681Y-108925143D01*
X181577669Y-108390198D01*
X180879591Y-108100331D01*
X180123725Y-108099671D01*
X179425143Y-108388319D01*
X178890198Y-108922331D01*
X178600331Y-109620409D01*
X178599671Y-110376275D01*
X175887000Y-110376275D01*
X175887000Y-109554106D01*
X183487553Y-101953554D01*
X183595940Y-101791342D01*
X183622053Y-101660060D01*
X183634000Y-101600000D01*
X183634000Y-88011000D01*
X183595940Y-87819658D01*
X183487553Y-87657447D01*
X182344553Y-86514447D01*
X182182342Y-86406060D01*
X181991000Y-86368000D01*
X179070000Y-86368000D01*
X178878658Y-86406060D01*
X178716447Y-86514447D01*
X177719894Y-87511000D01*
X153764661Y-87511000D01*
X153756317Y-87502641D01*
X153535871Y-87411104D01*
X153297176Y-87410896D01*
X153076571Y-87502048D01*
X153067603Y-87511000D01*
X146939000Y-87511000D01*
X146747658Y-87549060D01*
X146585447Y-87657447D01*
X145828894Y-88414000D01*
X113872000Y-88414000D01*
X113706097Y-88447000D01*
X113680658Y-88452060D01*
X113518447Y-88560447D01*
X112502447Y-89576447D01*
X112394060Y-89738658D01*
X112356000Y-89930000D01*
X105350000Y-89930000D01*
X105350000Y-85350000D01*
X184650000Y-85350000D01*
X184650000Y-129965527D01*
M02*
