solid OpenSCAD_Model
  facet normal -1 0 0
    outer loop
      vertex 0 3.73473 7.26127
      vertex 0 4.18882 153.364
      vertex 0 4.18882 5.86373
    endloop
  endfacet
  facet normal -1 0 0
    outer loop
      vertex 0 3.73473 7.26127
      vertex 0 3 152.5
      vertex 0 4.18882 153.364
    endloop
  endfacet
  facet normal -1 0 0
    outer loop
      vertex 0 2.26527 7.26127
      vertex 0 3 152.5
      vertex 0 3.73473 7.26127
    endloop
  endfacet
  facet normal -1 0 0
    outer loop
      vertex 0 1.81118 153.364
      vertex 0 2.26527 7.26127
      vertex 0 1.81118 5.86373
    endloop
  endfacet
  facet normal -1 0 0
    outer loop
      vertex 0 2.26527 7.26127
      vertex 0 1.81118 153.364
      vertex 0 3 152.5
    endloop
  endfacet
  facet normal -1 0 0
    outer loop
      vertex 0 4.18882 153.364
      vertex 0 6 0
      vertex 0 4.18882 5.86373
    endloop
  endfacet
  facet normal -1 0 0
    outer loop
      vertex 0 6 0
      vertex 0 3 5
      vertex 0 4.18882 5.86373
    endloop
  endfacet
  facet normal -1 0 0
    outer loop
      vertex 0 0 0
      vertex 0 3 5
      vertex 0 6 0
    endloop
  endfacet
  facet normal -1 -0 0
    outer loop
      vertex 0 1.81118 5.86373
      vertex 0 0 0
      vertex 0 1.81118 153.364
    endloop
  endfacet
  facet normal -1 -0 0
    outer loop
      vertex 0 3 5
      vertex 0 0 0
      vertex 0 1.81118 5.86373
    endloop
  endfacet
  facet normal -1 0 0
    outer loop
      vertex 0 6 0
      vertex 0 4.18882 153.364
      vertex 0 6 160
    endloop
  endfacet
  facet normal -1 0 0
    outer loop
      vertex 0 3.73473 154.761
      vertex 0 6 160
      vertex 0 4.18882 153.364
    endloop
  endfacet
  facet normal -1 0 0
    outer loop
      vertex 0 2.26527 154.761
      vertex 0 6 160
      vertex 0 3.73473 154.761
    endloop
  endfacet
  facet normal -1 0 0
    outer loop
      vertex 0 2.26527 154.761
      vertex 0 0 160
      vertex 0 6 160
    endloop
  endfacet
  facet normal -1 0 0
    outer loop
      vertex 0 1.81118 153.364
      vertex 0 0 160
      vertex 0 2.26527 154.761
    endloop
  endfacet
  facet normal -1 0 0
    outer loop
      vertex 0 0 160
      vertex 0 1.81118 153.364
      vertex 0 0 0
    endloop
  endfacet
  facet normal 0 0 1
    outer loop
      vertex 15 6 160
      vertex 10.5 3 160
      vertex 15 0 160
    endloop
  endfacet
  facet normal 0 0 1
    outer loop
      vertex 15 6 160
      vertex 9.92705 4.76336 160
      vertex 10.5 3 160
    endloop
  endfacet
  facet normal 0 0 1
    outer loop
      vertex 15 6 160
      vertex 8.42705 5.85317 160
      vertex 9.92705 4.76336 160
    endloop
  endfacet
  facet normal 0 0 1
    outer loop
      vertex 15 6 160
      vertex 6.57295 5.85317 160
      vertex 8.42705 5.85317 160
    endloop
  endfacet
  facet normal 0 0 1
    outer loop
      vertex 5.07295 4.76336 160
      vertex 0 6 160
      vertex 4.5 3 160
    endloop
  endfacet
  facet normal 0 0 1
    outer loop
      vertex 6.57295 5.85317 160
      vertex 0 6 160
      vertex 5.07295 4.76336 160
    endloop
  endfacet
  facet normal -0 0 1
    outer loop
      vertex 0 6 160
      vertex 6.57295 5.85317 160
      vertex 15 6 160
    endloop
  endfacet
  facet normal -0 0 1
    outer loop
      vertex 9.92705 1.23664 160
      vertex 15 0 160
      vertex 10.5 3 160
    endloop
  endfacet
  facet normal -0 0 1
    outer loop
      vertex 8.42705 0.14683 160
      vertex 15 0 160
      vertex 9.92705 1.23664 160
    endloop
  endfacet
  facet normal -0 0 1
    outer loop
      vertex 6.57295 0.14683 160
      vertex 15 0 160
      vertex 8.42705 0.14683 160
    endloop
  endfacet
  facet normal 0 0 1
    outer loop
      vertex 0 0 160
      vertex 4.5 3 160
      vertex 0 6 160
    endloop
  endfacet
  facet normal 0 0 1
    outer loop
      vertex 6.57295 0.14683 160
      vertex 0 0 160
      vertex 15 0 160
    endloop
  endfacet
  facet normal 0 0 1
    outer loop
      vertex 5.07295 1.23664 160
      vertex 0 0 160
      vertex 6.57295 0.14683 160
    endloop
  endfacet
  facet normal 0 0 1
    outer loop
      vertex 4.5 3 160
      vertex 0 0 160
      vertex 5.07295 1.23664 160
    endloop
  endfacet
  facet normal 1 -0 0
    outer loop
      vertex 15 0 160
      vertex 15 6 0
      vertex 15 6 160
    endloop
  endfacet
  facet normal 1 0 0
    outer loop
      vertex 15 6 0
      vertex 15 0 160
      vertex 15 0 0
    endloop
  endfacet
  facet normal 0 1 0
    outer loop
      vertex 15 6 160
      vertex 10.25 6 156.5
      vertex 0 6 160
    endloop
  endfacet
  facet normal 0 1 0
    outer loop
      vertex 15 6 160
      vertex 10.25 6 151
      vertex 10.25 6 156.5
    endloop
  endfacet
  facet normal 0 1 0
    outer loop
      vertex 10.25 6 151
      vertex 10.25 6 9
      vertex 4.75 6 151
    endloop
  endfacet
  facet normal 0 1 0
    outer loop
      vertex 15 6 160
      vertex 10.25 6 9
      vertex 10.25 6 151
    endloop
  endfacet
  facet normal 0 1 -0
    outer loop
      vertex 15 6 0
      vertex 10.25 6 9
      vertex 15 6 160
    endloop
  endfacet
  facet normal 0 1 0
    outer loop
      vertex 10.25 6 3.5
      vertex 15 6 0
      vertex 4.75 6 3.5
    endloop
  endfacet
  facet normal 0 1 0
    outer loop
      vertex 10.25 6 9
      vertex 15 6 0
      vertex 10.25 6 3.5
    endloop
  endfacet
  facet normal 0 1 -0
    outer loop
      vertex 4.75 6 156.5
      vertex 0 6 160
      vertex 10.25 6 156.5
    endloop
  endfacet
  facet normal 0 1 -0
    outer loop
      vertex 4.75 6 151
      vertex 0 6 160
      vertex 4.75 6 156.5
    endloop
  endfacet
  facet normal 0 1 0
    outer loop
      vertex 4.75 6 9
      vertex 4.75 6 151
      vertex 10.25 6 9
    endloop
  endfacet
  facet normal 0 1 0
    outer loop
      vertex 4.75 6 151
      vertex 4.75 6 9
      vertex 0 6 160
    endloop
  endfacet
  facet normal 0 1 0
    outer loop
      vertex 0 6 0
      vertex 4.75 6 9
      vertex 4.75 6 3.5
    endloop
  endfacet
  facet normal 0 1 0
    outer loop
      vertex 4.75 6 9
      vertex 0 6 0
      vertex 0 6 160
    endloop
  endfacet
  facet normal 0 1 0
    outer loop
      vertex 0 6 0
      vertex 4.75 6 3.5
      vertex 15 6 0
    endloop
  endfacet
  facet normal 0 0 -1
    outer loop
      vertex 0 0 0
      vertex 15 6 0
      vertex 15 0 0
    endloop
  endfacet
  facet normal -0 0 -1
    outer loop
      vertex 15 6 0
      vertex 0 0 0
      vertex 0 6 0
    endloop
  endfacet
  facet normal 0 -1 0
    outer loop
      vertex 0 0 160
      vertex 4.75 0 156.5
      vertex 15 0 160
    endloop
  endfacet
  facet normal 0 -1 0
    outer loop
      vertex 0 0 160
      vertex 4.75 0 151
      vertex 4.75 0 156.5
    endloop
  endfacet
  facet normal 0 -1 0
    outer loop
      vertex 4.75 0 151
      vertex 6.5 0 147.5
      vertex 10.25 0 151
    endloop
  endfacet
  facet normal 0 -1 0
    outer loop
      vertex 4.75 0 9
      vertex 4.75 0 151
      vertex 0 0 160
    endloop
  endfacet
  facet normal 0 -1 0
    outer loop
      vertex 4.75 0 151
      vertex 4.75 0 9
      vertex 6.5 0 147.5
    endloop
  endfacet
  facet normal 0 -1 -0
    outer loop
      vertex 6.5 0 12.5
      vertex 4.75 0 9
      vertex 8.5 0 12.5
    endloop
  endfacet
  facet normal 0 -1 -0
    outer loop
      vertex 6.5 0 147.5
      vertex 4.75 0 9
      vertex 6.5 0 12.5
    endloop
  endfacet
  facet normal 0 -1 0
    outer loop
      vertex 0 0 0
      vertex 4.75 0 9
      vertex 0 0 160
    endloop
  endfacet
  facet normal 0 -1 -0
    outer loop
      vertex 4.75 0 3.5
      vertex 0 0 0
      vertex 10.25 0 3.5
    endloop
  endfacet
  facet normal 0 -1 -0
    outer loop
      vertex 4.75 0 9
      vertex 0 0 0
      vertex 4.75 0 3.5
    endloop
  endfacet
  facet normal 0 -1 0
    outer loop
      vertex 10.25 0 156.5
      vertex 15 0 160
      vertex 4.75 0 156.5
    endloop
  endfacet
  facet normal 0 -1 0
    outer loop
      vertex 10.25 0 151
      vertex 15 0 160
      vertex 10.25 0 156.5
    endloop
  endfacet
  facet normal 0 -1 0
    outer loop
      vertex 8.5 0 147.5
      vertex 10.25 0 151
      vertex 6.5 0 147.5
    endloop
  endfacet
  facet normal 0 -1 0
    outer loop
      vertex 10.25 0 9
      vertex 10.25 0 151
      vertex 8.5 0 147.5
    endloop
  endfacet
  facet normal 0 -1 0
    outer loop
      vertex 10.25 0 9
      vertex 8.5 0 147.5
      vertex 8.5 0 12.5
    endloop
  endfacet
  facet normal 0 -1 0
    outer loop
      vertex 10.25 0 9
      vertex 8.5 0 12.5
      vertex 4.75 0 9
    endloop
  endfacet
  facet normal 0 -1 0
    outer loop
      vertex 10.25 0 151
      vertex 10.25 0 9
      vertex 15 0 160
    endloop
  endfacet
  facet normal 0 -1 0
    outer loop
      vertex 15 0 0
      vertex 10.25 0 9
      vertex 10.25 0 3.5
    endloop
  endfacet
  facet normal 0 -1 0
    outer loop
      vertex 10.25 0 9
      vertex 15 0 0
      vertex 15 0 160
    endloop
  endfacet
  facet normal 0 -1 0
    outer loop
      vertex 15 0 0
      vertex 10.25 0 3.5
      vertex 0 0 0
    endloop
  endfacet
  facet normal -1 0 0
    outer loop
      vertex 0 0 163.5
      vertex 0 6 168.5
      vertex 0 6 163.5
    endloop
  endfacet
  facet normal -1 -0 0
    outer loop
      vertex 0 6 168.5
      vertex 0 0 163.5
      vertex 0 0 168.5
    endloop
  endfacet
  facet normal -0 0 1
    outer loop
      vertex 0 6 168.5
      vertex 15 0 168.5
      vertex 15 6 168.5
    endloop
  endfacet
  facet normal 0 0 1
    outer loop
      vertex 15 0 168.5
      vertex 0 6 168.5
      vertex 0 0 168.5
    endloop
  endfacet
  facet normal 1 -0 0
    outer loop
      vertex 15 0 168.5
      vertex 15 6 163.5
      vertex 15 6 168.5
    endloop
  endfacet
  facet normal 1 0 0
    outer loop
      vertex 15 6 163.5
      vertex 15 0 168.5
      vertex 15 0 163.5
    endloop
  endfacet
  facet normal 0 1 -0
    outer loop
      vertex 15 6 163.5
      vertex 0 6 168.5
      vertex 15 6 168.5
    endloop
  endfacet
  facet normal 0 1 0
    outer loop
      vertex 0 6 168.5
      vertex 15 6 163.5
      vertex 0 6 163.5
    endloop
  endfacet
  facet normal 0 0 -1
    outer loop
      vertex 15 0 163.5
      vertex 10.5 3 163.5
      vertex 15 6 163.5
    endloop
  endfacet
  facet normal 0 0 -1
    outer loop
      vertex 15 0 163.5
      vertex 9.92705 1.23664 163.5
      vertex 10.5 3 163.5
    endloop
  endfacet
  facet normal 0 0 -1
    outer loop
      vertex 15 0 163.5
      vertex 8.42705 0.14683 163.5
      vertex 9.92705 1.23664 163.5
    endloop
  endfacet
  facet normal 0 0 -1
    outer loop
      vertex 15 0 163.5
      vertex 6.57295 0.14683 163.5
      vertex 8.42705 0.14683 163.5
    endloop
  endfacet
  facet normal -0 0 -1
    outer loop
      vertex 5.07295 1.23664 163.5
      vertex 0 0 163.5
      vertex 4.5 3 163.5
    endloop
  endfacet
  facet normal -0 0 -1
    outer loop
      vertex 6.57295 0.14683 163.5
      vertex 0 0 163.5
      vertex 5.07295 1.23664 163.5
    endloop
  endfacet
  facet normal 0 0 -1
    outer loop
      vertex 0 0 163.5
      vertex 6.57295 0.14683 163.5
      vertex 15 0 163.5
    endloop
  endfacet
  facet normal 0 0 -1
    outer loop
      vertex 9.92705 4.76336 163.5
      vertex 15 6 163.5
      vertex 10.5 3 163.5
    endloop
  endfacet
  facet normal 0 0 -1
    outer loop
      vertex 8.42705 5.85317 163.5
      vertex 15 6 163.5
      vertex 9.92705 4.76336 163.5
    endloop
  endfacet
  facet normal 0 0 -1
    outer loop
      vertex 6.57295 5.85317 163.5
      vertex 15 6 163.5
      vertex 8.42705 5.85317 163.5
    endloop
  endfacet
  facet normal 0 0 -1
    outer loop
      vertex 0 6 163.5
      vertex 4.5 3 163.5
      vertex 0 0 163.5
    endloop
  endfacet
  facet normal 0 0 -1
    outer loop
      vertex 6.57295 5.85317 163.5
      vertex 0 6 163.5
      vertex 15 6 163.5
    endloop
  endfacet
  facet normal 0 0 -1
    outer loop
      vertex 5.07295 4.76336 163.5
      vertex 0 6 163.5
      vertex 6.57295 5.85317 163.5
    endloop
  endfacet
  facet normal 0 0 -1
    outer loop
      vertex 4.5 3 163.5
      vertex 0 6 163.5
      vertex 5.07295 4.76336 163.5
    endloop
  endfacet
  facet normal 0 -1 0
    outer loop
      vertex 0 0 163.5
      vertex 15 0 168.5
      vertex 0 0 168.5
    endloop
  endfacet
  facet normal 0 -1 -0
    outer loop
      vertex 15 0 168.5
      vertex 0 0 163.5
      vertex 15 0 163.5
    endloop
  endfacet
  facet normal 0.951056 0.309017 0
    outer loop
      vertex 10.5 3 163.5
      vertex 9.92705 4.76336 160
      vertex 9.92705 4.76336 163.5
    endloop
  endfacet
  facet normal 0.951056 0.309017 0
    outer loop
      vertex 9.92705 4.76336 160
      vertex 10.5 3 163.5
      vertex 10.5 3 160
    endloop
  endfacet
  facet normal -0.951057 -0.309017 0
    outer loop
      vertex 5.07295 1.23664 160
      vertex 4.5 3 163.5
      vertex 4.5 3 160
    endloop
  endfacet
  facet normal -0.951057 -0.309017 0
    outer loop
      vertex 4.5 3 163.5
      vertex 5.07295 1.23664 160
      vertex 5.07295 1.23664 163.5
    endloop
  endfacet
  facet normal 0 1 -0
    outer loop
      vertex 8.42705 5.85317 160
      vertex 6.57295 5.85317 163.5
      vertex 8.42705 5.85317 163.5
    endloop
  endfacet
  facet normal 0 1 0
    outer loop
      vertex 6.57295 5.85317 163.5
      vertex 8.42705 5.85317 160
      vertex 6.57295 5.85317 160
    endloop
  endfacet
  facet normal 0.587785 0.809017 -0
    outer loop
      vertex 9.92705 4.76336 160
      vertex 8.42705 5.85317 163.5
      vertex 9.92705 4.76336 163.5
    endloop
  endfacet
  facet normal 0.587785 0.809017 0
    outer loop
      vertex 8.42705 5.85317 163.5
      vertex 9.92705 4.76336 160
      vertex 8.42705 5.85317 160
    endloop
  endfacet
  facet normal -0.587785 0.809017 0
    outer loop
      vertex 6.57295 5.85317 160
      vertex 5.07295 4.76336 163.5
      vertex 6.57295 5.85317 163.5
    endloop
  endfacet
  facet normal -0.587785 0.809017 0
    outer loop
      vertex 5.07295 4.76336 163.5
      vertex 6.57295 5.85317 160
      vertex 5.07295 4.76336 160
    endloop
  endfacet
  facet normal 0.587785 -0.809017 0
    outer loop
      vertex 8.42705 0.14683 160
      vertex 9.92705 1.23664 163.5
      vertex 8.42705 0.14683 163.5
    endloop
  endfacet
  facet normal 0.587785 -0.809017 0
    outer loop
      vertex 9.92705 1.23664 163.5
      vertex 8.42705 0.14683 160
      vertex 9.92705 1.23664 160
    endloop
  endfacet
  facet normal -0.587785 -0.809017 0
    outer loop
      vertex 5.07295 1.23664 160
      vertex 6.57295 0.14683 163.5
      vertex 5.07295 1.23664 163.5
    endloop
  endfacet
  facet normal -0.587785 -0.809017 -0
    outer loop
      vertex 6.57295 0.14683 163.5
      vertex 5.07295 1.23664 160
      vertex 6.57295 0.14683 160
    endloop
  endfacet
  facet normal -0.951057 0.309017 0
    outer loop
      vertex 4.5 3 160
      vertex 5.07295 4.76336 163.5
      vertex 5.07295 4.76336 160
    endloop
  endfacet
  facet normal -0.951057 0.309017 0
    outer loop
      vertex 5.07295 4.76336 163.5
      vertex 4.5 3 160
      vertex 4.5 3 163.5
    endloop
  endfacet
  facet normal 0.951056 -0.309017 0
    outer loop
      vertex 9.92705 1.23664 163.5
      vertex 10.5 3 160
      vertex 10.5 3 163.5
    endloop
  endfacet
  facet normal 0.951056 -0.309017 0
    outer loop
      vertex 10.5 3 160
      vertex 9.92705 1.23664 163.5
      vertex 9.92705 1.23664 160
    endloop
  endfacet
  facet normal 0 -1 0
    outer loop
      vertex 6.57295 0.14683 160
      vertex 8.42705 0.14683 163.5
      vertex 6.57295 0.14683 163.5
    endloop
  endfacet
  facet normal 0 -1 -0
    outer loop
      vertex 8.42705 0.14683 163.5
      vertex 6.57295 0.14683 160
      vertex 8.42705 0.14683 160
    endloop
  endfacet
  facet normal 1 -0 0
    outer loop
      vertex 6.5 0 147.5
      vertex 6.5 2 12.5
      vertex 6.5 2 147.5
    endloop
  endfacet
  facet normal 1 0 0
    outer loop
      vertex 6.5 2 12.5
      vertex 6.5 0 147.5
      vertex 6.5 0 12.5
    endloop
  endfacet
  facet normal 0 0 -1
    outer loop
      vertex 6.5 0 147.5
      vertex 8.5 2 147.5
      vertex 8.5 0 147.5
    endloop
  endfacet
  facet normal -0 0 -1
    outer loop
      vertex 8.5 2 147.5
      vertex 6.5 0 147.5
      vertex 6.5 2 147.5
    endloop
  endfacet
  facet normal -1 0 0
    outer loop
      vertex 8.5 0 12.5
      vertex 8.5 2 147.5
      vertex 8.5 2 12.5
    endloop
  endfacet
  facet normal -1 -0 0
    outer loop
      vertex 8.5 2 147.5
      vertex 8.5 0 12.5
      vertex 8.5 0 147.5
    endloop
  endfacet
  facet normal 0 -1 0
    outer loop
      vertex 6.5 2 12.5
      vertex 8.5 2 147.5
      vertex 6.5 2 147.5
    endloop
  endfacet
  facet normal 0 -1 -0
    outer loop
      vertex 8.5 2 147.5
      vertex 6.5 2 12.5
      vertex 8.5 2 12.5
    endloop
  endfacet
  facet normal -0 0 1
    outer loop
      vertex 6.5 2 12.5
      vertex 8.5 0 12.5
      vertex 8.5 2 12.5
    endloop
  endfacet
  facet normal 0 0 1
    outer loop
      vertex 8.5 0 12.5
      vertex 6.5 2 12.5
      vertex 6.5 0 12.5
    endloop
  endfacet
  facet normal 1 0 0
    outer loop
      vertex 4.75 6 9
      vertex 4.75 4.18882 5.86373
      vertex 4.75 6 3.5
    endloop
  endfacet
  facet normal 1 0 0
    outer loop
      vertex 4.75 6 9
      vertex 4.75 3.73473 7.26127
      vertex 4.75 4.18882 5.86373
    endloop
  endfacet
  facet normal 1 0 0
    outer loop
      vertex 4.75 6 9
      vertex 4.75 2.26527 7.26127
      vertex 4.75 3.73473 7.26127
    endloop
  endfacet
  facet normal 1 0 0
    outer loop
      vertex 4.75 2.26527 7.26127
      vertex 4.75 0 9
      vertex 4.75 1.81118 5.86373
    endloop
  endfacet
  facet normal 1 -0 0
    outer loop
      vertex 4.75 0 9
      vertex 4.75 2.26527 7.26127
      vertex 4.75 6 9
    endloop
  endfacet
  facet normal 1 -0 0
    outer loop
      vertex 4.75 3 5
      vertex 4.75 6 3.5
      vertex 4.75 4.18882 5.86373
    endloop
  endfacet
  facet normal 1 0 0
    outer loop
      vertex 4.75 3 5
      vertex 4.75 0 3.5
      vertex 4.75 6 3.5
    endloop
  endfacet
  facet normal 1 0 0
    outer loop
      vertex 4.75 1.81118 5.86373
      vertex 4.75 0 3.5
      vertex 4.75 3 5
    endloop
  endfacet
  facet normal 1 0 0
    outer loop
      vertex 4.75 0 3.5
      vertex 4.75 1.81118 5.86373
      vertex 4.75 0 9
    endloop
  endfacet
  facet normal 0 0 -1
    outer loop
      vertex 4.75 0 9
      vertex 10.25 6 9
      vertex 10.25 0 9
    endloop
  endfacet
  facet normal -0 0 -1
    outer loop
      vertex 10.25 6 9
      vertex 4.75 0 9
      vertex 4.75 6 9
    endloop
  endfacet
  facet normal -1 0 0
    outer loop
      vertex 10.25 0 3.5
      vertex 10.25 6 9
      vertex 10.25 6 3.5
    endloop
  endfacet
  facet normal -1 -0 0
    outer loop
      vertex 10.25 6 9
      vertex 10.25 0 3.5
      vertex 10.25 0 9
    endloop
  endfacet
  facet normal -0 0 1
    outer loop
      vertex 4.75 6 3.5
      vertex 10.25 0 3.5
      vertex 10.25 6 3.5
    endloop
  endfacet
  facet normal 0 0 1
    outer loop
      vertex 10.25 0 3.5
      vertex 4.75 6 3.5
      vertex 4.75 0 3.5
    endloop
  endfacet
  facet normal 1 0 0
    outer loop
      vertex 4.75 6 156.5
      vertex 4.75 4.18882 153.364
      vertex 4.75 6 151
    endloop
  endfacet
  facet normal 1 0 0
    outer loop
      vertex 4.75 6 156.5
      vertex 4.75 3.73473 154.761
      vertex 4.75 4.18882 153.364
    endloop
  endfacet
  facet normal 1 0 0
    outer loop
      vertex 4.75 6 156.5
      vertex 4.75 2.26527 154.761
      vertex 4.75 3.73473 154.761
    endloop
  endfacet
  facet normal 1 0 0
    outer loop
      vertex 4.75 2.26527 154.761
      vertex 4.75 0 156.5
      vertex 4.75 1.81118 153.364
    endloop
  endfacet
  facet normal 1 -0 0
    outer loop
      vertex 4.75 0 156.5
      vertex 4.75 2.26527 154.761
      vertex 4.75 6 156.5
    endloop
  endfacet
  facet normal 1 -0 0
    outer loop
      vertex 4.75 3 152.5
      vertex 4.75 6 151
      vertex 4.75 4.18882 153.364
    endloop
  endfacet
  facet normal 1 0 0
    outer loop
      vertex 4.75 3 152.5
      vertex 4.75 0 151
      vertex 4.75 6 151
    endloop
  endfacet
  facet normal 1 0 0
    outer loop
      vertex 4.75 1.81118 153.364
      vertex 4.75 0 151
      vertex 4.75 3 152.5
    endloop
  endfacet
  facet normal 1 0 0
    outer loop
      vertex 4.75 0 151
      vertex 4.75 1.81118 153.364
      vertex 4.75 0 156.5
    endloop
  endfacet
  facet normal 0 0 -1
    outer loop
      vertex 4.75 0 156.5
      vertex 10.25 6 156.5
      vertex 10.25 0 156.5
    endloop
  endfacet
  facet normal -0 0 -1
    outer loop
      vertex 10.25 6 156.5
      vertex 4.75 0 156.5
      vertex 4.75 6 156.5
    endloop
  endfacet
  facet normal -1 0 0
    outer loop
      vertex 10.25 0 151
      vertex 10.25 6 156.5
      vertex 10.25 6 151
    endloop
  endfacet
  facet normal -1 -0 0
    outer loop
      vertex 10.25 6 156.5
      vertex 10.25 0 151
      vertex 10.25 0 156.5
    endloop
  endfacet
  facet normal -0 0 1
    outer loop
      vertex 4.75 6 151
      vertex 10.25 0 151
      vertex 10.25 6 151
    endloop
  endfacet
  facet normal 0 0 1
    outer loop
      vertex 10.25 0 151
      vertex 4.75 6 151
      vertex 4.75 0 151
    endloop
  endfacet
  facet normal 0 -0.587785 0.809017
    outer loop
      vertex 0 4.18882 5.86373
      vertex 4.75 3 5
      vertex 4.75 4.18882 5.86373
    endloop
  endfacet
  facet normal 0 -0.587785 0.809017
    outer loop
      vertex 4.75 3 5
      vertex 0 4.18882 5.86373
      vertex 0 3 5
    endloop
  endfacet
  facet normal 0 0 -1
    outer loop
      vertex 0 2.26527 7.26127
      vertex 4.75 3.73473 7.26127
      vertex 4.75 2.26527 7.26127
    endloop
  endfacet
  facet normal -0 0 -1
    outer loop
      vertex 4.75 3.73473 7.26127
      vertex 0 2.26527 7.26127
      vertex 0 3.73473 7.26127
    endloop
  endfacet
  facet normal 0 -0.951056 -0.309017
    outer loop
      vertex 0 4.18882 5.86373
      vertex 4.75 3.73473 7.26127
      vertex 0 3.73473 7.26127
    endloop
  endfacet
  facet normal 0 -0.951056 -0.309017
    outer loop
      vertex 4.75 3.73473 7.26127
      vertex 0 4.18882 5.86373
      vertex 4.75 4.18882 5.86373
    endloop
  endfacet
  facet normal 0 0.951056 -0.309017
    outer loop
      vertex 4.75 1.81118 5.86373
      vertex 0 2.26527 7.26127
      vertex 4.75 2.26527 7.26127
    endloop
  endfacet
  facet normal 0 0.951056 -0.309017
    outer loop
      vertex 0 2.26527 7.26127
      vertex 4.75 1.81118 5.86373
      vertex 0 1.81118 5.86373
    endloop
  endfacet
  facet normal -0 0.587785 0.809017
    outer loop
      vertex 0 3 5
      vertex 4.75 1.81118 5.86373
      vertex 4.75 3 5
    endloop
  endfacet
  facet normal 0 0.587785 0.809017
    outer loop
      vertex 4.75 1.81118 5.86373
      vertex 0 3 5
      vertex 0 1.81118 5.86373
    endloop
  endfacet
  facet normal 0 -0.587783 0.809018
    outer loop
      vertex 0 4.18882 153.364
      vertex 4.75 3 152.5
      vertex 4.75 4.18882 153.364
    endloop
  endfacet
  facet normal 0 -0.587783 0.809018
    outer loop
      vertex 4.75 3 152.5
      vertex 0 4.18882 153.364
      vertex 0 3 152.5
    endloop
  endfacet
  facet normal 0 0 -1
    outer loop
      vertex 0 2.26527 154.761
      vertex 4.75 3.73473 154.761
      vertex 4.75 2.26527 154.761
    endloop
  endfacet
  facet normal -0 0 -1
    outer loop
      vertex 4.75 3.73473 154.761
      vertex 0 2.26527 154.761
      vertex 0 3.73473 154.761
    endloop
  endfacet
  facet normal 0 -0.951057 -0.309015
    outer loop
      vertex 0 4.18882 153.364
      vertex 4.75 3.73473 154.761
      vertex 0 3.73473 154.761
    endloop
  endfacet
  facet normal 0 -0.951057 -0.309015
    outer loop
      vertex 4.75 3.73473 154.761
      vertex 0 4.18882 153.364
      vertex 4.75 4.18882 153.364
    endloop
  endfacet
  facet normal 0 0.951057 -0.309015
    outer loop
      vertex 4.75 1.81118 153.364
      vertex 0 2.26527 154.761
      vertex 4.75 2.26527 154.761
    endloop
  endfacet
  facet normal 0 0.951057 -0.309015
    outer loop
      vertex 0 2.26527 154.761
      vertex 4.75 1.81118 153.364
      vertex 0 1.81118 153.364
    endloop
  endfacet
  facet normal -0 0.587783 0.809019
    outer loop
      vertex 0 3 152.5
      vertex 4.75 1.81118 153.364
      vertex 4.75 3 152.5
    endloop
  endfacet
  facet normal 0 0.587783 0.809019
    outer loop
      vertex 4.75 1.81118 153.364
      vertex 0 3 152.5
      vertex 0 1.81118 153.364
    endloop
  endfacet
endsolid OpenSCAD_Model
