999
Inkscape export via OpenSCAD DXF Export
  0
SECTION
  2
HEADER
  9
$ACADVER
  1
AC1014
  9
$HANDSEED
  5
FFFF
  9
$MEASUREMENT
 70
     1
  0
ENDSEC
  0
SECTION
  2
TABLES
  0
TABLE
  2
VPORT
  5
8
330
0
100
AcDbSymbolTable
 70
     4
  0
VPORT
  5
2E
330
8
100
AcDbSymbolTableRecord
100
AcDbViewportTableRecord
  2
*ACTIVE
 70
     0
 10
0.0
 20
0.0
 11
1.0
 21
1.0
 12
210.0
 22
148.5
 13
0.0
 23
0.0
 14
10.0
 24
10.0
 15
10.0
 25
10.0
 16
0.0
 26
0.0
 36
1.0
 17
0.0
 27
0.0
 37
0.0
 40
341.0
 41
1.24
 42
50.0
 43
0.0
 44
0.0
 50
0.0
 51
0.0
 71
     0
 72
   100
 73
     1
 74
     3
 75
     0
 76
     0
 77
     0
 78
     0
  0
ENDTAB
  0
TABLE
  2
LTYPE
  5
5
330
0
100
AcDbSymbolTable
 70
     1
  0
LTYPE
  5
14
330
5
100
AcDbSymbolTableRecord
100
AcDbLinetypeTableRecord
  2
BYBLOCK
 70
     0
  3

 72
    65
 73
     0
 40
0.0
  0
LTYPE
  5
15
330
5
100
AcDbSymbolTableRecord
100
AcDbLinetypeTableRecord
  2
BYLAYER
 70
     0
  3

 72
    65
 73
     0
 40
0.0
  0
LTYPE
  5
16
330
5
100
AcDbSymbolTableRecord
100
AcDbLinetypeTableRecord
  2
CONTINUOUS
 70
     0
  3
Solid line
 72
    65
 73
     0
 40
0.0
  0
ENDTAB
  0
TABLE
0
TABLE
2
LAYER
5
2
330
0
100
AcDbSymbolTable
70
1
0
LAYER
5
10
330
2
100
AcDbSymbolTableRecord
100
AcDbLayerTableRecord
2
Layer_1
70
0
62
7
6
CONTINUOUS
0
ENDTAB
0
ENDSEC
  0
ENDTAB
  0
TABLE
  2
STYLE
  5
3
330
0
100
AcDbSymbolTable
 70
     1
  0
STYLE
  5
11
330
3
100
AcDbSymbolTableRecord
100
AcDbTextStyleTableRecord
  2
STANDARD
 70
     0
 40
0.0
 41
1.0
 50
0.0
 71
     0
 42
2.5
  3
txt
  4

  0
ENDTAB
  0
TABLE
  2
VIEW
  5
6
330
0
100
AcDbSymbolTable
 70
     0
  0
ENDTAB
  0
TABLE
  2
UCS
  5
7
330
0
100
AcDbSymbolTable
 70
     0
  0
ENDTAB
  0
TABLE
  2
APPID
  5
9
330
0
100
AcDbSymbolTable
 70
     2
  0
APPID
  5
12
330
9
100
AcDbSymbolTableRecord
100
AcDbRegAppTableRecord
  2
ACAD
 70
     0
  0
ENDTAB
  0
TABLE
  2
DIMSTYLE
  5
A
330
0
100
AcDbSymbolTable
 70
     1
  0
DIMSTYLE
105
27
330
A
100
AcDbSymbolTableRecord
100
AcDbDimStyleTableRecord
  2
ISO-25
 70
     0
  3

  4

  5

  6

  7

 40
1.0
 41
2.5
 42
0.625
 43
3.75
 44
1.25
 45
0.0
 46
0.0
 47
0.0
 48
0.0
140
2.5
141
2.5
142
0.0
143
0.03937007874016
144
1.0
145
0.0
146
1.0
147
0.625
 71
     0
 72
     0
 73
     0
 74
     0
 75
     0
 76
     0
 77
     1
 78
     8
170
     0
171
     3
172
     1
173
     0
174
     0
175
     0
176
     0
177
     0
178
     0
270
     2
271
     2
272
     2
273
     2
274
     3
340
11
275
     0
280
     0
281
     0
282
     0
283
     0
284
     8
285
     0
286
     0
287
     3
288
     0
  0
ENDTAB
  0
TABLE
  2
BLOCK_RECORD
  5
1
330
0
100
AcDbSymbolTable
 70
     1
  0
BLOCK_RECORD
  5
1F
330
1
100
AcDbSymbolTableRecord
100
AcDbBlockTableRecord
  2
*MODEL_SPACE
  0
BLOCK_RECORD
  5
1B
330
1
100
AcDbSymbolTableRecord
100
AcDbBlockTableRecord
  2
*PAPER_SPACE
  0
ENDTAB
  0
ENDSEC
  0
SECTION
  2
BLOCKS
  0
BLOCK
  5
20
330
1F
100
AcDbEntity
  8
0
100
AcDbBlockBegin
  2
*MODEL_SPACE
 70
     0
 10
0.0
 20
0.0
 30
0.0
  3
*MODEL_SPACE
  1

  0
ENDBLK
  5
21
330
1F
100
AcDbEntity
  8
0
100
AcDbBlockEnd
  0
BLOCK
  5
1C
330
1B
100
AcDbEntity
 67
     1
  8
0
100
AcDbBlockBegin
  2
*PAPER_SPACE
  1

  0
ENDBLK
  5
1D
330
1B
100
AcDbEntity
 67
     1
  8
0
100
AcDbBlockEnd
  0
ENDSEC
  0
SECTION
  2
ENTITIES
0
DIMENSION
5
83
100
AcDbEntity
62
256
370
-1
6
ByLayer
1
total_width
3
Standard
70
0
71
5
72
1
41
1.0
100
AcDbAlignedDimension
13
0.468333
23
0.000000
33
0.0
14
38.517737
24
0.000000
34
0.0
50
0.000000
100
AcDbRotatedDimension
0
DIMENSION
5
83
100
AcDbEntity
62
256
370
-1
6
ByLayer
1
total_minx
3
Standard
70
0
71
5
72
1
41
1.0
100
AcDbAlignedDimension
13
0.468333
23
0.000000
33
0.0
14
0.000000
24
0.000000
34
0.0
50
0.000000
100
AcDbRotatedDimension
0
DIMENSION
5
83
100
AcDbEntity
62
256
370
-1
6
ByLayer
1
total_maxx
3
Standard
70
0
71
5
72
1
41
1.0
100
AcDbAlignedDimension
13
0.000000
23
0.000000
33
0.0
14
38.517737
24
0.000000
34
0.0
50
0.000000
100
AcDbRotatedDimension
0
DIMENSION
5
83
100
AcDbEntity
62
256
370
-1
6
ByLayer
1
total_height
3
Standard
70
0
71
5
72
1
41
1.0
100
AcDbAlignedDimension
13
0.000000
23
0.433753
33
0.0
14
0.000000
24
35.903983
34
0.0
50
90.000000
100
AcDbRotatedDimension
0
DIMENSION
5
83
100
AcDbEntity
62
256
370
-1
6
ByLayer
1
total_miny
3
Standard
70
0
71
5
72
1
41
1.0
100
AcDbAlignedDimension
13
0.433753
23
0.000000
33
0.0
14
0.000000
24
0.000000
34
0.0
50
0.000000
100
AcDbRotatedDimension
0
DIMENSION
5
83
100
AcDbEntity
62
256
370
-1
6
ByLayer
1
total_maxy
3
Standard
70
0
71
5
72
1
41
1.0
100
AcDbAlignedDimension
13
0.000000
23
0.000000
33
0.0
14
35.903983
24
0.000000
34
0.0
50
0.000000
100
AcDbRotatedDimension
0
DIMENSION
8
Layer_1
5
83
100
AcDbEntity
62
256
370
-1
6
ByLayer
1
Layer_1_width
3
Standard
70
0
71
5
72
1
41
1.0
100
AcDbAlignedDimension
13
0.468333
23
0.000000
33
0.0
14
38.517737
24
0.000000
34
0.0
50
0.000000
100
AcDbRotatedDimension
0
DIMENSION
8
Layer_1
5
83
100
AcDbEntity
62
256
370
-1
6
ByLayer
1
Layer_1_minx
3
Standard
70
0
71
5
72
1
41
1.0
100
AcDbAlignedDimension
13
0.468333
23
0.000000
33
0.0
14
0.000000
24
0.000000
34
0.0
50
0.000000
100
AcDbRotatedDimension
0
DIMENSION
8
Layer_1
5
83
100
AcDbEntity
62
256
370
-1
6
ByLayer
1
Layer_1_maxx
3
Standard
70
0
71
5
72
1
41
1.0
100
AcDbAlignedDimension
13
0.000000
23
0.000000
33
0.0
14
38.517737
24
0.000000
34
0.0
50
0.000000
100
AcDbRotatedDimension
0
DIMENSION
8
Layer_1
5
83
100
AcDbEntity
62
256
370
-1
6
ByLayer
1
Layer_1_height
3
Standard
70
0
71
5
72
1
41
1.0
100
AcDbAlignedDimension
13
0.000000
23
0.433753
33
0.0
14
0.000000
24
35.903983
34
0.0
50
90.000000
100
AcDbRotatedDimension
0
DIMENSION
8
Layer_1
5
83
100
AcDbEntity
62
256
370
-1
6
ByLayer
1
Layer_1_miny
3
Standard
70
0
71
5
72
1
41
1.0
100
AcDbAlignedDimension
13
0.433753
23
0.000000
33
0.0
14
0.000000
24
0.000000
34
0.0
50
0.000000
100
AcDbRotatedDimension
0
DIMENSION
8
Layer_1
5
83
100
AcDbEntity
62
256
370
-1
6
ByLayer
1
Layer_1_maxy
3
Standard
70
0
71
5
72
1
41
1.0
100
AcDbAlignedDimension
13
0.000000
23
0.000000
33
0.0
14
35.903983
24
0.000000
34
0.0
50
0.000000
100
AcDbRotatedDimension
62
0
0
LWPOLYLINE
100
AcDbPolyline
8
Layer_1
90
35
70
0
10
18.569055
20
0.860261
30
0.0
10
14.366995
20
3.335020
30
0.0
10
11.822391
20
5.183749
30
0.0
10
9.439344
20
7.211947
30
0.0
10
7.214797
20
9.422425
30
0.0
10
5.145694
20
11.817993
30
0.0
10
4.639207
20
12.489555
30
0.0
10
4.643496
20
12.642866
30
0.0
10
5.633157
20
12.631227
30
0.0
10
6.570132
20
12.624104
30
0.0
10
6.931376
20
12.208364
30
0.0
10
9.911643
20
9.191943
30
0.0
10
12.017268
20
7.390375
30
0.0
10
14.239060
20
5.717290
30
0.0
10
16.524775
20
4.209556
30
0.0
10
18.822169
20
2.904041
30
0.0
10
19.466245
20
2.568140
30
0.0
10
20.130187
20
2.914517
30
0.0
10
23.129958
20
4.657888
30
0.0
10
26.047633
20
6.700143
30
0.0
10
28.789045
20
8.969538
30
0.0
10
31.260028
20
11.394329
30
0.0
10
32.179576
20
12.407439
30
0.0
10
32.353953
20
12.619049
30
0.0
10
33.358664
20
12.621930
30
0.0
10
34.363375
20
12.557076
30
0.0
10
34.328340
20
12.489342
30
0.0
10
34.059193
20
12.176505
30
0.0
10
31.684569
20
9.420383
30
0.0
10
28.922131
20
6.705750
30
0.0
10
25.235553
20
3.803115
30
0.0
10
21.301875
20
1.364353
30
0.0
10
19.451507
20
0.433753
30
0.0
10
18.569055
20
0.860264
30
0.0
10
18.569055
20
0.860261
30
0.0
62
0
0
LWPOLYLINE
100
AcDbPolyline
8
Layer_1
90
84
70
0
10
13.502424
20
8.052872
30
0.0
10
13.288945
20
8.244714
30
0.0
10
12.480714
20
11.247559
30
0.0
10
11.687893
20
14.216537
30
0.0
10
10.634767
20
14.295560
30
0.0
10
9.483747
20
14.338732
30
0.0
10
8.953538
20
14.536526
30
0.0
10
8.297611
20
15.492182
30
0.0
10
7.795984
20
16.409388
30
0.0
10
7.681174
20
16.376670
30
0.0
10
7.290656
20
15.686899
30
0.0
10
6.694702
20
14.696069
30
0.0
10
6.310112
20
14.425136
30
0.0
10
6.073421
20
14.318137
30
0.0
10
3.510846
20
14.305090
30
0.0
10
0.948268
20
14.292043
30
0.0
10
0.948268
20
14.813091
30
0.0
10
0.948268
20
15.334138
30
0.0
10
3.381664
20
15.334138
30
0.0
10
5.908162
20
15.413161
30
0.0
10
6.481957
20
16.372716
30
0.0
10
7.082481
20
17.381459
30
0.0
10
7.383675
20
17.598343
30
0.0
10
7.723776
20
17.671976
30
0.0
10
8.066325
20
17.602156
30
0.0
10
8.374867
20
17.388678
30
0.0
10
9.031109
20
16.309277
30
0.0
10
9.609784
20
15.375015
30
0.0
10
11.065009
20
15.334139
30
0.0
10
12.415696
20
15.334139
30
0.0
10
12.479007
20
15.232539
30
0.0
10
12.987653
20
13.416182
30
0.0
10
13.445034
20
11.768005
30
0.0
10
14.111917
20
20.272408
30
0.0
10
14.791748
20
28.750686
30
0.0
10
14.952648
20
28.861414
30
0.0
10
15.208632
20
28.902387
30
0.0
10
15.438708
20
28.772697
30
0.0
10
16.327245
20
20.996995
30
0.0
10
17.162685
20
13.280577
30
0.0
10
17.396956
20
13.425858
30
0.0
10
18.067893
20
14.656806
30
0.0
10
18.457747
20
15.322851
30
0.0
10
20.191469
20
15.379295
30
0.0
10
22.099765
20
15.472033
30
0.0
10
22.711807
20
15.928557
30
0.0
10
23.732265
20
17.524342
30
0.0
10
24.822696
20
19.151370
30
0.0
10
25.128910
20
19.201732
30
0.0
10
25.421518
20
19.090491
30
0.0
10
26.424234
20
17.497579
30
0.0
10
27.373503
20
15.911674
30
0.0
10
27.702932
20
15.584156
30
0.0
10
28.007465
20
15.408313
30
0.0
10
28.605708
20
15.321261
30
0.0
10
32.858860
20
15.288984
30
0.0
10
37.298486
20
15.288984
30
0.0
10
37.298486
20
14.792273
30
0.0
10
37.298486
20
14.295562
30
0.0
10
32.700815
20
14.295562
30
0.0
10
28.318055
20
14.326885
30
0.0
10
27.692879
20
14.415316
30
0.0
10
27.328809
20
14.596061
30
0.0
10
26.658323
20
15.159292
30
0.0
10
25.809870
20
16.463028
30
0.0
10
25.061332
20
17.624942
30
0.0
10
24.295093
20
16.473475
30
0.0
10
23.279093
20
15.024674
30
0.0
10
22.268221
20
14.432278
30
0.0
10
20.524536
20
14.340717
30
0.0
10
19.067829
20
14.340717
30
0.0
10
18.130473
20
12.555350
30
0.0
10
17.186001
20
10.849742
30
0.0
10
16.964845
20
10.653121
30
0.0
10
16.734071
20
10.652791
30
0.0
10
16.434109
20
10.806684
30
0.0
10
16.215748
20
11.949650
30
0.0
10
15.222390
20
21.339829
30
0.0
10
14.718979
20
14.748640
30
0.0
10
14.236514
20
8.812809
30
0.0
10
14.110440
20
8.159946
30
0.0
10
13.944127
20
8.036893
30
0.0
10
13.502424
20
8.052867
30
0.0
10
13.502424
20
8.052872
30
0.0
62
0
0
LWPOLYLINE
100
AcDbPolyline
8
Layer_1
90
82
70
0
10
1.105550
20
19.364271
30
0.0
10
0.657463
20
21.520449
30
0.0
10
0.468333
20
23.374783
30
0.0
10
0.497734
20
25.345359
30
0.0
10
0.734316
20
27.266146
30
0.0
10
1.166730
20
28.971116
30
0.0
10
1.938130
20
30.699739
30
0.0
10
2.904878
20
32.199739
30
0.0
10
4.972062
20
34.235550
30
0.0
10
6.256069
20
34.987341
30
0.0
10
7.807352
20
35.585195
30
0.0
10
8.997407
20
35.845221
30
0.0
10
10.129557
20
35.903983
30
0.0
10
11.296041
20
35.757982
30
0.0
10
12.589096
20
35.403716
30
0.0
10
14.361820
20
34.570041
30
0.0
10
16.030359
20
33.172467
30
0.0
10
17.644416
20
31.291925
30
0.0
10
19.144300
20
28.841548
30
0.0
10
19.473662
20
28.237847
30
0.0
10
19.640009
20
28.548037
30
0.0
10
20.958131
20
30.791999
30
0.0
10
22.265796
20
32.497339
30
0.0
10
24.176726
20
34.286874
30
0.0
10
25.155919
20
34.901560
30
0.0
10
26.190221
20
35.358168
30
0.0
10
28.086754
20
35.841470
30
0.0
10
30.028442
20
35.841865
30
0.0
10
31.971782
20
35.294816
30
0.0
10
33.744126
20
34.400753
30
0.0
10
35.769928
20
32.520874
30
0.0
10
36.493264
20
31.566644
30
0.0
10
37.130219
20
30.468520
30
0.0
10
38.063946
20
28.000284
30
0.0
10
38.376537
20
26.124785
30
0.0
10
38.517737
20
24.094329
30
0.0
10
38.360597
20
22.062030
30
0.0
10
37.947256
20
19.793262
30
0.0
10
37.832476
20
19.307839
30
0.0
10
36.985984
20
19.307839
30
0.0
10
36.114194
20
19.333138
30
0.0
10
36.151637
20
19.592782
30
0.0
10
36.516234
20
21.475306
30
0.0
10
36.596074
20
23.439572
30
0.0
10
36.521159
20
25.245346
30
0.0
10
36.236083
20
26.627369
30
0.0
10
35.437806
20
28.762192
30
0.0
10
34.358019
20
30.432331
30
0.0
10
33.034718
20
31.798581
30
0.0
10
31.401820
20
32.884595
30
0.0
10
29.712353
20
33.523433
30
0.0
10
28.335108
20
33.643055
30
0.0
10
26.867554
20
33.521159
30
0.0
10
25.381048
20
33.082052
30
0.0
10
24.233901
20
32.457998
30
0.0
10
22.495020
20
30.985866
30
0.0
10
21.114419
20
29.326114
30
0.0
10
19.759511
20
27.108460
30
0.0
10
19.468429
20
26.623038
30
0.0
10
19.146628
20
27.176193
30
0.0
10
17.719910
20
29.499423
30
0.0
10
17.344848
20
30.009705
30
0.0
10
15.769371
20
31.599729
30
0.0
10
13.885332
20
32.947556
30
0.0
10
11.988798
20
33.541485
30
0.0
10
10.622410
20
33.650544
30
0.0
10
9.369776
20
33.562892
30
0.0
10
7.595633
20
32.901144
30
0.0
10
6.050843
20
31.913885
30
0.0
10
4.993611
20
30.913029
30
0.0
10
4.128881
20
29.811295
30
0.0
10
3.429497
20
28.567966
30
0.0
10
2.868302
20
27.142328
30
0.0
10
2.531314
20
25.871411
30
0.0
10
2.348462
20
24.387839
30
0.0
10
2.355002
20
22.248589
30
0.0
10
2.688647
20
20.052905
30
0.0
10
2.829663
20
19.432016
30
0.0
10
2.856079
20
19.307839
30
0.0
10
1.991059
20
19.307839
30
0.0
10
1.105539
20
19.364283
30
0.0
10
1.105550
20
19.364271
30
0.0
  0
ENDSEC
  0
SECTION
  2
OBJECTS
  0
DICTIONARY
  5
C
330
0
100
AcDbDictionary
  3
ACAD_GROUP
350
D
  3
ACAD_MLINESTYLE
350
17
  0
DICTIONARY
  5
D
330
C
100
AcDbDictionary
  0
DICTIONARY
  5
1A
330
C
100
AcDbDictionary
  0
DICTIONARY
  5
17
330
C
100
AcDbDictionary
  3
STANDARD
350
18
  0
DICTIONARY
  5
19
330
C
100
AcDbDictionary
  0
ENDSEC
  0
EOF
