%FSDAX24Y24*%
%MOIN*%
%SFA1B1*%

%IPPOS*%
%ADD19C,0.007900*%
%ADD21C,0.010000*%
%ADD27C,0.000500*%
%LNuppsense-1*%
%LPD*%
G54D19*
X009986Y033346D02*
D01*
X009985Y033351*
X009985Y033357*
X009984Y033363*
X009982Y033369*
X009980Y033375*
X009978Y033380*
X009976Y033385*
X009973Y033391*
X009969Y033395*
X009966Y033400*
X009962Y033405*
X009957Y033409*
X009953Y033412*
X009948Y033416*
X009943Y033419*
X009938Y033422*
X009932Y033424*
X009927Y033426*
X009921Y033428*
X009915Y033429*
X009909Y033430*
X009903Y033430*
X009898*
X009892Y033430*
X009886Y033429*
X009880Y033428*
X009874Y033426*
X009869Y033424*
X009863Y033422*
X009858Y033419*
X009853Y033416*
X009848Y033412*
X009844Y033409*
X009839Y033405*
X009835Y033400*
X009832Y033395*
X009828Y033391*
X009825Y033385*
X009823Y033380*
X009821Y033375*
X009819Y033369*
X009817Y033363*
X009816Y033357*
X009816Y033351*
X009816Y033346*
X009816Y033340*
X009816Y033334*
X009817Y033328*
X009819Y033322*
X009821Y033316*
X009823Y033311*
X009825Y033306*
X009828Y033300*
X009832Y033296*
X009835Y033291*
X009839Y033286*
X009844Y033282*
X009848Y033279*
X009853Y033275*
X009858Y033272*
X009863Y033269*
X009869Y033267*
X009874Y033265*
X009880Y033263*
X009886Y033262*
X009892Y033261*
X009898Y033261*
X009903*
X009909Y033261*
X009915Y033262*
X009921Y033263*
X009927Y033265*
X009932Y033267*
X009938Y033269*
X009943Y033272*
X009948Y033275*
X009953Y033279*
X009957Y033282*
X009962Y033286*
X009966Y033291*
X009969Y033296*
X009973Y033300*
X009976Y033306*
X009978Y033311*
X009980Y033316*
X009982Y033322*
X009984Y033328*
X009985Y033334*
X009985Y033340*
X009986Y033346*
X010745Y029207D02*
D01*
X010744Y029212*
X010744Y029218*
X010743Y029224*
X010741Y029230*
X010739Y029236*
X010737Y029241*
X010735Y029246*
X010732Y029252*
X010728Y029256*
X010725Y029261*
X010721Y029266*
X010716Y029270*
X010712Y029273*
X010707Y029277*
X010702Y029280*
X010697Y029283*
X010691Y029285*
X010686Y029287*
X010680Y029289*
X010674Y029290*
X010668Y029291*
X010662Y029291*
X010657*
X010651Y029291*
X010645Y029290*
X010639Y029289*
X010633Y029287*
X010628Y029285*
X010622Y029283*
X010617Y029280*
X010612Y029277*
X010607Y029273*
X010603Y029270*
X010598Y029266*
X010594Y029261*
X010591Y029256*
X010587Y029252*
X010584Y029246*
X010582Y029241*
X010580Y029236*
X010578Y029230*
X010576Y029224*
X010575Y029218*
X010575Y029212*
X010575Y029207*
X010575Y029201*
X010575Y029195*
X010576Y029189*
X010578Y029183*
X010580Y029177*
X010582Y029172*
X010584Y029167*
X010587Y029161*
X010591Y029157*
X010594Y029152*
X010598Y029147*
X010603Y029143*
X010607Y029140*
X010612Y029136*
X010617Y029133*
X010622Y029130*
X010628Y029128*
X010633Y029126*
X010639Y029124*
X010645Y029123*
X010651Y029122*
X010657Y029122*
X010662*
X010668Y029122*
X010674Y029123*
X010680Y029124*
X010686Y029126*
X010691Y029128*
X010697Y029130*
X010702Y029133*
X010707Y029136*
X010712Y029140*
X010716Y029143*
X010721Y029147*
X010725Y029152*
X010728Y029157*
X010732Y029161*
X010735Y029167*
X010737Y029172*
X010739Y029177*
X010741Y029183*
X010743Y029189*
X010744Y029195*
X010744Y029201*
X010745Y029207*
X010710Y023456D02*
D01*
X010709Y023461*
X010709Y023467*
X010708Y023473*
X010706Y023479*
X010704Y023485*
X010702Y023490*
X010700Y023495*
X010697Y023501*
X010693Y023505*
X010690Y023510*
X010686Y023515*
X010681Y023519*
X010677Y023522*
X010672Y023526*
X010667Y023529*
X010662Y023532*
X010656Y023534*
X010651Y023536*
X010645Y023538*
X010639Y023539*
X010633Y023540*
X010627Y023540*
X010622*
X010616Y023540*
X010610Y023539*
X010604Y023538*
X010598Y023536*
X010593Y023534*
X010587Y023532*
X010582Y023529*
X010577Y023526*
X010572Y023522*
X010568Y023519*
X010563Y023515*
X010559Y023510*
X010556Y023505*
X010552Y023501*
X010549Y023495*
X010547Y023490*
X010545Y023485*
X010543Y023479*
X010541Y023473*
X010540Y023467*
X010540Y023461*
X010540Y023456*
X010540Y023450*
X010540Y023444*
X010541Y023438*
X010543Y023432*
X010545Y023426*
X010547Y023421*
X010549Y023416*
X010552Y023410*
X010556Y023406*
X010559Y023401*
X010563Y023396*
X010568Y023392*
X010572Y023389*
X010577Y023385*
X010582Y023382*
X010587Y023379*
X010593Y023377*
X010598Y023375*
X010604Y023373*
X010610Y023372*
X010616Y023371*
X010622Y023371*
X010627*
X010633Y023371*
X010639Y023372*
X010645Y023373*
X010651Y023375*
X010656Y023377*
X010662Y023379*
X010667Y023382*
X010672Y023385*
X010677Y023389*
X010681Y023392*
X010686Y023396*
X010690Y023401*
X010693Y023406*
X010697Y023410*
X010700Y023416*
X010702Y023421*
X010704Y023426*
X010706Y023432*
X010708Y023438*
X010709Y023444*
X010709Y023450*
X010710Y023456*
X019606Y036134D02*
D01*
X019605Y036147*
X019604Y036161*
X019601Y036174*
X019598Y036188*
X019594Y036201*
X019588Y036214*
X019582Y036226*
X019576Y036238*
X019568Y036249*
X019559Y036260*
X019550Y036270*
X019540Y036280*
X019530Y036289*
X019519Y036297*
X019507Y036304*
X019495Y036311*
X019482Y036316*
X019469Y036321*
X019456Y036325*
X019443Y036328*
X019429Y036329*
X019415Y036330*
X019402*
X019388Y036329*
X019374Y036328*
X019361Y036325*
X019348Y036321*
X019335Y036316*
X019322Y036311*
X019310Y036304*
X019298Y036297*
X019287Y036289*
X019277Y036280*
X019267Y036270*
X019258Y036260*
X019249Y036249*
X019241Y036238*
X019235Y036226*
X019229Y036214*
X019223Y036201*
X019219Y036188*
X019216Y036174*
X019213Y036161*
X019212Y036147*
X019212Y036134*
X019212Y036120*
X019213Y036106*
X019216Y036093*
X019219Y036079*
X019223Y036066*
X019229Y036053*
X019235Y036041*
X019241Y036029*
X019249Y036018*
X019258Y036007*
X019267Y035997*
X019277Y035987*
X019287Y035978*
X019298Y035970*
X019310Y035963*
X019322Y035956*
X019335Y035951*
X019348Y035946*
X019361Y035942*
X019374Y035939*
X019388Y035938*
X019402Y035937*
X019415*
X019429Y035938*
X019443Y035939*
X019456Y035942*
X019469Y035946*
X019482Y035951*
X019495Y035956*
X019507Y035963*
X019519Y035970*
X019530Y035978*
X019540Y035987*
X019550Y035997*
X019559Y036007*
X019568Y036018*
X019576Y036029*
X019582Y036041*
X019588Y036053*
X019594Y036066*
X019598Y036079*
X019601Y036093*
X019604Y036106*
X019605Y036120*
X019606Y036134*
X017952Y037788D02*
D01*
X017951Y037801*
X017950Y037815*
X017947Y037828*
X017944Y037842*
X017940Y037855*
X017934Y037868*
X017928Y037880*
X017922Y037892*
X017914Y037903*
X017905Y037914*
X017896Y037924*
X017886Y037934*
X017876Y037943*
X017865Y037951*
X017853Y037958*
X017841Y037965*
X017828Y037970*
X017815Y037975*
X017802Y037979*
X017789Y037982*
X017775Y037983*
X017761Y037984*
X017748*
X017734Y037983*
X017720Y037982*
X017707Y037979*
X017694Y037975*
X017681Y037970*
X017668Y037965*
X017656Y037958*
X017644Y037951*
X017633Y037943*
X017623Y037934*
X017613Y037924*
X017604Y037914*
X017595Y037903*
X017587Y037892*
X017581Y037880*
X017575Y037868*
X017569Y037855*
X017565Y037842*
X017562Y037828*
X017559Y037815*
X017558Y037801*
X017558Y037788*
X017558Y037774*
X017559Y037760*
X017562Y037747*
X017565Y037733*
X017569Y037720*
X017575Y037707*
X017581Y037695*
X017587Y037683*
X017595Y037672*
X017604Y037661*
X017613Y037651*
X017623Y037641*
X017633Y037632*
X017644Y037624*
X017656Y037617*
X017668Y037610*
X017681Y037605*
X017694Y037600*
X017707Y037596*
X017720Y037593*
X017734Y037592*
X017748Y037591*
X017761*
X017775Y037592*
X017789Y037593*
X017802Y037596*
X017815Y037600*
X017828Y037605*
X017841Y037610*
X017853Y037617*
X017865Y037624*
X017876Y037632*
X017886Y037641*
X017896Y037651*
X017905Y037661*
X017914Y037672*
X017922Y037683*
X017928Y037695*
X017934Y037707*
X017940Y037720*
X017944Y037733*
X017947Y037747*
X017950Y037760*
X017951Y037774*
X017952Y037788*
X019606D02*
D01*
X019605Y037801*
X019604Y037815*
X019601Y037828*
X019598Y037842*
X019594Y037855*
X019588Y037868*
X019582Y037880*
X019576Y037892*
X019568Y037903*
X019559Y037914*
X019550Y037924*
X019540Y037934*
X019530Y037943*
X019519Y037951*
X019507Y037958*
X019495Y037965*
X019482Y037970*
X019469Y037975*
X019456Y037979*
X019443Y037982*
X019429Y037983*
X019415Y037984*
X019402*
X019388Y037983*
X019374Y037982*
X019361Y037979*
X019348Y037975*
X019335Y037970*
X019322Y037965*
X019310Y037958*
X019298Y037951*
X019287Y037943*
X019277Y037934*
X019267Y037924*
X019258Y037914*
X019249Y037903*
X019241Y037892*
X019235Y037880*
X019229Y037868*
X019223Y037855*
X019219Y037842*
X019216Y037828*
X019213Y037815*
X019212Y037801*
X019212Y037788*
X019212Y037774*
X019213Y037760*
X019216Y037747*
X019219Y037733*
X019223Y037720*
X019229Y037707*
X019235Y037695*
X019241Y037683*
X019249Y037672*
X019258Y037661*
X019267Y037651*
X019277Y037641*
X019287Y037632*
X019298Y037624*
X019310Y037617*
X019322Y037610*
X019335Y037605*
X019348Y037600*
X019361Y037596*
X019374Y037593*
X019388Y037592*
X019402Y037591*
X019415*
X019429Y037592*
X019443Y037593*
X019456Y037596*
X019469Y037600*
X019482Y037605*
X019495Y037610*
X019507Y037617*
X019519Y037624*
X019530Y037632*
X019540Y037641*
X019550Y037651*
X019559Y037661*
X019568Y037672*
X019576Y037683*
X019582Y037695*
X019588Y037707*
X019594Y037720*
X019598Y037733*
X019601Y037747*
X019604Y037760*
X019605Y037774*
X019606Y037788*
X017952Y036134D02*
D01*
X017951Y036147*
X017950Y036161*
X017947Y036174*
X017944Y036188*
X017940Y036201*
X017934Y036214*
X017928Y036226*
X017922Y036238*
X017914Y036249*
X017905Y036260*
X017896Y036270*
X017886Y036280*
X017876Y036289*
X017865Y036297*
X017853Y036304*
X017841Y036311*
X017828Y036316*
X017815Y036321*
X017802Y036325*
X017789Y036328*
X017775Y036329*
X017761Y036330*
X017748*
X017734Y036329*
X017720Y036328*
X017707Y036325*
X017694Y036321*
X017681Y036316*
X017668Y036311*
X017656Y036304*
X017644Y036297*
X017633Y036289*
X017623Y036280*
X017613Y036270*
X017604Y036260*
X017595Y036249*
X017587Y036238*
X017581Y036226*
X017575Y036214*
X017569Y036201*
X017565Y036188*
X017562Y036174*
X017559Y036161*
X017558Y036147*
X017558Y036134*
X017558Y036120*
X017559Y036106*
X017562Y036093*
X017565Y036079*
X017569Y036066*
X017575Y036053*
X017581Y036041*
X017587Y036029*
X017595Y036018*
X017604Y036007*
X017613Y035997*
X017623Y035987*
X017633Y035978*
X017644Y035970*
X017656Y035963*
X017668Y035956*
X017681Y035951*
X017694Y035946*
X017707Y035942*
X017720Y035939*
X017734Y035938*
X017748Y035937*
X017761*
X017775Y035938*
X017789Y035939*
X017802Y035942*
X017815Y035946*
X017828Y035951*
X017841Y035956*
X017853Y035963*
X017865Y035970*
X017876Y035978*
X017886Y035987*
X017896Y035997*
X017905Y036007*
X017914Y036018*
X017922Y036029*
X017928Y036041*
X017934Y036053*
X017940Y036066*
X017944Y036079*
X017947Y036093*
X017950Y036106*
X017951Y036120*
X017952Y036134*
X017598Y038142D02*
D01*
X017584Y038141*
X017570Y038140*
X017557Y038137*
X017543Y038134*
X017530Y038130*
X017517Y038124*
X017505Y038118*
X017493Y038112*
X017482Y038104*
X017471Y038095*
X017461Y038086*
X017451Y038076*
X017442Y038066*
X017434Y038055*
X017427Y038043*
X017420Y038031*
X017415Y038018*
X017410Y038005*
X017406Y037992*
X017403Y037979*
X017402Y037965*
X017401Y037951*
X017401Y037945*
X019763D02*
D01*
X019762Y037958*
X019761Y037972*
X019758Y037985*
X019755Y037999*
X019751Y038012*
X019745Y038025*
X019739Y038037*
X019733Y038049*
X019725Y038060*
X019716Y038071*
X019707Y038081*
X019697Y038091*
X019687Y038100*
X019676Y038108*
X019664Y038115*
X019652Y038122*
X019639Y038127*
X019626Y038132*
X019613Y038136*
X019600Y038139*
X019586Y038140*
X019572Y038141*
X019567Y038142*
Y035780D02*
D01*
X019580Y035780*
X019594Y035781*
X019607Y035784*
X019621Y035787*
X019634Y035791*
X019647Y035797*
X019659Y035803*
X019671Y035809*
X019682Y035817*
X019693Y035826*
X019703Y035835*
X019713Y035845*
X019722Y035855*
X019730Y035866*
X019737Y035878*
X019744Y035890*
X019749Y035903*
X019754Y035916*
X019758Y035929*
X019761Y035942*
X019762Y035956*
X019763Y035970*
X019763Y035977*
X017401D02*
D01*
X017401Y035963*
X017402Y035949*
X017405Y035936*
X017408Y035922*
X017412Y035909*
X017418Y035896*
X017424Y035884*
X017430Y035872*
X017438Y035861*
X017447Y035850*
X017456Y035840*
X017466Y035830*
X017476Y035821*
X017487Y035813*
X017499Y035806*
X017511Y035799*
X017524Y035794*
X017537Y035789*
X017550Y035785*
X017563Y035782*
X017577Y035781*
X017591Y035780*
X017598Y035780*
X019271Y036961D02*
D01*
X019269Y037009*
X019264Y037056*
X019255Y037104*
X019244Y037150*
X019229Y037196*
X019211Y037241*
X019190Y037284*
X019166Y037326*
X019139Y037365*
X019109Y037403*
X019077Y037439*
X019043Y037473*
X019006Y037503*
X018967Y037532*
X018926Y037557*
X018884Y037580*
X018840Y037599*
X018794Y037616*
X018748Y037629*
X018701Y037639*
X018654Y037646*
X018606Y037649*
X018557*
X018509Y037646*
X018462Y037639*
X018415Y037629*
X018369Y037616*
X018323Y037599*
X018279Y037580*
X018237Y037557*
X018196Y037532*
X018157Y037503*
X018120Y037473*
X018086Y037439*
X018054Y037403*
X018024Y037365*
X017997Y037326*
X017973Y037284*
X017952Y037241*
X017934Y037196*
X017919Y037150*
X017908Y037104*
X017899Y037056*
X017894Y037009*
X017893Y036961*
X017894Y036912*
X017899Y036865*
X017908Y036817*
X017919Y036771*
X017934Y036725*
X017952Y036680*
X017973Y036637*
X017997Y036595*
X018024Y036556*
X018054Y036518*
X018086Y036482*
X018120Y036448*
X018157Y036418*
X018196Y036389*
X018237Y036364*
X018279Y036341*
X018323Y036322*
X018369Y036305*
X018415Y036292*
X018462Y036282*
X018509Y036275*
X018557Y036272*
X018606*
X018654Y036275*
X018701Y036282*
X018748Y036292*
X018794Y036305*
X018840Y036322*
X018884Y036341*
X018926Y036364*
X018967Y036389*
X019006Y036418*
X019043Y036448*
X019077Y036482*
X019109Y036518*
X019139Y036556*
X019166Y036595*
X019190Y036637*
X019211Y036680*
X019229Y036725*
X019244Y036771*
X019255Y036817*
X019264Y036865*
X019269Y036912*
X019271Y036961*
X031221Y024016D02*
D01*
X031220Y024021*
X031220Y024027*
X031219Y024033*
X031217Y024039*
X031215Y024045*
X031213Y024050*
X031211Y024055*
X031208Y024061*
X031204Y024065*
X031201Y024070*
X031197Y024075*
X031192Y024079*
X031188Y024082*
X031183Y024086*
X031178Y024089*
X031173Y024092*
X031167Y024094*
X031162Y024096*
X031156Y024098*
X031150Y024099*
X031144Y024100*
X031138Y024100*
X031133*
X031127Y024100*
X031121Y024099*
X031115Y024098*
X031109Y024096*
X031104Y024094*
X031098Y024092*
X031093Y024089*
X031088Y024086*
X031083Y024082*
X031079Y024079*
X031074Y024075*
X031070Y024070*
X031067Y024065*
X031063Y024061*
X031060Y024055*
X031058Y024050*
X031056Y024045*
X031054Y024039*
X031052Y024033*
X031051Y024027*
X031051Y024021*
X031051Y024016*
X031051Y024010*
X031051Y024004*
X031052Y023998*
X031054Y023992*
X031056Y023986*
X031058Y023981*
X031060Y023976*
X031063Y023970*
X031067Y023966*
X031070Y023961*
X031074Y023956*
X031079Y023952*
X031083Y023949*
X031088Y023945*
X031093Y023942*
X031098Y023939*
X031104Y023937*
X031109Y023935*
X031115Y023933*
X031121Y023932*
X031127Y023931*
X031133Y023931*
X031138*
X031144Y023931*
X031150Y023932*
X031156Y023933*
X031162Y023935*
X031167Y023937*
X031173Y023939*
X031178Y023942*
X031183Y023945*
X031188Y023949*
X031192Y023952*
X031197Y023956*
X031201Y023961*
X031204Y023966*
X031208Y023970*
X031211Y023976*
X031213Y023981*
X031215Y023986*
X031217Y023992*
X031219Y023998*
X031220Y024004*
X031220Y024010*
X031221Y024016*
X035039Y036142D02*
D01*
X035038Y036155*
X035037Y036169*
X035034Y036182*
X035031Y036196*
X035027Y036209*
X035021Y036222*
X035015Y036234*
X035009Y036246*
X035001Y036257*
X034992Y036268*
X034983Y036278*
X034973Y036288*
X034963Y036297*
X034952Y036305*
X034940Y036312*
X034928Y036319*
X034915Y036324*
X034902Y036329*
X034889Y036333*
X034876Y036336*
X034862Y036337*
X034848Y036338*
X034835*
X034821Y036337*
X034807Y036336*
X034794Y036333*
X034781Y036329*
X034768Y036324*
X034755Y036319*
X034743Y036312*
X034731Y036305*
X034720Y036297*
X034710Y036288*
X034700Y036278*
X034691Y036268*
X034682Y036257*
X034674Y036246*
X034668Y036234*
X034662Y036222*
X034656Y036209*
X034652Y036196*
X034649Y036182*
X034646Y036169*
X034645Y036155*
X034645Y036142*
X034645Y036128*
X034646Y036114*
X034649Y036101*
X034652Y036087*
X034656Y036074*
X034662Y036061*
X034668Y036049*
X034674Y036037*
X034682Y036026*
X034691Y036015*
X034700Y036005*
X034710Y035995*
X034720Y035986*
X034731Y035978*
X034743Y035971*
X034755Y035964*
X034768Y035959*
X034781Y035954*
X034794Y035950*
X034807Y035947*
X034821Y035946*
X034835Y035945*
X034848*
X034862Y035946*
X034876Y035947*
X034889Y035950*
X034902Y035954*
X034915Y035959*
X034928Y035964*
X034940Y035971*
X034952Y035978*
X034963Y035986*
X034973Y035995*
X034983Y036005*
X034992Y036015*
X035001Y036026*
X035009Y036037*
X035015Y036049*
X035021Y036061*
X035027Y036074*
X035031Y036087*
X035034Y036101*
X035037Y036114*
X035038Y036128*
X035039Y036142*
X033386Y037795D02*
D01*
X033385Y037808*
X033384Y037822*
X033381Y037835*
X033378Y037849*
X033374Y037862*
X033368Y037875*
X033362Y037887*
X033356Y037899*
X033348Y037910*
X033339Y037921*
X033330Y037931*
X033320Y037941*
X033310Y037950*
X033299Y037958*
X033287Y037965*
X033275Y037972*
X033262Y037977*
X033249Y037982*
X033236Y037986*
X033223Y037989*
X033209Y037990*
X033195Y037991*
X033182*
X033168Y037990*
X033154Y037989*
X033141Y037986*
X033128Y037982*
X033115Y037977*
X033102Y037972*
X033090Y037965*
X033078Y037958*
X033067Y037950*
X033057Y037941*
X033047Y037931*
X033038Y037921*
X033029Y037910*
X033021Y037899*
X033015Y037887*
X033009Y037875*
X033003Y037862*
X032999Y037849*
X032996Y037835*
X032993Y037822*
X032992Y037808*
X032992Y037795*
X032992Y037781*
X032993Y037767*
X032996Y037754*
X032999Y037740*
X033003Y037727*
X033009Y037714*
X033015Y037702*
X033021Y037690*
X033029Y037679*
X033038Y037668*
X033047Y037658*
X033057Y037648*
X033067Y037639*
X033078Y037631*
X033090Y037624*
X033102Y037617*
X033115Y037612*
X033128Y037607*
X033141Y037603*
X033154Y037600*
X033168Y037599*
X033182Y037598*
X033195*
X033209Y037599*
X033223Y037600*
X033236Y037603*
X033249Y037607*
X033262Y037612*
X033275Y037617*
X033287Y037624*
X033299Y037631*
X033310Y037639*
X033320Y037648*
X033330Y037658*
X033339Y037668*
X033348Y037679*
X033356Y037690*
X033362Y037702*
X033368Y037714*
X033374Y037727*
X033378Y037740*
X033381Y037754*
X033384Y037767*
X033385Y037781*
X033386Y037795*
X035039D02*
D01*
X035038Y037808*
X035037Y037822*
X035034Y037835*
X035031Y037849*
X035027Y037862*
X035021Y037875*
X035015Y037887*
X035009Y037899*
X035001Y037910*
X034992Y037921*
X034983Y037931*
X034973Y037941*
X034963Y037950*
X034952Y037958*
X034940Y037965*
X034928Y037972*
X034915Y037977*
X034902Y037982*
X034889Y037986*
X034876Y037989*
X034862Y037990*
X034848Y037991*
X034835*
X034821Y037990*
X034807Y037989*
X034794Y037986*
X034781Y037982*
X034768Y037977*
X034755Y037972*
X034743Y037965*
X034731Y037958*
X034720Y037950*
X034710Y037941*
X034700Y037931*
X034691Y037921*
X034682Y037910*
X034674Y037899*
X034668Y037887*
X034662Y037875*
X034656Y037862*
X034652Y037849*
X034649Y037835*
X034646Y037822*
X034645Y037808*
X034645Y037795*
X034645Y037781*
X034646Y037767*
X034649Y037754*
X034652Y037740*
X034656Y037727*
X034662Y037714*
X034668Y037702*
X034674Y037690*
X034682Y037679*
X034691Y037668*
X034700Y037658*
X034710Y037648*
X034720Y037639*
X034731Y037631*
X034743Y037624*
X034755Y037617*
X034768Y037612*
X034781Y037607*
X034794Y037603*
X034807Y037600*
X034821Y037599*
X034835Y037598*
X034848*
X034862Y037599*
X034876Y037600*
X034889Y037603*
X034902Y037607*
X034915Y037612*
X034928Y037617*
X034940Y037624*
X034952Y037631*
X034963Y037639*
X034973Y037648*
X034983Y037658*
X034992Y037668*
X035001Y037679*
X035009Y037690*
X035015Y037702*
X035021Y037714*
X035027Y037727*
X035031Y037740*
X035034Y037754*
X035037Y037767*
X035038Y037781*
X035039Y037795*
X033386Y036142D02*
D01*
X033385Y036155*
X033384Y036169*
X033381Y036182*
X033378Y036196*
X033374Y036209*
X033368Y036222*
X033362Y036234*
X033356Y036246*
X033348Y036257*
X033339Y036268*
X033330Y036278*
X033320Y036288*
X033310Y036297*
X033299Y036305*
X033287Y036312*
X033275Y036319*
X033262Y036324*
X033249Y036329*
X033236Y036333*
X033223Y036336*
X033209Y036337*
X033195Y036338*
X033182*
X033168Y036337*
X033154Y036336*
X033141Y036333*
X033128Y036329*
X033115Y036324*
X033102Y036319*
X033090Y036312*
X033078Y036305*
X033067Y036297*
X033057Y036288*
X033047Y036278*
X033038Y036268*
X033029Y036257*
X033021Y036246*
X033015Y036234*
X033009Y036222*
X033003Y036209*
X032999Y036196*
X032996Y036182*
X032993Y036169*
X032992Y036155*
X032992Y036142*
X032992Y036128*
X032993Y036114*
X032996Y036101*
X032999Y036087*
X033003Y036074*
X033009Y036061*
X033015Y036049*
X033021Y036037*
X033029Y036026*
X033038Y036015*
X033047Y036005*
X033057Y035995*
X033067Y035986*
X033078Y035978*
X033090Y035971*
X033102Y035964*
X033115Y035959*
X033128Y035954*
X033141Y035950*
X033154Y035947*
X033168Y035946*
X033182Y035945*
X033195*
X033209Y035946*
X033223Y035947*
X033236Y035950*
X033249Y035954*
X033262Y035959*
X033275Y035964*
X033287Y035971*
X033299Y035978*
X033310Y035986*
X033320Y035995*
X033330Y036005*
X033339Y036015*
X033348Y036026*
X033356Y036037*
X033362Y036049*
X033368Y036061*
X033374Y036074*
X033378Y036087*
X033381Y036101*
X033384Y036114*
X033385Y036128*
X033386Y036142*
X033031Y038150D02*
D01*
X033017Y038149*
X033003Y038148*
X032990Y038145*
X032976Y038142*
X032963Y038138*
X032950Y038132*
X032938Y038126*
X032926Y038120*
X032915Y038112*
X032904Y038103*
X032894Y038094*
X032884Y038084*
X032875Y038074*
X032867Y038063*
X032860Y038051*
X032853Y038039*
X032848Y038026*
X032843Y038013*
X032839Y038000*
X032836Y037987*
X032835Y037973*
X032834Y037959*
X032835Y037953*
X035197D02*
D01*
X035196Y037966*
X035195Y037980*
X035192Y037993*
X035189Y038007*
X035185Y038020*
X035179Y038033*
X035173Y038045*
X035167Y038057*
X035159Y038068*
X035150Y038079*
X035141Y038089*
X035131Y038099*
X035121Y038108*
X035110Y038116*
X035098Y038123*
X035086Y038130*
X035073Y038135*
X035060Y038140*
X035047Y038144*
X035034Y038147*
X035020Y038148*
X035006Y038149*
X035000Y038150*
Y035787D02*
D01*
X035013Y035787*
X035027Y035788*
X035040Y035791*
X035054Y035794*
X035067Y035798*
X035080Y035804*
X035092Y035810*
X035104Y035816*
X035115Y035824*
X035126Y035833*
X035136Y035842*
X035146Y035852*
X035155Y035862*
X035163Y035873*
X035170Y035885*
X035177Y035897*
X035182Y035910*
X035187Y035923*
X035191Y035936*
X035194Y035949*
X035195Y035963*
X035196Y035977*
X035197Y035984*
X032835D02*
D01*
X032835Y035970*
X032836Y035956*
X032839Y035943*
X032842Y035929*
X032846Y035916*
X032852Y035903*
X032858Y035891*
X032864Y035879*
X032872Y035868*
X032881Y035857*
X032890Y035847*
X032900Y035837*
X032910Y035828*
X032921Y035820*
X032933Y035813*
X032945Y035806*
X032958Y035801*
X032971Y035796*
X032984Y035792*
X032997Y035789*
X033011Y035788*
X033025Y035787*
X033031Y035787*
X034705Y036969D02*
D01*
X034703Y037017*
X034698Y037064*
X034689Y037112*
X034678Y037158*
X034663Y037204*
X034645Y037249*
X034624Y037292*
X034600Y037334*
X034573Y037373*
X034543Y037411*
X034511Y037447*
X034477Y037481*
X034440Y037511*
X034401Y037540*
X034360Y037565*
X034318Y037588*
X034274Y037607*
X034228Y037624*
X034182Y037637*
X034135Y037647*
X034088Y037654*
X034040Y037657*
X033991*
X033943Y037654*
X033896Y037647*
X033849Y037637*
X033803Y037624*
X033757Y037607*
X033713Y037588*
X033671Y037565*
X033630Y037540*
X033591Y037511*
X033554Y037481*
X033520Y037447*
X033488Y037411*
X033458Y037373*
X033431Y037334*
X033407Y037292*
X033386Y037249*
X033368Y037204*
X033353Y037158*
X033342Y037112*
X033333Y037064*
X033328Y037017*
X033327Y036969*
X033328Y036920*
X033333Y036873*
X033342Y036825*
X033353Y036779*
X033368Y036733*
X033386Y036688*
X033407Y036645*
X033431Y036603*
X033458Y036564*
X033488Y036526*
X033520Y036490*
X033554Y036456*
X033591Y036426*
X033630Y036397*
X033671Y036372*
X033713Y036349*
X033757Y036330*
X033803Y036313*
X033849Y036300*
X033896Y036290*
X033943Y036283*
X033991Y036280*
X034040*
X034088Y036283*
X034135Y036290*
X034182Y036300*
X034228Y036313*
X034274Y036330*
X034318Y036349*
X034360Y036372*
X034401Y036397*
X034440Y036426*
X034477Y036456*
X034511Y036490*
X034543Y036526*
X034573Y036564*
X034600Y036603*
X034624Y036645*
X034645Y036688*
X034663Y036733*
X034678Y036779*
X034689Y036825*
X034698Y036873*
X034703Y036920*
X034705Y036969*
X009488Y033228D02*
Y034252D01*
X008937Y033228D02*
X009488D01*
X008937D02*
Y034252D01*
X009488*
X009705Y033150D02*
Y034331D01*
X010886*
Y033150D02*
Y034331D01*
X009705Y033150D02*
X010886D01*
X008448Y028855D02*
X009472D01*
X008448D02*
Y029406D01*
X009472*
Y028855D02*
Y029406D01*
X008437Y028152D02*
X009460D01*
X008437D02*
Y028704D01*
X009460*
Y028152D02*
Y028704D01*
X008451Y023151D02*
X009475D01*
X008451D02*
Y023702D01*
X009475*
Y023151D02*
Y023702D01*
X008451Y022401D02*
X009475D01*
X008451D02*
Y022952D01*
X009475*
Y022401D02*
Y022952D01*
X010857Y028223D02*
Y029404D01*
X009676Y028223D02*
X010857D01*
X009676D02*
Y029404D01*
X010857*
X010822Y022472D02*
Y023653D01*
X009641Y022472D02*
X010822D01*
X009641D02*
Y023653D01*
X010822*
X009587Y026102D02*
X010610D01*
X009587D02*
Y026654D01*
X010610*
Y026102D02*
Y026654D01*
X009587Y026850D02*
X010610D01*
X009587D02*
Y027402D01*
X010610*
Y026850D02*
Y027402D01*
X009601Y020351D02*
X010625D01*
X009601D02*
Y020902D01*
X010625*
Y020351D02*
Y020902D01*
X009601Y021051D02*
X010625D01*
X009601D02*
Y021602D01*
X010625*
Y021051D02*
Y021602D01*
X017401Y035977D02*
Y037945D01*
X017598Y038142D02*
X019567D01*
X019763Y035977D02*
Y037945D01*
X017598Y035780D02*
X019567D01*
X019606Y035622D02*
Y035780D01*
X019330Y035622D02*
Y035780D01*
X017834Y035622D02*
Y035780D01*
X017559Y035622D02*
Y035780D01*
X017834Y038142D02*
Y038300D01*
X017559Y038142D02*
Y038300D01*
X019330Y038142D02*
Y038300D01*
X019606Y038142D02*
Y038300D01*
X030349Y022500D02*
X031372D01*
X030349D02*
Y023052D01*
X031372*
Y022500D02*
Y023052D01*
X036032Y025076D02*
X036132Y024976D01*
X036032Y025076D02*
X036132Y024976D01*
X035932D02*
X036132Y024776D01*
Y025176*
X035932Y024976D02*
X036132Y025176D01*
X035932Y024976D02*
X036132D01*
X036032Y024876D02*
X036132Y024976D01*
X036032Y024876D02*
Y025076D01*
X036132Y024876*
X036032D02*
X036132D01*
X036032D02*
Y025076D01*
X036132*
X033159Y023370D02*
X035953D01*
X033130Y022386D02*
X035953D01*
X034732D02*
Y023370D01*
X034126Y022386D02*
Y023370D01*
X033126Y022386D02*
Y023370D01*
X033732Y022386D02*
Y023370D01*
X035533Y024372D02*
Y024572D01*
X035333Y024372D02*
Y024572D01*
X034333Y024372D02*
Y024572D01*
X034533Y024372D02*
Y024572D01*
Y023372D02*
Y023572D01*
X034333Y023372D02*
Y023572D01*
X033333Y024372D02*
Y024572D01*
X033533Y024372D02*
Y024572D01*
Y023372D02*
Y023572D01*
X033333Y023372D02*
Y023572D01*
X034333Y020102D02*
Y022386D01*
X034533Y020102D02*
Y022372D01*
X034333Y020102D02*
X034533D01*
X033333D02*
Y022386D01*
X033533Y020102D02*
Y022372D01*
X033333Y020102D02*
X033533D01*
X035953Y022386D02*
Y023370D01*
X035126Y022386D02*
Y023370D01*
X035756Y022386D02*
Y023370D01*
X035333Y023372D02*
Y023572D01*
X035533Y023372D02*
Y023572D01*
X035333Y020102D02*
X035533D01*
Y022372*
X035333Y020102D02*
Y022386D01*
X030939Y025000D02*
X032120D01*
X030939Y023819D02*
Y025000D01*
X032120Y023819D02*
Y025000D01*
X030939Y023819D02*
X032120D01*
X032874Y023909D02*
Y024933D01*
X032323Y023909D02*
X032874D01*
X032323D02*
Y024933D01*
X032874*
X020472Y034429D02*
Y035453D01*
X021024*
Y034429D02*
Y035453D01*
X020472Y034429D02*
X021024D01*
X021142Y033346D02*
Y034370D01*
X021693*
Y033346D02*
Y034370D01*
X021142Y033346D02*
X021693D01*
X032913Y033976D02*
X033937D01*
Y033425D02*
Y033976D01*
X032913Y033425D02*
X033937D01*
X032913D02*
Y033976D01*
X032835Y035984D02*
Y037953D01*
X033031Y038150D02*
X035000D01*
X035197Y035984D02*
Y037953D01*
X033031Y035787D02*
X035000D01*
X035039Y035630D02*
Y035787D01*
X034764Y035630D02*
Y035787D01*
X033268Y035630D02*
Y035787D01*
X032992Y035630D02*
Y035787D01*
X033268Y038150D02*
Y038307D01*
X032992Y038150D02*
Y038307D01*
X034764Y038150D02*
Y038307D01*
X035039Y038150D02*
Y038307D01*
X018819Y034390D02*
Y035413D01*
X018268Y034390D02*
X018819D01*
X018268D02*
Y035413D01*
X018819*
X016024Y034331D02*
X017047D01*
X016024D02*
Y034882D01*
X017047*
Y034331D02*
Y034882D01*
X022479Y034998D02*
X022703D01*
X022022D02*
X022246D01*
X022022Y035498D02*
X022246D01*
X022479D02*
X022703D01*
X021929Y035091D02*
Y035406D01*
X022022Y035498*
X021929Y035091D02*
X022022Y034998D01*
X022703Y035498D02*
X022795Y035406D01*
X022703Y034998D02*
X022795Y035091D01*
Y035406*
X022479Y035498D02*
X022703D01*
X022022D02*
X022246D01*
X022022Y035998D02*
X022246D01*
X022479D02*
X022703D01*
X021929Y035591D02*
Y035906D01*
X022022Y035998*
X021929Y035591D02*
X022022Y035498D01*
X022703Y035998D02*
X022795Y035906D01*
X022703Y035498D02*
X022795Y035591D01*
Y035906*
X022479Y035998D02*
X022703D01*
X022022D02*
X022246D01*
X022022Y036498D02*
X022246D01*
X022479D02*
X022703D01*
X021929Y036091D02*
Y036406D01*
X022022Y036498*
X021929Y036091D02*
X022022Y035998D01*
X022703Y036498D02*
X022795Y036406D01*
X022703Y035998D02*
X022795Y036091D01*
Y036406*
X022479Y036498D02*
X022703D01*
X022022D02*
X022246D01*
X022022Y036998D02*
X022246D01*
X022479D02*
X022703D01*
X021929Y036591D02*
Y036906D01*
X022022Y036998*
X021929Y036591D02*
X022022Y036498D01*
X022703Y036998D02*
X022795Y036906D01*
X022703Y036498D02*
X022795Y036591D01*
Y036906*
Y037091D02*
Y037406D01*
X022703Y036998D02*
X022795Y037091D01*
X022703Y037498D02*
X022795Y037406D01*
X021929Y037091D02*
X022022Y036998D01*
X021929Y037406D02*
X022022Y037498D01*
X021929Y037091D02*
Y037406D01*
X022479Y037498D02*
X022703D01*
X022022D02*
X022246D01*
X022022Y036998D02*
X022246D01*
X022479D02*
X022703D01*
X033150Y026547D02*
X033701D01*
X033150Y025524D02*
Y026547D01*
Y025524D02*
X033701D01*
Y026547*
X032323Y026232D02*
X032874D01*
X032323Y025209D02*
Y026232D01*
Y025209D02*
X032874D01*
Y026232*
X031969Y021823D02*
Y022374D01*
Y021823D02*
X032992D01*
Y022374*
X031969D02*
X032992D01*
X031969Y022531D02*
Y023083D01*
Y022531D02*
X032992D01*
Y023083*
X031969D02*
X032992D01*
X031260Y022374D02*
X031811D01*
X031260Y021350D02*
Y022374D01*
Y021350D02*
X031811D01*
Y022374*
X030512Y022354D02*
X031063D01*
X030512Y021331D02*
Y022354D01*
Y021331D02*
X031063D01*
Y022354*
X033622Y026744D02*
Y027295D01*
Y026744D02*
X034646D01*
Y027295*
X033622D02*
X034646D01*
X032382Y026806D02*
X032933D01*
Y027829*
X032382D02*
X032933D01*
X032382Y026806D02*
Y027829D01*
X009305Y032664D02*
X009370Y032599D01*
X009501*
X009567Y032664*
Y032927*
X009501Y032992*
X009370*
X009305Y032927*
X009173Y032992D02*
X009042D01*
X009108*
Y032599*
X009173Y032664*
X008845Y032992D02*
X008714D01*
X008780*
Y032599*
X008845Y032664*
X012047Y033504D02*
X011916D01*
X011982*
Y033898*
X012047*
X011916*
X011457Y033570D02*
X011522Y033504D01*
X011654*
X011719Y033570*
Y033832*
X011654Y033898*
X011522*
X011457Y033832*
X011129Y033898D02*
Y033504D01*
X011326Y033701*
X011063*
X023701Y036732D02*
Y037060D01*
X023635Y037126*
X023504*
X023438Y037060*
Y036732*
X023307Y037126D02*
X023176D01*
X023242*
Y036732*
X023307Y036798*
X009409Y029961D02*
Y029567D01*
X009213*
X009147Y029633*
Y029764*
X009213Y029829*
X009409*
X009278D02*
X009147Y029961D01*
X009016D02*
X008885D01*
X008950*
Y029567*
X009016Y029633*
X008491Y029961D02*
Y029567D01*
X008688Y029764*
X008426*
X009409Y027953D02*
Y027559D01*
X009213*
X009147Y027625*
Y027756*
X009213Y027822*
X009409*
X009278D02*
X009147Y027953D01*
X009016D02*
X008885D01*
X008950*
Y027559*
X009016Y027625*
X008688D02*
X008622Y027559D01*
X008491*
X008426Y027625*
Y027690*
X008491Y027756*
X008557*
X008491*
X008426Y027822*
Y027887*
X008491Y027953*
X008622*
X008688Y027887*
X033898Y033228D02*
Y032835D01*
X033701*
X033635Y032900*
Y033032*
X033701Y033097*
X033898*
X033766D02*
X033635Y033228D01*
X033504D02*
X033373D01*
X033438*
Y032835*
X033504Y032900*
X032914Y033228D02*
X033176D01*
X032914Y032966*
Y032900*
X032979Y032835*
X033110*
X033176Y032900*
X009409Y024252D02*
Y023858D01*
X009213*
X009147Y023924*
Y024055*
X009213Y024121*
X009409*
X009278D02*
X009147Y024252D01*
X009016D02*
X008885D01*
X008950*
Y023858*
X009016Y023924*
X008688Y024252D02*
X008557D01*
X008622*
Y023858*
X008688Y023924*
X009449Y022244D02*
Y021851D01*
X009252*
X009186Y021916*
Y022047*
X009252Y022113*
X009449*
X009318D02*
X009186Y022244D01*
X009055D02*
X008924D01*
X008990*
Y021851*
X009055Y021916*
X008727D02*
X008662Y021851D01*
X008530*
X008465Y021916*
Y022178*
X008530Y022244*
X008662*
X008727Y022178*
Y021916*
X018819Y034134D02*
Y033740D01*
X018622*
X018557Y033806*
Y033937*
X018622Y034003*
X018819*
X018688D02*
X018557Y034134D01*
X018425Y034068D02*
X018360Y034134D01*
X018229*
X018163Y034068*
Y033806*
X018229Y033740*
X018360*
X018425Y033806*
Y033871*
X018360Y033937*
X018163*
X020669Y033740D02*
Y033347D01*
X020473*
X020407Y033412*
Y033543*
X020473Y033609*
X020669*
X020538D02*
X020407Y033740D01*
X020079D02*
Y033347D01*
X020276Y033543*
X020013*
X020079Y034764D02*
Y034370D01*
X019882*
X019816Y034436*
Y034567*
X019882Y034633*
X020079*
X019948D02*
X019816Y034764D01*
X019423D02*
X019685D01*
X019423Y034501*
Y034436*
X019488Y034370*
X019620*
X019685Y034436*
X012008Y028504D02*
X011877D01*
X011942*
Y028898*
X012008*
X011877*
X011418Y028570D02*
X011483Y028504D01*
X011614*
X011680Y028570*
Y028832*
X011614Y028898*
X011483*
X011418Y028832*
X011286Y028570D02*
X011221Y028504D01*
X011090*
X011024Y028570*
Y028635*
X011090Y028701*
X011155*
X011090*
X011024Y028766*
Y028832*
X011090Y028898*
X011221*
X011286Y028832*
X012165Y022874D02*
X012034D01*
X012100*
Y023268*
X012165*
X012034*
X011575Y022940D02*
X011641Y022874D01*
X011772*
X011837Y022940*
Y023202*
X011772Y023268*
X011641*
X011575Y023202*
X011181Y023268D02*
X011444D01*
X011181Y023005*
Y022940*
X011247Y022874*
X011378*
X011444Y022940*
X022638Y037756D02*
Y038150D01*
Y037953*
X022375*
Y037756*
Y038150*
X022244Y037822D02*
X022179Y037756D01*
X022047*
X021982Y037822*
Y037887*
X022047Y037953*
X022113*
X022047*
X021982Y038018*
Y038084*
X022047Y038150*
X022179*
X022244Y038084*
X009147Y026247D02*
X009213Y026181D01*
X009344*
X009409Y026247*
Y026509*
X009344Y026575*
X009213*
X009147Y026509*
X008753Y026181D02*
X008885Y026247D01*
X009016Y026378*
Y026509*
X008950Y026575*
X008819*
X008753Y026509*
Y026444*
X008819Y026378*
X009016*
X009147Y026995D02*
X009213Y026929D01*
X009344*
X009409Y026995*
Y027257*
X009344Y027323*
X009213*
X009147Y027257*
X008753Y026929D02*
X009016D01*
Y027126*
X008885Y027060*
X008819*
X008753Y027126*
Y027257*
X008819Y027323*
X008950*
X009016Y027257*
X009147Y020499D02*
X009213Y020433D01*
X009344*
X009409Y020499*
Y020761*
X009344Y020827*
X009213*
X009147Y020761*
X008819Y020827D02*
Y020433D01*
X009016Y020630*
X008753*
X009147Y021247D02*
X009213Y021181D01*
X009344*
X009409Y021247*
Y021509*
X009344Y021575*
X009213*
X009147Y021509*
X009016Y021247D02*
X008950Y021181D01*
X008819*
X008753Y021247*
Y021312*
X008819Y021378*
X008885*
X008819*
X008753Y021444*
Y021509*
X008819Y021575*
X008950*
X009016Y021509*
X016568Y033753D02*
X016634Y033688D01*
X016765*
X016831Y033753*
Y034016*
X016765Y034081*
X016634*
X016568Y034016*
X016175Y034081D02*
X016437D01*
X016175Y033819*
Y033753*
X016240Y033688*
X016372*
X016437Y033753*
X032283Y036851D02*
Y037244D01*
X032087*
X032021Y037178*
Y037113*
X032087Y037047*
X032283*
X032087*
X032021Y036982*
Y036916*
X032087Y036851*
X032283*
X031628Y037244D02*
X031890D01*
X031628Y036982*
Y036916*
X031693Y036851*
X031824*
X031890Y036916*
X020591Y037638D02*
Y038031D01*
X020394*
X020328Y037966*
Y037900*
X020394Y037835*
X020591*
X020394*
X020328Y037769*
Y037704*
X020394Y037638*
X020591*
X020197Y038031D02*
X020066D01*
X020131*
Y037638*
X020197Y037704*
X030827Y023634D02*
Y023240D01*
X030630*
X030564Y023306*
Y023437*
X030630Y023503*
X030827*
X030696D02*
X030564Y023634D01*
X030433D02*
X030302D01*
X030368*
Y023240*
X030433Y023306*
X036811Y022610D02*
Y023004D01*
Y022807*
X036549*
Y022610*
Y023004*
X036417D02*
X036286D01*
X036352*
Y022610*
X036417Y022676*
X030787Y024146D02*
X030656D01*
X030722*
Y024539*
X030787*
X030656*
X030197Y024211D02*
X030263Y024146D01*
X030394*
X030459Y024211*
Y024474*
X030394Y024539*
X030263*
X030197Y024474*
X030066Y024539D02*
X029935D01*
X030000*
Y024146*
X030066Y024211*
X032572Y023345D02*
X032638Y023280D01*
X032769*
X032835Y023345*
Y023608*
X032769Y023673*
X032638*
X032572Y023608*
X032441Y023673D02*
X032310D01*
X032375*
Y023280*
X032441Y023345*
X032730Y020629D02*
X032795Y020563D01*
X032927*
X032992Y020629*
Y020891*
X032927Y020957*
X032795*
X032730Y020891*
X032599Y020957D02*
X032467D01*
X032533*
Y020563*
X032599Y020629*
X032271D02*
X032205Y020563D01*
X032074*
X032008Y020629*
Y020891*
X032074Y020957*
X032205*
X032271Y020891*
Y020629*
X031824Y025865D02*
X031890Y025799D01*
X032021*
X032087Y025865*
Y026127*
X032021Y026193*
X031890*
X031824Y026127*
X031693D02*
X031627Y026193D01*
X031496*
X031431Y026127*
Y025865*
X031496Y025799*
X031627*
X031693Y025865*
Y025931*
X031627Y025996*
X031431*
X030013Y021652D02*
X030079Y021587D01*
X030210*
X030276Y021652*
Y021915*
X030210Y021980*
X030079*
X030013Y021915*
X029882Y021652D02*
X029816Y021587D01*
X029685*
X029620Y021652*
Y021718*
X029685Y021784*
X029620Y021849*
Y021915*
X029685Y021980*
X029816*
X029882Y021915*
Y021849*
X029816Y021784*
X029882Y021718*
Y021652*
X029816Y021784D02*
X029685D01*
X032730Y028109D02*
X032795Y028043D01*
X032927*
X032992Y028109*
Y028371*
X032927Y028437*
X032795*
X032730Y028371*
X032599Y028043D02*
X032336D01*
Y028109*
X032599Y028371*
Y028437*
X033031Y021587D02*
Y021193D01*
X032835*
X032769Y021259*
Y021390*
X032835Y021455*
X033031*
X032900D02*
X032769Y021587D01*
X032638D02*
X032507D01*
X032572*
Y021193*
X032638Y021259*
X032310D02*
X032244Y021193D01*
X032113*
X032048Y021259*
Y021324*
X032113Y021390*
X032048Y021455*
Y021521*
X032113Y021587*
X032244*
X032310Y021521*
Y021455*
X032244Y021390*
X032310Y021324*
Y021259*
X032244Y021390D02*
X032113D01*
X034843Y026272D02*
Y025878D01*
X034646*
X034580Y025944*
Y026075*
X034646Y026140*
X034843*
X034711D02*
X034580Y026272D01*
X034449D02*
X034318D01*
X034383*
Y025878*
X034449Y025944*
X034121Y025878D02*
X033859D01*
Y025944*
X034121Y026206*
Y026272*
X031654Y020996D02*
Y020602D01*
X031457*
X031391Y020668*
Y020799*
X031457Y020865*
X031654*
X031522D02*
X031391Y020996D01*
X031260D02*
X031129D01*
X031194*
Y020602*
X031260Y020668*
X030670Y020602D02*
X030801Y020668D01*
X030932Y020799*
Y020930*
X030866Y020996*
X030735*
X030670Y020930*
Y020865*
X030735Y020799*
X030932*
X034606Y027886D02*
Y027492D01*
X034410*
X034344Y027558*
Y027689*
X034410Y027755*
X034606*
X034475D02*
X034344Y027886D01*
X034213D02*
X034082D01*
X034147*
Y027492*
X034213Y027558*
X033622Y027492D02*
X033885D01*
Y027689*
X033754Y027623*
X033688*
X033622Y027689*
Y027820*
X033688Y027886*
X033819*
X033885Y027820*
G54D21*
X023976Y038513D02*
X030376D01*
Y035513D02*
Y038513D01*
Y028963D02*
Y029263D01*
X029576Y028963D02*
X030376D01*
X023976D02*
X024776D01*
X023976D02*
Y029213D01*
Y035513D02*
Y038513D01*
X039370Y037402D02*
D01*
X039365Y037539*
X039350Y037676*
X039326Y037811*
X039293Y037944*
X039251Y038075*
X039199Y038202*
X039139Y038326*
X039070Y038445*
X038993Y038559*
X038909Y038667*
X038817Y038769*
X038718Y038865*
X038613Y038953*
X038502Y039034*
X038385Y039107*
X038264Y039171*
X038138Y039227*
X038009Y039274*
X037877Y039312*
X037742Y039341*
X037606Y039360*
X037469Y039369*
X037402Y039370*
X009843D02*
D01*
X009705Y039365*
X009568Y039350*
X009433Y039326*
X009300Y039293*
X009169Y039251*
X009042Y039199*
X008918Y039139*
X008799Y039070*
X008685Y038993*
X008577Y038909*
X008475Y038817*
X008379Y038718*
X008291Y038613*
X008210Y038502*
X008137Y038385*
X008073Y038264*
X008017Y038138*
X007970Y038009*
X007932Y037877*
X007903Y037742*
X007884Y037606*
X007875Y037469*
X007874Y037402*
Y019685D02*
X039370D01*
X023976Y036417D02*
X030374D01*
X023976D02*
Y039370D01*
X030374Y036417D02*
Y039370D01*
X039370Y019685D02*
Y037402D01*
X030374Y039370D02*
X037402D01*
X007874Y019685D02*
Y037402D01*
X009843Y039370D02*
X023976D01*
G54D27*
X026361Y037713D02*
X028241D01*
X026331Y037708D02*
X028271D01*
X026311Y037703D02*
X028291D01*
X026291Y037698D02*
X028311D01*
X026276Y037693D02*
X028326D01*
X026261Y037688D02*
X028341D01*
X026251Y037683D02*
X028351D01*
X026236Y037678D02*
X028366D01*
X028616D02*
X028666D01*
X026226Y037673D02*
X028376D01*
X028601D02*
X028676D01*
X026216Y037668D02*
X027686D01*
X028251D02*
X028386D01*
X028596D02*
X028686D01*
X026206Y037663D02*
X027656D01*
X028276D02*
X028396D01*
X028591D02*
X028626D01*
X028656D02*
X028691D01*
X026196Y037658D02*
X027641D01*
X028296D02*
X028406D01*
X028581D02*
X028611D01*
X028671D02*
X028696D01*
X026191Y037653D02*
X027621D01*
X028316D02*
X028411D01*
X028581D02*
X028606D01*
X028676D02*
X028701D01*
X026181Y037648D02*
X027611D01*
X028331D02*
X028421D01*
X028576D02*
X028596D01*
X028681D02*
X028706D01*
X026171Y037643D02*
X027596D01*
X028341D02*
X028426D01*
X028571D02*
X028591D01*
X028606D02*
X028651D01*
X028686D02*
X028706D01*
X026166Y037638D02*
X027586D01*
X028356D02*
X028436D01*
X028571D02*
X028591D01*
X028606D02*
X028666D01*
X028691D02*
X028711D01*
X026161Y037633D02*
X027576D01*
X028366D02*
X028441D01*
X028566D02*
X028586D01*
X028606D02*
X028671D01*
X028696D02*
X028711D01*
X026151Y037628D02*
X027566D01*
X028376D02*
X028451D01*
X028566D02*
X028586D01*
X028606D02*
X028621D01*
X028646D02*
X028671D01*
X028696D02*
X028716D01*
X026146Y037623D02*
X027556D01*
X028386D02*
X028456D01*
X028566D02*
X028581D01*
X028606D02*
X028621D01*
X028651D02*
X028671D01*
X028701D02*
X028716D01*
X026141Y037618D02*
X027546D01*
X028391D02*
X028461D01*
X028561D02*
X028581D01*
X028606D02*
X028621D01*
X028651D02*
X028671D01*
X028701D02*
X028716D01*
X026131Y037613D02*
X027541D01*
X028401D02*
X028471D01*
X028561D02*
X028581D01*
X028606D02*
X028621D01*
X028651D02*
X028671D01*
X028701D02*
X028716D01*
X026126Y037608D02*
X027531D01*
X028406D02*
X028476D01*
X028561D02*
X028581D01*
X028606D02*
X028671D01*
X028701D02*
X028721D01*
X026121Y037603D02*
X027526D01*
X028416D02*
X028481D01*
X028561D02*
X028581D01*
X028606D02*
X028666D01*
X028701D02*
X028721D01*
X026116Y037598D02*
X027516D01*
X028421D02*
X028486D01*
X028561D02*
X028576D01*
X028606D02*
X028656D01*
X028701D02*
X028721D01*
X026111Y037593D02*
X027511D01*
X028431D02*
X028491D01*
X028561D02*
X028581D01*
X028606D02*
X028621D01*
X028631D02*
X028656D01*
X028701D02*
X028721D01*
X026106Y037588D02*
X027506D01*
X028436D02*
X028496D01*
X028561D02*
X028581D01*
X028606D02*
X028621D01*
X028641D02*
X028661D01*
X028701D02*
X028716D01*
X026101Y037583D02*
X027501D01*
X028441D02*
X028501D01*
X028561D02*
X028581D01*
X028606D02*
X028621D01*
X028641D02*
X028666D01*
X028701D02*
X028716D01*
X026096Y037578D02*
X027491D01*
X028451D02*
X028506D01*
X028566D02*
X028581D01*
X028606D02*
X028621D01*
X028646D02*
X028666D01*
X028696D02*
X028716D01*
X026091Y037573D02*
X027486D01*
X028456D02*
X028511D01*
X028566D02*
X028586D01*
X028606D02*
X028621D01*
X028651D02*
X028671D01*
X028696D02*
X028716D01*
X026086Y037568D02*
X027481D01*
X028461D02*
X028516D01*
X028571D02*
X028586D01*
X028606D02*
X028621D01*
X028651D02*
X028676D01*
X028691D02*
X028711D01*
X026081Y037563D02*
X027476D01*
X028466D02*
X028521D01*
X028571D02*
X028591D01*
X028606D02*
X028621D01*
X028656D02*
X028676D01*
X028691D02*
X028711D01*
X026076Y037558D02*
X027471D01*
X028471D02*
X028526D01*
X028576D02*
X028596D01*
X028686D02*
X028706D01*
X026071Y037553D02*
X027466D01*
X028476D02*
X028526D01*
X028576D02*
X028601D01*
X028676D02*
X028701D01*
X026071Y037548D02*
X027461D01*
X028481D02*
X028531D01*
X028581D02*
X028611D01*
X028671D02*
X028696D01*
X026066Y037543D02*
X027461D01*
X028486D02*
X028536D01*
X028586D02*
X028621D01*
X028661D02*
X028691D01*
X026061Y037538D02*
X027456D01*
X028491D02*
X028541D01*
X028596D02*
X028686D01*
X026056Y037533D02*
X027451D01*
X028491D02*
X028546D01*
X028601D02*
X028681D01*
X026056Y037528D02*
X027446D01*
X028496D02*
X028546D01*
X028616D02*
X028666D01*
X026051Y037523D02*
X027441D01*
X028501D02*
X028551D01*
X026046Y037518D02*
X027436D01*
X028506D02*
X028556D01*
X026041Y037513D02*
X027436D01*
X028511D02*
X028556D01*
X026041Y037508D02*
X027431D01*
X028511D02*
X028561D01*
X026036Y037503D02*
X027426D01*
X028516D02*
X028566D01*
X026036Y037498D02*
X027426D01*
X028521D02*
X028566D01*
X026031Y037493D02*
X027421D01*
X028521D02*
X028571D01*
X026026Y037488D02*
X027416D01*
X028526D02*
X028571D01*
X026026Y037483D02*
X027416D01*
X028531D02*
X028576D01*
X026021Y037478D02*
X027411D01*
X028531D02*
X028581D01*
X026021Y037473D02*
X027411D01*
X028536D02*
X028581D01*
X026016Y037468D02*
X027406D01*
X028536D02*
X028586D01*
X026016Y037463D02*
X027406D01*
X028541D02*
X028586D01*
X026011Y037458D02*
X027401D01*
X028546D02*
X028591D01*
X026011Y037453D02*
X027106D01*
X027131D02*
X027401D01*
X028166D02*
X028186D01*
X028546D02*
X028591D01*
X026006Y037448D02*
X027086D01*
X027146D02*
X027396D01*
X028146D02*
X028206D01*
X028551D02*
X028591D01*
X026006Y037443D02*
X027076D01*
X027156D02*
X027396D01*
X028136D02*
X028216D01*
X028551D02*
X028596D01*
X026006Y037438D02*
X026206D01*
X026211D02*
X026216D01*
X026306D02*
X026316D01*
X026321D02*
X026536D01*
X026626D02*
X026631D01*
X026636D02*
X026646D01*
X026651D02*
X026861D01*
X026971D02*
X026976D01*
X026981D02*
X027071D01*
X027166D02*
X027391D01*
X028131D02*
X028226D01*
X028551D02*
X028596D01*
X026001Y037433D02*
X026201D01*
X026336D02*
X026536D01*
X026651D02*
X026856D01*
X026981D02*
X027066D01*
X027171D02*
X027391D01*
X027566D02*
X028021D01*
X028126D02*
X028231D01*
X028556D02*
X028601D01*
X026001Y037428D02*
X026201D01*
X026336D02*
X026536D01*
X026656D02*
X026856D01*
X026981D02*
X027061D01*
X027176D02*
X027391D01*
X027566D02*
X028026D01*
X028121D02*
X028236D01*
X028556D02*
X028601D01*
X025996Y037423D02*
X026206D01*
X026336D02*
X026531D01*
X026656D02*
X026856D01*
X026976D02*
X027056D01*
X027181D02*
X027386D01*
X027566D02*
X028021D01*
X028116D02*
X028236D01*
X028561D02*
X028601D01*
X025996Y037418D02*
X026206D01*
X026336D02*
X026531D01*
X026656D02*
X026851D01*
X026976D02*
X027051D01*
X027181D02*
X027386D01*
X027566D02*
X028021D01*
X028111D02*
X028241D01*
X028561D02*
X028606D01*
X025996Y037413D02*
X026206D01*
X026341D02*
X026531D01*
X026656D02*
X026851D01*
X026976D02*
X027051D01*
X027186D02*
X027381D01*
X027566D02*
X028021D01*
X028111D02*
X028246D01*
X028561D02*
X028606D01*
X025991Y037408D02*
X026206D01*
X026341D02*
X026526D01*
X026661D02*
X026851D01*
X026976D02*
X027046D01*
X027186D02*
X027381D01*
X027566D02*
X028021D01*
X028106D02*
X028246D01*
X028566D02*
X028611D01*
X025991Y037403D02*
X026211D01*
X026341D02*
X026526D01*
X026661D02*
X026851D01*
X026971D02*
X027046D01*
X027191D02*
X027381D01*
X027566D02*
X028021D01*
X028106D02*
X028251D01*
X028566D02*
X028611D01*
X025991Y037398D02*
X026211D01*
X026341D02*
X026526D01*
X026661D02*
X026851D01*
X026971D02*
X027046D01*
X027191D02*
X027376D01*
X027566D02*
X028021D01*
X028106D02*
X028251D01*
X028571D02*
X028611D01*
X025986Y037393D02*
X026211D01*
X026346D02*
X026521D01*
X026666D02*
X026846D01*
X026971D02*
X027041D01*
X027191D02*
X027376D01*
X027566D02*
X028021D01*
X028101D02*
X028251D01*
X028571D02*
X028611D01*
X025986Y037388D02*
X026211D01*
X026346D02*
X026521D01*
X026666D02*
X026846D01*
X026971D02*
X027041D01*
X027191D02*
X027376D01*
X027566D02*
X028021D01*
X028101D02*
X028251D01*
X028571D02*
X028616D01*
X025986Y037383D02*
X026216D01*
X026346D02*
X026521D01*
X026666D02*
X026846D01*
X026966D02*
X027041D01*
X027191D02*
X027376D01*
X027566D02*
X028021D01*
X028101D02*
X028251D01*
X028571D02*
X028616D01*
X025986Y037378D02*
X026216D01*
X026346D02*
X026521D01*
X026666D02*
X026846D01*
X026966D02*
X027041D01*
X027196D02*
X027371D01*
X027566D02*
X028021D01*
X028101D02*
X028251D01*
X028576D02*
X028616D01*
X025981Y037373D02*
X026216D01*
X026346D02*
X026516D01*
X026671D02*
X026841D01*
X026966D02*
X027041D01*
X027191D02*
X027371D01*
X027566D02*
X028021D01*
X028101D02*
X028251D01*
X028576D02*
X028621D01*
X025981Y037368D02*
X026216D01*
X026351D02*
X026516D01*
X026671D02*
X026841D01*
X026966D02*
X027041D01*
X027191D02*
X027371D01*
X027566D02*
X028021D01*
X028101D02*
X028251D01*
X028576D02*
X028621D01*
X025981Y037363D02*
X026221D01*
X026351D02*
X026516D01*
X026671D02*
X026841D01*
X026961D02*
X027046D01*
X027191D02*
X027371D01*
X027566D02*
X028021D01*
X028101D02*
X028251D01*
X028576D02*
X028621D01*
X025981Y037358D02*
X026221D01*
X026351D02*
X026511D01*
X026676D02*
X026841D01*
X026961D02*
X027046D01*
X027191D02*
X027366D01*
X027566D02*
X028021D01*
X028106D02*
X028251D01*
X028581D02*
X028621D01*
X025981Y037353D02*
X026221D01*
X026351D02*
X026511D01*
X026676D02*
X026836D01*
X026961D02*
X027046D01*
X027191D02*
X027366D01*
X027566D02*
X028021D01*
X028106D02*
X028246D01*
X028581D02*
X028621D01*
X025976Y037348D02*
X026226D01*
X026356D02*
X026511D01*
X026676D02*
X026836D01*
X026961D02*
X027046D01*
X027186D02*
X027366D01*
X027566D02*
X028021D01*
X028106D02*
X028246D01*
X028581D02*
X028626D01*
X025976Y037343D02*
X026226D01*
X026356D02*
X026511D01*
X026676D02*
X026836D01*
X026956D02*
X027051D01*
X027186D02*
X027366D01*
X027566D02*
X028021D01*
X028111D02*
X028246D01*
X028581D02*
X028626D01*
X025976Y037338D02*
X026226D01*
X026356D02*
X026506D01*
X026681D02*
X026836D01*
X026956D02*
X027051D01*
X027181D02*
X027366D01*
X027566D02*
X028021D01*
X028111D02*
X028241D01*
X028581D02*
X028626D01*
X025976Y037333D02*
X026226D01*
X026356D02*
X026506D01*
X026681D02*
X026831D01*
X026956D02*
X027056D01*
X027176D02*
X027366D01*
X027566D02*
X028021D01*
X028116D02*
X028236D01*
X028586D02*
X028626D01*
X025976Y037328D02*
X026231D01*
X026356D02*
X026506D01*
X026681D02*
X026831D01*
X026951D02*
X027061D01*
X027176D02*
X027366D01*
X027566D02*
X028021D01*
X028121D02*
X028236D01*
X028586D02*
X028626D01*
X025976Y037323D02*
X026231D01*
X026361D02*
X026501D01*
X026686D02*
X026831D01*
X026951D02*
X027066D01*
X027171D02*
X027361D01*
X027566D02*
X028026D01*
X028126D02*
X028231D01*
X028586D02*
X028626D01*
X025976Y037318D02*
X026231D01*
X026361D02*
X026501D01*
X026686D02*
X026831D01*
X026951D02*
X027071D01*
X027166D02*
X027361D01*
X027566D02*
X028021D01*
X028131D02*
X028221D01*
X028586D02*
X028626D01*
X025971Y037313D02*
X026231D01*
X026361D02*
X026501D01*
X026686D02*
X026831D01*
X026951D02*
X027081D01*
X027156D02*
X027361D01*
X027566D02*
X027701D01*
X028136D02*
X028216D01*
X028586D02*
X028631D01*
X025971Y037308D02*
X026236D01*
X026361D02*
X026496D01*
X026686D02*
X026826D01*
X026946D02*
X027091D01*
X027146D02*
X027361D01*
X027566D02*
X027701D01*
X028151D02*
X028206D01*
X028586D02*
X028631D01*
X025971Y037303D02*
X026236D01*
X026366D02*
X026496D01*
X026691D02*
X026826D01*
X026946D02*
X027111D01*
X027116D02*
X027361D01*
X027566D02*
X027701D01*
X028171D02*
X028176D01*
X028586D02*
X028631D01*
X025971Y037298D02*
X026236D01*
X026366D02*
X026496D01*
X026691D02*
X026826D01*
X026946D02*
X027361D01*
X027566D02*
X027701D01*
X028586D02*
X028631D01*
X025971Y037293D02*
X026236D01*
X026366D02*
X026496D01*
X026691D02*
X026826D01*
X026946D02*
X027361D01*
X027566D02*
X027701D01*
X028586D02*
X028631D01*
X025971Y037288D02*
X026241D01*
X026366D02*
X026491D01*
X026696D02*
X026826D01*
X026941D02*
X027361D01*
X027566D02*
X027701D01*
X028586D02*
X028631D01*
X025971Y037283D02*
X026241D01*
X026366D02*
X026491D01*
X026696D02*
X026821D01*
X026941D02*
X027361D01*
X027566D02*
X027701D01*
X028586D02*
X028631D01*
X025971Y037278D02*
X026241D01*
X026371D02*
X026491D01*
X026696D02*
X026821D01*
X026941D02*
X027361D01*
X027566D02*
X027701D01*
X028586D02*
X028631D01*
X025971Y037273D02*
X026246D01*
X026371D02*
X026486D01*
X026696D02*
X026821D01*
X026941D02*
X027361D01*
X027566D02*
X027701D01*
X028586D02*
X028631D01*
X025971Y037268D02*
X026246D01*
X026371D02*
X026486D01*
X026701D02*
X026821D01*
X026936D02*
X027361D01*
X027566D02*
X027701D01*
X028586D02*
X028631D01*
X025971Y037263D02*
X026246D01*
X026371D02*
X026486D01*
X026701D02*
X026816D01*
X026936D02*
X027361D01*
X027566D02*
X027701D01*
X028586D02*
X028631D01*
X025971Y037258D02*
X026246D01*
X026376D02*
X026486D01*
X026701D02*
X026816D01*
X026936D02*
X027361D01*
X027566D02*
X027701D01*
X028586D02*
X028631D01*
X025971Y037253D02*
X026251D01*
X026376D02*
X026481D01*
X026706D02*
X026816D01*
X026936D02*
X027361D01*
X027566D02*
X027701D01*
X028586D02*
X028631D01*
X025971Y037248D02*
X026251D01*
X026376D02*
X026481D01*
X026706D02*
X026816D01*
X026931D02*
X027361D01*
X027566D02*
X027701D01*
X028586D02*
X028631D01*
X025971Y037243D02*
X026251D01*
X026376D02*
X026481D01*
X026586D02*
X026591D01*
X026706D02*
X026811D01*
X026931D02*
X027051D01*
X027181D02*
X027361D01*
X027566D02*
X027701D01*
X028111D02*
X028241D01*
X028586D02*
X028631D01*
X025971Y037238D02*
X026251D01*
X026381D02*
X026476D01*
X026586D02*
X026596D01*
X026706D02*
X026811D01*
X026931D02*
X027051D01*
X027181D02*
X027361D01*
X027566D02*
X027701D01*
X028111D02*
X028241D01*
X028586D02*
X028631D01*
X025971Y037233D02*
X026256D01*
X026381D02*
X026476D01*
X026586D02*
X026596D01*
X026711D02*
X026811D01*
X026926D02*
X027051D01*
X027181D02*
X027361D01*
X027566D02*
X027701D01*
X028111D02*
X028241D01*
X028586D02*
X028631D01*
X025971Y037228D02*
X026256D01*
X026381D02*
X026476D01*
X026586D02*
X026596D01*
X026711D02*
X026811D01*
X026926D02*
X027051D01*
X027181D02*
X027361D01*
X027566D02*
X027701D01*
X028111D02*
X028241D01*
X028586D02*
X028631D01*
X025971Y037223D02*
X026256D01*
X026381D02*
X026471D01*
X026581D02*
X026596D01*
X026711D02*
X026806D01*
X026926D02*
X027051D01*
X027181D02*
X027361D01*
X027566D02*
X027701D01*
X028111D02*
X028241D01*
X028586D02*
X028631D01*
X025971Y037218D02*
X026256D01*
X026381D02*
X026471D01*
X026581D02*
X026601D01*
X026711D02*
X026806D01*
X026926D02*
X027056D01*
X027181D02*
X027361D01*
X027566D02*
X027701D01*
X028111D02*
X028241D01*
X028586D02*
X028631D01*
X025971Y037213D02*
X026261D01*
X026386D02*
X026471D01*
X026581D02*
X026601D01*
X026716D02*
X026806D01*
X026921D02*
X027051D01*
X027181D02*
X027361D01*
X027566D02*
X027701D01*
X028111D02*
X028241D01*
X028586D02*
X028631D01*
X025971Y037208D02*
X026261D01*
X026386D02*
X026471D01*
X026576D02*
X026601D01*
X026716D02*
X026806D01*
X026921D02*
X027051D01*
X027181D02*
X027361D01*
X027566D02*
X027701D01*
X028111D02*
X028241D01*
X028586D02*
X028631D01*
X025971Y037203D02*
X026261D01*
X026386D02*
X026466D01*
X026576D02*
X026606D01*
X026716D02*
X026806D01*
X026921D02*
X027051D01*
X027181D02*
X027361D01*
X027566D02*
X027701D01*
X028111D02*
X028241D01*
X028586D02*
X028631D01*
X025971Y037198D02*
X026266D01*
X026386D02*
X026466D01*
X026576D02*
X026606D01*
X026721D02*
X026801D01*
X026921D02*
X027051D01*
X027181D02*
X027361D01*
X027566D02*
X027701D01*
X028111D02*
X028241D01*
X028586D02*
X028631D01*
X025971Y037193D02*
X026266D01*
X026391D02*
X026466D01*
X026576D02*
X026606D01*
X026721D02*
X026801D01*
X026916D02*
X027051D01*
X027181D02*
X027361D01*
X027566D02*
X027701D01*
X028111D02*
X028241D01*
X028586D02*
X028631D01*
X025971Y037188D02*
X026266D01*
X026391D02*
X026461D01*
X026571D02*
X026606D01*
X026721D02*
X026801D01*
X026916D02*
X027051D01*
X027181D02*
X027361D01*
X027566D02*
X028001D01*
X028111D02*
X028241D01*
X028586D02*
X028631D01*
X025971Y037183D02*
X026266D01*
X026391D02*
X026461D01*
X026571D02*
X026611D01*
X026721D02*
X026801D01*
X026916D02*
X027051D01*
X027181D02*
X027361D01*
X027566D02*
X028001D01*
X028111D02*
X028241D01*
X028586D02*
X028631D01*
X025971Y037178D02*
X026271D01*
X026391D02*
X026461D01*
X026571D02*
X026611D01*
X026726D02*
X026796D01*
X026916D02*
X027051D01*
X027181D02*
X027361D01*
X027566D02*
X028001D01*
X028111D02*
X028241D01*
X028586D02*
X028631D01*
X025971Y037173D02*
X026271D01*
X026391D02*
X026456D01*
X026566D02*
X026611D01*
X026726D02*
X026796D01*
X026911D02*
X027051D01*
X027181D02*
X027361D01*
X027566D02*
X028001D01*
X028111D02*
X028241D01*
X028586D02*
X028631D01*
X025971Y037168D02*
X026271D01*
X026396D02*
X026456D01*
X026566D02*
X026616D01*
X026726D02*
X026796D01*
X026911D02*
X027051D01*
X027181D02*
X027361D01*
X027566D02*
X028001D01*
X028111D02*
X028241D01*
X028586D02*
X028631D01*
X025971Y037163D02*
X026271D01*
X026396D02*
X026456D01*
X026566D02*
X026616D01*
X026731D02*
X026796D01*
X026911D02*
X027051D01*
X027181D02*
X027361D01*
X027566D02*
X028001D01*
X028111D02*
X028241D01*
X028586D02*
X028631D01*
X025971Y037158D02*
X026276D01*
X026396D02*
X026456D01*
X026566D02*
X026616D01*
X026731D02*
X026791D01*
X026906D02*
X027051D01*
X027181D02*
X027361D01*
X027566D02*
X028001D01*
X028111D02*
X028241D01*
X028586D02*
X028631D01*
X025971Y037153D02*
X026276D01*
X026396D02*
X026451D01*
X026561D02*
X026616D01*
X026731D02*
X026791D01*
X026906D02*
X027051D01*
X027181D02*
X027361D01*
X027566D02*
X028001D01*
X028111D02*
X028241D01*
X028586D02*
X028631D01*
X025971Y037148D02*
X026276D01*
X026401D02*
X026451D01*
X026561D02*
X026621D01*
X026731D02*
X026791D01*
X026906D02*
X027051D01*
X027181D02*
X027361D01*
X027566D02*
X028001D01*
X028111D02*
X028241D01*
X028586D02*
X028631D01*
X025971Y037143D02*
X026281D01*
X026401D02*
X026451D01*
X026561D02*
X026621D01*
X026736D02*
X026791D01*
X026906D02*
X027051D01*
X027181D02*
X027361D01*
X027566D02*
X028001D01*
X028111D02*
X028241D01*
X028586D02*
X028631D01*
X025971Y037138D02*
X026281D01*
X026401D02*
X026446D01*
X026556D02*
X026621D01*
X026736D02*
X026791D01*
X026901D02*
X027051D01*
X027181D02*
X027361D01*
X027566D02*
X028001D01*
X028111D02*
X028241D01*
X028586D02*
X028631D01*
X025971Y037133D02*
X026281D01*
X026401D02*
X026446D01*
X026556D02*
X026626D01*
X026736D02*
X026786D01*
X026901D02*
X027051D01*
X027181D02*
X027361D01*
X027566D02*
X028001D01*
X028111D02*
X028241D01*
X028586D02*
X028631D01*
X025971Y037128D02*
X026281D01*
X026401D02*
X026446D01*
X026556D02*
X026626D01*
X026741D02*
X026786D01*
X026901D02*
X027051D01*
X027181D02*
X027361D01*
X027566D02*
X028001D01*
X028111D02*
X028241D01*
X028586D02*
X028631D01*
X025971Y037123D02*
X026286D01*
X026406D02*
X026446D01*
X026556D02*
X026626D01*
X026741D02*
X026786D01*
X026901D02*
X027051D01*
X027181D02*
X027361D01*
X027566D02*
X028001D01*
X028111D02*
X028241D01*
X028586D02*
X028631D01*
X025971Y037118D02*
X026286D01*
X026406D02*
X026441D01*
X026551D02*
X026626D01*
X026741D02*
X026786D01*
X026896D02*
X027051D01*
X027181D02*
X027361D01*
X027566D02*
X028001D01*
X028111D02*
X028241D01*
X028586D02*
X028631D01*
X025971Y037113D02*
X026286D01*
X026406D02*
X026441D01*
X026551D02*
X026631D01*
X026746D02*
X026781D01*
X026896D02*
X027051D01*
X027181D02*
X027361D01*
X027566D02*
X028001D01*
X028111D02*
X028241D01*
X028586D02*
X028631D01*
X025971Y037108D02*
X026286D01*
X026406D02*
X026441D01*
X026551D02*
X026631D01*
X026746D02*
X026781D01*
X026896D02*
X027051D01*
X027181D02*
X027361D01*
X027566D02*
X028001D01*
X028111D02*
X028241D01*
X028586D02*
X028631D01*
X025971Y037103D02*
X026291D01*
X026411D02*
X026436D01*
X026546D02*
X026631D01*
X026746D02*
X026781D01*
X026896D02*
X027051D01*
X027181D02*
X027361D01*
X027566D02*
X028001D01*
X028111D02*
X028241D01*
X028586D02*
X028631D01*
X025971Y037098D02*
X026291D01*
X026411D02*
X026436D01*
X026546D02*
X026636D01*
X026746D02*
X026781D01*
X026891D02*
X027051D01*
X027181D02*
X027361D01*
X027566D02*
X028001D01*
X028111D02*
X028241D01*
X028586D02*
X028631D01*
X025971Y037093D02*
X026291D01*
X026411D02*
X026436D01*
X026546D02*
X026636D01*
X026751D02*
X026776D01*
X026891D02*
X027051D01*
X027181D02*
X027361D01*
X027566D02*
X028001D01*
X028111D02*
X028241D01*
X028586D02*
X028631D01*
X025971Y037088D02*
X026291D01*
X026411D02*
X026431D01*
X026546D02*
X026636D01*
X026751D02*
X026776D01*
X026891D02*
X027051D01*
X027181D02*
X027361D01*
X027566D02*
X028001D01*
X028111D02*
X028241D01*
X028586D02*
X028631D01*
X025971Y037083D02*
X026296D01*
X026411D02*
X026431D01*
X026541D02*
X026636D01*
X026751D02*
X026776D01*
X026891D02*
X027051D01*
X027181D02*
X027361D01*
X027566D02*
X028001D01*
X028111D02*
X028241D01*
X028586D02*
X028631D01*
X025971Y037078D02*
X026296D01*
X026416D02*
X026431D01*
X026541D02*
X026641D01*
X026751D02*
X026776D01*
X026886D02*
X027051D01*
X027181D02*
X027361D01*
X027566D02*
X028001D01*
X028111D02*
X028241D01*
X028586D02*
X028631D01*
X025971Y037073D02*
X026296D01*
X026416D02*
X026431D01*
X026541D02*
X026641D01*
X026756D02*
X026776D01*
X026886D02*
X027051D01*
X027181D02*
X027361D01*
X027566D02*
X028001D01*
X028111D02*
X028241D01*
X028586D02*
X028631D01*
X025971Y037068D02*
X026301D01*
X026416D02*
X026426D01*
X026536D02*
X026641D01*
X026756D02*
X026771D01*
X026886D02*
X027051D01*
X027181D02*
X027361D01*
X027566D02*
X028001D01*
X028111D02*
X028241D01*
X028586D02*
X028631D01*
X025971Y037063D02*
X026301D01*
X026416D02*
X026426D01*
X026536D02*
X026646D01*
X026756D02*
X026771D01*
X026881D02*
X027051D01*
X027181D02*
X027361D01*
X027566D02*
X027701D01*
X028111D02*
X028241D01*
X028586D02*
X028631D01*
X025971Y037058D02*
X026301D01*
X026421D02*
X026426D01*
X026536D02*
X026646D01*
X026761D02*
X026771D01*
X026881D02*
X027051D01*
X027181D02*
X027361D01*
X027566D02*
X027701D01*
X028111D02*
X028241D01*
X028586D02*
X028631D01*
X025971Y037053D02*
X026301D01*
X026536D02*
X026646D01*
X026761D02*
X026771D01*
X026881D02*
X027051D01*
X027181D02*
X027361D01*
X027566D02*
X027701D01*
X028111D02*
X028241D01*
X028586D02*
X028631D01*
X025971Y037048D02*
X026306D01*
X026531D02*
X026646D01*
X026761D02*
X026766D01*
X026881D02*
X027051D01*
X027181D02*
X027361D01*
X027566D02*
X027701D01*
X028111D02*
X028241D01*
X028586D02*
X028631D01*
X025971Y037043D02*
X026306D01*
X026531D02*
X026651D01*
X026761D02*
X026766D01*
X026876D02*
X027051D01*
X027181D02*
X027361D01*
X027566D02*
X027701D01*
X028111D02*
X028241D01*
X028586D02*
X028631D01*
X025971Y037038D02*
X026306D01*
X026531D02*
X026651D01*
X026876D02*
X027051D01*
X027181D02*
X027361D01*
X027566D02*
X027701D01*
X028111D02*
X028241D01*
X028586D02*
X028631D01*
X025971Y037033D02*
X026306D01*
X026526D02*
X026651D01*
X026876D02*
X027051D01*
X027181D02*
X027361D01*
X027566D02*
X027701D01*
X028111D02*
X028241D01*
X028586D02*
X028631D01*
X025971Y037028D02*
X026311D01*
X026526D02*
X026656D01*
X026876D02*
X027051D01*
X027181D02*
X027361D01*
X027566D02*
X027701D01*
X028111D02*
X028241D01*
X028586D02*
X028631D01*
X025971Y037023D02*
X026311D01*
X026526D02*
X026656D01*
X026871D02*
X027051D01*
X027181D02*
X027361D01*
X027566D02*
X027701D01*
X028111D02*
X028241D01*
X028586D02*
X028631D01*
X025971Y037018D02*
X026311D01*
X026521D02*
X026656D01*
X026871D02*
X027051D01*
X027181D02*
X027361D01*
X027566D02*
X027701D01*
X028111D02*
X028241D01*
X028586D02*
X028631D01*
X025971Y037013D02*
X026316D01*
X026521D02*
X026661D01*
X026871D02*
X027051D01*
X027181D02*
X027361D01*
X027566D02*
X027701D01*
X028111D02*
X028241D01*
X028586D02*
X028631D01*
X025971Y037008D02*
X026316D01*
X026521D02*
X026661D01*
X026871D02*
X027051D01*
X027181D02*
X027361D01*
X027566D02*
X027701D01*
X028111D02*
X028241D01*
X028586D02*
X028631D01*
X025971Y037003D02*
X026316D01*
X026521D02*
X026661D01*
X026866D02*
X027051D01*
X027181D02*
X027361D01*
X027566D02*
X027701D01*
X028111D02*
X028241D01*
X028586D02*
X028631D01*
X025971Y036998D02*
X026316D01*
X026516D02*
X026661D01*
X026866D02*
X027051D01*
X027181D02*
X027361D01*
X027566D02*
X027701D01*
X028111D02*
X028241D01*
X028586D02*
X028631D01*
X025971Y036993D02*
X026321D01*
X026516D02*
X026666D01*
X026866D02*
X027051D01*
X027181D02*
X027361D01*
X027566D02*
X027701D01*
X028111D02*
X028241D01*
X028586D02*
X028631D01*
X025971Y036988D02*
X026321D01*
X026516D02*
X026666D01*
X026866D02*
X027051D01*
X027181D02*
X027361D01*
X027566D02*
X027701D01*
X028111D02*
X028241D01*
X028586D02*
X028631D01*
X025971Y036983D02*
X026321D01*
X026511D02*
X026666D01*
X026861D02*
X027051D01*
X027181D02*
X027361D01*
X027566D02*
X027701D01*
X028111D02*
X028241D01*
X028586D02*
X028631D01*
X025971Y036978D02*
X026321D01*
X026511D02*
X026666D01*
X026861D02*
X027051D01*
X027181D02*
X027361D01*
X027566D02*
X027701D01*
X028111D02*
X028241D01*
X028586D02*
X028631D01*
X025971Y036973D02*
X026326D01*
X026511D02*
X026671D01*
X026861D02*
X027051D01*
X027181D02*
X027361D01*
X027566D02*
X027701D01*
X028111D02*
X028241D01*
X028586D02*
X028631D01*
X025971Y036968D02*
X026326D01*
X026511D02*
X026671D01*
X026856D02*
X027051D01*
X027181D02*
X027361D01*
X027566D02*
X027701D01*
X028111D02*
X028241D01*
X028586D02*
X028631D01*
X025971Y036963D02*
X026326D01*
X026506D02*
X026671D01*
X026856D02*
X027051D01*
X027181D02*
X027361D01*
X027566D02*
X027701D01*
X028111D02*
X028241D01*
X028586D02*
X028631D01*
X025971Y036958D02*
X026326D01*
X026506D02*
X026676D01*
X026856D02*
X027051D01*
X027181D02*
X027361D01*
X027566D02*
X027701D01*
X028111D02*
X028241D01*
X028586D02*
X028631D01*
X025971Y036953D02*
X026331D01*
X026506D02*
X026676D01*
X026856D02*
X027051D01*
X027181D02*
X027361D01*
X027566D02*
X027701D01*
X028111D02*
X028241D01*
X028586D02*
X028631D01*
X025971Y036948D02*
X026331D01*
X026501D02*
X026676D01*
X026851D02*
X027051D01*
X027181D02*
X027361D01*
X027566D02*
X027701D01*
X028111D02*
X028241D01*
X028586D02*
X028631D01*
X025976Y036943D02*
X026331D01*
X026501D02*
X026676D01*
X026851D02*
X027051D01*
X027181D02*
X027361D01*
X027566D02*
X027701D01*
X028111D02*
X028241D01*
X028586D02*
X028626D01*
X025976Y036938D02*
X026336D01*
X026501D02*
X026681D01*
X026851D02*
X027051D01*
X027181D02*
X027356D01*
X027566D02*
X027701D01*
X028111D02*
X028241D01*
X028586D02*
X028626D01*
X025976Y036933D02*
X026336D01*
X026501D02*
X026681D01*
X026851D02*
X027051D01*
X027181D02*
X027356D01*
X027566D02*
X027701D01*
X028111D02*
X028241D01*
X028586D02*
X028626D01*
X025976Y036928D02*
X026336D01*
X026496D02*
X026681D01*
X026846D02*
X027051D01*
X027181D02*
X027356D01*
X027566D02*
X027701D01*
X028111D02*
X028241D01*
X028586D02*
X028626D01*
X025976Y036923D02*
X026336D01*
X026496D02*
X026686D01*
X026846D02*
X027051D01*
X027181D02*
X027356D01*
X027566D02*
X027701D01*
X028111D02*
X028241D01*
X028581D02*
X028626D01*
X025976Y036918D02*
X026341D01*
X026496D02*
X026686D01*
X026846D02*
X027051D01*
X027181D02*
X027356D01*
X027566D02*
X027701D01*
X028111D02*
X028241D01*
X028581D02*
X028626D01*
X025976Y036913D02*
X026341D01*
X026491D02*
X026686D01*
X026846D02*
X027051D01*
X027181D02*
X027356D01*
X027566D02*
X027701D01*
X028111D02*
X028241D01*
X028581D02*
X028621D01*
X025981Y036908D02*
X026341D01*
X026491D02*
X026691D01*
X026841D02*
X027051D01*
X027181D02*
X027356D01*
X027566D02*
X027701D01*
X028111D02*
X028241D01*
X028581D02*
X028621D01*
X025981Y036903D02*
X026341D01*
X026491D02*
X026691D01*
X026841D02*
X027051D01*
X027181D02*
X027356D01*
X027566D02*
X027701D01*
X028111D02*
X028241D01*
X028581D02*
X028621D01*
X025981Y036898D02*
X026346D01*
X026491D02*
X026691D01*
X026841D02*
X027051D01*
X027181D02*
X027351D01*
X027566D02*
X027701D01*
X028111D02*
X028241D01*
X028576D02*
X028621D01*
X025981Y036893D02*
X026346D01*
X026486D02*
X026691D01*
X026841D02*
X027051D01*
X027181D02*
X027351D01*
X027566D02*
X027701D01*
X028111D02*
X028241D01*
X028576D02*
X028621D01*
X025981Y036888D02*
X026346D01*
X026486D02*
X026696D01*
X026836D02*
X027051D01*
X027181D02*
X027351D01*
X027566D02*
X027701D01*
X028111D02*
X028241D01*
X028576D02*
X028616D01*
X025986Y036883D02*
X026346D01*
X026486D02*
X026696D01*
X026836D02*
X027051D01*
X027181D02*
X027351D01*
X027566D02*
X027701D01*
X028111D02*
X028241D01*
X028576D02*
X028616D01*
X025986Y036878D02*
X026351D01*
X026481D02*
X026696D01*
X026836D02*
X027051D01*
X027181D02*
X027351D01*
X027566D02*
X027701D01*
X028111D02*
X028241D01*
X028571D02*
X028616D01*
X025986Y036873D02*
X026351D01*
X026481D02*
X026701D01*
X026831D02*
X027051D01*
X027181D02*
X027346D01*
X027566D02*
X027701D01*
X028111D02*
X028241D01*
X028571D02*
X028616D01*
X025991Y036868D02*
X026351D01*
X026481D02*
X026701D01*
X026831D02*
X027051D01*
X027181D02*
X027346D01*
X027566D02*
X027701D01*
X028111D02*
X028241D01*
X028571D02*
X028611D01*
X025991Y036863D02*
X026356D01*
X026481D02*
X026701D01*
X026831D02*
X027051D01*
X027181D02*
X027346D01*
X027566D02*
X027701D01*
X028111D02*
X028241D01*
X028566D02*
X028611D01*
X025991Y036858D02*
X026356D01*
X026476D02*
X026701D01*
X026831D02*
X027051D01*
X027181D02*
X027346D01*
X027566D02*
X027701D01*
X028111D02*
X028241D01*
X028566D02*
X028611D01*
X025991Y036853D02*
X026356D01*
X026476D02*
X026706D01*
X026826D02*
X027056D01*
X027181D02*
X027341D01*
X027566D02*
X027701D01*
X028111D02*
X028241D01*
X028566D02*
X028606D01*
X025996Y036848D02*
X026356D01*
X026476D02*
X026706D01*
X026826D02*
X027056D01*
X027181D02*
X027341D01*
X027566D02*
X027701D01*
X028111D02*
X028241D01*
X028561D02*
X028606D01*
X025996Y036843D02*
X026361D01*
X026471D02*
X026706D01*
X026826D02*
X027051D01*
X027181D02*
X027341D01*
X027566D02*
X027701D01*
X028111D02*
X028241D01*
X028561D02*
X028606D01*
X026001Y036838D02*
X026361D01*
X026471D02*
X026711D01*
X026826D02*
X027051D01*
X027181D02*
X027341D01*
X027566D02*
X027701D01*
X028111D02*
X028241D01*
X028561D02*
X028601D01*
X026001Y036833D02*
X026361D01*
X026471D02*
X026711D01*
X026821D02*
X027051D01*
X027181D02*
X027336D01*
X027566D02*
X027701D01*
X028111D02*
X028241D01*
X028556D02*
X028601D01*
X026001Y036828D02*
X026366D01*
X026376D02*
X026381D01*
X026461D02*
X026711D01*
X026721D02*
X026726D01*
X026731D02*
X026741D01*
X026821D02*
X027056D01*
X027181D02*
X027336D01*
X027576D02*
X027701D01*
X028121D02*
X028131D01*
X028141D02*
X028221D01*
X028236D02*
X028241D01*
X028556D02*
X028601D01*
X026006Y036823D02*
X027336D01*
X028551D02*
X028596D01*
X026006Y036818D02*
X027331D01*
X028551D02*
X028596D01*
X026011Y036813D02*
X027331D01*
X028546D02*
X028591D01*
X026011Y036808D02*
X027331D01*
X028546D02*
X028591D01*
X026011Y036803D02*
X027326D01*
X028541D02*
X028586D01*
X026016Y036798D02*
X027326D01*
X028541D02*
X028586D01*
X026016Y036793D02*
X027321D01*
X028536D02*
X028581D01*
X026021Y036788D02*
X027321D01*
X028536D02*
X028581D01*
X026021Y036783D02*
X027321D01*
X028531D02*
X028576D01*
X026026Y036778D02*
X027316D01*
X028531D02*
X028576D01*
X026031Y036773D02*
X027316D01*
X028526D02*
X028571D01*
X026031Y036768D02*
X027311D01*
X028521D02*
X028571D01*
X026036Y036763D02*
X027311D01*
X028521D02*
X028566D01*
X026036Y036758D02*
X027306D01*
X028516D02*
X028566D01*
X026041Y036753D02*
X027306D01*
X028511D02*
X028561D01*
X026046Y036748D02*
X027301D01*
X028506D02*
X028556D01*
X026046Y036743D02*
X027301D01*
X028506D02*
X028556D01*
X026051Y036738D02*
X027296D01*
X028501D02*
X028551D01*
X026056Y036733D02*
X027296D01*
X028496D02*
X028546D01*
X026061Y036728D02*
X027291D01*
X028491D02*
X028541D01*
X026061Y036723D02*
X027286D01*
X028486D02*
X028541D01*
X026066Y036718D02*
X027286D01*
X028481D02*
X028536D01*
X026071Y036713D02*
X027281D01*
X028481D02*
X028531D01*
X026076Y036708D02*
X027276D01*
X028476D02*
X028526D01*
X026076Y036703D02*
X027276D01*
X028471D02*
X028521D01*
X026081Y036698D02*
X027271D01*
X028466D02*
X028521D01*
X026086Y036693D02*
X027266D01*
X028456D02*
X028516D01*
X026091Y036688D02*
X027266D01*
X028451D02*
X028511D01*
X026096Y036683D02*
X027261D01*
X028446D02*
X028506D01*
X026101Y036678D02*
X027256D01*
X028441D02*
X028501D01*
X026106Y036673D02*
X027251D01*
X028436D02*
X028496D01*
X026111Y036668D02*
X027246D01*
X028426D02*
X028491D01*
X026116Y036663D02*
X027246D01*
X028421D02*
X028486D01*
X026121Y036658D02*
X027241D01*
X028416D02*
X028481D01*
X026131Y036653D02*
X027236D01*
X028406D02*
X028471D01*
X026136Y036648D02*
X027231D01*
X028401D02*
X028466D01*
X026141Y036643D02*
X027226D01*
X028391D02*
X028461D01*
X026146Y036638D02*
X027221D01*
X028381D02*
X028456D01*
X026151Y036633D02*
X027216D01*
X028371D02*
X028446D01*
X026161Y036628D02*
X027211D01*
X028361D02*
X028441D01*
X026166Y036623D02*
X027206D01*
X028351D02*
X028436D01*
X026176Y036618D02*
X027201D01*
X028341D02*
X028426D01*
X026181Y036613D02*
X027196D01*
X028326D02*
X028421D01*
X026191Y036608D02*
X027191D01*
X028311D02*
X028411D01*
X026201Y036603D02*
X027186D01*
X028296D02*
X028401D01*
X026211Y036598D02*
X027176D01*
X028271D02*
X028391D01*
X026221Y036593D02*
X027171D01*
X028236D02*
X028381D01*
X026231Y036588D02*
X028371D01*
X026241Y036583D02*
X028361D01*
X026251Y036578D02*
X028351D01*
X026266Y036573D02*
X028336D01*
X026281Y036568D02*
X028321D01*
X026296Y036563D02*
X028306D01*
X026316Y036558D02*
X028286D01*
X026341Y036553D02*
X028266D01*
X026376Y036548D02*
X028226D01*
M02*