solid OpenSCAD_Model
  facet normal -1 0 0
    outer loop
      vertex 0 0 0
      vertex 0 3.5 16.5
      vertex 0 3.5 0
    endloop
  endfacet
  facet normal -1 -0 0
    outer loop
      vertex 0 3.5 16.5
      vertex 0 0 0
      vertex 0 0 16.5
    endloop
  endfacet
  facet normal 0 0 1
    outer loop
      vertex 2 3.5 16.5
      vertex 0 3.5 16.5
      vertex 2 1.75 16.5
    endloop
  endfacet
  facet normal 0 0 1
    outer loop
      vertex 28.5 1.75 16.5
      vertex 30.5 3.5 16.5
      vertex 28.5 3.5 16.5
    endloop
  endfacet
  facet normal 0 0 1
    outer loop
      vertex 30.5 3.5 16.5
      vertex 28.5 1.75 16.5
      vertex 30.5 0 16.5
    endloop
  endfacet
  facet normal -0 0 1
    outer loop
      vertex 2 1.75 16.5
      vertex 30.5 0 16.5
      vertex 28.5 1.75 16.5
    endloop
  endfacet
  facet normal 0 0 1
    outer loop
      vertex 2 1.75 16.5
      vertex 0 0 16.5
      vertex 30.5 0 16.5
    endloop
  endfacet
  facet normal 0 0 1
    outer loop
      vertex 0 0 16.5
      vertex 2 1.75 16.5
      vertex 0 3.5 16.5
    endloop
  endfacet
  facet normal 1 -0 0
    outer loop
      vertex 30.5 0 16.5
      vertex 30.5 3.5 0
      vertex 30.5 3.5 16.5
    endloop
  endfacet
  facet normal 1 0 0
    outer loop
      vertex 30.5 3.5 0
      vertex 30.5 0 16.5
      vertex 30.5 0 0
    endloop
  endfacet
  facet normal 0 1 0
    outer loop
      vertex 30.5 3.5 16.5
      vertex 28.5 3.5 15
      vertex 28.5 3.5 16.5
    endloop
  endfacet
  facet normal 0 1 0
    outer loop
      vertex 28.5 3.5 15
      vertex 30.5 3.5 0
      vertex 2 3.5 15
    endloop
  endfacet
  facet normal 0 1 -0
    outer loop
      vertex 30.5 3.5 0
      vertex 28.5 3.5 15
      vertex 30.5 3.5 16.5
    endloop
  endfacet
  facet normal 0 1 -0
    outer loop
      vertex 2 3.5 15
      vertex 0 3.5 16.5
      vertex 2 3.5 16.5
    endloop
  endfacet
  facet normal 0 1 0
    outer loop
      vertex 2 3.5 15
      vertex 0 3.5 0
      vertex 0 3.5 16.5
    endloop
  endfacet
  facet normal 0 1 0
    outer loop
      vertex 0 3.5 0
      vertex 2 3.5 15
      vertex 30.5 3.5 0
    endloop
  endfacet
  facet normal 0 0 -1
    outer loop
      vertex 0 0 0
      vertex 30.5 3.5 0
      vertex 30.5 0 0
    endloop
  endfacet
  facet normal -0 0 -1
    outer loop
      vertex 30.5 3.5 0
      vertex 0 0 0
      vertex 0 3.5 0
    endloop
  endfacet
  facet normal 0 -1 0
    outer loop
      vertex 0 0 0
      vertex 30.5 0 16.5
      vertex 0 0 16.5
    endloop
  endfacet
  facet normal 0 -1 -0
    outer loop
      vertex 30.5 0 16.5
      vertex 0 0 0
      vertex 30.5 0 0
    endloop
  endfacet
  facet normal 1 -0 0
    outer loop
      vertex 2 1.75 16.5
      vertex 2 3.5 15
      vertex 2 3.5 16.5
    endloop
  endfacet
  facet normal 1 0 0
    outer loop
      vertex 2 3.5 15
      vertex 2 1.75 16.5
      vertex 2 1.75 15
    endloop
  endfacet
  facet normal -1 0 0
    outer loop
      vertex 28.5 1.75 15
      vertex 28.5 3.5 16.5
      vertex 28.5 3.5 15
    endloop
  endfacet
  facet normal -1 -0 0
    outer loop
      vertex 28.5 3.5 16.5
      vertex 28.5 1.75 15
      vertex 28.5 1.75 16.5
    endloop
  endfacet
  facet normal -0 0 1
    outer loop
      vertex 2 3.5 15
      vertex 28.5 1.75 15
      vertex 28.5 3.5 15
    endloop
  endfacet
  facet normal 0 0 1
    outer loop
      vertex 28.5 1.75 15
      vertex 2 3.5 15
      vertex 2 1.75 15
    endloop
  endfacet
  facet normal 0 1 -0
    outer loop
      vertex 28.5 1.75 15
      vertex 2 1.75 16.5
      vertex 28.5 1.75 16.5
    endloop
  endfacet
  facet normal 0 1 0
    outer loop
      vertex 2 1.75 16.5
      vertex 28.5 1.75 15
      vertex 2 1.75 15
    endloop
  endfacet
endsolid OpenSCAD_Model
