G04 #@! TF.FileFunction,Other,User*
%FSLAX46Y46*%
G04 Gerber Fmt 4.6, Leading zero omitted, Abs format (unit mm)*
G04 Created by KiCad (PCBNEW 4.0.5+dfsg1-4) date Wed May  3 19:23:34 2017*
%MOMM*%
%LPD*%
G01*
G04 APERTURE LIST*
%ADD10C,0.100000*%
%ADD11C,0.050000*%
G04 APERTURE END LIST*
D10*
D11*
X144192500Y-102603500D02*
X144192500Y-105803500D01*
X142192500Y-102603500D02*
X142192500Y-105803500D01*
X144192500Y-102603500D02*
X142192500Y-102603500D01*
X144192500Y-105803500D02*
X142192500Y-105803500D01*
X185450000Y-126000000D02*
G75*
G03X185450000Y-126000000I-3450000J0D01*
G01*
X150015000Y-91285000D02*
X163715000Y-91285000D01*
X150015000Y-87785000D02*
X163715000Y-87785000D01*
X150015000Y-91285000D02*
X150015000Y-87785000D01*
X163715000Y-91285000D02*
X163715000Y-87785000D01*
X150015000Y-93825000D02*
X163715000Y-93825000D01*
X150015000Y-90325000D02*
X163715000Y-90325000D01*
X150015000Y-93825000D02*
X150015000Y-90325000D01*
X163715000Y-93825000D02*
X163715000Y-90325000D01*
X177320000Y-92230000D02*
X177320000Y-105930000D01*
X180820000Y-92230000D02*
X180820000Y-105930000D01*
X177320000Y-92230000D02*
X180820000Y-92230000D01*
X177320000Y-105930000D02*
X180820000Y-105930000D01*
X179860000Y-92230000D02*
X179860000Y-105930000D01*
X183360000Y-92230000D02*
X183360000Y-105930000D01*
X179860000Y-92230000D02*
X183360000Y-92230000D01*
X179860000Y-105930000D02*
X183360000Y-105930000D01*
X179877000Y-108502000D02*
X179877000Y-122202000D01*
X183377000Y-108502000D02*
X183377000Y-122202000D01*
X179877000Y-108502000D02*
X183377000Y-108502000D01*
X179877000Y-122202000D02*
X183377000Y-122202000D01*
X177337000Y-108502000D02*
X177337000Y-122202000D01*
X180837000Y-108502000D02*
X180837000Y-122202000D01*
X177337000Y-108502000D02*
X180837000Y-108502000D01*
X177337000Y-122202000D02*
X180837000Y-122202000D01*
X150396000Y-113002000D02*
X164096000Y-113002000D01*
X150396000Y-109502000D02*
X164096000Y-109502000D01*
X150396000Y-113002000D02*
X150396000Y-109502000D01*
X164096000Y-113002000D02*
X164096000Y-109502000D01*
X150396000Y-115542000D02*
X164096000Y-115542000D01*
X150396000Y-112042000D02*
X164096000Y-112042000D01*
X150396000Y-115542000D02*
X150396000Y-112042000D01*
X164096000Y-115542000D02*
X164096000Y-112042000D01*
X169544000Y-125081000D02*
X169544000Y-128281000D01*
X167544000Y-125081000D02*
X167544000Y-128281000D01*
X169544000Y-125081000D02*
X167544000Y-125081000D01*
X169544000Y-128281000D02*
X167544000Y-128281000D01*
X172132500Y-102603500D02*
X172132500Y-105803500D01*
X170132500Y-102603500D02*
X170132500Y-105803500D01*
X172132500Y-102603500D02*
X170132500Y-102603500D01*
X172132500Y-105803500D02*
X170132500Y-105803500D01*
X163242500Y-102603500D02*
X163242500Y-105803500D01*
X161242500Y-102603500D02*
X161242500Y-105803500D01*
X163242500Y-102603500D02*
X161242500Y-102603500D01*
X163242500Y-105803500D02*
X161242500Y-105803500D01*
X156892500Y-102603500D02*
X156892500Y-105803500D01*
X154892500Y-102603500D02*
X154892500Y-105803500D01*
X156892500Y-102603500D02*
X154892500Y-102603500D01*
X156892500Y-105803500D02*
X154892500Y-105803500D01*
X150542500Y-102603500D02*
X150542500Y-105803500D01*
X148542500Y-102603500D02*
X148542500Y-105803500D01*
X150542500Y-102603500D02*
X148542500Y-102603500D01*
X150542500Y-105803500D02*
X148542500Y-105803500D01*
X144144000Y-125081000D02*
X144144000Y-128281000D01*
X142144000Y-125081000D02*
X142144000Y-128281000D01*
X144144000Y-125081000D02*
X142144000Y-125081000D01*
X144144000Y-128281000D02*
X142144000Y-128281000D01*
X153034000Y-125081000D02*
X153034000Y-128281000D01*
X151034000Y-125081000D02*
X151034000Y-128281000D01*
X153034000Y-125081000D02*
X151034000Y-125081000D01*
X153034000Y-128281000D02*
X151034000Y-128281000D01*
X159384000Y-125081000D02*
X159384000Y-128281000D01*
X157384000Y-125081000D02*
X157384000Y-128281000D01*
X159384000Y-125081000D02*
X157384000Y-125081000D01*
X159384000Y-128281000D02*
X157384000Y-128281000D01*
X165734000Y-125081000D02*
X165734000Y-128281000D01*
X163734000Y-125081000D02*
X163734000Y-128281000D01*
X165734000Y-125081000D02*
X163734000Y-125081000D01*
X165734000Y-128281000D02*
X163734000Y-128281000D01*
X169592500Y-102603500D02*
X169592500Y-105803500D01*
X167592500Y-102603500D02*
X167592500Y-105803500D01*
X169592500Y-102603500D02*
X167592500Y-102603500D01*
X169592500Y-105803500D02*
X167592500Y-105803500D01*
X165782500Y-102603500D02*
X165782500Y-105803500D01*
X163782500Y-102603500D02*
X163782500Y-105803500D01*
X165782500Y-102603500D02*
X163782500Y-102603500D01*
X165782500Y-105803500D02*
X163782500Y-105803500D01*
X159432500Y-102603500D02*
X159432500Y-105803500D01*
X157432500Y-102603500D02*
X157432500Y-105803500D01*
X159432500Y-102603500D02*
X157432500Y-102603500D01*
X159432500Y-105803500D02*
X157432500Y-105803500D01*
X153082500Y-102603500D02*
X153082500Y-105803500D01*
X151082500Y-102603500D02*
X151082500Y-105803500D01*
X153082500Y-102603500D02*
X151082500Y-102603500D01*
X153082500Y-105803500D02*
X151082500Y-105803500D01*
X146732500Y-102603500D02*
X146732500Y-105803500D01*
X144732500Y-102603500D02*
X144732500Y-105803500D01*
X146732500Y-102603500D02*
X144732500Y-102603500D01*
X146732500Y-105803500D02*
X144732500Y-105803500D01*
X146684000Y-125081000D02*
X146684000Y-128281000D01*
X144684000Y-125081000D02*
X144684000Y-128281000D01*
X146684000Y-125081000D02*
X144684000Y-125081000D01*
X146684000Y-128281000D02*
X144684000Y-128281000D01*
X150494000Y-125081000D02*
X150494000Y-128281000D01*
X148494000Y-125081000D02*
X148494000Y-128281000D01*
X150494000Y-125081000D02*
X148494000Y-125081000D01*
X150494000Y-128281000D02*
X148494000Y-128281000D01*
X163194000Y-125081000D02*
X163194000Y-128281000D01*
X161194000Y-125081000D02*
X161194000Y-128281000D01*
X163194000Y-125081000D02*
X161194000Y-125081000D01*
X163194000Y-128281000D02*
X161194000Y-128281000D01*
X172084000Y-125081000D02*
X172084000Y-128281000D01*
X170084000Y-125081000D02*
X170084000Y-128281000D01*
X172084000Y-125081000D02*
X170084000Y-125081000D01*
X172084000Y-128281000D02*
X170084000Y-128281000D01*
X115450000Y-86000000D02*
G75*
G03X115450000Y-86000000I-3450000J0D01*
G01*
X115450000Y-126000000D02*
G75*
G03X115450000Y-126000000I-3450000J0D01*
G01*
X185450000Y-86000000D02*
G75*
G03X185450000Y-86000000I-3450000J0D01*
G01*
X156839000Y-125066000D02*
X156839000Y-128266000D01*
X154839000Y-125066000D02*
X154839000Y-128266000D01*
X156839000Y-125066000D02*
X154839000Y-125066000D01*
X156839000Y-128266000D02*
X154839000Y-128266000D01*
M02*
