G04 #@! TF.FileFunction,Drawing*
%FSLAX46Y46*%
G04 Gerber Fmt 4.6, Leading zero omitted, Abs format (unit mm)*
G04 Created by KiCad (PCBNEW 4.0.5+dfsg1-4) date Wed May  3 19:23:34 2017*
%MOMM*%
%LPD*%
G01*
G04 APERTURE LIST*
%ADD10C,0.100000*%
%ADD11C,0.300000*%
G04 APERTURE END LIST*
D10*
D11*
X241724571Y-85305001D02*
X241796000Y-85376430D01*
X241867429Y-85519287D01*
X241867429Y-85876430D01*
X241796000Y-86019287D01*
X241724571Y-86090716D01*
X241581714Y-86162144D01*
X241438857Y-86162144D01*
X241224571Y-86090716D01*
X240367429Y-85233573D01*
X240367429Y-86162144D01*
X240438857Y-86876429D02*
X240367429Y-86876429D01*
X240224571Y-86805001D01*
X240153143Y-86733572D01*
X241867429Y-88233573D02*
X241867429Y-87519287D01*
X241153143Y-87447858D01*
X241224571Y-87519287D01*
X241296000Y-87662144D01*
X241296000Y-88019287D01*
X241224571Y-88162144D01*
X241153143Y-88233573D01*
X241010286Y-88305001D01*
X240653143Y-88305001D01*
X240510286Y-88233573D01*
X240438857Y-88162144D01*
X240367429Y-88019287D01*
X240367429Y-87662144D01*
X240438857Y-87519287D01*
X240510286Y-87447858D01*
X241367429Y-89590715D02*
X240367429Y-89590715D01*
X241938857Y-89233572D02*
X240867429Y-88876429D01*
X240867429Y-89805001D01*
X241867429Y-90662143D02*
X241867429Y-90805000D01*
X241796000Y-90947857D01*
X241724571Y-91019286D01*
X241581714Y-91090715D01*
X241296000Y-91162143D01*
X240938857Y-91162143D01*
X240653143Y-91090715D01*
X240510286Y-91019286D01*
X240438857Y-90947857D01*
X240367429Y-90805000D01*
X240367429Y-90662143D01*
X240438857Y-90519286D01*
X240510286Y-90447857D01*
X240653143Y-90376429D01*
X240938857Y-90305000D01*
X241296000Y-90305000D01*
X241581714Y-90376429D01*
X241724571Y-90447857D01*
X241796000Y-90519286D01*
X241867429Y-90662143D01*
X240367429Y-92947857D02*
X241367429Y-92947857D01*
X241224571Y-92947857D02*
X241296000Y-93019285D01*
X241367429Y-93162143D01*
X241367429Y-93376428D01*
X241296000Y-93519285D01*
X241153143Y-93590714D01*
X240367429Y-93590714D01*
X241153143Y-93590714D02*
X241296000Y-93662143D01*
X241367429Y-93805000D01*
X241367429Y-94019285D01*
X241296000Y-94162143D01*
X241153143Y-94233571D01*
X240367429Y-94233571D01*
X240367429Y-94947857D02*
X241367429Y-94947857D01*
X241224571Y-94947857D02*
X241296000Y-95019285D01*
X241367429Y-95162143D01*
X241367429Y-95376428D01*
X241296000Y-95519285D01*
X241153143Y-95590714D01*
X240367429Y-95590714D01*
X241153143Y-95590714D02*
X241296000Y-95662143D01*
X241367429Y-95805000D01*
X241367429Y-96019285D01*
X241296000Y-96162143D01*
X241153143Y-96233571D01*
X240367429Y-96233571D01*
X236474000Y-89535000D02*
X236474000Y-92075000D01*
X161925000Y-89535000D02*
X239174000Y-89535000D01*
X161925000Y-92075000D02*
X239174000Y-92075000D01*
X236474000Y-92075000D02*
X235887579Y-90948496D01*
X236474000Y-92075000D02*
X237060421Y-90948496D01*
X236474000Y-89535000D02*
X235887579Y-90661504D01*
X236474000Y-89535000D02*
X237060421Y-90661504D01*
X174840001Y-67901429D02*
X174911430Y-67830000D01*
X175054287Y-67758571D01*
X175411430Y-67758571D01*
X175554287Y-67830000D01*
X175625716Y-67901429D01*
X175697144Y-68044286D01*
X175697144Y-68187143D01*
X175625716Y-68401429D01*
X174768573Y-69258571D01*
X175697144Y-69258571D01*
X176411429Y-69187143D02*
X176411429Y-69258571D01*
X176340001Y-69401429D01*
X176268572Y-69472857D01*
X177768573Y-67758571D02*
X177054287Y-67758571D01*
X176982858Y-68472857D01*
X177054287Y-68401429D01*
X177197144Y-68330000D01*
X177554287Y-68330000D01*
X177697144Y-68401429D01*
X177768573Y-68472857D01*
X177840001Y-68615714D01*
X177840001Y-68972857D01*
X177768573Y-69115714D01*
X177697144Y-69187143D01*
X177554287Y-69258571D01*
X177197144Y-69258571D01*
X177054287Y-69187143D01*
X176982858Y-69115714D01*
X179125715Y-68258571D02*
X179125715Y-69258571D01*
X178768572Y-67687143D02*
X178411429Y-68758571D01*
X179340001Y-68758571D01*
X180197143Y-67758571D02*
X180340000Y-67758571D01*
X180482857Y-67830000D01*
X180554286Y-67901429D01*
X180625715Y-68044286D01*
X180697143Y-68330000D01*
X180697143Y-68687143D01*
X180625715Y-68972857D01*
X180554286Y-69115714D01*
X180482857Y-69187143D01*
X180340000Y-69258571D01*
X180197143Y-69258571D01*
X180054286Y-69187143D01*
X179982857Y-69115714D01*
X179911429Y-68972857D01*
X179840000Y-68687143D01*
X179840000Y-68330000D01*
X179911429Y-68044286D01*
X179982857Y-67901429D01*
X180054286Y-67830000D01*
X180197143Y-67758571D01*
X182482857Y-69258571D02*
X182482857Y-68258571D01*
X182482857Y-68401429D02*
X182554285Y-68330000D01*
X182697143Y-68258571D01*
X182911428Y-68258571D01*
X183054285Y-68330000D01*
X183125714Y-68472857D01*
X183125714Y-69258571D01*
X183125714Y-68472857D02*
X183197143Y-68330000D01*
X183340000Y-68258571D01*
X183554285Y-68258571D01*
X183697143Y-68330000D01*
X183768571Y-68472857D01*
X183768571Y-69258571D01*
X184482857Y-69258571D02*
X184482857Y-68258571D01*
X184482857Y-68401429D02*
X184554285Y-68330000D01*
X184697143Y-68258571D01*
X184911428Y-68258571D01*
X185054285Y-68330000D01*
X185125714Y-68472857D01*
X185125714Y-69258571D01*
X185125714Y-68472857D02*
X185197143Y-68330000D01*
X185340000Y-68258571D01*
X185554285Y-68258571D01*
X185697143Y-68330000D01*
X185768571Y-68472857D01*
X185768571Y-69258571D01*
X179070000Y-72898000D02*
X181610000Y-72898000D01*
X179070000Y-93980000D02*
X179070000Y-70198000D01*
X181610000Y-93980000D02*
X181610000Y-70198000D01*
X181610000Y-72898000D02*
X180483496Y-73484421D01*
X181610000Y-72898000D02*
X180483496Y-72311579D01*
X179070000Y-72898000D02*
X180196504Y-73484421D01*
X179070000Y-72898000D02*
X180196504Y-72311579D01*
X175094001Y-144609429D02*
X175165430Y-144538000D01*
X175308287Y-144466571D01*
X175665430Y-144466571D01*
X175808287Y-144538000D01*
X175879716Y-144609429D01*
X175951144Y-144752286D01*
X175951144Y-144895143D01*
X175879716Y-145109429D01*
X175022573Y-145966571D01*
X175951144Y-145966571D01*
X176665429Y-145895143D02*
X176665429Y-145966571D01*
X176594001Y-146109429D01*
X176522572Y-146180857D01*
X178022573Y-144466571D02*
X177308287Y-144466571D01*
X177236858Y-145180857D01*
X177308287Y-145109429D01*
X177451144Y-145038000D01*
X177808287Y-145038000D01*
X177951144Y-145109429D01*
X178022573Y-145180857D01*
X178094001Y-145323714D01*
X178094001Y-145680857D01*
X178022573Y-145823714D01*
X177951144Y-145895143D01*
X177808287Y-145966571D01*
X177451144Y-145966571D01*
X177308287Y-145895143D01*
X177236858Y-145823714D01*
X179379715Y-144966571D02*
X179379715Y-145966571D01*
X179022572Y-144395143D02*
X178665429Y-145466571D01*
X179594001Y-145466571D01*
X180451143Y-144466571D02*
X180594000Y-144466571D01*
X180736857Y-144538000D01*
X180808286Y-144609429D01*
X180879715Y-144752286D01*
X180951143Y-145038000D01*
X180951143Y-145395143D01*
X180879715Y-145680857D01*
X180808286Y-145823714D01*
X180736857Y-145895143D01*
X180594000Y-145966571D01*
X180451143Y-145966571D01*
X180308286Y-145895143D01*
X180236857Y-145823714D01*
X180165429Y-145680857D01*
X180094000Y-145395143D01*
X180094000Y-145038000D01*
X180165429Y-144752286D01*
X180236857Y-144609429D01*
X180308286Y-144538000D01*
X180451143Y-144466571D01*
X182736857Y-145966571D02*
X182736857Y-144966571D01*
X182736857Y-145109429D02*
X182808285Y-145038000D01*
X182951143Y-144966571D01*
X183165428Y-144966571D01*
X183308285Y-145038000D01*
X183379714Y-145180857D01*
X183379714Y-145966571D01*
X183379714Y-145180857D02*
X183451143Y-145038000D01*
X183594000Y-144966571D01*
X183808285Y-144966571D01*
X183951143Y-145038000D01*
X184022571Y-145180857D01*
X184022571Y-145966571D01*
X184736857Y-145966571D02*
X184736857Y-144966571D01*
X184736857Y-145109429D02*
X184808285Y-145038000D01*
X184951143Y-144966571D01*
X185165428Y-144966571D01*
X185308285Y-145038000D01*
X185379714Y-145180857D01*
X185379714Y-145966571D01*
X185379714Y-145180857D02*
X185451143Y-145038000D01*
X185594000Y-144966571D01*
X185808285Y-144966571D01*
X185951143Y-145038000D01*
X186022571Y-145180857D01*
X186022571Y-145966571D01*
X179070000Y-140970000D02*
X181610000Y-140970000D01*
X179070000Y-120396000D02*
X179070000Y-143670000D01*
X181610000Y-120396000D02*
X181610000Y-143670000D01*
X181610000Y-140970000D02*
X180483496Y-141556421D01*
X181610000Y-140970000D02*
X180483496Y-140383579D01*
X179070000Y-140970000D02*
X180196504Y-141556421D01*
X179070000Y-140970000D02*
X180196504Y-140383579D01*
X91864571Y-107022001D02*
X91936000Y-107093430D01*
X92007429Y-107236287D01*
X92007429Y-107593430D01*
X91936000Y-107736287D01*
X91864571Y-107807716D01*
X91721714Y-107879144D01*
X91578857Y-107879144D01*
X91364571Y-107807716D01*
X90507429Y-106950573D01*
X90507429Y-107879144D01*
X90578857Y-108593429D02*
X90507429Y-108593429D01*
X90364571Y-108522001D01*
X90293143Y-108450572D01*
X92007429Y-109950573D02*
X92007429Y-109236287D01*
X91293143Y-109164858D01*
X91364571Y-109236287D01*
X91436000Y-109379144D01*
X91436000Y-109736287D01*
X91364571Y-109879144D01*
X91293143Y-109950573D01*
X91150286Y-110022001D01*
X90793143Y-110022001D01*
X90650286Y-109950573D01*
X90578857Y-109879144D01*
X90507429Y-109736287D01*
X90507429Y-109379144D01*
X90578857Y-109236287D01*
X90650286Y-109164858D01*
X91507429Y-111307715D02*
X90507429Y-111307715D01*
X92078857Y-110950572D02*
X91007429Y-110593429D01*
X91007429Y-111522001D01*
X92007429Y-112379143D02*
X92007429Y-112522000D01*
X91936000Y-112664857D01*
X91864571Y-112736286D01*
X91721714Y-112807715D01*
X91436000Y-112879143D01*
X91078857Y-112879143D01*
X90793143Y-112807715D01*
X90650286Y-112736286D01*
X90578857Y-112664857D01*
X90507429Y-112522000D01*
X90507429Y-112379143D01*
X90578857Y-112236286D01*
X90650286Y-112164857D01*
X90793143Y-112093429D01*
X91078857Y-112022000D01*
X91436000Y-112022000D01*
X91721714Y-112093429D01*
X91864571Y-112164857D01*
X91936000Y-112236286D01*
X92007429Y-112379143D01*
X90507429Y-114664857D02*
X91507429Y-114664857D01*
X91364571Y-114664857D02*
X91436000Y-114736285D01*
X91507429Y-114879143D01*
X91507429Y-115093428D01*
X91436000Y-115236285D01*
X91293143Y-115307714D01*
X90507429Y-115307714D01*
X91293143Y-115307714D02*
X91436000Y-115379143D01*
X91507429Y-115522000D01*
X91507429Y-115736285D01*
X91436000Y-115879143D01*
X91293143Y-115950571D01*
X90507429Y-115950571D01*
X90507429Y-116664857D02*
X91507429Y-116664857D01*
X91364571Y-116664857D02*
X91436000Y-116736285D01*
X91507429Y-116879143D01*
X91507429Y-117093428D01*
X91436000Y-117236285D01*
X91293143Y-117307714D01*
X90507429Y-117307714D01*
X91293143Y-117307714D02*
X91436000Y-117379143D01*
X91507429Y-117522000D01*
X91507429Y-117736285D01*
X91436000Y-117879143D01*
X91293143Y-117950571D01*
X90507429Y-117950571D01*
X95504000Y-111252000D02*
X95504000Y-113792000D01*
X152146000Y-111252000D02*
X92804000Y-111252000D01*
X152146000Y-113792000D02*
X92804000Y-113792000D01*
X95504000Y-113792000D02*
X94917579Y-112665496D01*
X95504000Y-113792000D02*
X96090421Y-112665496D01*
X95504000Y-111252000D02*
X94917579Y-112378504D01*
X95504000Y-111252000D02*
X96090421Y-112378504D01*
X220357429Y-102045001D02*
X220357429Y-101330715D01*
X219643143Y-101259286D01*
X219714571Y-101330715D01*
X219786000Y-101473572D01*
X219786000Y-101830715D01*
X219714571Y-101973572D01*
X219643143Y-102045001D01*
X219500286Y-102116429D01*
X219143143Y-102116429D01*
X219000286Y-102045001D01*
X218928857Y-101973572D01*
X218857429Y-101830715D01*
X218857429Y-101473572D01*
X218928857Y-101330715D01*
X219000286Y-101259286D01*
X220357429Y-103045000D02*
X220357429Y-103187857D01*
X220286000Y-103330714D01*
X220214571Y-103402143D01*
X220071714Y-103473572D01*
X219786000Y-103545000D01*
X219428857Y-103545000D01*
X219143143Y-103473572D01*
X219000286Y-103402143D01*
X218928857Y-103330714D01*
X218857429Y-103187857D01*
X218857429Y-103045000D01*
X218928857Y-102902143D01*
X219000286Y-102830714D01*
X219143143Y-102759286D01*
X219428857Y-102687857D01*
X219786000Y-102687857D01*
X220071714Y-102759286D01*
X220214571Y-102830714D01*
X220286000Y-102902143D01*
X220357429Y-103045000D01*
X218928857Y-104259285D02*
X218857429Y-104259285D01*
X218714571Y-104187857D01*
X218643143Y-104116428D01*
X220357429Y-105187857D02*
X220357429Y-105330714D01*
X220286000Y-105473571D01*
X220214571Y-105545000D01*
X220071714Y-105616429D01*
X219786000Y-105687857D01*
X219428857Y-105687857D01*
X219143143Y-105616429D01*
X219000286Y-105545000D01*
X218928857Y-105473571D01*
X218857429Y-105330714D01*
X218857429Y-105187857D01*
X218928857Y-105045000D01*
X219000286Y-104973571D01*
X219143143Y-104902143D01*
X219428857Y-104830714D01*
X219786000Y-104830714D01*
X220071714Y-104902143D01*
X220214571Y-104973571D01*
X220286000Y-105045000D01*
X220357429Y-105187857D01*
X218857429Y-107473571D02*
X219857429Y-107473571D01*
X219714571Y-107473571D02*
X219786000Y-107544999D01*
X219857429Y-107687857D01*
X219857429Y-107902142D01*
X219786000Y-108044999D01*
X219643143Y-108116428D01*
X218857429Y-108116428D01*
X219643143Y-108116428D02*
X219786000Y-108187857D01*
X219857429Y-108330714D01*
X219857429Y-108544999D01*
X219786000Y-108687857D01*
X219643143Y-108759285D01*
X218857429Y-108759285D01*
X218857429Y-109473571D02*
X219857429Y-109473571D01*
X219714571Y-109473571D02*
X219786000Y-109544999D01*
X219857429Y-109687857D01*
X219857429Y-109902142D01*
X219786000Y-110044999D01*
X219643143Y-110116428D01*
X218857429Y-110116428D01*
X219643143Y-110116428D02*
X219786000Y-110187857D01*
X219857429Y-110330714D01*
X219857429Y-110544999D01*
X219786000Y-110687857D01*
X219643143Y-110759285D01*
X218857429Y-110759285D01*
X218186000Y-81026000D02*
X218186000Y-131064000D01*
X186944000Y-81026000D02*
X220886000Y-81026000D01*
X186944000Y-131064000D02*
X220886000Y-131064000D01*
X218186000Y-131064000D02*
X217599579Y-129937496D01*
X218186000Y-131064000D02*
X218772421Y-129937496D01*
X218186000Y-81026000D02*
X217599579Y-82152504D01*
X218186000Y-81026000D02*
X218772421Y-82152504D01*
X142439001Y-135537429D02*
X142296143Y-135466000D01*
X142224715Y-135394571D01*
X142153286Y-135251714D01*
X142153286Y-135180286D01*
X142224715Y-135037429D01*
X142296143Y-134966000D01*
X142439001Y-134894571D01*
X142724715Y-134894571D01*
X142867572Y-134966000D01*
X142939001Y-135037429D01*
X143010429Y-135180286D01*
X143010429Y-135251714D01*
X142939001Y-135394571D01*
X142867572Y-135466000D01*
X142724715Y-135537429D01*
X142439001Y-135537429D01*
X142296143Y-135608857D01*
X142224715Y-135680286D01*
X142153286Y-135823143D01*
X142153286Y-136108857D01*
X142224715Y-136251714D01*
X142296143Y-136323143D01*
X142439001Y-136394571D01*
X142724715Y-136394571D01*
X142867572Y-136323143D01*
X142939001Y-136251714D01*
X143010429Y-136108857D01*
X143010429Y-135823143D01*
X142939001Y-135680286D01*
X142867572Y-135608857D01*
X142724715Y-135537429D01*
X143939000Y-134894571D02*
X144081857Y-134894571D01*
X144224714Y-134966000D01*
X144296143Y-135037429D01*
X144367572Y-135180286D01*
X144439000Y-135466000D01*
X144439000Y-135823143D01*
X144367572Y-136108857D01*
X144296143Y-136251714D01*
X144224714Y-136323143D01*
X144081857Y-136394571D01*
X143939000Y-136394571D01*
X143796143Y-136323143D01*
X143724714Y-136251714D01*
X143653286Y-136108857D01*
X143581857Y-135823143D01*
X143581857Y-135466000D01*
X143653286Y-135180286D01*
X143724714Y-135037429D01*
X143796143Y-134966000D01*
X143939000Y-134894571D01*
X145153285Y-136323143D02*
X145153285Y-136394571D01*
X145081857Y-136537429D01*
X145010428Y-136608857D01*
X146081857Y-134894571D02*
X146224714Y-134894571D01*
X146367571Y-134966000D01*
X146439000Y-135037429D01*
X146510429Y-135180286D01*
X146581857Y-135466000D01*
X146581857Y-135823143D01*
X146510429Y-136108857D01*
X146439000Y-136251714D01*
X146367571Y-136323143D01*
X146224714Y-136394571D01*
X146081857Y-136394571D01*
X145939000Y-136323143D01*
X145867571Y-136251714D01*
X145796143Y-136108857D01*
X145724714Y-135823143D01*
X145724714Y-135466000D01*
X145796143Y-135180286D01*
X145867571Y-135037429D01*
X145939000Y-134966000D01*
X146081857Y-134894571D01*
X148367571Y-136394571D02*
X148367571Y-135394571D01*
X148367571Y-135537429D02*
X148438999Y-135466000D01*
X148581857Y-135394571D01*
X148796142Y-135394571D01*
X148938999Y-135466000D01*
X149010428Y-135608857D01*
X149010428Y-136394571D01*
X149010428Y-135608857D02*
X149081857Y-135466000D01*
X149224714Y-135394571D01*
X149438999Y-135394571D01*
X149581857Y-135466000D01*
X149653285Y-135608857D01*
X149653285Y-136394571D01*
X150367571Y-136394571D02*
X150367571Y-135394571D01*
X150367571Y-135537429D02*
X150438999Y-135466000D01*
X150581857Y-135394571D01*
X150796142Y-135394571D01*
X150938999Y-135466000D01*
X151010428Y-135608857D01*
X151010428Y-136394571D01*
X151010428Y-135608857D02*
X151081857Y-135466000D01*
X151224714Y-135394571D01*
X151438999Y-135394571D01*
X151581857Y-135466000D01*
X151653285Y-135608857D01*
X151653285Y-136394571D01*
X106934000Y-134366000D02*
X186944000Y-134366000D01*
X106934000Y-131064000D02*
X106934000Y-137066000D01*
X186944000Y-131064000D02*
X186944000Y-137066000D01*
X186944000Y-134366000D02*
X185817496Y-134952421D01*
X186944000Y-134366000D02*
X185817496Y-133779579D01*
X106934000Y-134366000D02*
X108060504Y-134952421D01*
X106934000Y-134366000D02*
X108060504Y-133779579D01*
X105680287Y-98365571D02*
X104966001Y-98365571D01*
X104894572Y-99079857D01*
X104966001Y-99008429D01*
X105108858Y-98937000D01*
X105466001Y-98937000D01*
X105608858Y-99008429D01*
X105680287Y-99079857D01*
X105751715Y-99222714D01*
X105751715Y-99579857D01*
X105680287Y-99722714D01*
X105608858Y-99794143D01*
X105466001Y-99865571D01*
X105108858Y-99865571D01*
X104966001Y-99794143D01*
X104894572Y-99722714D01*
X106466000Y-99794143D02*
X106466000Y-99865571D01*
X106394572Y-100008429D01*
X106323143Y-100079857D01*
X107394572Y-98365571D02*
X107537429Y-98365571D01*
X107680286Y-98437000D01*
X107751715Y-98508429D01*
X107823144Y-98651286D01*
X107894572Y-98937000D01*
X107894572Y-99294143D01*
X107823144Y-99579857D01*
X107751715Y-99722714D01*
X107680286Y-99794143D01*
X107537429Y-99865571D01*
X107394572Y-99865571D01*
X107251715Y-99794143D01*
X107180286Y-99722714D01*
X107108858Y-99579857D01*
X107037429Y-99294143D01*
X107037429Y-98937000D01*
X107108858Y-98651286D01*
X107180286Y-98508429D01*
X107251715Y-98437000D01*
X107394572Y-98365571D01*
X109680286Y-99865571D02*
X109680286Y-98865571D01*
X109680286Y-99008429D02*
X109751714Y-98937000D01*
X109894572Y-98865571D01*
X110108857Y-98865571D01*
X110251714Y-98937000D01*
X110323143Y-99079857D01*
X110323143Y-99865571D01*
X110323143Y-99079857D02*
X110394572Y-98937000D01*
X110537429Y-98865571D01*
X110751714Y-98865571D01*
X110894572Y-98937000D01*
X110966000Y-99079857D01*
X110966000Y-99865571D01*
X111680286Y-99865571D02*
X111680286Y-98865571D01*
X111680286Y-99008429D02*
X111751714Y-98937000D01*
X111894572Y-98865571D01*
X112108857Y-98865571D01*
X112251714Y-98937000D01*
X112323143Y-99079857D01*
X112323143Y-99865571D01*
X112323143Y-99079857D02*
X112394572Y-98937000D01*
X112537429Y-98865571D01*
X112751714Y-98865571D01*
X112894572Y-98937000D01*
X112966000Y-99079857D01*
X112966000Y-99865571D01*
X112014000Y-91440000D02*
X106934000Y-91440000D01*
X112014000Y-86106000D02*
X112014000Y-94140000D01*
X106934000Y-86106000D02*
X106934000Y-94140000D01*
X106934000Y-91440000D02*
X108060504Y-90853579D01*
X106934000Y-91440000D02*
X108060504Y-92026421D01*
X112014000Y-91440000D02*
X110887496Y-90853579D01*
X112014000Y-91440000D02*
X110887496Y-92026421D01*
X96325429Y-80280287D02*
X96325429Y-79566001D01*
X95611143Y-79494572D01*
X95682571Y-79566001D01*
X95754000Y-79708858D01*
X95754000Y-80066001D01*
X95682571Y-80208858D01*
X95611143Y-80280287D01*
X95468286Y-80351715D01*
X95111143Y-80351715D01*
X94968286Y-80280287D01*
X94896857Y-80208858D01*
X94825429Y-80066001D01*
X94825429Y-79708858D01*
X94896857Y-79566001D01*
X94968286Y-79494572D01*
X94896857Y-81066000D02*
X94825429Y-81066000D01*
X94682571Y-80994572D01*
X94611143Y-80923143D01*
X96325429Y-81994572D02*
X96325429Y-82137429D01*
X96254000Y-82280286D01*
X96182571Y-82351715D01*
X96039714Y-82423144D01*
X95754000Y-82494572D01*
X95396857Y-82494572D01*
X95111143Y-82423144D01*
X94968286Y-82351715D01*
X94896857Y-82280286D01*
X94825429Y-82137429D01*
X94825429Y-81994572D01*
X94896857Y-81851715D01*
X94968286Y-81780286D01*
X95111143Y-81708858D01*
X95396857Y-81637429D01*
X95754000Y-81637429D01*
X96039714Y-81708858D01*
X96182571Y-81780286D01*
X96254000Y-81851715D01*
X96325429Y-81994572D01*
X94825429Y-84280286D02*
X95825429Y-84280286D01*
X95682571Y-84280286D02*
X95754000Y-84351714D01*
X95825429Y-84494572D01*
X95825429Y-84708857D01*
X95754000Y-84851714D01*
X95611143Y-84923143D01*
X94825429Y-84923143D01*
X95611143Y-84923143D02*
X95754000Y-84994572D01*
X95825429Y-85137429D01*
X95825429Y-85351714D01*
X95754000Y-85494572D01*
X95611143Y-85566000D01*
X94825429Y-85566000D01*
X94825429Y-86280286D02*
X95825429Y-86280286D01*
X95682571Y-86280286D02*
X95754000Y-86351714D01*
X95825429Y-86494572D01*
X95825429Y-86708857D01*
X95754000Y-86851714D01*
X95611143Y-86923143D01*
X94825429Y-86923143D01*
X95611143Y-86923143D02*
X95754000Y-86994572D01*
X95825429Y-87137429D01*
X95825429Y-87351714D01*
X95754000Y-87494572D01*
X95611143Y-87566000D01*
X94825429Y-87566000D01*
X99822000Y-81026000D02*
X99822000Y-86106000D01*
X112014000Y-81026000D02*
X97122000Y-81026000D01*
X112014000Y-86106000D02*
X97122000Y-86106000D01*
X99822000Y-86106000D02*
X99235579Y-84979496D01*
X99822000Y-86106000D02*
X100408421Y-84979496D01*
X99822000Y-81026000D02*
X99235579Y-82152504D01*
X99822000Y-81026000D02*
X100408421Y-82152504D01*
X110785715Y-68971429D02*
X110857144Y-68900000D01*
X111000001Y-68828571D01*
X111357144Y-68828571D01*
X111500001Y-68900000D01*
X111571430Y-68971429D01*
X111642858Y-69114286D01*
X111642858Y-69257143D01*
X111571430Y-69471429D01*
X110714287Y-70328571D01*
X111642858Y-70328571D01*
X112571429Y-68828571D02*
X112714286Y-68828571D01*
X112857143Y-68900000D01*
X112928572Y-68971429D01*
X113000001Y-69114286D01*
X113071429Y-69400000D01*
X113071429Y-69757143D01*
X113000001Y-70042857D01*
X112928572Y-70185714D01*
X112857143Y-70257143D01*
X112714286Y-70328571D01*
X112571429Y-70328571D01*
X112428572Y-70257143D01*
X112357143Y-70185714D01*
X112285715Y-70042857D01*
X112214286Y-69757143D01*
X112214286Y-69400000D01*
X112285715Y-69114286D01*
X112357143Y-68971429D01*
X112428572Y-68900000D01*
X112571429Y-68828571D01*
X113785714Y-70257143D02*
X113785714Y-70328571D01*
X113714286Y-70471429D01*
X113642857Y-70542857D01*
X114714286Y-68828571D02*
X114857143Y-68828571D01*
X115000000Y-68900000D01*
X115071429Y-68971429D01*
X115142858Y-69114286D01*
X115214286Y-69400000D01*
X115214286Y-69757143D01*
X115142858Y-70042857D01*
X115071429Y-70185714D01*
X115000000Y-70257143D01*
X114857143Y-70328571D01*
X114714286Y-70328571D01*
X114571429Y-70257143D01*
X114500000Y-70185714D01*
X114428572Y-70042857D01*
X114357143Y-69757143D01*
X114357143Y-69400000D01*
X114428572Y-69114286D01*
X114500000Y-68971429D01*
X114571429Y-68900000D01*
X114714286Y-68828571D01*
X116142857Y-68828571D02*
X116285714Y-68828571D01*
X116428571Y-68900000D01*
X116500000Y-68971429D01*
X116571429Y-69114286D01*
X116642857Y-69400000D01*
X116642857Y-69757143D01*
X116571429Y-70042857D01*
X116500000Y-70185714D01*
X116428571Y-70257143D01*
X116285714Y-70328571D01*
X116142857Y-70328571D01*
X116000000Y-70257143D01*
X115928571Y-70185714D01*
X115857143Y-70042857D01*
X115785714Y-69757143D01*
X115785714Y-69400000D01*
X115857143Y-69114286D01*
X115928571Y-68971429D01*
X116000000Y-68900000D01*
X116142857Y-68828571D01*
X117571428Y-68828571D02*
X117714285Y-68828571D01*
X117857142Y-68900000D01*
X117928571Y-68971429D01*
X118000000Y-69114286D01*
X118071428Y-69400000D01*
X118071428Y-69757143D01*
X118000000Y-70042857D01*
X117928571Y-70185714D01*
X117857142Y-70257143D01*
X117714285Y-70328571D01*
X117571428Y-70328571D01*
X117428571Y-70257143D01*
X117357142Y-70185714D01*
X117285714Y-70042857D01*
X117214285Y-69757143D01*
X117214285Y-69400000D01*
X117285714Y-69114286D01*
X117357142Y-68971429D01*
X117428571Y-68900000D01*
X117571428Y-68828571D01*
X119857142Y-70328571D02*
X119857142Y-69328571D01*
X119857142Y-69471429D02*
X119928570Y-69400000D01*
X120071428Y-69328571D01*
X120285713Y-69328571D01*
X120428570Y-69400000D01*
X120499999Y-69542857D01*
X120499999Y-70328571D01*
X120499999Y-69542857D02*
X120571428Y-69400000D01*
X120714285Y-69328571D01*
X120928570Y-69328571D01*
X121071428Y-69400000D01*
X121142856Y-69542857D01*
X121142856Y-70328571D01*
X121857142Y-70328571D02*
X121857142Y-69328571D01*
X121857142Y-69471429D02*
X121928570Y-69400000D01*
X122071428Y-69328571D01*
X122285713Y-69328571D01*
X122428570Y-69400000D01*
X122499999Y-69542857D01*
X122499999Y-70328571D01*
X122499999Y-69542857D02*
X122571428Y-69400000D01*
X122714285Y-69328571D01*
X122928570Y-69328571D01*
X123071428Y-69400000D01*
X123142856Y-69542857D01*
X123142856Y-70328571D01*
X107000000Y-71000000D02*
X127000000Y-71000000D01*
X107000000Y-113000000D02*
X107000000Y-68300000D01*
X127000000Y-113000000D02*
X127000000Y-68300000D01*
X127000000Y-71000000D02*
X125873496Y-71586421D01*
X127000000Y-71000000D02*
X125873496Y-70413579D01*
X107000000Y-71000000D02*
X108126504Y-71586421D01*
X107000000Y-71000000D02*
X108126504Y-70413579D01*
X205529571Y-92591715D02*
X205601000Y-92663144D01*
X205672429Y-92806001D01*
X205672429Y-93163144D01*
X205601000Y-93306001D01*
X205529571Y-93377430D01*
X205386714Y-93448858D01*
X205243857Y-93448858D01*
X205029571Y-93377430D01*
X204172429Y-92520287D01*
X204172429Y-93448858D01*
X205672429Y-94806001D02*
X205672429Y-94091715D01*
X204958143Y-94020286D01*
X205029571Y-94091715D01*
X205101000Y-94234572D01*
X205101000Y-94591715D01*
X205029571Y-94734572D01*
X204958143Y-94806001D01*
X204815286Y-94877429D01*
X204458143Y-94877429D01*
X204315286Y-94806001D01*
X204243857Y-94734572D01*
X204172429Y-94591715D01*
X204172429Y-94234572D01*
X204243857Y-94091715D01*
X204315286Y-94020286D01*
X204243857Y-95591714D02*
X204172429Y-95591714D01*
X204029571Y-95520286D01*
X203958143Y-95448857D01*
X205672429Y-96520286D02*
X205672429Y-96663143D01*
X205601000Y-96806000D01*
X205529571Y-96877429D01*
X205386714Y-96948858D01*
X205101000Y-97020286D01*
X204743857Y-97020286D01*
X204458143Y-96948858D01*
X204315286Y-96877429D01*
X204243857Y-96806000D01*
X204172429Y-96663143D01*
X204172429Y-96520286D01*
X204243857Y-96377429D01*
X204315286Y-96306000D01*
X204458143Y-96234572D01*
X204743857Y-96163143D01*
X205101000Y-96163143D01*
X205386714Y-96234572D01*
X205529571Y-96306000D01*
X205601000Y-96377429D01*
X205672429Y-96520286D01*
X205672429Y-97948857D02*
X205672429Y-98091714D01*
X205601000Y-98234571D01*
X205529571Y-98306000D01*
X205386714Y-98377429D01*
X205101000Y-98448857D01*
X204743857Y-98448857D01*
X204458143Y-98377429D01*
X204315286Y-98306000D01*
X204243857Y-98234571D01*
X204172429Y-98091714D01*
X204172429Y-97948857D01*
X204243857Y-97806000D01*
X204315286Y-97734571D01*
X204458143Y-97663143D01*
X204743857Y-97591714D01*
X205101000Y-97591714D01*
X205386714Y-97663143D01*
X205529571Y-97734571D01*
X205601000Y-97806000D01*
X205672429Y-97948857D01*
X205672429Y-99377428D02*
X205672429Y-99520285D01*
X205601000Y-99663142D01*
X205529571Y-99734571D01*
X205386714Y-99806000D01*
X205101000Y-99877428D01*
X204743857Y-99877428D01*
X204458143Y-99806000D01*
X204315286Y-99734571D01*
X204243857Y-99663142D01*
X204172429Y-99520285D01*
X204172429Y-99377428D01*
X204243857Y-99234571D01*
X204315286Y-99163142D01*
X204458143Y-99091714D01*
X204743857Y-99020285D01*
X205101000Y-99020285D01*
X205386714Y-99091714D01*
X205529571Y-99163142D01*
X205601000Y-99234571D01*
X205672429Y-99377428D01*
X204172429Y-101663142D02*
X205172429Y-101663142D01*
X205029571Y-101663142D02*
X205101000Y-101734570D01*
X205172429Y-101877428D01*
X205172429Y-102091713D01*
X205101000Y-102234570D01*
X204958143Y-102305999D01*
X204172429Y-102305999D01*
X204958143Y-102305999D02*
X205101000Y-102377428D01*
X205172429Y-102520285D01*
X205172429Y-102734570D01*
X205101000Y-102877428D01*
X204958143Y-102948856D01*
X204172429Y-102948856D01*
X204172429Y-103663142D02*
X205172429Y-103663142D01*
X205029571Y-103663142D02*
X205101000Y-103734570D01*
X205172429Y-103877428D01*
X205172429Y-104091713D01*
X205101000Y-104234570D01*
X204958143Y-104305999D01*
X204172429Y-104305999D01*
X204958143Y-104305999D02*
X205101000Y-104377428D01*
X205172429Y-104520285D01*
X205172429Y-104734570D01*
X205101000Y-104877428D01*
X204958143Y-104948856D01*
X204172429Y-104948856D01*
X203000000Y-81000000D02*
X203000000Y-106000000D01*
X107000000Y-81000000D02*
X205700000Y-81000000D01*
X107000000Y-106000000D02*
X205700000Y-106000000D01*
X203000000Y-106000000D02*
X202413579Y-104873496D01*
X203000000Y-106000000D02*
X203586421Y-104873496D01*
X203000000Y-81000000D02*
X202413579Y-82126504D01*
X203000000Y-81000000D02*
X203586421Y-82126504D01*
M02*
