G04 #@! TF.FileFunction,Soldermask,Bot*
%FSLAX46Y46*%
G04 Gerber Fmt 4.6, Leading zero omitted, Abs format (unit mm)*
G04 Created by KiCad (PCBNEW 4.0.5+dfsg1-4) date Wed May  3 19:23:34 2017*
%MOMM*%
%LPD*%
G01*
G04 APERTURE LIST*
%ADD10C,0.100000*%
%ADD11C,6.800000*%
%ADD12R,2.127200X2.432000*%
%ADD13O,2.127200X2.432000*%
%ADD14R,2.432000X2.127200*%
%ADD15O,2.432000X2.127200*%
%ADD16C,1.924000*%
G04 APERTURE END LIST*
D10*
D11*
X182000000Y-126000000D03*
D12*
X151765000Y-89535000D03*
D13*
X154305000Y-89535000D03*
X156845000Y-89535000D03*
X159385000Y-89535000D03*
X161925000Y-89535000D03*
D12*
X151765000Y-92075000D03*
D13*
X154305000Y-92075000D03*
X156845000Y-92075000D03*
X159385000Y-92075000D03*
X161925000Y-92075000D03*
D14*
X179070000Y-93980000D03*
D15*
X179070000Y-96520000D03*
X179070000Y-99060000D03*
X179070000Y-101600000D03*
X179070000Y-104140000D03*
D14*
X181610000Y-93980000D03*
D15*
X181610000Y-96520000D03*
X181610000Y-99060000D03*
X181610000Y-101600000D03*
X181610000Y-104140000D03*
D16*
X127000000Y-103500000D03*
X127000000Y-108500000D03*
X135382000Y-103672000D03*
X135382000Y-108672000D03*
D14*
X181627000Y-110252000D03*
D15*
X181627000Y-112792000D03*
X181627000Y-115332000D03*
X181627000Y-117872000D03*
X181627000Y-120412000D03*
D14*
X179087000Y-110252000D03*
D15*
X179087000Y-112792000D03*
X179087000Y-115332000D03*
X179087000Y-117872000D03*
X179087000Y-120412000D03*
D12*
X152146000Y-111252000D03*
D13*
X154686000Y-111252000D03*
X157226000Y-111252000D03*
X159766000Y-111252000D03*
X162306000Y-111252000D03*
D12*
X152146000Y-113792000D03*
D13*
X154686000Y-113792000D03*
X157226000Y-113792000D03*
X159766000Y-113792000D03*
X162306000Y-113792000D03*
D11*
X112000000Y-86000000D03*
X112000000Y-126000000D03*
X182000000Y-86000000D03*
M02*
