G04 #@! TF.FileFunction,Soldermask,Top*
%FSLAX46Y46*%
G04 Gerber Fmt 4.6, Leading zero omitted, Abs format (unit mm)*
G04 Created by KiCad (PCBNEW 4.0.5+dfsg1-4) date Wed May  3 19:23:34 2017*
%MOMM*%
%LPD*%
G01*
G04 APERTURE LIST*
%ADD10C,0.100000*%
%ADD11R,1.700000X1.100000*%
%ADD12C,6.800000*%
%ADD13R,2.127200X2.432000*%
%ADD14O,2.127200X2.432000*%
%ADD15R,2.432000X2.127200*%
%ADD16O,2.432000X2.127200*%
%ADD17C,1.924000*%
%ADD18R,1.543000X0.908000*%
%ADD19R,3.400000X3.400000*%
G04 APERTURE END LIST*
D10*
D11*
X143192500Y-103253500D03*
X143192500Y-105153500D03*
D12*
X182000000Y-126000000D03*
D13*
X151765000Y-89535000D03*
D14*
X154305000Y-89535000D03*
X156845000Y-89535000D03*
X159385000Y-89535000D03*
X161925000Y-89535000D03*
D13*
X151765000Y-92075000D03*
D14*
X154305000Y-92075000D03*
X156845000Y-92075000D03*
X159385000Y-92075000D03*
X161925000Y-92075000D03*
D15*
X179070000Y-93980000D03*
D16*
X179070000Y-96520000D03*
X179070000Y-99060000D03*
X179070000Y-101600000D03*
X179070000Y-104140000D03*
D15*
X181610000Y-93980000D03*
D16*
X181610000Y-96520000D03*
X181610000Y-99060000D03*
X181610000Y-101600000D03*
X181610000Y-104140000D03*
D17*
X127000000Y-103500000D03*
X127000000Y-108500000D03*
X135382000Y-103672000D03*
X135382000Y-108672000D03*
D15*
X181627000Y-110252000D03*
D16*
X181627000Y-112792000D03*
X181627000Y-115332000D03*
X181627000Y-117872000D03*
X181627000Y-120412000D03*
D15*
X179087000Y-110252000D03*
D16*
X179087000Y-112792000D03*
X179087000Y-115332000D03*
X179087000Y-117872000D03*
X179087000Y-120412000D03*
D13*
X152146000Y-111252000D03*
D14*
X154686000Y-111252000D03*
X157226000Y-111252000D03*
X159766000Y-111252000D03*
X162306000Y-111252000D03*
D13*
X152146000Y-113792000D03*
D14*
X154686000Y-113792000D03*
X157226000Y-113792000D03*
X159766000Y-113792000D03*
X162306000Y-113792000D03*
D11*
X168544000Y-125731000D03*
X168544000Y-127631000D03*
X171132500Y-103253500D03*
X171132500Y-105153500D03*
X162242500Y-103253500D03*
X162242500Y-105153500D03*
X155892500Y-103253500D03*
X155892500Y-105153500D03*
X149542500Y-103253500D03*
X149542500Y-105153500D03*
X143144000Y-125731000D03*
X143144000Y-127631000D03*
X152034000Y-125731000D03*
X152034000Y-127631000D03*
X158384000Y-125731000D03*
X158384000Y-127631000D03*
X164734000Y-125731000D03*
X164734000Y-127631000D03*
X168592500Y-103253500D03*
X168592500Y-105153500D03*
X164782500Y-103253500D03*
X164782500Y-105153500D03*
X158432500Y-103253500D03*
X158432500Y-105153500D03*
X152082500Y-103253500D03*
X152082500Y-105153500D03*
X145732500Y-103253500D03*
X145732500Y-105153500D03*
X145684000Y-125731000D03*
X145684000Y-127631000D03*
X149494000Y-125731000D03*
X149494000Y-127631000D03*
X162194000Y-125731000D03*
X162194000Y-127631000D03*
X171084000Y-125731000D03*
X171084000Y-127631000D03*
D18*
X133350000Y-88265000D03*
X133350000Y-89535000D03*
X133350000Y-90805000D03*
X133350000Y-92075000D03*
X127000000Y-92075000D03*
X127000000Y-90805000D03*
X127000000Y-89535000D03*
X127000000Y-88265000D03*
D12*
X112000000Y-86000000D03*
X112000000Y-126000000D03*
X182000000Y-86000000D03*
D19*
X184658000Y-104394000D03*
X136652000Y-85344000D03*
X112014000Y-95250000D03*
X184658000Y-109982000D03*
D11*
X155839000Y-125716000D03*
X155839000Y-127616000D03*
M02*
