M48
;DRILL file {KiCad 4.0.5+dfsg1-4} date Wed May  3 19:23:39 2017
;FORMAT={-:-/ absolute / inch / decimal}
FMAT,2
INCH,TZ
T1C0.012
T2C0.016
T3C0.030
T4C0.040
T5C0.126
%
G90
G05
M72
T1
X4.41Y-4.09
X4.68Y-3.55
X4.87Y-4.28
X4.88Y-4.895
X5.12Y-3.81
X5.485Y-4.645
X5.775Y-3.82
X5.78Y-4.325
X5.82Y-4.72
X5.86Y-3.96
X6.06Y-3.97
X6.12Y-4.83
X6.13Y-3.34
X6.28Y-3.98
X6.31Y-4.86
X6.53Y-4.725
X6.56Y-3.855
X6.62Y-3.55
X6.63Y-4.58
X6.82Y-4.505
X6.85Y-3.34
X6.855Y-4.22
X6.915Y-4.6
T2
X5.39Y-4.6
X5.5Y-3.78
X5.64Y-3.72
X6.08Y-3.81
X6.09Y-4.66
X6.15Y-3.9
X6.24Y-4.77
X6.39Y-3.99
X6.39Y-4.86
T3
X5.Y-4.0748
X5.Y-4.2717
X5.33Y-4.0816
X5.33Y-4.2784
T4
X5.975Y-3.525
X5.975Y-3.625
X5.99Y-4.38
X5.99Y-4.48
X6.075Y-3.525
X6.075Y-3.625
X6.09Y-4.38
X6.09Y-4.48
X6.175Y-3.525
X6.175Y-3.625
X6.19Y-4.38
X6.19Y-4.48
X6.275Y-3.525
X6.275Y-3.625
X6.29Y-4.38
X6.29Y-4.48
X6.375Y-3.525
X6.375Y-3.625
X6.39Y-4.38
X6.39Y-4.48
X7.05Y-3.7
X7.05Y-3.8
X7.05Y-3.9
X7.05Y-4.
X7.05Y-4.1
X7.0507Y-4.3406
X7.0507Y-4.4406
X7.0507Y-4.5406
X7.0507Y-4.6406
X7.0507Y-4.7406
X7.15Y-3.7
X7.15Y-3.8
X7.15Y-3.9
X7.15Y-4.
X7.15Y-4.1
X7.1507Y-4.3406
X7.1507Y-4.4406
X7.1507Y-4.5406
X7.1507Y-4.6406
X7.1507Y-4.7406
T5
X4.4094Y-3.3858
X4.4094Y-4.9606
X7.1654Y-3.3858
X7.1654Y-4.9606
T0
M30
