G04 #@! TF.FileFunction,Soldermask,Bot*
%FSLAX46Y46*%
G04 Gerber Fmt 4.6, Leading zero omitted, Abs format (unit mm)*
G04 Created by KiCad (PCBNEW 4.0.6-e0-6349~52~ubuntu17.04.1) date Wed Jul  5 18:03:06 2017*
%MOMM*%
%LPD*%
G01*
G04 APERTURE LIST*
%ADD10C,0.100000*%
%ADD11R,2.127200X2.127200*%
%ADD12O,2.127200X2.127200*%
%ADD13R,0.908000X1.543000*%
%ADD14R,1.700000X1.100000*%
%ADD15R,1.100000X1.700000*%
%ADD16R,2.300000X2.500000*%
%ADD17O,2.300000X2.500000*%
%ADD18R,1.200000X1.300000*%
%ADD19R,1.543000X0.908000*%
%ADD20R,4.200000X2.400000*%
%ADD21R,1.900000X2.400000*%
%ADD22R,4.900000X2.400000*%
%ADD23C,3.600000*%
%ADD24C,1.400000*%
%ADD25R,1.750000X0.800000*%
%ADD26O,1.650000X1.450000*%
%ADD27O,2.400000X1.800000*%
%ADD28R,2.300000X2.200000*%
%ADD29R,2.500000X2.300000*%
G04 APERTURE END LIST*
D10*
D11*
X124476000Y-76222000D03*
D12*
X124476000Y-73682000D03*
X127016000Y-76222000D03*
X127016000Y-73682000D03*
X129556000Y-76222000D03*
X129556000Y-73682000D03*
D11*
X124476000Y-101222000D03*
D12*
X124476000Y-98682000D03*
X127016000Y-101222000D03*
X127016000Y-98682000D03*
X129556000Y-101222000D03*
X129556000Y-98682000D03*
D11*
X169476000Y-83922000D03*
D12*
X169476000Y-81382000D03*
X172016000Y-83922000D03*
X172016000Y-81382000D03*
X174556000Y-83922000D03*
X174556000Y-81382000D03*
X177096000Y-83922000D03*
X177096000Y-81382000D03*
X179636000Y-83922000D03*
X179636000Y-81382000D03*
X182176000Y-83922000D03*
X182176000Y-81382000D03*
X184716000Y-83922000D03*
X184716000Y-81382000D03*
D11*
X169476000Y-108922000D03*
D12*
X169476000Y-106382000D03*
X172016000Y-108922000D03*
X172016000Y-106382000D03*
X174556000Y-108922000D03*
X174556000Y-106382000D03*
X177096000Y-108922000D03*
X177096000Y-106382000D03*
X179636000Y-108922000D03*
X179636000Y-106382000D03*
X182176000Y-108922000D03*
X182176000Y-106382000D03*
X184716000Y-108922000D03*
X184716000Y-106382000D03*
D13*
X144811000Y-96552000D03*
X142271000Y-96552000D03*
X141001000Y-96552000D03*
X139731000Y-96552000D03*
X138461000Y-96552000D03*
X137191000Y-96552000D03*
X135921000Y-96552000D03*
X135921000Y-102902000D03*
X137191000Y-102902000D03*
X138461000Y-102902000D03*
X139731000Y-102902000D03*
X141001000Y-102902000D03*
X142271000Y-102902000D03*
X143541000Y-102902000D03*
X144811000Y-102902000D03*
X143541000Y-96552000D03*
D14*
X165766000Y-112742000D03*
X165766000Y-110842000D03*
X163226000Y-112742000D03*
X163226000Y-110842000D03*
X160686000Y-112742000D03*
X160686000Y-110842000D03*
X150495000Y-112912000D03*
X150495000Y-111012000D03*
X141001000Y-104492000D03*
X141001000Y-106392000D03*
X146716000Y-110842000D03*
X146716000Y-112742000D03*
X130224000Y-112224000D03*
X130224000Y-114124000D03*
D15*
X145131000Y-94012000D03*
X147031000Y-94012000D03*
X145131000Y-91472000D03*
X147031000Y-91472000D03*
D16*
X135921000Y-68612000D03*
D17*
X138461000Y-68612000D03*
X141001000Y-68612000D03*
D16*
X124636000Y-109237000D03*
D17*
X127176000Y-109237000D03*
X129716000Y-109237000D03*
D18*
X136871000Y-86757000D03*
X134971000Y-86757000D03*
X135921000Y-84757000D03*
X142586000Y-86757000D03*
X140686000Y-86757000D03*
X141636000Y-84757000D03*
D14*
X145446000Y-76552000D03*
X145446000Y-78452000D03*
X148621000Y-76552000D03*
X148621000Y-78452000D03*
X154971000Y-76552000D03*
X154971000Y-78452000D03*
X158146000Y-76552000D03*
X158146000Y-78452000D03*
X135286000Y-90522000D03*
X135286000Y-92422000D03*
X141001000Y-90522000D03*
X141001000Y-92422000D03*
X135286000Y-76552000D03*
X135286000Y-78452000D03*
X138461000Y-76552000D03*
X138461000Y-78452000D03*
D19*
X150526000Y-81312000D03*
X150526000Y-82582000D03*
X150526000Y-83852000D03*
X150526000Y-85122000D03*
X156876000Y-85122000D03*
X156876000Y-83852000D03*
X156876000Y-82582000D03*
X156876000Y-81312000D03*
D20*
X155606000Y-106102000D03*
D21*
X155606000Y-112402000D03*
X153306000Y-112402000D03*
X157906000Y-112402000D03*
D19*
X150526000Y-90202000D03*
X150526000Y-91472000D03*
X150526000Y-92742000D03*
X150526000Y-94012000D03*
X156876000Y-94012000D03*
X156876000Y-92742000D03*
X156876000Y-91472000D03*
X156876000Y-90202000D03*
D22*
X134211000Y-111157000D03*
X142711000Y-111157000D03*
D18*
X128126000Y-114047000D03*
X126226000Y-114047000D03*
X127176000Y-112047000D03*
D23*
X189476000Y-111222000D03*
X189476000Y-71222000D03*
X119476000Y-71222000D03*
X119476000Y-111222000D03*
D24*
X144635000Y-108983000D03*
X145885000Y-108983000D03*
X148385000Y-108983000D03*
X147135000Y-108983000D03*
D14*
X179627000Y-90375000D03*
X179627000Y-88475000D03*
X182167000Y-90375000D03*
X182167000Y-88475000D03*
D16*
X146226000Y-68597000D03*
D17*
X148766000Y-68597000D03*
X151306000Y-68597000D03*
D14*
X150798000Y-78437000D03*
X150798000Y-76537000D03*
D15*
X150478000Y-88790000D03*
X148578000Y-88790000D03*
D14*
X152830000Y-78437000D03*
X152830000Y-76537000D03*
D15*
X150478000Y-86758000D03*
X148578000Y-86758000D03*
D25*
X118586500Y-102495500D03*
X118586500Y-103145500D03*
X118586500Y-103795500D03*
X118586500Y-104445500D03*
D26*
X118861500Y-101370500D03*
X118861500Y-106220500D03*
D27*
X115936500Y-100195500D03*
D25*
X118586500Y-105095500D03*
D28*
X115936500Y-102645500D03*
D27*
X115936500Y-107395500D03*
D28*
X115936500Y-104945500D03*
D29*
X183310000Y-71518000D03*
M02*
