G04 #@! TF.FileFunction,Legend,Top*
%FSLAX46Y46*%
G04 Gerber Fmt 4.6, Leading zero omitted, Abs format (unit mm)*
G04 Created by KiCad (PCBNEW 4.0.6-e0-6349~52~ubuntu17.04.1) date Sun Jul  9 19:13:44 2017*
%MOMM*%
%LPD*%
G01*
G04 APERTURE LIST*
%ADD10C,0.100000*%
%ADD11C,0.300000*%
%ADD12C,0.200000*%
%ADD13C,0.010000*%
%ADD14C,0.150000*%
%ADD15C,0.120000*%
G04 APERTURE END LIST*
D10*
D11*
X150639429Y-70696571D02*
X150925143Y-70696571D01*
X151068001Y-70768000D01*
X151210858Y-70910857D01*
X151282286Y-71196571D01*
X151282286Y-71696571D01*
X151210858Y-71982286D01*
X151068001Y-72125143D01*
X150925143Y-72196571D01*
X150639429Y-72196571D01*
X150496572Y-72125143D01*
X150353715Y-71982286D01*
X150282286Y-71696571D01*
X150282286Y-71196571D01*
X150353715Y-70910857D01*
X150496572Y-70768000D01*
X150639429Y-70696571D01*
X152425144Y-71410857D02*
X151925144Y-71410857D01*
X151925144Y-72196571D02*
X151925144Y-70696571D01*
X152639430Y-70696571D01*
X153710858Y-71410857D02*
X153210858Y-71410857D01*
X153210858Y-72196571D02*
X153210858Y-70696571D01*
X153925144Y-70696571D01*
X131962428Y-70696571D02*
X132248142Y-70696571D01*
X132391000Y-70768000D01*
X132533857Y-70910857D01*
X132605285Y-71196571D01*
X132605285Y-71696571D01*
X132533857Y-71982286D01*
X132391000Y-72125143D01*
X132248142Y-72196571D01*
X131962428Y-72196571D01*
X131819571Y-72125143D01*
X131676714Y-71982286D01*
X131605285Y-71696571D01*
X131605285Y-71196571D01*
X131676714Y-70910857D01*
X131819571Y-70768000D01*
X131962428Y-70696571D01*
X133248143Y-72196571D02*
X133248143Y-70696571D01*
X134105286Y-72196571D01*
X134105286Y-70696571D01*
D12*
X138479000Y-71264000D02*
X138479000Y-70502000D01*
X135812000Y-71264000D02*
X138479000Y-71264000D01*
X135812000Y-70502000D02*
X135812000Y-71264000D01*
X148766000Y-71264000D02*
X148766000Y-70502000D01*
X145972000Y-71264000D02*
X148766000Y-71264000D01*
X145972000Y-70502000D02*
X145972000Y-71264000D01*
D11*
X118699571Y-68386571D02*
X117985285Y-68386571D01*
X117985285Y-66886571D01*
X119199571Y-67600857D02*
X119699571Y-67600857D01*
X119913857Y-68386571D02*
X119199571Y-68386571D01*
X119199571Y-66886571D01*
X119913857Y-66886571D01*
X120556714Y-68386571D02*
X120556714Y-66886571D01*
X120913857Y-66886571D01*
X121128142Y-66958000D01*
X121271000Y-67100857D01*
X121342428Y-67243714D01*
X121413857Y-67529429D01*
X121413857Y-67743714D01*
X121342428Y-68029429D01*
X121271000Y-68172286D01*
X121128142Y-68315143D01*
X120913857Y-68386571D01*
X120556714Y-68386571D01*
X124056714Y-68243714D02*
X123985285Y-68315143D01*
X123770999Y-68386571D01*
X123628142Y-68386571D01*
X123413857Y-68315143D01*
X123270999Y-68172286D01*
X123199571Y-68029429D01*
X123128142Y-67743714D01*
X123128142Y-67529429D01*
X123199571Y-67243714D01*
X123270999Y-67100857D01*
X123413857Y-66958000D01*
X123628142Y-66886571D01*
X123770999Y-66886571D01*
X123985285Y-66958000D01*
X124056714Y-67029429D01*
X124985285Y-66886571D02*
X125270999Y-66886571D01*
X125413857Y-66958000D01*
X125556714Y-67100857D01*
X125628142Y-67386571D01*
X125628142Y-67886571D01*
X125556714Y-68172286D01*
X125413857Y-68315143D01*
X125270999Y-68386571D01*
X124985285Y-68386571D01*
X124842428Y-68315143D01*
X124699571Y-68172286D01*
X124628142Y-67886571D01*
X124628142Y-67386571D01*
X124699571Y-67100857D01*
X124842428Y-66958000D01*
X124985285Y-66886571D01*
X126271000Y-68386571D02*
X126271000Y-66886571D01*
X127128143Y-68386571D01*
X127128143Y-66886571D01*
X127628143Y-66886571D02*
X128485286Y-66886571D01*
X128056715Y-68386571D02*
X128056715Y-66886571D01*
X129842429Y-68386571D02*
X129342429Y-67672286D01*
X128985286Y-68386571D02*
X128985286Y-66886571D01*
X129556714Y-66886571D01*
X129699572Y-66958000D01*
X129771000Y-67029429D01*
X129842429Y-67172286D01*
X129842429Y-67386571D01*
X129771000Y-67529429D01*
X129699572Y-67600857D01*
X129556714Y-67672286D01*
X128985286Y-67672286D01*
X130771000Y-66886571D02*
X131056714Y-66886571D01*
X131199572Y-66958000D01*
X131342429Y-67100857D01*
X131413857Y-67386571D01*
X131413857Y-67886571D01*
X131342429Y-68172286D01*
X131199572Y-68315143D01*
X131056714Y-68386571D01*
X130771000Y-68386571D01*
X130628143Y-68315143D01*
X130485286Y-68172286D01*
X130413857Y-67886571D01*
X130413857Y-67386571D01*
X130485286Y-67100857D01*
X130628143Y-66958000D01*
X130771000Y-66886571D01*
X132771001Y-68386571D02*
X132056715Y-68386571D01*
X132056715Y-66886571D01*
X175845714Y-76006571D02*
X175845714Y-74506571D01*
X175845714Y-75220857D02*
X176702857Y-75220857D01*
X176702857Y-76006571D02*
X176702857Y-74506571D01*
X177702857Y-74506571D02*
X177988571Y-74506571D01*
X178131429Y-74578000D01*
X178274286Y-74720857D01*
X178345714Y-75006571D01*
X178345714Y-75506571D01*
X178274286Y-75792286D01*
X178131429Y-75935143D01*
X177988571Y-76006571D01*
X177702857Y-76006571D01*
X177560000Y-75935143D01*
X177417143Y-75792286D01*
X177345714Y-75506571D01*
X177345714Y-75006571D01*
X177417143Y-74720857D01*
X177560000Y-74578000D01*
X177702857Y-74506571D01*
X178988572Y-74506571D02*
X178988572Y-75720857D01*
X179060000Y-75863714D01*
X179131429Y-75935143D01*
X179274286Y-76006571D01*
X179560000Y-76006571D01*
X179702858Y-75935143D01*
X179774286Y-75863714D01*
X179845715Y-75720857D01*
X179845715Y-74506571D01*
X180488572Y-75935143D02*
X180702858Y-76006571D01*
X181060001Y-76006571D01*
X181202858Y-75935143D01*
X181274287Y-75863714D01*
X181345715Y-75720857D01*
X181345715Y-75578000D01*
X181274287Y-75435143D01*
X181202858Y-75363714D01*
X181060001Y-75292286D01*
X180774287Y-75220857D01*
X180631429Y-75149429D01*
X180560001Y-75078000D01*
X180488572Y-74935143D01*
X180488572Y-74792286D01*
X180560001Y-74649429D01*
X180631429Y-74578000D01*
X180774287Y-74506571D01*
X181131429Y-74506571D01*
X181345715Y-74578000D01*
X181988572Y-76006571D02*
X181988572Y-74506571D01*
X182702858Y-76006571D02*
X182702858Y-74506571D01*
X183560001Y-76006571D01*
X183560001Y-74506571D01*
X185060001Y-74578000D02*
X184917144Y-74506571D01*
X184702858Y-74506571D01*
X184488573Y-74578000D01*
X184345715Y-74720857D01*
X184274287Y-74863714D01*
X184202858Y-75149429D01*
X184202858Y-75363714D01*
X184274287Y-75649429D01*
X184345715Y-75792286D01*
X184488573Y-75935143D01*
X184702858Y-76006571D01*
X184845715Y-76006571D01*
X185060001Y-75935143D01*
X185131430Y-75863714D01*
X185131430Y-75363714D01*
X184845715Y-75363714D01*
X187702858Y-74578000D02*
X187560001Y-74506571D01*
X187345715Y-74506571D01*
X187131430Y-74578000D01*
X186988572Y-74720857D01*
X186917144Y-74863714D01*
X186845715Y-75149429D01*
X186845715Y-75363714D01*
X186917144Y-75649429D01*
X186988572Y-75792286D01*
X187131430Y-75935143D01*
X187345715Y-76006571D01*
X187488572Y-76006571D01*
X187702858Y-75935143D01*
X187774287Y-75863714D01*
X187774287Y-75363714D01*
X187488572Y-75363714D01*
X188417144Y-76006571D02*
X188417144Y-74506571D01*
X189274287Y-76006571D01*
X189274287Y-74506571D01*
X189988573Y-76006571D02*
X189988573Y-74506571D01*
X190345716Y-74506571D01*
X190560001Y-74578000D01*
X190702859Y-74720857D01*
X190774287Y-74863714D01*
X190845716Y-75149429D01*
X190845716Y-75363714D01*
X190774287Y-75649429D01*
X190702859Y-75792286D01*
X190560001Y-75935143D01*
X190345716Y-76006571D01*
X189988573Y-76006571D01*
X141059286Y-106081857D02*
X141273572Y-106153286D01*
X141345000Y-106224714D01*
X141416429Y-106367571D01*
X141416429Y-106581857D01*
X141345000Y-106724714D01*
X141273572Y-106796143D01*
X141130714Y-106867571D01*
X140559286Y-106867571D01*
X140559286Y-105367571D01*
X141059286Y-105367571D01*
X141202143Y-105439000D01*
X141273572Y-105510429D01*
X141345000Y-105653286D01*
X141345000Y-105796143D01*
X141273572Y-105939000D01*
X141202143Y-106010429D01*
X141059286Y-106081857D01*
X140559286Y-106081857D01*
X141987857Y-106439000D02*
X142702143Y-106439000D01*
X141845000Y-106867571D02*
X142345000Y-105367571D01*
X142845000Y-106867571D01*
X143130714Y-105367571D02*
X143987857Y-105367571D01*
X143559286Y-106867571D02*
X143559286Y-105367571D01*
X146487857Y-106724714D02*
X146416428Y-106796143D01*
X146202142Y-106867571D01*
X146059285Y-106867571D01*
X145845000Y-106796143D01*
X145702142Y-106653286D01*
X145630714Y-106510429D01*
X145559285Y-106224714D01*
X145559285Y-106010429D01*
X145630714Y-105724714D01*
X145702142Y-105581857D01*
X145845000Y-105439000D01*
X146059285Y-105367571D01*
X146202142Y-105367571D01*
X146416428Y-105439000D01*
X146487857Y-105510429D01*
X147416428Y-105367571D02*
X147702142Y-105367571D01*
X147845000Y-105439000D01*
X147987857Y-105581857D01*
X148059285Y-105867571D01*
X148059285Y-106367571D01*
X147987857Y-106653286D01*
X147845000Y-106796143D01*
X147702142Y-106867571D01*
X147416428Y-106867571D01*
X147273571Y-106796143D01*
X147130714Y-106653286D01*
X147059285Y-106367571D01*
X147059285Y-105867571D01*
X147130714Y-105581857D01*
X147273571Y-105439000D01*
X147416428Y-105367571D01*
X148702143Y-106867571D02*
X148702143Y-105367571D01*
X149559286Y-106867571D01*
X149559286Y-105367571D01*
X150273572Y-106867571D02*
X150273572Y-105367571D01*
X151130715Y-106867571D01*
X151130715Y-105367571D01*
X143051143Y-111281000D02*
X142908286Y-111209571D01*
X142694000Y-111209571D01*
X142479715Y-111281000D01*
X142336857Y-111423857D01*
X142265429Y-111566714D01*
X142194000Y-111852429D01*
X142194000Y-112066714D01*
X142265429Y-112352429D01*
X142336857Y-112495286D01*
X142479715Y-112638143D01*
X142694000Y-112709571D01*
X142836857Y-112709571D01*
X143051143Y-112638143D01*
X143122572Y-112566714D01*
X143122572Y-112066714D01*
X142836857Y-112066714D01*
X143765429Y-112709571D02*
X143765429Y-111209571D01*
X144622572Y-112709571D01*
X144622572Y-111209571D01*
X145336858Y-112709571D02*
X145336858Y-111209571D01*
X145694001Y-111209571D01*
X145908286Y-111281000D01*
X146051144Y-111423857D01*
X146122572Y-111566714D01*
X146194001Y-111852429D01*
X146194001Y-112066714D01*
X146122572Y-112352429D01*
X146051144Y-112495286D01*
X145908286Y-112638143D01*
X145694001Y-112709571D01*
X145336858Y-112709571D01*
X148353287Y-111336571D02*
X147639001Y-111336571D01*
X147567572Y-112050857D01*
X147639001Y-111979429D01*
X147781858Y-111908000D01*
X148139001Y-111908000D01*
X148281858Y-111979429D01*
X148353287Y-112050857D01*
X148424715Y-112193714D01*
X148424715Y-112550857D01*
X148353287Y-112693714D01*
X148281858Y-112765143D01*
X148139001Y-112836571D01*
X147781858Y-112836571D01*
X147639001Y-112765143D01*
X147567572Y-112693714D01*
X148853286Y-111336571D02*
X149353286Y-112836571D01*
X149853286Y-111336571D01*
X132347714Y-110042571D02*
X132347714Y-108542571D01*
X132919142Y-108542571D01*
X133062000Y-108614000D01*
X133133428Y-108685429D01*
X133204857Y-108828286D01*
X133204857Y-109042571D01*
X133133428Y-109185429D01*
X133062000Y-109256857D01*
X132919142Y-109328286D01*
X132347714Y-109328286D01*
X134133428Y-108542571D02*
X134419142Y-108542571D01*
X134562000Y-108614000D01*
X134704857Y-108756857D01*
X134776285Y-109042571D01*
X134776285Y-109542571D01*
X134704857Y-109828286D01*
X134562000Y-109971143D01*
X134419142Y-110042571D01*
X134133428Y-110042571D01*
X133990571Y-109971143D01*
X133847714Y-109828286D01*
X133776285Y-109542571D01*
X133776285Y-109042571D01*
X133847714Y-108756857D01*
X133990571Y-108614000D01*
X134133428Y-108542571D01*
X135276286Y-108542571D02*
X135633429Y-110042571D01*
X135919143Y-108971143D01*
X136204857Y-110042571D01*
X136562000Y-108542571D01*
X137133429Y-109256857D02*
X137633429Y-109256857D01*
X137847715Y-110042571D02*
X137133429Y-110042571D01*
X137133429Y-108542571D01*
X137847715Y-108542571D01*
X139347715Y-110042571D02*
X138847715Y-109328286D01*
X138490572Y-110042571D02*
X138490572Y-108542571D01*
X139062000Y-108542571D01*
X139204858Y-108614000D01*
X139276286Y-108685429D01*
X139347715Y-108828286D01*
X139347715Y-109042571D01*
X139276286Y-109185429D01*
X139204858Y-109256857D01*
X139062000Y-109328286D01*
X138490572Y-109328286D01*
X127338858Y-104430857D02*
X127553144Y-104502286D01*
X127624572Y-104573714D01*
X127696001Y-104716571D01*
X127696001Y-104930857D01*
X127624572Y-105073714D01*
X127553144Y-105145143D01*
X127410286Y-105216571D01*
X126838858Y-105216571D01*
X126838858Y-103716571D01*
X127338858Y-103716571D01*
X127481715Y-103788000D01*
X127553144Y-103859429D01*
X127624572Y-104002286D01*
X127624572Y-104145143D01*
X127553144Y-104288000D01*
X127481715Y-104359429D01*
X127338858Y-104430857D01*
X126838858Y-104430857D01*
X128267429Y-104788000D02*
X128981715Y-104788000D01*
X128124572Y-105216571D02*
X128624572Y-103716571D01*
X129124572Y-105216571D01*
X129410286Y-103716571D02*
X130267429Y-103716571D01*
X129838858Y-105216571D02*
X129838858Y-103716571D01*
X123759143Y-113368571D02*
X123759143Y-114582857D01*
X123830571Y-114725714D01*
X123902000Y-114797143D01*
X124044857Y-114868571D01*
X124330571Y-114868571D01*
X124473429Y-114797143D01*
X124544857Y-114725714D01*
X124616286Y-114582857D01*
X124616286Y-113368571D01*
X125259143Y-114797143D02*
X125473429Y-114868571D01*
X125830572Y-114868571D01*
X125973429Y-114797143D01*
X126044858Y-114725714D01*
X126116286Y-114582857D01*
X126116286Y-114440000D01*
X126044858Y-114297143D01*
X125973429Y-114225714D01*
X125830572Y-114154286D01*
X125544858Y-114082857D01*
X125402000Y-114011429D01*
X125330572Y-113940000D01*
X125259143Y-113797143D01*
X125259143Y-113654286D01*
X125330572Y-113511429D01*
X125402000Y-113440000D01*
X125544858Y-113368571D01*
X125902000Y-113368571D01*
X126116286Y-113440000D01*
X127259143Y-114082857D02*
X127473429Y-114154286D01*
X127544857Y-114225714D01*
X127616286Y-114368571D01*
X127616286Y-114582857D01*
X127544857Y-114725714D01*
X127473429Y-114797143D01*
X127330571Y-114868571D01*
X126759143Y-114868571D01*
X126759143Y-113368571D01*
X127259143Y-113368571D01*
X127402000Y-113440000D01*
X127473429Y-113511429D01*
X127544857Y-113654286D01*
X127544857Y-113797143D01*
X127473429Y-113940000D01*
X127402000Y-114011429D01*
X127259143Y-114082857D01*
X126759143Y-114082857D01*
D12*
X129716000Y-105808000D02*
X129716000Y-107078000D01*
X127176000Y-105808000D02*
X129716000Y-105808000D01*
X127176000Y-107078000D02*
X127176000Y-105808000D01*
X127176000Y-112666000D02*
X127176000Y-111396000D01*
X124636000Y-112666000D02*
X127176000Y-112666000D01*
X124636000Y-111396000D02*
X124636000Y-112666000D01*
D11*
X157055572Y-77771143D02*
X157269858Y-77842571D01*
X157627001Y-77842571D01*
X157769858Y-77771143D01*
X157841287Y-77699714D01*
X157912715Y-77556857D01*
X157912715Y-77414000D01*
X157841287Y-77271143D01*
X157769858Y-77199714D01*
X157627001Y-77128286D01*
X157341287Y-77056857D01*
X157198429Y-76985429D01*
X157127001Y-76914000D01*
X157055572Y-76771143D01*
X157055572Y-76628286D01*
X157127001Y-76485429D01*
X157198429Y-76414000D01*
X157341287Y-76342571D01*
X157698429Y-76342571D01*
X157912715Y-76414000D01*
X158555572Y-77842571D02*
X158555572Y-76342571D01*
X158912715Y-76342571D01*
X159127000Y-76414000D01*
X159269858Y-76556857D01*
X159341286Y-76699714D01*
X159412715Y-76985429D01*
X159412715Y-77199714D01*
X159341286Y-77485429D01*
X159269858Y-77628286D01*
X159127000Y-77771143D01*
X158912715Y-77842571D01*
X158555572Y-77842571D01*
X159984143Y-77414000D02*
X160698429Y-77414000D01*
X159841286Y-77842571D02*
X160341286Y-76342571D01*
X160841286Y-77842571D01*
X152519286Y-77771143D02*
X152733572Y-77842571D01*
X153090715Y-77842571D01*
X153233572Y-77771143D01*
X153305001Y-77699714D01*
X153376429Y-77556857D01*
X153376429Y-77414000D01*
X153305001Y-77271143D01*
X153233572Y-77199714D01*
X153090715Y-77128286D01*
X152805001Y-77056857D01*
X152662143Y-76985429D01*
X152590715Y-76914000D01*
X152519286Y-76771143D01*
X152519286Y-76628286D01*
X152590715Y-76485429D01*
X152662143Y-76414000D01*
X152805001Y-76342571D01*
X153162143Y-76342571D01*
X153376429Y-76414000D01*
X154876429Y-77699714D02*
X154805000Y-77771143D01*
X154590714Y-77842571D01*
X154447857Y-77842571D01*
X154233572Y-77771143D01*
X154090714Y-77628286D01*
X154019286Y-77485429D01*
X153947857Y-77199714D01*
X153947857Y-76985429D01*
X154019286Y-76699714D01*
X154090714Y-76556857D01*
X154233572Y-76414000D01*
X154447857Y-76342571D01*
X154590714Y-76342571D01*
X154805000Y-76414000D01*
X154876429Y-76485429D01*
X156233572Y-77842571D02*
X155519286Y-77842571D01*
X155519286Y-76342571D01*
X147574143Y-76342571D02*
X148431286Y-76342571D01*
X148002715Y-77842571D02*
X148002715Y-76342571D01*
X148788429Y-76342571D02*
X149788429Y-77842571D01*
X149788429Y-76342571D02*
X148788429Y-77842571D01*
X145165001Y-77842571D02*
X144665001Y-77128286D01*
X144307858Y-77842571D02*
X144307858Y-76342571D01*
X144879286Y-76342571D01*
X145022144Y-76414000D01*
X145093572Y-76485429D01*
X145165001Y-76628286D01*
X145165001Y-76842571D01*
X145093572Y-76985429D01*
X145022144Y-77056857D01*
X144879286Y-77128286D01*
X144307858Y-77128286D01*
X145665001Y-76342571D02*
X146665001Y-77842571D01*
X146665001Y-76342571D02*
X145665001Y-77842571D01*
X137915715Y-76284571D02*
X138844286Y-76284571D01*
X138344286Y-76856000D01*
X138558572Y-76856000D01*
X138701429Y-76927429D01*
X138772858Y-76998857D01*
X138844286Y-77141714D01*
X138844286Y-77498857D01*
X138772858Y-77641714D01*
X138701429Y-77713143D01*
X138558572Y-77784571D01*
X138130000Y-77784571D01*
X137987143Y-77713143D01*
X137915715Y-77641714D01*
X139487143Y-77641714D02*
X139558571Y-77713143D01*
X139487143Y-77784571D01*
X139415714Y-77713143D01*
X139487143Y-77641714D01*
X139487143Y-77784571D01*
X140058572Y-76284571D02*
X140987143Y-76284571D01*
X140487143Y-76856000D01*
X140701429Y-76856000D01*
X140844286Y-76927429D01*
X140915715Y-76998857D01*
X140987143Y-77141714D01*
X140987143Y-77498857D01*
X140915715Y-77641714D01*
X140844286Y-77713143D01*
X140701429Y-77784571D01*
X140272857Y-77784571D01*
X140130000Y-77713143D01*
X140058572Y-77641714D01*
X141415714Y-76284571D02*
X141915714Y-77784571D01*
X142415714Y-76284571D01*
X134764287Y-76284571D02*
X134050001Y-76284571D01*
X133978572Y-76998857D01*
X134050001Y-76927429D01*
X134192858Y-76856000D01*
X134550001Y-76856000D01*
X134692858Y-76927429D01*
X134764287Y-76998857D01*
X134835715Y-77141714D01*
X134835715Y-77498857D01*
X134764287Y-77641714D01*
X134692858Y-77713143D01*
X134550001Y-77784571D01*
X134192858Y-77784571D01*
X134050001Y-77713143D01*
X133978572Y-77641714D01*
X135264286Y-76284571D02*
X135764286Y-77784571D01*
X136264286Y-76284571D01*
D13*
G36*
X133203738Y-97591595D02*
X134492433Y-98812690D01*
X135773276Y-99907859D01*
X137067830Y-100893309D01*
X138397659Y-101785246D01*
X139784327Y-102599875D01*
X140083514Y-102761973D01*
X140776432Y-103132208D01*
X141579358Y-102688572D01*
X142952525Y-101880697D01*
X144295358Y-100994609D01*
X145585456Y-100047729D01*
X146800415Y-99057477D01*
X147917832Y-98041276D01*
X148915306Y-97016546D01*
X149013994Y-96907126D01*
X149673143Y-96170538D01*
X150383267Y-96163269D01*
X150681822Y-96159470D01*
X150884962Y-96166291D01*
X150993670Y-96200415D01*
X151008928Y-96278524D01*
X150931720Y-96417302D01*
X150763027Y-96633431D01*
X150503833Y-96943594D01*
X150434135Y-97026857D01*
X149064778Y-98556142D01*
X147600593Y-99981680D01*
X146049223Y-101297240D01*
X144418313Y-102496595D01*
X142715506Y-103573515D01*
X141719762Y-104128015D01*
X141393773Y-104295511D01*
X141104219Y-104434304D01*
X140879907Y-104531280D01*
X140749641Y-104573323D01*
X140740048Y-104574081D01*
X140633671Y-104540091D01*
X140424512Y-104445948D01*
X140135995Y-104303178D01*
X139791546Y-104123311D01*
X139476857Y-103952396D01*
X138441291Y-103350108D01*
X137383247Y-102678887D01*
X136351724Y-101971453D01*
X135395724Y-101260529D01*
X135122571Y-101044719D01*
X134567783Y-100579308D01*
X133970238Y-100042565D01*
X133351156Y-99456195D01*
X132731753Y-98841905D01*
X132133249Y-98221402D01*
X131576861Y-97616392D01*
X131083807Y-97048583D01*
X130675306Y-96539680D01*
X130538964Y-96355571D01*
X130395545Y-96156000D01*
X131756620Y-96156000D01*
X133203738Y-97591595D01*
X133203738Y-97591595D01*
G37*
X133203738Y-97591595D02*
X134492433Y-98812690D01*
X135773276Y-99907859D01*
X137067830Y-100893309D01*
X138397659Y-101785246D01*
X139784327Y-102599875D01*
X140083514Y-102761973D01*
X140776432Y-103132208D01*
X141579358Y-102688572D01*
X142952525Y-101880697D01*
X144295358Y-100994609D01*
X145585456Y-100047729D01*
X146800415Y-99057477D01*
X147917832Y-98041276D01*
X148915306Y-97016546D01*
X149013994Y-96907126D01*
X149673143Y-96170538D01*
X150383267Y-96163269D01*
X150681822Y-96159470D01*
X150884962Y-96166291D01*
X150993670Y-96200415D01*
X151008928Y-96278524D01*
X150931720Y-96417302D01*
X150763027Y-96633431D01*
X150503833Y-96943594D01*
X150434135Y-97026857D01*
X149064778Y-98556142D01*
X147600593Y-99981680D01*
X146049223Y-101297240D01*
X144418313Y-102496595D01*
X142715506Y-103573515D01*
X141719762Y-104128015D01*
X141393773Y-104295511D01*
X141104219Y-104434304D01*
X140879907Y-104531280D01*
X140749641Y-104573323D01*
X140740048Y-104574081D01*
X140633671Y-104540091D01*
X140424512Y-104445948D01*
X140135995Y-104303178D01*
X139791546Y-104123311D01*
X139476857Y-103952396D01*
X138441291Y-103350108D01*
X137383247Y-102678887D01*
X136351724Y-101971453D01*
X135395724Y-101260529D01*
X135122571Y-101044719D01*
X134567783Y-100579308D01*
X133970238Y-100042565D01*
X133351156Y-99456195D01*
X132731753Y-98841905D01*
X132133249Y-98221402D01*
X131576861Y-97616392D01*
X131083807Y-97048583D01*
X130675306Y-96539680D01*
X130538964Y-96355571D01*
X130395545Y-96156000D01*
X131756620Y-96156000D01*
X133203738Y-97591595D01*
G36*
X137860661Y-84862570D02*
X137926862Y-84888870D01*
X137950688Y-84971477D01*
X137987634Y-85193054D01*
X138037041Y-85548083D01*
X138098251Y-86031045D01*
X138170607Y-86636424D01*
X138253450Y-87358701D01*
X138346122Y-88192359D01*
X138447966Y-89131879D01*
X138558324Y-90171744D01*
X138569454Y-90277714D01*
X138660825Y-91142713D01*
X138748923Y-91965656D01*
X138832454Y-92735143D01*
X138910127Y-93439773D01*
X138980648Y-94068148D01*
X139042725Y-94608869D01*
X139095065Y-95050535D01*
X139136376Y-95381747D01*
X139165366Y-95591106D01*
X139180541Y-95667035D01*
X139233933Y-95630379D01*
X139339941Y-95488946D01*
X139482633Y-95265892D01*
X139627942Y-95016828D01*
X139832627Y-94668579D01*
X139992533Y-94436861D01*
X140120409Y-94304952D01*
X140203992Y-94261170D01*
X140338215Y-94243074D01*
X140586962Y-94226878D01*
X140919616Y-94213950D01*
X141305560Y-94205658D01*
X141488189Y-94203805D01*
X142592378Y-94196571D01*
X142844535Y-93975174D01*
X142973388Y-93832799D01*
X143153653Y-93594257D01*
X143364327Y-93289169D01*
X143584408Y-92947156D01*
X143654952Y-92832174D01*
X143921007Y-92398410D01*
X144128490Y-92075730D01*
X144289933Y-91848683D01*
X144417864Y-91701817D01*
X144524813Y-91619682D01*
X144623310Y-91586826D01*
X144667117Y-91584000D01*
X144745594Y-91590940D01*
X144820329Y-91622040D01*
X144903223Y-91692718D01*
X145006174Y-91818390D01*
X145141081Y-92014476D01*
X145319845Y-92296392D01*
X145554365Y-92679557D01*
X145705964Y-92929998D01*
X145959927Y-93344399D01*
X146157438Y-93650472D01*
X146312524Y-93866770D01*
X146439212Y-94011848D01*
X146551529Y-94104258D01*
X146624931Y-94145569D01*
X146699320Y-94175408D01*
X146794835Y-94200079D01*
X146924977Y-94220063D01*
X147103251Y-94235841D01*
X147343158Y-94247894D01*
X147658201Y-94256704D01*
X148061881Y-94262752D01*
X148567703Y-94266518D01*
X149189167Y-94268483D01*
X149939777Y-94269129D01*
X150093554Y-94269143D01*
X153303042Y-94269143D01*
X154789428Y-92781428D01*
X156275815Y-91293714D01*
X161426737Y-91293714D01*
X166006961Y-86721714D01*
X169082654Y-86721714D01*
X169202749Y-86905002D01*
X169279719Y-87043512D01*
X169267510Y-87138752D01*
X169193174Y-87231573D01*
X169139471Y-87280944D01*
X169066679Y-87317498D01*
X168954111Y-87343144D01*
X168781078Y-87359793D01*
X168526890Y-87369354D01*
X168170858Y-87373736D01*
X167692293Y-87374851D01*
X167641034Y-87374857D01*
X166218564Y-87374857D01*
X161648292Y-91946857D01*
X156561363Y-91946857D01*
X156240857Y-92273428D01*
X155920351Y-92600000D01*
X160855972Y-92600000D01*
X161139428Y-92890285D01*
X161422885Y-93180571D01*
X164756379Y-93180571D01*
X165244991Y-92708857D01*
X165466238Y-92503014D01*
X165653850Y-92342686D01*
X165780494Y-92250562D01*
X165813229Y-92237143D01*
X165893123Y-92281122D01*
X165862172Y-92409267D01*
X165723517Y-92615882D01*
X165480296Y-92895276D01*
X165409236Y-92969913D01*
X164925616Y-93470857D01*
X163329703Y-93470857D01*
X162810159Y-93471147D01*
X162419365Y-93473099D01*
X162140928Y-93478339D01*
X161958456Y-93488491D01*
X161855556Y-93505180D01*
X161815835Y-93530030D01*
X161822901Y-93564665D01*
X161860361Y-93610710D01*
X161865143Y-93616000D01*
X161919603Y-93666477D01*
X161992422Y-93703704D01*
X162104596Y-93729682D01*
X162277122Y-93746414D01*
X162530997Y-93755900D01*
X162887217Y-93760142D01*
X163366780Y-93761142D01*
X163387740Y-93761143D01*
X163869134Y-93761566D01*
X164226872Y-93764500D01*
X164482440Y-93772442D01*
X164657326Y-93787887D01*
X164773015Y-93813331D01*
X164850994Y-93851271D01*
X164912751Y-93904204D01*
X164949428Y-93942571D01*
X165052612Y-94036401D01*
X165170005Y-94091017D01*
X165342769Y-94116740D01*
X165612067Y-94123889D01*
X165673065Y-94124000D01*
X165955787Y-94121093D01*
X166139490Y-94101705D01*
X166270296Y-94049832D01*
X166394327Y-93949472D01*
X166509714Y-93833714D01*
X166793170Y-93543428D01*
X168960911Y-93543428D01*
X169275834Y-93253143D01*
X169499649Y-93070952D01*
X169675261Y-92975085D01*
X169784421Y-92972848D01*
X169811714Y-93038537D01*
X169765294Y-93126402D01*
X169643665Y-93283642D01*
X169475212Y-93473966D01*
X169138710Y-93833714D01*
X166865742Y-93833714D01*
X166582285Y-94124000D01*
X166412435Y-94287238D01*
X166272307Y-94374029D01*
X166102428Y-94408374D01*
X165863019Y-94414285D01*
X165427208Y-94414285D01*
X165747714Y-94740857D01*
X166068220Y-95067428D01*
X166851395Y-95067428D01*
X167204848Y-95070629D01*
X167436435Y-95082379D01*
X167569337Y-95105901D01*
X167626733Y-95144416D01*
X167634571Y-95176285D01*
X167612532Y-95223608D01*
X167531492Y-95255298D01*
X167369072Y-95274207D01*
X167102891Y-95283187D01*
X166780255Y-95285143D01*
X165925938Y-95285143D01*
X165312286Y-94668285D01*
X164698633Y-94051428D01*
X163513462Y-94051428D01*
X163027037Y-94055680D01*
X162671765Y-94068251D01*
X162451954Y-94088869D01*
X162371907Y-94117259D01*
X162373143Y-94124000D01*
X162461430Y-94152550D01*
X162674008Y-94175081D01*
X162990096Y-94190190D01*
X163388915Y-94196475D01*
X163448487Y-94196571D01*
X164478980Y-94196571D01*
X166038000Y-95756857D01*
X167597020Y-97317142D01*
X168019709Y-97317142D01*
X168366016Y-97337751D01*
X168587884Y-97404413D01*
X168700735Y-97524384D01*
X168723143Y-97648063D01*
X168680204Y-97794602D01*
X168541511Y-97893409D01*
X168292250Y-97950046D01*
X167917606Y-97970077D01*
X167865071Y-97970285D01*
X167379305Y-97970285D01*
X165820286Y-96410000D01*
X164261266Y-94849714D01*
X162230271Y-94849714D01*
X161430850Y-94054092D01*
X160631428Y-93258470D01*
X158454286Y-93208920D01*
X157873116Y-93198160D01*
X157309701Y-93192306D01*
X156788647Y-93191268D01*
X156334563Y-93194959D01*
X155972058Y-93203289D01*
X155725738Y-93216169D01*
X155696571Y-93218868D01*
X155410194Y-93253823D01*
X155267668Y-93285089D01*
X155267746Y-93312551D01*
X155409181Y-93336093D01*
X155690725Y-93355600D01*
X156111131Y-93370958D01*
X156669151Y-93382050D01*
X157363539Y-93388763D01*
X157548021Y-93389699D01*
X159544613Y-93398285D01*
X160666106Y-94521532D01*
X161787598Y-95644778D01*
X163060085Y-95664532D01*
X163526198Y-95673442D01*
X163865825Y-95684800D01*
X164097620Y-95700492D01*
X164240239Y-95722404D01*
X164312336Y-95752421D01*
X164332567Y-95792428D01*
X164332571Y-95793142D01*
X164313447Y-95832358D01*
X164243929Y-95862012D01*
X164105801Y-95883847D01*
X163880843Y-95899603D01*
X163550840Y-95911022D01*
X163097574Y-95919845D01*
X162990000Y-95921459D01*
X161647428Y-95940918D01*
X160523449Y-94814745D01*
X159399470Y-93688571D01*
X154782319Y-93688571D01*
X153530903Y-95003595D01*
X146552571Y-94958571D01*
X146212074Y-94758412D01*
X146079287Y-94671056D01*
X145950820Y-94561558D01*
X145813879Y-94413273D01*
X145655675Y-94209553D01*
X145463415Y-93933752D01*
X145224308Y-93569225D01*
X144925563Y-93099325D01*
X144872852Y-93015599D01*
X144774653Y-92861954D01*
X144696682Y-92770480D01*
X144621940Y-92751730D01*
X144533433Y-92816257D01*
X144414164Y-92974613D01*
X144247136Y-93237352D01*
X144081850Y-93506727D01*
X143890982Y-93803377D01*
X143692794Y-94087568D01*
X143521502Y-94310900D01*
X143475678Y-94364139D01*
X143302425Y-94545583D01*
X143140266Y-94679877D01*
X142962702Y-94775022D01*
X142743238Y-94839017D01*
X142455377Y-94879863D01*
X142072623Y-94905560D01*
X141627087Y-94922285D01*
X140475318Y-94958571D01*
X139861287Y-96119714D01*
X139654941Y-96503349D01*
X139461901Y-96850167D01*
X139295960Y-97136303D01*
X139170914Y-97337891D01*
X139106524Y-97425516D01*
X138994535Y-97520122D01*
X138890948Y-97520372D01*
X138770119Y-97460347D01*
X138574446Y-97350519D01*
X138378886Y-95465116D01*
X138313659Y-94836882D01*
X138241826Y-94146055D01*
X138168337Y-93440175D01*
X138098142Y-92766781D01*
X138036191Y-92173411D01*
X138017190Y-91991691D01*
X137965425Y-91523806D01*
X137916040Y-91127692D01*
X137871512Y-90819826D01*
X137834316Y-90616685D01*
X137806930Y-90534743D01*
X137799013Y-90540263D01*
X137782828Y-90639738D01*
X137757796Y-90868362D01*
X137725268Y-91210500D01*
X137686592Y-91650515D01*
X137643120Y-92172772D01*
X137596201Y-92761636D01*
X137547185Y-93401472D01*
X137517765Y-93797428D01*
X137438787Y-94862345D01*
X137368244Y-95790206D01*
X137305396Y-96588809D01*
X137249502Y-97265949D01*
X137199820Y-97829423D01*
X137155609Y-98287029D01*
X137116130Y-98646562D01*
X137080640Y-98915821D01*
X137048399Y-99102601D01*
X137018666Y-99214699D01*
X136999361Y-99252416D01*
X136842301Y-99341320D01*
X136649401Y-99313217D01*
X136559636Y-99258428D01*
X136506034Y-99160177D01*
X136423295Y-98933830D01*
X136315484Y-98592587D01*
X136186671Y-98149644D01*
X136040923Y-97618200D01*
X135961330Y-97317142D01*
X135828030Y-96808805D01*
X135703276Y-96336295D01*
X135592793Y-95921046D01*
X135502308Y-95584494D01*
X135437549Y-95348076D01*
X135406345Y-95239745D01*
X135334990Y-95012918D01*
X134511376Y-94981393D01*
X134082374Y-94957556D01*
X133768922Y-94915024D01*
X133541519Y-94840239D01*
X133370663Y-94719643D01*
X133226852Y-94539677D01*
X133107208Y-94336083D01*
X132963681Y-94076521D01*
X132820040Y-93822321D01*
X132757988Y-93714972D01*
X132606834Y-93457028D01*
X132245239Y-94092875D01*
X132122759Y-94312179D01*
X132017940Y-94493661D01*
X131916397Y-94640678D01*
X131803747Y-94756589D01*
X131665606Y-94844752D01*
X131487589Y-94908524D01*
X131255313Y-94951264D01*
X130954394Y-94976330D01*
X130570448Y-94987079D01*
X130089091Y-94986869D01*
X129495938Y-94979059D01*
X128776607Y-94967006D01*
X128518771Y-94962823D01*
X127761325Y-94950559D01*
X127136864Y-94938720D01*
X126633249Y-94925462D01*
X126238341Y-94908942D01*
X125940000Y-94887315D01*
X125726086Y-94858738D01*
X125584461Y-94821366D01*
X125502985Y-94773356D01*
X125469517Y-94712863D01*
X125471920Y-94638043D01*
X125498052Y-94547054D01*
X125512282Y-94506140D01*
X125582814Y-94305428D01*
X128423588Y-94269143D01*
X129052581Y-94259633D01*
X129636296Y-94247972D01*
X130158762Y-94234690D01*
X130604008Y-94220319D01*
X130956061Y-94205392D01*
X131198951Y-94190441D01*
X131316705Y-94175998D01*
X131324752Y-94172495D01*
X131385234Y-94088312D01*
X131501403Y-93908051D01*
X131655003Y-93660526D01*
X131784286Y-93447238D01*
X132019060Y-93077921D01*
X132214642Y-92828749D01*
X132389150Y-92686518D01*
X132560698Y-92638023D01*
X132747405Y-92670061D01*
X132815100Y-92695915D01*
X132945860Y-92773700D01*
X133078364Y-92908292D01*
X133231740Y-93123564D01*
X133425114Y-93443387D01*
X133453428Y-93492562D01*
X133653193Y-93821003D01*
X133824783Y-94064107D01*
X133954504Y-94203374D01*
X133997714Y-94227862D01*
X134124865Y-94243304D01*
X134362773Y-94256069D01*
X134677060Y-94264805D01*
X135022651Y-94268152D01*
X135902445Y-94269143D01*
X136218660Y-95461943D01*
X136323348Y-95851848D01*
X136415629Y-96186105D01*
X136489127Y-96442381D01*
X136537469Y-96598340D01*
X136553726Y-96635892D01*
X136561301Y-96601598D01*
X136573167Y-96505232D01*
X136589908Y-96339701D01*
X136612109Y-96097914D01*
X136640352Y-95772777D01*
X136675221Y-95357198D01*
X136717301Y-94844084D01*
X136767174Y-94226343D01*
X136825424Y-93496882D01*
X136892635Y-92648608D01*
X136969390Y-91674430D01*
X137056274Y-90567253D01*
X137118705Y-89769714D01*
X137193847Y-88809970D01*
X137258888Y-87984713D01*
X137315036Y-87283730D01*
X137363499Y-86696806D01*
X137405485Y-86213728D01*
X137442202Y-85824282D01*
X137474858Y-85518254D01*
X137504661Y-85285429D01*
X137532820Y-85115594D01*
X137560542Y-84998535D01*
X137589035Y-84924037D01*
X137619508Y-84881888D01*
X137653168Y-84861872D01*
X137691224Y-84853776D01*
X137700276Y-84852584D01*
X137860661Y-84862570D01*
X137860661Y-84862570D01*
G37*
X137860661Y-84862570D02*
X137926862Y-84888870D01*
X137950688Y-84971477D01*
X137987634Y-85193054D01*
X138037041Y-85548083D01*
X138098251Y-86031045D01*
X138170607Y-86636424D01*
X138253450Y-87358701D01*
X138346122Y-88192359D01*
X138447966Y-89131879D01*
X138558324Y-90171744D01*
X138569454Y-90277714D01*
X138660825Y-91142713D01*
X138748923Y-91965656D01*
X138832454Y-92735143D01*
X138910127Y-93439773D01*
X138980648Y-94068148D01*
X139042725Y-94608869D01*
X139095065Y-95050535D01*
X139136376Y-95381747D01*
X139165366Y-95591106D01*
X139180541Y-95667035D01*
X139233933Y-95630379D01*
X139339941Y-95488946D01*
X139482633Y-95265892D01*
X139627942Y-95016828D01*
X139832627Y-94668579D01*
X139992533Y-94436861D01*
X140120409Y-94304952D01*
X140203992Y-94261170D01*
X140338215Y-94243074D01*
X140586962Y-94226878D01*
X140919616Y-94213950D01*
X141305560Y-94205658D01*
X141488189Y-94203805D01*
X142592378Y-94196571D01*
X142844535Y-93975174D01*
X142973388Y-93832799D01*
X143153653Y-93594257D01*
X143364327Y-93289169D01*
X143584408Y-92947156D01*
X143654952Y-92832174D01*
X143921007Y-92398410D01*
X144128490Y-92075730D01*
X144289933Y-91848683D01*
X144417864Y-91701817D01*
X144524813Y-91619682D01*
X144623310Y-91586826D01*
X144667117Y-91584000D01*
X144745594Y-91590940D01*
X144820329Y-91622040D01*
X144903223Y-91692718D01*
X145006174Y-91818390D01*
X145141081Y-92014476D01*
X145319845Y-92296392D01*
X145554365Y-92679557D01*
X145705964Y-92929998D01*
X145959927Y-93344399D01*
X146157438Y-93650472D01*
X146312524Y-93866770D01*
X146439212Y-94011848D01*
X146551529Y-94104258D01*
X146624931Y-94145569D01*
X146699320Y-94175408D01*
X146794835Y-94200079D01*
X146924977Y-94220063D01*
X147103251Y-94235841D01*
X147343158Y-94247894D01*
X147658201Y-94256704D01*
X148061881Y-94262752D01*
X148567703Y-94266518D01*
X149189167Y-94268483D01*
X149939777Y-94269129D01*
X150093554Y-94269143D01*
X153303042Y-94269143D01*
X154789428Y-92781428D01*
X156275815Y-91293714D01*
X161426737Y-91293714D01*
X166006961Y-86721714D01*
X169082654Y-86721714D01*
X169202749Y-86905002D01*
X169279719Y-87043512D01*
X169267510Y-87138752D01*
X169193174Y-87231573D01*
X169139471Y-87280944D01*
X169066679Y-87317498D01*
X168954111Y-87343144D01*
X168781078Y-87359793D01*
X168526890Y-87369354D01*
X168170858Y-87373736D01*
X167692293Y-87374851D01*
X167641034Y-87374857D01*
X166218564Y-87374857D01*
X161648292Y-91946857D01*
X156561363Y-91946857D01*
X156240857Y-92273428D01*
X155920351Y-92600000D01*
X160855972Y-92600000D01*
X161139428Y-92890285D01*
X161422885Y-93180571D01*
X164756379Y-93180571D01*
X165244991Y-92708857D01*
X165466238Y-92503014D01*
X165653850Y-92342686D01*
X165780494Y-92250562D01*
X165813229Y-92237143D01*
X165893123Y-92281122D01*
X165862172Y-92409267D01*
X165723517Y-92615882D01*
X165480296Y-92895276D01*
X165409236Y-92969913D01*
X164925616Y-93470857D01*
X163329703Y-93470857D01*
X162810159Y-93471147D01*
X162419365Y-93473099D01*
X162140928Y-93478339D01*
X161958456Y-93488491D01*
X161855556Y-93505180D01*
X161815835Y-93530030D01*
X161822901Y-93564665D01*
X161860361Y-93610710D01*
X161865143Y-93616000D01*
X161919603Y-93666477D01*
X161992422Y-93703704D01*
X162104596Y-93729682D01*
X162277122Y-93746414D01*
X162530997Y-93755900D01*
X162887217Y-93760142D01*
X163366780Y-93761142D01*
X163387740Y-93761143D01*
X163869134Y-93761566D01*
X164226872Y-93764500D01*
X164482440Y-93772442D01*
X164657326Y-93787887D01*
X164773015Y-93813331D01*
X164850994Y-93851271D01*
X164912751Y-93904204D01*
X164949428Y-93942571D01*
X165052612Y-94036401D01*
X165170005Y-94091017D01*
X165342769Y-94116740D01*
X165612067Y-94123889D01*
X165673065Y-94124000D01*
X165955787Y-94121093D01*
X166139490Y-94101705D01*
X166270296Y-94049832D01*
X166394327Y-93949472D01*
X166509714Y-93833714D01*
X166793170Y-93543428D01*
X168960911Y-93543428D01*
X169275834Y-93253143D01*
X169499649Y-93070952D01*
X169675261Y-92975085D01*
X169784421Y-92972848D01*
X169811714Y-93038537D01*
X169765294Y-93126402D01*
X169643665Y-93283642D01*
X169475212Y-93473966D01*
X169138710Y-93833714D01*
X166865742Y-93833714D01*
X166582285Y-94124000D01*
X166412435Y-94287238D01*
X166272307Y-94374029D01*
X166102428Y-94408374D01*
X165863019Y-94414285D01*
X165427208Y-94414285D01*
X165747714Y-94740857D01*
X166068220Y-95067428D01*
X166851395Y-95067428D01*
X167204848Y-95070629D01*
X167436435Y-95082379D01*
X167569337Y-95105901D01*
X167626733Y-95144416D01*
X167634571Y-95176285D01*
X167612532Y-95223608D01*
X167531492Y-95255298D01*
X167369072Y-95274207D01*
X167102891Y-95283187D01*
X166780255Y-95285143D01*
X165925938Y-95285143D01*
X165312286Y-94668285D01*
X164698633Y-94051428D01*
X163513462Y-94051428D01*
X163027037Y-94055680D01*
X162671765Y-94068251D01*
X162451954Y-94088869D01*
X162371907Y-94117259D01*
X162373143Y-94124000D01*
X162461430Y-94152550D01*
X162674008Y-94175081D01*
X162990096Y-94190190D01*
X163388915Y-94196475D01*
X163448487Y-94196571D01*
X164478980Y-94196571D01*
X166038000Y-95756857D01*
X167597020Y-97317142D01*
X168019709Y-97317142D01*
X168366016Y-97337751D01*
X168587884Y-97404413D01*
X168700735Y-97524384D01*
X168723143Y-97648063D01*
X168680204Y-97794602D01*
X168541511Y-97893409D01*
X168292250Y-97950046D01*
X167917606Y-97970077D01*
X167865071Y-97970285D01*
X167379305Y-97970285D01*
X165820286Y-96410000D01*
X164261266Y-94849714D01*
X162230271Y-94849714D01*
X161430850Y-94054092D01*
X160631428Y-93258470D01*
X158454286Y-93208920D01*
X157873116Y-93198160D01*
X157309701Y-93192306D01*
X156788647Y-93191268D01*
X156334563Y-93194959D01*
X155972058Y-93203289D01*
X155725738Y-93216169D01*
X155696571Y-93218868D01*
X155410194Y-93253823D01*
X155267668Y-93285089D01*
X155267746Y-93312551D01*
X155409181Y-93336093D01*
X155690725Y-93355600D01*
X156111131Y-93370958D01*
X156669151Y-93382050D01*
X157363539Y-93388763D01*
X157548021Y-93389699D01*
X159544613Y-93398285D01*
X160666106Y-94521532D01*
X161787598Y-95644778D01*
X163060085Y-95664532D01*
X163526198Y-95673442D01*
X163865825Y-95684800D01*
X164097620Y-95700492D01*
X164240239Y-95722404D01*
X164312336Y-95752421D01*
X164332567Y-95792428D01*
X164332571Y-95793142D01*
X164313447Y-95832358D01*
X164243929Y-95862012D01*
X164105801Y-95883847D01*
X163880843Y-95899603D01*
X163550840Y-95911022D01*
X163097574Y-95919845D01*
X162990000Y-95921459D01*
X161647428Y-95940918D01*
X160523449Y-94814745D01*
X159399470Y-93688571D01*
X154782319Y-93688571D01*
X153530903Y-95003595D01*
X146552571Y-94958571D01*
X146212074Y-94758412D01*
X146079287Y-94671056D01*
X145950820Y-94561558D01*
X145813879Y-94413273D01*
X145655675Y-94209553D01*
X145463415Y-93933752D01*
X145224308Y-93569225D01*
X144925563Y-93099325D01*
X144872852Y-93015599D01*
X144774653Y-92861954D01*
X144696682Y-92770480D01*
X144621940Y-92751730D01*
X144533433Y-92816257D01*
X144414164Y-92974613D01*
X144247136Y-93237352D01*
X144081850Y-93506727D01*
X143890982Y-93803377D01*
X143692794Y-94087568D01*
X143521502Y-94310900D01*
X143475678Y-94364139D01*
X143302425Y-94545583D01*
X143140266Y-94679877D01*
X142962702Y-94775022D01*
X142743238Y-94839017D01*
X142455377Y-94879863D01*
X142072623Y-94905560D01*
X141627087Y-94922285D01*
X140475318Y-94958571D01*
X139861287Y-96119714D01*
X139654941Y-96503349D01*
X139461901Y-96850167D01*
X139295960Y-97136303D01*
X139170914Y-97337891D01*
X139106524Y-97425516D01*
X138994535Y-97520122D01*
X138890948Y-97520372D01*
X138770119Y-97460347D01*
X138574446Y-97350519D01*
X138378886Y-95465116D01*
X138313659Y-94836882D01*
X138241826Y-94146055D01*
X138168337Y-93440175D01*
X138098142Y-92766781D01*
X138036191Y-92173411D01*
X138017190Y-91991691D01*
X137965425Y-91523806D01*
X137916040Y-91127692D01*
X137871512Y-90819826D01*
X137834316Y-90616685D01*
X137806930Y-90534743D01*
X137799013Y-90540263D01*
X137782828Y-90639738D01*
X137757796Y-90868362D01*
X137725268Y-91210500D01*
X137686592Y-91650515D01*
X137643120Y-92172772D01*
X137596201Y-92761636D01*
X137547185Y-93401472D01*
X137517765Y-93797428D01*
X137438787Y-94862345D01*
X137368244Y-95790206D01*
X137305396Y-96588809D01*
X137249502Y-97265949D01*
X137199820Y-97829423D01*
X137155609Y-98287029D01*
X137116130Y-98646562D01*
X137080640Y-98915821D01*
X137048399Y-99102601D01*
X137018666Y-99214699D01*
X136999361Y-99252416D01*
X136842301Y-99341320D01*
X136649401Y-99313217D01*
X136559636Y-99258428D01*
X136506034Y-99160177D01*
X136423295Y-98933830D01*
X136315484Y-98592587D01*
X136186671Y-98149644D01*
X136040923Y-97618200D01*
X135961330Y-97317142D01*
X135828030Y-96808805D01*
X135703276Y-96336295D01*
X135592793Y-95921046D01*
X135502308Y-95584494D01*
X135437549Y-95348076D01*
X135406345Y-95239745D01*
X135334990Y-95012918D01*
X134511376Y-94981393D01*
X134082374Y-94957556D01*
X133768922Y-94915024D01*
X133541519Y-94840239D01*
X133370663Y-94719643D01*
X133226852Y-94539677D01*
X133107208Y-94336083D01*
X132963681Y-94076521D01*
X132820040Y-93822321D01*
X132757988Y-93714972D01*
X132606834Y-93457028D01*
X132245239Y-94092875D01*
X132122759Y-94312179D01*
X132017940Y-94493661D01*
X131916397Y-94640678D01*
X131803747Y-94756589D01*
X131665606Y-94844752D01*
X131487589Y-94908524D01*
X131255313Y-94951264D01*
X130954394Y-94976330D01*
X130570448Y-94987079D01*
X130089091Y-94986869D01*
X129495938Y-94979059D01*
X128776607Y-94967006D01*
X128518771Y-94962823D01*
X127761325Y-94950559D01*
X127136864Y-94938720D01*
X126633249Y-94925462D01*
X126238341Y-94908942D01*
X125940000Y-94887315D01*
X125726086Y-94858738D01*
X125584461Y-94821366D01*
X125502985Y-94773356D01*
X125469517Y-94712863D01*
X125471920Y-94638043D01*
X125498052Y-94547054D01*
X125512282Y-94506140D01*
X125582814Y-94305428D01*
X128423588Y-94269143D01*
X129052581Y-94259633D01*
X129636296Y-94247972D01*
X130158762Y-94234690D01*
X130604008Y-94220319D01*
X130956061Y-94205392D01*
X131198951Y-94190441D01*
X131316705Y-94175998D01*
X131324752Y-94172495D01*
X131385234Y-94088312D01*
X131501403Y-93908051D01*
X131655003Y-93660526D01*
X131784286Y-93447238D01*
X132019060Y-93077921D01*
X132214642Y-92828749D01*
X132389150Y-92686518D01*
X132560698Y-92638023D01*
X132747405Y-92670061D01*
X132815100Y-92695915D01*
X132945860Y-92773700D01*
X133078364Y-92908292D01*
X133231740Y-93123564D01*
X133425114Y-93443387D01*
X133453428Y-93492562D01*
X133653193Y-93821003D01*
X133824783Y-94064107D01*
X133954504Y-94203374D01*
X133997714Y-94227862D01*
X134124865Y-94243304D01*
X134362773Y-94256069D01*
X134677060Y-94264805D01*
X135022651Y-94268152D01*
X135902445Y-94269143D01*
X136218660Y-95461943D01*
X136323348Y-95851848D01*
X136415629Y-96186105D01*
X136489127Y-96442381D01*
X136537469Y-96598340D01*
X136553726Y-96635892D01*
X136561301Y-96601598D01*
X136573167Y-96505232D01*
X136589908Y-96339701D01*
X136612109Y-96097914D01*
X136640352Y-95772777D01*
X136675221Y-95357198D01*
X136717301Y-94844084D01*
X136767174Y-94226343D01*
X136825424Y-93496882D01*
X136892635Y-92648608D01*
X136969390Y-91674430D01*
X137056274Y-90567253D01*
X137118705Y-89769714D01*
X137193847Y-88809970D01*
X137258888Y-87984713D01*
X137315036Y-87283730D01*
X137363499Y-86696806D01*
X137405485Y-86213728D01*
X137442202Y-85824282D01*
X137474858Y-85518254D01*
X137504661Y-85285429D01*
X137532820Y-85115594D01*
X137560542Y-84998535D01*
X137589035Y-84924037D01*
X137619508Y-84881888D01*
X137653168Y-84861872D01*
X137691224Y-84853776D01*
X137700276Y-84852584D01*
X137860661Y-84862570D01*
G36*
X169850244Y-96607511D02*
X170073193Y-96765630D01*
X170213925Y-97010026D01*
X170247143Y-97229204D01*
X170201500Y-97532719D01*
X170053203Y-97748821D01*
X169885738Y-97860677D01*
X169621663Y-97956253D01*
X169387050Y-97935627D01*
X169239131Y-97869011D01*
X169011471Y-97671597D01*
X168894059Y-97417406D01*
X168888850Y-97246288D01*
X169303714Y-97246288D01*
X169360229Y-97427972D01*
X169498009Y-97526364D01*
X169669410Y-97524870D01*
X169813498Y-97423851D01*
X169868607Y-97296729D01*
X169823940Y-97133565D01*
X169698236Y-96986793D01*
X169539713Y-96951380D01*
X169394927Y-97017235D01*
X169310434Y-97174273D01*
X169303714Y-97246288D01*
X168888850Y-97246288D01*
X168885695Y-97142646D01*
X168985181Y-96883527D01*
X169191320Y-96676258D01*
X169280247Y-96626495D01*
X169575716Y-96554766D01*
X169850244Y-96607511D01*
X169850244Y-96607511D01*
G37*
X169850244Y-96607511D02*
X170073193Y-96765630D01*
X170213925Y-97010026D01*
X170247143Y-97229204D01*
X170201500Y-97532719D01*
X170053203Y-97748821D01*
X169885738Y-97860677D01*
X169621663Y-97956253D01*
X169387050Y-97935627D01*
X169239131Y-97869011D01*
X169011471Y-97671597D01*
X168894059Y-97417406D01*
X168888850Y-97246288D01*
X169303714Y-97246288D01*
X169360229Y-97427972D01*
X169498009Y-97526364D01*
X169669410Y-97524870D01*
X169813498Y-97423851D01*
X169868607Y-97296729D01*
X169823940Y-97133565D01*
X169698236Y-96986793D01*
X169539713Y-96951380D01*
X169394927Y-97017235D01*
X169310434Y-97174273D01*
X169303714Y-97246288D01*
X168888850Y-97246288D01*
X168885695Y-97142646D01*
X168985181Y-96883527D01*
X169191320Y-96676258D01*
X169280247Y-96626495D01*
X169575716Y-96554766D01*
X169850244Y-96607511D01*
G36*
X186866000Y-96150816D02*
X186858902Y-96495424D01*
X186834839Y-96723229D01*
X186789652Y-96862005D01*
X186751959Y-96912816D01*
X186566086Y-97007977D01*
X186330590Y-97014903D01*
X186111949Y-96932458D01*
X186099842Y-96923933D01*
X186010980Y-96818347D01*
X186037435Y-96752675D01*
X186149521Y-96760425D01*
X186215173Y-96793747D01*
X186426637Y-96876003D01*
X186583715Y-96824055D01*
X186645732Y-96741342D01*
X186711733Y-96592536D01*
X186682150Y-96539932D01*
X186544666Y-96560313D01*
X186284438Y-96571214D01*
X186096030Y-96456176D01*
X185997448Y-96271843D01*
X185958809Y-96032770D01*
X186212857Y-96032770D01*
X186223078Y-96237143D01*
X186248759Y-96374676D01*
X186261238Y-96397904D01*
X186398558Y-96447809D01*
X186555149Y-96398689D01*
X186650206Y-96297554D01*
X186711427Y-96083804D01*
X186685544Y-95881182D01*
X186590967Y-95725920D01*
X186446106Y-95654249D01*
X186331578Y-95670458D01*
X186248304Y-95757670D01*
X186214577Y-95951408D01*
X186212857Y-96032770D01*
X185958809Y-96032770D01*
X185955255Y-96010781D01*
X185997505Y-95823216D01*
X186088570Y-95641378D01*
X186214076Y-95544530D01*
X186417859Y-95507683D01*
X186557571Y-95503968D01*
X186866000Y-95502857D01*
X186866000Y-96150816D01*
X186866000Y-96150816D01*
G37*
X186866000Y-96150816D02*
X186858902Y-96495424D01*
X186834839Y-96723229D01*
X186789652Y-96862005D01*
X186751959Y-96912816D01*
X186566086Y-97007977D01*
X186330590Y-97014903D01*
X186111949Y-96932458D01*
X186099842Y-96923933D01*
X186010980Y-96818347D01*
X186037435Y-96752675D01*
X186149521Y-96760425D01*
X186215173Y-96793747D01*
X186426637Y-96876003D01*
X186583715Y-96824055D01*
X186645732Y-96741342D01*
X186711733Y-96592536D01*
X186682150Y-96539932D01*
X186544666Y-96560313D01*
X186284438Y-96571214D01*
X186096030Y-96456176D01*
X185997448Y-96271843D01*
X185958809Y-96032770D01*
X186212857Y-96032770D01*
X186223078Y-96237143D01*
X186248759Y-96374676D01*
X186261238Y-96397904D01*
X186398558Y-96447809D01*
X186555149Y-96398689D01*
X186650206Y-96297554D01*
X186711427Y-96083804D01*
X186685544Y-95881182D01*
X186590967Y-95725920D01*
X186446106Y-95654249D01*
X186331578Y-95670458D01*
X186248304Y-95757670D01*
X186214577Y-95951408D01*
X186212857Y-96032770D01*
X185958809Y-96032770D01*
X185955255Y-96010781D01*
X185997505Y-95823216D01*
X186088570Y-95641378D01*
X186214076Y-95544530D01*
X186417859Y-95507683D01*
X186557571Y-95503968D01*
X186866000Y-95502857D01*
X186866000Y-96150816D01*
G36*
X171349138Y-95090789D02*
X171381476Y-95176493D01*
X171399789Y-95347969D01*
X171407424Y-95628649D01*
X171408285Y-95829428D01*
X171404948Y-96177399D01*
X171392705Y-96403764D01*
X171368208Y-96531953D01*
X171328111Y-96585397D01*
X171299428Y-96591428D01*
X171230972Y-96552583D01*
X171197537Y-96418091D01*
X171190571Y-96228571D01*
X171190571Y-95865714D01*
X170464857Y-95865714D01*
X170464857Y-96228571D01*
X170453203Y-96456758D01*
X170412856Y-96568209D01*
X170356000Y-96591428D01*
X170306458Y-96568164D01*
X170274163Y-96482800D01*
X170255803Y-96311978D01*
X170248068Y-96032339D01*
X170247143Y-95823381D01*
X170251457Y-95465515D01*
X170265853Y-95234830D01*
X170292513Y-95113579D01*
X170333617Y-95084014D01*
X170337857Y-95085164D01*
X170399095Y-95169701D01*
X170443035Y-95345362D01*
X170450887Y-95417783D01*
X170473202Y-95720571D01*
X171190571Y-95720571D01*
X171190571Y-95394000D01*
X171204817Y-95178752D01*
X171253258Y-95080707D01*
X171299428Y-95067428D01*
X171349138Y-95090789D01*
X171349138Y-95090789D01*
G37*
X171349138Y-95090789D02*
X171381476Y-95176493D01*
X171399789Y-95347969D01*
X171407424Y-95628649D01*
X171408285Y-95829428D01*
X171404948Y-96177399D01*
X171392705Y-96403764D01*
X171368208Y-96531953D01*
X171328111Y-96585397D01*
X171299428Y-96591428D01*
X171230972Y-96552583D01*
X171197537Y-96418091D01*
X171190571Y-96228571D01*
X171190571Y-95865714D01*
X170464857Y-95865714D01*
X170464857Y-96228571D01*
X170453203Y-96456758D01*
X170412856Y-96568209D01*
X170356000Y-96591428D01*
X170306458Y-96568164D01*
X170274163Y-96482800D01*
X170255803Y-96311978D01*
X170248068Y-96032339D01*
X170247143Y-95823381D01*
X170251457Y-95465515D01*
X170265853Y-95234830D01*
X170292513Y-95113579D01*
X170333617Y-95084014D01*
X170337857Y-95085164D01*
X170399095Y-95169701D01*
X170443035Y-95345362D01*
X170450887Y-95417783D01*
X170473202Y-95720571D01*
X171190571Y-95720571D01*
X171190571Y-95394000D01*
X171204817Y-95178752D01*
X171253258Y-95080707D01*
X171299428Y-95067428D01*
X171349138Y-95090789D01*
G36*
X172437171Y-95587596D02*
X172589414Y-95739701D01*
X172642000Y-95925857D01*
X172625438Y-96021090D01*
X172551140Y-96067842D01*
X172382188Y-96082696D01*
X172291238Y-96083428D01*
X172037022Y-96093869D01*
X171907237Y-96133274D01*
X171882150Y-96213768D01*
X171921392Y-96310684D01*
X172054920Y-96425300D01*
X172250591Y-96431370D01*
X172421970Y-96358318D01*
X172561233Y-96309626D01*
X172627365Y-96348465D01*
X172590679Y-96441328D01*
X172537301Y-96488505D01*
X172324315Y-96575400D01*
X172081255Y-96580103D01*
X171873167Y-96505312D01*
X171818676Y-96458714D01*
X171731710Y-96279399D01*
X171700405Y-96037589D01*
X171716137Y-95885373D01*
X171879970Y-95885373D01*
X171923249Y-95927114D01*
X172075313Y-95938055D01*
X172131446Y-95938285D01*
X172314206Y-95925507D01*
X172416446Y-95893557D01*
X172424285Y-95880228D01*
X172363631Y-95762069D01*
X172225289Y-95670026D01*
X172122039Y-95648000D01*
X171988538Y-95706174D01*
X171916285Y-95793142D01*
X171879970Y-95885373D01*
X171716137Y-95885373D01*
X171725225Y-95797451D01*
X171806631Y-95623152D01*
X171812612Y-95616898D01*
X172005429Y-95510049D01*
X172228062Y-95505664D01*
X172437171Y-95587596D01*
X172437171Y-95587596D01*
G37*
X172437171Y-95587596D02*
X172589414Y-95739701D01*
X172642000Y-95925857D01*
X172625438Y-96021090D01*
X172551140Y-96067842D01*
X172382188Y-96082696D01*
X172291238Y-96083428D01*
X172037022Y-96093869D01*
X171907237Y-96133274D01*
X171882150Y-96213768D01*
X171921392Y-96310684D01*
X172054920Y-96425300D01*
X172250591Y-96431370D01*
X172421970Y-96358318D01*
X172561233Y-96309626D01*
X172627365Y-96348465D01*
X172590679Y-96441328D01*
X172537301Y-96488505D01*
X172324315Y-96575400D01*
X172081255Y-96580103D01*
X171873167Y-96505312D01*
X171818676Y-96458714D01*
X171731710Y-96279399D01*
X171700405Y-96037589D01*
X171716137Y-95885373D01*
X171879970Y-95885373D01*
X171923249Y-95927114D01*
X172075313Y-95938055D01*
X172131446Y-95938285D01*
X172314206Y-95925507D01*
X172416446Y-95893557D01*
X172424285Y-95880228D01*
X172363631Y-95762069D01*
X172225289Y-95670026D01*
X172122039Y-95648000D01*
X171988538Y-95706174D01*
X171916285Y-95793142D01*
X171879970Y-95885373D01*
X171716137Y-95885373D01*
X171725225Y-95797451D01*
X171806631Y-95623152D01*
X171812612Y-95616898D01*
X172005429Y-95510049D01*
X172228062Y-95505664D01*
X172437171Y-95587596D01*
G36*
X173482603Y-95519652D02*
X173630082Y-95580950D01*
X173642196Y-95593571D01*
X173686011Y-95711112D01*
X173723215Y-95922827D01*
X173741797Y-96125530D01*
X173766857Y-96566775D01*
X173360378Y-96577813D01*
X173129288Y-96576083D01*
X172961553Y-96559998D01*
X172906807Y-96541759D01*
X172872148Y-96441156D01*
X172862990Y-96331002D01*
X173023644Y-96331002D01*
X173039178Y-96370535D01*
X173151494Y-96434934D01*
X173320959Y-96437311D01*
X173474369Y-96379472D01*
X173498343Y-96359200D01*
X173583699Y-96217418D01*
X173535169Y-96118111D01*
X173376600Y-96083428D01*
X173191174Y-96121644D01*
X173060937Y-96214877D01*
X173023644Y-96331002D01*
X172862990Y-96331002D01*
X172859714Y-96291601D01*
X172919339Y-96091379D01*
X173098267Y-95973699D01*
X173370707Y-95938285D01*
X173527007Y-95922697D01*
X173567747Y-95864705D01*
X173556907Y-95823493D01*
X173518483Y-95707806D01*
X173512857Y-95678350D01*
X173454183Y-95646926D01*
X173317346Y-95655788D01*
X173161121Y-95697118D01*
X173079744Y-95735967D01*
X172939827Y-95785980D01*
X172876268Y-95742143D01*
X172918681Y-95628819D01*
X172930830Y-95613468D01*
X173067617Y-95537739D01*
X173273328Y-95505858D01*
X173482603Y-95519652D01*
X173482603Y-95519652D01*
G37*
X173482603Y-95519652D02*
X173630082Y-95580950D01*
X173642196Y-95593571D01*
X173686011Y-95711112D01*
X173723215Y-95922827D01*
X173741797Y-96125530D01*
X173766857Y-96566775D01*
X173360378Y-96577813D01*
X173129288Y-96576083D01*
X172961553Y-96559998D01*
X172906807Y-96541759D01*
X172872148Y-96441156D01*
X172862990Y-96331002D01*
X173023644Y-96331002D01*
X173039178Y-96370535D01*
X173151494Y-96434934D01*
X173320959Y-96437311D01*
X173474369Y-96379472D01*
X173498343Y-96359200D01*
X173583699Y-96217418D01*
X173535169Y-96118111D01*
X173376600Y-96083428D01*
X173191174Y-96121644D01*
X173060937Y-96214877D01*
X173023644Y-96331002D01*
X172862990Y-96331002D01*
X172859714Y-96291601D01*
X172919339Y-96091379D01*
X173098267Y-95973699D01*
X173370707Y-95938285D01*
X173527007Y-95922697D01*
X173567747Y-95864705D01*
X173556907Y-95823493D01*
X173518483Y-95707806D01*
X173512857Y-95678350D01*
X173454183Y-95646926D01*
X173317346Y-95655788D01*
X173161121Y-95697118D01*
X173079744Y-95735967D01*
X172939827Y-95785980D01*
X172876268Y-95742143D01*
X172918681Y-95628819D01*
X172930830Y-95613468D01*
X173067617Y-95537739D01*
X173273328Y-95505858D01*
X173482603Y-95519652D01*
G36*
X174521801Y-95537927D02*
X174591881Y-95582752D01*
X174520494Y-95655613D01*
X174420000Y-95707366D01*
X174314448Y-95771887D01*
X174260054Y-95870051D01*
X174240452Y-96045461D01*
X174238571Y-96190730D01*
X174228867Y-96431964D01*
X174194799Y-96556409D01*
X174129714Y-96591428D01*
X174071841Y-96562566D01*
X174038093Y-96458398D01*
X174023096Y-96252550D01*
X174020857Y-96057039D01*
X174020857Y-95522649D01*
X174311143Y-95522649D01*
X174521801Y-95537927D01*
X174521801Y-95537927D01*
G37*
X174521801Y-95537927D02*
X174591881Y-95582752D01*
X174520494Y-95655613D01*
X174420000Y-95707366D01*
X174314448Y-95771887D01*
X174260054Y-95870051D01*
X174240452Y-96045461D01*
X174238571Y-96190730D01*
X174228867Y-96431964D01*
X174194799Y-96556409D01*
X174129714Y-96591428D01*
X174071841Y-96562566D01*
X174038093Y-96458398D01*
X174023096Y-96252550D01*
X174020857Y-96057039D01*
X174020857Y-95522649D01*
X174311143Y-95522649D01*
X174521801Y-95537927D01*
G36*
X174947366Y-95261453D02*
X174964285Y-95351666D01*
X175006123Y-95488220D01*
X175055000Y-95533095D01*
X175108369Y-95580755D01*
X175055000Y-95617762D01*
X174992957Y-95715525D01*
X174963722Y-95898709D01*
X174966056Y-96112556D01*
X174998721Y-96302308D01*
X175060477Y-96413209D01*
X175073143Y-96420042D01*
X175174700Y-96493792D01*
X175146868Y-96561978D01*
X175005462Y-96591428D01*
X174846827Y-96542689D01*
X174789816Y-96464428D01*
X174760772Y-96300180D01*
X174742126Y-96060063D01*
X174734575Y-95791670D01*
X174738813Y-95542590D01*
X174755538Y-95360415D01*
X174772814Y-95301392D01*
X174871169Y-95216596D01*
X174947366Y-95261453D01*
X174947366Y-95261453D01*
G37*
X174947366Y-95261453D02*
X174964285Y-95351666D01*
X175006123Y-95488220D01*
X175055000Y-95533095D01*
X175108369Y-95580755D01*
X175055000Y-95617762D01*
X174992957Y-95715525D01*
X174963722Y-95898709D01*
X174966056Y-96112556D01*
X174998721Y-96302308D01*
X175060477Y-96413209D01*
X175073143Y-96420042D01*
X175174700Y-96493792D01*
X175146868Y-96561978D01*
X175005462Y-96591428D01*
X174846827Y-96542689D01*
X174789816Y-96464428D01*
X174760772Y-96300180D01*
X174742126Y-96060063D01*
X174734575Y-95791670D01*
X174738813Y-95542590D01*
X174755538Y-95360415D01*
X174772814Y-95301392D01*
X174871169Y-95216596D01*
X174947366Y-95261453D01*
G36*
X176397571Y-95082255D02*
X176679114Y-95107853D01*
X176839443Y-95148616D01*
X176873180Y-95195227D01*
X176774944Y-95238369D01*
X176539357Y-95268725D01*
X176506428Y-95270792D01*
X176284798Y-95288396D01*
X176171740Y-95323085D01*
X176130786Y-95397436D01*
X176125428Y-95506649D01*
X176135227Y-95638218D01*
X176190864Y-95700535D01*
X176331702Y-95719386D01*
X176452000Y-95720571D01*
X176667247Y-95734817D01*
X176765292Y-95783258D01*
X176778571Y-95829428D01*
X176735833Y-95901177D01*
X176590512Y-95933859D01*
X176452000Y-95938285D01*
X176125428Y-95938285D01*
X176125428Y-96264857D01*
X176111182Y-96480104D01*
X176062742Y-96578149D01*
X176016571Y-96591428D01*
X175966954Y-96568121D01*
X175934639Y-96482604D01*
X175916300Y-96311487D01*
X175908610Y-96031380D01*
X175907714Y-95826112D01*
X175907714Y-95060797D01*
X176397571Y-95082255D01*
X176397571Y-95082255D01*
G37*
X176397571Y-95082255D02*
X176679114Y-95107853D01*
X176839443Y-95148616D01*
X176873180Y-95195227D01*
X176774944Y-95238369D01*
X176539357Y-95268725D01*
X176506428Y-95270792D01*
X176284798Y-95288396D01*
X176171740Y-95323085D01*
X176130786Y-95397436D01*
X176125428Y-95506649D01*
X176135227Y-95638218D01*
X176190864Y-95700535D01*
X176331702Y-95719386D01*
X176452000Y-95720571D01*
X176667247Y-95734817D01*
X176765292Y-95783258D01*
X176778571Y-95829428D01*
X176735833Y-95901177D01*
X176590512Y-95933859D01*
X176452000Y-95938285D01*
X176125428Y-95938285D01*
X176125428Y-96264857D01*
X176111182Y-96480104D01*
X176062742Y-96578149D01*
X176016571Y-96591428D01*
X175966954Y-96568121D01*
X175934639Y-96482604D01*
X175916300Y-96311487D01*
X175908610Y-96031380D01*
X175907714Y-95826112D01*
X175907714Y-95060797D01*
X176397571Y-95082255D01*
G36*
X177776768Y-95522612D02*
X177925166Y-95589908D01*
X177925200Y-95589942D01*
X177972640Y-95707085D01*
X178004055Y-95920538D01*
X178012285Y-96118644D01*
X178012285Y-96560259D01*
X177611323Y-96577038D01*
X177370113Y-96578315D01*
X177235952Y-96550351D01*
X177172142Y-96483993D01*
X177164705Y-96465622D01*
X177112242Y-96331002D01*
X177305358Y-96331002D01*
X177320892Y-96370535D01*
X177441731Y-96440693D01*
X177631614Y-96413695D01*
X177726771Y-96371161D01*
X177853805Y-96257348D01*
X177849407Y-96150426D01*
X177722504Y-96087921D01*
X177658314Y-96083428D01*
X177472888Y-96121644D01*
X177342652Y-96214877D01*
X177305358Y-96331002D01*
X177112242Y-96331002D01*
X177111980Y-96330330D01*
X177091306Y-96285647D01*
X177111323Y-96190340D01*
X177223625Y-96079027D01*
X177383744Y-95984332D01*
X177547210Y-95938881D01*
X177564762Y-95938285D01*
X177761231Y-95916888D01*
X177834278Y-95844528D01*
X177818092Y-95749762D01*
X177717318Y-95663426D01*
X177545066Y-95660932D01*
X177361458Y-95735967D01*
X177221541Y-95785980D01*
X177157982Y-95742143D01*
X177200395Y-95628819D01*
X177212544Y-95613468D01*
X177352620Y-95536631D01*
X177563307Y-95505600D01*
X177776768Y-95522612D01*
X177776768Y-95522612D01*
G37*
X177776768Y-95522612D02*
X177925166Y-95589908D01*
X177925200Y-95589942D01*
X177972640Y-95707085D01*
X178004055Y-95920538D01*
X178012285Y-96118644D01*
X178012285Y-96560259D01*
X177611323Y-96577038D01*
X177370113Y-96578315D01*
X177235952Y-96550351D01*
X177172142Y-96483993D01*
X177164705Y-96465622D01*
X177112242Y-96331002D01*
X177305358Y-96331002D01*
X177320892Y-96370535D01*
X177441731Y-96440693D01*
X177631614Y-96413695D01*
X177726771Y-96371161D01*
X177853805Y-96257348D01*
X177849407Y-96150426D01*
X177722504Y-96087921D01*
X177658314Y-96083428D01*
X177472888Y-96121644D01*
X177342652Y-96214877D01*
X177305358Y-96331002D01*
X177112242Y-96331002D01*
X177111980Y-96330330D01*
X177091306Y-96285647D01*
X177111323Y-96190340D01*
X177223625Y-96079027D01*
X177383744Y-95984332D01*
X177547210Y-95938881D01*
X177564762Y-95938285D01*
X177761231Y-95916888D01*
X177834278Y-95844528D01*
X177818092Y-95749762D01*
X177717318Y-95663426D01*
X177545066Y-95660932D01*
X177361458Y-95735967D01*
X177221541Y-95785980D01*
X177157982Y-95742143D01*
X177200395Y-95628819D01*
X177212544Y-95613468D01*
X177352620Y-95536631D01*
X177563307Y-95505600D01*
X177776768Y-95522612D01*
G36*
X178468848Y-95531368D02*
X178502552Y-95634401D01*
X178517791Y-95838204D01*
X178520285Y-96047142D01*
X178514583Y-96334238D01*
X178493977Y-96502761D01*
X178453216Y-96578957D01*
X178411428Y-96591428D01*
X178354009Y-96562917D01*
X178320305Y-96459884D01*
X178305065Y-96256081D01*
X178302571Y-96047142D01*
X178308274Y-95760047D01*
X178328880Y-95591524D01*
X178369641Y-95515328D01*
X178411428Y-95502857D01*
X178468848Y-95531368D01*
X178468848Y-95531368D01*
G37*
X178468848Y-95531368D02*
X178502552Y-95634401D01*
X178517791Y-95838204D01*
X178520285Y-96047142D01*
X178514583Y-96334238D01*
X178493977Y-96502761D01*
X178453216Y-96578957D01*
X178411428Y-96591428D01*
X178354009Y-96562917D01*
X178320305Y-96459884D01*
X178305065Y-96256081D01*
X178302571Y-96047142D01*
X178308274Y-95760047D01*
X178328880Y-95591524D01*
X178369641Y-95515328D01*
X178411428Y-95502857D01*
X178468848Y-95531368D01*
G36*
X178901285Y-95085417D02*
X178949878Y-95162542D01*
X178984761Y-95362903D01*
X179007252Y-95695587D01*
X179012681Y-95853465D01*
X179019123Y-96192405D01*
X179013612Y-96410956D01*
X178993139Y-96533597D01*
X178954696Y-96584806D01*
X178921967Y-96591428D01*
X178871448Y-96569777D01*
X178838525Y-96489002D01*
X178819755Y-96325371D01*
X178811697Y-96055152D01*
X178810571Y-95823381D01*
X178814880Y-95465587D01*
X178829260Y-95234968D01*
X178855894Y-95113769D01*
X178896966Y-95084239D01*
X178901285Y-95085417D01*
X178901285Y-95085417D01*
G37*
X178901285Y-95085417D02*
X178949878Y-95162542D01*
X178984761Y-95362903D01*
X179007252Y-95695587D01*
X179012681Y-95853465D01*
X179019123Y-96192405D01*
X179013612Y-96410956D01*
X178993139Y-96533597D01*
X178954696Y-96584806D01*
X178921967Y-96591428D01*
X178871448Y-96569777D01*
X178838525Y-96489002D01*
X178819755Y-96325371D01*
X178811697Y-96055152D01*
X178810571Y-95823381D01*
X178814880Y-95465587D01*
X178829260Y-95234968D01*
X178855894Y-95113769D01*
X178896966Y-95084239D01*
X178901285Y-95085417D01*
G36*
X180138559Y-95531809D02*
X180172319Y-95636269D01*
X180187253Y-95842641D01*
X180189428Y-96034763D01*
X180189428Y-96566670D01*
X179844714Y-96570936D01*
X179620420Y-96566647D01*
X179451397Y-96550878D01*
X179409285Y-96540982D01*
X179364425Y-96459795D01*
X179333881Y-96284451D01*
X179318415Y-96058694D01*
X179318795Y-95826267D01*
X179335782Y-95630914D01*
X179370143Y-95516379D01*
X179391143Y-95502857D01*
X179432832Y-95568064D01*
X179459075Y-95734522D01*
X179463714Y-95859778D01*
X179477604Y-96167373D01*
X179524213Y-96352648D01*
X179610952Y-96436200D01*
X179674678Y-96446285D01*
X179836180Y-96397747D01*
X179932342Y-96243043D01*
X179970413Y-95968538D01*
X179971714Y-95887485D01*
X179982172Y-95651738D01*
X180018690Y-95532712D01*
X180080571Y-95502857D01*
X180138559Y-95531809D01*
X180138559Y-95531809D01*
G37*
X180138559Y-95531809D02*
X180172319Y-95636269D01*
X180187253Y-95842641D01*
X180189428Y-96034763D01*
X180189428Y-96566670D01*
X179844714Y-96570936D01*
X179620420Y-96566647D01*
X179451397Y-96550878D01*
X179409285Y-96540982D01*
X179364425Y-96459795D01*
X179333881Y-96284451D01*
X179318415Y-96058694D01*
X179318795Y-95826267D01*
X179335782Y-95630914D01*
X179370143Y-95516379D01*
X179391143Y-95502857D01*
X179432832Y-95568064D01*
X179459075Y-95734522D01*
X179463714Y-95859778D01*
X179477604Y-96167373D01*
X179524213Y-96352648D01*
X179610952Y-96436200D01*
X179674678Y-96446285D01*
X179836180Y-96397747D01*
X179932342Y-96243043D01*
X179970413Y-95968538D01*
X179971714Y-95887485D01*
X179982172Y-95651738D01*
X180018690Y-95532712D01*
X180080571Y-95502857D01*
X180138559Y-95531809D01*
G36*
X180924834Y-95537099D02*
X180978315Y-95585695D01*
X180891705Y-95664025D01*
X180806285Y-95707366D01*
X180700734Y-95771887D01*
X180646340Y-95870051D01*
X180626738Y-96045461D01*
X180624857Y-96190730D01*
X180612971Y-96409798D01*
X180582298Y-96555341D01*
X180552285Y-96591428D01*
X180515461Y-96524049D01*
X180489880Y-96342342D01*
X180479740Y-96076948D01*
X180479714Y-96061525D01*
X180479714Y-95531622D01*
X180733714Y-95524423D01*
X180924834Y-95537099D01*
X180924834Y-95537099D01*
G37*
X180924834Y-95537099D02*
X180978315Y-95585695D01*
X180891705Y-95664025D01*
X180806285Y-95707366D01*
X180700734Y-95771887D01*
X180646340Y-95870051D01*
X180626738Y-96045461D01*
X180624857Y-96190730D01*
X180612971Y-96409798D01*
X180582298Y-96555341D01*
X180552285Y-96591428D01*
X180515461Y-96524049D01*
X180489880Y-96342342D01*
X180479740Y-96076948D01*
X180479714Y-96061525D01*
X180479714Y-95531622D01*
X180733714Y-95524423D01*
X180924834Y-95537099D01*
G36*
X181848189Y-95567037D02*
X182014147Y-95732229D01*
X182076285Y-95954433D01*
X182053323Y-96029800D01*
X181962535Y-96069018D01*
X181771070Y-96082704D01*
X181677143Y-96083428D01*
X181436451Y-96087595D01*
X181316512Y-96111249D01*
X181292962Y-96171118D01*
X181341437Y-96283933D01*
X181353125Y-96305913D01*
X181483853Y-96417845D01*
X181665295Y-96439132D01*
X181831558Y-96365557D01*
X181857908Y-96338227D01*
X181962198Y-96267683D01*
X182016664Y-96272861D01*
X182044858Y-96348186D01*
X181971897Y-96443713D01*
X181833740Y-96532039D01*
X181666349Y-96585764D01*
X181598591Y-96591428D01*
X181366235Y-96539369D01*
X181210696Y-96400213D01*
X181079221Y-96154223D01*
X181086166Y-95908661D01*
X181095848Y-95885373D01*
X181314255Y-95885373D01*
X181357535Y-95927114D01*
X181509599Y-95938055D01*
X181565732Y-95938285D01*
X181748492Y-95925507D01*
X181850732Y-95893557D01*
X181858571Y-95880228D01*
X181797917Y-95762069D01*
X181659575Y-95670026D01*
X181556325Y-95648000D01*
X181422823Y-95706174D01*
X181350571Y-95793142D01*
X181314255Y-95885373D01*
X181095848Y-95885373D01*
X181143721Y-95770229D01*
X181265343Y-95597710D01*
X181425454Y-95519681D01*
X181618599Y-95503968D01*
X181848189Y-95567037D01*
X181848189Y-95567037D01*
G37*
X181848189Y-95567037D02*
X182014147Y-95732229D01*
X182076285Y-95954433D01*
X182053323Y-96029800D01*
X181962535Y-96069018D01*
X181771070Y-96082704D01*
X181677143Y-96083428D01*
X181436451Y-96087595D01*
X181316512Y-96111249D01*
X181292962Y-96171118D01*
X181341437Y-96283933D01*
X181353125Y-96305913D01*
X181483853Y-96417845D01*
X181665295Y-96439132D01*
X181831558Y-96365557D01*
X181857908Y-96338227D01*
X181962198Y-96267683D01*
X182016664Y-96272861D01*
X182044858Y-96348186D01*
X181971897Y-96443713D01*
X181833740Y-96532039D01*
X181666349Y-96585764D01*
X181598591Y-96591428D01*
X181366235Y-96539369D01*
X181210696Y-96400213D01*
X181079221Y-96154223D01*
X181086166Y-95908661D01*
X181095848Y-95885373D01*
X181314255Y-95885373D01*
X181357535Y-95927114D01*
X181509599Y-95938055D01*
X181565732Y-95938285D01*
X181748492Y-95925507D01*
X181850732Y-95893557D01*
X181858571Y-95880228D01*
X181797917Y-95762069D01*
X181659575Y-95670026D01*
X181556325Y-95648000D01*
X181422823Y-95706174D01*
X181350571Y-95793142D01*
X181314255Y-95885373D01*
X181095848Y-95885373D01*
X181143721Y-95770229D01*
X181265343Y-95597710D01*
X181425454Y-95519681D01*
X181618599Y-95503968D01*
X181848189Y-95567037D01*
G36*
X183346285Y-95124578D02*
X183698147Y-95176343D01*
X183932378Y-95301435D01*
X184064014Y-95514310D01*
X184108090Y-95829421D01*
X184108285Y-95857111D01*
X184068046Y-96163129D01*
X183937631Y-96375957D01*
X183702495Y-96508664D01*
X183348095Y-96574319D01*
X183306369Y-96577640D01*
X182869297Y-96609255D01*
X182890077Y-95856484D01*
X182905848Y-95285143D01*
X183092285Y-95285143D01*
X183092285Y-96462438D01*
X183364428Y-96411936D01*
X183580020Y-96348422D01*
X183748953Y-96259547D01*
X183763571Y-96247469D01*
X183857181Y-96080829D01*
X183890003Y-95845148D01*
X183861514Y-95603425D01*
X183771190Y-95418659D01*
X183770466Y-95417857D01*
X183583672Y-95311973D01*
X183371324Y-95285143D01*
X183092285Y-95285143D01*
X182905848Y-95285143D01*
X182910857Y-95103714D01*
X183346285Y-95124578D01*
X183346285Y-95124578D01*
G37*
X183346285Y-95124578D02*
X183698147Y-95176343D01*
X183932378Y-95301435D01*
X184064014Y-95514310D01*
X184108090Y-95829421D01*
X184108285Y-95857111D01*
X184068046Y-96163129D01*
X183937631Y-96375957D01*
X183702495Y-96508664D01*
X183348095Y-96574319D01*
X183306369Y-96577640D01*
X182869297Y-96609255D01*
X182890077Y-95856484D01*
X182905848Y-95285143D01*
X183092285Y-95285143D01*
X183092285Y-96462438D01*
X183364428Y-96411936D01*
X183580020Y-96348422D01*
X183748953Y-96259547D01*
X183763571Y-96247469D01*
X183857181Y-96080829D01*
X183890003Y-95845148D01*
X183861514Y-95603425D01*
X183771190Y-95418659D01*
X183770466Y-95417857D01*
X183583672Y-95311973D01*
X183371324Y-95285143D01*
X183092285Y-95285143D01*
X182905848Y-95285143D01*
X182910857Y-95103714D01*
X183346285Y-95124578D01*
G36*
X184507710Y-95570393D02*
X184533197Y-95753209D01*
X184543646Y-96021618D01*
X184543714Y-96047142D01*
X184534709Y-96321394D01*
X184510334Y-96512549D01*
X184474546Y-96590919D01*
X184471143Y-96591428D01*
X184434576Y-96523892D01*
X184409088Y-96341076D01*
X184398639Y-96072667D01*
X184398571Y-96047142D01*
X184407576Y-95772891D01*
X184431952Y-95581736D01*
X184467739Y-95503366D01*
X184471143Y-95502857D01*
X184507710Y-95570393D01*
X184507710Y-95570393D01*
G37*
X184507710Y-95570393D02*
X184533197Y-95753209D01*
X184543646Y-96021618D01*
X184543714Y-96047142D01*
X184534709Y-96321394D01*
X184510334Y-96512549D01*
X184474546Y-96590919D01*
X184471143Y-96591428D01*
X184434576Y-96523892D01*
X184409088Y-96341076D01*
X184398639Y-96072667D01*
X184398571Y-96047142D01*
X184407576Y-95772891D01*
X184431952Y-95581736D01*
X184467739Y-95503366D01*
X184471143Y-95502857D01*
X184507710Y-95570393D01*
G36*
X185469340Y-95522612D02*
X185617737Y-95589908D01*
X185617771Y-95589942D01*
X185665211Y-95707085D01*
X185696626Y-95920538D01*
X185704857Y-96118644D01*
X185704857Y-96560259D01*
X185308797Y-96576833D01*
X185067317Y-96577624D01*
X184928158Y-96547079D01*
X184849942Y-96474288D01*
X184837343Y-96452532D01*
X184812843Y-96331002D01*
X184997929Y-96331002D01*
X185013464Y-96370535D01*
X185125779Y-96434934D01*
X185295245Y-96437311D01*
X185448655Y-96379472D01*
X185472628Y-96359200D01*
X185557984Y-96217418D01*
X185509454Y-96118111D01*
X185350886Y-96083428D01*
X185165460Y-96121644D01*
X185035223Y-96214877D01*
X184997929Y-96331002D01*
X184812843Y-96331002D01*
X184797664Y-96255709D01*
X184880873Y-96087675D01*
X185064758Y-95973730D01*
X185288848Y-95938285D01*
X185470598Y-95911962D01*
X185527882Y-95826151D01*
X185510664Y-95749762D01*
X185409889Y-95663426D01*
X185237638Y-95660932D01*
X185054030Y-95735967D01*
X184914113Y-95785980D01*
X184850553Y-95742143D01*
X184892967Y-95628819D01*
X184905116Y-95613468D01*
X185045191Y-95536631D01*
X185255878Y-95505600D01*
X185469340Y-95522612D01*
X185469340Y-95522612D01*
G37*
X185469340Y-95522612D02*
X185617737Y-95589908D01*
X185617771Y-95589942D01*
X185665211Y-95707085D01*
X185696626Y-95920538D01*
X185704857Y-96118644D01*
X185704857Y-96560259D01*
X185308797Y-96576833D01*
X185067317Y-96577624D01*
X184928158Y-96547079D01*
X184849942Y-96474288D01*
X184837343Y-96452532D01*
X184812843Y-96331002D01*
X184997929Y-96331002D01*
X185013464Y-96370535D01*
X185125779Y-96434934D01*
X185295245Y-96437311D01*
X185448655Y-96379472D01*
X185472628Y-96359200D01*
X185557984Y-96217418D01*
X185509454Y-96118111D01*
X185350886Y-96083428D01*
X185165460Y-96121644D01*
X185035223Y-96214877D01*
X184997929Y-96331002D01*
X184812843Y-96331002D01*
X184797664Y-96255709D01*
X184880873Y-96087675D01*
X185064758Y-95973730D01*
X185288848Y-95938285D01*
X185470598Y-95911962D01*
X185527882Y-95826151D01*
X185510664Y-95749762D01*
X185409889Y-95663426D01*
X185237638Y-95660932D01*
X185054030Y-95735967D01*
X184914113Y-95785980D01*
X184850553Y-95742143D01*
X184892967Y-95628819D01*
X184905116Y-95613468D01*
X185045191Y-95536631D01*
X185255878Y-95505600D01*
X185469340Y-95522612D01*
G36*
X187904828Y-95543833D02*
X187974165Y-95617411D01*
X188020909Y-95733885D01*
X188079672Y-95972994D01*
X188101506Y-96217709D01*
X188087823Y-96427758D01*
X188040034Y-96562868D01*
X187990857Y-96591428D01*
X187921899Y-96552015D01*
X187888554Y-96415910D01*
X187882000Y-96234507D01*
X187868110Y-95926912D01*
X187821500Y-95741637D01*
X187734762Y-95658085D01*
X187671035Y-95648000D01*
X187509534Y-95696538D01*
X187413372Y-95851242D01*
X187375301Y-96125747D01*
X187374000Y-96206800D01*
X187363542Y-96442547D01*
X187327024Y-96561573D01*
X187265143Y-96591428D01*
X187207134Y-96562460D01*
X187173373Y-96457948D01*
X187158450Y-96251482D01*
X187156285Y-96059964D01*
X187156285Y-95528500D01*
X187549195Y-95518163D01*
X187777699Y-95517394D01*
X187904828Y-95543833D01*
X187904828Y-95543833D01*
G37*
X187904828Y-95543833D02*
X187974165Y-95617411D01*
X188020909Y-95733885D01*
X188079672Y-95972994D01*
X188101506Y-96217709D01*
X188087823Y-96427758D01*
X188040034Y-96562868D01*
X187990857Y-96591428D01*
X187921899Y-96552015D01*
X187888554Y-96415910D01*
X187882000Y-96234507D01*
X187868110Y-95926912D01*
X187821500Y-95741637D01*
X187734762Y-95658085D01*
X187671035Y-95648000D01*
X187509534Y-95696538D01*
X187413372Y-95851242D01*
X187375301Y-96125747D01*
X187374000Y-96206800D01*
X187363542Y-96442547D01*
X187327024Y-96561573D01*
X187265143Y-96591428D01*
X187207134Y-96562460D01*
X187173373Y-96457948D01*
X187158450Y-96251482D01*
X187156285Y-96059964D01*
X187156285Y-95528500D01*
X187549195Y-95518163D01*
X187777699Y-95517394D01*
X187904828Y-95543833D01*
G36*
X189091163Y-95591696D02*
X189140752Y-95635571D01*
X189233276Y-95823702D01*
X189260606Y-96068630D01*
X189223699Y-96306986D01*
X189128143Y-96471323D01*
X188928964Y-96570301D01*
X188693310Y-96580321D01*
X188487122Y-96502589D01*
X188437533Y-96458714D01*
X188345010Y-96270583D01*
X188327182Y-96110810D01*
X188490132Y-96110810D01*
X188551356Y-96301056D01*
X188680352Y-96416236D01*
X188853501Y-96428982D01*
X188959685Y-96381977D01*
X189023611Y-96271133D01*
X189053855Y-96082639D01*
X189047899Y-95880604D01*
X189003223Y-95729137D01*
X188986198Y-95707170D01*
X188840261Y-95648420D01*
X188674075Y-95692337D01*
X188544580Y-95818672D01*
X188520301Y-95872864D01*
X188490132Y-96110810D01*
X188327182Y-96110810D01*
X188317680Y-96025655D01*
X188354587Y-95787299D01*
X188450143Y-95622962D01*
X188649321Y-95523984D01*
X188884976Y-95513964D01*
X189091163Y-95591696D01*
X189091163Y-95591696D01*
G37*
X189091163Y-95591696D02*
X189140752Y-95635571D01*
X189233276Y-95823702D01*
X189260606Y-96068630D01*
X189223699Y-96306986D01*
X189128143Y-96471323D01*
X188928964Y-96570301D01*
X188693310Y-96580321D01*
X188487122Y-96502589D01*
X188437533Y-96458714D01*
X188345010Y-96270583D01*
X188327182Y-96110810D01*
X188490132Y-96110810D01*
X188551356Y-96301056D01*
X188680352Y-96416236D01*
X188853501Y-96428982D01*
X188959685Y-96381977D01*
X189023611Y-96271133D01*
X189053855Y-96082639D01*
X189047899Y-95880604D01*
X189003223Y-95729137D01*
X188986198Y-95707170D01*
X188840261Y-95648420D01*
X188674075Y-95692337D01*
X188544580Y-95818672D01*
X188520301Y-95872864D01*
X188490132Y-96110810D01*
X188327182Y-96110810D01*
X188317680Y-96025655D01*
X188354587Y-95787299D01*
X188450143Y-95622962D01*
X188649321Y-95523984D01*
X188884976Y-95513964D01*
X189091163Y-95591696D01*
G36*
X190068067Y-95533513D02*
X190202696Y-95609798D01*
X190257788Y-95725843D01*
X190224743Y-95785532D01*
X190131716Y-95748573D01*
X190115990Y-95733876D01*
X189985843Y-95664050D01*
X189834368Y-95652175D01*
X189721151Y-95695788D01*
X189696285Y-95751229D01*
X189758488Y-95839925D01*
X189911485Y-95924565D01*
X189944480Y-95936369D01*
X190198252Y-96051458D01*
X190316301Y-96190689D01*
X190307568Y-96366405D01*
X190289082Y-96412149D01*
X190202796Y-96534956D01*
X190061025Y-96585092D01*
X189926803Y-96591428D01*
X189663234Y-96548077D01*
X189525946Y-96458539D01*
X189448670Y-96329002D01*
X189477703Y-96268629D01*
X189585960Y-96307474D01*
X189629983Y-96343102D01*
X189776392Y-96418258D01*
X189938757Y-96429243D01*
X190061932Y-96380259D01*
X190095428Y-96307617D01*
X190033312Y-96219246D01*
X189880423Y-96133808D01*
X189846285Y-96121349D01*
X189606417Y-96001287D01*
X189491650Y-95851506D01*
X189511467Y-95685341D01*
X189522578Y-95666142D01*
X189659237Y-95563128D01*
X189862957Y-95517104D01*
X190068067Y-95533513D01*
X190068067Y-95533513D01*
G37*
X190068067Y-95533513D02*
X190202696Y-95609798D01*
X190257788Y-95725843D01*
X190224743Y-95785532D01*
X190131716Y-95748573D01*
X190115990Y-95733876D01*
X189985843Y-95664050D01*
X189834368Y-95652175D01*
X189721151Y-95695788D01*
X189696285Y-95751229D01*
X189758488Y-95839925D01*
X189911485Y-95924565D01*
X189944480Y-95936369D01*
X190198252Y-96051458D01*
X190316301Y-96190689D01*
X190307568Y-96366405D01*
X190289082Y-96412149D01*
X190202796Y-96534956D01*
X190061025Y-96585092D01*
X189926803Y-96591428D01*
X189663234Y-96548077D01*
X189525946Y-96458539D01*
X189448670Y-96329002D01*
X189477703Y-96268629D01*
X189585960Y-96307474D01*
X189629983Y-96343102D01*
X189776392Y-96418258D01*
X189938757Y-96429243D01*
X190061932Y-96380259D01*
X190095428Y-96307617D01*
X190033312Y-96219246D01*
X189880423Y-96133808D01*
X189846285Y-96121349D01*
X189606417Y-96001287D01*
X189491650Y-95851506D01*
X189511467Y-95685341D01*
X189522578Y-95666142D01*
X189659237Y-95563128D01*
X189862957Y-95517104D01*
X190068067Y-95533513D01*
G36*
X190767937Y-95261453D02*
X190784857Y-95351666D01*
X190826694Y-95488220D01*
X190875571Y-95533095D01*
X190928941Y-95580755D01*
X190875571Y-95617762D01*
X190822505Y-95710161D01*
X190792216Y-95890589D01*
X190785976Y-96103533D01*
X190805056Y-96293480D01*
X190850728Y-96404919D01*
X190857428Y-96410000D01*
X190928697Y-96502453D01*
X190875115Y-96575972D01*
X190789747Y-96591428D01*
X190655045Y-96534156D01*
X190610387Y-96464428D01*
X190581343Y-96300180D01*
X190562697Y-96060063D01*
X190555146Y-95791670D01*
X190559385Y-95542590D01*
X190576109Y-95360415D01*
X190593386Y-95301392D01*
X190691741Y-95216596D01*
X190767937Y-95261453D01*
X190767937Y-95261453D01*
G37*
X190767937Y-95261453D02*
X190784857Y-95351666D01*
X190826694Y-95488220D01*
X190875571Y-95533095D01*
X190928941Y-95580755D01*
X190875571Y-95617762D01*
X190822505Y-95710161D01*
X190792216Y-95890589D01*
X190785976Y-96103533D01*
X190805056Y-96293480D01*
X190850728Y-96404919D01*
X190857428Y-96410000D01*
X190928697Y-96502453D01*
X190875115Y-96575972D01*
X190789747Y-96591428D01*
X190655045Y-96534156D01*
X190610387Y-96464428D01*
X190581343Y-96300180D01*
X190562697Y-96060063D01*
X190555146Y-95791670D01*
X190559385Y-95542590D01*
X190576109Y-95360415D01*
X190593386Y-95301392D01*
X190691741Y-95216596D01*
X190767937Y-95261453D01*
G36*
X191313990Y-95531368D02*
X191347695Y-95634401D01*
X191362934Y-95838204D01*
X191365428Y-96047142D01*
X191359726Y-96334238D01*
X191339119Y-96502761D01*
X191298359Y-96578957D01*
X191256571Y-96591428D01*
X191199152Y-96562917D01*
X191165448Y-96459884D01*
X191150208Y-96256081D01*
X191147714Y-96047142D01*
X191153416Y-95760047D01*
X191174023Y-95591524D01*
X191214784Y-95515328D01*
X191256571Y-95502857D01*
X191313990Y-95531368D01*
X191313990Y-95531368D01*
G37*
X191313990Y-95531368D02*
X191347695Y-95634401D01*
X191362934Y-95838204D01*
X191365428Y-96047142D01*
X191359726Y-96334238D01*
X191339119Y-96502761D01*
X191298359Y-96578957D01*
X191256571Y-96591428D01*
X191199152Y-96562917D01*
X191165448Y-96459884D01*
X191150208Y-96256081D01*
X191147714Y-96047142D01*
X191153416Y-95760047D01*
X191174023Y-95591524D01*
X191214784Y-95515328D01*
X191256571Y-95502857D01*
X191313990Y-95531368D01*
G36*
X192314246Y-95558796D02*
X192382884Y-95613468D01*
X192435934Y-95728225D01*
X192399663Y-95785511D01*
X192304415Y-95744614D01*
X192293133Y-95733876D01*
X192136161Y-95655635D01*
X191974273Y-95690839D01*
X191839106Y-95812466D01*
X191762295Y-95993495D01*
X191768475Y-96182000D01*
X191872001Y-96359396D01*
X192042577Y-96420684D01*
X192228446Y-96361768D01*
X192370673Y-96309237D01*
X192437289Y-96349423D01*
X192399177Y-96459883D01*
X192382884Y-96480817D01*
X192227342Y-96569484D01*
X192012860Y-96585823D01*
X191805088Y-96531971D01*
X191703247Y-96458714D01*
X191610724Y-96270583D01*
X191583394Y-96025655D01*
X191620301Y-95787299D01*
X191715857Y-95622962D01*
X191898626Y-95529881D01*
X192119736Y-95508185D01*
X192314246Y-95558796D01*
X192314246Y-95558796D01*
G37*
X192314246Y-95558796D02*
X192382884Y-95613468D01*
X192435934Y-95728225D01*
X192399663Y-95785511D01*
X192304415Y-95744614D01*
X192293133Y-95733876D01*
X192136161Y-95655635D01*
X191974273Y-95690839D01*
X191839106Y-95812466D01*
X191762295Y-95993495D01*
X191768475Y-96182000D01*
X191872001Y-96359396D01*
X192042577Y-96420684D01*
X192228446Y-96361768D01*
X192370673Y-96309237D01*
X192437289Y-96349423D01*
X192399177Y-96459883D01*
X192382884Y-96480817D01*
X192227342Y-96569484D01*
X192012860Y-96585823D01*
X191805088Y-96531971D01*
X191703247Y-96458714D01*
X191610724Y-96270583D01*
X191583394Y-96025655D01*
X191620301Y-95787299D01*
X191715857Y-95622962D01*
X191898626Y-95529881D01*
X192119736Y-95508185D01*
X192314246Y-95558796D01*
G36*
X193173220Y-95503900D02*
X193326221Y-95558327D01*
X193372386Y-95614844D01*
X193388126Y-95742326D01*
X193308069Y-95766237D01*
X193196394Y-95714146D01*
X193041547Y-95665303D01*
X192896054Y-95686126D01*
X192818926Y-95765627D01*
X192816857Y-95784817D01*
X192879278Y-95846927D01*
X193036883Y-95923804D01*
X193125286Y-95956065D01*
X193357066Y-96077233D01*
X193465927Y-96235867D01*
X193442668Y-96413811D01*
X193394113Y-96486566D01*
X193252338Y-96563268D01*
X193041334Y-96588829D01*
X192827506Y-96563775D01*
X192677260Y-96488635D01*
X192670259Y-96480817D01*
X192611675Y-96363689D01*
X192664662Y-96315543D01*
X192806458Y-96350396D01*
X192848356Y-96371152D01*
X193029025Y-96425933D01*
X193179407Y-96403768D01*
X193251234Y-96313449D01*
X193252286Y-96297582D01*
X193190919Y-96223689D01*
X193037006Y-96134850D01*
X192966168Y-96104505D01*
X192731237Y-95980896D01*
X192632415Y-95840942D01*
X192660683Y-95670364D01*
X192674528Y-95642742D01*
X192790679Y-95548374D01*
X192975808Y-95501338D01*
X193173220Y-95503900D01*
X193173220Y-95503900D01*
G37*
X193173220Y-95503900D02*
X193326221Y-95558327D01*
X193372386Y-95614844D01*
X193388126Y-95742326D01*
X193308069Y-95766237D01*
X193196394Y-95714146D01*
X193041547Y-95665303D01*
X192896054Y-95686126D01*
X192818926Y-95765627D01*
X192816857Y-95784817D01*
X192879278Y-95846927D01*
X193036883Y-95923804D01*
X193125286Y-95956065D01*
X193357066Y-96077233D01*
X193465927Y-96235867D01*
X193442668Y-96413811D01*
X193394113Y-96486566D01*
X193252338Y-96563268D01*
X193041334Y-96588829D01*
X192827506Y-96563775D01*
X192677260Y-96488635D01*
X192670259Y-96480817D01*
X192611675Y-96363689D01*
X192664662Y-96315543D01*
X192806458Y-96350396D01*
X192848356Y-96371152D01*
X193029025Y-96425933D01*
X193179407Y-96403768D01*
X193251234Y-96313449D01*
X193252286Y-96297582D01*
X193190919Y-96223689D01*
X193037006Y-96134850D01*
X192966168Y-96104505D01*
X192731237Y-95980896D01*
X192632415Y-95840942D01*
X192660683Y-95670364D01*
X192674528Y-95642742D01*
X192790679Y-95548374D01*
X192975808Y-95501338D01*
X193173220Y-95503900D01*
G36*
X159197646Y-94209976D02*
X159442021Y-94381124D01*
X159610141Y-94640047D01*
X159639287Y-94728731D01*
X159660345Y-95058798D01*
X159559940Y-95359211D01*
X159360301Y-95600655D01*
X159083658Y-95753816D01*
X158832145Y-95793142D01*
X158596022Y-95766634D01*
X158396453Y-95700851D01*
X158361161Y-95679880D01*
X158128622Y-95435687D01*
X158010051Y-95129664D01*
X158010469Y-95077042D01*
X158477461Y-95077042D01*
X158538639Y-95207370D01*
X158703560Y-95334849D01*
X158906451Y-95338623D01*
X159083571Y-95237609D01*
X159200164Y-95048363D01*
X159187639Y-94837515D01*
X159068945Y-94666297D01*
X158889494Y-94577950D01*
X158712405Y-94603639D01*
X158565894Y-94714575D01*
X158478174Y-94881972D01*
X158477461Y-95077042D01*
X158010469Y-95077042D01*
X158012687Y-94798343D01*
X158128019Y-94503191D01*
X158342202Y-94273211D01*
X158614215Y-94151017D01*
X158910537Y-94131606D01*
X159197646Y-94209976D01*
X159197646Y-94209976D01*
G37*
X159197646Y-94209976D02*
X159442021Y-94381124D01*
X159610141Y-94640047D01*
X159639287Y-94728731D01*
X159660345Y-95058798D01*
X159559940Y-95359211D01*
X159360301Y-95600655D01*
X159083658Y-95753816D01*
X158832145Y-95793142D01*
X158596022Y-95766634D01*
X158396453Y-95700851D01*
X158361161Y-95679880D01*
X158128622Y-95435687D01*
X158010051Y-95129664D01*
X158010469Y-95077042D01*
X158477461Y-95077042D01*
X158538639Y-95207370D01*
X158703560Y-95334849D01*
X158906451Y-95338623D01*
X159083571Y-95237609D01*
X159200164Y-95048363D01*
X159187639Y-94837515D01*
X159068945Y-94666297D01*
X158889494Y-94577950D01*
X158712405Y-94603639D01*
X158565894Y-94714575D01*
X158478174Y-94881972D01*
X158477461Y-95077042D01*
X158010469Y-95077042D01*
X158012687Y-94798343D01*
X158128019Y-94503191D01*
X158342202Y-94273211D01*
X158614215Y-94151017D01*
X158910537Y-94131606D01*
X159197646Y-94209976D01*
G36*
X178496521Y-95185612D02*
X178506376Y-95207128D01*
X178471344Y-95273302D01*
X178411428Y-95285143D01*
X178321108Y-95248320D01*
X178316481Y-95207128D01*
X178391402Y-95132150D01*
X178411428Y-95129114D01*
X178496521Y-95185612D01*
X178496521Y-95185612D01*
G37*
X178496521Y-95185612D02*
X178506376Y-95207128D01*
X178471344Y-95273302D01*
X178411428Y-95285143D01*
X178321108Y-95248320D01*
X178316481Y-95207128D01*
X178391402Y-95132150D01*
X178411428Y-95129114D01*
X178496521Y-95185612D01*
G36*
X184533271Y-95120166D02*
X184543714Y-95172002D01*
X184505825Y-95271296D01*
X184471143Y-95285143D01*
X184400648Y-95233056D01*
X184398571Y-95216854D01*
X184451323Y-95118568D01*
X184471143Y-95103714D01*
X184533271Y-95120166D01*
X184533271Y-95120166D01*
G37*
X184533271Y-95120166D02*
X184543714Y-95172002D01*
X184505825Y-95271296D01*
X184471143Y-95285143D01*
X184400648Y-95233056D01*
X184398571Y-95216854D01*
X184451323Y-95118568D01*
X184471143Y-95103714D01*
X184533271Y-95120166D01*
G36*
X191341664Y-95185612D02*
X191351519Y-95207128D01*
X191316487Y-95273302D01*
X191256571Y-95285143D01*
X191166251Y-95248320D01*
X191161624Y-95207128D01*
X191236545Y-95132150D01*
X191256571Y-95129114D01*
X191341664Y-95185612D01*
X191341664Y-95185612D01*
G37*
X191341664Y-95185612D02*
X191351519Y-95207128D01*
X191316487Y-95273302D01*
X191256571Y-95285143D01*
X191166251Y-95248320D01*
X191161624Y-95207128D01*
X191236545Y-95132150D01*
X191256571Y-95129114D01*
X191341664Y-95185612D01*
G36*
X174820359Y-94278375D02*
X176001944Y-94279141D01*
X177308235Y-94280453D01*
X178745386Y-94282269D01*
X180319548Y-94284547D01*
X180855702Y-94285370D01*
X182478999Y-94287829D01*
X183963276Y-94290052D01*
X185314657Y-94292210D01*
X186539263Y-94294472D01*
X187643218Y-94297010D01*
X188632644Y-94299994D01*
X189513665Y-94303594D01*
X190292402Y-94307981D01*
X190974979Y-94313324D01*
X191567519Y-94319795D01*
X192076143Y-94327563D01*
X192506975Y-94336799D01*
X192866138Y-94347673D01*
X193159754Y-94360356D01*
X193393946Y-94375017D01*
X193574837Y-94391829D01*
X193708549Y-94410960D01*
X193801206Y-94432580D01*
X193858930Y-94456862D01*
X193887843Y-94483974D01*
X193894069Y-94514087D01*
X193883730Y-94547372D01*
X193862948Y-94583999D01*
X193837848Y-94624137D01*
X193825240Y-94646232D01*
X193811975Y-94662867D01*
X193786509Y-94678016D01*
X193742399Y-94691738D01*
X193673202Y-94704095D01*
X193572476Y-94715147D01*
X193433778Y-94724953D01*
X193250665Y-94733574D01*
X193016696Y-94741070D01*
X192725428Y-94747502D01*
X192370417Y-94752929D01*
X191945222Y-94757412D01*
X191443400Y-94761011D01*
X190858509Y-94763787D01*
X190184105Y-94765799D01*
X189413747Y-94767107D01*
X188540992Y-94767773D01*
X187559397Y-94767856D01*
X186462521Y-94767417D01*
X185243919Y-94766515D01*
X183897150Y-94765211D01*
X182415771Y-94763566D01*
X181402446Y-94762371D01*
X180064591Y-94760632D01*
X178760129Y-94758666D01*
X177497000Y-94756495D01*
X176283141Y-94754144D01*
X175126491Y-94751638D01*
X174034990Y-94749000D01*
X173016576Y-94746254D01*
X172079187Y-94743425D01*
X171230763Y-94740536D01*
X170479242Y-94737612D01*
X169832563Y-94734676D01*
X169298665Y-94731753D01*
X168885486Y-94728867D01*
X168600965Y-94726041D01*
X168453040Y-94723300D01*
X168447575Y-94723095D01*
X168093563Y-94695203D01*
X167874547Y-94642622D01*
X167781700Y-94560169D01*
X167806192Y-94442665D01*
X167854642Y-94375160D01*
X167877666Y-94361399D01*
X167926955Y-94348864D01*
X168008663Y-94337513D01*
X168128943Y-94327304D01*
X168293945Y-94318194D01*
X168509824Y-94310141D01*
X168782731Y-94303102D01*
X169118820Y-94297034D01*
X169524242Y-94291896D01*
X170005151Y-94287644D01*
X170567699Y-94284237D01*
X171218038Y-94281631D01*
X171962321Y-94279785D01*
X172806700Y-94278655D01*
X173757329Y-94278199D01*
X174820359Y-94278375D01*
X174820359Y-94278375D01*
G37*
X174820359Y-94278375D02*
X176001944Y-94279141D01*
X177308235Y-94280453D01*
X178745386Y-94282269D01*
X180319548Y-94284547D01*
X180855702Y-94285370D01*
X182478999Y-94287829D01*
X183963276Y-94290052D01*
X185314657Y-94292210D01*
X186539263Y-94294472D01*
X187643218Y-94297010D01*
X188632644Y-94299994D01*
X189513665Y-94303594D01*
X190292402Y-94307981D01*
X190974979Y-94313324D01*
X191567519Y-94319795D01*
X192076143Y-94327563D01*
X192506975Y-94336799D01*
X192866138Y-94347673D01*
X193159754Y-94360356D01*
X193393946Y-94375017D01*
X193574837Y-94391829D01*
X193708549Y-94410960D01*
X193801206Y-94432580D01*
X193858930Y-94456862D01*
X193887843Y-94483974D01*
X193894069Y-94514087D01*
X193883730Y-94547372D01*
X193862948Y-94583999D01*
X193837848Y-94624137D01*
X193825240Y-94646232D01*
X193811975Y-94662867D01*
X193786509Y-94678016D01*
X193742399Y-94691738D01*
X193673202Y-94704095D01*
X193572476Y-94715147D01*
X193433778Y-94724953D01*
X193250665Y-94733574D01*
X193016696Y-94741070D01*
X192725428Y-94747502D01*
X192370417Y-94752929D01*
X191945222Y-94757412D01*
X191443400Y-94761011D01*
X190858509Y-94763787D01*
X190184105Y-94765799D01*
X189413747Y-94767107D01*
X188540992Y-94767773D01*
X187559397Y-94767856D01*
X186462521Y-94767417D01*
X185243919Y-94766515D01*
X183897150Y-94765211D01*
X182415771Y-94763566D01*
X181402446Y-94762371D01*
X180064591Y-94760632D01*
X178760129Y-94758666D01*
X177497000Y-94756495D01*
X176283141Y-94754144D01*
X175126491Y-94751638D01*
X174034990Y-94749000D01*
X173016576Y-94746254D01*
X172079187Y-94743425D01*
X171230763Y-94740536D01*
X170479242Y-94737612D01*
X169832563Y-94734676D01*
X169298665Y-94731753D01*
X168885486Y-94728867D01*
X168600965Y-94726041D01*
X168453040Y-94723300D01*
X168447575Y-94723095D01*
X168093563Y-94695203D01*
X167874547Y-94642622D01*
X167781700Y-94560169D01*
X167806192Y-94442665D01*
X167854642Y-94375160D01*
X167877666Y-94361399D01*
X167926955Y-94348864D01*
X168008663Y-94337513D01*
X168128943Y-94327304D01*
X168293945Y-94318194D01*
X168509824Y-94310141D01*
X168782731Y-94303102D01*
X169118820Y-94297034D01*
X169524242Y-94291896D01*
X170005151Y-94287644D01*
X170567699Y-94284237D01*
X171218038Y-94281631D01*
X171962321Y-94279785D01*
X172806700Y-94278655D01*
X173757329Y-94278199D01*
X174820359Y-94278375D01*
G36*
X175599325Y-91250213D02*
X175856401Y-91422798D01*
X176031397Y-91706191D01*
X176117448Y-92091775D01*
X176125428Y-92274701D01*
X176069068Y-92678133D01*
X175907438Y-92994610D01*
X175651719Y-93211806D01*
X175313089Y-93317396D01*
X175172213Y-93325714D01*
X174819143Y-93325714D01*
X174819143Y-93573778D01*
X174799994Y-93838113D01*
X174731725Y-93987098D01*
X174598100Y-94046750D01*
X174521093Y-94051428D01*
X174311143Y-94051428D01*
X174311143Y-92278708D01*
X174819143Y-92278708D01*
X174828489Y-92550414D01*
X174862052Y-92712644D01*
X174928119Y-92800188D01*
X174946143Y-92811901D01*
X175166141Y-92883650D01*
X175361298Y-92850164D01*
X175473911Y-92742105D01*
X175520839Y-92584134D01*
X175550800Y-92349473D01*
X175556121Y-92218739D01*
X175518246Y-91911315D01*
X175408664Y-91710718D01*
X175241747Y-91627389D01*
X175031868Y-91671767D01*
X174909857Y-91749294D01*
X174855558Y-91866156D01*
X174824521Y-92097858D01*
X174819143Y-92278708D01*
X174311143Y-92278708D01*
X174311143Y-91219970D01*
X174619571Y-91212856D01*
X174898882Y-91206206D01*
X175202886Y-91198683D01*
X175267031Y-91197051D01*
X175599325Y-91250213D01*
X175599325Y-91250213D01*
G37*
X175599325Y-91250213D02*
X175856401Y-91422798D01*
X176031397Y-91706191D01*
X176117448Y-92091775D01*
X176125428Y-92274701D01*
X176069068Y-92678133D01*
X175907438Y-92994610D01*
X175651719Y-93211806D01*
X175313089Y-93317396D01*
X175172213Y-93325714D01*
X174819143Y-93325714D01*
X174819143Y-93573778D01*
X174799994Y-93838113D01*
X174731725Y-93987098D01*
X174598100Y-94046750D01*
X174521093Y-94051428D01*
X174311143Y-94051428D01*
X174311143Y-92278708D01*
X174819143Y-92278708D01*
X174828489Y-92550414D01*
X174862052Y-92712644D01*
X174928119Y-92800188D01*
X174946143Y-92811901D01*
X175166141Y-92883650D01*
X175361298Y-92850164D01*
X175473911Y-92742105D01*
X175520839Y-92584134D01*
X175550800Y-92349473D01*
X175556121Y-92218739D01*
X175518246Y-91911315D01*
X175408664Y-91710718D01*
X175241747Y-91627389D01*
X175031868Y-91671767D01*
X174909857Y-91749294D01*
X174855558Y-91866156D01*
X174824521Y-92097858D01*
X174819143Y-92278708D01*
X174311143Y-92278708D01*
X174311143Y-91219970D01*
X174619571Y-91212856D01*
X174898882Y-91206206D01*
X175202886Y-91198683D01*
X175267031Y-91197051D01*
X175599325Y-91250213D01*
G36*
X178305152Y-91218904D02*
X178499157Y-91310435D01*
X178524619Y-91331752D01*
X178740847Y-91614673D01*
X178858106Y-91963534D01*
X178877433Y-92340059D01*
X178799866Y-92705971D01*
X178626441Y-93022992D01*
X178474651Y-93175520D01*
X178315924Y-93276042D01*
X178141625Y-93315837D01*
X177889171Y-93309051D01*
X177885285Y-93308734D01*
X177504285Y-93277487D01*
X177504285Y-93664458D01*
X177499976Y-93888286D01*
X177474211Y-94003228D01*
X177407734Y-94045524D01*
X177298666Y-94051428D01*
X177132460Y-94035886D01*
X177044666Y-94003047D01*
X177029488Y-93918499D01*
X177016261Y-93712256D01*
X177005784Y-93407761D01*
X176998859Y-93028459D01*
X176996287Y-92597792D01*
X176996285Y-92586571D01*
X176996285Y-92001202D01*
X177522847Y-92001202D01*
X177529237Y-92201717D01*
X177544032Y-92343871D01*
X177583440Y-92584920D01*
X177634513Y-92764977D01*
X177676299Y-92834746D01*
X177871977Y-92887598D01*
X178084961Y-92845372D01*
X178188530Y-92776245D01*
X178267684Y-92616277D01*
X178301058Y-92333721D01*
X178302571Y-92236074D01*
X178292990Y-91979081D01*
X178255951Y-91823182D01*
X178179009Y-91725105D01*
X178149097Y-91702447D01*
X177963025Y-91632411D01*
X177765737Y-91690175D01*
X177626019Y-91792473D01*
X177552981Y-91879084D01*
X177522847Y-92001202D01*
X176996285Y-92001202D01*
X176996285Y-91218477D01*
X177341000Y-91212004D01*
X177644428Y-91205778D01*
X177961259Y-91198521D01*
X178024746Y-91196947D01*
X178305152Y-91218904D01*
X178305152Y-91218904D01*
G37*
X178305152Y-91218904D02*
X178499157Y-91310435D01*
X178524619Y-91331752D01*
X178740847Y-91614673D01*
X178858106Y-91963534D01*
X178877433Y-92340059D01*
X178799866Y-92705971D01*
X178626441Y-93022992D01*
X178474651Y-93175520D01*
X178315924Y-93276042D01*
X178141625Y-93315837D01*
X177889171Y-93309051D01*
X177885285Y-93308734D01*
X177504285Y-93277487D01*
X177504285Y-93664458D01*
X177499976Y-93888286D01*
X177474211Y-94003228D01*
X177407734Y-94045524D01*
X177298666Y-94051428D01*
X177132460Y-94035886D01*
X177044666Y-94003047D01*
X177029488Y-93918499D01*
X177016261Y-93712256D01*
X177005784Y-93407761D01*
X176998859Y-93028459D01*
X176996287Y-92597792D01*
X176996285Y-92586571D01*
X176996285Y-92001202D01*
X177522847Y-92001202D01*
X177529237Y-92201717D01*
X177544032Y-92343871D01*
X177583440Y-92584920D01*
X177634513Y-92764977D01*
X177676299Y-92834746D01*
X177871977Y-92887598D01*
X178084961Y-92845372D01*
X178188530Y-92776245D01*
X178267684Y-92616277D01*
X178301058Y-92333721D01*
X178302571Y-92236074D01*
X178292990Y-91979081D01*
X178255951Y-91823182D01*
X178179009Y-91725105D01*
X178149097Y-91702447D01*
X177963025Y-91632411D01*
X177765737Y-91690175D01*
X177626019Y-91792473D01*
X177552981Y-91879084D01*
X177522847Y-92001202D01*
X176996285Y-92001202D01*
X176996285Y-91218477D01*
X177341000Y-91212004D01*
X177644428Y-91205778D01*
X177961259Y-91198521D01*
X178024746Y-91196947D01*
X178305152Y-91218904D01*
G36*
X181230289Y-90477587D02*
X181560680Y-90638162D01*
X181791924Y-90899161D01*
X181897810Y-91166714D01*
X181919168Y-91299140D01*
X181870253Y-91354512D01*
X181715882Y-91366227D01*
X181687563Y-91366285D01*
X181480890Y-91337179D01*
X181360204Y-91234046D01*
X181342260Y-91203000D01*
X181226443Y-91034057D01*
X181077533Y-90953437D01*
X180841316Y-90931983D01*
X180838299Y-90931968D01*
X180582165Y-90968536D01*
X180407216Y-91068635D01*
X180341054Y-91214148D01*
X180344823Y-91255899D01*
X180407808Y-91343979D01*
X180574007Y-91437855D01*
X180860677Y-91546553D01*
X180968301Y-91581974D01*
X181425301Y-91759772D01*
X181743152Y-91957994D01*
X181927203Y-92183416D01*
X181982806Y-92442812D01*
X181915311Y-92742960D01*
X181905034Y-92768266D01*
X181716132Y-93041509D01*
X181425207Y-93234111D01*
X181057155Y-93335841D01*
X180636872Y-93336468D01*
X180552285Y-93324164D01*
X180309776Y-93253242D01*
X180095005Y-93147542D01*
X179918287Y-92990652D01*
X179783495Y-92796927D01*
X179701718Y-92599118D01*
X179684045Y-92429979D01*
X179741564Y-92322259D01*
X179808428Y-92301115D01*
X180057209Y-92313094D01*
X180177109Y-92391490D01*
X180182006Y-92402953D01*
X180335211Y-92625238D01*
X180590434Y-92769108D01*
X180902958Y-92817714D01*
X181194054Y-92786690D01*
X181362090Y-92689099D01*
X181416260Y-92518162D01*
X181410571Y-92443493D01*
X181374688Y-92350933D01*
X181278547Y-92273700D01*
X181093684Y-92195311D01*
X180842571Y-92114564D01*
X180470877Y-91995997D01*
X180212556Y-91894323D01*
X180039545Y-91793845D01*
X179923778Y-91678870D01*
X179850243Y-91559607D01*
X179769605Y-91269025D01*
X179816720Y-90992032D01*
X179974360Y-90749060D01*
X180225295Y-90560545D01*
X180552298Y-90446919D01*
X180808690Y-90422857D01*
X181230289Y-90477587D01*
X181230289Y-90477587D01*
G37*
X181230289Y-90477587D02*
X181560680Y-90638162D01*
X181791924Y-90899161D01*
X181897810Y-91166714D01*
X181919168Y-91299140D01*
X181870253Y-91354512D01*
X181715882Y-91366227D01*
X181687563Y-91366285D01*
X181480890Y-91337179D01*
X181360204Y-91234046D01*
X181342260Y-91203000D01*
X181226443Y-91034057D01*
X181077533Y-90953437D01*
X180841316Y-90931983D01*
X180838299Y-90931968D01*
X180582165Y-90968536D01*
X180407216Y-91068635D01*
X180341054Y-91214148D01*
X180344823Y-91255899D01*
X180407808Y-91343979D01*
X180574007Y-91437855D01*
X180860677Y-91546553D01*
X180968301Y-91581974D01*
X181425301Y-91759772D01*
X181743152Y-91957994D01*
X181927203Y-92183416D01*
X181982806Y-92442812D01*
X181915311Y-92742960D01*
X181905034Y-92768266D01*
X181716132Y-93041509D01*
X181425207Y-93234111D01*
X181057155Y-93335841D01*
X180636872Y-93336468D01*
X180552285Y-93324164D01*
X180309776Y-93253242D01*
X180095005Y-93147542D01*
X179918287Y-92990652D01*
X179783495Y-92796927D01*
X179701718Y-92599118D01*
X179684045Y-92429979D01*
X179741564Y-92322259D01*
X179808428Y-92301115D01*
X180057209Y-92313094D01*
X180177109Y-92391490D01*
X180182006Y-92402953D01*
X180335211Y-92625238D01*
X180590434Y-92769108D01*
X180902958Y-92817714D01*
X181194054Y-92786690D01*
X181362090Y-92689099D01*
X181416260Y-92518162D01*
X181410571Y-92443493D01*
X181374688Y-92350933D01*
X181278547Y-92273700D01*
X181093684Y-92195311D01*
X180842571Y-92114564D01*
X180470877Y-91995997D01*
X180212556Y-91894323D01*
X180039545Y-91793845D01*
X179923778Y-91678870D01*
X179850243Y-91559607D01*
X179769605Y-91269025D01*
X179816720Y-90992032D01*
X179974360Y-90749060D01*
X180225295Y-90560545D01*
X180552298Y-90446919D01*
X180808690Y-90422857D01*
X181230289Y-90477587D01*
G36*
X173100266Y-90460986D02*
X173161905Y-90538106D01*
X173197944Y-90695474D01*
X173214804Y-90952326D01*
X173218906Y-91327902D01*
X173218475Y-91501050D01*
X173209502Y-92006312D01*
X173183438Y-92389724D01*
X173134440Y-92674142D01*
X173056669Y-92882424D01*
X172944284Y-93037424D01*
X172794553Y-93159915D01*
X172539476Y-93268023D01*
X172209826Y-93323693D01*
X171862270Y-93325157D01*
X171553477Y-93270642D01*
X171399055Y-93203524D01*
X171245943Y-93093881D01*
X171134077Y-92967446D01*
X171057182Y-92800595D01*
X171008985Y-92569706D01*
X170983213Y-92251157D01*
X170973591Y-91821327D01*
X170972857Y-91598710D01*
X170975042Y-91153357D01*
X170985530Y-90834458D01*
X171010221Y-90623342D01*
X171055015Y-90501341D01*
X171125810Y-90449784D01*
X171228507Y-90450001D01*
X171328714Y-90472570D01*
X171390622Y-90496574D01*
X171433030Y-90546503D01*
X171459654Y-90646424D01*
X171474206Y-90820403D01*
X171480400Y-91092504D01*
X171481927Y-91465464D01*
X171486692Y-91931716D01*
X171505345Y-92272982D01*
X171546228Y-92509312D01*
X171617682Y-92660755D01*
X171728050Y-92747362D01*
X171885672Y-92789184D01*
X172038438Y-92803134D01*
X172269003Y-92802862D01*
X172432772Y-92757600D01*
X172540851Y-92647458D01*
X172604345Y-92452544D01*
X172634359Y-92152969D01*
X172641999Y-91728841D01*
X172642000Y-91722066D01*
X172647106Y-91263220D01*
X172664835Y-90929784D01*
X172698800Y-90702307D01*
X172752614Y-90561338D01*
X172829892Y-90487423D01*
X172874500Y-90470534D01*
X173006604Y-90444874D01*
X173100266Y-90460986D01*
X173100266Y-90460986D01*
G37*
X173100266Y-90460986D02*
X173161905Y-90538106D01*
X173197944Y-90695474D01*
X173214804Y-90952326D01*
X173218906Y-91327902D01*
X173218475Y-91501050D01*
X173209502Y-92006312D01*
X173183438Y-92389724D01*
X173134440Y-92674142D01*
X173056669Y-92882424D01*
X172944284Y-93037424D01*
X172794553Y-93159915D01*
X172539476Y-93268023D01*
X172209826Y-93323693D01*
X171862270Y-93325157D01*
X171553477Y-93270642D01*
X171399055Y-93203524D01*
X171245943Y-93093881D01*
X171134077Y-92967446D01*
X171057182Y-92800595D01*
X171008985Y-92569706D01*
X170983213Y-92251157D01*
X170973591Y-91821327D01*
X170972857Y-91598710D01*
X170975042Y-91153357D01*
X170985530Y-90834458D01*
X171010221Y-90623342D01*
X171055015Y-90501341D01*
X171125810Y-90449784D01*
X171228507Y-90450001D01*
X171328714Y-90472570D01*
X171390622Y-90496574D01*
X171433030Y-90546503D01*
X171459654Y-90646424D01*
X171474206Y-90820403D01*
X171480400Y-91092504D01*
X171481927Y-91465464D01*
X171486692Y-91931716D01*
X171505345Y-92272982D01*
X171546228Y-92509312D01*
X171617682Y-92660755D01*
X171728050Y-92747362D01*
X171885672Y-92789184D01*
X172038438Y-92803134D01*
X172269003Y-92802862D01*
X172432772Y-92757600D01*
X172540851Y-92647458D01*
X172604345Y-92452544D01*
X172634359Y-92152969D01*
X172641999Y-91728841D01*
X172642000Y-91722066D01*
X172647106Y-91263220D01*
X172664835Y-90929784D01*
X172698800Y-90702307D01*
X172752614Y-90561338D01*
X172829892Y-90487423D01*
X172874500Y-90470534D01*
X173006604Y-90444874D01*
X173100266Y-90460986D01*
G36*
X184213829Y-91251367D02*
X184492562Y-91440584D01*
X184684769Y-91741790D01*
X184764591Y-91997164D01*
X184794703Y-92192914D01*
X184766663Y-92323891D01*
X184660115Y-92402723D01*
X184454700Y-92442040D01*
X184130061Y-92454470D01*
X184026828Y-92454857D01*
X183708198Y-92459553D01*
X183510563Y-92476235D01*
X183409999Y-92508793D01*
X183382571Y-92559599D01*
X183445220Y-92688488D01*
X183598108Y-92807610D01*
X183788647Y-92881372D01*
X183871143Y-92890285D01*
X184044696Y-92837193D01*
X184161410Y-92745143D01*
X184300941Y-92647363D01*
X184477619Y-92600119D01*
X184642616Y-92605772D01*
X184747104Y-92666686D01*
X184761428Y-92716114D01*
X184713011Y-92833406D01*
X184590345Y-92997694D01*
X184514686Y-93078971D01*
X184347914Y-93227606D01*
X184193367Y-93300840D01*
X183985097Y-93324271D01*
X183879686Y-93325443D01*
X183482730Y-93277389D01*
X183251204Y-93178711D01*
X183004185Y-92950473D01*
X182855829Y-92649211D01*
X182805240Y-92307512D01*
X182851520Y-91957965D01*
X182883786Y-91884290D01*
X183421262Y-91884290D01*
X183452181Y-91927628D01*
X183575941Y-91944288D01*
X183779161Y-91946857D01*
X183998567Y-91937367D01*
X184144471Y-91912875D01*
X184180857Y-91888800D01*
X184119523Y-91761763D01*
X183968094Y-91682515D01*
X183775434Y-91656917D01*
X183590404Y-91690834D01*
X183461866Y-91790129D01*
X183455143Y-91801714D01*
X183421262Y-91884290D01*
X182883786Y-91884290D01*
X182993770Y-91633157D01*
X183231094Y-91365676D01*
X183302589Y-91313303D01*
X183615238Y-91173580D01*
X183946104Y-91169325D01*
X184213829Y-91251367D01*
X184213829Y-91251367D01*
G37*
X184213829Y-91251367D02*
X184492562Y-91440584D01*
X184684769Y-91741790D01*
X184764591Y-91997164D01*
X184794703Y-92192914D01*
X184766663Y-92323891D01*
X184660115Y-92402723D01*
X184454700Y-92442040D01*
X184130061Y-92454470D01*
X184026828Y-92454857D01*
X183708198Y-92459553D01*
X183510563Y-92476235D01*
X183409999Y-92508793D01*
X183382571Y-92559599D01*
X183445220Y-92688488D01*
X183598108Y-92807610D01*
X183788647Y-92881372D01*
X183871143Y-92890285D01*
X184044696Y-92837193D01*
X184161410Y-92745143D01*
X184300941Y-92647363D01*
X184477619Y-92600119D01*
X184642616Y-92605772D01*
X184747104Y-92666686D01*
X184761428Y-92716114D01*
X184713011Y-92833406D01*
X184590345Y-92997694D01*
X184514686Y-93078971D01*
X184347914Y-93227606D01*
X184193367Y-93300840D01*
X183985097Y-93324271D01*
X183879686Y-93325443D01*
X183482730Y-93277389D01*
X183251204Y-93178711D01*
X183004185Y-92950473D01*
X182855829Y-92649211D01*
X182805240Y-92307512D01*
X182851520Y-91957965D01*
X182883786Y-91884290D01*
X183421262Y-91884290D01*
X183452181Y-91927628D01*
X183575941Y-91944288D01*
X183779161Y-91946857D01*
X183998567Y-91937367D01*
X184144471Y-91912875D01*
X184180857Y-91888800D01*
X184119523Y-91761763D01*
X183968094Y-91682515D01*
X183775434Y-91656917D01*
X183590404Y-91690834D01*
X183461866Y-91790129D01*
X183455143Y-91801714D01*
X183421262Y-91884290D01*
X182883786Y-91884290D01*
X182993770Y-91633157D01*
X183231094Y-91365676D01*
X183302589Y-91313303D01*
X183615238Y-91173580D01*
X183946104Y-91169325D01*
X184213829Y-91251367D01*
G36*
X187149079Y-91301828D02*
X187183086Y-91326708D01*
X187302236Y-91499552D01*
X187382106Y-91791752D01*
X187419325Y-92182036D01*
X187410525Y-92649130D01*
X187404828Y-92727000D01*
X187356833Y-93325714D01*
X186938571Y-93325714D01*
X186933192Y-92835857D01*
X186917000Y-92357276D01*
X186876884Y-92011763D01*
X186807453Y-91788432D01*
X186703318Y-91676395D01*
X186559089Y-91664766D01*
X186387165Y-91732953D01*
X186309742Y-91784376D01*
X186259011Y-91858906D01*
X186228093Y-91986345D01*
X186210113Y-92196497D01*
X186198193Y-92519166D01*
X186197132Y-92556540D01*
X186176571Y-93289428D01*
X185951102Y-93311394D01*
X185813687Y-93315686D01*
X185740368Y-93269796D01*
X185700688Y-93138069D01*
X185678959Y-92992837D01*
X185645089Y-92613182D01*
X185634927Y-92185883D01*
X185648457Y-91777521D01*
X185679324Y-91490457D01*
X185717151Y-91316030D01*
X185784712Y-91238461D01*
X185929796Y-91220377D01*
X186023240Y-91221487D01*
X186270089Y-91213499D01*
X186491042Y-91186090D01*
X186519945Y-91179826D01*
X186845499Y-91172692D01*
X187149079Y-91301828D01*
X187149079Y-91301828D01*
G37*
X187149079Y-91301828D02*
X187183086Y-91326708D01*
X187302236Y-91499552D01*
X187382106Y-91791752D01*
X187419325Y-92182036D01*
X187410525Y-92649130D01*
X187404828Y-92727000D01*
X187356833Y-93325714D01*
X186938571Y-93325714D01*
X186933192Y-92835857D01*
X186917000Y-92357276D01*
X186876884Y-92011763D01*
X186807453Y-91788432D01*
X186703318Y-91676395D01*
X186559089Y-91664766D01*
X186387165Y-91732953D01*
X186309742Y-91784376D01*
X186259011Y-91858906D01*
X186228093Y-91986345D01*
X186210113Y-92196497D01*
X186198193Y-92519166D01*
X186197132Y-92556540D01*
X186176571Y-93289428D01*
X185951102Y-93311394D01*
X185813687Y-93315686D01*
X185740368Y-93269796D01*
X185700688Y-93138069D01*
X185678959Y-92992837D01*
X185645089Y-92613182D01*
X185634927Y-92185883D01*
X185648457Y-91777521D01*
X185679324Y-91490457D01*
X185717151Y-91316030D01*
X185784712Y-91238461D01*
X185929796Y-91220377D01*
X186023240Y-91221487D01*
X186270089Y-91213499D01*
X186491042Y-91186090D01*
X186519945Y-91179826D01*
X186845499Y-91172692D01*
X187149079Y-91301828D01*
G36*
X189559892Y-91232575D02*
X189795233Y-91359755D01*
X189947103Y-91538903D01*
X189986571Y-91705507D01*
X189965087Y-91820146D01*
X189872773Y-91866968D01*
X189732571Y-91874285D01*
X189564676Y-91856697D01*
X189480762Y-91813449D01*
X189478571Y-91804267D01*
X189415988Y-91706415D01*
X189267950Y-91638593D01*
X189094027Y-91624956D01*
X189054875Y-91632475D01*
X188917828Y-91699444D01*
X188915731Y-91785566D01*
X189041317Y-91881023D01*
X189287315Y-91975994D01*
X189315285Y-91984232D01*
X189683374Y-92121375D01*
X189920360Y-92288169D01*
X190039163Y-92496254D01*
X190059143Y-92654518D01*
X190007568Y-92898187D01*
X189847011Y-93113582D01*
X189706940Y-93235555D01*
X189564112Y-93299413D01*
X189363488Y-93323187D01*
X189199436Y-93325714D01*
X188926345Y-93313998D01*
X188739538Y-93267869D01*
X188581267Y-93170857D01*
X188540711Y-93137834D01*
X188377004Y-92951508D01*
X188317428Y-92774977D01*
X188339616Y-92653295D01*
X188434803Y-92605952D01*
X188553972Y-92600000D01*
X188783075Y-92650878D01*
X188881158Y-92745143D01*
X189031593Y-92860742D01*
X189254193Y-92888105D01*
X189436350Y-92846235D01*
X189549328Y-92766988D01*
X189523011Y-92673671D01*
X189362040Y-92570898D01*
X189071053Y-92463285D01*
X189042720Y-92454731D01*
X188684602Y-92323945D01*
X188457624Y-92175991D01*
X188347782Y-91994764D01*
X188341077Y-91764160D01*
X188360267Y-91669764D01*
X188459410Y-91443113D01*
X188649510Y-91287990D01*
X188680285Y-91271552D01*
X188969694Y-91177602D01*
X189273804Y-91168233D01*
X189559892Y-91232575D01*
X189559892Y-91232575D01*
G37*
X189559892Y-91232575D02*
X189795233Y-91359755D01*
X189947103Y-91538903D01*
X189986571Y-91705507D01*
X189965087Y-91820146D01*
X189872773Y-91866968D01*
X189732571Y-91874285D01*
X189564676Y-91856697D01*
X189480762Y-91813449D01*
X189478571Y-91804267D01*
X189415988Y-91706415D01*
X189267950Y-91638593D01*
X189094027Y-91624956D01*
X189054875Y-91632475D01*
X188917828Y-91699444D01*
X188915731Y-91785566D01*
X189041317Y-91881023D01*
X189287315Y-91975994D01*
X189315285Y-91984232D01*
X189683374Y-92121375D01*
X189920360Y-92288169D01*
X190039163Y-92496254D01*
X190059143Y-92654518D01*
X190007568Y-92898187D01*
X189847011Y-93113582D01*
X189706940Y-93235555D01*
X189564112Y-93299413D01*
X189363488Y-93323187D01*
X189199436Y-93325714D01*
X188926345Y-93313998D01*
X188739538Y-93267869D01*
X188581267Y-93170857D01*
X188540711Y-93137834D01*
X188377004Y-92951508D01*
X188317428Y-92774977D01*
X188339616Y-92653295D01*
X188434803Y-92605952D01*
X188553972Y-92600000D01*
X188783075Y-92650878D01*
X188881158Y-92745143D01*
X189031593Y-92860742D01*
X189254193Y-92888105D01*
X189436350Y-92846235D01*
X189549328Y-92766988D01*
X189523011Y-92673671D01*
X189362040Y-92570898D01*
X189071053Y-92463285D01*
X189042720Y-92454731D01*
X188684602Y-92323945D01*
X188457624Y-92175991D01*
X188347782Y-91994764D01*
X188341077Y-91764160D01*
X188360267Y-91669764D01*
X188459410Y-91443113D01*
X188649510Y-91287990D01*
X188680285Y-91271552D01*
X188969694Y-91177602D01*
X189273804Y-91168233D01*
X189559892Y-91232575D01*
G36*
X192068558Y-91182690D02*
X192372885Y-91314817D01*
X192615124Y-91545534D01*
X192770787Y-91859475D01*
X192816744Y-92182714D01*
X192816857Y-92454857D01*
X192127428Y-92454857D01*
X191767120Y-92462949D01*
X191540600Y-92491251D01*
X191437210Y-92545802D01*
X191446288Y-92632638D01*
X191557175Y-92757797D01*
X191570714Y-92770181D01*
X191785074Y-92878477D01*
X192015783Y-92856640D01*
X192222718Y-92708857D01*
X192393355Y-92573530D01*
X192565292Y-92527252D01*
X192704150Y-92562609D01*
X192775550Y-92672186D01*
X192755426Y-92823735D01*
X192614361Y-93064146D01*
X192395840Y-93217282D01*
X192075702Y-93297311D01*
X191923749Y-93311414D01*
X191652652Y-93319222D01*
X191472515Y-93293535D01*
X191330993Y-93223873D01*
X191273264Y-93181184D01*
X191017793Y-92898734D01*
X190883033Y-92544191D01*
X190857428Y-92257757D01*
X190909673Y-91888800D01*
X191438000Y-91888800D01*
X191503634Y-91920598D01*
X191672939Y-91941686D01*
X191837143Y-91946857D01*
X192055755Y-91937310D01*
X192200733Y-91912684D01*
X192236286Y-91888800D01*
X192171326Y-91764634D01*
X192005623Y-91679502D01*
X191837143Y-91656571D01*
X191623734Y-91694366D01*
X191477413Y-91790775D01*
X191438000Y-91888800D01*
X190909673Y-91888800D01*
X190913381Y-91862614D01*
X191072149Y-91536185D01*
X191320096Y-91304514D01*
X191371583Y-91275684D01*
X191726628Y-91164523D01*
X192068558Y-91182690D01*
X192068558Y-91182690D01*
G37*
X192068558Y-91182690D02*
X192372885Y-91314817D01*
X192615124Y-91545534D01*
X192770787Y-91859475D01*
X192816744Y-92182714D01*
X192816857Y-92454857D01*
X192127428Y-92454857D01*
X191767120Y-92462949D01*
X191540600Y-92491251D01*
X191437210Y-92545802D01*
X191446288Y-92632638D01*
X191557175Y-92757797D01*
X191570714Y-92770181D01*
X191785074Y-92878477D01*
X192015783Y-92856640D01*
X192222718Y-92708857D01*
X192393355Y-92573530D01*
X192565292Y-92527252D01*
X192704150Y-92562609D01*
X192775550Y-92672186D01*
X192755426Y-92823735D01*
X192614361Y-93064146D01*
X192395840Y-93217282D01*
X192075702Y-93297311D01*
X191923749Y-93311414D01*
X191652652Y-93319222D01*
X191472515Y-93293535D01*
X191330993Y-93223873D01*
X191273264Y-93181184D01*
X191017793Y-92898734D01*
X190883033Y-92544191D01*
X190857428Y-92257757D01*
X190909673Y-91888800D01*
X191438000Y-91888800D01*
X191503634Y-91920598D01*
X191672939Y-91941686D01*
X191837143Y-91946857D01*
X192055755Y-91937310D01*
X192200733Y-91912684D01*
X192236286Y-91888800D01*
X192171326Y-91764634D01*
X192005623Y-91679502D01*
X191837143Y-91656571D01*
X191623734Y-91694366D01*
X191477413Y-91790775D01*
X191438000Y-91888800D01*
X190909673Y-91888800D01*
X190913381Y-91862614D01*
X191072149Y-91536185D01*
X191320096Y-91304514D01*
X191371583Y-91275684D01*
X191726628Y-91164523D01*
X192068558Y-91182690D01*
G36*
X167587927Y-91451579D02*
X167755758Y-91507774D01*
X167916176Y-91634483D01*
X167968400Y-91685600D01*
X168130720Y-91875957D01*
X168202265Y-92057021D01*
X168215143Y-92233489D01*
X168187544Y-92485750D01*
X168119664Y-92716612D01*
X168105057Y-92747518D01*
X167907066Y-92985173D01*
X167630314Y-93130724D01*
X167315506Y-93174496D01*
X167003347Y-93106813D01*
X166877464Y-93039322D01*
X166635776Y-92819880D01*
X166507725Y-92540713D01*
X166476000Y-92248028D01*
X166480818Y-92188177D01*
X166906380Y-92188177D01*
X166910497Y-92399541D01*
X166994195Y-92596416D01*
X167156716Y-92745343D01*
X167397304Y-92812867D01*
X167402013Y-92813114D01*
X167513349Y-92768680D01*
X167659221Y-92654187D01*
X167674156Y-92639584D01*
X167796858Y-92474888D01*
X167852047Y-92317830D01*
X167852285Y-92309714D01*
X167797890Y-92147715D01*
X167666133Y-91975595D01*
X167504155Y-91843966D01*
X167379099Y-91801714D01*
X167139923Y-91855807D01*
X166982603Y-91995780D01*
X166906380Y-92188177D01*
X166480818Y-92188177D01*
X166494053Y-92023811D01*
X166573298Y-91851992D01*
X166720171Y-91685600D01*
X166890615Y-91534614D01*
X167049553Y-91461621D01*
X167265384Y-91439581D01*
X167344285Y-91438857D01*
X167587927Y-91451579D01*
X167587927Y-91451579D01*
G37*
X167587927Y-91451579D02*
X167755758Y-91507774D01*
X167916176Y-91634483D01*
X167968400Y-91685600D01*
X168130720Y-91875957D01*
X168202265Y-92057021D01*
X168215143Y-92233489D01*
X168187544Y-92485750D01*
X168119664Y-92716612D01*
X168105057Y-92747518D01*
X167907066Y-92985173D01*
X167630314Y-93130724D01*
X167315506Y-93174496D01*
X167003347Y-93106813D01*
X166877464Y-93039322D01*
X166635776Y-92819880D01*
X166507725Y-92540713D01*
X166476000Y-92248028D01*
X166480818Y-92188177D01*
X166906380Y-92188177D01*
X166910497Y-92399541D01*
X166994195Y-92596416D01*
X167156716Y-92745343D01*
X167397304Y-92812867D01*
X167402013Y-92813114D01*
X167513349Y-92768680D01*
X167659221Y-92654187D01*
X167674156Y-92639584D01*
X167796858Y-92474888D01*
X167852047Y-92317830D01*
X167852285Y-92309714D01*
X167797890Y-92147715D01*
X167666133Y-91975595D01*
X167504155Y-91843966D01*
X167379099Y-91801714D01*
X167139923Y-91855807D01*
X166982603Y-91995780D01*
X166906380Y-92188177D01*
X166480818Y-92188177D01*
X166494053Y-92023811D01*
X166573298Y-91851992D01*
X166720171Y-91685600D01*
X166890615Y-91534614D01*
X167049553Y-91461621D01*
X167265384Y-91439581D01*
X167344285Y-91438857D01*
X167587927Y-91451579D01*
G36*
X165728644Y-89720315D02*
X166072560Y-89829456D01*
X166377173Y-90047973D01*
X166525625Y-90227152D01*
X166700499Y-90594351D01*
X166747556Y-90968685D01*
X166681232Y-91328476D01*
X166515963Y-91652044D01*
X166266184Y-91917709D01*
X165946333Y-92103794D01*
X165570846Y-92188619D01*
X165233368Y-92167751D01*
X164870749Y-92029916D01*
X164566878Y-91781228D01*
X164346505Y-91451943D01*
X164234383Y-91072313D01*
X164225308Y-90935626D01*
X164242530Y-90824812D01*
X164598024Y-90824812D01*
X164623825Y-91155116D01*
X164754957Y-91456592D01*
X164978332Y-91690234D01*
X165114143Y-91766692D01*
X165373763Y-91854450D01*
X165597868Y-91854582D01*
X165857313Y-91769795D01*
X166136485Y-91585164D01*
X166314699Y-91327948D01*
X166391748Y-91030043D01*
X166367426Y-90723343D01*
X166241526Y-90439741D01*
X166013841Y-90211132D01*
X165867946Y-90130126D01*
X165507218Y-90036023D01*
X165174983Y-90074604D01*
X164892643Y-90239059D01*
X164690643Y-90504682D01*
X164598024Y-90824812D01*
X164242530Y-90824812D01*
X164285467Y-90548538D01*
X164454774Y-90225104D01*
X164708487Y-89972944D01*
X165021865Y-89799679D01*
X165370164Y-89712929D01*
X165728644Y-89720315D01*
X165728644Y-89720315D01*
G37*
X165728644Y-89720315D02*
X166072560Y-89829456D01*
X166377173Y-90047973D01*
X166525625Y-90227152D01*
X166700499Y-90594351D01*
X166747556Y-90968685D01*
X166681232Y-91328476D01*
X166515963Y-91652044D01*
X166266184Y-91917709D01*
X165946333Y-92103794D01*
X165570846Y-92188619D01*
X165233368Y-92167751D01*
X164870749Y-92029916D01*
X164566878Y-91781228D01*
X164346505Y-91451943D01*
X164234383Y-91072313D01*
X164225308Y-90935626D01*
X164242530Y-90824812D01*
X164598024Y-90824812D01*
X164623825Y-91155116D01*
X164754957Y-91456592D01*
X164978332Y-91690234D01*
X165114143Y-91766692D01*
X165373763Y-91854450D01*
X165597868Y-91854582D01*
X165857313Y-91769795D01*
X166136485Y-91585164D01*
X166314699Y-91327948D01*
X166391748Y-91030043D01*
X166367426Y-90723343D01*
X166241526Y-90439741D01*
X166013841Y-90211132D01*
X165867946Y-90130126D01*
X165507218Y-90036023D01*
X165174983Y-90074604D01*
X164892643Y-90239059D01*
X164690643Y-90504682D01*
X164598024Y-90824812D01*
X164242530Y-90824812D01*
X164285467Y-90548538D01*
X164454774Y-90225104D01*
X164708487Y-89972944D01*
X165021865Y-89799679D01*
X165370164Y-89712929D01*
X165728644Y-89720315D01*
G36*
X148308394Y-80064559D02*
X149051657Y-80254856D01*
X149672990Y-80486016D01*
X150193114Y-80731633D01*
X150655511Y-81017581D01*
X151103665Y-81369733D01*
X151437367Y-81674441D01*
X152141851Y-82422345D01*
X152717074Y-83202252D01*
X153173785Y-84034556D01*
X153522731Y-84939654D01*
X153774661Y-85937943D01*
X153823388Y-86202396D01*
X153900664Y-86814621D01*
X153943196Y-87517776D01*
X153951389Y-88264004D01*
X153925648Y-89005450D01*
X153866379Y-89694257D01*
X153789458Y-90205142D01*
X153703986Y-90658058D01*
X153638130Y-90988957D01*
X153578662Y-91217197D01*
X153512350Y-91362139D01*
X153425965Y-91443143D01*
X153306275Y-91479567D01*
X153140052Y-91490772D01*
X152914065Y-91496117D01*
X152907053Y-91496360D01*
X152613179Y-91505165D01*
X152437274Y-91501423D01*
X152352270Y-91478142D01*
X152331097Y-91428329D01*
X152345174Y-91351217D01*
X152467771Y-90799079D01*
X152553467Y-90285190D01*
X152607358Y-89762221D01*
X152634541Y-89182838D01*
X152640449Y-88608571D01*
X152636642Y-88100750D01*
X152624990Y-87704119D01*
X152602657Y-87384810D01*
X152566805Y-87108958D01*
X152514596Y-86842695D01*
X152480413Y-86698288D01*
X152313201Y-86120627D01*
X152098275Y-85527391D01*
X151854661Y-84964613D01*
X151601385Y-84478329D01*
X151485342Y-84290687D01*
X151022567Y-83684053D01*
X150468529Y-83109972D01*
X149855051Y-82595014D01*
X149213956Y-82165749D01*
X148577068Y-81848748D01*
X148545536Y-81836176D01*
X147796740Y-81617600D01*
X147009694Y-81529492D01*
X146206870Y-81570490D01*
X145410739Y-81739233D01*
X144643771Y-82034357D01*
X144554962Y-82078099D01*
X144231055Y-82271104D01*
X143847141Y-82545911D01*
X143437508Y-82873981D01*
X143036444Y-83226778D01*
X142678239Y-83575765D01*
X142443851Y-83835100D01*
X142185560Y-84164170D01*
X141896352Y-84563642D01*
X141603430Y-84993053D01*
X141333996Y-85411942D01*
X141115252Y-85779845D01*
X141031147Y-85936435D01*
X140920908Y-86136968D01*
X140827500Y-86279053D01*
X140790944Y-86317749D01*
X140726781Y-86279174D01*
X140617306Y-86139427D01*
X140483632Y-85926388D01*
X140451330Y-85869314D01*
X139840350Y-84876285D01*
X139167722Y-83982698D01*
X138444851Y-83201835D01*
X137683141Y-82546975D01*
X137457494Y-82383147D01*
X136815244Y-82015290D01*
X136105436Y-81748535D01*
X135356567Y-81586458D01*
X134597134Y-81532634D01*
X133855636Y-81590637D01*
X133160571Y-81764044D01*
X133001568Y-81824149D01*
X132246280Y-82200714D01*
X131520374Y-82695760D01*
X130856495Y-83282664D01*
X130287287Y-83934800D01*
X130110957Y-84181714D01*
X129622513Y-85036363D01*
X129251011Y-85968305D01*
X128998324Y-86966369D01*
X128866327Y-88019384D01*
X128856891Y-89116181D01*
X128971891Y-90245589D01*
X129033802Y-90604285D01*
X129091785Y-90918777D01*
X129137731Y-91183959D01*
X129165725Y-91364766D01*
X129171494Y-91420714D01*
X129106519Y-91469523D01*
X128938998Y-91500775D01*
X128710462Y-91514498D01*
X128462439Y-91510722D01*
X128236459Y-91489475D01*
X128074049Y-91450787D01*
X128024968Y-91419918D01*
X127981123Y-91315457D01*
X127919143Y-91100494D01*
X127847536Y-90807200D01*
X127780225Y-90494632D01*
X127722304Y-90191379D01*
X127679250Y-89913951D01*
X127649016Y-89632298D01*
X127629559Y-89316371D01*
X127618832Y-88936121D01*
X127614791Y-88461499D01*
X127614830Y-88064285D01*
X127617978Y-87503468D01*
X127626036Y-87059814D01*
X127640941Y-86705376D01*
X127664628Y-86412204D01*
X127699036Y-86152349D01*
X127746100Y-85897864D01*
X127773917Y-85768690D01*
X128041242Y-84798640D01*
X128394614Y-83928261D01*
X128848484Y-83130964D01*
X129417305Y-82380162D01*
X129897428Y-81862188D01*
X130395773Y-81390665D01*
X130862490Y-81018323D01*
X131338967Y-80718903D01*
X131866592Y-80466146D01*
X132437428Y-80250642D01*
X132729920Y-80153322D01*
X132967248Y-80087083D01*
X133191004Y-80046067D01*
X133442782Y-80024416D01*
X133764174Y-80016272D01*
X134106571Y-80015560D01*
X134527764Y-80019528D01*
X134845329Y-80033031D01*
X135100718Y-80061382D01*
X135335383Y-80109896D01*
X135590778Y-80183884D01*
X135703143Y-80220196D01*
X136264834Y-80420699D01*
X136740495Y-80632087D01*
X137166215Y-80877115D01*
X137578089Y-81178534D01*
X138012206Y-81559097D01*
X138357321Y-81893400D01*
X138834913Y-82389376D01*
X139244676Y-82864324D01*
X139614958Y-83356283D01*
X139974108Y-83903292D01*
X140350475Y-84543387D01*
X140405971Y-84642266D01*
X140760914Y-85277693D01*
X141203583Y-84487213D01*
X141780050Y-83545281D01*
X142397898Y-82699698D01*
X143047366Y-81960825D01*
X143718696Y-81339025D01*
X144402130Y-80844659D01*
X144884046Y-80579240D01*
X145735746Y-80244506D01*
X146598516Y-80046514D01*
X147460138Y-79986215D01*
X148308394Y-80064559D01*
X148308394Y-80064559D01*
G37*
X148308394Y-80064559D02*
X149051657Y-80254856D01*
X149672990Y-80486016D01*
X150193114Y-80731633D01*
X150655511Y-81017581D01*
X151103665Y-81369733D01*
X151437367Y-81674441D01*
X152141851Y-82422345D01*
X152717074Y-83202252D01*
X153173785Y-84034556D01*
X153522731Y-84939654D01*
X153774661Y-85937943D01*
X153823388Y-86202396D01*
X153900664Y-86814621D01*
X153943196Y-87517776D01*
X153951389Y-88264004D01*
X153925648Y-89005450D01*
X153866379Y-89694257D01*
X153789458Y-90205142D01*
X153703986Y-90658058D01*
X153638130Y-90988957D01*
X153578662Y-91217197D01*
X153512350Y-91362139D01*
X153425965Y-91443143D01*
X153306275Y-91479567D01*
X153140052Y-91490772D01*
X152914065Y-91496117D01*
X152907053Y-91496360D01*
X152613179Y-91505165D01*
X152437274Y-91501423D01*
X152352270Y-91478142D01*
X152331097Y-91428329D01*
X152345174Y-91351217D01*
X152467771Y-90799079D01*
X152553467Y-90285190D01*
X152607358Y-89762221D01*
X152634541Y-89182838D01*
X152640449Y-88608571D01*
X152636642Y-88100750D01*
X152624990Y-87704119D01*
X152602657Y-87384810D01*
X152566805Y-87108958D01*
X152514596Y-86842695D01*
X152480413Y-86698288D01*
X152313201Y-86120627D01*
X152098275Y-85527391D01*
X151854661Y-84964613D01*
X151601385Y-84478329D01*
X151485342Y-84290687D01*
X151022567Y-83684053D01*
X150468529Y-83109972D01*
X149855051Y-82595014D01*
X149213956Y-82165749D01*
X148577068Y-81848748D01*
X148545536Y-81836176D01*
X147796740Y-81617600D01*
X147009694Y-81529492D01*
X146206870Y-81570490D01*
X145410739Y-81739233D01*
X144643771Y-82034357D01*
X144554962Y-82078099D01*
X144231055Y-82271104D01*
X143847141Y-82545911D01*
X143437508Y-82873981D01*
X143036444Y-83226778D01*
X142678239Y-83575765D01*
X142443851Y-83835100D01*
X142185560Y-84164170D01*
X141896352Y-84563642D01*
X141603430Y-84993053D01*
X141333996Y-85411942D01*
X141115252Y-85779845D01*
X141031147Y-85936435D01*
X140920908Y-86136968D01*
X140827500Y-86279053D01*
X140790944Y-86317749D01*
X140726781Y-86279174D01*
X140617306Y-86139427D01*
X140483632Y-85926388D01*
X140451330Y-85869314D01*
X139840350Y-84876285D01*
X139167722Y-83982698D01*
X138444851Y-83201835D01*
X137683141Y-82546975D01*
X137457494Y-82383147D01*
X136815244Y-82015290D01*
X136105436Y-81748535D01*
X135356567Y-81586458D01*
X134597134Y-81532634D01*
X133855636Y-81590637D01*
X133160571Y-81764044D01*
X133001568Y-81824149D01*
X132246280Y-82200714D01*
X131520374Y-82695760D01*
X130856495Y-83282664D01*
X130287287Y-83934800D01*
X130110957Y-84181714D01*
X129622513Y-85036363D01*
X129251011Y-85968305D01*
X128998324Y-86966369D01*
X128866327Y-88019384D01*
X128856891Y-89116181D01*
X128971891Y-90245589D01*
X129033802Y-90604285D01*
X129091785Y-90918777D01*
X129137731Y-91183959D01*
X129165725Y-91364766D01*
X129171494Y-91420714D01*
X129106519Y-91469523D01*
X128938998Y-91500775D01*
X128710462Y-91514498D01*
X128462439Y-91510722D01*
X128236459Y-91489475D01*
X128074049Y-91450787D01*
X128024968Y-91419918D01*
X127981123Y-91315457D01*
X127919143Y-91100494D01*
X127847536Y-90807200D01*
X127780225Y-90494632D01*
X127722304Y-90191379D01*
X127679250Y-89913951D01*
X127649016Y-89632298D01*
X127629559Y-89316371D01*
X127618832Y-88936121D01*
X127614791Y-88461499D01*
X127614830Y-88064285D01*
X127617978Y-87503468D01*
X127626036Y-87059814D01*
X127640941Y-86705376D01*
X127664628Y-86412204D01*
X127699036Y-86152349D01*
X127746100Y-85897864D01*
X127773917Y-85768690D01*
X128041242Y-84798640D01*
X128394614Y-83928261D01*
X128848484Y-83130964D01*
X129417305Y-82380162D01*
X129897428Y-81862188D01*
X130395773Y-81390665D01*
X130862490Y-81018323D01*
X131338967Y-80718903D01*
X131866592Y-80466146D01*
X132437428Y-80250642D01*
X132729920Y-80153322D01*
X132967248Y-80087083D01*
X133191004Y-80046067D01*
X133442782Y-80024416D01*
X133764174Y-80016272D01*
X134106571Y-80015560D01*
X134527764Y-80019528D01*
X134845329Y-80033031D01*
X135100718Y-80061382D01*
X135335383Y-80109896D01*
X135590778Y-80183884D01*
X135703143Y-80220196D01*
X136264834Y-80420699D01*
X136740495Y-80632087D01*
X137166215Y-80877115D01*
X137578089Y-81178534D01*
X138012206Y-81559097D01*
X138357321Y-81893400D01*
X138834913Y-82389376D01*
X139244676Y-82864324D01*
X139614958Y-83356283D01*
X139974108Y-83903292D01*
X140350475Y-84543387D01*
X140405971Y-84642266D01*
X140760914Y-85277693D01*
X141203583Y-84487213D01*
X141780050Y-83545281D01*
X142397898Y-82699698D01*
X143047366Y-81960825D01*
X143718696Y-81339025D01*
X144402130Y-80844659D01*
X144884046Y-80579240D01*
X145735746Y-80244506D01*
X146598516Y-80046514D01*
X147460138Y-79986215D01*
X148308394Y-80064559D01*
G36*
X168725574Y-89744800D02*
X168970511Y-89858579D01*
X169184493Y-90070173D01*
X169325014Y-90332713D01*
X169349836Y-90433125D01*
X169342855Y-90771637D01*
X169222718Y-91057523D01*
X169015346Y-91272961D01*
X168746662Y-91400130D01*
X168442587Y-91421208D01*
X168129045Y-91318376D01*
X168092774Y-91297326D01*
X167869753Y-91120842D01*
X167749060Y-90905406D01*
X167707878Y-90606581D01*
X167707143Y-90546272D01*
X167719229Y-90483423D01*
X168093010Y-90483423D01*
X168094489Y-90702019D01*
X168213748Y-90893347D01*
X168432857Y-91019238D01*
X168623179Y-91011827D01*
X168811403Y-90899091D01*
X168937258Y-90728345D01*
X168968314Y-90520524D01*
X168889011Y-90340933D01*
X168733998Y-90211539D01*
X168537925Y-90154308D01*
X168335441Y-90191209D01*
X168219539Y-90273318D01*
X168093010Y-90483423D01*
X167719229Y-90483423D01*
X167770833Y-90215100D01*
X167945742Y-89955126D01*
X168207622Y-89785430D01*
X168532230Y-89725092D01*
X168725574Y-89744800D01*
X168725574Y-89744800D01*
G37*
X168725574Y-89744800D02*
X168970511Y-89858579D01*
X169184493Y-90070173D01*
X169325014Y-90332713D01*
X169349836Y-90433125D01*
X169342855Y-90771637D01*
X169222718Y-91057523D01*
X169015346Y-91272961D01*
X168746662Y-91400130D01*
X168442587Y-91421208D01*
X168129045Y-91318376D01*
X168092774Y-91297326D01*
X167869753Y-91120842D01*
X167749060Y-90905406D01*
X167707878Y-90606581D01*
X167707143Y-90546272D01*
X167719229Y-90483423D01*
X168093010Y-90483423D01*
X168094489Y-90702019D01*
X168213748Y-90893347D01*
X168432857Y-91019238D01*
X168623179Y-91011827D01*
X168811403Y-90899091D01*
X168937258Y-90728345D01*
X168968314Y-90520524D01*
X168889011Y-90340933D01*
X168733998Y-90211539D01*
X168537925Y-90154308D01*
X168335441Y-90191209D01*
X168219539Y-90273318D01*
X168093010Y-90483423D01*
X167719229Y-90483423D01*
X167770833Y-90215100D01*
X167945742Y-89955126D01*
X168207622Y-89785430D01*
X168532230Y-89725092D01*
X168725574Y-89744800D01*
G36*
X166524397Y-87935573D02*
X166684948Y-88005404D01*
X166842238Y-88156145D01*
X167015429Y-88442141D01*
X167058486Y-88741485D01*
X166978082Y-89023647D01*
X166780888Y-89258100D01*
X166575132Y-89378237D01*
X166386576Y-89451355D01*
X166257050Y-89467515D01*
X166112808Y-89426083D01*
X165988268Y-89373209D01*
X165735807Y-89193100D01*
X165584293Y-88938345D01*
X165541074Y-88645226D01*
X165613500Y-88350029D01*
X165741761Y-88156145D01*
X165901436Y-88003700D01*
X166062577Y-87934970D01*
X166292000Y-87919142D01*
X166524397Y-87935573D01*
X166524397Y-87935573D01*
G37*
X166524397Y-87935573D02*
X166684948Y-88005404D01*
X166842238Y-88156145D01*
X167015429Y-88442141D01*
X167058486Y-88741485D01*
X166978082Y-89023647D01*
X166780888Y-89258100D01*
X166575132Y-89378237D01*
X166386576Y-89451355D01*
X166257050Y-89467515D01*
X166112808Y-89426083D01*
X165988268Y-89373209D01*
X165735807Y-89193100D01*
X165584293Y-88938345D01*
X165541074Y-88645226D01*
X165613500Y-88350029D01*
X165741761Y-88156145D01*
X165901436Y-88003700D01*
X166062577Y-87934970D01*
X166292000Y-87919142D01*
X166524397Y-87935573D01*
G36*
X163088021Y-87387885D02*
X163339919Y-87501030D01*
X163543366Y-87709330D01*
X163641463Y-87914054D01*
X163676199Y-88219491D01*
X163591507Y-88496389D01*
X163412994Y-88721782D01*
X163166268Y-88872705D01*
X162876937Y-88926192D01*
X162582025Y-88864199D01*
X162313792Y-88684671D01*
X162160774Y-88418950D01*
X162120245Y-88123168D01*
X162631412Y-88123168D01*
X162665038Y-88284880D01*
X162736162Y-88363663D01*
X162910751Y-88419338D01*
X163068841Y-88339054D01*
X163134347Y-88247201D01*
X163155849Y-88084031D01*
X163067301Y-87951498D01*
X162903371Y-87891301D01*
X162840791Y-87894108D01*
X162694236Y-87973884D01*
X162631412Y-88123168D01*
X162120245Y-88123168D01*
X162119143Y-88115127D01*
X162177276Y-87810081D01*
X162332299Y-87580995D01*
X162555143Y-87431707D01*
X162816740Y-87366057D01*
X163088021Y-87387885D01*
X163088021Y-87387885D01*
G37*
X163088021Y-87387885D02*
X163339919Y-87501030D01*
X163543366Y-87709330D01*
X163641463Y-87914054D01*
X163676199Y-88219491D01*
X163591507Y-88496389D01*
X163412994Y-88721782D01*
X163166268Y-88872705D01*
X162876937Y-88926192D01*
X162582025Y-88864199D01*
X162313792Y-88684671D01*
X162160774Y-88418950D01*
X162120245Y-88123168D01*
X162631412Y-88123168D01*
X162665038Y-88284880D01*
X162736162Y-88363663D01*
X162910751Y-88419338D01*
X163068841Y-88339054D01*
X163134347Y-88247201D01*
X163155849Y-88084031D01*
X163067301Y-87951498D01*
X162903371Y-87891301D01*
X162840791Y-87894108D01*
X162694236Y-87973884D01*
X162631412Y-88123168D01*
X162120245Y-88123168D01*
X162119143Y-88115127D01*
X162177276Y-87810081D01*
X162332299Y-87580995D01*
X162555143Y-87431707D01*
X162816740Y-87366057D01*
X163088021Y-87387885D01*
D14*
X125746000Y-77492000D02*
X130826000Y-77492000D01*
X122926000Y-77772000D02*
X122926000Y-76222000D01*
X123206000Y-74952000D02*
X125746000Y-74952000D01*
X125746000Y-74952000D02*
X125746000Y-77492000D01*
X130826000Y-77492000D02*
X130826000Y-72412000D01*
X130826000Y-72412000D02*
X125746000Y-72412000D01*
X122926000Y-77772000D02*
X124476000Y-77772000D01*
X123206000Y-72412000D02*
X123206000Y-74952000D01*
X125746000Y-72412000D02*
X123206000Y-72412000D01*
X125746000Y-102492000D02*
X130826000Y-102492000D01*
X122926000Y-102772000D02*
X122926000Y-101222000D01*
X123206000Y-99952000D02*
X125746000Y-99952000D01*
X125746000Y-99952000D02*
X125746000Y-102492000D01*
X130826000Y-102492000D02*
X130826000Y-97412000D01*
X130826000Y-97412000D02*
X125746000Y-97412000D01*
X122926000Y-102772000D02*
X124476000Y-102772000D01*
X123206000Y-97412000D02*
X123206000Y-99952000D01*
X125746000Y-97412000D02*
X123206000Y-97412000D01*
X185986000Y-80112000D02*
X168206000Y-80112000D01*
X170746000Y-85192000D02*
X185986000Y-85192000D01*
X185986000Y-80112000D02*
X185986000Y-85192000D01*
X168206000Y-80112000D02*
X168206000Y-82652000D01*
X167926000Y-83922000D02*
X167926000Y-85472000D01*
X168206000Y-82652000D02*
X170746000Y-82652000D01*
X170746000Y-82652000D02*
X170746000Y-85192000D01*
X167926000Y-85472000D02*
X169476000Y-85472000D01*
X185986000Y-105112000D02*
X168206000Y-105112000D01*
X170746000Y-110192000D02*
X185986000Y-110192000D01*
X185986000Y-105112000D02*
X185986000Y-110192000D01*
X168206000Y-105112000D02*
X168206000Y-107652000D01*
X167926000Y-108922000D02*
X167926000Y-110472000D01*
X168206000Y-107652000D02*
X170746000Y-107652000D01*
X170746000Y-107652000D02*
X170746000Y-110192000D01*
X167926000Y-110472000D02*
X169476000Y-110472000D01*
D15*
X144715000Y-75408000D02*
X146115000Y-75408000D01*
X146115000Y-75408000D02*
X146115000Y-72608000D01*
X144715000Y-75408000D02*
X144715000Y-72608000D01*
X148017000Y-75408000D02*
X149417000Y-75408000D01*
X149417000Y-75408000D02*
X149417000Y-72608000D01*
X148017000Y-75408000D02*
X148017000Y-72608000D01*
X154367000Y-75408000D02*
X155767000Y-75408000D01*
X155767000Y-75408000D02*
X155767000Y-72608000D01*
X154367000Y-75408000D02*
X154367000Y-72608000D01*
X157415000Y-75408000D02*
X158815000Y-75408000D01*
X158815000Y-75408000D02*
X158815000Y-72608000D01*
X157415000Y-75408000D02*
X157415000Y-72608000D01*
X135986000Y-71892000D02*
X134586000Y-71892000D01*
X134586000Y-71892000D02*
X134586000Y-74692000D01*
X135986000Y-71892000D02*
X135986000Y-74692000D01*
X139161000Y-71892000D02*
X137761000Y-71892000D01*
X137761000Y-71892000D02*
X137761000Y-74692000D01*
X139161000Y-71892000D02*
X139161000Y-74692000D01*
D14*
X137191000Y-69882000D02*
X142271000Y-69882000D01*
X142271000Y-69882000D02*
X142271000Y-67342000D01*
X142271000Y-67342000D02*
X137191000Y-67342000D01*
X134371000Y-67062000D02*
X135921000Y-67062000D01*
X137191000Y-67342000D02*
X137191000Y-69882000D01*
X135921000Y-70162000D02*
X134371000Y-70162000D01*
X134371000Y-70162000D02*
X134371000Y-67062000D01*
X125906000Y-110507000D02*
X130986000Y-110507000D01*
X130986000Y-110507000D02*
X130986000Y-107967000D01*
X130986000Y-107967000D02*
X125906000Y-107967000D01*
X123086000Y-107687000D02*
X124636000Y-107687000D01*
X125906000Y-107967000D02*
X125906000Y-110507000D01*
X124636000Y-110787000D02*
X123086000Y-110787000D01*
X123086000Y-110787000D02*
X123086000Y-107687000D01*
X150110000Y-110733000D02*
X142910000Y-110733000D01*
X150110000Y-107233000D02*
X142910000Y-107233000D01*
X142910000Y-107233000D02*
X142910000Y-110733000D01*
X150110000Y-107233000D02*
X150110000Y-110733000D01*
X147496000Y-69867000D02*
X152576000Y-69867000D01*
X152576000Y-69867000D02*
X152576000Y-67327000D01*
X152576000Y-67327000D02*
X147496000Y-67327000D01*
X144676000Y-67047000D02*
X146226000Y-67047000D01*
X147496000Y-67327000D02*
X147496000Y-69867000D01*
X146226000Y-70147000D02*
X144676000Y-70147000D01*
X144676000Y-70147000D02*
X144676000Y-67047000D01*
D15*
X181920000Y-72788000D02*
X181920000Y-72908000D01*
X181920000Y-72908000D02*
X184700000Y-72908000D01*
X184700000Y-72908000D02*
X184700000Y-72788000D01*
X184700000Y-72788000D02*
X181920000Y-72788000D01*
X181920000Y-71518000D02*
X181920000Y-70128000D01*
X181920000Y-70128000D02*
X183310000Y-70128000D01*
D14*
X186420333Y-78632381D02*
X186420333Y-77632381D01*
X186658428Y-77632381D01*
X186801286Y-77680000D01*
X186896524Y-77775238D01*
X186944143Y-77870476D01*
X186991762Y-78060952D01*
X186991762Y-78203810D01*
X186944143Y-78394286D01*
X186896524Y-78489524D01*
X186801286Y-78584762D01*
X186658428Y-78632381D01*
X186420333Y-78632381D01*
X187372714Y-78346667D02*
X187848905Y-78346667D01*
X187277476Y-78632381D02*
X187610809Y-77632381D01*
X187944143Y-78632381D01*
X188848905Y-78537143D02*
X188801286Y-78584762D01*
X188658429Y-78632381D01*
X188563191Y-78632381D01*
X188420333Y-78584762D01*
X188325095Y-78489524D01*
X188277476Y-78394286D01*
X188229857Y-78203810D01*
X188229857Y-78060952D01*
X188277476Y-77870476D01*
X188325095Y-77775238D01*
X188420333Y-77680000D01*
X188563191Y-77632381D01*
X188658429Y-77632381D01*
X188801286Y-77680000D01*
X188848905Y-77727619D01*
X189229857Y-77727619D02*
X189277476Y-77680000D01*
X189372714Y-77632381D01*
X189610810Y-77632381D01*
X189706048Y-77680000D01*
X189753667Y-77727619D01*
X189801286Y-77822857D01*
X189801286Y-77918095D01*
X189753667Y-78060952D01*
X189182238Y-78632381D01*
X189801286Y-78632381D01*
X120546905Y-76854381D02*
X120546905Y-75854381D01*
X120927858Y-75854381D01*
X121023096Y-75902000D01*
X121070715Y-75949619D01*
X121118334Y-76044857D01*
X121118334Y-76187714D01*
X121070715Y-76282952D01*
X121023096Y-76330571D01*
X120927858Y-76378190D01*
X120546905Y-76378190D01*
X121451667Y-75854381D02*
X122070715Y-75854381D01*
X121737381Y-76235333D01*
X121880239Y-76235333D01*
X121975477Y-76282952D01*
X122023096Y-76330571D01*
X122070715Y-76425810D01*
X122070715Y-76663905D01*
X122023096Y-76759143D01*
X121975477Y-76806762D01*
X121880239Y-76854381D01*
X121594524Y-76854381D01*
X121499286Y-76806762D01*
X121451667Y-76759143D01*
X120800905Y-101746381D02*
X120800905Y-100746381D01*
X121181858Y-100746381D01*
X121277096Y-100794000D01*
X121324715Y-100841619D01*
X121372334Y-100936857D01*
X121372334Y-101079714D01*
X121324715Y-101174952D01*
X121277096Y-101222571D01*
X121181858Y-101270190D01*
X120800905Y-101270190D01*
X122229477Y-101079714D02*
X122229477Y-101746381D01*
X121991381Y-100698762D02*
X121753286Y-101413048D01*
X122372334Y-101413048D01*
X165758905Y-84474381D02*
X165758905Y-83474381D01*
X166139858Y-83474381D01*
X166235096Y-83522000D01*
X166282715Y-83569619D01*
X166330334Y-83664857D01*
X166330334Y-83807714D01*
X166282715Y-83902952D01*
X166235096Y-83950571D01*
X166139858Y-83998190D01*
X165758905Y-83998190D01*
X167235096Y-83474381D02*
X166758905Y-83474381D01*
X166711286Y-83950571D01*
X166758905Y-83902952D01*
X166854143Y-83855333D01*
X167092239Y-83855333D01*
X167187477Y-83902952D01*
X167235096Y-83950571D01*
X167282715Y-84045810D01*
X167282715Y-84283905D01*
X167235096Y-84379143D01*
X167187477Y-84426762D01*
X167092239Y-84474381D01*
X166854143Y-84474381D01*
X166758905Y-84426762D01*
X166711286Y-84379143D01*
X165758905Y-109366381D02*
X165758905Y-108366381D01*
X166139858Y-108366381D01*
X166235096Y-108414000D01*
X166282715Y-108461619D01*
X166330334Y-108556857D01*
X166330334Y-108699714D01*
X166282715Y-108794952D01*
X166235096Y-108842571D01*
X166139858Y-108890190D01*
X165758905Y-108890190D01*
X167187477Y-108366381D02*
X166997000Y-108366381D01*
X166901762Y-108414000D01*
X166854143Y-108461619D01*
X166758905Y-108604476D01*
X166711286Y-108794952D01*
X166711286Y-109175905D01*
X166758905Y-109271143D01*
X166806524Y-109318762D01*
X166901762Y-109366381D01*
X167092239Y-109366381D01*
X167187477Y-109318762D01*
X167235096Y-109271143D01*
X167282715Y-109175905D01*
X167282715Y-108937810D01*
X167235096Y-108842571D01*
X167187477Y-108794952D01*
X167092239Y-108747333D01*
X166901762Y-108747333D01*
X166806524Y-108794952D01*
X166758905Y-108842571D01*
X166711286Y-108937810D01*
X142898905Y-74187381D02*
X142898905Y-73187381D01*
X143137000Y-73187381D01*
X143279858Y-73235000D01*
X143375096Y-73330238D01*
X143422715Y-73425476D01*
X143470334Y-73615952D01*
X143470334Y-73758810D01*
X143422715Y-73949286D01*
X143375096Y-74044524D01*
X143279858Y-74139762D01*
X143137000Y-74187381D01*
X142898905Y-74187381D01*
X144422715Y-74187381D02*
X143851286Y-74187381D01*
X144137000Y-74187381D02*
X144137000Y-73187381D01*
X144041762Y-73330238D01*
X143946524Y-73425476D01*
X143851286Y-73473095D01*
X149883905Y-74187381D02*
X149883905Y-73187381D01*
X150122000Y-73187381D01*
X150264858Y-73235000D01*
X150360096Y-73330238D01*
X150407715Y-73425476D01*
X150455334Y-73615952D01*
X150455334Y-73758810D01*
X150407715Y-73949286D01*
X150360096Y-74044524D01*
X150264858Y-74139762D01*
X150122000Y-74187381D01*
X149883905Y-74187381D01*
X150836286Y-73282619D02*
X150883905Y-73235000D01*
X150979143Y-73187381D01*
X151217239Y-73187381D01*
X151312477Y-73235000D01*
X151360096Y-73282619D01*
X151407715Y-73377857D01*
X151407715Y-73473095D01*
X151360096Y-73615952D01*
X150788667Y-74187381D01*
X151407715Y-74187381D01*
X152423905Y-74187381D02*
X152423905Y-73187381D01*
X152662000Y-73187381D01*
X152804858Y-73235000D01*
X152900096Y-73330238D01*
X152947715Y-73425476D01*
X152995334Y-73615952D01*
X152995334Y-73758810D01*
X152947715Y-73949286D01*
X152900096Y-74044524D01*
X152804858Y-74139762D01*
X152662000Y-74187381D01*
X152423905Y-74187381D01*
X153328667Y-73187381D02*
X153947715Y-73187381D01*
X153614381Y-73568333D01*
X153757239Y-73568333D01*
X153852477Y-73615952D01*
X153900096Y-73663571D01*
X153947715Y-73758810D01*
X153947715Y-73996905D01*
X153900096Y-74092143D01*
X153852477Y-74139762D01*
X153757239Y-74187381D01*
X153471524Y-74187381D01*
X153376286Y-74139762D01*
X153328667Y-74092143D01*
X159408905Y-74187381D02*
X159408905Y-73187381D01*
X159647000Y-73187381D01*
X159789858Y-73235000D01*
X159885096Y-73330238D01*
X159932715Y-73425476D01*
X159980334Y-73615952D01*
X159980334Y-73758810D01*
X159932715Y-73949286D01*
X159885096Y-74044524D01*
X159789858Y-74139762D01*
X159647000Y-74187381D01*
X159408905Y-74187381D01*
X160837477Y-73520714D02*
X160837477Y-74187381D01*
X160599381Y-73139762D02*
X160361286Y-73854048D01*
X160980334Y-73854048D01*
X132484905Y-74314381D02*
X132484905Y-73314381D01*
X132723000Y-73314381D01*
X132865858Y-73362000D01*
X132961096Y-73457238D01*
X133008715Y-73552476D01*
X133056334Y-73742952D01*
X133056334Y-73885810D01*
X133008715Y-74076286D01*
X132961096Y-74171524D01*
X132865858Y-74266762D01*
X132723000Y-74314381D01*
X132484905Y-74314381D01*
X133961096Y-73314381D02*
X133484905Y-73314381D01*
X133437286Y-73790571D01*
X133484905Y-73742952D01*
X133580143Y-73695333D01*
X133818239Y-73695333D01*
X133913477Y-73742952D01*
X133961096Y-73790571D01*
X134008715Y-73885810D01*
X134008715Y-74123905D01*
X133961096Y-74219143D01*
X133913477Y-74266762D01*
X133818239Y-74314381D01*
X133580143Y-74314381D01*
X133484905Y-74266762D01*
X133437286Y-74219143D01*
X139850905Y-74314381D02*
X139850905Y-73314381D01*
X140089000Y-73314381D01*
X140231858Y-73362000D01*
X140327096Y-73457238D01*
X140374715Y-73552476D01*
X140422334Y-73742952D01*
X140422334Y-73885810D01*
X140374715Y-74076286D01*
X140327096Y-74171524D01*
X140231858Y-74266762D01*
X140089000Y-74314381D01*
X139850905Y-74314381D01*
X141279477Y-73314381D02*
X141089000Y-73314381D01*
X140993762Y-73362000D01*
X140946143Y-73409619D01*
X140850905Y-73552476D01*
X140803286Y-73742952D01*
X140803286Y-74123905D01*
X140850905Y-74219143D01*
X140898524Y-74266762D01*
X140993762Y-74314381D01*
X141184239Y-74314381D01*
X141279477Y-74266762D01*
X141327096Y-74219143D01*
X141374715Y-74123905D01*
X141374715Y-73885810D01*
X141327096Y-73790571D01*
X141279477Y-73742952D01*
X141184239Y-73695333D01*
X140993762Y-73695333D01*
X140898524Y-73742952D01*
X140850905Y-73790571D01*
X140803286Y-73885810D01*
X132406905Y-69938381D02*
X132406905Y-68938381D01*
X132787858Y-68938381D01*
X132883096Y-68986000D01*
X132930715Y-69033619D01*
X132978334Y-69128857D01*
X132978334Y-69271714D01*
X132930715Y-69366952D01*
X132883096Y-69414571D01*
X132787858Y-69462190D01*
X132406905Y-69462190D01*
X133311667Y-68938381D02*
X133978334Y-68938381D01*
X133549762Y-69938381D01*
X121072905Y-109605381D02*
X121072905Y-108605381D01*
X121453858Y-108605381D01*
X121549096Y-108653000D01*
X121596715Y-108700619D01*
X121644334Y-108795857D01*
X121644334Y-108938714D01*
X121596715Y-109033952D01*
X121549096Y-109081571D01*
X121453858Y-109129190D01*
X121072905Y-109129190D01*
X122215762Y-109033952D02*
X122120524Y-108986333D01*
X122072905Y-108938714D01*
X122025286Y-108843476D01*
X122025286Y-108795857D01*
X122072905Y-108700619D01*
X122120524Y-108653000D01*
X122215762Y-108605381D01*
X122406239Y-108605381D01*
X122501477Y-108653000D01*
X122549096Y-108700619D01*
X122596715Y-108795857D01*
X122596715Y-108843476D01*
X122549096Y-108938714D01*
X122501477Y-108986333D01*
X122406239Y-109033952D01*
X122215762Y-109033952D01*
X122120524Y-109081571D01*
X122072905Y-109129190D01*
X122025286Y-109224429D01*
X122025286Y-109414905D01*
X122072905Y-109510143D01*
X122120524Y-109557762D01*
X122215762Y-109605381D01*
X122406239Y-109605381D01*
X122501477Y-109557762D01*
X122549096Y-109510143D01*
X122596715Y-109414905D01*
X122596715Y-109224429D01*
X122549096Y-109129190D01*
X122501477Y-109081571D01*
X122406239Y-109033952D01*
X121397714Y-79304667D02*
X121873905Y-79304667D01*
X121302476Y-79590381D02*
X121635809Y-78590381D01*
X121969143Y-79590381D01*
X122302476Y-79590381D02*
X122302476Y-78590381D01*
X122540571Y-78590381D01*
X122683429Y-78638000D01*
X122778667Y-78733238D01*
X122826286Y-78828476D01*
X122873905Y-79018952D01*
X122873905Y-79161810D01*
X122826286Y-79352286D01*
X122778667Y-79447524D01*
X122683429Y-79542762D01*
X122540571Y-79590381D01*
X122302476Y-79590381D01*
X123873905Y-79495143D02*
X123826286Y-79542762D01*
X123683429Y-79590381D01*
X123588191Y-79590381D01*
X123445333Y-79542762D01*
X123350095Y-79447524D01*
X123302476Y-79352286D01*
X123254857Y-79161810D01*
X123254857Y-79018952D01*
X123302476Y-78828476D01*
X123350095Y-78733238D01*
X123445333Y-78638000D01*
X123588191Y-78590381D01*
X123683429Y-78590381D01*
X123826286Y-78638000D01*
X123873905Y-78685619D01*
X124826286Y-79590381D02*
X124254857Y-79590381D01*
X124540571Y-79590381D02*
X124540571Y-78590381D01*
X124445333Y-78733238D01*
X124350095Y-78828476D01*
X124254857Y-78876095D01*
X128001714Y-79304667D02*
X128477905Y-79304667D01*
X127906476Y-79590381D02*
X128239809Y-78590381D01*
X128573143Y-79590381D01*
X128906476Y-79590381D02*
X128906476Y-78590381D01*
X129144571Y-78590381D01*
X129287429Y-78638000D01*
X129382667Y-78733238D01*
X129430286Y-78828476D01*
X129477905Y-79018952D01*
X129477905Y-79161810D01*
X129430286Y-79352286D01*
X129382667Y-79447524D01*
X129287429Y-79542762D01*
X129144571Y-79590381D01*
X128906476Y-79590381D01*
X130477905Y-79495143D02*
X130430286Y-79542762D01*
X130287429Y-79590381D01*
X130192191Y-79590381D01*
X130049333Y-79542762D01*
X129954095Y-79447524D01*
X129906476Y-79352286D01*
X129858857Y-79161810D01*
X129858857Y-79018952D01*
X129906476Y-78828476D01*
X129954095Y-78733238D01*
X130049333Y-78638000D01*
X130192191Y-78590381D01*
X130287429Y-78590381D01*
X130430286Y-78638000D01*
X130477905Y-78685619D01*
X130858857Y-78685619D02*
X130906476Y-78638000D01*
X131001714Y-78590381D01*
X131239810Y-78590381D01*
X131335048Y-78638000D01*
X131382667Y-78685619D01*
X131430286Y-78780857D01*
X131430286Y-78876095D01*
X131382667Y-79018952D01*
X130811238Y-79590381D01*
X131430286Y-79590381D01*
X122364714Y-70726667D02*
X122840905Y-70726667D01*
X122269476Y-71012381D02*
X122602809Y-70012381D01*
X122936143Y-71012381D01*
X123269476Y-71012381D02*
X123269476Y-70012381D01*
X123507571Y-70012381D01*
X123650429Y-70060000D01*
X123745667Y-70155238D01*
X123793286Y-70250476D01*
X123840905Y-70440952D01*
X123840905Y-70583810D01*
X123793286Y-70774286D01*
X123745667Y-70869524D01*
X123650429Y-70964762D01*
X123507571Y-71012381D01*
X123269476Y-71012381D01*
X124840905Y-70917143D02*
X124793286Y-70964762D01*
X124650429Y-71012381D01*
X124555191Y-71012381D01*
X124412333Y-70964762D01*
X124317095Y-70869524D01*
X124269476Y-70774286D01*
X124221857Y-70583810D01*
X124221857Y-70440952D01*
X124269476Y-70250476D01*
X124317095Y-70155238D01*
X124412333Y-70060000D01*
X124555191Y-70012381D01*
X124650429Y-70012381D01*
X124793286Y-70060000D01*
X124840905Y-70107619D01*
X125174238Y-70012381D02*
X125793286Y-70012381D01*
X125459952Y-70393333D01*
X125602810Y-70393333D01*
X125698048Y-70440952D01*
X125745667Y-70488571D01*
X125793286Y-70583810D01*
X125793286Y-70821905D01*
X125745667Y-70917143D01*
X125698048Y-70964762D01*
X125602810Y-71012381D01*
X125317095Y-71012381D01*
X125221857Y-70964762D01*
X125174238Y-70917143D01*
X127747714Y-69398667D02*
X128223905Y-69398667D01*
X127652476Y-69684381D02*
X127985809Y-68684381D01*
X128319143Y-69684381D01*
X128652476Y-69684381D02*
X128652476Y-68684381D01*
X128890571Y-68684381D01*
X129033429Y-68732000D01*
X129128667Y-68827238D01*
X129176286Y-68922476D01*
X129223905Y-69112952D01*
X129223905Y-69255810D01*
X129176286Y-69446286D01*
X129128667Y-69541524D01*
X129033429Y-69636762D01*
X128890571Y-69684381D01*
X128652476Y-69684381D01*
X130223905Y-69589143D02*
X130176286Y-69636762D01*
X130033429Y-69684381D01*
X129938191Y-69684381D01*
X129795333Y-69636762D01*
X129700095Y-69541524D01*
X129652476Y-69446286D01*
X129604857Y-69255810D01*
X129604857Y-69112952D01*
X129652476Y-68922476D01*
X129700095Y-68827238D01*
X129795333Y-68732000D01*
X129938191Y-68684381D01*
X130033429Y-68684381D01*
X130176286Y-68732000D01*
X130223905Y-68779619D01*
X131081048Y-69017714D02*
X131081048Y-69684381D01*
X130842952Y-68636762D02*
X130604857Y-69351048D01*
X131223905Y-69351048D01*
X188960333Y-84347381D02*
X188960333Y-83347381D01*
X189198428Y-83347381D01*
X189341286Y-83395000D01*
X189436524Y-83490238D01*
X189484143Y-83585476D01*
X189531762Y-83775952D01*
X189531762Y-83918810D01*
X189484143Y-84109286D01*
X189436524Y-84204524D01*
X189341286Y-84299762D01*
X189198428Y-84347381D01*
X188960333Y-84347381D01*
X189912714Y-84061667D02*
X190388905Y-84061667D01*
X189817476Y-84347381D02*
X190150809Y-83347381D01*
X190484143Y-84347381D01*
X191388905Y-84252143D02*
X191341286Y-84299762D01*
X191198429Y-84347381D01*
X191103191Y-84347381D01*
X190960333Y-84299762D01*
X190865095Y-84204524D01*
X190817476Y-84109286D01*
X190769857Y-83918810D01*
X190769857Y-83775952D01*
X190817476Y-83585476D01*
X190865095Y-83490238D01*
X190960333Y-83395000D01*
X191103191Y-83347381D01*
X191198429Y-83347381D01*
X191341286Y-83395000D01*
X191388905Y-83442619D01*
X192341286Y-84347381D02*
X191769857Y-84347381D01*
X192055571Y-84347381D02*
X192055571Y-83347381D01*
X191960333Y-83490238D01*
X191865095Y-83585476D01*
X191769857Y-83633095D01*
X173991524Y-88686762D02*
X174134381Y-88734381D01*
X174372477Y-88734381D01*
X174467715Y-88686762D01*
X174515334Y-88639143D01*
X174562953Y-88543905D01*
X174562953Y-88448667D01*
X174515334Y-88353429D01*
X174467715Y-88305810D01*
X174372477Y-88258190D01*
X174182000Y-88210571D01*
X174086762Y-88162952D01*
X174039143Y-88115333D01*
X173991524Y-88020095D01*
X173991524Y-87924857D01*
X174039143Y-87829619D01*
X174086762Y-87782000D01*
X174182000Y-87734381D01*
X174420096Y-87734381D01*
X174562953Y-87782000D01*
X175562953Y-88639143D02*
X175515334Y-88686762D01*
X175372477Y-88734381D01*
X175277239Y-88734381D01*
X175134381Y-88686762D01*
X175039143Y-88591524D01*
X174991524Y-88496286D01*
X174943905Y-88305810D01*
X174943905Y-88162952D01*
X174991524Y-87972476D01*
X175039143Y-87877238D01*
X175134381Y-87782000D01*
X175277239Y-87734381D01*
X175372477Y-87734381D01*
X175515334Y-87782000D01*
X175562953Y-87829619D01*
X176467715Y-88734381D02*
X175991524Y-88734381D01*
X175991524Y-87734381D01*
X178031714Y-88686762D02*
X178174571Y-88734381D01*
X178412667Y-88734381D01*
X178507905Y-88686762D01*
X178555524Y-88639143D01*
X178603143Y-88543905D01*
X178603143Y-88448667D01*
X178555524Y-88353429D01*
X178507905Y-88305810D01*
X178412667Y-88258190D01*
X178222190Y-88210571D01*
X178126952Y-88162952D01*
X178079333Y-88115333D01*
X178031714Y-88020095D01*
X178031714Y-87924857D01*
X178079333Y-87829619D01*
X178126952Y-87782000D01*
X178222190Y-87734381D01*
X178460286Y-87734381D01*
X178603143Y-87782000D01*
X179031714Y-88734381D02*
X179031714Y-87734381D01*
X179269809Y-87734381D01*
X179412667Y-87782000D01*
X179507905Y-87877238D01*
X179555524Y-87972476D01*
X179603143Y-88162952D01*
X179603143Y-88305810D01*
X179555524Y-88496286D01*
X179507905Y-88591524D01*
X179412667Y-88686762D01*
X179269809Y-88734381D01*
X179031714Y-88734381D01*
X179984095Y-88448667D02*
X180460286Y-88448667D01*
X179888857Y-88734381D02*
X180222190Y-87734381D01*
X180555524Y-88734381D01*
X168084524Y-113700381D02*
X167608333Y-113700381D01*
X167560714Y-114176571D01*
X167608333Y-114128952D01*
X167703571Y-114081333D01*
X167941667Y-114081333D01*
X168036905Y-114128952D01*
X168084524Y-114176571D01*
X168132143Y-114271810D01*
X168132143Y-114509905D01*
X168084524Y-114605143D01*
X168036905Y-114652762D01*
X167941667Y-114700381D01*
X167703571Y-114700381D01*
X167608333Y-114652762D01*
X167560714Y-114605143D01*
X168417857Y-113700381D02*
X168751190Y-114700381D01*
X169084524Y-113700381D01*
X147019905Y-114785381D02*
X147638953Y-114785381D01*
X147305619Y-115166333D01*
X147448477Y-115166333D01*
X147543715Y-115213952D01*
X147591334Y-115261571D01*
X147638953Y-115356810D01*
X147638953Y-115594905D01*
X147591334Y-115690143D01*
X147543715Y-115737762D01*
X147448477Y-115785381D01*
X147162762Y-115785381D01*
X147067524Y-115737762D01*
X147019905Y-115690143D01*
X147924667Y-114785381D02*
X148258000Y-115785381D01*
X148591334Y-114785381D01*
X148829429Y-114785381D02*
X149448477Y-114785381D01*
X149115143Y-115166333D01*
X149258001Y-115166333D01*
X149353239Y-115213952D01*
X149400858Y-115261571D01*
X149448477Y-115356810D01*
X149448477Y-115594905D01*
X149400858Y-115690143D01*
X149353239Y-115737762D01*
X149258001Y-115785381D01*
X148972286Y-115785381D01*
X148877048Y-115737762D01*
X148829429Y-115690143D01*
X168783096Y-70060000D02*
X168687858Y-70012381D01*
X168545001Y-70012381D01*
X168402143Y-70060000D01*
X168306905Y-70155238D01*
X168259286Y-70250476D01*
X168211667Y-70440952D01*
X168211667Y-70583810D01*
X168259286Y-70774286D01*
X168306905Y-70869524D01*
X168402143Y-70964762D01*
X168545001Y-71012381D01*
X168640239Y-71012381D01*
X168783096Y-70964762D01*
X168830715Y-70917143D01*
X168830715Y-70583810D01*
X168640239Y-70583810D01*
X169259286Y-71012381D02*
X169259286Y-70012381D01*
X169830715Y-71012381D01*
X169830715Y-70012381D01*
X170306905Y-71012381D02*
X170306905Y-70012381D01*
X170545000Y-70012381D01*
X170687858Y-70060000D01*
X170783096Y-70155238D01*
X170830715Y-70250476D01*
X170878334Y-70440952D01*
X170878334Y-70583810D01*
X170830715Y-70774286D01*
X170783096Y-70869524D01*
X170687858Y-70964762D01*
X170545000Y-71012381D01*
X170306905Y-71012381D01*
X141320667Y-108435381D02*
X141320667Y-109149667D01*
X141273047Y-109292524D01*
X141177809Y-109387762D01*
X141034952Y-109435381D01*
X140939714Y-109435381D01*
X142320667Y-109435381D02*
X141749238Y-109435381D01*
X142034952Y-109435381D02*
X142034952Y-108435381D01*
X141939714Y-108578238D01*
X141844476Y-108673476D01*
X141749238Y-108721095D01*
X142820905Y-69049381D02*
X142820905Y-68049381D01*
X143201858Y-68049381D01*
X143297096Y-68097000D01*
X143344715Y-68144619D01*
X143392334Y-68239857D01*
X143392334Y-68382714D01*
X143344715Y-68477952D01*
X143297096Y-68525571D01*
X143201858Y-68573190D01*
X142820905Y-68573190D01*
X143773286Y-68144619D02*
X143820905Y-68097000D01*
X143916143Y-68049381D01*
X144154239Y-68049381D01*
X144249477Y-68097000D01*
X144297096Y-68144619D01*
X144344715Y-68239857D01*
X144344715Y-68335095D01*
X144297096Y-68477952D01*
X143725667Y-69049381D01*
X144344715Y-69049381D01*
X182976667Y-68580381D02*
X182976667Y-69294667D01*
X182929047Y-69437524D01*
X182833809Y-69532762D01*
X182690952Y-69580381D01*
X182595714Y-69580381D01*
X183405238Y-68675619D02*
X183452857Y-68628000D01*
X183548095Y-68580381D01*
X183786191Y-68580381D01*
X183881429Y-68628000D01*
X183929048Y-68675619D01*
X183976667Y-68770857D01*
X183976667Y-68866095D01*
X183929048Y-69008952D01*
X183357619Y-69580381D01*
X183976667Y-69580381D01*
M02*
