G04 #@! TF.FileFunction,Soldermask,Top*
%FSLAX46Y46*%
G04 Gerber Fmt 4.6, Leading zero omitted, Abs format (unit mm)*
G04 Created by KiCad (PCBNEW 4.0.6-e0-6349~52~ubuntu17.04.1) date Sun Jul  9 19:13:45 2017*
%MOMM*%
%LPD*%
G01*
G04 APERTURE LIST*
%ADD10C,0.100000*%
%ADD11R,1.400000X1.400000*%
%ADD12R,3.400000X3.400000*%
%ADD13R,2.127200X2.127200*%
%ADD14O,2.127200X2.127200*%
%ADD15R,1.600000X1.600000*%
%ADD16R,2.300000X2.500000*%
%ADD17O,2.300000X2.500000*%
%ADD18C,3.600000*%
%ADD19C,1.400000*%
%ADD20O,1.650000X1.450000*%
%ADD21O,2.400000X1.800000*%
%ADD22R,2.500000X2.300000*%
G04 APERTURE END LIST*
D10*
D11*
X184912000Y-78180000D03*
D12*
X169545000Y-68020000D03*
D13*
X124476000Y-76222000D03*
D14*
X124476000Y-73682000D03*
X127016000Y-76222000D03*
X127016000Y-73682000D03*
X129556000Y-76222000D03*
X129556000Y-73682000D03*
D13*
X124476000Y-101222000D03*
D14*
X124476000Y-98682000D03*
X127016000Y-101222000D03*
X127016000Y-98682000D03*
X129556000Y-101222000D03*
X129556000Y-98682000D03*
D13*
X169476000Y-83922000D03*
D14*
X169476000Y-81382000D03*
X172016000Y-83922000D03*
X172016000Y-81382000D03*
X174556000Y-83922000D03*
X174556000Y-81382000D03*
X177096000Y-83922000D03*
X177096000Y-81382000D03*
X179636000Y-83922000D03*
X179636000Y-81382000D03*
X182176000Y-83922000D03*
X182176000Y-81382000D03*
X184716000Y-83922000D03*
X184716000Y-81382000D03*
D13*
X169476000Y-108922000D03*
D14*
X169476000Y-106382000D03*
X172016000Y-108922000D03*
X172016000Y-106382000D03*
X174556000Y-108922000D03*
X174556000Y-106382000D03*
X177096000Y-108922000D03*
X177096000Y-106382000D03*
X179636000Y-108922000D03*
X179636000Y-106382000D03*
X182176000Y-108922000D03*
X182176000Y-106382000D03*
X184716000Y-108922000D03*
X184716000Y-106382000D03*
D15*
X145415000Y-72508000D03*
X145415000Y-74708000D03*
X148717000Y-72508000D03*
X148717000Y-74708000D03*
X155067000Y-72508000D03*
X155067000Y-74708000D03*
X158115000Y-72508000D03*
X158115000Y-74708000D03*
X135286000Y-74792000D03*
X135286000Y-72592000D03*
X138461000Y-74792000D03*
X138461000Y-72592000D03*
D16*
X135921000Y-68612000D03*
D17*
X138461000Y-68612000D03*
X141001000Y-68612000D03*
D16*
X124636000Y-109237000D03*
D17*
X127176000Y-109237000D03*
X129716000Y-109237000D03*
D11*
X125222000Y-80720000D03*
X128143000Y-80720000D03*
X126873000Y-70560000D03*
X129413000Y-70560000D03*
X187833000Y-84022000D03*
X175895000Y-86816000D03*
X178181000Y-86816000D03*
X168275000Y-112724000D03*
X148209000Y-113740000D03*
D12*
X169545000Y-68020000D03*
D18*
X189476000Y-111222000D03*
X189476000Y-71222000D03*
X119476000Y-71222000D03*
X119476000Y-111222000D03*
D19*
X144635000Y-108983000D03*
X145885000Y-108983000D03*
X148385000Y-108983000D03*
X147135000Y-108983000D03*
D16*
X146226000Y-68597000D03*
D17*
X148766000Y-68597000D03*
X151306000Y-68597000D03*
D20*
X118861500Y-101370500D03*
X118861500Y-106220500D03*
D21*
X115936500Y-100195500D03*
X115936500Y-107395500D03*
D22*
X183310000Y-71518000D03*
M02*
