M48
;DRILL file {KiCad 4.0.6-e0-6349~52~ubuntu17.04.1} date Wed Jul  5 18:03:10 2017
;FORMAT={-:-/ absolute / metric / decimal}
FMAT,2
METRIC,TZ
T1C0.400
T2C0.650
T3C0.700
T4C0.825
T5C1.016
T6C1.200
%
G90
G05
M71
T1
X118.667Y-114.063
X119.873Y-67.391
X119.873Y-75.01
X119.873Y-77.55
X119.873Y-80.09
X119.873Y-82.63
X119.873Y-85.17
X119.873Y-90.251
X119.873Y-92.79
X119.873Y-95.331
X119.873Y-97.87
X119.873Y-100.41
X120.254Y-102.354
X121.207Y-114.063
X121.27Y-105.91
X122.35Y-96.283
X122.555Y-88.594
X122.731Y-83.329
X122.794Y-102.354
X123.747Y-114.063
X124.89Y-96.283
X125.271Y-83.329
X125.349Y-88.594
X125.588Y-104.64
X126.287Y-114.063
X127.666Y-92.742
X127.938Y-83.329
X128.129Y-104.64
X128.936Y-81.947
X129.843Y-83.329
X130.668Y-104.64
X131.621Y-98.569
X131.953Y-88.594
X132.111Y-92.742
X132.51Y-94.505
X132.891Y-83.329
X133.907Y-114.063
X134.225Y-107.18
X134.669Y-102.125
X134.669Y-104.665
X134.796Y-83.329
X134.971Y-86.757
X135.286Y-76.552
X135.286Y-78.452
X136.447Y-114.063
X136.701Y-98.569
X137.971Y-83.329
X138.461Y-76.552
X138.479Y-78.503
X138.606Y-109.872
X138.987Y-114.063
X139.241Y-98.569
X140.511Y-83.329
X141.001Y-92.742
X141.527Y-114.063
X141.781Y-98.569
X142.271Y-102.902
X142.975Y-94.081
X143.051Y-83.329
X143.432Y-68.47
X143.541Y-102.902
X144.067Y-114.063
X144.321Y-98.569
X145.446Y-74.835
X145.464Y-81.17
X146.607Y-114.063
X148.131Y-113.809
X148.512Y-82.821
X148.512Y-85.361
X148.512Y-90.441
X148.512Y-92.981
X148.512Y-95.521
X148.512Y-105.681
X148.512Y-110.761
X148.621Y-74.835
X149.02Y-100.601
X149.147Y-102.76
X149.274Y-98.696
X150.526Y-81.312
X150.526Y-90.202
X150.526Y-92.742
X150.526Y-94.012
X151.814Y-86.758
X152.83Y-96.283
X153.846Y-109.872
X154.227Y-114.063
X154.971Y-76.552
X154.971Y-78.452
X155.37Y-96.283
X156.132Y-68.47
X156.386Y-109.872
X156.767Y-114.063
X156.876Y-90.202
X157.91Y-96.283
X158.146Y-76.552
X158.146Y-78.452
X158.672Y-68.47
X158.926Y-109.872
X159.307Y-114.063
X160.894Y-76.915
X160.894Y-79.456
X160.894Y-81.995
X160.894Y-84.535
X160.894Y-87.075
X160.894Y-94.695
X160.894Y-102.316
X160.894Y-104.855
X160.894Y-107.395
X161.085Y-98.569
X161.212Y-68.47
X161.466Y-109.872
X161.847Y-114.063
X163.752Y-68.47
X164.387Y-114.063
X164.641Y-98.569
X164.973Y-100.532
X165.735Y-112.724
X166.292Y-68.47
X166.419Y-101.744
X166.546Y-109.872
X166.673Y-91.203
X167.435Y-76.471
X167.435Y-98.569
X167.498Y-72.09
X167.498Y-79.709
X167.498Y-82.249
X167.498Y-84.789
X167.498Y-105.109
X167.498Y-107.649
X168.07Y-96.283
X168.451Y-89.933
X168.832Y-68.47
X169.449Y-75.978
X169.721Y-98.569
X170.61Y-96.283
X171.323Y-89.102
X171.372Y-68.47
X171.626Y-94.378
X171.753Y-97.553
X172.261Y-98.569
X173.912Y-68.47
X174.625Y-101.802
X176.149Y-101.802
X176.452Y-68.47
X177.087Y-114.063
X177.214Y-91.203
X177.341Y-98.569
X178.23Y-96.283
X178.992Y-68.47
X179.627Y-90.441
X179.627Y-114.063
X179.881Y-98.569
X180.516Y-75.963
X181.532Y-68.47
X182.167Y-90.441
X183.31Y-96.283
X184.072Y-68.47
X184.326Y-98.569
X184.707Y-114.063
X186.612Y-68.47
X187.247Y-71.899
X187.247Y-76.979
X187.247Y-79.519
X187.247Y-87.139
X187.247Y-89.679
X187.247Y-92.219
X187.247Y-95.521
X187.247Y-99.839
X187.247Y-102.379
X187.247Y-112.539
X187.247Y-115.079
X189.152Y-76.852
X189.769Y-107.22
X190.041Y-98.569
X191.547Y-100.108
X191.946Y-109.872
X192.581Y-98.569
T3
X144.635Y-108.983
X145.885Y-108.983
X147.135Y-108.983
X148.385Y-108.983
T5
X124.476Y-73.682
X124.476Y-76.222
X124.476Y-98.682
X124.476Y-101.222
X127.016Y-73.682
X127.016Y-76.222
X127.016Y-98.682
X127.016Y-101.222
X129.556Y-73.682
X129.556Y-76.222
X129.556Y-98.682
X129.556Y-101.222
X169.476Y-81.382
X169.476Y-83.922
X169.476Y-106.382
X169.476Y-108.922
X172.016Y-81.382
X172.016Y-83.922
X172.016Y-106.382
X172.016Y-108.922
X174.556Y-81.382
X174.556Y-83.922
X174.556Y-106.382
X174.556Y-108.922
X177.096Y-81.382
X177.096Y-83.922
X177.096Y-106.382
X177.096Y-108.922
X179.636Y-81.382
X179.636Y-83.922
X179.636Y-106.382
X179.636Y-108.922
X182.176Y-81.382
X182.176Y-83.922
X182.176Y-106.382
X182.176Y-108.922
X184.716Y-81.382
X184.716Y-83.922
X184.716Y-106.382
X184.716Y-108.922
T6
X124.636Y-109.237
X127.176Y-109.237
X129.716Y-109.237
X135.921Y-68.612
X138.461Y-68.612
X141.001Y-68.612
X146.226Y-68.597
X148.766Y-68.597
X151.306Y-68.597
X183.31Y-71.518
T2
X118.761Y-101.37G85X118.962Y-101.37
G05
X118.761Y-106.221G85X118.962Y-106.221
G05
T4
X115.599Y-100.195G85X116.274Y-100.195
G05
X115.599Y-107.395G85X116.274Y-107.395
G05
T0
M30
