solid OpenSCAD_Model
  facet normal -1 0 0
    outer loop
      vertex -31.44 0 7.62939e-07
      vertex -31.44 14 6.6
      vertex -31.44 14 7.62939e-07
    endloop
  endfacet
  facet normal -1 -0 0
    outer loop
      vertex -31.44 14 6.6
      vertex -31.44 0 7.62939e-07
      vertex -31.44 0 6.6
    endloop
  endfacet
  facet normal -0 0 1
    outer loop
      vertex -31.44 14 6.6
      vertex -8.7738e-07 0 6.6
      vertex -8.7738e-07 14 6.6
    endloop
  endfacet
  facet normal 0 0 1
    outer loop
      vertex -8.7738e-07 0 6.6
      vertex -31.44 14 6.6
      vertex -31.44 0 6.6
    endloop
  endfacet
  facet normal 1 -0 0
    outer loop
      vertex -8.7738e-07 0 6.6
      vertex -8.7738e-07 14 7.62939e-07
      vertex -8.7738e-07 14 6.6
    endloop
  endfacet
  facet normal 1 0 0
    outer loop
      vertex -8.7738e-07 14 7.62939e-07
      vertex -8.7738e-07 0 6.6
      vertex -8.7738e-07 0 7.62939e-07
    endloop
  endfacet
  facet normal 0 1 0
    outer loop
      vertex -8.7738e-07 14 6.6
      vertex -2.62 14 4.4
      vertex -31.44 14 6.6
    endloop
  endfacet
  facet normal 0 1 0
    outer loop
      vertex -8.7738e-07 14 6.6
      vertex -2.62 14 2.2
      vertex -2.62 14 4.4
    endloop
  endfacet
  facet normal 0 1 0
    outer loop
      vertex -2.62 14 2.2
      vertex -8.7738e-07 14 7.62939e-07
      vertex -28.82 14 2.2
    endloop
  endfacet
  facet normal 0 1 -0
    outer loop
      vertex -8.7738e-07 14 7.62939e-07
      vertex -2.62 14 2.2
      vertex -8.7738e-07 14 6.6
    endloop
  endfacet
  facet normal 0 1 -0
    outer loop
      vertex -28.82 14 4.4
      vertex -31.44 14 6.6
      vertex -2.62 14 4.4
    endloop
  endfacet
  facet normal 0 1 -0
    outer loop
      vertex -28.82 14 2.2
      vertex -31.44 14 6.6
      vertex -28.82 14 4.4
    endloop
  endfacet
  facet normal 0 1 0
    outer loop
      vertex -28.82 14 2.2
      vertex -31.44 14 7.62939e-07
      vertex -31.44 14 6.6
    endloop
  endfacet
  facet normal 0 1 0
    outer loop
      vertex -31.44 14 7.62939e-07
      vertex -28.82 14 2.2
      vertex -8.7738e-07 14 7.62939e-07
    endloop
  endfacet
  facet normal 0 0 -1
    outer loop
      vertex -31.44 0 7.62939e-07
      vertex -8.7738e-07 14 7.62939e-07
      vertex -8.7738e-07 0 7.62939e-07
    endloop
  endfacet
  facet normal -0 0 -1
    outer loop
      vertex -8.7738e-07 14 7.62939e-07
      vertex -31.44 0 7.62939e-07
      vertex -31.44 14 7.62939e-07
    endloop
  endfacet
  facet normal -1 0 0
    outer loop
      vertex -41.92 -14 -3.3
      vertex -41.92 0 9.9
      vertex -41.92 0 -3.3
    endloop
  endfacet
  facet normal -1 -0 0
    outer loop
      vertex -41.92 0 9.9
      vertex -41.92 -14 -3.3
      vertex -41.92 -14 9.9
    endloop
  endfacet
  facet normal -0 0 1
    outer loop
      vertex -41.92 0 9.9
      vertex 10.48 -14 9.9
      vertex 10.48 0 9.9
    endloop
  endfacet
  facet normal 0 0 1
    outer loop
      vertex 10.48 -14 9.9
      vertex -41.92 0 9.9
      vertex -41.92 -14 9.9
    endloop
  endfacet
  facet normal 1 -0 0
    outer loop
      vertex 10.48 -14 9.9
      vertex 10.48 0 -3.3
      vertex 10.48 0 9.9
    endloop
  endfacet
  facet normal 1 0 0
    outer loop
      vertex 10.48 0 -3.3
      vertex 10.48 -14 9.9
      vertex 10.48 -14 -3.3
    endloop
  endfacet
  facet normal 0 0 -1
    outer loop
      vertex -41.92 -14 -3.3
      vertex 10.48 0 -3.3
      vertex 10.48 -14 -3.3
    endloop
  endfacet
  facet normal -0 0 -1
    outer loop
      vertex 10.48 0 -3.3
      vertex -41.92 -14 -3.3
      vertex -41.92 0 -3.3
    endloop
  endfacet
  facet normal 0 -1 0
    outer loop
      vertex -41.92 -14 -3.3
      vertex 10.48 -14 9.9
      vertex -41.92 -14 9.9
    endloop
  endfacet
  facet normal 0 -1 -0
    outer loop
      vertex 10.48 -14 9.9
      vertex -41.92 -14 -3.3
      vertex 10.48 -14 -3.3
    endloop
  endfacet
  facet normal 0 1 0
    outer loop
      vertex 10.48 0 9.9
      vertex -8.7738e-07 0 6.6
      vertex -41.92 0 9.9
    endloop
  endfacet
  facet normal 0 1 0
    outer loop
      vertex 10.48 0 9.9
      vertex -8.7738e-07 0 7.62939e-07
      vertex -8.7738e-07 0 6.6
    endloop
  endfacet
  facet normal 0 1 0
    outer loop
      vertex -8.7738e-07 0 7.62939e-07
      vertex 10.48 0 -3.3
      vertex -31.44 0 7.62939e-07
    endloop
  endfacet
  facet normal 0 1 -0
    outer loop
      vertex 10.48 0 -3.3
      vertex -8.7738e-07 0 7.62939e-07
      vertex 10.48 0 9.9
    endloop
  endfacet
  facet normal 0 1 -0
    outer loop
      vertex -31.44 0 6.6
      vertex -41.92 0 9.9
      vertex -8.7738e-07 0 6.6
    endloop
  endfacet
  facet normal 0 1 -0
    outer loop
      vertex -31.44 0 7.62939e-07
      vertex -41.92 0 9.9
      vertex -31.44 0 6.6
    endloop
  endfacet
  facet normal 0 1 0
    outer loop
      vertex -31.44 0 7.62939e-07
      vertex -41.92 0 -3.3
      vertex -41.92 0 9.9
    endloop
  endfacet
  facet normal 0 1 0
    outer loop
      vertex -41.92 0 -3.3
      vertex -31.44 0 7.62939e-07
      vertex 10.48 0 -3.3
    endloop
  endfacet
  facet normal 1 -0 0
    outer loop
      vertex -28.82 11 4.4
      vertex -28.82 14 2.2
      vertex -28.82 14 4.4
    endloop
  endfacet
  facet normal 1 0 0
    outer loop
      vertex -28.82 14 2.2
      vertex -28.82 11 4.4
      vertex -28.82 11 2.2
    endloop
  endfacet
  facet normal 0 0 -1
    outer loop
      vertex -28.82 11 4.4
      vertex -2.62 14 4.4
      vertex -2.62 11 4.4
    endloop
  endfacet
  facet normal -0 0 -1
    outer loop
      vertex -2.62 14 4.4
      vertex -28.82 11 4.4
      vertex -28.82 14 4.4
    endloop
  endfacet
  facet normal -1 0 0
    outer loop
      vertex -2.62 11 2.2
      vertex -2.62 14 4.4
      vertex -2.62 14 2.2
    endloop
  endfacet
  facet normal -1 -0 0
    outer loop
      vertex -2.62 14 4.4
      vertex -2.62 11 2.2
      vertex -2.62 11 4.4
    endloop
  endfacet
  facet normal -0 0 1
    outer loop
      vertex -28.82 14 2.2
      vertex -2.62 11 2.2
      vertex -2.62 14 2.2
    endloop
  endfacet
  facet normal 0 0 1
    outer loop
      vertex -2.62 11 2.2
      vertex -28.82 14 2.2
      vertex -28.82 11 2.2
    endloop
  endfacet
  facet normal 0 1 -0
    outer loop
      vertex -2.62 11 2.2
      vertex -28.82 11 4.4
      vertex -2.62 11 4.4
    endloop
  endfacet
  facet normal 0 1 0
    outer loop
      vertex -28.82 11 4.4
      vertex -2.62 11 2.2
      vertex -28.82 11 2.2
    endloop
  endfacet
endsolid OpenSCAD_Model
