solid OpenSCAD_Model
  facet normal -1 0 0
    outer loop
      vertex -31.8 0 0
      vertex -31.8 14 7.5
      vertex -31.8 14 0
    endloop
  endfacet
  facet normal -1 -0 0
    outer loop
      vertex -31.8 14 7.5
      vertex -31.8 0 0
      vertex -31.8 0 7.5
    endloop
  endfacet
  facet normal -0 0 1
    outer loop
      vertex -31.8 14 7.5
      vertex -3.8147e-07 0 7.5
      vertex -3.8147e-07 14 7.5
    endloop
  endfacet
  facet normal 0 0 1
    outer loop
      vertex -3.8147e-07 0 7.5
      vertex -31.8 14 7.5
      vertex -31.8 0 7.5
    endloop
  endfacet
  facet normal 1 -0 0
    outer loop
      vertex -3.8147e-07 0 7.5
      vertex -3.8147e-07 14 0
      vertex -3.8147e-07 14 7.5
    endloop
  endfacet
  facet normal 1 0 0
    outer loop
      vertex -3.8147e-07 14 0
      vertex -3.8147e-07 0 7.5
      vertex -3.8147e-07 0 0
    endloop
  endfacet
  facet normal 0 1 0
    outer loop
      vertex -3.8147e-07 14 7.5
      vertex -2.65 14 5
      vertex -31.8 14 7.5
    endloop
  endfacet
  facet normal 0 1 0
    outer loop
      vertex -3.8147e-07 14 7.5
      vertex -2.65 14 2.5
      vertex -2.65 14 5
    endloop
  endfacet
  facet normal 0 1 0
    outer loop
      vertex -2.65 14 2.5
      vertex -3.8147e-07 14 0
      vertex -29.15 14 2.5
    endloop
  endfacet
  facet normal 0 1 -0
    outer loop
      vertex -3.8147e-07 14 0
      vertex -2.65 14 2.5
      vertex -3.8147e-07 14 7.5
    endloop
  endfacet
  facet normal 0 1 -0
    outer loop
      vertex -29.15 14 5
      vertex -31.8 14 7.5
      vertex -2.65 14 5
    endloop
  endfacet
  facet normal 0 1 -0
    outer loop
      vertex -29.15 14 2.5
      vertex -31.8 14 7.5
      vertex -29.15 14 5
    endloop
  endfacet
  facet normal 0 1 0
    outer loop
      vertex -29.15 14 2.5
      vertex -31.8 14 0
      vertex -31.8 14 7.5
    endloop
  endfacet
  facet normal 0 1 0
    outer loop
      vertex -31.8 14 0
      vertex -29.15 14 2.5
      vertex -3.8147e-07 14 0
    endloop
  endfacet
  facet normal 0 0 -1
    outer loop
      vertex -31.8 0 0
      vertex -3.8147e-07 14 0
      vertex -3.8147e-07 0 0
    endloop
  endfacet
  facet normal -0 0 -1
    outer loop
      vertex -3.8147e-07 14 0
      vertex -31.8 0 0
      vertex -31.8 14 0
    endloop
  endfacet
  facet normal -1 0 0
    outer loop
      vertex -42.4 -14 -3.75
      vertex -42.4 0 11.25
      vertex -42.4 0 -3.75
    endloop
  endfacet
  facet normal -1 -0 0
    outer loop
      vertex -42.4 0 11.25
      vertex -42.4 -14 -3.75
      vertex -42.4 -14 11.25
    endloop
  endfacet
  facet normal -0 0 1
    outer loop
      vertex -42.4 0 11.25
      vertex 10.6 -14 11.25
      vertex 10.6 0 11.25
    endloop
  endfacet
  facet normal 0 0 1
    outer loop
      vertex 10.6 -14 11.25
      vertex -42.4 0 11.25
      vertex -42.4 -14 11.25
    endloop
  endfacet
  facet normal 1 -0 0
    outer loop
      vertex 10.6 -14 11.25
      vertex 10.6 0 -3.75
      vertex 10.6 0 11.25
    endloop
  endfacet
  facet normal 1 0 0
    outer loop
      vertex 10.6 0 -3.75
      vertex 10.6 -14 11.25
      vertex 10.6 -14 -3.75
    endloop
  endfacet
  facet normal 0 1 0
    outer loop
      vertex 10.6 0 11.25
      vertex -3.8147e-07 0 7.5
      vertex -42.4 0 11.25
    endloop
  endfacet
  facet normal 0 1 0
    outer loop
      vertex 10.6 0 11.25
      vertex -3.8147e-07 0 0
      vertex -3.8147e-07 0 7.5
    endloop
  endfacet
  facet normal 0 1 0
    outer loop
      vertex -3.8147e-07 0 0
      vertex 10.6 0 -3.75
      vertex -31.8 0 0
    endloop
  endfacet
  facet normal 0 1 -0
    outer loop
      vertex 10.6 0 -3.75
      vertex -3.8147e-07 0 0
      vertex 10.6 0 11.25
    endloop
  endfacet
  facet normal 0 1 -0
    outer loop
      vertex -31.8 0 7.5
      vertex -42.4 0 11.25
      vertex -3.8147e-07 0 7.5
    endloop
  endfacet
  facet normal 0 1 -0
    outer loop
      vertex -31.8 0 0
      vertex -42.4 0 11.25
      vertex -31.8 0 7.5
    endloop
  endfacet
  facet normal 0 1 0
    outer loop
      vertex -31.8 0 0
      vertex -42.4 0 -3.75
      vertex -42.4 0 11.25
    endloop
  endfacet
  facet normal 0 1 0
    outer loop
      vertex -42.4 0 -3.75
      vertex -31.8 0 0
      vertex 10.6 0 -3.75
    endloop
  endfacet
  facet normal 0 0 -1
    outer loop
      vertex -42.4 -14 -3.75
      vertex 10.6 0 -3.75
      vertex 10.6 -14 -3.75
    endloop
  endfacet
  facet normal -0 0 -1
    outer loop
      vertex 10.6 0 -3.75
      vertex -42.4 -14 -3.75
      vertex -42.4 0 -3.75
    endloop
  endfacet
  facet normal 0 -1 0
    outer loop
      vertex -42.4 -14 -3.75
      vertex 10.6 -14 11.25
      vertex -42.4 -14 11.25
    endloop
  endfacet
  facet normal 0 -1 -0
    outer loop
      vertex 10.6 -14 11.25
      vertex -42.4 -14 -3.75
      vertex 10.6 -14 -3.75
    endloop
  endfacet
  facet normal 1 -0 0
    outer loop
      vertex -29.15 11 5
      vertex -29.15 14 2.5
      vertex -29.15 14 5
    endloop
  endfacet
  facet normal 1 0 0
    outer loop
      vertex -29.15 14 2.5
      vertex -29.15 11 5
      vertex -29.15 11 2.5
    endloop
  endfacet
  facet normal 0 0 -1
    outer loop
      vertex -29.15 11 5
      vertex -2.65 14 5
      vertex -2.65 11 5
    endloop
  endfacet
  facet normal -0 0 -1
    outer loop
      vertex -2.65 14 5
      vertex -29.15 11 5
      vertex -29.15 14 5
    endloop
  endfacet
  facet normal -1 0 0
    outer loop
      vertex -2.65 11 2.5
      vertex -2.65 14 5
      vertex -2.65 14 2.5
    endloop
  endfacet
  facet normal -1 -0 0
    outer loop
      vertex -2.65 14 5
      vertex -2.65 11 2.5
      vertex -2.65 11 5
    endloop
  endfacet
  facet normal -0 0 1
    outer loop
      vertex -29.15 14 2.5
      vertex -2.65 11 2.5
      vertex -2.65 14 2.5
    endloop
  endfacet
  facet normal 0 0 1
    outer loop
      vertex -2.65 11 2.5
      vertex -29.15 14 2.5
      vertex -29.15 11 2.5
    endloop
  endfacet
  facet normal 0 1 -0
    outer loop
      vertex -2.65 11 2.5
      vertex -29.15 11 5
      vertex -2.65 11 5
    endloop
  endfacet
  facet normal 0 1 0
    outer loop
      vertex -29.15 11 5
      vertex -2.65 11 2.5
      vertex -29.15 11 2.5
    endloop
  endfacet
endsolid OpenSCAD_Model
