solid OpenSCAD_Model
  facet normal -0.992709 -0.120536 0
    outer loop
      vertex 0.232465 6.08547 0
      vertex 0 8 50
      vertex 0 8 0
    endloop
  endfacet
  facet normal -0.992709 -0.120536 0
    outer loop
      vertex 0 8 50
      vertex 0.232465 6.08547 0
      vertex 0.232465 6.08547 50
    endloop
  endfacet
  facet normal -0.464723 0.885456 0
    outer loop
      vertex 5.16316 61.4801 0
      vertex 3.45548 60.5839 50
      vertex 5.16316 61.4801 50
    endloop
  endfacet
  facet normal -0.464723 0.885456 0
    outer loop
      vertex 3.45548 60.5839 50
      vertex 5.16316 61.4801 0
      vertex 3.45548 60.5839 0
    endloop
  endfacet
  facet normal 0.992709 0.120538 0
    outer loop
      vertex 92 54 50
      vertex 91.7675 55.9145 0
      vertex 91.7675 55.9145 50
    endloop
  endfacet
  facet normal 0.992709 0.120538 0
    outer loop
      vertex 91.7675 55.9145 0
      vertex 92 54 50
      vertex 92 54 0
    endloop
  endfacet
  facet normal 0 -1 0
    outer loop
      vertex 7.03571 0.0583286 0
      vertex 84.9643 0.0583286 50
      vertex 7.03571 0.0583286 50
    endloop
  endfacet
  facet normal 0 -1 -0
    outer loop
      vertex 84.9643 0.0583286 50
      vertex 7.03571 0.0583286 0
      vertex 84.9643 0.0583286 0
    endloop
  endfacet
  facet normal -0.992709 0.120536 0
    outer loop
      vertex 0 54 0
      vertex 0.232465 55.9145 50
      vertex 0.232465 55.9145 0
    endloop
  endfacet
  facet normal -0.992709 0.120536 0
    outer loop
      vertex 0.232465 55.9145 50
      vertex 0 54 0
      vertex 0 54 50
    endloop
  endfacet
  facet normal 0 0 -1
    outer loop
      vertex 84.9643 0.0583286 0
      vertex 92 8 0
      vertex 91.7675 6.08547 0
    endloop
  endfacet
  facet normal -0 0 -1
    outer loop
      vertex 92 8 0
      vertex 84.9643 0.0583286 0
      vertex 92 54 0
    endloop
  endfacet
  facet normal 0 0 -1
    outer loop
      vertex 84.9643 0.0583286 0
      vertex 91.7675 6.08547 0
      vertex 91.0836 4.28221 0
    endloop
  endfacet
  facet normal 0 0 -1
    outer loop
      vertex 84.9643 61.9417 0
      vertex 92 54 0
      vertex 84.9643 0.0583286 0
    endloop
  endfacet
  facet normal 0 0 -1
    outer loop
      vertex 84.9643 0.0583286 0
      vertex 91.0836 4.28221 0
      vertex 89.9881 2.69502 0
    endloop
  endfacet
  facet normal 0 0 -1
    outer loop
      vertex 92 54 0
      vertex 84.9643 61.9417 0
      vertex 91.7675 55.9145 0
    endloop
  endfacet
  facet normal 0 0 -1
    outer loop
      vertex 84.9643 0.0583286 0
      vertex 89.9881 2.69502 0
      vertex 88.5445 1.41613 0
    endloop
  endfacet
  facet normal 0 0 -1
    outer loop
      vertex 91.7675 55.9145 0
      vertex 84.9643 61.9417 0
      vertex 91.0836 57.7178 0
    endloop
  endfacet
  facet normal 0 0 -1
    outer loop
      vertex 84.9643 0.0583286 0
      vertex 88.5445 1.41613 0
      vertex 86.8368 0.51987 0
    endloop
  endfacet
  facet normal 0 0 -1
    outer loop
      vertex 91.0836 57.7178 0
      vertex 84.9643 61.9417 0
      vertex 89.9881 59.305 0
    endloop
  endfacet
  facet normal 0 0 -1
    outer loop
      vertex 89.9881 59.305 0
      vertex 84.9643 61.9417 0
      vertex 88.5445 60.5839 0
    endloop
  endfacet
  facet normal 0 0 -1
    outer loop
      vertex 88.5445 60.5839 0
      vertex 84.9643 61.9417 0
      vertex 86.8368 61.4801 0
    endloop
  endfacet
  facet normal 0 0 -1
    outer loop
      vertex 7.03571 0.0583286 0
      vertex 84.9643 61.9417 0
      vertex 84.9643 0.0583286 0
    endloop
  endfacet
  facet normal 0 0 -1
    outer loop
      vertex 7.03571 0.0583286 0
      vertex 7.03571 61.9417 0
      vertex 84.9643 61.9417 0
    endloop
  endfacet
  facet normal 0 0 -1
    outer loop
      vertex 0 8 0
      vertex 7.03571 0.0583286 0
      vertex 5.16316 0.51987 0
    endloop
  endfacet
  facet normal 0 0 -1
    outer loop
      vertex 7.03571 0.0583286 0
      vertex 0 8 0
      vertex 7.03571 61.9417 0
    endloop
  endfacet
  facet normal 0 0 -1
    outer loop
      vertex 0 8 0
      vertex 5.16316 0.51987 0
      vertex 3.45548 1.41613 0
    endloop
  endfacet
  facet normal 0 0 -1
    outer loop
      vertex 0 54 0
      vertex 7.03571 61.9417 0
      vertex 0 8 0
    endloop
  endfacet
  facet normal 0 0 -1
    outer loop
      vertex 0 8 0
      vertex 3.45548 1.41613 0
      vertex 2.01191 2.69502 0
    endloop
  endfacet
  facet normal 0 0 -1
    outer loop
      vertex 7.03571 61.9417 0
      vertex 0 54 0
      vertex 5.16316 61.4801 0
    endloop
  endfacet
  facet normal 0 0 -1
    outer loop
      vertex 0 8 0
      vertex 2.01191 2.69502 0
      vertex 0.916351 4.28221 0
    endloop
  endfacet
  facet normal 0 0 -1
    outer loop
      vertex 5.16316 61.4801 0
      vertex 0 54 0
      vertex 3.45548 60.5839 0
    endloop
  endfacet
  facet normal 0 0 -1
    outer loop
      vertex 0 8 0
      vertex 0.916351 4.28221 0
      vertex 0.232465 6.08547 0
    endloop
  endfacet
  facet normal 0 0 -1
    outer loop
      vertex 3.45548 60.5839 0
      vertex 0 54 0
      vertex 2.01191 59.305 0
    endloop
  endfacet
  facet normal 0 0 -1
    outer loop
      vertex 2.01191 59.305 0
      vertex 0 54 0
      vertex 0.916351 57.7178 0
    endloop
  endfacet
  facet normal 0 0 -1
    outer loop
      vertex 0.916351 57.7178 0
      vertex 0 54 0
      vertex 0.232465 55.9145 0
    endloop
  endfacet
  facet normal 0.239316 0.970942 -0
    outer loop
      vertex 86.8368 61.4801 0
      vertex 84.9643 61.9417 50
      vertex 86.8368 61.4801 50
    endloop
  endfacet
  facet normal 0.239316 0.970942 0
    outer loop
      vertex 84.9643 61.9417 50
      vertex 86.8368 61.4801 0
      vertex 84.9643 61.9417 0
    endloop
  endfacet
  facet normal 0 1 -0
    outer loop
      vertex 84.9643 61.9417 0
      vertex 7.03571 61.9417 50
      vertex 84.9643 61.9417 50
    endloop
  endfacet
  facet normal 0 1 0
    outer loop
      vertex 7.03571 61.9417 50
      vertex 84.9643 61.9417 0
      vertex 7.03571 61.9417 0
    endloop
  endfacet
  facet normal -1 0 0
    outer loop
      vertex 0 54 0
      vertex 0 47.65 25
      vertex 0 54 50
    endloop
  endfacet
  facet normal -1 0 0
    outer loop
      vertex 0 54 0
      vertex 0 15.35 25
      vertex 0 47.65 25
    endloop
  endfacet
  facet normal -1 0 0
    outer loop
      vertex 0 8 50
      vertex 0 15.35 25
      vertex 0 8 0
    endloop
  endfacet
  facet normal -1 0 0
    outer loop
      vertex 0 8 0
      vertex 0 15.35 25
      vertex 0 54 0
    endloop
  endfacet
  facet normal -1 0 0
    outer loop
      vertex 0 47.65 33
      vertex 0 54 50
      vertex 0 47.65 25
    endloop
  endfacet
  facet normal -1 0 0
    outer loop
      vertex 0 15.35 33
      vertex 0 54 50
      vertex 0 47.65 33
    endloop
  endfacet
  facet normal -1 0 0
    outer loop
      vertex 0 15.35 33
      vertex 0 8 50
      vertex 0 54 50
    endloop
  endfacet
  facet normal -1 0 0
    outer loop
      vertex 0 15.35 25
      vertex 0 8 50
      vertex 0 15.35 33
    endloop
  endfacet
  facet normal 0 0 1
    outer loop
      vertex 89.5 59.5 50
      vertex 92 54 50
      vertex 91.7675 55.9145 50
    endloop
  endfacet
  facet normal 0 0 1
    outer loop
      vertex 92 54 50
      vertex 89.5 59.5 50
      vertex 92 8 50
    endloop
  endfacet
  facet normal 0 0 1
    outer loop
      vertex 89.5 59.5 50
      vertex 91.7675 55.9145 50
      vertex 91.0836 57.7178 50
    endloop
  endfacet
  facet normal 0 0 1
    outer loop
      vertex 89.5 2.5 50
      vertex 92 8 50
      vertex 89.5 59.5 50
    endloop
  endfacet
  facet normal 0 0 1
    outer loop
      vertex 89.5 59.5 50
      vertex 91.0836 57.7178 50
      vertex 89.9881 59.305 50
    endloop
  endfacet
  facet normal 0 0 1
    outer loop
      vertex 92 8 50
      vertex 89.5 2.5 50
      vertex 91.7675 6.08547 50
    endloop
  endfacet
  facet normal 0 0 1
    outer loop
      vertex 91.7675 6.08547 50
      vertex 89.5 2.5 50
      vertex 91.0836 4.28221 50
    endloop
  endfacet
  facet normal 0 0 1
    outer loop
      vertex 88.5445 60.5839 50
      vertex 89.5 59.5 50
      vertex 89.9881 59.305 50
    endloop
  endfacet
  facet normal 0 0 1
    outer loop
      vertex 86.8368 61.4801 50
      vertex 89.5 59.5 50
      vertex 88.5445 60.5839 50
    endloop
  endfacet
  facet normal 0 0 1
    outer loop
      vertex 84.9643 61.9417 50
      vertex 89.5 59.5 50
      vertex 86.8368 61.4801 50
    endloop
  endfacet
  facet normal -0 0 1
    outer loop
      vertex 7.03571 61.9417 50
      vertex 89.5 59.5 50
      vertex 84.9643 61.9417 50
    endloop
  endfacet
  facet normal 0 0 1
    outer loop
      vertex 2.5 59.5 50
      vertex 7.03571 61.9417 50
      vertex 5.16316 61.4801 50
    endloop
  endfacet
  facet normal 0 0 1
    outer loop
      vertex 2.5 59.5 50
      vertex 5.16316 61.4801 50
      vertex 3.45548 60.5839 50
    endloop
  endfacet
  facet normal 0 0 1
    outer loop
      vertex 7.03571 61.9417 50
      vertex 2.5 59.5 50
      vertex 89.5 59.5 50
    endloop
  endfacet
  facet normal 0 0 1
    outer loop
      vertex 0.916351 57.7178 50
      vertex 2.5 59.5 50
      vertex 2.01191 59.305 50
    endloop
  endfacet
  facet normal 0 0 1
    outer loop
      vertex 2.01191 59.305 50
      vertex 2.5 59.5 50
      vertex 3.45548 60.5839 50
    endloop
  endfacet
  facet normal 0 0 1
    outer loop
      vertex 91.0836 4.28221 50
      vertex 89.5 2.5 50
      vertex 89.9881 2.69502 50
    endloop
  endfacet
  facet normal -0 0 1
    outer loop
      vertex 89.5 2.5 50
      vertex 88.5445 1.41613 50
      vertex 89.9881 2.69502 50
    endloop
  endfacet
  facet normal 0 0 1
    outer loop
      vertex 89.5 2.5 50
      vertex 86.8368 0.51987 50
      vertex 88.5445 1.41613 50
    endloop
  endfacet
  facet normal 0 0 1
    outer loop
      vertex 89.5 2.5 50
      vertex 84.9643 0.0583286 50
      vertex 86.8368 0.51987 50
    endloop
  endfacet
  facet normal 0 0 1
    outer loop
      vertex 89.5 2.5 50
      vertex 7.03571 0.0583286 50
      vertex 84.9643 0.0583286 50
    endloop
  endfacet
  facet normal -0 0 1
    outer loop
      vertex 2.5 2.5 50
      vertex 7.03571 0.0583286 50
      vertex 89.5 2.5 50
    endloop
  endfacet
  facet normal 0 0 1
    outer loop
      vertex 7.03571 0.0583286 50
      vertex 2.5 2.5 50
      vertex 5.16316 0.51987 50
    endloop
  endfacet
  facet normal 0 0 1
    outer loop
      vertex 5.16316 0.51987 50
      vertex 2.5 2.5 50
      vertex 3.45548 1.41613 50
    endloop
  endfacet
  facet normal 0 0 1
    outer loop
      vertex 2.5 2.5 50
      vertex 2.01191 2.69502 50
      vertex 3.45548 1.41613 50
    endloop
  endfacet
  facet normal 0 0 1
    outer loop
      vertex 2.5 59.5 50
      vertex 0 54 50
      vertex 2.5 2.5 50
    endloop
  endfacet
  facet normal 0 0 1
    outer loop
      vertex 0.232465 55.9145 50
      vertex 2.5 59.5 50
      vertex 0.916351 57.7178 50
    endloop
  endfacet
  facet normal -0 0 1
    outer loop
      vertex 0 8 50
      vertex 2.5 2.5 50
      vertex 0 54 50
    endloop
  endfacet
  facet normal 0 0 1
    outer loop
      vertex 2.5 59.5 50
      vertex 0.232465 55.9145 50
      vertex 0 54 50
    endloop
  endfacet
  facet normal -0 -0 1
    outer loop
      vertex 0.232465 6.08547 50
      vertex 2.5 2.5 50
      vertex 0 8 50
    endloop
  endfacet
  facet normal 0 0 1
    outer loop
      vertex 2.5 2.5 50
      vertex 0.916351 4.28221 50
      vertex 2.01191 2.69502 50
    endloop
  endfacet
  facet normal 0 0 1
    outer loop
      vertex 2.5 2.5 50
      vertex 0.232465 6.08547 50
      vertex 0.916351 4.28221 50
    endloop
  endfacet
  facet normal 1 -0 0
    outer loop
      vertex 92 16.7634 36.3229
      vertex 92 17.8532 17.1771
      vertex 92 17.8532 37.8229
    endloop
  endfacet
  facet normal 1 0 0
    outer loop
      vertex 92 16.7634 36.3229
      vertex 92 16.7634 18.6771
      vertex 92 17.8532 17.1771
    endloop
  endfacet
  facet normal 1 -0 0
    outer loop
      vertex 92 15 35.75
      vertex 92 16.7634 18.6771
      vertex 92 16.7634 36.3229
    endloop
  endfacet
  facet normal 1 0 0
    outer loop
      vertex 92 15 35.75
      vertex 92 15 19.25
      vertex 92 16.7634 18.6771
    endloop
  endfacet
  facet normal 1 0 0
    outer loop
      vertex 92 13.2366 36.3229
      vertex 92 15 19.25
      vertex 92 15 35.75
    endloop
  endfacet
  facet normal 1 0 0
    outer loop
      vertex 92 13.2366 36.3229
      vertex 92 13.2366 18.6771
      vertex 92 15 19.25
    endloop
  endfacet
  facet normal 1 0 0
    outer loop
      vertex 92 12.1468 37.8229
      vertex 92 13.2366 18.6771
      vertex 92 13.2366 36.3229
    endloop
  endfacet
  facet normal 1 0 0
    outer loop
      vertex 92 13.2366 18.6771
      vertex 92 12.1468 37.8229
      vertex 92 12.1468 17.1771
    endloop
  endfacet
  facet normal 1 0 0
    outer loop
      vertex 92 17.8532 37.8229
      vertex 92 54 50
      vertex 92 17.8532 39.6771
    endloop
  endfacet
  facet normal 1 0 0
    outer loop
      vertex 92 54 50
      vertex 92 16.7634 41.1771
      vertex 92 17.8532 39.6771
    endloop
  endfacet
  facet normal 1 -0 0
    outer loop
      vertex 92 8 50
      vertex 92 16.7634 41.1771
      vertex 92 54 50
    endloop
  endfacet
  facet normal 1 0 0
    outer loop
      vertex 92 8 50
      vertex 92 12.1468 37.8229
      vertex 92 12.1468 39.6771
    endloop
  endfacet
  facet normal 1 0 0
    outer loop
      vertex 92 12.1468 37.8229
      vertex 92 8 50
      vertex 92 12.1468 17.1771
    endloop
  endfacet
  facet normal 1 0 0
    outer loop
      vertex 92 8 0
      vertex 92 12.1468 17.1771
      vertex 92 8 50
    endloop
  endfacet
  facet normal 1 0 0
    outer loop
      vertex 92 13.2366 41.1771
      vertex 92 8 50
      vertex 92 12.1468 39.6771
    endloop
  endfacet
  facet normal 1 0 0
    outer loop
      vertex 92 15 41.75
      vertex 92 8 50
      vertex 92 13.2366 41.1771
    endloop
  endfacet
  facet normal 1 0 0
    outer loop
      vertex 92 16.7634 41.1771
      vertex 92 8 50
      vertex 92 15 41.75
    endloop
  endfacet
  facet normal 1 0 0
    outer loop
      vertex 92 17.8532 17.1771
      vertex 92 54 50
      vertex 92 17.8532 37.8229
    endloop
  endfacet
  facet normal 1 0 0
    outer loop
      vertex 92 54 50
      vertex 92 17.8532 17.1771
      vertex 92 54 0
    endloop
  endfacet
  facet normal 1 -0 0
    outer loop
      vertex 92 17.8532 15.3229
      vertex 92 54 0
      vertex 92 17.8532 17.1771
    endloop
  endfacet
  facet normal 1 -0 0
    outer loop
      vertex 92 16.7634 13.8229
      vertex 92 54 0
      vertex 92 17.8532 15.3229
    endloop
  endfacet
  facet normal 1 0 0
    outer loop
      vertex 92 8 0
      vertex 92 16.7634 13.8229
      vertex 92 15 13.25
    endloop
  endfacet
  facet normal 1 0 0
    outer loop
      vertex 92 8 0
      vertex 92 15 13.25
      vertex 92 13.2366 13.8229
    endloop
  endfacet
  facet normal 1 0 0
    outer loop
      vertex 92 16.7634 13.8229
      vertex 92 8 0
      vertex 92 54 0
    endloop
  endfacet
  facet normal 1 0 0
    outer loop
      vertex 92 12.1468 15.3229
      vertex 92 8 0
      vertex 92 13.2366 13.8229
    endloop
  endfacet
  facet normal 1 0 0
    outer loop
      vertex 92 12.1468 17.1771
      vertex 92 8 0
      vertex 92 12.1468 15.3229
    endloop
  endfacet
  facet normal 0.992709 -0.120538 0
    outer loop
      vertex 91.7675 6.08547 50
      vertex 92 8 0
      vertex 92 8 50
    endloop
  endfacet
  facet normal 0.992709 -0.120538 0
    outer loop
      vertex 92 8 0
      vertex 91.7675 6.08547 50
      vertex 91.7675 6.08547 0
    endloop
  endfacet
  facet normal -0.663123 -0.748511 0
    outer loop
      vertex 2.01191 2.69502 0
      vertex 3.45548 1.41613 50
      vertex 2.01191 2.69502 50
    endloop
  endfacet
  facet normal -0.663123 -0.748511 -0
    outer loop
      vertex 3.45548 1.41613 50
      vertex 2.01191 2.69502 0
      vertex 3.45548 1.41613 0
    endloop
  endfacet
  facet normal -0.464723 -0.885456 0
    outer loop
      vertex 3.45548 1.41613 0
      vertex 5.16316 0.51987 50
      vertex 3.45548 1.41613 50
    endloop
  endfacet
  facet normal -0.464723 -0.885456 -0
    outer loop
      vertex 5.16316 0.51987 50
      vertex 3.45548 1.41613 0
      vertex 5.16316 0.51987 0
    endloop
  endfacet
  facet normal 0.822983 0.568066 0
    outer loop
      vertex 91.0836 57.7178 50
      vertex 89.9881 59.305 0
      vertex 89.9881 59.305 50
    endloop
  endfacet
  facet normal 0.822983 0.568066 0
    outer loop
      vertex 89.9881 59.305 0
      vertex 91.0836 57.7178 50
      vertex 91.0836 57.7178 0
    endloop
  endfacet
  facet normal 0.935017 0.354604 0
    outer loop
      vertex 91.7675 55.9145 50
      vertex 91.0836 57.7178 0
      vertex 91.0836 57.7178 50
    endloop
  endfacet
  facet normal 0.935017 0.354604 0
    outer loop
      vertex 91.0836 57.7178 0
      vertex 91.7675 55.9145 50
      vertex 91.7675 55.9145 0
    endloop
  endfacet
  facet normal 0.663123 0.74851 -0
    outer loop
      vertex 89.9881 59.305 0
      vertex 88.5445 60.5839 50
      vertex 89.9881 59.305 50
    endloop
  endfacet
  facet normal 0.663123 0.74851 0
    outer loop
      vertex 88.5445 60.5839 50
      vertex 89.9881 59.305 0
      vertex 88.5445 60.5839 0
    endloop
  endfacet
  facet normal -0.239315 0.970942 0
    outer loop
      vertex 7.03571 61.9417 0
      vertex 5.16316 61.4801 50
      vertex 7.03571 61.9417 50
    endloop
  endfacet
  facet normal -0.239315 0.970942 0
    outer loop
      vertex 5.16316 61.4801 50
      vertex 7.03571 61.9417 0
      vertex 5.16316 61.4801 0
    endloop
  endfacet
  facet normal -0.822984 0.568065 0
    outer loop
      vertex 0.916351 57.7178 0
      vertex 2.01191 59.305 50
      vertex 2.01191 59.305 0
    endloop
  endfacet
  facet normal -0.822984 0.568065 0
    outer loop
      vertex 2.01191 59.305 50
      vertex 0.916351 57.7178 0
      vertex 0.916351 57.7178 50
    endloop
  endfacet
  facet normal -0.663122 0.748511 0
    outer loop
      vertex 3.45548 60.5839 0
      vertex 2.01191 59.305 50
      vertex 3.45548 60.5839 50
    endloop
  endfacet
  facet normal -0.663122 0.748511 0
    outer loop
      vertex 2.01191 59.305 50
      vertex 3.45548 60.5839 0
      vertex 2.01191 59.305 0
    endloop
  endfacet
  facet normal -0.935016 0.354605 0
    outer loop
      vertex 0.232465 55.9145 0
      vertex 0.916351 57.7178 50
      vertex 0.916351 57.7178 0
    endloop
  endfacet
  facet normal -0.935016 0.354605 0
    outer loop
      vertex 0.916351 57.7178 50
      vertex 0.232465 55.9145 0
      vertex 0.232465 55.9145 50
    endloop
  endfacet
  facet normal 0.239316 -0.970942 0
    outer loop
      vertex 84.9643 0.0583286 0
      vertex 86.8368 0.51987 50
      vertex 84.9643 0.0583286 50
    endloop
  endfacet
  facet normal 0.239316 -0.970942 0
    outer loop
      vertex 86.8368 0.51987 50
      vertex 84.9643 0.0583286 0
      vertex 86.8368 0.51987 0
    endloop
  endfacet
  facet normal 0.464723 -0.885456 0
    outer loop
      vertex 86.8368 0.51987 0
      vertex 88.5445 1.41613 50
      vertex 86.8368 0.51987 50
    endloop
  endfacet
  facet normal 0.464723 -0.885456 0
    outer loop
      vertex 88.5445 1.41613 50
      vertex 86.8368 0.51987 0
      vertex 88.5445 1.41613 0
    endloop
  endfacet
  facet normal -0.239316 -0.970942 0
    outer loop
      vertex 5.16316 0.51987 0
      vertex 7.03571 0.0583286 50
      vertex 5.16316 0.51987 50
    endloop
  endfacet
  facet normal -0.239316 -0.970942 -0
    outer loop
      vertex 7.03571 0.0583286 50
      vertex 5.16316 0.51987 0
      vertex 7.03571 0.0583286 0
    endloop
  endfacet
  facet normal -0.822984 -0.568065 0
    outer loop
      vertex 2.01191 2.69502 0
      vertex 0.916351 4.28221 50
      vertex 0.916351 4.28221 0
    endloop
  endfacet
  facet normal -0.822984 -0.568065 0
    outer loop
      vertex 0.916351 4.28221 50
      vertex 2.01191 2.69502 0
      vertex 2.01191 2.69502 50
    endloop
  endfacet
  facet normal -0.935016 -0.354605 0
    outer loop
      vertex 0.916351 4.28221 0
      vertex 0.232465 6.08547 50
      vertex 0.232465 6.08547 0
    endloop
  endfacet
  facet normal -0.935016 -0.354605 0
    outer loop
      vertex 0.232465 6.08547 50
      vertex 0.916351 4.28221 0
      vertex 0.916351 4.28221 50
    endloop
  endfacet
  facet normal 0.464723 0.885456 -0
    outer loop
      vertex 88.5445 60.5839 0
      vertex 86.8368 61.4801 50
      vertex 88.5445 60.5839 50
    endloop
  endfacet
  facet normal 0.464723 0.885456 0
    outer loop
      vertex 86.8368 61.4801 50
      vertex 88.5445 60.5839 0
      vertex 86.8368 61.4801 0
    endloop
  endfacet
  facet normal 0.822983 -0.568066 0
    outer loop
      vertex 89.9881 2.69502 50
      vertex 91.0836 4.28221 0
      vertex 91.0836 4.28221 50
    endloop
  endfacet
  facet normal 0.822983 -0.568066 0
    outer loop
      vertex 91.0836 4.28221 0
      vertex 89.9881 2.69502 50
      vertex 89.9881 2.69502 0
    endloop
  endfacet
  facet normal 0.935017 -0.354604 0
    outer loop
      vertex 91.0836 4.28221 50
      vertex 91.7675 6.08547 0
      vertex 91.7675 6.08547 50
    endloop
  endfacet
  facet normal 0.935017 -0.354604 0
    outer loop
      vertex 91.7675 6.08547 0
      vertex 91.0836 4.28221 50
      vertex 91.0836 4.28221 0
    endloop
  endfacet
  facet normal 0.663123 -0.74851 0
    outer loop
      vertex 88.5445 1.41613 0
      vertex 89.9881 2.69502 50
      vertex 88.5445 1.41613 50
    endloop
  endfacet
  facet normal 0.663123 -0.74851 0
    outer loop
      vertex 89.9881 2.69502 50
      vertex 88.5445 1.41613 0
      vertex 89.9881 2.69502 0
    endloop
  endfacet
  facet normal 1 0 0
    outer loop
      vertex 5 47.65 25
      vertex 5 57 46
      vertex 5 47.65 33
    endloop
  endfacet
  facet normal 1 0 0
    outer loop
      vertex 5 57 46
      vertex 5 15.35 33
      vertex 5 47.65 33
    endloop
  endfacet
  facet normal 1 0 0
    outer loop
      vertex 5 15.35 33
      vertex 5 5 46
      vertex 5 15.35 25
    endloop
  endfacet
  facet normal 1 -0 0
    outer loop
      vertex 5 5 46
      vertex 5 15.35 33
      vertex 5 57 46
    endloop
  endfacet
  facet normal 1 0 0
    outer loop
      vertex 5 57 46
      vertex 5 47.65 25
      vertex 5 57 5
    endloop
  endfacet
  facet normal 1 -0 0
    outer loop
      vertex 5 15.35 25
      vertex 5 57 5
      vertex 5 47.65 25
    endloop
  endfacet
  facet normal 1 0 0
    outer loop
      vertex 5 15.35 25
      vertex 5 5 5
      vertex 5 57 5
    endloop
  endfacet
  facet normal 1 0 0
    outer loop
      vertex 5 5 5
      vertex 5 15.35 25
      vertex 5 5 46
    endloop
  endfacet
  facet normal -1 0 0
    outer loop
      vertex 87 13.2366 18.6771
      vertex 87 18 27.75
      vertex 87 15 19.25
    endloop
  endfacet
  facet normal -1 0 0
    outer loop
      vertex 87 18 30.25
      vertex 87 16.7634 36.3229
      vertex 87 17.8532 37.8229
    endloop
  endfacet
  facet normal -1 0 0
    outer loop
      vertex 87 13.2366 36.3229
      vertex 87 18 27.75
      vertex 87 13.2366 18.6771
    endloop
  endfacet
  facet normal -1 0 0
    outer loop
      vertex 87 18 30.25
      vertex 87 15 35.75
      vertex 87 16.7634 36.3229
    endloop
  endfacet
  facet normal -1 0 0
    outer loop
      vertex 87 18 27.75
      vertex 87 13.2366 36.3229
      vertex 87 18 30.25
    endloop
  endfacet
  facet normal -1 0 0
    outer loop
      vertex 87 18 30.25
      vertex 87 13.2366 36.3229
      vertex 87 15 35.75
    endloop
  endfacet
  facet normal -1 0 0
    outer loop
      vertex 87 12.1468 17.1771
      vertex 87 13.2366 36.3229
      vertex 87 13.2366 18.6771
    endloop
  endfacet
  facet normal -1 -0 0
    outer loop
      vertex 87 13.2366 36.3229
      vertex 87 12.1468 17.1771
      vertex 87 12.1468 37.8229
    endloop
  endfacet
  facet normal -1 0 0
    outer loop
      vertex 87 57 5
      vertex 87 44.5 27.75
      vertex 87 57 46
    endloop
  endfacet
  facet normal -1 0 0
    outer loop
      vertex 87 17.8532 15.3229
      vertex 87 44.5 27.75
      vertex 87 57 5
    endloop
  endfacet
  facet normal -1 -0 0
    outer loop
      vertex 87 44.5 27.75
      vertex 87 17.8532 17.1771
      vertex 87 18 27.75
    endloop
  endfacet
  facet normal -1 0 0
    outer loop
      vertex 87 44.5 27.75
      vertex 87 17.8532 15.3229
      vertex 87 17.8532 17.1771
    endloop
  endfacet
  facet normal -1 0 0
    outer loop
      vertex 87 57 5
      vertex 87 16.7634 13.8229
      vertex 87 17.8532 15.3229
    endloop
  endfacet
  facet normal -1 0 0
    outer loop
      vertex 87 5 5
      vertex 87 16.7634 13.8229
      vertex 87 57 5
    endloop
  endfacet
  facet normal -1 0 0
    outer loop
      vertex 87 5 5
      vertex 87 12.1468 17.1771
      vertex 87 12.1468 15.3229
    endloop
  endfacet
  facet normal -1 0 0
    outer loop
      vertex 87 12.1468 17.1771
      vertex 87 5 46
      vertex 87 12.1468 37.8229
    endloop
  endfacet
  facet normal -1 -0 0
    outer loop
      vertex 87 12.1468 17.1771
      vertex 87 5 5
      vertex 87 5 46
    endloop
  endfacet
  facet normal -1 -0 0
    outer loop
      vertex 87 13.2366 13.8229
      vertex 87 5 5
      vertex 87 12.1468 15.3229
    endloop
  endfacet
  facet normal -1 -0 0
    outer loop
      vertex 87 15 13.25
      vertex 87 5 5
      vertex 87 13.2366 13.8229
    endloop
  endfacet
  facet normal -1 0 0
    outer loop
      vertex 87 16.7634 13.8229
      vertex 87 5 5
      vertex 87 15 13.25
    endloop
  endfacet
  facet normal -1 0 0
    outer loop
      vertex 87 44.5 30.25
      vertex 87 57 46
      vertex 87 44.5 27.75
    endloop
  endfacet
  facet normal -1 0 0
    outer loop
      vertex 87 17.8532 37.8229
      vertex 87 44.5 30.25
      vertex 87 18 30.25
    endloop
  endfacet
  facet normal -1 0 0
    outer loop
      vertex 87 16.7634 18.6771
      vertex 87 18 27.75
      vertex 87 17.8532 17.1771
    endloop
  endfacet
  facet normal -1 0 0
    outer loop
      vertex 87 15 19.25
      vertex 87 18 27.75
      vertex 87 16.7634 18.6771
    endloop
  endfacet
  facet normal -1 0 0
    outer loop
      vertex 87 17.8532 39.6771
      vertex 87 44.5 30.25
      vertex 87 17.8532 37.8229
    endloop
  endfacet
  facet normal -1 0 0
    outer loop
      vertex 87 44.5 30.25
      vertex 87 17.8532 39.6771
      vertex 87 57 46
    endloop
  endfacet
  facet normal -1 0 0
    outer loop
      vertex 87 16.7634 41.1771
      vertex 87 57 46
      vertex 87 17.8532 39.6771
    endloop
  endfacet
  facet normal -1 0 0
    outer loop
      vertex 87 15 41.75
      vertex 87 57 46
      vertex 87 16.7634 41.1771
    endloop
  endfacet
  facet normal -1 0 0
    outer loop
      vertex 87 15 41.75
      vertex 87 5 46
      vertex 87 57 46
    endloop
  endfacet
  facet normal -1 0 0
    outer loop
      vertex 87 13.2366 41.1771
      vertex 87 5 46
      vertex 87 15 41.75
    endloop
  endfacet
  facet normal -1 0 0
    outer loop
      vertex 87 12.1468 39.6771
      vertex 87 5 46
      vertex 87 13.2366 41.1771
    endloop
  endfacet
  facet normal -1 0 0
    outer loop
      vertex 87 12.1468 37.8229
      vertex 87 5 46
      vertex 87 12.1468 39.6771
    endloop
  endfacet
  facet normal 0 0 1
    outer loop
      vertex 12.4271 11.7634 5
      vertex 79.573 11.7634 5
      vertex 12.4271 50.2366 5
    endloop
  endfacet
  facet normal 0 0 1
    outer loop
      vertex 79.573 11.7634 5
      vertex 12.4271 11.7634 5
      vertex 13 10 5
    endloop
  endfacet
  facet normal -0 0 1
    outer loop
      vertex 10.9271 49.1468 5
      vertex 12.4271 11.7634 5
      vertex 12.4271 50.2366 5
    endloop
  endfacet
  facet normal 0 0 1
    outer loop
      vertex 10.9271 49.1468 5
      vertex 10.9271 12.8532 5
      vertex 12.4271 11.7634 5
    endloop
  endfacet
  facet normal -0 0 1
    outer loop
      vertex 9.07295 49.1468 5
      vertex 10.9271 12.8532 5
      vertex 10.9271 49.1468 5
    endloop
  endfacet
  facet normal 0 0 1
    outer loop
      vertex 9.07295 49.1468 5
      vertex 9.07295 12.8532 5
      vertex 10.9271 12.8532 5
    endloop
  endfacet
  facet normal 0 0 1
    outer loop
      vertex 7.57295 50.2366 5
      vertex 9.07295 12.8532 5
      vertex 9.07295 49.1468 5
    endloop
  endfacet
  facet normal 0 0 1
    outer loop
      vertex 7.57295 50.2366 5
      vertex 7.57295 11.7634 5
      vertex 9.07295 12.8532 5
    endloop
  endfacet
  facet normal 0 0 1
    outer loop
      vertex 7 52 5
      vertex 7.57295 11.7634 5
      vertex 7.57295 50.2366 5
    endloop
  endfacet
  facet normal 0 0 1
    outer loop
      vertex 7.57295 11.7634 5
      vertex 7 52 5
      vertex 7 10 5
    endloop
  endfacet
  facet normal -0 0 1
    outer loop
      vertex 84.427 50.2366 5
      vertex 85 10 5
      vertex 85 52 5
    endloop
  endfacet
  facet normal 0 0 1
    outer loop
      vertex 84.427 50.2366 5
      vertex 84.427 11.7634 5
      vertex 85 10 5
    endloop
  endfacet
  facet normal -0 0 1
    outer loop
      vertex 82.927 49.1468 5
      vertex 84.427 11.7634 5
      vertex 84.427 50.2366 5
    endloop
  endfacet
  facet normal 0 0 1
    outer loop
      vertex 82.927 49.1468 5
      vertex 82.927 12.8532 5
      vertex 84.427 11.7634 5
    endloop
  endfacet
  facet normal -0 0 1
    outer loop
      vertex 81.073 49.1468 5
      vertex 82.927 12.8532 5
      vertex 82.927 49.1468 5
    endloop
  endfacet
  facet normal 0 0 1
    outer loop
      vertex 81.073 49.1468 5
      vertex 81.073 12.8532 5
      vertex 82.927 12.8532 5
    endloop
  endfacet
  facet normal 0 0 1
    outer loop
      vertex 79.573 50.2366 5
      vertex 81.073 12.8532 5
      vertex 81.073 49.1468 5
    endloop
  endfacet
  facet normal 0 0 1
    outer loop
      vertex 79.573 50.2366 5
      vertex 79.573 11.7634 5
      vertex 81.073 12.8532 5
    endloop
  endfacet
  facet normal -0 0 1
    outer loop
      vertex 13 52 5
      vertex 79.573 50.2366 5
      vertex 79 52 5
    endloop
  endfacet
  facet normal 0 0 1
    outer loop
      vertex 12.4271 50.2366 5
      vertex 79.573 50.2366 5
      vertex 13 52 5
    endloop
  endfacet
  facet normal 0 0 1
    outer loop
      vertex 87 57 5
      vertex 85 52 5
      vertex 87 5 5
    endloop
  endfacet
  facet normal 0 0 1
    outer loop
      vertex 87 57 5
      vertex 84.427 53.7634 5
      vertex 85 52 5
    endloop
  endfacet
  facet normal 0 0 1
    outer loop
      vertex 87 57 5
      vertex 82.927 54.8532 5
      vertex 84.427 53.7634 5
    endloop
  endfacet
  facet normal 0 0 1
    outer loop
      vertex 87 57 5
      vertex 81.073 54.8532 5
      vertex 82.927 54.8532 5
    endloop
  endfacet
  facet normal 0 0 1
    outer loop
      vertex 79.573 50.2366 5
      vertex 12.4271 50.2366 5
      vertex 79.573 11.7634 5
    endloop
  endfacet
  facet normal 0 0 1
    outer loop
      vertex 79.573 53.7634 5
      vertex 13 52 5
      vertex 79 52 5
    endloop
  endfacet
  facet normal 0 0 1
    outer loop
      vertex 12.4271 53.7634 5
      vertex 79.573 53.7634 5
      vertex 81.073 54.8532 5
    endloop
  endfacet
  facet normal 0 0 1
    outer loop
      vertex 10.9271 54.8532 5
      vertex 81.073 54.8532 5
      vertex 87 57 5
    endloop
  endfacet
  facet normal 0 0 1
    outer loop
      vertex 79.573 53.7634 5
      vertex 12.4271 53.7634 5
      vertex 13 52 5
    endloop
  endfacet
  facet normal 0 0 1
    outer loop
      vertex 81.073 54.8532 5
      vertex 10.9271 54.8532 5
      vertex 12.4271 53.7634 5
    endloop
  endfacet
  facet normal -0 0 1
    outer loop
      vertex 5 57 5
      vertex 10.9271 54.8532 5
      vertex 87 57 5
    endloop
  endfacet
  facet normal 0 0 1
    outer loop
      vertex 7 52 5
      vertex 5 57 5
      vertex 7 10 5
    endloop
  endfacet
  facet normal 0 0 1
    outer loop
      vertex 7.57295 53.7634 5
      vertex 5 57 5
      vertex 7 52 5
    endloop
  endfacet
  facet normal 0 0 1
    outer loop
      vertex 9.07295 54.8532 5
      vertex 5 57 5
      vertex 7.57295 53.7634 5
    endloop
  endfacet
  facet normal 0 0 1
    outer loop
      vertex 10.9271 54.8532 5
      vertex 5 57 5
      vertex 9.07295 54.8532 5
    endloop
  endfacet
  facet normal -0 0 1
    outer loop
      vertex 85 10 5
      vertex 87 5 5
      vertex 85 52 5
    endloop
  endfacet
  facet normal -0 0 1
    outer loop
      vertex 84.427 8.23664 5
      vertex 87 5 5
      vertex 85 10 5
    endloop
  endfacet
  facet normal -0 0 1
    outer loop
      vertex 82.927 7.14683 5
      vertex 87 5 5
      vertex 84.427 8.23664 5
    endloop
  endfacet
  facet normal -0 0 1
    outer loop
      vertex 81.073 7.14683 5
      vertex 87 5 5
      vertex 82.927 7.14683 5
    endloop
  endfacet
  facet normal 0 0 1
    outer loop
      vertex 79.573 11.7634 5
      vertex 13 10 5
      vertex 79 10 5
    endloop
  endfacet
  facet normal 0 0 1
    outer loop
      vertex 79 10 5
      vertex 13 10 5
      vertex 79.573 8.23664 5
    endloop
  endfacet
  facet normal 0 0 1
    outer loop
      vertex 12.4271 8.23664 5
      vertex 79.573 8.23664 5
      vertex 13 10 5
    endloop
  endfacet
  facet normal 0 0 1
    outer loop
      vertex 79.573 8.23664 5
      vertex 12.4271 8.23664 5
      vertex 81.073 7.14683 5
    endloop
  endfacet
  facet normal 0 0 1
    outer loop
      vertex 10.9271 7.14683 5
      vertex 81.073 7.14683 5
      vertex 12.4271 8.23664 5
    endloop
  endfacet
  facet normal 0 0 1
    outer loop
      vertex 81.073 7.14683 5
      vertex 10.9271 7.14683 5
      vertex 87 5 5
    endloop
  endfacet
  facet normal 0 0 1
    outer loop
      vertex 5 5 5
      vertex 10.9271 7.14683 5
      vertex 9.07295 7.14683 5
    endloop
  endfacet
  facet normal 0 0 1
    outer loop
      vertex 10.9271 7.14683 5
      vertex 5 5 5
      vertex 87 5 5
    endloop
  endfacet
  facet normal 0 0 1
    outer loop
      vertex 7.57295 8.23664 5
      vertex 5 5 5
      vertex 9.07295 7.14683 5
    endloop
  endfacet
  facet normal 0 0 1
    outer loop
      vertex 7 10 5
      vertex 5 5 5
      vertex 7.57295 8.23664 5
    endloop
  endfacet
  facet normal 0 0 1
    outer loop
      vertex 5 5 5
      vertex 7 10 5
      vertex 5 57 5
    endloop
  endfacet
  facet normal 0 1 -0
    outer loop
      vertex 87 5 5
      vertex 5 5 46
      vertex 87 5 46
    endloop
  endfacet
  facet normal 0 1 0
    outer loop
      vertex 5 5 46
      vertex 87 5 5
      vertex 5 5 5
    endloop
  endfacet
  facet normal 0 -1 0
    outer loop
      vertex 5 57 5
      vertex 87 57 46
      vertex 5 57 46
    endloop
  endfacet
  facet normal 0 -1 -0
    outer loop
      vertex 87 57 46
      vertex 5 57 5
      vertex 87 57 5
    endloop
  endfacet
  facet normal -0.951056 -0.309017 0
    outer loop
      vertex 13 10 2.5
      vertex 12.4271 11.7634 5
      vertex 12.4271 11.7634 2.5
    endloop
  endfacet
  facet normal -0.951056 -0.309017 0
    outer loop
      vertex 12.4271 11.7634 5
      vertex 13 10 2.5
      vertex 13 10 5
    endloop
  endfacet
  facet normal 0 -1 0
    outer loop
      vertex 9.07295 12.8532 2.5
      vertex 10.9271 12.8532 5
      vertex 9.07295 12.8532 5
    endloop
  endfacet
  facet normal 0 -1 -0
    outer loop
      vertex 10.9271 12.8532 5
      vertex 9.07295 12.8532 2.5
      vertex 10.9271 12.8532 2.5
    endloop
  endfacet
  facet normal -0.587785 -0.809017 0
    outer loop
      vertex 10.9271 12.8532 2.5
      vertex 12.4271 11.7634 5
      vertex 10.9271 12.8532 5
    endloop
  endfacet
  facet normal -0.587785 -0.809017 -0
    outer loop
      vertex 12.4271 11.7634 5
      vertex 10.9271 12.8532 2.5
      vertex 12.4271 11.7634 2.5
    endloop
  endfacet
  facet normal 0.587785 -0.809017 0
    outer loop
      vertex 7.57295 11.7634 2.5
      vertex 9.07295 12.8532 5
      vertex 7.57295 11.7634 5
    endloop
  endfacet
  facet normal 0.587785 -0.809017 0
    outer loop
      vertex 9.07295 12.8532 5
      vertex 7.57295 11.7634 2.5
      vertex 9.07295 12.8532 2.5
    endloop
  endfacet
  facet normal -0.587785 0.809017 0
    outer loop
      vertex 12.4271 8.23664 2.5
      vertex 10.9271 7.14683 5
      vertex 12.4271 8.23664 5
    endloop
  endfacet
  facet normal -0.587785 0.809017 0
    outer loop
      vertex 10.9271 7.14683 5
      vertex 12.4271 8.23664 2.5
      vertex 10.9271 7.14683 2.5
    endloop
  endfacet
  facet normal 0.587785 0.809017 -0
    outer loop
      vertex 9.07295 7.14683 2.5
      vertex 7.57295 8.23664 5
      vertex 9.07295 7.14683 5
    endloop
  endfacet
  facet normal 0.587785 0.809017 0
    outer loop
      vertex 7.57295 8.23664 5
      vertex 9.07295 7.14683 2.5
      vertex 7.57295 8.23664 2.5
    endloop
  endfacet
  facet normal 0 0 1
    outer loop
      vertex 12.4271 11.7634 2.5
      vertex 12.4271 8.23664 2.5
      vertex 13 10 2.5
    endloop
  endfacet
  facet normal 0 0 1
    outer loop
      vertex 10.9271 12.8532 2.5
      vertex 12.4271 8.23664 2.5
      vertex 12.4271 11.7634 2.5
    endloop
  endfacet
  facet normal 0 0 1
    outer loop
      vertex 10.9271 12.8532 2.5
      vertex 10.9271 7.14683 2.5
      vertex 12.4271 8.23664 2.5
    endloop
  endfacet
  facet normal -0 0 1
    outer loop
      vertex 9.07295 12.8532 2.5
      vertex 10.9271 7.14683 2.5
      vertex 10.9271 12.8532 2.5
    endloop
  endfacet
  facet normal 0 0 1
    outer loop
      vertex 9.07295 12.8532 2.5
      vertex 9.07295 7.14683 2.5
      vertex 10.9271 7.14683 2.5
    endloop
  endfacet
  facet normal -0 0 1
    outer loop
      vertex 7.57295 11.7634 2.5
      vertex 9.07295 7.14683 2.5
      vertex 9.07295 12.8532 2.5
    endloop
  endfacet
  facet normal 0 0 1
    outer loop
      vertex 7.57295 11.7634 2.5
      vertex 7.57295 8.23664 2.5
      vertex 9.07295 7.14683 2.5
    endloop
  endfacet
  facet normal 0 -0 1
    outer loop
      vertex 7.57295 8.23664 2.5
      vertex 7.57295 11.7634 2.5
      vertex 7 10 2.5
    endloop
  endfacet
  facet normal 0.951057 -0.309017 0
    outer loop
      vertex 7 10 5
      vertex 7.57295 11.7634 2.5
      vertex 7.57295 11.7634 5
    endloop
  endfacet
  facet normal 0.951057 -0.309017 0
    outer loop
      vertex 7.57295 11.7634 2.5
      vertex 7 10 5
      vertex 7 10 2.5
    endloop
  endfacet
  facet normal -0.951056 0.309017 0
    outer loop
      vertex 12.4271 8.23664 2.5
      vertex 13 10 5
      vertex 13 10 2.5
    endloop
  endfacet
  facet normal -0.951056 0.309017 0
    outer loop
      vertex 13 10 5
      vertex 12.4271 8.23664 2.5
      vertex 12.4271 8.23664 5
    endloop
  endfacet
  facet normal 0 1 -0
    outer loop
      vertex 10.9271 7.14683 2.5
      vertex 9.07295 7.14683 5
      vertex 10.9271 7.14683 5
    endloop
  endfacet
  facet normal 0 1 0
    outer loop
      vertex 9.07295 7.14683 5
      vertex 10.9271 7.14683 2.5
      vertex 9.07295 7.14683 2.5
    endloop
  endfacet
  facet normal 0.951057 0.309017 0
    outer loop
      vertex 7.57295 8.23664 5
      vertex 7 10 2.5
      vertex 7 10 5
    endloop
  endfacet
  facet normal 0.951057 0.309017 0
    outer loop
      vertex 7 10 2.5
      vertex 7.57295 8.23664 5
      vertex 7.57295 8.23664 2.5
    endloop
  endfacet
  facet normal -0.951056 -0.309019 0
    outer loop
      vertex 85 10 2.5
      vertex 84.427 11.7634 5
      vertex 84.427 11.7634 2.5
    endloop
  endfacet
  facet normal -0.951056 -0.309019 0
    outer loop
      vertex 84.427 11.7634 5
      vertex 85 10 2.5
      vertex 85 10 5
    endloop
  endfacet
  facet normal 0.951056 0.309019 0
    outer loop
      vertex 79.573 8.23664 5
      vertex 79 10 2.5
      vertex 79 10 5
    endloop
  endfacet
  facet normal 0.951056 0.309019 0
    outer loop
      vertex 79 10 2.5
      vertex 79.573 8.23664 5
      vertex 79.573 8.23664 2.5
    endloop
  endfacet
  facet normal 0 -1 0
    outer loop
      vertex 81.073 12.8532 2.5
      vertex 82.927 12.8532 5
      vertex 81.073 12.8532 5
    endloop
  endfacet
  facet normal 0 -1 -0
    outer loop
      vertex 82.927 12.8532 5
      vertex 81.073 12.8532 2.5
      vertex 82.927 12.8532 2.5
    endloop
  endfacet
  facet normal -0.587785 -0.809017 0
    outer loop
      vertex 82.927 12.8532 2.5
      vertex 84.427 11.7634 5
      vertex 82.927 12.8532 5
    endloop
  endfacet
  facet normal -0.587785 -0.809017 -0
    outer loop
      vertex 84.427 11.7634 5
      vertex 82.927 12.8532 2.5
      vertex 84.427 11.7634 2.5
    endloop
  endfacet
  facet normal 0.587785 -0.809017 0
    outer loop
      vertex 79.573 11.7634 2.5
      vertex 81.073 12.8532 5
      vertex 79.573 11.7634 5
    endloop
  endfacet
  facet normal 0.587785 -0.809017 0
    outer loop
      vertex 81.073 12.8532 5
      vertex 79.573 11.7634 2.5
      vertex 81.073 12.8532 2.5
    endloop
  endfacet
  facet normal -0.587785 0.809017 0
    outer loop
      vertex 84.427 8.23664 2.5
      vertex 82.927 7.14683 5
      vertex 84.427 8.23664 5
    endloop
  endfacet
  facet normal -0.587785 0.809017 0
    outer loop
      vertex 82.927 7.14683 5
      vertex 84.427 8.23664 2.5
      vertex 82.927 7.14683 2.5
    endloop
  endfacet
  facet normal 0.587785 0.809017 -0
    outer loop
      vertex 81.073 7.14683 2.5
      vertex 79.573 8.23664 5
      vertex 81.073 7.14683 5
    endloop
  endfacet
  facet normal 0.587785 0.809017 0
    outer loop
      vertex 79.573 8.23664 5
      vertex 81.073 7.14683 2.5
      vertex 79.573 8.23664 2.5
    endloop
  endfacet
  facet normal 0 0 1
    outer loop
      vertex 84.427 11.7634 2.5
      vertex 84.427 8.23664 2.5
      vertex 85 10 2.5
    endloop
  endfacet
  facet normal 0 0 1
    outer loop
      vertex 82.927 12.8532 2.5
      vertex 84.427 8.23664 2.5
      vertex 84.427 11.7634 2.5
    endloop
  endfacet
  facet normal 0 0 1
    outer loop
      vertex 82.927 12.8532 2.5
      vertex 82.927 7.14683 2.5
      vertex 84.427 8.23664 2.5
    endloop
  endfacet
  facet normal -0 0 1
    outer loop
      vertex 81.073 12.8532 2.5
      vertex 82.927 7.14683 2.5
      vertex 82.927 12.8532 2.5
    endloop
  endfacet
  facet normal 0 0 1
    outer loop
      vertex 81.073 12.8532 2.5
      vertex 81.073 7.14683 2.5
      vertex 82.927 7.14683 2.5
    endloop
  endfacet
  facet normal -0 0 1
    outer loop
      vertex 79.573 11.7634 2.5
      vertex 81.073 7.14683 2.5
      vertex 81.073 12.8532 2.5
    endloop
  endfacet
  facet normal 0 0 1
    outer loop
      vertex 79.573 11.7634 2.5
      vertex 79.573 8.23664 2.5
      vertex 81.073 7.14683 2.5
    endloop
  endfacet
  facet normal 0 -0 1
    outer loop
      vertex 79.573 8.23664 2.5
      vertex 79.573 11.7634 2.5
      vertex 79 10 2.5
    endloop
  endfacet
  facet normal 0.951056 -0.309019 0
    outer loop
      vertex 79 10 5
      vertex 79.573 11.7634 2.5
      vertex 79.573 11.7634 5
    endloop
  endfacet
  facet normal 0.951056 -0.309019 0
    outer loop
      vertex 79.573 11.7634 2.5
      vertex 79 10 5
      vertex 79 10 2.5
    endloop
  endfacet
  facet normal -0.951056 0.309019 0
    outer loop
      vertex 84.427 8.23664 2.5
      vertex 85 10 5
      vertex 85 10 2.5
    endloop
  endfacet
  facet normal -0.951056 0.309019 0
    outer loop
      vertex 85 10 5
      vertex 84.427 8.23664 2.5
      vertex 84.427 8.23664 5
    endloop
  endfacet
  facet normal 0 1 -0
    outer loop
      vertex 82.927 7.14683 2.5
      vertex 81.073 7.14683 5
      vertex 82.927 7.14683 5
    endloop
  endfacet
  facet normal 0 1 0
    outer loop
      vertex 81.073 7.14683 5
      vertex 82.927 7.14683 2.5
      vertex 81.073 7.14683 2.5
    endloop
  endfacet
  facet normal -0.951056 -0.309019 0
    outer loop
      vertex 85 52 2.5
      vertex 84.427 53.7634 5
      vertex 84.427 53.7634 2.5
    endloop
  endfacet
  facet normal -0.951056 -0.309019 0
    outer loop
      vertex 84.427 53.7634 5
      vertex 85 52 2.5
      vertex 85 52 5
    endloop
  endfacet
  facet normal 0 -1 0
    outer loop
      vertex 81.073 54.8532 2.5
      vertex 82.927 54.8532 5
      vertex 81.073 54.8532 5
    endloop
  endfacet
  facet normal 0 -1 -0
    outer loop
      vertex 82.927 54.8532 5
      vertex 81.073 54.8532 2.5
      vertex 82.927 54.8532 2.5
    endloop
  endfacet
  facet normal -0.587785 -0.809017 0
    outer loop
      vertex 82.927 54.8532 2.5
      vertex 84.427 53.7634 5
      vertex 82.927 54.8532 5
    endloop
  endfacet
  facet normal -0.587785 -0.809017 -0
    outer loop
      vertex 84.427 53.7634 5
      vertex 82.927 54.8532 2.5
      vertex 84.427 53.7634 2.5
    endloop
  endfacet
  facet normal 0.587785 -0.809017 0
    outer loop
      vertex 79.573 53.7634 2.5
      vertex 81.073 54.8532 5
      vertex 79.573 53.7634 5
    endloop
  endfacet
  facet normal 0.587785 -0.809017 0
    outer loop
      vertex 81.073 54.8532 5
      vertex 79.573 53.7634 2.5
      vertex 81.073 54.8532 2.5
    endloop
  endfacet
  facet normal -0.587786 0.809016 0
    outer loop
      vertex 84.427 50.2366 2.5
      vertex 82.927 49.1468 5
      vertex 84.427 50.2366 5
    endloop
  endfacet
  facet normal -0.587786 0.809016 0
    outer loop
      vertex 82.927 49.1468 5
      vertex 84.427 50.2366 2.5
      vertex 82.927 49.1468 2.5
    endloop
  endfacet
  facet normal 0.587786 0.809016 -0
    outer loop
      vertex 81.073 49.1468 2.5
      vertex 79.573 50.2366 5
      vertex 81.073 49.1468 5
    endloop
  endfacet
  facet normal 0.587786 0.809016 0
    outer loop
      vertex 79.573 50.2366 5
      vertex 81.073 49.1468 2.5
      vertex 79.573 50.2366 2.5
    endloop
  endfacet
  facet normal 0 0 1
    outer loop
      vertex 84.427 53.7634 2.5
      vertex 84.427 50.2366 2.5
      vertex 85 52 2.5
    endloop
  endfacet
  facet normal 0 0 1
    outer loop
      vertex 82.927 54.8532 2.5
      vertex 84.427 50.2366 2.5
      vertex 84.427 53.7634 2.5
    endloop
  endfacet
  facet normal 0 0 1
    outer loop
      vertex 82.927 54.8532 2.5
      vertex 82.927 49.1468 2.5
      vertex 84.427 50.2366 2.5
    endloop
  endfacet
  facet normal -0 0 1
    outer loop
      vertex 81.073 54.8532 2.5
      vertex 82.927 49.1468 2.5
      vertex 82.927 54.8532 2.5
    endloop
  endfacet
  facet normal 0 0 1
    outer loop
      vertex 81.073 54.8532 2.5
      vertex 81.073 49.1468 2.5
      vertex 82.927 49.1468 2.5
    endloop
  endfacet
  facet normal -0 0 1
    outer loop
      vertex 79.573 53.7634 2.5
      vertex 81.073 49.1468 2.5
      vertex 81.073 54.8532 2.5
    endloop
  endfacet
  facet normal 0 0 1
    outer loop
      vertex 79.573 53.7634 2.5
      vertex 79.573 50.2366 2.5
      vertex 81.073 49.1468 2.5
    endloop
  endfacet
  facet normal 0 -0 1
    outer loop
      vertex 79.573 50.2366 2.5
      vertex 79.573 53.7634 2.5
      vertex 79 52 2.5
    endloop
  endfacet
  facet normal 0.951056 -0.309019 0
    outer loop
      vertex 79 52 5
      vertex 79.573 53.7634 2.5
      vertex 79.573 53.7634 5
    endloop
  endfacet
  facet normal 0.951056 -0.309019 0
    outer loop
      vertex 79.573 53.7634 2.5
      vertex 79 52 5
      vertex 79 52 2.5
    endloop
  endfacet
  facet normal -0.951056 0.309019 0
    outer loop
      vertex 84.427 50.2366 2.5
      vertex 85 52 5
      vertex 85 52 2.5
    endloop
  endfacet
  facet normal -0.951056 0.309019 0
    outer loop
      vertex 85 52 5
      vertex 84.427 50.2366 2.5
      vertex 84.427 50.2366 5
    endloop
  endfacet
  facet normal 0 1 -0
    outer loop
      vertex 82.927 49.1468 2.5
      vertex 81.073 49.1468 5
      vertex 82.927 49.1468 5
    endloop
  endfacet
  facet normal 0 1 0
    outer loop
      vertex 81.073 49.1468 5
      vertex 82.927 49.1468 2.5
      vertex 81.073 49.1468 2.5
    endloop
  endfacet
  facet normal 0.951056 0.309019 0
    outer loop
      vertex 79.573 50.2366 5
      vertex 79 52 2.5
      vertex 79 52 5
    endloop
  endfacet
  facet normal 0.951056 0.309019 0
    outer loop
      vertex 79 52 2.5
      vertex 79.573 50.2366 5
      vertex 79.573 50.2366 2.5
    endloop
  endfacet
  facet normal -0.951056 -0.309017 0
    outer loop
      vertex 13 52 2.5
      vertex 12.4271 53.7634 5
      vertex 12.4271 53.7634 2.5
    endloop
  endfacet
  facet normal -0.951056 -0.309017 0
    outer loop
      vertex 12.4271 53.7634 5
      vertex 13 52 2.5
      vertex 13 52 5
    endloop
  endfacet
  facet normal 0 -1 0
    outer loop
      vertex 9.07295 54.8532 2.5
      vertex 10.9271 54.8532 5
      vertex 9.07295 54.8532 5
    endloop
  endfacet
  facet normal 0 -1 -0
    outer loop
      vertex 10.9271 54.8532 5
      vertex 9.07295 54.8532 2.5
      vertex 10.9271 54.8532 2.5
    endloop
  endfacet
  facet normal -0.587785 -0.809017 0
    outer loop
      vertex 10.9271 54.8532 2.5
      vertex 12.4271 53.7634 5
      vertex 10.9271 54.8532 5
    endloop
  endfacet
  facet normal -0.587785 -0.809017 -0
    outer loop
      vertex 12.4271 53.7634 5
      vertex 10.9271 54.8532 2.5
      vertex 12.4271 53.7634 2.5
    endloop
  endfacet
  facet normal 0.951057 0.309017 0
    outer loop
      vertex 7.57295 50.2366 5
      vertex 7 52 2.5
      vertex 7 52 5
    endloop
  endfacet
  facet normal 0.951057 0.309017 0
    outer loop
      vertex 7 52 2.5
      vertex 7.57295 50.2366 5
      vertex 7.57295 50.2366 2.5
    endloop
  endfacet
  facet normal 0.587785 -0.809017 0
    outer loop
      vertex 7.57295 53.7634 2.5
      vertex 9.07295 54.8532 5
      vertex 7.57295 53.7634 5
    endloop
  endfacet
  facet normal 0.587785 -0.809017 0
    outer loop
      vertex 9.07295 54.8532 5
      vertex 7.57295 53.7634 2.5
      vertex 9.07295 54.8532 2.5
    endloop
  endfacet
  facet normal -0.951056 0.309017 0
    outer loop
      vertex 12.4271 50.2366 2.5
      vertex 13 52 5
      vertex 13 52 2.5
    endloop
  endfacet
  facet normal -0.951056 0.309017 0
    outer loop
      vertex 13 52 5
      vertex 12.4271 50.2366 2.5
      vertex 12.4271 50.2366 5
    endloop
  endfacet
  facet normal -0.587786 0.809016 0
    outer loop
      vertex 12.4271 50.2366 2.5
      vertex 10.9271 49.1468 5
      vertex 12.4271 50.2366 5
    endloop
  endfacet
  facet normal -0.587786 0.809016 0
    outer loop
      vertex 10.9271 49.1468 5
      vertex 12.4271 50.2366 2.5
      vertex 10.9271 49.1468 2.5
    endloop
  endfacet
  facet normal 0.587786 0.809016 -0
    outer loop
      vertex 9.07295 49.1468 2.5
      vertex 7.57295 50.2366 5
      vertex 9.07295 49.1468 5
    endloop
  endfacet
  facet normal 0.587786 0.809016 0
    outer loop
      vertex 7.57295 50.2366 5
      vertex 9.07295 49.1468 2.5
      vertex 7.57295 50.2366 2.5
    endloop
  endfacet
  facet normal 0 0 1
    outer loop
      vertex 12.4271 53.7634 2.5
      vertex 12.4271 50.2366 2.5
      vertex 13 52 2.5
    endloop
  endfacet
  facet normal 0 0 1
    outer loop
      vertex 10.9271 54.8532 2.5
      vertex 12.4271 50.2366 2.5
      vertex 12.4271 53.7634 2.5
    endloop
  endfacet
  facet normal 0 0 1
    outer loop
      vertex 10.9271 54.8532 2.5
      vertex 10.9271 49.1468 2.5
      vertex 12.4271 50.2366 2.5
    endloop
  endfacet
  facet normal -0 0 1
    outer loop
      vertex 9.07295 54.8532 2.5
      vertex 10.9271 49.1468 2.5
      vertex 10.9271 54.8532 2.5
    endloop
  endfacet
  facet normal 0 0 1
    outer loop
      vertex 9.07295 54.8532 2.5
      vertex 9.07295 49.1468 2.5
      vertex 10.9271 49.1468 2.5
    endloop
  endfacet
  facet normal -0 0 1
    outer loop
      vertex 7.57295 53.7634 2.5
      vertex 9.07295 49.1468 2.5
      vertex 9.07295 54.8532 2.5
    endloop
  endfacet
  facet normal 0 0 1
    outer loop
      vertex 7.57295 53.7634 2.5
      vertex 7.57295 50.2366 2.5
      vertex 9.07295 49.1468 2.5
    endloop
  endfacet
  facet normal 0 -0 1
    outer loop
      vertex 7.57295 50.2366 2.5
      vertex 7.57295 53.7634 2.5
      vertex 7 52 2.5
    endloop
  endfacet
  facet normal 0 1 -0
    outer loop
      vertex 10.9271 49.1468 2.5
      vertex 9.07295 49.1468 5
      vertex 10.9271 49.1468 5
    endloop
  endfacet
  facet normal 0 1 0
    outer loop
      vertex 9.07295 49.1468 5
      vertex 10.9271 49.1468 2.5
      vertex 9.07295 49.1468 2.5
    endloop
  endfacet
  facet normal 0.951057 -0.309017 0
    outer loop
      vertex 7 52 5
      vertex 7.57295 53.7634 2.5
      vertex 7.57295 53.7634 5
    endloop
  endfacet
  facet normal 0.951057 -0.309017 0
    outer loop
      vertex 7.57295 53.7634 2.5
      vertex 7 52 5
      vertex 7 52 2.5
    endloop
  endfacet
  facet normal 0 -0.309017 0.951057
    outer loop
      vertex 87 16.7634 13.8229
      vertex 92 15 13.25
      vertex 92 16.7634 13.8229
    endloop
  endfacet
  facet normal 0 -0.309017 0.951057
    outer loop
      vertex 92 15 13.25
      vertex 87 16.7634 13.8229
      vertex 87 15 13.25
    endloop
  endfacet
  facet normal 0 -0.309017 -0.951057
    outer loop
      vertex 87 15 19.25
      vertex 92 16.7634 18.6771
      vertex 92 15 19.25
    endloop
  endfacet
  facet normal -0 -0.309017 -0.951057
    outer loop
      vertex 92 16.7634 18.6771
      vertex 87 15 19.25
      vertex 87 16.7634 18.6771
    endloop
  endfacet
  facet normal 0 1 -0
    outer loop
      vertex 92 12.1468 15.3229
      vertex 87 12.1468 17.1771
      vertex 92 12.1468 17.1771
    endloop
  endfacet
  facet normal 0 1 0
    outer loop
      vertex 87 12.1468 17.1771
      vertex 92 12.1468 15.3229
      vertex 87 12.1468 15.3229
    endloop
  endfacet
  facet normal 0 -0.809017 0.587785
    outer loop
      vertex 87 16.7634 13.8229
      vertex 92 17.8532 15.3229
      vertex 87 17.8532 15.3229
    endloop
  endfacet
  facet normal 0 -0.809017 0.587785
    outer loop
      vertex 92 17.8532 15.3229
      vertex 87 16.7634 13.8229
      vertex 92 16.7634 13.8229
    endloop
  endfacet
  facet normal 0 -0.809017 -0.587785
    outer loop
      vertex 87 17.8532 17.1771
      vertex 92 16.7634 18.6771
      vertex 87 16.7634 18.6771
    endloop
  endfacet
  facet normal 0 -0.809017 -0.587785
    outer loop
      vertex 92 16.7634 18.6771
      vertex 87 17.8532 17.1771
      vertex 92 17.8532 17.1771
    endloop
  endfacet
  facet normal 0 -1 0
    outer loop
      vertex 87 17.8532 15.3229
      vertex 92 17.8532 17.1771
      vertex 87 17.8532 17.1771
    endloop
  endfacet
  facet normal 0 -1 -0
    outer loop
      vertex 92 17.8532 17.1771
      vertex 87 17.8532 15.3229
      vertex 92 17.8532 15.3229
    endloop
  endfacet
  facet normal 0 0.809017 0.587785
    outer loop
      vertex 92 13.2366 13.8229
      vertex 87 12.1468 15.3229
      vertex 92 12.1468 15.3229
    endloop
  endfacet
  facet normal 0 0.809017 0.587785
    outer loop
      vertex 87 12.1468 15.3229
      vertex 92 13.2366 13.8229
      vertex 87 13.2366 13.8229
    endloop
  endfacet
  facet normal 0 0.809017 -0.587785
    outer loop
      vertex 92 12.1468 17.1771
      vertex 87 13.2366 18.6771
      vertex 92 13.2366 18.6771
    endloop
  endfacet
  facet normal 0 0.809017 -0.587785
    outer loop
      vertex 87 13.2366 18.6771
      vertex 92 12.1468 17.1771
      vertex 87 12.1468 17.1771
    endloop
  endfacet
  facet normal 0 0.309017 -0.951057
    outer loop
      vertex 87 13.2366 18.6771
      vertex 92 15 19.25
      vertex 92 13.2366 18.6771
    endloop
  endfacet
  facet normal 0 0.309017 -0.951057
    outer loop
      vertex 92 15 19.25
      vertex 87 13.2366 18.6771
      vertex 87 15 19.25
    endloop
  endfacet
  facet normal -0 0.309017 0.951057
    outer loop
      vertex 87 15 13.25
      vertex 92 13.2366 13.8229
      vertex 92 15 13.25
    endloop
  endfacet
  facet normal 0 0.309017 0.951057
    outer loop
      vertex 92 13.2366 13.8229
      vertex 87 15 13.25
      vertex 87 13.2366 13.8229
    endloop
  endfacet
  facet normal 0 -0.309017 0.951057
    outer loop
      vertex 87 16.7634 36.3229
      vertex 92 15 35.75
      vertex 92 16.7634 36.3229
    endloop
  endfacet
  facet normal 0 -0.309017 0.951057
    outer loop
      vertex 92 15 35.75
      vertex 87 16.7634 36.3229
      vertex 87 15 35.75
    endloop
  endfacet
  facet normal 0 -0.309017 -0.951057
    outer loop
      vertex 87 15 41.75
      vertex 92 16.7634 41.1771
      vertex 92 15 41.75
    endloop
  endfacet
  facet normal -0 -0.309017 -0.951057
    outer loop
      vertex 92 16.7634 41.1771
      vertex 87 15 41.75
      vertex 87 16.7634 41.1771
    endloop
  endfacet
  facet normal 0 1 -0
    outer loop
      vertex 92 12.1468 37.8229
      vertex 87 12.1468 39.6771
      vertex 92 12.1468 39.6771
    endloop
  endfacet
  facet normal 0 1 0
    outer loop
      vertex 87 12.1468 39.6771
      vertex 92 12.1468 37.8229
      vertex 87 12.1468 37.8229
    endloop
  endfacet
  facet normal 0 -0.809017 0.587785
    outer loop
      vertex 87 16.7634 36.3229
      vertex 92 17.8532 37.8229
      vertex 87 17.8532 37.8229
    endloop
  endfacet
  facet normal 0 -0.809017 0.587785
    outer loop
      vertex 92 17.8532 37.8229
      vertex 87 16.7634 36.3229
      vertex 92 16.7634 36.3229
    endloop
  endfacet
  facet normal 0 -0.809017 -0.587785
    outer loop
      vertex 87 17.8532 39.6771
      vertex 92 16.7634 41.1771
      vertex 87 16.7634 41.1771
    endloop
  endfacet
  facet normal 0 -0.809017 -0.587785
    outer loop
      vertex 92 16.7634 41.1771
      vertex 87 17.8532 39.6771
      vertex 92 17.8532 39.6771
    endloop
  endfacet
  facet normal 0 -1 0
    outer loop
      vertex 87 17.8532 37.8229
      vertex 92 17.8532 39.6771
      vertex 87 17.8532 39.6771
    endloop
  endfacet
  facet normal 0 -1 -0
    outer loop
      vertex 92 17.8532 39.6771
      vertex 87 17.8532 37.8229
      vertex 92 17.8532 37.8229
    endloop
  endfacet
  facet normal 0 0.809017 0.587785
    outer loop
      vertex 92 13.2366 36.3229
      vertex 87 12.1468 37.8229
      vertex 92 12.1468 37.8229
    endloop
  endfacet
  facet normal 0 0.809017 0.587785
    outer loop
      vertex 87 12.1468 37.8229
      vertex 92 13.2366 36.3229
      vertex 87 13.2366 36.3229
    endloop
  endfacet
  facet normal 0 0.809017 -0.587785
    outer loop
      vertex 92 12.1468 39.6771
      vertex 87 13.2366 41.1771
      vertex 92 13.2366 41.1771
    endloop
  endfacet
  facet normal 0 0.809017 -0.587785
    outer loop
      vertex 87 13.2366 41.1771
      vertex 92 12.1468 39.6771
      vertex 87 12.1468 39.6771
    endloop
  endfacet
  facet normal 0 0.309017 -0.951057
    outer loop
      vertex 87 13.2366 41.1771
      vertex 92 15 41.75
      vertex 92 13.2366 41.1771
    endloop
  endfacet
  facet normal 0 0.309017 -0.951057
    outer loop
      vertex 92 15 41.75
      vertex 87 13.2366 41.1771
      vertex 87 15 41.75
    endloop
  endfacet
  facet normal -0 0.309017 0.951057
    outer loop
      vertex 87 15 35.75
      vertex 92 13.2366 36.3229
      vertex 92 15 35.75
    endloop
  endfacet
  facet normal 0 0.309017 0.951057
    outer loop
      vertex 92 13.2366 36.3229
      vertex 87 15 35.75
      vertex 87 13.2366 36.3229
    endloop
  endfacet
  facet normal 0 0 -1
    outer loop
      vertex 87 18 30.25
      vertex 89.5 44.5 30.25
      vertex 89.5 18 30.25
    endloop
  endfacet
  facet normal -0 0 -1
    outer loop
      vertex 89.5 44.5 30.25
      vertex 87 18 30.25
      vertex 87 44.5 30.25
    endloop
  endfacet
  facet normal -1 0 0
    outer loop
      vertex 89.5 18 27.75
      vertex 89.5 44.5 30.25
      vertex 89.5 44.5 27.75
    endloop
  endfacet
  facet normal -1 -0 0
    outer loop
      vertex 89.5 44.5 30.25
      vertex 89.5 18 27.75
      vertex 89.5 18 30.25
    endloop
  endfacet
  facet normal -0 0 1
    outer loop
      vertex 87 44.5 27.75
      vertex 89.5 18 27.75
      vertex 89.5 44.5 27.75
    endloop
  endfacet
  facet normal 0 0 1
    outer loop
      vertex 89.5 18 27.75
      vertex 87 44.5 27.75
      vertex 87 18 27.75
    endloop
  endfacet
  facet normal 0 1 -0
    outer loop
      vertex 89.5 18 27.75
      vertex 87 18 30.25
      vertex 89.5 18 30.25
    endloop
  endfacet
  facet normal 0 1 0
    outer loop
      vertex 87 18 30.25
      vertex 89.5 18 27.75
      vertex 87 18 27.75
    endloop
  endfacet
  facet normal 0 -1 0
    outer loop
      vertex 87 44.5 27.75
      vertex 89.5 44.5 30.25
      vertex 87 44.5 30.25
    endloop
  endfacet
  facet normal 0 -1 -0
    outer loop
      vertex 89.5 44.5 30.25
      vertex 87 44.5 27.75
      vertex 89.5 44.5 27.75
    endloop
  endfacet
  facet normal 0 -1 0
    outer loop
      vertex 0 47.65 25
      vertex 5 47.65 33
      vertex 0 47.65 33
    endloop
  endfacet
  facet normal 0 -1 -0
    outer loop
      vertex 5 47.65 33
      vertex 0 47.65 25
      vertex 5 47.65 25
    endloop
  endfacet
  facet normal 0 0 -1
    outer loop
      vertex 0 15.35 33
      vertex 5 47.65 33
      vertex 5 15.35 33
    endloop
  endfacet
  facet normal -0 0 -1
    outer loop
      vertex 5 47.65 33
      vertex 0 15.35 33
      vertex 0 47.65 33
    endloop
  endfacet
  facet normal 0 1 -0
    outer loop
      vertex 5 15.35 25
      vertex 0 15.35 33
      vertex 5 15.35 33
    endloop
  endfacet
  facet normal 0 1 0
    outer loop
      vertex 0 15.35 33
      vertex 5 15.35 25
      vertex 0 15.35 25
    endloop
  endfacet
  facet normal -0 0 1
    outer loop
      vertex 0 47.65 25
      vertex 5 15.35 25
      vertex 5 47.65 25
    endloop
  endfacet
  facet normal 0 0 1
    outer loop
      vertex 5 15.35 25
      vertex 0 47.65 25
      vertex 0 15.35 25
    endloop
  endfacet
  facet normal 1 -0 0
    outer loop
      vertex 2.5 2.5 50
      vertex 2.5 59.5 46
      vertex 2.5 59.5 50
    endloop
  endfacet
  facet normal 1 0 0
    outer loop
      vertex 2.5 59.5 46
      vertex 2.5 2.5 50
      vertex 2.5 2.5 46
    endloop
  endfacet
  facet normal -1 0 0
    outer loop
      vertex 89.5 2.5 46
      vertex 89.5 59.5 50
      vertex 89.5 59.5 46
    endloop
  endfacet
  facet normal -1 -0 0
    outer loop
      vertex 89.5 59.5 50
      vertex 89.5 2.5 46
      vertex 89.5 2.5 50
    endloop
  endfacet
  facet normal 0 0 1
    outer loop
      vertex 89.5 59.5 46
      vertex 87 57 46
      vertex 89.5 2.5 46
    endloop
  endfacet
  facet normal 0 0 1
    outer loop
      vertex 89.5 59.5 46
      vertex 5 57 46
      vertex 87 57 46
    endloop
  endfacet
  facet normal 0 0 1
    outer loop
      vertex 5 57 46
      vertex 2.5 59.5 46
      vertex 5 5 46
    endloop
  endfacet
  facet normal -0 0 1
    outer loop
      vertex 2.5 59.5 46
      vertex 5 57 46
      vertex 89.5 59.5 46
    endloop
  endfacet
  facet normal -0 0 1
    outer loop
      vertex 87 5 46
      vertex 89.5 2.5 46
      vertex 87 57 46
    endloop
  endfacet
  facet normal -0 0 1
    outer loop
      vertex 5 5 46
      vertex 89.5 2.5 46
      vertex 87 5 46
    endloop
  endfacet
  facet normal 0 0 1
    outer loop
      vertex 5 5 46
      vertex 2.5 2.5 46
      vertex 89.5 2.5 46
    endloop
  endfacet
  facet normal 0 0 1
    outer loop
      vertex 2.5 2.5 46
      vertex 5 5 46
      vertex 2.5 59.5 46
    endloop
  endfacet
  facet normal 0 1 -0
    outer loop
      vertex 89.5 2.5 46
      vertex 2.5 2.5 50
      vertex 89.5 2.5 50
    endloop
  endfacet
  facet normal 0 1 0
    outer loop
      vertex 2.5 2.5 50
      vertex 89.5 2.5 46
      vertex 2.5 2.5 46
    endloop
  endfacet
  facet normal 0 -1 0
    outer loop
      vertex 2.5 59.5 46
      vertex 89.5 59.5 50
      vertex 2.5 59.5 50
    endloop
  endfacet
  facet normal 0 -1 -0
    outer loop
      vertex 89.5 59.5 50
      vertex 2.5 59.5 46
      vertex 89.5 59.5 46
    endloop
  endfacet
endsolid OpenSCAD_Model
