solid OpenSCAD_Model
  facet normal -1 0 0
    outer loop
      vertex 0 0 0
      vertex 0 57 5
      vertex 0 57 0
    endloop
  endfacet
  facet normal -1 -0 0
    outer loop
      vertex 0 57 5
      vertex 0 0 0
      vertex 0 0 5
    endloop
  endfacet
  facet normal 0 0 1
    outer loop
      vertex 87 57 5
      vertex 51 26 5
      vertex 87 0 5
    endloop
  endfacet
  facet normal 0 0 1
    outer loop
      vertex 87 57 5
      vertex 50.7815 28.0791 5
      vertex 51 26 5
    endloop
  endfacet
  facet normal 0 0 1
    outer loop
      vertex 87 57 5
      vertex 50.1355 30.0674 5
      vertex 50.7815 28.0791 5
    endloop
  endfacet
  facet normal 0 0 1
    outer loop
      vertex 87 57 5
      vertex 49.0902 31.8779 5
      vertex 50.1355 30.0674 5
    endloop
  endfacet
  facet normal 0 0 1
    outer loop
      vertex 87 57 5
      vertex 47.6913 33.4314 5
      vertex 49.0902 31.8779 5
    endloop
  endfacet
  facet normal 0 0 1
    outer loop
      vertex 87 57 5
      vertex 46 34.6603 5
      vertex 47.6913 33.4314 5
    endloop
  endfacet
  facet normal 0 0 1
    outer loop
      vertex 87 57 5
      vertex 44.0902 35.5106 5
      vertex 46 34.6603 5
    endloop
  endfacet
  facet normal 0 0 1
    outer loop
      vertex 87 57 5
      vertex 42.0453 35.9452 5
      vertex 44.0902 35.5106 5
    endloop
  endfacet
  facet normal -0 0 1
    outer loop
      vertex 0 57 5
      vertex 42.0453 35.9452 5
      vertex 87 57 5
    endloop
  endfacet
  facet normal 0 0 1
    outer loop
      vertex 42.0453 35.9452 5
      vertex 0 57 5
      vertex 39.9547 35.9452 5
    endloop
  endfacet
  facet normal 0 0 1
    outer loop
      vertex 31.2185 28.0791 5
      vertex 0 57 5
      vertex 31 26 5
    endloop
  endfacet
  facet normal 0 0 1
    outer loop
      vertex 31.8645 30.0674 5
      vertex 0 57 5
      vertex 31.2185 28.0791 5
    endloop
  endfacet
  facet normal 0 0 1
    outer loop
      vertex 32.9098 31.8779 5
      vertex 0 57 5
      vertex 31.8645 30.0674 5
    endloop
  endfacet
  facet normal 0 0 1
    outer loop
      vertex 34.3087 33.4314 5
      vertex 0 57 5
      vertex 32.9098 31.8779 5
    endloop
  endfacet
  facet normal 0 0 1
    outer loop
      vertex 36 34.6603 5
      vertex 0 57 5
      vertex 34.3087 33.4314 5
    endloop
  endfacet
  facet normal 0 0 1
    outer loop
      vertex 37.9098 35.5106 5
      vertex 0 57 5
      vertex 36 34.6603 5
    endloop
  endfacet
  facet normal 0 0 1
    outer loop
      vertex 39.9547 35.9452 5
      vertex 0 57 5
      vertex 37.9098 35.5106 5
    endloop
  endfacet
  facet normal -0 0 1
    outer loop
      vertex 50.7815 23.9209 5
      vertex 87 0 5
      vertex 51 26 5
    endloop
  endfacet
  facet normal -0 0 1
    outer loop
      vertex 50.1355 21.9326 5
      vertex 87 0 5
      vertex 50.7815 23.9209 5
    endloop
  endfacet
  facet normal -0 0 1
    outer loop
      vertex 49.0902 20.1221 5
      vertex 87 0 5
      vertex 50.1355 21.9326 5
    endloop
  endfacet
  facet normal -0 0 1
    outer loop
      vertex 47.6913 18.5686 5
      vertex 87 0 5
      vertex 49.0902 20.1221 5
    endloop
  endfacet
  facet normal -0 0 1
    outer loop
      vertex 46 17.3397 5
      vertex 87 0 5
      vertex 47.6913 18.5686 5
    endloop
  endfacet
  facet normal -0 0 1
    outer loop
      vertex 44.0902 16.4894 5
      vertex 87 0 5
      vertex 46 17.3397 5
    endloop
  endfacet
  facet normal -0 0 1
    outer loop
      vertex 42.0453 16.0548 5
      vertex 87 0 5
      vertex 44.0902 16.4894 5
    endloop
  endfacet
  facet normal 0 0 1
    outer loop
      vertex 0 0 5
      vertex 42.0453 16.0548 5
      vertex 39.9547 16.0548 5
    endloop
  endfacet
  facet normal 0 0 1
    outer loop
      vertex 0 0 5
      vertex 39.9547 16.0548 5
      vertex 37.9098 16.4894 5
    endloop
  endfacet
  facet normal 0 0 1
    outer loop
      vertex 0 0 5
      vertex 31 26 5
      vertex 0 57 5
    endloop
  endfacet
  facet normal 0 0 1
    outer loop
      vertex 31 26 5
      vertex 0 0 5
      vertex 31.2185 23.9209 5
    endloop
  endfacet
  facet normal 0 0 1
    outer loop
      vertex 31.2185 23.9209 5
      vertex 0 0 5
      vertex 31.8645 21.9326 5
    endloop
  endfacet
  facet normal 0 0 1
    outer loop
      vertex 42.0453 16.0548 5
      vertex 0 0 5
      vertex 87 0 5
    endloop
  endfacet
  facet normal 0 0 1
    outer loop
      vertex 36 17.3397 5
      vertex 0 0 5
      vertex 37.9098 16.4894 5
    endloop
  endfacet
  facet normal 0 0 1
    outer loop
      vertex 34.3087 18.5686 5
      vertex 0 0 5
      vertex 36 17.3397 5
    endloop
  endfacet
  facet normal 0 0 1
    outer loop
      vertex 32.9098 20.1221 5
      vertex 0 0 5
      vertex 34.3087 18.5686 5
    endloop
  endfacet
  facet normal 0 0 1
    outer loop
      vertex 31.8645 21.9326 5
      vertex 0 0 5
      vertex 32.9098 20.1221 5
    endloop
  endfacet
  facet normal 1 -0 0
    outer loop
      vertex 87 0 5
      vertex 87 57 0
      vertex 87 57 5
    endloop
  endfacet
  facet normal 1 0 0
    outer loop
      vertex 87 57 0
      vertex 87 0 5
      vertex 87 0 0
    endloop
  endfacet
  facet normal 0 1 -0
    outer loop
      vertex 87 57 0
      vertex 0 57 5
      vertex 87 57 5
    endloop
  endfacet
  facet normal 0 1 0
    outer loop
      vertex 0 57 5
      vertex 87 57 0
      vertex 0 57 0
    endloop
  endfacet
  facet normal 0 0 -1
    outer loop
      vertex 0 0 0
      vertex 87 57 0
      vertex 87 0 0
    endloop
  endfacet
  facet normal -0 0 -1
    outer loop
      vertex 87 57 0
      vertex 0 0 0
      vertex 0 57 0
    endloop
  endfacet
  facet normal 0 -1 0
    outer loop
      vertex 0 0 0
      vertex 87 0 5
      vertex 0 0 5
    endloop
  endfacet
  facet normal 0 -1 -0
    outer loop
      vertex 87 0 5
      vertex 0 0 0
      vertex 87 0 0
    endloop
  endfacet
  facet normal 0.994522 0.104529 0
    outer loop
      vertex 51 26 24
      vertex 50.7815 28.0791 5
      vertex 50.7815 28.0791 24
    endloop
  endfacet
  facet normal 0.994522 0.104529 0
    outer loop
      vertex 50.7815 28.0791 5
      vertex 51 26 24
      vertex 51 26 5
    endloop
  endfacet
  facet normal -0.20791 0.978148 0
    outer loop
      vertex 39.9547 35.9452 5
      vertex 37.9098 35.5106 24
      vertex 39.9547 35.9452 24
    endloop
  endfacet
  facet normal -0.20791 0.978148 0
    outer loop
      vertex 37.9098 35.5106 24
      vertex 39.9547 35.9452 5
      vertex 37.9098 35.5106 5
    endloop
  endfacet
  facet normal 0.207911 -0.978148 0
    outer loop
      vertex 42.0453 16.0548 5
      vertex 44.0902 16.4894 24
      vertex 42.0453 16.0548 24
    endloop
  endfacet
  facet normal 0.207911 -0.978148 0
    outer loop
      vertex 44.0902 16.4894 24
      vertex 42.0453 16.0548 5
      vertex 44.0902 16.4894 5
    endloop
  endfacet
  facet normal 0.406737 -0.913545 0
    outer loop
      vertex 44.0902 16.4894 5
      vertex 46 17.3397 24
      vertex 44.0902 16.4894 24
    endloop
  endfacet
  facet normal 0.406737 -0.913545 0
    outer loop
      vertex 46 17.3397 24
      vertex 44.0902 16.4894 5
      vertex 46 17.3397 5
    endloop
  endfacet
  facet normal 0.587785 0.809017 -0
    outer loop
      vertex 47.6913 33.4314 5
      vertex 46 34.6603 24
      vertex 47.6913 33.4314 24
    endloop
  endfacet
  facet normal 0.587785 0.809017 0
    outer loop
      vertex 46 34.6603 24
      vertex 47.6913 33.4314 5
      vertex 46 34.6603 5
    endloop
  endfacet
  facet normal -0.743145 0.669131 0
    outer loop
      vertex 32.9098 31.8779 5
      vertex 34.3087 33.4314 24
      vertex 34.3087 33.4314 5
    endloop
  endfacet
  facet normal -0.743145 0.669131 0
    outer loop
      vertex 34.3087 33.4314 24
      vertex 32.9098 31.8779 5
      vertex 32.9098 31.8779 24
    endloop
  endfacet
  facet normal -0.587785 0.809017 0
    outer loop
      vertex 36 34.6603 5
      vertex 34.3087 33.4314 24
      vertex 36 34.6603 24
    endloop
  endfacet
  facet normal -0.587785 0.809017 0
    outer loop
      vertex 34.3087 33.4314 24
      vertex 36 34.6603 5
      vertex 34.3087 33.4314 5
    endloop
  endfacet
  facet normal 0.866026 0.499998 0
    outer loop
      vertex 50.1355 30.0674 24
      vertex 49.0902 31.8779 5
      vertex 49.0902 31.8779 24
    endloop
  endfacet
  facet normal 0.866026 0.499998 0
    outer loop
      vertex 49.0902 31.8779 5
      vertex 50.1355 30.0674 24
      vertex 50.1355 30.0674 5
    endloop
  endfacet
  facet normal 0.951056 0.309018 0
    outer loop
      vertex 50.7815 28.0791 24
      vertex 50.1355 30.0674 5
      vertex 50.1355 30.0674 24
    endloop
  endfacet
  facet normal 0.951056 0.309018 0
    outer loop
      vertex 50.1355 30.0674 5
      vertex 50.7815 28.0791 24
      vertex 50.7815 28.0791 5
    endloop
  endfacet
  facet normal 0.743145 0.669131 0
    outer loop
      vertex 49.0902 31.8779 24
      vertex 47.6913 33.4314 5
      vertex 47.6913 33.4314 24
    endloop
  endfacet
  facet normal 0.743145 0.669131 0
    outer loop
      vertex 47.6913 33.4314 5
      vertex 49.0902 31.8779 24
      vertex 49.0902 31.8779 5
    endloop
  endfacet
  facet normal 0.20791 0.978148 -0
    outer loop
      vertex 44.0902 35.5106 5
      vertex 42.0453 35.9452 24
      vertex 44.0902 35.5106 24
    endloop
  endfacet
  facet normal 0.20791 0.978148 0
    outer loop
      vertex 42.0453 35.9452 24
      vertex 44.0902 35.5106 5
      vertex 42.0453 35.9452 5
    endloop
  endfacet
  facet normal 0 1 -0
    outer loop
      vertex 42.0453 35.9452 5
      vertex 39.9547 35.9452 24
      vertex 42.0453 35.9452 24
    endloop
  endfacet
  facet normal 0 1 0
    outer loop
      vertex 39.9547 35.9452 24
      vertex 42.0453 35.9452 5
      vertex 39.9547 35.9452 5
    endloop
  endfacet
  facet normal 0.406737 0.913545 -0
    outer loop
      vertex 46 34.6603 5
      vertex 44.0902 35.5106 24
      vertex 46 34.6603 24
    endloop
  endfacet
  facet normal 0.406737 0.913545 0
    outer loop
      vertex 44.0902 35.5106 24
      vertex 46 34.6603 5
      vertex 44.0902 35.5106 5
    endloop
  endfacet
  facet normal -0.951057 0.309016 0
    outer loop
      vertex 31.2185 28.0791 5
      vertex 31.8645 30.0674 24
      vertex 31.8645 30.0674 5
    endloop
  endfacet
  facet normal -0.951057 0.309016 0
    outer loop
      vertex 31.8645 30.0674 24
      vertex 31.2185 28.0791 5
      vertex 31.2185 28.0791 24
    endloop
  endfacet
  facet normal -0.866026 0.5 0
    outer loop
      vertex 31.8645 30.0674 5
      vertex 32.9098 31.8779 24
      vertex 32.9098 31.8779 5
    endloop
  endfacet
  facet normal -0.866026 0.5 0
    outer loop
      vertex 32.9098 31.8779 24
      vertex 31.8645 30.0674 5
      vertex 31.8645 30.0674 24
    endloop
  endfacet
  facet normal -0.994522 0.104529 0
    outer loop
      vertex 31 26 5
      vertex 31.2185 28.0791 24
      vertex 31.2185 28.0791 5
    endloop
  endfacet
  facet normal -0.994522 0.104529 0
    outer loop
      vertex 31.2185 28.0791 24
      vertex 31 26 5
      vertex 31 26 24
    endloop
  endfacet
  facet normal 0 0 1
    outer loop
      vertex 50.7815 28.0791 24
      vertex 50.7815 23.9209 24
      vertex 51 26 24
    endloop
  endfacet
  facet normal 0 0 1
    outer loop
      vertex 50.1355 30.0674 24
      vertex 50.7815 23.9209 24
      vertex 50.7815 28.0791 24
    endloop
  endfacet
  facet normal 0 0 1
    outer loop
      vertex 50.1355 30.0674 24
      vertex 50.1355 21.9326 24
      vertex 50.7815 23.9209 24
    endloop
  endfacet
  facet normal 0 0 1
    outer loop
      vertex 49.0902 31.8779 24
      vertex 50.1355 21.9326 24
      vertex 50.1355 30.0674 24
    endloop
  endfacet
  facet normal 0 0 1
    outer loop
      vertex 49.0902 31.8779 24
      vertex 49.0902 20.1221 24
      vertex 50.1355 21.9326 24
    endloop
  endfacet
  facet normal 0 0 1
    outer loop
      vertex 47.6913 33.4314 24
      vertex 49.0902 20.1221 24
      vertex 49.0902 31.8779 24
    endloop
  endfacet
  facet normal 0 0 1
    outer loop
      vertex 47.6913 33.4314 24
      vertex 47.6913 18.5686 24
      vertex 49.0902 20.1221 24
    endloop
  endfacet
  facet normal 0 0 1
    outer loop
      vertex 46 34.6603 24
      vertex 47.6913 18.5686 24
      vertex 47.6913 33.4314 24
    endloop
  endfacet
  facet normal 0 0 1
    outer loop
      vertex 46 34.6603 24
      vertex 46 17.3397 24
      vertex 47.6913 18.5686 24
    endloop
  endfacet
  facet normal 0 0 1
    outer loop
      vertex 44.0902 35.5106 24
      vertex 46 17.3397 24
      vertex 46 34.6603 24
    endloop
  endfacet
  facet normal 0 0 1
    outer loop
      vertex 44.0902 35.5106 24
      vertex 44.0902 16.4894 24
      vertex 46 17.3397 24
    endloop
  endfacet
  facet normal 0 0 1
    outer loop
      vertex 42.0453 35.9452 24
      vertex 44.0902 16.4894 24
      vertex 44.0902 35.5106 24
    endloop
  endfacet
  facet normal 0 0 1
    outer loop
      vertex 42.0453 35.9452 24
      vertex 42.0453 16.0548 24
      vertex 44.0902 16.4894 24
    endloop
  endfacet
  facet normal -0 0 1
    outer loop
      vertex 39.9547 35.9452 24
      vertex 42.0453 16.0548 24
      vertex 42.0453 35.9452 24
    endloop
  endfacet
  facet normal 0 0 1
    outer loop
      vertex 39.9547 35.9452 24
      vertex 39.9547 16.0548 24
      vertex 42.0453 16.0548 24
    endloop
  endfacet
  facet normal -0 0 1
    outer loop
      vertex 37.9098 35.5106 24
      vertex 39.9547 16.0548 24
      vertex 39.9547 35.9452 24
    endloop
  endfacet
  facet normal 0 0 1
    outer loop
      vertex 37.9098 35.5106 24
      vertex 37.9098 16.4894 24
      vertex 39.9547 16.0548 24
    endloop
  endfacet
  facet normal -0 0 1
    outer loop
      vertex 36 34.6603 24
      vertex 37.9098 16.4894 24
      vertex 37.9098 35.5106 24
    endloop
  endfacet
  facet normal 0 0 1
    outer loop
      vertex 36 34.6603 24
      vertex 36 17.3397 24
      vertex 37.9098 16.4894 24
    endloop
  endfacet
  facet normal -0 0 1
    outer loop
      vertex 34.3087 33.4314 24
      vertex 36 17.3397 24
      vertex 36 34.6603 24
    endloop
  endfacet
  facet normal 0 0 1
    outer loop
      vertex 34.3087 33.4314 24
      vertex 34.3087 18.5686 24
      vertex 36 17.3397 24
    endloop
  endfacet
  facet normal -0 0 1
    outer loop
      vertex 32.9098 31.8779 24
      vertex 34.3087 18.5686 24
      vertex 34.3087 33.4314 24
    endloop
  endfacet
  facet normal 0 0 1
    outer loop
      vertex 32.9098 31.8779 24
      vertex 32.9098 20.1221 24
      vertex 34.3087 18.5686 24
    endloop
  endfacet
  facet normal -0 0 1
    outer loop
      vertex 31.8645 30.0674 24
      vertex 32.9098 20.1221 24
      vertex 32.9098 31.8779 24
    endloop
  endfacet
  facet normal 0 0 1
    outer loop
      vertex 31.8645 30.0674 24
      vertex 31.8645 21.9326 24
      vertex 32.9098 20.1221 24
    endloop
  endfacet
  facet normal -0 0 1
    outer loop
      vertex 31.2185 28.0791 24
      vertex 31.8645 21.9326 24
      vertex 31.8645 30.0674 24
    endloop
  endfacet
  facet normal 0 0 1
    outer loop
      vertex 31.2185 28.0791 24
      vertex 31.2185 23.9209 24
      vertex 31.8645 21.9326 24
    endloop
  endfacet
  facet normal 0 -0 1
    outer loop
      vertex 31.2185 23.9209 24
      vertex 31.2185 28.0791 24
      vertex 31 26 24
    endloop
  endfacet
  facet normal -0.406737 0.913545 0
    outer loop
      vertex 37.9098 35.5106 5
      vertex 36 34.6603 24
      vertex 37.9098 35.5106 24
    endloop
  endfacet
  facet normal -0.406737 0.913545 0
    outer loop
      vertex 36 34.6603 24
      vertex 37.9098 35.5106 5
      vertex 36 34.6603 5
    endloop
  endfacet
  facet normal 0.994522 -0.104529 0
    outer loop
      vertex 50.7815 23.9209 24
      vertex 51 26 5
      vertex 51 26 24
    endloop
  endfacet
  facet normal 0.994522 -0.104529 0
    outer loop
      vertex 51 26 5
      vertex 50.7815 23.9209 24
      vertex 50.7815 23.9209 5
    endloop
  endfacet
  facet normal 0.743145 -0.669131 0
    outer loop
      vertex 47.6913 18.5686 24
      vertex 49.0902 20.1221 5
      vertex 49.0902 20.1221 24
    endloop
  endfacet
  facet normal 0.743145 -0.669131 0
    outer loop
      vertex 49.0902 20.1221 5
      vertex 47.6913 18.5686 24
      vertex 47.6913 18.5686 5
    endloop
  endfacet
  facet normal -0.994522 -0.104529 0
    outer loop
      vertex 31.2185 23.9209 5
      vertex 31 26 24
      vertex 31 26 5
    endloop
  endfacet
  facet normal -0.994522 -0.104529 0
    outer loop
      vertex 31 26 24
      vertex 31.2185 23.9209 5
      vertex 31.2185 23.9209 24
    endloop
  endfacet
  facet normal 0.866026 -0.499999 0
    outer loop
      vertex 49.0902 20.1221 24
      vertex 50.1355 21.9326 5
      vertex 50.1355 21.9326 24
    endloop
  endfacet
  facet normal 0.866026 -0.499999 0
    outer loop
      vertex 50.1355 21.9326 5
      vertex 49.0902 20.1221 24
      vertex 49.0902 20.1221 5
    endloop
  endfacet
  facet normal -0.406737 -0.913545 0
    outer loop
      vertex 36 17.3397 5
      vertex 37.9098 16.4894 24
      vertex 36 17.3397 24
    endloop
  endfacet
  facet normal -0.406737 -0.913545 -0
    outer loop
      vertex 37.9098 16.4894 24
      vertex 36 17.3397 5
      vertex 37.9098 16.4894 5
    endloop
  endfacet
  facet normal -0.743145 -0.669131 0
    outer loop
      vertex 34.3087 18.5686 5
      vertex 32.9098 20.1221 24
      vertex 32.9098 20.1221 5
    endloop
  endfacet
  facet normal -0.743145 -0.669131 0
    outer loop
      vertex 32.9098 20.1221 24
      vertex 34.3087 18.5686 5
      vertex 34.3087 18.5686 24
    endloop
  endfacet
  facet normal 0.587785 -0.809017 0
    outer loop
      vertex 46 17.3397 5
      vertex 47.6913 18.5686 24
      vertex 46 17.3397 24
    endloop
  endfacet
  facet normal 0.587785 -0.809017 0
    outer loop
      vertex 47.6913 18.5686 24
      vertex 46 17.3397 5
      vertex 47.6913 18.5686 5
    endloop
  endfacet
  facet normal 0.951056 -0.309017 0
    outer loop
      vertex 50.1355 21.9326 24
      vertex 50.7815 23.9209 5
      vertex 50.7815 23.9209 24
    endloop
  endfacet
  facet normal 0.951056 -0.309017 0
    outer loop
      vertex 50.7815 23.9209 5
      vertex 50.1355 21.9326 24
      vertex 50.1355 21.9326 5
    endloop
  endfacet
  facet normal 0 -1 0
    outer loop
      vertex 39.9547 16.0548 5
      vertex 42.0453 16.0548 24
      vertex 39.9547 16.0548 24
    endloop
  endfacet
  facet normal 0 -1 -0
    outer loop
      vertex 42.0453 16.0548 24
      vertex 39.9547 16.0548 5
      vertex 42.0453 16.0548 5
    endloop
  endfacet
  facet normal -0.207911 -0.978148 0
    outer loop
      vertex 37.9098 16.4894 5
      vertex 39.9547 16.0548 24
      vertex 37.9098 16.4894 24
    endloop
  endfacet
  facet normal -0.207911 -0.978148 -0
    outer loop
      vertex 39.9547 16.0548 24
      vertex 37.9098 16.4894 5
      vertex 39.9547 16.0548 5
    endloop
  endfacet
  facet normal -0.587785 -0.809017 0
    outer loop
      vertex 34.3087 18.5686 5
      vertex 36 17.3397 24
      vertex 34.3087 18.5686 24
    endloop
  endfacet
  facet normal -0.587785 -0.809017 -0
    outer loop
      vertex 36 17.3397 24
      vertex 34.3087 18.5686 5
      vertex 36 17.3397 5
    endloop
  endfacet
  facet normal -0.866025 -0.5 0
    outer loop
      vertex 32.9098 20.1221 5
      vertex 31.8645 21.9326 24
      vertex 31.8645 21.9326 5
    endloop
  endfacet
  facet normal -0.866025 -0.5 0
    outer loop
      vertex 31.8645 21.9326 24
      vertex 32.9098 20.1221 5
      vertex 32.9098 20.1221 24
    endloop
  endfacet
  facet normal -0.951057 -0.309016 0
    outer loop
      vertex 31.8645 21.9326 5
      vertex 31.2185 23.9209 24
      vertex 31.2185 23.9209 5
    endloop
  endfacet
  facet normal -0.951057 -0.309016 0
    outer loop
      vertex 31.2185 23.9209 24
      vertex 31.8645 21.9326 5
      vertex 31.8645 21.9326 24
    endloop
  endfacet
endsolid OpenSCAD_Model
