solid OpenSCAD_Model
  facet normal -0.92388 -0.382683 0
    outer loop
      vertex 0.802943 0.802943 0
      vertex 0.0999994 2.5 5
      vertex 0.0999994 2.5 0
    endloop
  endfacet
  facet normal -0.92388 -0.382683 0
    outer loop
      vertex 0.0999994 2.5 5
      vertex 0.802943 0.802943 0
      vertex 0.802943 0.802943 5
    endloop
  endfacet
  facet normal 0 0 -1
    outer loop
      vertex 82.7 0.0999994 0
      vertex 85.1 2.5 0
      vertex 84.3971 0.802943 0
    endloop
  endfacet
  facet normal -0 0 -1
    outer loop
      vertex 85.1 2.5 0
      vertex 82.7 0.0999994 0
      vertex 85.1 52.7 0
    endloop
  endfacet
  facet normal 0 0 -1
    outer loop
      vertex 82.7 55.1 0
      vertex 85.1 52.7 0
      vertex 82.7 0.0999994 0
    endloop
  endfacet
  facet normal 0 0 -1
    outer loop
      vertex 85.1 52.7 0
      vertex 82.7 55.1 0
      vertex 84.3971 54.3971 0
    endloop
  endfacet
  facet normal 0 0 -1
    outer loop
      vertex 82.7 0.0999994 0
      vertex 2.5 55.1 0
      vertex 82.7 55.1 0
    endloop
  endfacet
  facet normal 0 0 -1
    outer loop
      vertex 2.5 0.0999994 0
      vertex 2.5 55.1 0
      vertex 82.7 0.0999994 0
    endloop
  endfacet
  facet normal 0 0 -1
    outer loop
      vertex 0.0999994 2.5 0
      vertex 2.5 0.0999994 0
      vertex 0.802943 0.802943 0
    endloop
  endfacet
  facet normal 0 0 -1
    outer loop
      vertex 2.5 0.0999994 0
      vertex 0.0999994 2.5 0
      vertex 2.5 55.1 0
    endloop
  endfacet
  facet normal 0 0 -1
    outer loop
      vertex 0.0999994 52.7 0
      vertex 2.5 55.1 0
      vertex 0.0999994 2.5 0
    endloop
  endfacet
  facet normal 0 0 -1
    outer loop
      vertex 2.5 55.1 0
      vertex 0.0999994 52.7 0
      vertex 0.802943 54.3971 0
    endloop
  endfacet
  facet normal -1 0 0
    outer loop
      vertex 0.0999994 2.5 0
      vertex 0.0999994 52.7 5
      vertex 0.0999994 52.7 0
    endloop
  endfacet
  facet normal -1 -0 0
    outer loop
      vertex 0.0999994 52.7 5
      vertex 0.0999994 2.5 0
      vertex 0.0999994 2.5 5
    endloop
  endfacet
  facet normal 0.92388 0.382683 0
    outer loop
      vertex 85.1 52.7 5
      vertex 84.3971 54.3971 0
      vertex 84.3971 54.3971 5
    endloop
  endfacet
  facet normal 0.92388 0.382683 0
    outer loop
      vertex 84.3971 54.3971 0
      vertex 85.1 52.7 5
      vertex 85.1 52.7 0
    endloop
  endfacet
  facet normal 0.92388 -0.382682 0
    outer loop
      vertex 84.3971 0.802943 5
      vertex 85.1 2.5 0
      vertex 85.1 2.5 5
    endloop
  endfacet
  facet normal 0.92388 -0.382682 0
    outer loop
      vertex 85.1 2.5 0
      vertex 84.3971 0.802943 5
      vertex 84.3971 0.802943 0
    endloop
  endfacet
  facet normal -0.382684 -0.923879 0
    outer loop
      vertex 0.802943 0.802943 0
      vertex 2.5 0.0999994 5
      vertex 0.802943 0.802943 5
    endloop
  endfacet
  facet normal -0.382684 -0.923879 -0
    outer loop
      vertex 2.5 0.0999994 5
      vertex 0.802943 0.802943 0
      vertex 2.5 0.0999994 0
    endloop
  endfacet
  facet normal 0 0 1
    outer loop
      vertex 82.7 55.1 5
      vertex 85.1 52.7 5
      vertex 84.3971 54.3971 5
    endloop
  endfacet
  facet normal 0 0 1
    outer loop
      vertex 85.1 52.7 5
      vertex 52.6 27.6 5
      vertex 85.1 2.5 5
    endloop
  endfacet
  facet normal 0 0 1
    outer loop
      vertex 51.7355 31.6674 5
      vertex 85.1 52.7 5
      vertex 82.7 55.1 5
    endloop
  endfacet
  facet normal -0 0 1
    outer loop
      vertex 52.3815 25.5209 5
      vertex 85.1 2.5 5
      vertex 52.6 27.6 5
    endloop
  endfacet
  facet normal -0 0 1
    outer loop
      vertex 51.7355 23.5326 5
      vertex 85.1 2.5 5
      vertex 52.3815 25.5209 5
    endloop
  endfacet
  facet normal 0 0 1
    outer loop
      vertex 85.1 52.7 5
      vertex 52.3815 29.6791 5
      vertex 52.6 27.6 5
    endloop
  endfacet
  facet normal 0 0 1
    outer loop
      vertex 85.1 52.7 5
      vertex 51.7355 31.6674 5
      vertex 52.3815 29.6791 5
    endloop
  endfacet
  facet normal 0 0 1
    outer loop
      vertex 82.7 55.1 5
      vertex 50.6902 33.4779 5
      vertex 51.7355 31.6674 5
    endloop
  endfacet
  facet normal 0 0 1
    outer loop
      vertex 82.7 55.1 5
      vertex 49.2913 35.0314 5
      vertex 50.6902 33.4779 5
    endloop
  endfacet
  facet normal 0 0 1
    outer loop
      vertex 82.7 55.1 5
      vertex 47.6 36.2603 5
      vertex 49.2913 35.0314 5
    endloop
  endfacet
  facet normal 0 0 1
    outer loop
      vertex 82.7 55.1 5
      vertex 45.6902 37.1106 5
      vertex 47.6 36.2603 5
    endloop
  endfacet
  facet normal 0 0 1
    outer loop
      vertex 82.7 55.1 5
      vertex 43.6453 37.5452 5
      vertex 45.6902 37.1106 5
    endloop
  endfacet
  facet normal 0 0 1
    outer loop
      vertex 82.7 55.1 5
      vertex 41.5547 37.5452 5
      vertex 43.6453 37.5452 5
    endloop
  endfacet
  facet normal -0 0 1
    outer loop
      vertex 2.5 55.1 5
      vertex 41.5547 37.5452 5
      vertex 82.7 55.1 5
    endloop
  endfacet
  facet normal 0 0 1
    outer loop
      vertex 33.4645 31.6674 5
      vertex 0.0999994 52.7 5
      vertex 32.8185 29.6791 5
    endloop
  endfacet
  facet normal -0 0 1
    outer loop
      vertex 0.0999994 52.7 5
      vertex 33.4645 31.6674 5
      vertex 2.5 55.1 5
    endloop
  endfacet
  facet normal 0 0 1
    outer loop
      vertex 34.5098 33.4779 5
      vertex 2.5 55.1 5
      vertex 33.4645 31.6674 5
    endloop
  endfacet
  facet normal 0 0 1
    outer loop
      vertex 35.9087 35.0314 5
      vertex 2.5 55.1 5
      vertex 34.5098 33.4779 5
    endloop
  endfacet
  facet normal 0 0 1
    outer loop
      vertex 37.6 36.2603 5
      vertex 2.5 55.1 5
      vertex 35.9087 35.0314 5
    endloop
  endfacet
  facet normal 0 0 1
    outer loop
      vertex 39.5098 37.1106 5
      vertex 2.5 55.1 5
      vertex 37.6 36.2603 5
    endloop
  endfacet
  facet normal 0 0 1
    outer loop
      vertex 41.5547 37.5452 5
      vertex 2.5 55.1 5
      vertex 39.5098 37.1106 5
    endloop
  endfacet
  facet normal 0 0 1
    outer loop
      vertex 85.1 2.5 5
      vertex 82.7 0.0999994 5
      vertex 84.3971 0.802943 5
    endloop
  endfacet
  facet normal 0 0 1
    outer loop
      vertex 85.1 2.5 5
      vertex 51.7355 23.5326 5
      vertex 82.7 0.0999994 5
    endloop
  endfacet
  facet normal -0 0 1
    outer loop
      vertex 50.6902 21.7221 5
      vertex 82.7 0.0999994 5
      vertex 51.7355 23.5326 5
    endloop
  endfacet
  facet normal -0 0 1
    outer loop
      vertex 49.2913 20.1686 5
      vertex 82.7 0.0999994 5
      vertex 50.6902 21.7221 5
    endloop
  endfacet
  facet normal -0 0 1
    outer loop
      vertex 47.6 18.9397 5
      vertex 82.7 0.0999994 5
      vertex 49.2913 20.1686 5
    endloop
  endfacet
  facet normal -0 0 1
    outer loop
      vertex 45.6902 18.0894 5
      vertex 82.7 0.0999994 5
      vertex 47.6 18.9397 5
    endloop
  endfacet
  facet normal -0 0 1
    outer loop
      vertex 43.6453 17.6548 5
      vertex 82.7 0.0999994 5
      vertex 45.6902 18.0894 5
    endloop
  endfacet
  facet normal -0 0 1
    outer loop
      vertex 41.5547 17.6548 5
      vertex 82.7 0.0999994 5
      vertex 43.6453 17.6548 5
    endloop
  endfacet
  facet normal 0 0 1
    outer loop
      vertex 2.5 0.0999994 5
      vertex 41.5547 17.6548 5
      vertex 39.5098 18.0894 5
    endloop
  endfacet
  facet normal 0 0 1
    outer loop
      vertex 32.8185 29.6791 5
      vertex 0.0999994 52.7 5
      vertex 32.6 27.6 5
    endloop
  endfacet
  facet normal 0 0 1
    outer loop
      vertex 0.0999994 2.5 5
      vertex 32.6 27.6 5
      vertex 0.0999994 52.7 5
    endloop
  endfacet
  facet normal 0 0 1
    outer loop
      vertex 32.6 27.6 5
      vertex 0.0999994 2.5 5
      vertex 32.8185 25.5209 5
    endloop
  endfacet
  facet normal 0 0 1
    outer loop
      vertex 32.8185 25.5209 5
      vertex 0.0999994 2.5 5
      vertex 33.4645 23.5326 5
    endloop
  endfacet
  facet normal 0 0 1
    outer loop
      vertex 41.5547 17.6548 5
      vertex 2.5 0.0999994 5
      vertex 82.7 0.0999994 5
    endloop
  endfacet
  facet normal 0 0 1
    outer loop
      vertex 37.6 18.9397 5
      vertex 2.5 0.0999994 5
      vertex 39.5098 18.0894 5
    endloop
  endfacet
  facet normal 0 0 1
    outer loop
      vertex 35.9087 20.1686 5
      vertex 2.5 0.0999994 5
      vertex 37.6 18.9397 5
    endloop
  endfacet
  facet normal 0 -0 1
    outer loop
      vertex 2.5 0.0999994 5
      vertex 33.4645 23.5326 5
      vertex 0.0999994 2.5 5
    endloop
  endfacet
  facet normal 0 0 1
    outer loop
      vertex 0.0999994 52.7 5
      vertex 2.5 55.1 5
      vertex 0.802943 54.3971 5
    endloop
  endfacet
  facet normal 0 0 1
    outer loop
      vertex 33.4645 23.5326 5
      vertex 2.5 0.0999994 5
      vertex 34.5098 21.7221 5
    endloop
  endfacet
  facet normal 0 0 1
    outer loop
      vertex 34.5098 21.7221 5
      vertex 2.5 0.0999994 5
      vertex 35.9087 20.1686 5
    endloop
  endfacet
  facet normal 0 0 1
    outer loop
      vertex 2.5 0.0999994 5
      vertex 0.0999994 2.5 5
      vertex 0.802943 0.802943 5
    endloop
  endfacet
  facet normal 0 1 -0
    outer loop
      vertex 82.7 55.1 0
      vertex 2.5 55.1 5
      vertex 82.7 55.1 5
    endloop
  endfacet
  facet normal 0 1 0
    outer loop
      vertex 2.5 55.1 5
      vertex 82.7 55.1 0
      vertex 2.5 55.1 0
    endloop
  endfacet
  facet normal 0 -1 0
    outer loop
      vertex 2.5 0.0999994 0
      vertex 82.7 0.0999994 5
      vertex 2.5 0.0999994 5
    endloop
  endfacet
  facet normal 0 -1 -0
    outer loop
      vertex 82.7 0.0999994 5
      vertex 2.5 0.0999994 0
      vertex 82.7 0.0999994 0
    endloop
  endfacet
  facet normal -0.923879 0.382684 0
    outer loop
      vertex 0.0999994 52.7 0
      vertex 0.802943 54.3971 5
      vertex 0.802943 54.3971 0
    endloop
  endfacet
  facet normal -0.923879 0.382684 0
    outer loop
      vertex 0.802943 54.3971 5
      vertex 0.0999994 52.7 0
      vertex 0.0999994 52.7 5
    endloop
  endfacet
  facet normal -0.382682 0.92388 0
    outer loop
      vertex 2.5 55.1 0
      vertex 0.802943 54.3971 5
      vertex 2.5 55.1 5
    endloop
  endfacet
  facet normal -0.382682 0.92388 0
    outer loop
      vertex 0.802943 54.3971 5
      vertex 2.5 55.1 0
      vertex 0.802943 54.3971 0
    endloop
  endfacet
  facet normal 1 -0 0
    outer loop
      vertex 85.1 2.5 5
      vertex 85.1 52.7 0
      vertex 85.1 52.7 5
    endloop
  endfacet
  facet normal 1 0 0
    outer loop
      vertex 85.1 52.7 0
      vertex 85.1 2.5 5
      vertex 85.1 2.5 0
    endloop
  endfacet
  facet normal 0.382683 -0.92388 0
    outer loop
      vertex 82.7 0.0999994 0
      vertex 84.3971 0.802943 5
      vertex 82.7 0.0999994 5
    endloop
  endfacet
  facet normal 0.382683 -0.92388 0
    outer loop
      vertex 84.3971 0.802943 5
      vertex 82.7 0.0999994 0
      vertex 84.3971 0.802943 0
    endloop
  endfacet
  facet normal 0.382682 0.92388 -0
    outer loop
      vertex 84.3971 54.3971 0
      vertex 82.7 55.1 5
      vertex 84.3971 54.3971 5
    endloop
  endfacet
  facet normal 0.382682 0.92388 0
    outer loop
      vertex 82.7 55.1 5
      vertex 84.3971 54.3971 0
      vertex 82.7 55.1 0
    endloop
  endfacet
  facet normal 0.994522 0.104527 0
    outer loop
      vertex 52.6 27.6 24
      vertex 52.3815 29.6791 5
      vertex 52.3815 29.6791 24
    endloop
  endfacet
  facet normal 0.994522 0.104527 0
    outer loop
      vertex 52.3815 29.6791 5
      vertex 52.6 27.6 24
      vertex 52.6 27.6 5
    endloop
  endfacet
  facet normal -0.994522 0.104529 0
    outer loop
      vertex 32.6 27.6 5
      vertex 32.8185 29.6791 24
      vertex 32.8185 29.6791 5
    endloop
  endfacet
  facet normal -0.994522 0.104529 0
    outer loop
      vertex 32.8185 29.6791 24
      vertex 32.6 27.6 5
      vertex 32.6 27.6 24
    endloop
  endfacet
  facet normal 0 1 -0
    outer loop
      vertex 43.6453 37.5452 5
      vertex 41.5547 37.5452 24
      vertex 43.6453 37.5452 24
    endloop
  endfacet
  facet normal 0 1 0
    outer loop
      vertex 41.5547 37.5452 24
      vertex 43.6453 37.5452 5
      vertex 41.5547 37.5452 5
    endloop
  endfacet
  facet normal 0 -1 0
    outer loop
      vertex 41.5547 17.6548 5
      vertex 43.6453 17.6548 24
      vertex 41.5547 17.6548 24
    endloop
  endfacet
  facet normal 0 -1 -0
    outer loop
      vertex 43.6453 17.6548 24
      vertex 41.5547 17.6548 5
      vertex 43.6453 17.6548 5
    endloop
  endfacet
  facet normal 0.587785 0.809017 -0
    outer loop
      vertex 49.2913 35.0314 5
      vertex 47.6 36.2603 24
      vertex 49.2913 35.0314 24
    endloop
  endfacet
  facet normal 0.587785 0.809017 0
    outer loop
      vertex 47.6 36.2603 24
      vertex 49.2913 35.0314 5
      vertex 47.6 36.2603 5
    endloop
  endfacet
  facet normal -0.743146 0.66913 0
    outer loop
      vertex 34.5098 33.4779 5
      vertex 35.9087 35.0314 24
      vertex 35.9087 35.0314 5
    endloop
  endfacet
  facet normal -0.743146 0.66913 0
    outer loop
      vertex 35.9087 35.0314 24
      vertex 34.5098 33.4779 5
      vertex 34.5098 33.4779 24
    endloop
  endfacet
  facet normal 0 0 1
    outer loop
      vertex 52.3815 29.6791 24
      vertex 52.3815 25.5209 24
      vertex 52.6 27.6 24
    endloop
  endfacet
  facet normal 0 0 1
    outer loop
      vertex 51.7355 31.6674 24
      vertex 52.3815 25.5209 24
      vertex 52.3815 29.6791 24
    endloop
  endfacet
  facet normal 0 0 1
    outer loop
      vertex 51.7355 31.6674 24
      vertex 51.7355 23.5326 24
      vertex 52.3815 25.5209 24
    endloop
  endfacet
  facet normal 0 0 1
    outer loop
      vertex 50.6902 33.4779 24
      vertex 51.7355 23.5326 24
      vertex 51.7355 31.6674 24
    endloop
  endfacet
  facet normal 0 0 1
    outer loop
      vertex 50.6902 33.4779 24
      vertex 50.6902 21.7221 24
      vertex 51.7355 23.5326 24
    endloop
  endfacet
  facet normal 0 0 1
    outer loop
      vertex 49.2913 35.0314 24
      vertex 50.6902 21.7221 24
      vertex 50.6902 33.4779 24
    endloop
  endfacet
  facet normal 0 0 1
    outer loop
      vertex 49.2913 35.0314 24
      vertex 49.2913 20.1686 24
      vertex 50.6902 21.7221 24
    endloop
  endfacet
  facet normal 0 0 1
    outer loop
      vertex 47.6 36.2603 24
      vertex 49.2913 20.1686 24
      vertex 49.2913 35.0314 24
    endloop
  endfacet
  facet normal 0 0 1
    outer loop
      vertex 47.6 36.2603 24
      vertex 47.6 18.9397 24
      vertex 49.2913 20.1686 24
    endloop
  endfacet
  facet normal 0 0 1
    outer loop
      vertex 45.6902 37.1106 24
      vertex 47.6 18.9397 24
      vertex 47.6 36.2603 24
    endloop
  endfacet
  facet normal 0 0 1
    outer loop
      vertex 45.6902 37.1106 24
      vertex 45.6902 18.0894 24
      vertex 47.6 18.9397 24
    endloop
  endfacet
  facet normal 0 0 1
    outer loop
      vertex 43.6453 37.5452 24
      vertex 45.6902 18.0894 24
      vertex 45.6902 37.1106 24
    endloop
  endfacet
  facet normal 0 0 1
    outer loop
      vertex 43.6453 37.5452 24
      vertex 43.6453 17.6548 24
      vertex 45.6902 18.0894 24
    endloop
  endfacet
  facet normal -0 0 1
    outer loop
      vertex 41.5547 37.5452 24
      vertex 43.6453 17.6548 24
      vertex 43.6453 37.5452 24
    endloop
  endfacet
  facet normal 0 0 1
    outer loop
      vertex 41.5547 37.5452 24
      vertex 41.5547 17.6548 24
      vertex 43.6453 17.6548 24
    endloop
  endfacet
  facet normal -0 0 1
    outer loop
      vertex 39.5098 37.1106 24
      vertex 41.5547 17.6548 24
      vertex 41.5547 37.5452 24
    endloop
  endfacet
  facet normal 0 0 1
    outer loop
      vertex 39.5098 37.1106 24
      vertex 39.5098 18.0894 24
      vertex 41.5547 17.6548 24
    endloop
  endfacet
  facet normal -0 0 1
    outer loop
      vertex 37.6 36.2603 24
      vertex 39.5098 18.0894 24
      vertex 39.5098 37.1106 24
    endloop
  endfacet
  facet normal 0 0 1
    outer loop
      vertex 37.6 36.2603 24
      vertex 37.6 18.9397 24
      vertex 39.5098 18.0894 24
    endloop
  endfacet
  facet normal -0 0 1
    outer loop
      vertex 35.9087 35.0314 24
      vertex 37.6 18.9397 24
      vertex 37.6 36.2603 24
    endloop
  endfacet
  facet normal 0 0 1
    outer loop
      vertex 35.9087 35.0314 24
      vertex 35.9087 20.1686 24
      vertex 37.6 18.9397 24
    endloop
  endfacet
  facet normal -0 0 1
    outer loop
      vertex 34.5098 33.4779 24
      vertex 35.9087 20.1686 24
      vertex 35.9087 35.0314 24
    endloop
  endfacet
  facet normal 0 0 1
    outer loop
      vertex 34.5098 33.4779 24
      vertex 34.5098 21.7221 24
      vertex 35.9087 20.1686 24
    endloop
  endfacet
  facet normal -0 0 1
    outer loop
      vertex 33.4645 31.6674 24
      vertex 34.5098 21.7221 24
      vertex 34.5098 33.4779 24
    endloop
  endfacet
  facet normal 0 0 1
    outer loop
      vertex 33.4645 31.6674 24
      vertex 33.4645 23.5326 24
      vertex 34.5098 21.7221 24
    endloop
  endfacet
  facet normal -0 0 1
    outer loop
      vertex 32.8185 29.6791 24
      vertex 33.4645 23.5326 24
      vertex 33.4645 31.6674 24
    endloop
  endfacet
  facet normal 0 0 1
    outer loop
      vertex 32.8185 29.6791 24
      vertex 32.8185 25.5209 24
      vertex 33.4645 23.5326 24
    endloop
  endfacet
  facet normal 0 -0 1
    outer loop
      vertex 32.8185 25.5209 24
      vertex 32.8185 29.6791 24
      vertex 32.6 27.6 24
    endloop
  endfacet
  facet normal -0.406736 0.913546 0
    outer loop
      vertex 39.5098 37.1106 5
      vertex 37.6 36.2603 24
      vertex 39.5098 37.1106 24
    endloop
  endfacet
  facet normal -0.406736 0.913546 0
    outer loop
      vertex 37.6 36.2603 24
      vertex 39.5098 37.1106 5
      vertex 37.6 36.2603 5
    endloop
  endfacet
  facet normal 0.866025 -0.5 0
    outer loop
      vertex 50.6902 21.7221 24
      vertex 51.7355 23.5326 5
      vertex 51.7355 23.5326 24
    endloop
  endfacet
  facet normal 0.866025 -0.5 0
    outer loop
      vertex 51.7355 23.5326 5
      vertex 50.6902 21.7221 24
      vertex 50.6902 21.7221 5
    endloop
  endfacet
  facet normal 0.866025 0.5 0
    outer loop
      vertex 51.7355 31.6674 24
      vertex 50.6902 33.4779 5
      vertex 50.6902 33.4779 24
    endloop
  endfacet
  facet normal 0.866025 0.5 0
    outer loop
      vertex 50.6902 33.4779 5
      vertex 51.7355 31.6674 24
      vertex 51.7355 31.6674 5
    endloop
  endfacet
  facet normal 0.951056 0.309017 0
    outer loop
      vertex 52.3815 29.6791 24
      vertex 51.7355 31.6674 5
      vertex 51.7355 31.6674 24
    endloop
  endfacet
  facet normal 0.951056 0.309017 0
    outer loop
      vertex 51.7355 31.6674 5
      vertex 52.3815 29.6791 24
      vertex 52.3815 29.6791 5
    endloop
  endfacet
  facet normal 0.743145 0.669131 0
    outer loop
      vertex 50.6902 33.4779 24
      vertex 49.2913 35.0314 5
      vertex 49.2913 35.0314 24
    endloop
  endfacet
  facet normal 0.743145 0.669131 0
    outer loop
      vertex 49.2913 35.0314 5
      vertex 50.6902 33.4779 24
      vertex 50.6902 33.4779 5
    endloop
  endfacet
  facet normal 0.207912 0.978148 -0
    outer loop
      vertex 45.6902 37.1106 5
      vertex 43.6453 37.5452 24
      vertex 45.6902 37.1106 24
    endloop
  endfacet
  facet normal 0.207912 0.978148 0
    outer loop
      vertex 43.6453 37.5452 24
      vertex 45.6902 37.1106 5
      vertex 43.6453 37.5452 5
    endloop
  endfacet
  facet normal 0.406737 0.913545 -0
    outer loop
      vertex 47.6 36.2603 5
      vertex 45.6902 37.1106 24
      vertex 47.6 36.2603 24
    endloop
  endfacet
  facet normal 0.406737 0.913545 0
    outer loop
      vertex 45.6902 37.1106 24
      vertex 47.6 36.2603 5
      vertex 45.6902 37.1106 5
    endloop
  endfacet
  facet normal -0.866025 0.5 0
    outer loop
      vertex 33.4645 31.6674 5
      vertex 34.5098 33.4779 24
      vertex 34.5098 33.4779 5
    endloop
  endfacet
  facet normal -0.866025 0.5 0
    outer loop
      vertex 34.5098 33.4779 24
      vertex 33.4645 31.6674 5
      vertex 33.4645 31.6674 24
    endloop
  endfacet
  facet normal -0.951056 0.309017 0
    outer loop
      vertex 32.8185 29.6791 5
      vertex 33.4645 31.6674 24
      vertex 33.4645 31.6674 5
    endloop
  endfacet
  facet normal -0.951056 0.309017 0
    outer loop
      vertex 33.4645 31.6674 24
      vertex 32.8185 29.6791 5
      vertex 32.8185 29.6791 24
    endloop
  endfacet
  facet normal -0.587785 0.809017 0
    outer loop
      vertex 37.6 36.2603 5
      vertex 35.9087 35.0314 24
      vertex 37.6 36.2603 24
    endloop
  endfacet
  facet normal -0.587785 0.809017 0
    outer loop
      vertex 35.9087 35.0314 24
      vertex 37.6 36.2603 5
      vertex 35.9087 35.0314 5
    endloop
  endfacet
  facet normal -0.207912 0.978148 0
    outer loop
      vertex 41.5547 37.5452 5
      vertex 39.5098 37.1106 24
      vertex 41.5547 37.5452 24
    endloop
  endfacet
  facet normal -0.207912 0.978148 0
    outer loop
      vertex 39.5098 37.1106 24
      vertex 41.5547 37.5452 5
      vertex 39.5098 37.1106 5
    endloop
  endfacet
  facet normal 0.994522 -0.104527 0
    outer loop
      vertex 52.3815 25.5209 24
      vertex 52.6 27.6 5
      vertex 52.6 27.6 24
    endloop
  endfacet
  facet normal 0.994522 -0.104527 0
    outer loop
      vertex 52.6 27.6 5
      vertex 52.3815 25.5209 24
      vertex 52.3815 25.5209 5
    endloop
  endfacet
  facet normal 0.587785 -0.809017 0
    outer loop
      vertex 47.6 18.9397 5
      vertex 49.2913 20.1686 24
      vertex 47.6 18.9397 24
    endloop
  endfacet
  facet normal 0.587785 -0.809017 0
    outer loop
      vertex 49.2913 20.1686 24
      vertex 47.6 18.9397 5
      vertex 49.2913 20.1686 5
    endloop
  endfacet
  facet normal 0.743144 -0.669131 0
    outer loop
      vertex 49.2913 20.1686 24
      vertex 50.6902 21.7221 5
      vertex 50.6902 21.7221 24
    endloop
  endfacet
  facet normal 0.743144 -0.669131 0
    outer loop
      vertex 50.6902 21.7221 5
      vertex 49.2913 20.1686 24
      vertex 49.2913 20.1686 5
    endloop
  endfacet
  facet normal 0.951056 -0.309018 0
    outer loop
      vertex 51.7355 23.5326 24
      vertex 52.3815 25.5209 5
      vertex 52.3815 25.5209 24
    endloop
  endfacet
  facet normal 0.951056 -0.309018 0
    outer loop
      vertex 52.3815 25.5209 5
      vertex 51.7355 23.5326 24
      vertex 51.7355 23.5326 5
    endloop
  endfacet
  facet normal -0.406736 -0.913546 0
    outer loop
      vertex 37.6 18.9397 5
      vertex 39.5098 18.0894 24
      vertex 37.6 18.9397 24
    endloop
  endfacet
  facet normal -0.406736 -0.913546 -0
    outer loop
      vertex 39.5098 18.0894 24
      vertex 37.6 18.9397 5
      vertex 39.5098 18.0894 5
    endloop
  endfacet
  facet normal -0.866025 -0.5 0
    outer loop
      vertex 34.5098 21.7221 5
      vertex 33.4645 23.5326 24
      vertex 33.4645 23.5326 5
    endloop
  endfacet
  facet normal -0.866025 -0.5 0
    outer loop
      vertex 33.4645 23.5326 24
      vertex 34.5098 21.7221 5
      vertex 34.5098 21.7221 24
    endloop
  endfacet
  facet normal -0.207912 -0.978148 0
    outer loop
      vertex 39.5098 18.0894 5
      vertex 41.5547 17.6548 24
      vertex 39.5098 18.0894 24
    endloop
  endfacet
  facet normal -0.207912 -0.978148 -0
    outer loop
      vertex 41.5547 17.6548 24
      vertex 39.5098 18.0894 5
      vertex 41.5547 17.6548 5
    endloop
  endfacet
  facet normal -0.587785 -0.809017 0
    outer loop
      vertex 35.9087 20.1686 5
      vertex 37.6 18.9397 24
      vertex 35.9087 20.1686 24
    endloop
  endfacet
  facet normal -0.587785 -0.809017 -0
    outer loop
      vertex 37.6 18.9397 24
      vertex 35.9087 20.1686 5
      vertex 37.6 18.9397 5
    endloop
  endfacet
  facet normal -0.743145 -0.66913 0
    outer loop
      vertex 35.9087 20.1686 5
      vertex 34.5098 21.7221 24
      vertex 34.5098 21.7221 5
    endloop
  endfacet
  facet normal -0.743145 -0.66913 0
    outer loop
      vertex 34.5098 21.7221 24
      vertex 35.9087 20.1686 5
      vertex 35.9087 20.1686 24
    endloop
  endfacet
  facet normal -0.951056 -0.309018 0
    outer loop
      vertex 33.4645 23.5326 5
      vertex 32.8185 25.5209 24
      vertex 32.8185 25.5209 5
    endloop
  endfacet
  facet normal -0.951056 -0.309018 0
    outer loop
      vertex 32.8185 25.5209 24
      vertex 33.4645 23.5326 5
      vertex 33.4645 23.5326 24
    endloop
  endfacet
  facet normal -0.994522 -0.104529 0
    outer loop
      vertex 32.8185 25.5209 5
      vertex 32.6 27.6 24
      vertex 32.6 27.6 5
    endloop
  endfacet
  facet normal -0.994522 -0.104529 0
    outer loop
      vertex 32.6 27.6 24
      vertex 32.8185 25.5209 5
      vertex 32.8185 25.5209 24
    endloop
  endfacet
  facet normal 0.406737 -0.913545 0
    outer loop
      vertex 45.6902 18.0894 5
      vertex 47.6 18.9397 24
      vertex 45.6902 18.0894 24
    endloop
  endfacet
  facet normal 0.406737 -0.913545 0
    outer loop
      vertex 47.6 18.9397 24
      vertex 45.6902 18.0894 5
      vertex 47.6 18.9397 5
    endloop
  endfacet
  facet normal 0.207912 -0.978148 0
    outer loop
      vertex 43.6453 17.6548 5
      vertex 45.6902 18.0894 24
      vertex 43.6453 17.6548 24
    endloop
  endfacet
  facet normal 0.207912 -0.978148 0
    outer loop
      vertex 45.6902 18.0894 24
      vertex 43.6453 17.6548 5
      vertex 45.6902 18.0894 5
    endloop
  endfacet
endsolid OpenSCAD_Model
