%FSDAX24Y24*%
%MOIN*%
%SFA1B1*%

%IPPOS*%
%AMD10*
4,1,8,0.017700,-0.005900,0.017700,0.005900,0.011800,0.011800,-0.011800,0.011800,-0.017700,0.005900,-0.017700,-0.005900,-0.011800,-0.011800,0.011800,-0.011800,0.017700,-0.005900,0.0*
1,1,0.011800,0.011800,-0.005900*
1,1,0.011800,0.011800,0.005900*
1,1,0.011800,-0.011800,0.005900*
1,1,0.011800,-0.011800,-0.005900*
%
%AMD13*
4,1,8,-0.005900,-0.017700,0.005900,-0.017700,0.011800,-0.011800,0.011800,0.011800,0.005900,0.017700,-0.005900,0.017700,-0.011800,0.011800,-0.011800,-0.011800,-0.005900,-0.017700,0.0*
1,1,0.011800,-0.005900,-0.011800*
1,1,0.011800,0.005900,-0.011800*
1,1,0.011800,0.005900,0.011800*
1,1,0.011800,-0.005900,0.011800*
%
G04~CAMADD=10~8~0.0~0.0~236.0~354.0~59.0~0.0~15~0.0~0.0~0.0~0.0~0~0.0~0.0~0.0~0.0~0~0.0~0.0~0.0~270.0~354.0~236.0*
%ADD10D10*%
G04~CAMADD=13~8~0.0~0.0~236.0~354.0~59.0~0.0~15~0.0~0.0~0.0~0.0~0~0.0~0.0~0.0~0.0~0~0.0~0.0~0.0~180.0~236.0~354.0*
%ADD13D13*%
%ADD19C,0.007900*%
%ADD20C,0.015700*%
%ADD21C,0.010000*%
%ADD22C,0.070900*%
%ADD23R,0.070900X0.070900*%
%ADD24C,0.039400*%
%ADD25C,0.050000*%
%ADD26C,0.023600*%
%LNuppsense-1*%
%LPD*%
G36*
X037639Y039205D02*
X037872Y039159D01*
X038098Y039082*
X038311Y038977*
X038509Y038845*
X038688Y038688*
X038845Y038509*
X038977Y038311*
X039082Y038098*
X039159Y037872*
X039205Y037639*
X039217Y037451*
X039219Y037402*
Y037352*
Y019836*
X008025*
Y037402*
X008024Y037408*
X008039Y037639*
X008086Y037872*
X008162Y038098*
X008267Y038311*
X008399Y038509*
X008556Y038688*
X008735Y038845*
X008933Y038977*
X009146Y039082*
X009372Y039159*
X009605Y039205*
X009793Y039217*
X009843Y039219*
X009892*
X023825*
Y036427*
X023837Y036369*
X023869Y036320*
X023879Y036310*
X023928Y036278*
X023986Y036266*
X030374*
X030432Y036278*
X030481Y036310*
X030514Y036359*
X030525Y036417*
Y039219*
X037402*
X037408Y039220*
X037639Y039205*
G37*
%LNuppsense-2*%
%LPC*%
G36*
X033433Y025409D02*
X033320Y025394D01*
X033215Y025351*
X033124Y025281*
X033055Y025191*
X033011Y025085*
X032996Y024972*
X033011Y024859*
X033055Y024754*
X033124Y024664*
X033215Y024594*
X033320Y024551*
X033433Y024536*
X033546Y024551*
X033651Y024594*
X033742Y024664*
X033811Y024754*
X033855Y024859*
X033870Y024972*
X033855Y025085*
X033811Y025191*
X033742Y025281*
X033651Y025351*
X033546Y025394*
X033433Y025409*
G37*
G36*
X016811Y024622D02*
X016698Y024607D01*
X016593Y024563*
X016502Y024494*
X016433Y024403*
X016389Y024298*
X016374Y024185*
X016389Y024072*
X016433Y023967*
X016502Y023876*
X016593Y023807*
X016698Y023763*
X016811Y023748*
X016924Y023763*
X017029Y023807*
X017120Y023876*
X017189Y023967*
X017233Y024072*
X017248Y024185*
X017233Y024298*
X017189Y024403*
X017120Y024494*
X017029Y024563*
X016924Y024607*
X016811Y024622*
G37*
G36*
X017811Y025622D02*
X017698Y025607D01*
X017593Y025563*
X017502Y025494*
X017433Y025403*
X017389Y025298*
X017374Y025185*
X017389Y025072*
X017433Y024967*
X017502Y024876*
X017593Y024807*
X017698Y024763*
X017811Y024748*
X017924Y024763*
X018029Y024807*
X018120Y024876*
X018189Y024967*
X018233Y025072*
X018248Y025185*
X018233Y025298*
X018189Y025403*
X018120Y025494*
X018029Y025563*
X017924Y025607*
X017811Y025622*
G37*
G36*
X034433Y025409D02*
X034320Y025394D01*
X034215Y025351*
X034124Y025281*
X034055Y025191*
X034011Y025085*
X033996Y024972*
X034011Y024859*
X034055Y024754*
X034124Y024664*
X034215Y024594*
X034320Y024551*
X034433Y024536*
X034546Y024551*
X034651Y024594*
X034742Y024664*
X034811Y024754*
X034855Y024859*
X034870Y024972*
X034855Y025085*
X034811Y025191*
X034742Y025281*
X034651Y025351*
X034546Y025394*
X034433Y025409*
G37*
G36*
X012811Y024622D02*
X012698Y024607D01*
X012593Y024563*
X012502Y024494*
X012433Y024403*
X012389Y024298*
X012374Y024185*
X012389Y024072*
X012433Y023967*
X012502Y023876*
X012593Y023807*
X012698Y023763*
X012811Y023748*
X012924Y023763*
X013029Y023807*
X013120Y023876*
X013189Y023967*
X013233Y024072*
X013248Y024185*
X013233Y024298*
X013189Y024403*
X013120Y024494*
X013029Y024563*
X012924Y024607*
X012811Y024622*
G37*
G36*
X034433Y024409D02*
X034320Y024394D01*
X034215Y024351*
X034124Y024281*
X034055Y024191*
X034011Y024086*
X033996Y023972*
X034011Y023859*
X034055Y023754*
X034124Y023664*
X034215Y023594*
X034320Y023551*
X034433Y023536*
X034546Y023551*
X034651Y023594*
X034742Y023664*
X034811Y023754*
X034855Y023859*
X034870Y023972*
X034855Y024086*
X034811Y024191*
X034742Y024281*
X034651Y024351*
X034546Y024394*
X034433Y024409*
G37*
G36*
X033433D02*
X033320Y024394D01*
X033215Y024351*
X033124Y024281*
X033055Y024191*
X033011Y024086*
X032996Y023972*
X033011Y023859*
X033055Y023754*
X033124Y023664*
X033215Y023594*
X033320Y023551*
X033433Y023536*
X033546Y023551*
X033651Y023594*
X033742Y023664*
X033811Y023754*
X033855Y023859*
X033870Y023972*
X033855Y024086*
X033811Y024191*
X033742Y024281*
X033651Y024351*
X033546Y024394*
X033433Y024409*
G37*
G36*
X011811Y024622D02*
X011698Y024607D01*
X011593Y024563*
X011502Y024494*
X011433Y024403*
X011389Y024298*
X011374Y024185*
X011389Y024072*
X011433Y023967*
X011502Y023876*
X011593Y023807*
X011698Y023763*
X011811Y023748*
X011924Y023763*
X012029Y023807*
X012120Y023876*
X012189Y023967*
X012233Y024072*
X012248Y024185*
X012233Y024298*
X012189Y024403*
X012120Y024494*
X012029Y024563*
X011924Y024607*
X011811Y024622*
G37*
G36*
X035433Y024409D02*
X035320Y024394D01*
X035215Y024351*
X035124Y024281*
X035055Y024191*
X035011Y024086*
X034996Y023972*
X035011Y023859*
X035055Y023754*
X035124Y023664*
X035215Y023594*
X035320Y023551*
X035433Y023536*
X035546Y023551*
X035651Y023594*
X035742Y023664*
X035811Y023754*
X035855Y023859*
X035870Y023972*
X035855Y024086*
X035811Y024191*
X035742Y024281*
X035651Y024351*
X035546Y024394*
X035433Y024409*
G37*
G36*
X026181Y034662D02*
X026095Y034651D01*
X026015Y034618*
X025947Y034565*
X025894Y034497*
X025875Y034451*
X024646*
X024600Y034442*
X024561Y034416*
X022745Y032601*
X020039*
X019993Y032592*
X019954Y032565*
X013726Y026337*
X013700Y026298*
X013691Y026252*
Y025604*
X013593Y025563*
X013502Y025494*
X013433Y025403*
X013389Y025298*
X013374Y025185*
X013389Y025072*
X013433Y024967*
X013502Y024876*
X013593Y024807*
X013698Y024763*
X013811Y024748*
X013924Y024763*
X014029Y024807*
X014120Y024876*
X014189Y024967*
X014233Y025072*
X014248Y025185*
X014233Y025298*
X014189Y025403*
X014120Y025494*
X014029Y025563*
X013931Y025604*
Y026202*
X020089Y032360*
X022795*
X022841Y032369*
X022880Y032395*
X024696Y034210*
X025875*
X025894Y034165*
X025947Y034096*
X026015Y034044*
X026095Y034010*
X026181Y033999*
X026267Y034010*
X026347Y034044*
X026416Y034096*
X026468Y034165*
X026501Y034245*
X026513Y034331*
X026501Y034417*
X026468Y034497*
X026416Y034565*
X026347Y034618*
X026267Y034651*
X026181Y034662*
G37*
G36*
X034528Y033901D02*
X034451Y033886D01*
X034386Y033843*
X034371Y033821*
X033543*
X033497Y033812*
X033458Y033786*
X031210Y031538*
X029227*
X029224Y031550*
X029194Y031595*
X029176Y031608*
Y031733*
X029197Y031748*
X029241Y031813*
X029256Y031890*
X029241Y031967*
X029227Y031987*
X029225Y031995*
X029199Y032034*
X029160Y032060*
X029152Y032062*
X029132Y032075*
X029055Y032090*
X028978Y032075*
X028913Y032032*
X028870Y031967*
X028854Y031890*
X028870Y031813*
X028913Y031748*
X028935Y031733*
Y031628*
X028923Y031626*
X028877Y031595*
X028847Y031550*
X028836Y031496*
Y031260*
X028847Y031206*
X028877Y031161*
X028885Y031123*
X028870Y031100*
X028854Y031024*
X028870Y030947*
X028900Y030902*
X028897Y030887*
X028866Y030841*
X028856Y030787*
Y030551*
X028866Y030497*
X028897Y030452*
X028900Y030437*
X028870Y030392*
X028854Y030315*
X028870Y030238*
X028896Y030199*
X028897Y030139*
X028866Y030093*
X028856Y030039*
Y029803*
X028866Y029749*
X028897Y029704*
X028942Y029673*
X028996Y029663*
X029114*
X029168Y029673*
X029214Y029704*
X029244Y029749*
X029255Y029803*
Y030039*
X029244Y030093*
X029214Y030139*
Y030199*
X029241Y030238*
X029256Y030315*
X029241Y030392*
X029211Y030437*
X029214Y030452*
X029244Y030497*
X029255Y030551*
Y030787*
X029244Y030841*
X029214Y030887*
X029211Y030902*
X029241Y030947*
X029256Y031024*
X029241Y031100*
X029197Y031165*
X029224Y031206*
X029235Y031260*
Y031297*
X030904*
X030923Y031251*
X030486Y030814*
X030460Y030774*
X030450Y030728*
Y029991*
X029241Y028782*
X021732*
X021686Y028773*
X021647Y028747*
X018379Y025479*
X018353Y025440*
X018344Y025394*
Y024888*
X018022Y024566*
X017924Y024607*
X017811Y024622*
X017698Y024607*
X017593Y024563*
X017502Y024494*
X017433Y024403*
X017389Y024298*
X017374Y024185*
X017389Y024072*
X017433Y023967*
X017502Y023876*
X017593Y023807*
X017698Y023763*
X017811Y023748*
X017924Y023763*
X018029Y023807*
X018120Y023876*
X018189Y023967*
X018233Y024072*
X018248Y024185*
X018233Y024298*
X018192Y024396*
X018550Y024753*
X018576Y024792*
X018585Y024839*
Y025344*
X021782Y028541*
X029291*
X029337Y028550*
X029376Y028576*
X030656Y029856*
X030682Y029895*
X030691Y029941*
Y030678*
X031345Y031332*
X033593Y033580*
X034371*
X034386Y033559*
X034451Y033515*
X034528Y033500*
X034604Y033515*
X034669Y033559*
X034713Y033624*
X034728Y033701*
X034713Y033778*
X034669Y033843*
X034604Y033886*
X034528Y033901*
G37*
G36*
X026220Y035450D02*
X026135Y035438D01*
X026055Y035405*
X025986Y035353*
X025933Y035284*
X025915Y035239*
X024606*
X024560Y035229*
X024521Y035203*
X022549Y033231*
X019803*
X019757Y033221*
X019718Y033195*
X012726Y026203*
X012700Y026164*
X012691Y026118*
Y025604*
X012593Y025563*
X012502Y025494*
X012433Y025403*
X012389Y025298*
X012374Y025185*
X012389Y025072*
X012433Y024967*
X012502Y024876*
X012593Y024807*
X012698Y024763*
X012811Y024748*
X012924Y024763*
X013029Y024807*
X013120Y024876*
X013189Y024967*
X013233Y025072*
X013248Y025185*
X013233Y025298*
X013189Y025403*
X013120Y025494*
X013029Y025563*
X012931Y025604*
Y026068*
X019853Y032990*
X022598*
X022645Y032999*
X022684Y033025*
X024656Y034998*
X025915*
X025933Y034952*
X025986Y034884*
X026055Y034831*
X026135Y034798*
X026220Y034787*
X026306Y034798*
X026386Y034831*
X026455Y034884*
X026508Y034952*
X026541Y035032*
X026552Y035118*
X026541Y035204*
X026508Y035284*
X026455Y035353*
X026386Y035405*
X026306Y035438*
X026220Y035450*
G37*
G36*
X022638Y034964D02*
X022561Y034949D01*
X022496Y034906*
X022452Y034841*
X022437Y034764*
X022452Y034687*
X022477Y034650*
Y034397*
X022414Y034334*
X022004*
X021967Y034359*
X021890Y034374*
X021813Y034359*
X021748Y034315*
X021704Y034250*
X021689Y034173*
X021704Y034096*
X021748Y034031*
X021813Y033988*
X021890Y033973*
X021967Y033988*
X022004Y034013*
X022480*
X022542Y034025*
X022594Y034060*
X022751Y034217*
X022786Y034269*
X022798Y034331*
Y034650*
X022823Y034687*
X022838Y034764*
X022823Y034841*
X022780Y034906*
X022715Y034949*
X022638Y034964*
G37*
G36*
X031673Y026957D02*
X031596Y026941D01*
X031531Y026898*
X031517Y026876*
X030802*
X030788Y026898*
X030723Y026941*
X030646Y026957*
X030569Y026941*
X030504Y026898*
X030460Y026833*
X030445Y026756*
X030460Y026679*
X030504Y026614*
X030569Y026570*
X030646Y026555*
X030723Y026570*
X030788Y026614*
X030802Y026635*
X031517*
X031531Y026614*
X031596Y026570*
X031673Y026555*
X031750Y026570*
X031815Y026614*
X031858Y026679*
X031874Y026756*
X031858Y026833*
X031815Y026898*
X031750Y026941*
X031673Y026957*
G37*
G36*
X012165Y025620D02*
X011457D01*
X011426Y025614*
X011400Y025596*
X011383Y025570*
X011376Y025539*
Y024831*
X011383Y024800*
X011400Y024774*
X011426Y024757*
X011457Y024750*
X012165*
X012196Y024757*
X012222Y024774*
X012240Y024800*
X012246Y024831*
Y025539*
X012240Y025570*
X012222Y025596*
X012196Y025614*
X012165Y025620*
G37*
G36*
X022362Y037026D02*
X022290Y037017D01*
X022223Y036989*
X022166Y036945*
X022121Y036887*
X022094Y036820*
X022084Y036748*
X022094Y036676*
X022121Y036609*
X022166Y036551*
X022195Y036529*
Y036467*
X022166Y036445*
X022121Y036387*
X022114Y036368*
X014319*
X014273Y036359*
X014234Y036333*
X010151Y032251*
X010125Y032211*
X010116Y032165*
Y031810*
X010094Y031795*
X010089Y031788*
X010039*
X010034Y031795*
X009969Y031839*
X009893Y031854*
X009816Y031839*
X009751Y031795*
X009707Y031730*
X009692Y031654*
X009697Y031628*
X009639Y031571*
X009613Y031532*
X009604Y031485*
Y024684*
X009582Y024669*
X009539Y024604*
X009524Y024528*
X009539Y024451*
X009582Y024386*
X009648Y024342*
X009724Y024327*
X009801Y024342*
X009866Y024386*
X009910Y024451*
X009925Y024528*
X009910Y024604*
X009866Y024669*
X009845Y024684*
Y031417*
X009887Y031454*
X009893Y031453*
X009969Y031468*
X010034Y031512*
X010085Y031510*
X010116Y031480*
Y024644*
X010094Y024630*
X010051Y024565*
X010036Y024488*
X010051Y024411*
X010094Y024346*
X010116Y024332*
Y023031*
X010125Y022985*
X010151Y022946*
X010899Y022198*
X010938Y022172*
X010984Y022163*
X014724*
X014770Y022172*
X014810Y022198*
X015439Y022828*
X015466Y022867*
X015475Y022913*
Y023834*
X015525Y023859*
X015593Y023807*
X015698Y023763*
X015811Y023748*
X015924Y023763*
X016029Y023807*
X016120Y023876*
X016189Y023967*
X016233Y024072*
X016248Y024185*
X016233Y024298*
X016189Y024403*
X016120Y024494*
X016029Y024563*
X015924Y024607*
X015811Y024622*
X015698Y024607*
X015593Y024563*
X015525Y024511*
X015475Y024536*
Y024678*
X015600Y024804*
X015698Y024763*
X015811Y024748*
X015924Y024763*
X016029Y024807*
X016120Y024876*
X016189Y024967*
X016233Y025072*
X016248Y025185*
X016233Y025298*
X016189Y025403*
X016120Y025494*
X016029Y025563*
X015924Y025607*
X015811Y025622*
X015698Y025607*
X015593Y025563*
X015502Y025494*
X015433Y025403*
X015389Y025298*
X015374Y025185*
X015389Y025072*
X015430Y024974*
X015269Y024813*
X015243Y024774*
X015234Y024728*
Y024424*
X015210Y024413*
X015184Y024410*
X015120Y024494*
X015029Y024563*
X014924Y024607*
X014811Y024622*
X014698Y024607*
X014593Y024563*
X014502Y024494*
X014498Y024489*
X014451Y024505*
Y024655*
X014600Y024804*
X014698Y024763*
X014811Y024748*
X014924Y024763*
X015029Y024807*
X015120Y024876*
X015189Y024967*
X015233Y025072*
X015248Y025185*
X015233Y025298*
X015189Y025403*
X015120Y025494*
X015029Y025563*
X014924Y025607*
X014811Y025622*
X014698Y025607*
X014593Y025563*
X014502Y025494*
X014433Y025403*
X014389Y025298*
X014374Y025185*
X014389Y025072*
X014430Y024974*
X014246Y024790*
X014219Y024751*
X014210Y024705*
Y024458*
X014160Y024441*
X014120Y024494*
X014029Y024563*
X013924Y024607*
X013811Y024622*
X013698Y024607*
X013593Y024563*
X013502Y024494*
X013433Y024403*
X013389Y024298*
X013374Y024185*
X013389Y024072*
X013433Y023967*
X013502Y023876*
X013593Y023807*
X013698Y023763*
X013811Y023748*
X013924Y023763*
X014029Y023807*
X014120Y023876*
X014160Y023929*
X014210Y023912*
Y023318*
X013808Y022916*
X011231*
X010868Y023278*
Y031930*
X010890Y031945*
X010933Y032010*
X010949Y032087*
X010944Y032112*
X014459Y035628*
X022114*
X022121Y035609*
X022166Y035551*
X022195Y035529*
Y035467*
X022166Y035445*
X022121Y035387*
X022094Y035320*
X022084Y035248*
X022094Y035176*
X022121Y035109*
X022166Y035051*
X022223Y035007*
X022290Y034980*
X022362Y034970*
X022434Y034980*
X022501Y035007*
X022559Y035051*
X022603Y035109*
X022631Y035176*
X022640Y035248*
X022631Y035320*
X022603Y035387*
X022559Y035445*
X022529Y035467*
Y035529*
X022559Y035551*
X022603Y035609*
X022611Y035628*
X027982*
X029132Y034478*
Y033825*
X029127Y033824*
X029047Y033791*
X028978Y033738*
X028925Y033670*
X028907Y033624*
X027638*
X027592Y033615*
X027553Y033589*
X026840Y032877*
X026693*
X026639Y032866*
X026594Y032836*
X026563Y032790*
X026552Y032736*
Y032618*
X026563Y032564*
X026594Y032519*
X026639Y032488*
X026693Y032478*
X026929*
X026983Y032488*
X027028Y032519*
X027059Y032564*
X027070Y032618*
Y032736*
X027065Y032761*
X027688Y033384*
X028907*
X028925Y033338*
X028978Y033269*
X029047Y033217*
X029127Y033184*
X029213Y033172*
X029298Y033184*
X029336Y033199*
X029365Y033157*
X029265Y033057*
X029220Y033076*
X029134Y033087*
X029048Y033076*
X028968Y033043*
X028899Y032990*
X028847Y032922*
X028828Y032876*
X028130*
X028084Y032867*
X028069Y032857*
X027913*
X027860Y032846*
X027814Y032816*
X027784Y032770*
X027773Y032717*
Y032598*
X027784Y032545*
X027814Y032499*
X027860Y032469*
X027913Y032458*
X028150*
X028203Y032469*
X028249Y032499*
X028279Y032545*
X028290Y032598*
Y032635*
X028828*
X028847Y032590*
X028899Y032521*
X028968Y032469*
X029048Y032436*
X029134Y032424*
X029220Y032436*
X029300Y032469*
X029368Y032521*
X029421Y032590*
X029454Y032670*
X029465Y032756*
X029454Y032842*
X029435Y032887*
X029652Y033104*
X029678Y033143*
X029687Y033189*
X029681Y033219*
Y034413*
X029672Y034459*
X029646Y034499*
X028154Y035991*
X028115Y036017*
X028069Y036026*
X023396*
X023089Y036333*
X023050Y036359*
X023004Y036368*
X022611*
X022603Y036387*
X022559Y036445*
X022529Y036467*
Y036529*
X022559Y036551*
X022603Y036609*
X022631Y036676*
X022640Y036748*
X022631Y036820*
X022603Y036887*
X022559Y036945*
X022501Y036989*
X022434Y037017*
X022362Y037026*
G37*
G36*
X026929Y032286D02*
X026693D01*
X026639Y032275*
X026597Y032247*
X026378*
X026317Y032235*
X026264Y032200*
X025005Y030940*
X024970Y030888*
X024958Y030827*
Y029737*
X024933Y029700*
X024917Y029623*
X024933Y029546*
X024976Y029481*
X025041Y029438*
X025118Y029423*
X025195Y029438*
X025260Y029481*
X025304Y029546*
X025319Y029623*
X025304Y029700*
X025279Y029737*
Y030760*
X026444Y031926*
X026597*
X026639Y031898*
X026693Y031887*
X026929*
X026983Y031898*
X026996Y031906*
X027817*
X027860Y031878*
X027913Y031867*
X028150*
X028203Y031878*
X028244Y031905*
X028284Y031881*
Y031592*
X028256Y031550*
X028245Y031496*
Y031260*
X028256Y031206*
X028286Y031161*
X028304Y031149*
Y030884*
X028276Y030841*
X028265Y030787*
Y030551*
X028276Y030497*
X028306Y030452*
X028352Y030421*
X028406Y030411*
X028524*
X028577Y030421*
X028623Y030452*
X028653Y030497*
X028664Y030551*
Y030787*
X028653Y030841*
X028625Y030884*
Y031193*
X028634Y031206*
X028644Y031260*
Y031496*
X028634Y031550*
X028605Y031592*
Y031949*
X028593Y032010*
X028558Y032062*
X028440Y032180*
X028388Y032215*
X028327Y032227*
X028246*
X028203Y032256*
X028150Y032266*
X027913*
X027860Y032256*
X027817Y032227*
X027040*
X027028Y032245*
X026983Y032275*
X026929Y032286*
G37*
%LNuppsense-3*%
%LPD*%
G36*
X022121Y036109D02*
X022166Y036051D01*
X022195Y036029*
Y035967*
X022166Y035945*
X022121Y035887*
X022114Y035868*
X014409*
X014363Y035859*
X014324Y035833*
X010773Y032282*
X010748Y032287*
X010671Y032272*
X010606Y032229*
X010563Y032163*
X010547Y032087*
X010563Y032010*
X010606Y031945*
X010628Y031930*
Y023228*
X010637Y023182*
X010663Y023143*
X011096Y022710*
X011135Y022684*
X011181Y022675*
X013858*
X013904Y022684*
X013943Y022710*
X014416Y023183*
X014442Y023222*
X014451Y023268*
Y023865*
X014498Y023881*
X014502Y023876*
X014593Y023807*
X014698Y023763*
X014811Y023748*
X014924Y023763*
X015029Y023807*
X015120Y023876*
X015184Y023960*
X015210Y023957*
X015234Y023946*
Y022963*
X014675Y022404*
X011034*
X010357Y023081*
Y024332*
X010378Y024346*
X010422Y024411*
X010437Y024488*
X010422Y024565*
X010378Y024630*
X010357Y024644*
Y031497*
X010378Y031512*
X010422Y031577*
X010437Y031654*
X010422Y031730*
X010378Y031795*
X010357Y031810*
Y032115*
X014369Y036128*
X022114*
X022121Y036109*
G37*
G54D10*
X026811Y032677D03*
Y032087D03*
X028031Y032657D03*
Y032067D03*
G54D13*
X029055Y029921D03*
X028465D03*
X029055Y030669D03*
X028465D03*
X029035Y031378D03*
X028445D03*
G54D19*
X028031Y035748D02*
X029252Y034528D01*
Y033543D02*
Y034528D01*
X028130Y032756D02*
X029134D01*
X028031Y032657D02*
X028130Y032756D01*
X026811Y032677D02*
X027638Y033504D01*
X029134Y032756D02*
X029567Y033189D01*
X029213Y033504D02*
X029252Y033543D01*
X027638Y033504D02*
X029213D01*
X029561Y033195D02*
Y034413D01*
Y033195D02*
X029567Y033189D01*
X029114Y031417D02*
X031260D01*
X030571Y030728D02*
X031260Y031417D01*
X021732Y028661D02*
X029291D01*
X030571Y029941*
Y030728*
X029055Y029921D02*
Y030315D01*
Y030669D02*
Y031024D01*
Y031890D02*
X029114Y031949D01*
X029055Y031398D02*
Y031890D01*
X029035Y031378D02*
X029055Y031398D01*
X033543Y033701D02*
X034528D01*
X031260Y031417D02*
X033543Y033701D01*
X028069Y035906D02*
X029561Y034413D01*
X018465Y025394D02*
X021732Y028661D01*
X022362Y035748D02*
X028031D01*
X022362Y036248D02*
X023004D01*
X023346Y035906*
X028069*
X030646Y026756D02*
X031673D01*
X017811Y024185D02*
X018465Y024839D01*
Y025394*
X014319Y036248D02*
X022362D01*
X014409Y035748D02*
X022362D01*
X010748Y032087D02*
X014409Y035748D01*
X009724Y024528D02*
Y031485D01*
X009893Y031654*
X015354Y024728D02*
X015811Y025185D01*
X015354Y022913D02*
Y024728D01*
X014724Y022283D02*
X015354Y022913D01*
X010984Y022283D02*
X014724D01*
X010236Y023031D02*
X010984Y022283D01*
X010236Y023031D02*
Y024488D01*
X014331Y024705D02*
X014811Y025185D01*
X014331Y023268D02*
Y024705D01*
X013858Y022795D02*
X014331Y023268D01*
X011181Y022795D02*
X013858D01*
X010748Y023228D02*
X011181Y022795D01*
X010748Y023228D02*
Y032087D01*
X024606Y035118D02*
X026220D01*
X022598Y033110D02*
X024606Y035118D01*
X012811Y025185D02*
Y026118D01*
X019803Y033110*
X022598*
X013811Y025185D02*
Y026252D01*
X020039Y032480*
X022795*
X024646Y034331*
X026181*
X010236Y032165D02*
X014319Y036248D01*
X010236Y024488D02*
Y031654D01*
Y032165*
G54D20*
X026831Y032067D02*
X028031D01*
X026811Y032087D02*
X026831Y032067D01*
X026378Y032087D02*
X026811D01*
X025118Y029623D02*
Y030827D01*
X026378Y032087*
X028031Y032067D02*
X028327D01*
X028445Y031949*
Y031378D02*
Y031949D01*
X028465Y030669D02*
Y031358D01*
X028445Y031378D02*
X028465Y031358D01*
X021890Y034173D02*
X022480D01*
X022638Y034331*
Y034764*
G54D21*
X039370Y037402D02*
D01*
X039365Y037539*
X039350Y037676*
X039326Y037811*
X039293Y037944*
X039251Y038075*
X039199Y038202*
X039139Y038326*
X039070Y038445*
X038993Y038559*
X038909Y038667*
X038817Y038769*
X038718Y038865*
X038613Y038953*
X038502Y039034*
X038385Y039107*
X038264Y039171*
X038138Y039227*
X038009Y039274*
X037877Y039312*
X037742Y039341*
X037606Y039360*
X037469Y039369*
X037402Y039370*
X009843D02*
D01*
X009705Y039365*
X009568Y039350*
X009433Y039326*
X009300Y039293*
X009169Y039251*
X009042Y039199*
X008918Y039139*
X008799Y039070*
X008685Y038993*
X008577Y038909*
X008475Y038817*
X008379Y038718*
X008291Y038613*
X008210Y038502*
X008137Y038385*
X008073Y038264*
X008017Y038138*
X007970Y038009*
X007932Y037877*
X007903Y037742*
X007884Y037606*
X007875Y037469*
X007874Y037402*
Y019685D02*
X039370D01*
X023976Y036417D02*
X030374D01*
X023976D02*
Y039370D01*
X030374Y036417D02*
Y039370D01*
X039370Y019685D02*
Y037402D01*
X030374Y039370D02*
X037402D01*
X007874Y019685D02*
Y037402D01*
X009843Y039370D02*
X023976D01*
G54D22*
X033433Y023972D03*
Y024972D03*
X034433Y023972D03*
Y024972D03*
X035433Y023972D03*
X017811Y025185D03*
Y024185D03*
X016811Y025185D03*
Y024185D03*
X011811D03*
X012811Y025185D03*
Y024185D03*
X013811Y025185D03*
Y024185D03*
X014811D03*
Y025185D03*
X015811Y024185D03*
Y025185D03*
G54D23*
X035433Y024972D03*
X011811Y025185D03*
G54D24*
X022362Y035248D03*
Y035748D03*
Y036248D03*
Y036748D03*
Y037248D03*
G54D25*
X029134Y032756D03*
X026181Y034331D03*
X026220Y035118D03*
X029213Y033504D03*
G54D26*
X025118Y029623D03*
X021890Y034173D03*
X034528Y033701D03*
X029055Y031024D03*
Y030315D03*
Y031890D03*
X022638Y034764D03*
X030646Y026756D03*
X031673D03*
X009724Y024528D03*
X010236Y024488D03*
X010748Y032087D03*
X009893Y031654D03*
X009843Y033465D03*
X010827Y035433D03*
X011811Y021654D03*
X012795Y023622D03*
Y027559D03*
X011811Y029528D03*
X012795Y031496D03*
Y035433D03*
X011811Y037402D03*
X013780Y021654D03*
X014764Y023622D03*
X013780Y029528D03*
X014764Y031496D03*
Y035433D03*
X013780Y037402D03*
X015748Y021654D03*
X016732Y023622D03*
X015748Y029528D03*
X016732Y031496D03*
Y035433D03*
X015748Y037402D03*
X017717Y021654D03*
X018701Y023622D03*
Y027559D03*
X017717Y033465D03*
Y037402D03*
X019685Y021654D03*
X020669Y023622D03*
X019685Y025591D03*
Y033465D03*
Y037402D03*
X021654Y021654D03*
X022638Y023622D03*
X021654Y025591D03*
X022638Y027559D03*
X021654Y029528D03*
X022638Y031496D03*
X021654Y037402D03*
X023622Y021654D03*
X024606Y023622D03*
X023622Y025591D03*
X024606Y027559D03*
X023622Y037402D03*
X025591Y021654D03*
Y025591D03*
X026575Y027559D03*
X025591Y029528D03*
X026575Y035433D03*
X027559Y021654D03*
X028543Y023622D03*
Y027559D03*
X027559Y029528D03*
X029528Y021654D03*
X030512Y023622D03*
X029528Y025591D03*
X030512Y027559D03*
X029528Y029528D03*
X032480Y023622D03*
Y031496D03*
X031496Y033465D03*
X032480Y035433D03*
X031496Y037402D03*
X034449Y027559D03*
X033465Y029528D03*
X034449Y031496D03*
X033465Y037402D03*
X035433Y021654D03*
X036417Y023622D03*
X035433Y025591D03*
X036417Y027559D03*
X035433Y029528D03*
X036417Y031496D03*
X035433Y033465D03*
X036417Y035433D03*
X035433Y037402D03*
X037402Y021654D03*
X038386Y023622D03*
X037402Y025591D03*
X038386Y027559D03*
X037402Y029528D03*
X038386Y031496D03*
X037402Y033465D03*
X038386Y035433D03*
X037402Y037402D03*
X010236Y031654D03*
M02*