%FSDAX24Y24*%
%MOIN*%
%SFA1B1*%

%IPPOS*%
%AMD28*
4,1,8,0.021700,-0.005900,0.021700,0.005900,0.011800,0.015800,-0.011800,0.015800,-0.021700,0.005900,-0.021700,-0.005900,-0.011800,-0.015800,0.011800,-0.015800,0.021700,-0.005900,0.0*
1,1,0.019800,0.011800,-0.005900*
1,1,0.019800,0.011800,0.005900*
1,1,0.019800,-0.011800,0.005900*
1,1,0.019800,-0.011800,-0.005900*
%
%AMD31*
4,1,8,-0.005900,-0.021700,0.005900,-0.021700,0.015800,-0.011800,0.015800,0.011800,0.005900,0.021700,-0.005900,0.021700,-0.015800,0.011800,-0.015800,-0.011800,-0.005900,-0.021700,0.0*
1,1,0.019800,-0.005900,-0.011800*
1,1,0.019800,0.005900,-0.011800*
1,1,0.019800,0.005900,0.011800*
1,1,0.019800,-0.005900,0.011800*
%
%ADD21C,0.010000*%
G04~CAMADD=28~8~0.0~0.0~316.0~434.0~99.0~0.0~15~0.0~0.0~0.0~0.0~0~0.0~0.0~0.0~0.0~0~0.0~0.0~0.0~270.0~434.0~316.0*
%ADD28D28*%
G04~CAMADD=31~8~0.0~0.0~316.0~434.0~99.0~0.0~15~0.0~0.0~0.0~0.0~0~0.0~0.0~0.0~0.0~0~0.0~0.0~0.0~180.0~316.0~434.0*
%ADD31D31*%
%ADD35C,0.078900*%
%ADD36R,0.078900X0.078900*%
%ADD37C,0.047400*%
%LNuppsense-1*%
%LPD*%
G54D21*
X039370Y037402D02*
D01*
X039365Y037539*
X039350Y037676*
X039326Y037811*
X039293Y037944*
X039251Y038075*
X039199Y038202*
X039139Y038326*
X039070Y038445*
X038993Y038559*
X038909Y038667*
X038817Y038769*
X038718Y038865*
X038613Y038953*
X038502Y039034*
X038385Y039107*
X038264Y039171*
X038138Y039227*
X038009Y039274*
X037877Y039312*
X037742Y039341*
X037606Y039360*
X037469Y039369*
X037402Y039370*
X009843D02*
D01*
X009705Y039365*
X009568Y039350*
X009433Y039326*
X009300Y039293*
X009169Y039251*
X009042Y039199*
X008918Y039139*
X008799Y039070*
X008685Y038993*
X008577Y038909*
X008475Y038817*
X008379Y038718*
X008291Y038613*
X008210Y038502*
X008137Y038385*
X008073Y038264*
X008017Y038138*
X007970Y038009*
X007932Y037877*
X007903Y037742*
X007884Y037606*
X007875Y037469*
X007874Y037402*
Y019685D02*
X039370D01*
X023976Y036417D02*
X030374D01*
X023976D02*
Y039370D01*
X030374Y036417D02*
Y039370D01*
X039370Y019685D02*
Y037402D01*
X030374Y039370D02*
X037402D01*
X007874Y019685D02*
Y037402D01*
X009843Y039370D02*
X023976D01*
G54D28*
X026811Y032677D03*
Y032087D03*
X028031Y032657D03*
Y032067D03*
G54D31*
X029055Y029921D03*
X028465D03*
X029055Y030669D03*
X028465D03*
X029035Y031378D03*
X028445D03*
G54D35*
X033433Y023972D03*
Y024972D03*
X034433Y023972D03*
Y024972D03*
X035433Y023972D03*
X017811Y025185D03*
Y024185D03*
X016811Y025185D03*
Y024185D03*
X011811D03*
X012811Y025185D03*
Y024185D03*
X013811Y025185D03*
Y024185D03*
X014811D03*
Y025185D03*
X015811Y024185D03*
Y025185D03*
G54D36*
X035433Y024972D03*
X011811Y025185D03*
G54D37*
X022362Y035248D03*
Y035748D03*
Y036248D03*
Y036748D03*
Y037248D03*
M02*