%FSDAX24Y24*%
%MOIN*%
%SFA1B1*%

%IPPOS*%
%AMD28*
4,1,8,0.005900,0.021700,-0.005900,0.021700,-0.015800,0.011800,-0.015800,-0.011800,-0.005900,-0.021700,0.005900,-0.021700,0.015800,-0.011800,0.015800,0.011800,0.005900,0.021700,0.0*
1,1,0.019800,0.005900,0.011800*
1,1,0.019800,-0.005900,0.011800*
1,1,0.019800,-0.005900,-0.011800*
1,1,0.019800,0.005900,-0.011800*
%
%AMD29*
4,1,8,0.021700,-0.005900,0.021700,0.005900,0.011800,0.015800,-0.011800,0.015800,-0.021700,0.005900,-0.021700,-0.005900,-0.011800,-0.015800,0.011800,-0.015800,0.021700,-0.005900,0.0*
1,1,0.019800,0.011800,-0.005900*
1,1,0.019800,0.011800,0.005900*
1,1,0.019800,-0.011800,0.005900*
1,1,0.019800,-0.011800,-0.005900*
%
G04~CAMADD=28~8~0.0~0.0~316.0~434.0~99.0~0.0~15~0.0~0.0~0.0~0.0~0~0.0~0.0~0.0~0.0~0~0.0~0.0~0.0~0.0~316.0~434.0*
%ADD28D28*%
G04~CAMADD=29~8~0.0~0.0~316.0~434.0~99.0~0.0~15~0.0~0.0~0.0~0.0~0~0.0~0.0~0.0~0.0~0~0.0~0.0~0.0~270.0~434.0~316.0*
%ADD29D29*%
%ADD30O,0.025700X0.065100*%
%ADD31R,0.025700X0.065100*%
%ADD32R,0.063100X0.090700*%
%ADD33R,0.108000X0.053000*%
%ADD34R,0.063000X0.108000*%
%ADD35R,0.019800X0.065100*%
%ADD36O,0.019800X0.065100*%
%ADD37C,0.078900*%
%ADD38R,0.078900X0.078900*%
%ADD39C,0.047400*%
%LNuppsense-1*%
%LPD*%
G54D28*
X029902Y023031D03*
X029311D03*
X008665Y029130D03*
X009255D03*
X008653Y028428D03*
X009244D03*
X008668Y023427D03*
X009259D03*
X008668Y022677D03*
X009259D03*
X009803Y026378D03*
X010394D03*
X009803Y027126D03*
X010394D03*
X009818Y020627D03*
X010409D03*
X009818Y021327D03*
X010409D03*
X033720Y033701D03*
X033130D03*
X016240Y034606D03*
X016831D03*
X032185Y022098D03*
X032776D03*
X032185Y022807D03*
X032776D03*
X033858Y027165D03*
X034449D03*
G54D29*
X009213Y033445D03*
Y034035D03*
X032598Y024126D03*
Y024717D03*
X020748Y035236D03*
Y034646D03*
X021417Y034154D03*
Y033563D03*
X018543Y034606D03*
Y035197D03*
X033425Y026437D03*
Y025846D03*
X032598Y026016D03*
Y025425D03*
X031535Y022157D03*
Y021567D03*
X030787Y022138D03*
Y021547D03*
X032677Y027146D03*
Y027736D03*
G54D30*
X009902Y032874D03*
X010660Y029660D03*
X010625Y023909D03*
G54D31*
X010157Y032874D03*
X010413D03*
X010669D03*
Y034606D03*
X010413D03*
X010167D03*
X009911D03*
X010404Y029660D03*
X010148D03*
X009893D03*
Y027928D03*
X010148D03*
X010404D03*
X010660D03*
X010369Y023909D03*
X010113D03*
X009857D03*
Y022177D03*
X010113D03*
X010369D03*
X010625D03*
G54D32*
X017696Y038752D03*
X019468D03*
Y035170D03*
X017696D03*
X033130Y038760D03*
X034902D03*
Y035177D03*
X033130D03*
G54D33*
X024096Y035123D03*
Y034343D03*
Y033553D03*
Y032773D03*
Y031973D03*
Y031193D03*
Y030413D03*
Y029623D03*
X030246Y029613D03*
Y030403D03*
Y031183D03*
X030236Y031973D03*
Y032763D03*
Y033543D03*
Y035123D03*
Y034343D03*
G54D34*
X025196Y028803D03*
X025976D03*
X026756D03*
X027556D03*
X028336D03*
X029136D03*
G54D35*
X031136Y025296D03*
X031333D03*
X031530D03*
X031727D03*
X031924D03*
Y023563D03*
X031727D03*
X031530D03*
X031333D03*
G54D36*
X031136Y023563D03*
G54D37*
X033433Y024185D03*
Y025185D03*
X034433Y024185D03*
Y025185D03*
X035433Y024185D03*
X017811Y025185D03*
Y024185D03*
X016811Y025185D03*
Y024185D03*
X011811D03*
X012811Y025185D03*
Y024185D03*
X013811Y025185D03*
Y024185D03*
X014811D03*
Y025185D03*
X015811Y024185D03*
Y025185D03*
G54D38*
X035433Y025185D03*
X011811D03*
G54D39*
X022362Y035248D03*
Y035748D03*
Y036248D03*
Y036748D03*
Y037248D03*
M02*