%FSDAX24Y24*%
%MOIN*%
%SFA1B1*%

%IPPOS*%
%AMD10*
4,1,8,0.005900,0.017700,-0.005900,0.017700,-0.011800,0.011800,-0.011800,-0.011800,-0.005900,-0.017700,0.005900,-0.017700,0.011800,-0.011800,0.011800,0.011800,0.005900,0.017700,0.0*
1,1,0.011800,0.005900,0.011800*
1,1,0.011800,-0.005900,0.011800*
1,1,0.011800,-0.005900,-0.011800*
1,1,0.011800,0.005900,-0.011800*
%
%AMD11*
4,1,8,0.017700,-0.005900,0.017700,0.005900,0.011800,0.011800,-0.011800,0.011800,-0.017700,0.005900,-0.017700,-0.005900,-0.011800,-0.011800,0.011800,-0.011800,0.017700,-0.005900,0.0*
1,1,0.011800,0.011800,-0.005900*
1,1,0.011800,0.011800,0.005900*
1,1,0.011800,-0.011800,0.005900*
1,1,0.011800,-0.011800,-0.005900*
%
G04~CAMADD=10~8~0.0~0.0~236.0~354.0~59.0~0.0~15~0.0~0.0~0.0~0.0~0~0.0~0.0~0.0~0.0~0~0.0~0.0~0.0~0.0~236.0~354.0*
%ADD10D10*%
G04~CAMADD=11~8~0.0~0.0~236.0~354.0~59.0~0.0~15~0.0~0.0~0.0~0.0~0~0.0~0.0~0.0~0.0~0~0.0~0.0~0.0~270.0~354.0~236.0*
%ADD11D11*%
%ADD12O,0.017700X0.057100*%
%ADD13R,0.017700X0.057100*%
%ADD14R,0.055100X0.082700*%
%ADD15R,0.100000X0.045000*%
%ADD16R,0.055000X0.100000*%
%ADD17R,0.011800X0.057100*%
%ADD18O,0.011800X0.057100*%
%ADD19C,0.007900*%
%ADD20C,0.015700*%
%ADD21C,0.070900*%
%ADD22R,0.070900X0.070900*%
%ADD23C,0.039400*%
%ADD24C,0.023600*%
%ADD25C,0.050000*%
%LNuppsense-1*%
%LPD*%
G36*
X037639Y039205D02*
X037872Y039159D01*
X038098Y039082*
X038311Y038977*
X038509Y038845*
X038688Y038688*
X038845Y038509*
X038977Y038311*
X039082Y038098*
X039159Y037872*
X039205Y037639*
X039217Y037451*
X039219Y037402*
Y037352*
Y019836*
X008025*
Y037402*
X008024Y037408*
X008039Y037639*
X008086Y037872*
X008162Y038098*
X008267Y038311*
X008399Y038509*
X008556Y038688*
X008735Y038845*
X008933Y038977*
X009146Y039082*
X009372Y039159*
X009605Y039205*
X009793Y039217*
X009843Y039219*
X009892*
X023825*
Y036427*
X023837Y036369*
X023869Y036320*
X023879Y036310*
X023928Y036278*
X023986Y036266*
X030374*
X030432Y036278*
X030481Y036310*
X030514Y036359*
X030525Y036417*
Y039219*
X037402*
X037408Y039220*
X037639Y039205*
G37*
%LNuppsense-2*%
%LPC*%
G36*
X030746Y031489D02*
X029746D01*
X029715Y031482*
X029689Y031465*
X029672Y031439*
X029666Y031408*
Y031304*
X029490*
X029444Y031295*
X029405Y031268*
X029281Y031144*
X029211*
X029197Y031166*
X029132Y031209*
X029055Y031224*
X028978Y031209*
X028913Y031166*
X028870Y031100*
X028854Y031024*
X028870Y030947*
X028913Y030882*
X028978Y030838*
X029055Y030823*
X029132Y030838*
X029197Y030882*
X029211Y030903*
X029331*
X029377Y030912*
X029416Y030938*
X029540Y031063*
X029666*
Y030958*
X029672Y030928*
X029689Y030902*
X029715Y030884*
X029746Y030878*
X030746*
X030777Y030884*
X030803Y030902*
X030820Y030928*
X030826Y030958*
Y031408*
X030820Y031439*
X030803Y031465*
X030777Y031482*
X030746Y031489*
G37*
G36*
Y030709D02*
X029746D01*
X029715Y030702*
X029689Y030685*
X029672Y030659*
X029666Y030628*
Y030612*
X029468*
X029422Y030603*
X029383Y030577*
X029256Y030450*
X029199Y030454*
X029197Y030457*
X029132Y030500*
X029055Y030516*
X028978Y030500*
X028913Y030457*
X028870Y030392*
X028854Y030315*
X028870Y030238*
X028913Y030173*
X028978Y030130*
X029055Y030114*
X029132Y030130*
X029197Y030173*
X029211Y030195*
X029291*
Y030194*
X029337Y030204*
X029376Y030230*
X029518Y030372*
X029666*
Y030178*
X029672Y030148*
X029689Y030122*
X029715Y030104*
X029746Y030098*
X030746*
X030777Y030104*
X030803Y030122*
X030820Y030148*
X030826Y030178*
Y030628*
X030820Y030659*
X030803Y030685*
X030777Y030702*
X030746Y030709*
G37*
G36*
X030736Y032279D02*
X029736D01*
X029706Y032272*
X029679Y032255*
X029662Y032229*
X029656Y032198*
Y032010*
X029211*
X029197Y032032*
X029132Y032075*
X029055Y032090*
X028978Y032075*
X028913Y032032*
X028870Y031967*
X028854Y031890*
X028870Y031813*
X028913Y031748*
X028978Y031704*
X029055Y031689*
X029132Y031704*
X029197Y031748*
X029211Y031769*
X029656*
Y031748*
X029662Y031718*
X029679Y031692*
X029706Y031674*
X029736Y031668*
X030736*
X030767Y031674*
X030793Y031692*
X030810Y031718*
X030817Y031748*
Y032198*
X030810Y032229*
X030793Y032255*
X030767Y032272*
X030736Y032279*
G37*
G36*
X033780Y033959D02*
X033661D01*
X033608Y033949*
X033562Y033918*
X033532Y033873*
X033521Y033819*
Y033583*
X033532Y033529*
X033562Y033483*
X033608Y033453*
X033661Y033442*
X033780*
X033833Y033453*
X033879Y033483*
X033909Y033529*
X033920Y033580*
X034371*
X034386Y033559*
X034451Y033515*
X034528Y033500*
X034604Y033515*
X034669Y033559*
X034713Y033624*
X034728Y033701*
X034713Y033778*
X034669Y033843*
X034604Y033886*
X034528Y033901*
X034451Y033886*
X034386Y033843*
X034371Y033821*
X033920*
X033909Y033873*
X033879Y033918*
X033833Y033949*
X033780Y033959*
G37*
G36*
X034433Y024622D02*
X034320Y024607D01*
X034215Y024563*
X034124Y024494*
X034055Y024403*
X034011Y024298*
X033996Y024185*
X034011Y024072*
X034055Y023967*
X034124Y023876*
X034215Y023807*
X034313Y023766*
Y022487*
X033513Y021687*
X031778*
X031753Y021725*
X031707Y021756*
X031654Y021766*
X031417*
X031364Y021756*
X031318Y021725*
X031288Y021680*
X031277Y021626*
Y021508*
X031288Y021454*
X031318Y021409*
X031364Y021378*
X031417Y021367*
X031654*
X031707Y021378*
X031753Y021409*
X031778Y021447*
X033563*
Y021446*
X033609Y021456*
X033648Y021482*
X034518Y022352*
X034544Y022391*
X034553Y022437*
Y023766*
X034651Y023807*
X034742Y023876*
X034811Y023967*
X034855Y024072*
X034870Y024185*
X034855Y024298*
X034811Y024403*
X034742Y024494*
X034651Y024563*
X034546Y024607*
X034433Y024622*
G37*
G36*
X031136Y023930D02*
X031082Y023919D01*
X031037Y023889*
X031006Y023843*
X030996Y023790*
Y023337*
X031006Y023283*
X031014Y023271*
X030895Y023152*
X030101*
X030090Y023203*
X030060Y023249*
X030014Y023279*
X029961Y023290*
X029843*
X029789Y023279*
X029743Y023249*
X029713Y023203*
X029702Y023150*
Y022913*
X029713Y022860*
X029743Y022814*
X029789Y022784*
X029843Y022773*
X029961*
X030014Y022784*
X030060Y022814*
X030090Y022860*
X030101Y022911*
X030945*
X030991Y022920*
X031030Y022946*
X031166Y023083*
X031213Y023064*
Y022840*
X031052Y022679*
X026703*
X026652Y022731*
X026657Y022756*
X026642Y022833*
X026599Y022898*
X026534Y022941*
X026457Y022957*
X026380Y022941*
X026315Y022898*
X026271Y022833*
X026256Y022756*
X026271Y022679*
X026315Y022614*
X026380Y022570*
X026457Y022555*
X026482Y022560*
X026568Y022474*
X026607Y022448*
X026654Y022439*
X031102*
X031148Y022448*
X031188Y022474*
X031366Y022653*
X031415Y022631*
Y022357*
X031364Y022346*
X031318Y022316*
X031288Y022270*
X031285Y022258*
X031030*
X031005Y022296*
X030959Y022327*
X030906Y022337*
X030669*
X030616Y022327*
X030570Y022296*
X030539Y022251*
X030529Y022197*
Y022079*
X030539Y022025*
X030570Y021979*
X030616Y021949*
X030669Y021938*
X030906*
X030959Y021949*
X031005Y021979*
X031030Y022017*
X031306*
X031318Y021999*
X031364Y021969*
X031417Y021958*
X031654*
X031707Y021969*
X031753Y021999*
X031783Y022045*
X031794Y022098*
Y022217*
X031783Y022270*
X031753Y022316*
X031707Y022346*
X031656Y022357*
Y022600*
X031812Y022756*
X031819Y022766*
X031881Y022775*
X031934Y022722*
X031973Y022696*
X031985Y022693*
Y022689*
X031996Y022635*
X032027Y022590*
X032065Y022564*
Y022341*
X032027Y022316*
X031996Y022270*
X031985Y022217*
Y021980*
X031996Y021927*
X032027Y021881*
X032072Y021851*
X032126Y021840*
X032244*
X032298Y021851*
X032343Y021881*
X032374Y021927*
X032385Y021980*
Y022217*
X032374Y022270*
X032343Y022316*
X032305Y022341*
Y022564*
X032343Y022590*
X032374Y022635*
X032385Y022689*
Y022925*
X032374Y022979*
X032343Y023025*
X032298Y023055*
X032244Y023066*
X032126*
X032094Y023059*
X032044Y023092*
Y023228*
X032057Y023247*
X032063Y023278*
Y023849*
X032057Y023879*
X032039Y023906*
X032013Y023923*
X031983Y023929*
X031865*
X031834Y023923*
X031825Y023917*
X031817Y023923*
X031786Y023929*
X031668*
X031637Y023923*
X031611Y023906*
X031594Y023879*
X031587Y023849*
Y023278*
X031594Y023247*
X031606Y023228*
Y022891*
X031502Y022787*
X031453Y022809*
Y023228*
X031466Y023247*
X031472Y023278*
Y023849*
X031466Y023879*
X031449Y023906*
X031423Y023923*
X031392Y023929*
X031274*
X031243Y023923*
X031217Y023906*
X031215Y023903*
X031190Y023919*
X031136Y023930*
G37*
G36*
X026251Y029384D02*
X025701D01*
X025670Y029377*
X025644Y029360*
X025627Y029334*
X025621Y029303*
Y028303*
X025627Y028273*
X025644Y028247*
X025670Y028229*
X025701Y028223*
X026251*
X026282Y028229*
X026308Y028247*
X026325Y028273*
X026332Y028303*
Y029303*
X026325Y029334*
X026308Y029360*
X026282Y029377*
X026251Y029384*
G37*
G36*
X035433Y024622D02*
X035320Y024607D01*
X035215Y024563*
X035124Y024494*
X035055Y024403*
X035011Y024298*
X034996Y024185*
X035011Y024072*
X035055Y023967*
X035124Y023876*
X035215Y023807*
X035320Y023763*
X035433Y023748*
X035546Y023763*
X035651Y023807*
X035742Y023876*
X035811Y023967*
X035855Y024072*
X035870Y024185*
X035855Y024298*
X035811Y024403*
X035742Y024494*
X035651Y024563*
X035546Y024607*
X035433Y024622*
G37*
G36*
X027831Y029384D02*
X027281D01*
X027250Y029377*
X027224Y029360*
X027207Y029334*
X027201Y029303*
Y028303*
X027207Y028273*
X027224Y028247*
X027250Y028229*
X027281Y028223*
X027831*
X027862Y028229*
X027888Y028247*
X027905Y028273*
X027912Y028303*
Y029303*
X027905Y029334*
X027888Y029360*
X027862Y029377*
X027831Y029384*
G37*
G36*
X029411D02*
X028861D01*
X028830Y029377*
X028804Y029360*
X028787Y029334*
X028781Y029303*
Y028303*
X028787Y028273*
X028804Y028247*
X028830Y028229*
X028861Y028223*
X029411*
X029442Y028229*
X029468Y028247*
X029485Y028273*
X029492Y028303*
Y029303*
X029485Y029334*
X029468Y029360*
X029442Y029377*
X029411Y029384*
G37*
G36*
X028611D02*
X028061D01*
X028031Y029377*
X028004Y029360*
X027987Y029334*
X027981Y029303*
Y028303*
X027987Y028273*
X028004Y028247*
X028031Y028229*
X028061Y028223*
X028611*
X028642Y028229*
X028668Y028247*
X028685Y028273*
X028691Y028303*
Y029303*
X028685Y029334*
X028668Y029360*
X028642Y029377*
X028611Y029384*
G37*
G36*
X026181Y034662D02*
X026095Y034651D01*
X026015Y034618*
X025947Y034565*
X025894Y034497*
X025861Y034417*
X025850Y034331*
X025861Y034245*
X025894Y034165*
X025947Y034096*
X026015Y034044*
X026095Y034010*
X026181Y033999*
X026267Y034010*
X026347Y034044*
X026416Y034096*
X026468Y034165*
X026492Y034223*
X029656*
Y034118*
X029662Y034088*
X029679Y034062*
X029706Y034044*
X029736Y034038*
X030736*
X030767Y034044*
X030793Y034062*
X030810Y034088*
X030817Y034118*
Y034568*
X030810Y034599*
X030793Y034625*
X030767Y034642*
X030736Y034649*
X029736*
X029706Y034642*
X029679Y034625*
X029662Y034599*
X029656Y034568*
Y034464*
X026482*
X026468Y034497*
X026416Y034565*
X026347Y034618*
X026267Y034651*
X026181Y034662*
G37*
G36*
X026220Y035450D02*
X026135Y035438D01*
X026055Y035405*
X025986Y035353*
X025933Y035284*
X025900Y035204*
X025889Y035118*
X025900Y035032*
X025933Y034952*
X025986Y034884*
X026055Y034831*
X026135Y034798*
X026220Y034787*
X026306Y034798*
X026386Y034831*
X026455Y034884*
X026508Y034952*
X026529Y035003*
X029656*
Y034898*
X029662Y034868*
X029679Y034842*
X029706Y034824*
X029736Y034818*
X030736*
X030767Y034824*
X030793Y034842*
X030810Y034868*
X030817Y034898*
Y035348*
X030810Y035379*
X030793Y035405*
X030767Y035422*
X030736Y035429*
X029736*
X029706Y035422*
X029679Y035405*
X029662Y035379*
X029656Y035348*
Y035244*
X026524*
X026508Y035284*
X026455Y035353*
X026386Y035405*
X026306Y035438*
X026220Y035450*
G37*
G36*
X020306Y037090D02*
D01*
X010197*
X010135Y037077*
X010083Y037043*
X009798Y036757*
X009763Y036705*
X009751Y036644*
Y034926*
X009749Y034922*
X009743Y034892*
Y034321*
X009749Y034290*
X009751Y034287*
Y034230*
X009697Y034176*
X009442*
X009430Y034194*
X009384Y034224*
X009331Y034235*
X009094*
X009041Y034224*
X008995Y034194*
X008965Y034148*
X008954Y034094*
Y033976*
X008965Y033923*
X008995Y033877*
X009041Y033847*
X009094Y033836*
X009331*
X009384Y033847*
X009397Y033855*
X009764*
X009825Y033867*
X009877Y033902*
X010025Y034050*
X010060Y034102*
X010072Y034163*
Y034235*
X010079Y034241*
X010256*
X010287Y034247*
X010290Y034249*
X010294Y034247*
X010325Y034241*
X010502*
X010533Y034247*
X010541Y034252*
X010550Y034247*
X010581Y034241*
X010758*
X010789Y034247*
X010815Y034264*
X010832Y034290*
X010838Y034321*
Y034892*
X010832Y034922*
X010815Y034948*
X010789Y034966*
X010758Y034972*
X010581*
X010550Y034966*
X010541Y034960*
X010533Y034966*
X010502Y034972*
X010325*
X010294Y034966*
X010290Y034963*
X010287Y034966*
X010256Y034972*
X010079*
X010072Y034978*
Y036577*
X010263Y036769*
X020239*
X020587Y036420*
Y035427*
X020576Y035425*
X020531Y035395*
X020500Y035349*
X020489Y035295*
Y035177*
X020500Y035123*
X020521Y035092*
X020503Y035047*
X020499Y035042*
X020388*
X020341Y035033*
X020302Y035006*
X020023Y034727*
X019848*
X019824Y034756*
Y035583*
X019818Y035614*
X019800Y035640*
X019774Y035657*
X019744Y035663*
X019193*
X019162Y035657*
X019136Y035640*
X019118Y035614*
X019112Y035583*
Y035290*
X018795*
X018791Y035310*
X018761Y035355*
X018715Y035386*
X018661Y035396*
X018425*
X018371Y035386*
X018326Y035355*
X018300Y035317*
X018052*
Y035583*
X018046Y035614*
X018029Y035640*
X018003Y035657*
X017972Y035663*
X017421*
X017390Y035657*
X017364Y035640*
X017347Y035614*
X017341Y035583*
Y034756*
X017316Y034727*
X017030*
X017020Y034778*
X016989Y034824*
X016944Y034854*
X016890Y034865*
X016772*
X016718Y034854*
X016672Y034824*
X016642Y034778*
X016631Y034724*
Y034488*
X016642Y034434*
X016672Y034389*
X016710Y034363*
Y033849*
X016244Y033383*
X013184*
X013138Y033374*
X013099Y033348*
X012238Y032487*
X012212Y032448*
X012202Y032402*
Y025663*
X012165Y025620*
X011931*
Y026142*
X011922Y026188*
X011896Y026227*
X010781Y027342*
Y027569*
X010806Y027586*
X010823Y027612*
X010829Y027643*
Y028213*
X010823Y028244*
X010806Y028270*
X010780Y028288*
X010769Y028290*
X010745Y028325*
X010706Y028351*
X010660Y028360*
X010614Y028351*
X010575Y028325*
X010567Y028313*
X010524Y028288*
X010493Y028294*
X010406*
X010391Y028340*
Y028344*
X010745Y028698*
X010771Y028737*
X010781Y028783*
Y029343*
X010818Y029398*
X010831Y029463*
Y029857*
X010818Y029922*
X010781Y029978*
X010726Y030015*
X010660Y030028*
X010595Y030015*
X010570Y029998*
X010550Y030002*
X010524Y030020*
X010493Y030026*
X010316*
X010269Y030065*
Y030847*
X010321Y030899*
X010347Y030938*
X010357Y030984*
Y031497*
X010378Y031512*
X010393Y031533*
X010984*
X011030Y031542*
X011069Y031568*
X011266Y031765*
X011292Y031804*
X011302Y031850*
Y032205*
X011292Y032251*
X011266Y032290*
X011069Y032487*
X011030Y032513*
X010984Y032522*
X010612*
X010602Y032533*
X010579Y032572*
X010582Y032589*
Y033159*
X010576Y033190*
X010559Y033216*
X010533Y033234*
X010502Y033240*
X010325*
X010294Y033234*
X010285Y033228*
X010277Y033234*
X010246Y033240*
X010069*
X010038Y033234*
X010012Y033216*
X009991Y033212*
X009967Y033228*
X009902Y033241*
X009836Y033228*
X009781Y033191*
X009744Y033136*
X009731Y033071*
Y032677*
X009744Y032612*
X009772Y032570*
Y031810*
X009751Y031795*
X009707Y031730*
X009692Y031654*
X009707Y031577*
X009751Y031512*
X009772Y031497*
Y030019*
X009747Y030002*
X009730Y029976*
X009724Y029946*
Y029375*
X009730Y029344*
X009747Y029318*
X009773Y029301*
X009768Y029251*
X009454*
X009444Y029302*
X009414Y029348*
X009368Y029378*
X009314Y029389*
X009196*
X009142Y029378*
X009097Y029348*
X009066Y029302*
X009056Y029248*
Y029012*
X009066Y028958*
X009097Y028913*
X009142Y028882*
X009196Y028872*
X009314*
X009368Y028882*
X009414Y028913*
X009444Y028958*
X009454Y029010*
X010301*
X010347Y029019*
X010386Y029045*
X010489Y029149*
X010490*
X010540Y029134*
Y028833*
X010255Y028548*
X009443*
X009433Y028600*
X009402Y028645*
X009357Y028676*
X009303Y028687*
X009185*
X009131Y028676*
X009085Y028645*
X009055Y028600*
X009044Y028546*
Y028310*
X009055Y028256*
X009085Y028210*
X009131Y028180*
X009185Y028169*
X009303*
X009357Y028180*
X009402Y028210*
X009433Y028256*
X009443Y028308*
X009972*
X009979Y028300*
X009995Y028258*
X009986Y028244*
X009980Y028213*
Y027643*
X009986Y027612*
X010003Y027586*
X010028Y027569*
Y027272*
X010037Y027226*
X010063Y027187*
X010152Y027099*
X010191Y027073*
X010194Y027072*
Y027008*
X010205Y026954*
X010235Y026909*
X010278Y026880*
Y026624*
X010235Y026595*
X010205Y026550*
X010194Y026496*
Y026260*
X010205Y026206*
X010233Y026164*
Y026011*
X008554Y024333*
X008520Y024281*
X008507Y024219*
Y023641*
X008479Y023599*
X008468Y023545*
Y023309*
X008479Y023255*
X008507Y023212*
Y022891*
X008479Y022849*
X008468Y022795*
Y022559*
X008479Y022505*
X008507Y022462*
Y020741*
X008520Y020680*
X008554Y020628*
X008568Y020615*
X009020Y020162*
X009072Y020127*
X009134Y020115*
X010560*
X023307*
X023369Y020127*
X023421Y020162*
X026505Y023246*
X026805Y022946*
X026844Y022920*
X026890Y022911*
X029112*
X029122Y022860*
X029153Y022814*
X029198Y022784*
X029252Y022773*
X029370*
X029424Y022784*
X029469Y022814*
X029500Y022860*
X029511Y022913*
Y023150*
X029500Y023203*
X029469Y023249*
X029424Y023279*
X029370Y023290*
X029252*
X029198Y023279*
X029153Y023249*
X029122Y023203*
X029112Y023152*
X026940*
X026675Y023417*
X027043Y023784*
X027077Y023836*
X027090Y023898*
Y025030*
X028695Y026635*
X030489*
X030504Y026614*
X030569Y026570*
X030646Y026555*
X030723Y026570*
X030788Y026614*
X030831Y026679*
X030846Y026756*
X030831Y026833*
X030788Y026898*
X030723Y026941*
X030646Y026957*
X030569Y026941*
X030504Y026898*
X030489Y026876*
X028638*
X028592Y026867*
X028553Y026841*
X028537Y026818*
X026958Y025238*
X025822Y026373*
X025310Y026885*
X025258Y026920*
X025197Y026932*
X023546*
Y028516*
X024210Y029180*
X024245Y029232*
X024257Y029293*
Y029318*
X024596*
X024627Y029324*
X024653Y029342*
X024670Y029368*
X024676Y029398*
Y029463*
X025004*
X025041Y029438*
X025063Y029434*
X025058Y029384*
X024921*
X024890Y029377*
X024864Y029360*
X024847Y029334*
X024841Y029303*
Y028303*
X024847Y028273*
X024864Y028247*
X024890Y028229*
X024921Y028223*
X025471*
X025502Y028229*
X025528Y028247*
X025545Y028273*
X025552Y028303*
Y029303*
X025545Y029334*
X025528Y029360*
X025502Y029377*
X025471Y029384*
X025178*
X025173Y029434*
X025195Y029438*
X025260Y029481*
X025304Y029546*
X025319Y029623*
X025304Y029700*
X025279Y029737*
Y033596*
X025325Y033615*
X026636Y032304*
Y029384*
X026481*
X026451Y029377*
X026424Y029360*
X026407Y029334*
X026401Y029303*
Y028303*
X026407Y028273*
X026424Y028247*
X026451Y028229*
X026481Y028223*
X027031*
X027062Y028229*
X027088Y028247*
X027105Y028273*
X027111Y028303*
Y029303*
X027105Y029334*
X027088Y029360*
X027062Y029377*
X027031Y029384*
X026877*
Y032354*
X026867Y032400*
X026841Y032439*
X025416Y033865*
Y035467*
X025407Y035513*
X025380Y035552*
X025119Y035814*
X025080Y035840*
X025034Y035849*
X024164*
X023180Y036833*
X023141Y036859*
X023094Y036868*
X022611*
X022603Y036887*
X022559Y036945*
X022501Y036989*
X022434Y037017*
X022362Y037026*
X022290Y037017*
X022223Y036989*
X022166Y036945*
X022121Y036887*
X022094Y036820*
X022084Y036748*
X022094Y036676*
X022121Y036609*
X022166Y036551*
X022195Y036529*
Y036467*
X022166Y036445*
X022121Y036387*
X022094Y036320*
X022084Y036248*
X022094Y036176*
X022121Y036109*
X022166Y036051*
X022195Y036029*
Y035967*
X022166Y035945*
X022121Y035887*
X022094Y035820*
X022084Y035748*
X022094Y035676*
X022121Y035609*
X022166Y035551*
X022195Y035529*
Y035467*
X022166Y035445*
X022138Y035409*
X020945*
X020920Y035425*
X020909Y035427*
Y036487*
X020896Y036548*
X020862Y036600*
X020419Y037043*
X020367Y037077*
X020357Y037080*
X020306Y037090*
G37*
G36*
X030736Y033849D02*
X029736D01*
X029706Y033842*
X029679Y033825*
X029662Y033799*
X029656Y033768*
Y033624*
X029519*
X029500Y033670*
X029447Y033738*
X029378Y033791*
X029298Y033824*
X029213Y033836*
X029127Y033824*
X029047Y033791*
X028978Y033738*
X028925Y033670*
X028892Y033590*
X028881Y033504*
X028892Y033418*
X028925Y033338*
X028978Y033269*
X029047Y033217*
X029127Y033184*
X029213Y033172*
X029298Y033184*
X029378Y033217*
X029447Y033269*
X029500Y033338*
X029519Y033384*
X029656*
Y033318*
X029662Y033288*
X029679Y033262*
X029706Y033244*
X029736Y033238*
X030736*
X030767Y033244*
X030793Y033262*
X030810Y033288*
X030817Y033318*
Y033423*
X030974*
X031213Y033184*
Y032645*
X031166Y032626*
X030951Y032841*
X030912Y032867*
X030866Y032876*
X030817*
Y032988*
X030810Y033019*
X030793Y033045*
X030767Y033062*
X030736Y033069*
X029736*
X029706Y033062*
X029679Y033045*
X029662Y033019*
X029656Y032988*
Y032884*
X029437*
X029421Y032922*
X029368Y032990*
X029300Y033043*
X029220Y033076*
X029134Y033087*
X029048Y033076*
X028968Y033043*
X028899Y032990*
X028847Y032922*
X028814Y032842*
X028802Y032756*
X028814Y032670*
X028847Y032590*
X028899Y032521*
X028968Y032469*
X029048Y032436*
X029134Y032424*
X029220Y032436*
X029300Y032469*
X029368Y032521*
X029421Y032590*
X029443Y032643*
X029656*
Y032538*
X029662Y032508*
X029679Y032482*
X029706Y032464*
X029736Y032458*
X030736*
X030767Y032464*
X030793Y032482*
X030810Y032508*
X030817Y032538*
Y032570*
X030863Y032589*
X031016Y032436*
Y025631*
X031003Y025612*
X030997Y025581*
Y025010*
X031003Y024979*
X031020Y024953*
X031046Y024936*
X031077Y024930*
X031195*
X031226Y024936*
X031235Y024942*
X031243Y024936*
X031274Y024930*
X031392*
X031417Y024935*
X031419Y024926*
X031445Y024887*
X031701Y024631*
X031740Y024605*
X031786Y024596*
X032356*
X032381Y024558*
X032427Y024528*
X032480Y024517*
X032717*
X032770Y024528*
X032782Y024536*
X032832Y024509*
Y023790*
X032690Y023648*
X032664Y023609*
X032655Y023563*
Y023050*
X032617Y023025*
X032587Y022979*
X032576Y022925*
Y022689*
X032587Y022635*
X032617Y022590*
X032663Y022559*
X032717Y022548*
X032835*
X032888Y022559*
X032934Y022590*
X032964Y022635*
X032975Y022689*
Y022925*
X032964Y022979*
X032934Y023025*
X032896Y023050*
Y023513*
X033038Y023655*
X033064Y023694*
X033073Y023740*
Y023865*
X033121Y023881*
X033124Y023876*
X033215Y023807*
X033320Y023763*
X033433Y023748*
X033546Y023763*
X033651Y023807*
X033742Y023876*
X033811Y023967*
X033855Y024072*
X033870Y024185*
X033855Y024298*
X033814Y024396*
X034022Y024604*
X034048Y024643*
X034057Y024689*
Y024885*
X034105Y024901*
X034124Y024876*
X034215Y024807*
X034320Y024763*
X034433Y024748*
X034546Y024763*
X034651Y024807*
X034742Y024876*
X034811Y024967*
X034855Y025072*
X034870Y025185*
X034855Y025298*
X034811Y025403*
X034742Y025494*
X034651Y025563*
X034553Y025604*
Y026916*
X034562Y026917*
X034607Y026948*
X034638Y026993*
X034648Y027047*
Y027283*
X034638Y027337*
X034607Y027383*
X034562Y027413*
X034508Y027424*
X034390*
X034336Y027413*
X034290Y027383*
X034260Y027337*
X034249Y027283*
Y027047*
X034260Y026993*
X034290Y026948*
X034313Y026933*
Y025604*
X034215Y025563*
X034124Y025494*
X034105Y025469*
X034057Y025485*
Y025591*
X034048Y025637*
X034022Y025676*
X033766Y025932*
X033727Y025958*
X033681Y025967*
X033668*
X033643Y026005*
X033597Y026035*
X033543Y026046*
X033307*
X033253Y026035*
X033208Y026005*
X033177Y025959*
X033167Y025906*
Y025787*
X033177Y025734*
X033208Y025688*
X033253Y025658*
X033293Y025650*
X033299Y025598*
X033215Y025563*
X033124Y025494*
X033055Y025403*
X033011Y025298*
X032996Y025185*
X033011Y025072*
X033052Y024974*
X032899Y024821*
X032861Y024827*
X032842Y024835*
X032816Y024875*
X032770Y024905*
X032717Y024916*
X032480*
X032427Y024905*
X032381Y024875*
X032356Y024837*
X031836*
X031815Y024858*
X031818Y024921*
X031834Y024936*
X031865Y024930*
X031983*
X032013Y024936*
X032039Y024953*
X032057Y024979*
X032063Y025010*
Y025581*
X032057Y025612*
X032044Y025631*
Y025783*
X032136Y025876*
X032369*
X032381Y025857*
X032427Y025827*
X032480Y025816*
X032717*
X032770Y025827*
X032816Y025857*
X032841Y025895*
X032933*
X032979Y025904*
X033018Y025931*
X033117Y026029*
X033143Y026068*
X033152Y026114*
Y026250*
X033199Y026280*
X033208Y026279*
X033253Y026248*
X033307Y026237*
X033543*
X033597Y026248*
X033643Y026279*
X033673Y026324*
X033684Y026378*
Y026496*
X033673Y026550*
X033643Y026595*
X033597Y026626*
X033543Y026637*
X033307*
X033253Y026626*
X033208Y026595*
X033182Y026557*
X033130*
X033084Y026548*
X033045Y026522*
X032946Y026424*
X032920Y026385*
X032911Y026339*
Y026180*
X032882Y026152*
X032827Y026158*
X032816Y026174*
X032770Y026205*
X032717Y026215*
X032480*
X032427Y026205*
X032381Y026174*
X032351Y026129*
X032348Y026116*
X032087*
X032041Y026107*
X032001Y026081*
X031899Y025979*
X031853Y025998*
Y026459*
X032399Y027006*
X032447*
X032460Y026987*
X032505Y026957*
X032559Y026946*
X032795*
X032849Y026957*
X032895Y026987*
X032920Y027025*
X033663*
X033669Y026993*
X033700Y026948*
X033745Y026917*
X033799Y026907*
X033917*
X033971Y026917*
X034017Y026948*
X034047Y026993*
X034058Y027047*
Y027283*
X034047Y027337*
X034017Y027383*
X033971Y027413*
X033917Y027424*
X033799*
X033745Y027413*
X033700Y027383*
X033669Y027337*
X033659Y027283*
Y027266*
X032920*
X032895Y027304*
X032849Y027335*
X032795Y027345*
X032559*
X032505Y027335*
X032460Y027304*
X032429Y027258*
X032427Y027246*
X032349*
X032303Y027237*
X032264Y027211*
X031902Y026849*
X031841Y026859*
X031815Y026898*
X031750Y026941*
X031673Y026957*
X031596Y026941*
X031531Y026898*
X031503Y026857*
X031453Y026872*
Y033234*
X031444Y033280*
X031418Y033319*
X031109Y033628*
X031070Y033655*
X031024Y033664*
X030817*
Y033768*
X030810Y033799*
X030793Y033825*
X030767Y033842*
X030736Y033849*
G37*
G36*
X035177Y035671D02*
X034626D01*
X034595Y035665*
X034569Y035647*
X034552Y035621*
X034546Y035591*
Y035258*
X033486*
Y035591*
X033480Y035621*
X033462Y035647*
X033436Y035665*
X033406Y035671*
X032854*
X032824Y035665*
X032798Y035647*
X032780Y035621*
X032774Y035591*
Y034764*
X032780Y034733*
X032798Y034707*
X032824Y034690*
X032854Y034683*
X033010*
Y033944*
X032972Y033918*
X032941Y033873*
X032930Y033819*
Y033583*
X032941Y033529*
X032972Y033483*
X033017Y033453*
X033071Y033442*
X033189*
X033243Y033453*
X033288Y033483*
X033319Y033529*
X033329Y033583*
Y033819*
X033319Y033873*
X033288Y033918*
X033250Y033944*
Y034683*
X033406*
X033436Y034690*
X033462Y034707*
X033480Y034733*
X033486Y034764*
Y035017*
X034546*
Y034764*
X034552Y034733*
X034569Y034707*
X034595Y034690*
X034626Y034683*
X035177*
X035208Y034690*
X035234Y034707*
X035251Y034733*
X035257Y034764*
Y035591*
X035251Y035621*
X035234Y035647*
X035208Y035665*
X035177Y035671*
G37*
%LNuppsense-3*%
%LPD*%
G36*
X023516Y035348D02*
Y034898D01*
X023517Y034895*
X023349Y034727*
X022992*
X022946Y034718*
X022907Y034691*
X022869Y034694*
X022834Y034741*
X022838Y034764*
X022823Y034841*
X022780Y034906*
X022715Y034949*
X022686Y034955*
X022572Y035069*
X022603Y035109*
X022631Y035176*
X022640Y035248*
X022634Y035293*
X022732Y035391*
X023474*
X023516Y035348*
G37*
G36*
X023914Y035758D02*
X023895Y035712D01*
X022686*
X022648Y035742*
X022639Y035757*
X022631Y035820*
X022603Y035887*
X022559Y035945*
X022529Y035967*
Y036029*
X022559Y036051*
X022603Y036109*
X022631Y036176*
X022640Y036248*
X022631Y036320*
X022603Y036387*
X022559Y036445*
X022529Y036467*
Y036529*
X022559Y036551*
X022603Y036609*
X022611Y036628*
X023045*
X023914Y035758*
G37*
G36*
X024958Y035327D02*
Y029784D01*
X024676*
Y029848*
X024670Y029879*
X024653Y029905*
X024627Y029922*
X024596Y029929*
X023596*
X023565Y029922*
X023539Y029905*
X023522Y029879*
X023516Y029848*
Y029398*
X023522Y029368*
X023539Y029342*
X023565Y029324*
X023596Y029318*
X023829*
X023848Y029272*
X023272Y028696*
X023237Y028644*
X023225Y028583*
Y026838*
X021733Y025346*
X018213*
X018189Y025403*
X018120Y025494*
X018029Y025563*
X017924Y025607*
X017811Y025622*
X017698Y025607*
X017593Y025563*
X017502Y025494*
X017433Y025403*
X017389Y025298*
X017374Y025185*
X017389Y025072*
X017433Y024967*
X017502Y024876*
X017593Y024807*
X017698Y024763*
X017811Y024748*
X017924Y024763*
X018029Y024807*
X018120Y024876*
X018189Y024967*
X018213Y025024*
X021799*
X021861Y025037*
X021913Y025071*
X023452Y026611*
X025130*
X025595Y026146*
X026769Y024973*
Y023964*
X026363Y023558*
X023241Y020436*
X010636*
X010602Y020476*
X010608Y020509*
Y020745*
X010597Y020799*
X010567Y020844*
X010529Y020869*
Y021084*
X010567Y021109*
X010597Y021155*
X010608Y021209*
Y021445*
X010597Y021499*
X010567Y021544*
X010521Y021575*
X010490Y021581*
Y021772*
X010536Y021811*
X010714*
X010744Y021817*
X010770Y021834*
X010788Y021860*
X010794Y021891*
Y022462*
X010788Y022493*
X010770Y022519*
X010746Y022536*
Y022583*
X011113Y022950*
X011575*
X011621Y022960*
X011660Y022986*
X011896Y023222*
X011922Y023261*
X011931Y023307*
Y023766*
X012029Y023807*
X012120Y023876*
X012189Y023967*
X012233Y024072*
X012248Y024185*
X012233Y024298*
X012189Y024403*
X012120Y024494*
X012029Y024563*
X011924Y024607*
X011811Y024622*
X011698Y024607*
X011593Y024563*
X011502Y024494*
X011433Y024403*
X011389Y024298*
X011374Y024185*
X011389Y024072*
X011433Y023967*
X011502Y023876*
X011593Y023807*
X011691Y023766*
Y023357*
X011525Y023191*
X011063*
X011017Y023182*
X010978Y023156*
X010540Y022718*
X010514Y022679*
X010505Y022633*
Y022581*
X010458Y022542*
X010281*
X010250Y022536*
X010241Y022530*
X010233Y022536*
X010202Y022542*
X010025*
X009994Y022536*
X009968Y022519*
X009951Y022493*
X009944Y022462*
Y021891*
X009951Y021860*
X009968Y021834*
X009993Y021818*
Y021455*
X010002Y021409*
X010028Y021370*
X010156Y021242*
Y021241*
X010196Y021215*
X010209Y021213*
Y021209*
X010220Y021155*
X010250Y021109*
X010288Y021084*
Y020869*
X010250Y020844*
X010220Y020799*
X010209Y020745*
Y020509*
X010213Y020486*
X010177Y020436*
X009200*
X008829Y020808*
Y022462*
X008857Y022505*
X008868Y022559*
Y022795*
X008857Y022849*
X008829Y022891*
Y023212*
X008857Y023255*
X008868Y023309*
Y023545*
X008857Y023599*
X008829Y023641*
Y024153*
X010507Y025831*
X010542Y025883*
X010554Y025945*
Y026164*
X010583Y026206*
X010593Y026260*
Y026496*
X010583Y026550*
X010552Y026595*
X010519Y026618*
Y026886*
X010552Y026909*
X010583Y026954*
X010593Y027008*
Y027124*
X010639Y027143*
X011691Y026092*
Y025620*
X011457*
X011426Y025614*
X011400Y025596*
X011383Y025570*
X011376Y025539*
Y024831*
X011383Y024800*
X011400Y024774*
X011426Y024757*
X011457Y024750*
X012165*
X012202Y024707*
Y024673*
X012212Y024627*
X012238Y024588*
X012430Y024396*
X012389Y024298*
X012374Y024185*
X012389Y024072*
X012433Y023967*
X012502Y023876*
X012593Y023807*
X012698Y023763*
X012811Y023748*
X012924Y023763*
X013029Y023807*
X013120Y023876*
X013189Y023967*
X013233Y024072*
X013248Y024185*
X013233Y024298*
X013189Y024403*
X013120Y024494*
X013029Y024563*
X012924Y024607*
X012811Y024622*
X012698Y024607*
X012600Y024566*
X012443Y024723*
Y024875*
X012491Y024891*
X012502Y024876*
X012593Y024807*
X012698Y024763*
X012811Y024748*
X012924Y024763*
X013029Y024807*
X013120Y024876*
X013189Y024967*
X013233Y025072*
X013248Y025185*
X013233Y025298*
X013189Y025403*
X013120Y025494*
X013029Y025563*
X012924Y025607*
X012811Y025622*
X012698Y025607*
X012593Y025563*
X012502Y025494*
X012491Y025479*
X012443Y025495*
Y032352*
X013234Y033142*
X016294*
X016340Y033152*
X016379Y033178*
X016916Y033714*
X016942Y033753*
X016951Y033799*
Y034363*
X016989Y034389*
X017020Y034434*
X017030Y034486*
X018300*
X018326Y034448*
X018371Y034417*
X018425Y034407*
X018661*
X018715Y034417*
X018761Y034448*
X018786Y034486*
X020073*
X020119Y034495*
X020158Y034521*
X020430Y034794*
X020469Y034789*
X020497Y034744*
X020489Y034705*
Y034587*
X020500Y034533*
X020531Y034487*
X020576Y034457*
X020628Y034447*
Y034134*
X020637Y034088*
X020663Y034049*
X020938Y033773*
X020978Y033747*
X021024Y033738*
X021151*
X021177Y033688*
X021169Y033676*
X021159Y033622*
Y033504*
X021169Y033450*
X021200Y033405*
X021245Y033374*
X021299Y033363*
X021535*
X021589Y033374*
X021635Y033405*
X021654Y033433*
X023516*
Y033328*
X023522Y033298*
X023539Y033272*
X023565Y033254*
X023596Y033248*
X024596*
X024627Y033254*
X024653Y033272*
X024670Y033298*
X024676Y033328*
Y033778*
X024670Y033809*
X024653Y033835*
X024627Y033852*
X024596Y033859*
X023596*
X023565Y033852*
X023539Y033835*
X023522Y033809*
X023516Y033778*
Y033674*
X021706*
X021698Y033688*
X021726Y033738*
X022244*
X022290Y033747*
X022329Y033773*
X023018Y034462*
X023042Y034486*
X023399*
X023445Y034495*
X023466Y034509*
X023516Y034486*
Y034118*
X023522Y034088*
X023539Y034062*
X023565Y034044*
X023596Y034038*
X024596*
X024627Y034044*
X024653Y034062*
X024670Y034088*
X024676Y034118*
Y034568*
X024670Y034599*
X024653Y034625*
X024627Y034642*
X024596Y034649*
X023677*
X023657Y034695*
X023781Y034818*
X024596*
X024627Y034824*
X024653Y034842*
X024670Y034868*
X024676Y034898*
Y035348*
X024718Y035391*
X024894*
X024958Y035327*
G37*
G36*
X021588Y034462D02*
X021627Y034436D01*
X021673Y034427*
X022577*
X022596Y034381*
X022194Y033979*
X022043*
X022028Y034029*
X022032Y034031*
X022075Y034096*
X022090Y034173*
X022075Y034250*
X022032Y034315*
X021967Y034359*
X021890Y034374*
X021813Y034359*
X021748Y034315*
X021733Y034294*
X021647*
X021635Y034312*
X021589Y034342*
X021535Y034353*
X021299*
X021245Y034342*
X021200Y034312*
X021169Y034266*
X021159Y034213*
Y034094*
X021169Y034041*
X021177Y034029*
X021151Y033979*
X021074*
X020868Y034184*
Y034447*
X020920Y034457*
X020965Y034487*
X020996Y034533*
X021007Y034587*
Y034705*
X020997Y034751*
X021020Y034801*
X021249*
X021588Y034462*
G37*
G36*
X018326Y035038D02*
X018371Y035008D01*
X018425Y034997*
X018661*
X018715Y035008*
X018761Y035038*
X018768Y035049*
X019112*
Y034756*
X019088Y034727*
X018786*
X018761Y034765*
X018715Y034795*
X018661Y034806*
X018425*
X018371Y034795*
X018326Y034765*
X018300Y034727*
X018077*
X018052Y034756*
Y035076*
X018300*
X018326Y035038*
G37*
G36*
X022166Y035051D02*
X022208Y035019D01*
X022214Y034990*
X022249Y034938*
X022441Y034746*
X022446Y034718*
X022410Y034668*
X021723*
X021384Y035006*
X021345Y035033*
X021320Y035037*
X021325Y035087*
X022138*
X022166Y035051*
G37*
%LNuppsense-4*%
%LPC*%
G36*
X009724Y024728D02*
X009648Y024713D01*
X009582Y024669*
X009539Y024604*
X009524Y024528*
X009539Y024451*
X009582Y024386*
X009648Y024342*
X009724Y024327*
X009737Y024317*
Y024268*
X009712Y024251*
X009695Y024225*
X009688Y024194*
Y023623*
X009694Y023597*
X009693Y023590*
X009665Y023547*
X009458*
X009447Y023599*
X009417Y023644*
X009371Y023675*
X009318Y023685*
X009199*
X009146Y023675*
X009100Y023644*
X009070Y023599*
X009059Y023545*
Y023309*
X009070Y023255*
X009100Y023209*
X009146Y023179*
X009199Y023168*
X009318*
X009371Y023179*
X009417Y023209*
X009447Y023255*
X009458Y023306*
X010218*
X010239Y023257*
X009779Y022797*
X009458*
X009447Y022849*
X009417Y022894*
X009371Y022925*
X009318Y022935*
X009199*
X009146Y022925*
X009100Y022894*
X009070Y022849*
X009059Y022795*
Y022559*
X009070Y022505*
X009100Y022459*
X009146Y022429*
X009199Y022418*
X009318*
X009371Y022429*
X009417Y022459*
X009447Y022505*
X009458Y022556*
X009829*
X009875Y022565*
X009914Y022591*
X010710Y023387*
X010736Y023426*
X010746Y023473*
Y023591*
X010783Y023647*
X010796Y023712*
Y024106*
X010783Y024171*
X010746Y024226*
X010690Y024263*
X010625Y024276*
X010560Y024263*
X010535Y024247*
X010515Y024251*
X010488Y024269*
X010458Y024275*
X010361*
X010346Y024325*
X010378Y024346*
X010422Y024411*
X010437Y024488*
X010422Y024565*
X010378Y024630*
X010313Y024674*
X010236Y024689*
X010159Y024674*
X010094Y024630*
X010051Y024565*
X010036Y024488*
X010037Y024481*
X010011Y024451*
X009958Y024457*
X009943Y024480*
X009920Y024502*
X009925Y024528*
X009910Y024604*
X009866Y024669*
X009801Y024713*
X009724Y024728*
G37*
G36*
X016811Y024622D02*
X016698Y024607D01*
X016593Y024563*
X016502Y024494*
X016433Y024403*
X016389Y024298*
X016374Y024185*
X016389Y024072*
X016433Y023967*
X016502Y023876*
X016593Y023807*
X016698Y023763*
X016811Y023748*
X016924Y023763*
X017029Y023807*
X017120Y023876*
X017189Y023967*
X017233Y024072*
X017248Y024185*
X017233Y024298*
X017189Y024403*
X017120Y024494*
X017029Y024563*
X016924Y024607*
X016811Y024622*
G37*
G36*
X024596Y033079D02*
X023596D01*
X023565Y033072*
X023539Y033055*
X023522Y033029*
X023516Y032998*
Y032894*
X020175*
X020129Y032885*
X020090Y032858*
X014246Y027014*
X014219Y026975*
X014210Y026929*
Y025458*
X014160Y025441*
X014120Y025494*
X014029Y025563*
X013924Y025607*
X013811Y025622*
X013698Y025607*
X013593Y025563*
X013502Y025494*
X013433Y025403*
X013389Y025298*
X013374Y025185*
X013389Y025072*
X013433Y024967*
X013502Y024876*
X013593Y024807*
X013698Y024763*
X013811Y024748*
X013924Y024763*
X014029Y024807*
X014120Y024876*
X014160Y024929*
X014210Y024912*
Y024755*
X014022Y024566*
X013924Y024607*
X013811Y024622*
X013698Y024607*
X013593Y024563*
X013502Y024494*
X013433Y024403*
X013389Y024298*
X013374Y024185*
X013389Y024072*
X013433Y023967*
X013502Y023876*
X013593Y023807*
X013698Y023763*
X013811Y023748*
X013924Y023763*
X014029Y023807*
X014120Y023876*
X014189Y023967*
X014233Y024072*
X014248Y024185*
X014233Y024298*
X014192Y024396*
X014416Y024620*
X014442Y024659*
X014451Y024705*
Y024865*
X014498Y024881*
X014502Y024876*
X014593Y024807*
X014698Y024763*
X014811Y024748*
X014924Y024763*
X015029Y024807*
X015120Y024876*
X015145Y024908*
X015195Y024891*
Y024739*
X015022Y024566*
X014924Y024607*
X014811Y024622*
X014698Y024607*
X014593Y024563*
X014502Y024494*
X014433Y024403*
X014389Y024298*
X014374Y024185*
X014389Y024072*
X014433Y023967*
X014502Y023876*
X014593Y023807*
X014698Y023763*
X014811Y023748*
X014924Y023763*
X015029Y023807*
X015120Y023876*
X015189Y023967*
X015233Y024072*
X015248Y024185*
X015233Y024298*
X015192Y024396*
X015400Y024604*
X015426Y024643*
X015435Y024689*
Y024885*
X015483Y024901*
X015502Y024876*
X015593Y024807*
X015698Y024763*
X015811Y024748*
X015924Y024763*
X016029Y024807*
X016120Y024876*
X016168Y024939*
X016218Y024922*
Y024762*
X016022Y024566*
X015924Y024607*
X015811Y024622*
X015698Y024607*
X015593Y024563*
X015502Y024494*
X015433Y024403*
X015389Y024298*
X015374Y024185*
X015389Y024072*
X015433Y023967*
X015502Y023876*
X015593Y023807*
X015698Y023763*
X015811Y023748*
X015924Y023763*
X016029Y023807*
X016120Y023876*
X016189Y023967*
X016233Y024072*
X016248Y024185*
X016233Y024298*
X016192Y024396*
X016424Y024627*
X016450Y024667*
X016459Y024713*
Y027982*
X016699Y028222*
X019550Y031073*
X023516*
Y030968*
X023522Y030938*
X023539Y030912*
X023565Y030894*
X023596Y030888*
X024596*
X024627Y030894*
X024653Y030912*
X024670Y030938*
X024676Y030968*
Y031418*
X024670Y031449*
X024653Y031475*
X024627Y031492*
X024596Y031499*
X023596*
X023565Y031492*
X023539Y031475*
X023522Y031449*
X023516Y031418*
Y031314*
X019500*
X019454Y031305*
X019415Y031278*
X016529Y028392*
X016253Y028117*
X016227Y028078*
X016218Y028031*
Y025448*
X016168Y025431*
X016120Y025494*
X016029Y025563*
X015924Y025607*
X015811Y025622*
X015698Y025607*
X015593Y025563*
X015502Y025494*
X015483Y025469*
X015435Y025485*
Y027430*
X019858Y031853*
X023516*
Y031748*
X023522Y031718*
X023539Y031692*
X023565Y031674*
X023596Y031668*
X024596*
X024627Y031674*
X024653Y031692*
X024670Y031718*
X024676Y031748*
Y032198*
X024670Y032229*
X024653Y032255*
X024627Y032272*
X024596Y032279*
X023596*
X023565Y032272*
X023539Y032255*
X023522Y032229*
X023516Y032198*
Y032094*
X019808*
X019762Y032085*
X019723Y032058*
X015230Y027565*
X015204Y027526*
X015195Y027480*
Y025479*
X015145Y025462*
X015120Y025494*
X015029Y025563*
X014924Y025607*
X014811Y025622*
X014698Y025607*
X014593Y025563*
X014502Y025494*
X014498Y025489*
X014451Y025505*
Y026879*
X020225Y032653*
X023516*
Y032548*
X023522Y032518*
X023539Y032492*
X023565Y032474*
X023596Y032468*
X024596*
X024627Y032474*
X024653Y032492*
X024670Y032518*
X024676Y032548*
Y032998*
X024670Y033029*
X024653Y033055*
X024627Y033072*
X024596Y033079*
G37*
G36*
Y030719D02*
X023596D01*
X023565Y030712*
X023539Y030695*
X023522Y030669*
X023516Y030638*
Y030534*
X021870*
X021824Y030525*
X021785Y030498*
X020742Y029455*
X020716Y029416*
X020706Y029370*
Y027322*
X020685Y027307*
X020641Y027242*
X020626Y027165*
X020641Y027089*
X020685Y027023*
X020750Y026980*
X020827Y026965*
X020904Y026980*
X020969Y027023*
X021012Y027089*
X021027Y027165*
X021012Y027242*
X020969Y027307*
X020947Y027322*
Y029320*
X021920Y030293*
X023516*
Y030188*
X023522Y030158*
X023539Y030132*
X023565Y030114*
X023596Y030108*
X024596*
X024627Y030114*
X024653Y030132*
X024670Y030158*
X024676Y030188*
Y030638*
X024670Y030669*
X024653Y030695*
X024627Y030712*
X024596Y030719*
G37*
G36*
X017811Y024622D02*
X017698Y024607D01*
X017593Y024563*
X017502Y024494*
X017433Y024403*
X017389Y024298*
X017374Y024185*
X017389Y024072*
X017433Y023967*
X017502Y023876*
X017593Y023807*
X017698Y023763*
X017811Y023748*
X017924Y023763*
X018029Y023807*
X018120Y023876*
X018189Y023967*
X018233Y024072*
X018248Y024185*
X018233Y024298*
X018189Y024403*
X018120Y024494*
X018029Y024563*
X017924Y024607*
X017811Y024622*
G37*
%LNuppsense-5*%
%LPD*%
G54D10*
X029902Y023031D03*
X029311D03*
X008665Y029130D03*
X009255D03*
X008653Y028428D03*
X009244D03*
X008668Y023427D03*
X009259D03*
X008668Y022677D03*
X009259D03*
X009803Y026378D03*
X010394D03*
X009803Y027126D03*
X010394D03*
X009818Y020627D03*
X010409D03*
X009818Y021327D03*
X010409D03*
X033720Y033701D03*
X033130D03*
X016240Y034606D03*
X016831D03*
X032185Y022098D03*
X032776D03*
X032185Y022807D03*
X032776D03*
X033858Y027165D03*
X034449D03*
G54D11*
X009213Y033445D03*
Y034035D03*
X032598Y024126D03*
Y024717D03*
X020748Y035236D03*
Y034646D03*
X021417Y034154D03*
Y033563D03*
X018543Y034606D03*
Y035197D03*
X033425Y026437D03*
Y025846D03*
X032598Y026016D03*
Y025425D03*
X031535Y022157D03*
Y021567D03*
X030787Y022138D03*
Y021547D03*
X032677Y027146D03*
Y027736D03*
G54D12*
X009902Y032874D03*
X010660Y029660D03*
X010625Y023909D03*
G54D13*
X010157Y032874D03*
X010413D03*
X010669D03*
Y034606D03*
X010413D03*
X010167D03*
X009911D03*
X010404Y029660D03*
X010148D03*
X009893D03*
Y027928D03*
X010148D03*
X010404D03*
X010660D03*
X010369Y023909D03*
X010113D03*
X009857D03*
Y022177D03*
X010113D03*
X010369D03*
X010625D03*
G54D14*
X017696Y038752D03*
X019468D03*
Y035170D03*
X017696D03*
X033130Y038760D03*
X034902D03*
Y035177D03*
X033130D03*
G54D15*
X024096Y035123D03*
Y034343D03*
Y033553D03*
Y032773D03*
Y031973D03*
Y031193D03*
Y030413D03*
Y029623D03*
X030246Y029613D03*
Y030403D03*
Y031183D03*
X030236Y031973D03*
Y032763D03*
Y033543D03*
Y035123D03*
Y034343D03*
G54D16*
X025196Y028803D03*
X025976D03*
X026756D03*
X027556D03*
X028336D03*
X029136D03*
G54D17*
X031136Y025296D03*
X031333D03*
X031530D03*
X031727D03*
X031924D03*
Y023563D03*
X031727D03*
X031530D03*
X031333D03*
G54D18*
X031136Y023563D03*
G54D19*
X033130Y035138D02*
X034902D01*
X016831Y034587D02*
X016850Y034606D01*
X032349Y027126D02*
X032761D01*
X031530Y026633D02*
X031673Y026776D01*
X010237Y027184D02*
X010404D01*
X010398Y026383D02*
Y027178D01*
X032953Y024705D02*
X033433Y025185D01*
X032953Y023740D02*
Y024705D01*
X032776Y023563D02*
X032953Y023740D01*
X032776Y022807D02*
Y023563D01*
X033433Y024185D02*
X033937Y024689D01*
Y025591*
X033681Y025846D02*
X033937Y025591D01*
X033425Y025846D02*
X033681D01*
X034433Y022437D02*
Y024185D01*
X033563Y021567D02*
X034433Y022437D01*
X031535Y021567D02*
X033563D01*
X026476Y023445D02*
X026890Y023031D01*
X029311*
X029902D02*
X030945D01*
X031136Y023223*
Y023563*
X021870Y030413D02*
X024096D01*
X020827Y029370D02*
X021870Y030413D01*
X020827Y027165D02*
Y029370D01*
X026457Y022756D02*
X026654Y022559D01*
X031102*
X031333Y022790*
Y023563*
X011181Y031850D02*
Y032205D01*
X010984Y031654D02*
X011181Y031850D01*
X010236Y031654D02*
X010984D01*
Y032402D02*
X011181Y032205D01*
X010315Y032402D02*
X010984D01*
X010177Y032539D02*
X010315Y032402D01*
X010177Y032539D02*
Y032874D01*
X009893Y031743D02*
Y032745D01*
Y031654D02*
Y031743D01*
X010305Y028428D02*
X010660Y028783D01*
Y029660*
X009255Y029130D02*
X010301D01*
X010404Y029234*
Y029660*
X010148Y027272D02*
X010237Y027184D01*
X010148Y027272D02*
Y027928D01*
X010404Y027184D02*
Y027928D01*
X009244Y028428D02*
X010305D01*
X010660Y027928D02*
Y028240D01*
X031786Y024717D02*
X032598D01*
X031530Y024972D02*
X031786Y024717D01*
X030866Y032756D02*
X031136Y032486D01*
X030244Y032756D02*
X030866D01*
X030236Y032763D02*
X030244Y032756D01*
X030236Y033543D02*
X031024D01*
X031333Y033234*
X029141Y032763D02*
X030236D01*
X029134Y032756D02*
X029141Y032763D01*
X026181Y034331D02*
X026194Y034343D01*
X030236*
X026220Y035118D02*
X026226Y035123D01*
X030236*
X030197Y033504D02*
X030236Y033543D01*
X010369Y021366D02*
Y022177D01*
Y021366D02*
X010409Y021327D01*
X010113Y021455D02*
Y022177D01*
Y021455D02*
X010242Y021327D01*
X010409*
Y020627D02*
Y021327D01*
X031530Y025296D02*
Y026633D01*
X025692Y026260D02*
X025709D01*
X030157Y030492D02*
X030246Y030403D01*
X029213Y033504D02*
X030197D01*
X031333Y025296D02*
Y033234D01*
X031136Y025296D02*
Y032486D01*
X021427Y033553D02*
X024096D01*
X018570Y035170D02*
X019468D01*
X018543Y035197D02*
X018570Y035170D01*
X017724Y035197D02*
X018543D01*
X017696Y035170D02*
X017724Y035197D01*
X033130Y033701D02*
Y035138D01*
Y033701D02*
D01*
X023399Y034606D02*
X023916Y035123D01*
X024096*
X021417Y033563D02*
X021427Y033553D01*
X021437Y034173D02*
X021890D01*
X021417Y034154D02*
X021437Y034173D01*
X020748Y034134D02*
Y034646D01*
Y034134D02*
X021024Y033858D01*
X022244*
X022992Y034606D02*
X023399D01*
X025034Y035728D02*
X025295Y035467D01*
Y033815D02*
Y035467D01*
Y033815D02*
X026756Y032354D01*
Y028803D02*
Y032354D01*
X010369Y023558D02*
Y023909D01*
X010238Y023427D02*
X010369Y023558D01*
X009259Y023427D02*
X010238D01*
X010625Y023473D02*
Y023909D01*
X009829Y022677D02*
X010625Y023473D01*
X009259Y022677D02*
X009829D01*
X029468Y030492D02*
X030157D01*
X029055Y031024D02*
X029331D01*
X029490Y031183*
X030246*
X029291Y030315D02*
X029468Y030492D01*
X029291Y030315D02*
D01*
X029055D02*
X029291D01*
X029055Y031890D02*
X030153D01*
X030236Y031973*
X033720Y033701D02*
X034528D01*
X018543Y034606D02*
X020073D01*
X020388Y034921*
X021299*
X022244Y033858D02*
X022933Y034547D01*
X022362Y036748D02*
X023094D01*
X024114Y035728*
X025034*
X016850Y034606D02*
X018543D01*
X022933Y034547D02*
X022992Y034606D01*
X021299Y034921D02*
X021673Y034547D01*
X022933*
X030787Y022138D02*
X031516D01*
X031535Y022157*
X031727Y022841D02*
Y023563D01*
X031535Y022650D02*
X031727Y022841D01*
X031535Y022157D02*
Y022650D01*
X032185Y022098D02*
Y022807D01*
X031924Y022903D02*
Y023563D01*
Y022903D02*
X032019Y022807D01*
X032185*
X034429Y027020D02*
X034433Y027016D01*
X031727Y025296D02*
X031732Y025301D01*
X031924Y025296D02*
Y025833D01*
X032087Y025996*
X032579*
X032598Y026016*
X032933*
X033031Y026114*
X031732Y025301D02*
Y026509D01*
X026929Y025039D02*
X028642Y026752D01*
X028638Y026756D02*
X028642Y026752D01*
X028638Y026756D02*
X030646D01*
X031673D02*
Y026776D01*
X015315Y027480D02*
X019808Y031973D01*
X024096*
X016614Y028307D02*
X019500Y031193D01*
X024096*
X015811Y024185D02*
X016339Y024713D01*
Y028031*
X016614Y028307*
X014331Y026929D02*
X020175Y032773D01*
X024096*
X014811Y024185D02*
X015315Y024689D01*
Y027480*
X013811Y024185D02*
X014331Y024705D01*
Y026929*
X010660Y027293D02*
Y027928D01*
Y027293D02*
X011811Y026142D01*
Y025185D02*
Y026142D01*
X010625Y022177D02*
Y022633D01*
X011063Y023071*
X011575*
X011811Y023307*
Y024185*
X009857Y023909D02*
Y024395D01*
X009724Y024528D02*
X009857Y024395D01*
X010113Y023909D02*
Y024365D01*
X010236Y024488*
X009893Y031743D02*
X010236Y032087D01*
X010748*
X010148Y029660D02*
Y030896D01*
X010236Y030984*
X009893Y029660D02*
Y031654D01*
X012323Y024673D02*
X012811Y024185D01*
X016294Y033263D02*
X016831Y033799D01*
X016811Y034567D02*
X016831Y034587D01*
Y033799D02*
Y034587D01*
Y034606*
X012323Y024673D02*
Y032402D01*
X013184Y033263*
X016294*
X010236Y030984D02*
Y031654D01*
X034433Y024972D02*
Y025185D01*
Y027016*
X031732Y026509D02*
X032349Y027126D01*
X032677Y027146D02*
X033858D01*
X033878Y027126*
X033031Y026114D02*
Y026339D01*
X033130Y026437*
X033358*
G54D20*
X010394Y025945D02*
Y026378D01*
X008668Y024219D02*
X010394Y025945D01*
X008668Y023427D02*
Y024219D01*
X020748Y035236D02*
Y036487D01*
X020306Y036929D02*
X020748Y036487D01*
X010197Y036929D02*
X020306D01*
X009213Y034035D02*
X009232Y034016D01*
X009764*
X009911Y034163*
Y034606*
Y036644*
X010197Y036929*
X023386Y026772D02*
X025197D01*
X023386D02*
Y028583D01*
X024096Y029293*
Y029623*
X025197Y026772D02*
X025709Y026260D01*
X026929Y025039*
X024096Y029623D02*
X025118D01*
X020760Y035248D02*
X022362D01*
X020748Y035236D02*
X020760Y035248D01*
X022362Y035051D02*
Y035248D01*
X025118Y029623D02*
Y035394D01*
X022665Y035551D02*
X024961D01*
X025118Y035394*
X022362Y035248D02*
X022665Y035551D01*
X026929Y023898D02*
Y025039D01*
X026476Y023445D02*
X026929Y023898D01*
X022362Y035051D02*
X022638Y034776D01*
Y034764D02*
Y034776D01*
X021799Y025185D02*
X023386Y026772D01*
X017811Y025185D02*
X021799D01*
X023307Y020276D02*
X026476Y023445D01*
X010560Y020276D02*
X023307D01*
X010409Y020427D02*
X010560Y020276D01*
X010409Y020427D02*
Y020627D01*
X008681Y020728D02*
X009134Y020276D01*
X010560*
X008668Y020741D02*
Y022677D01*
Y020741D02*
X008681Y020728D01*
X008668Y022677D02*
Y023427D01*
G54D21*
X033433Y024185D03*
Y025185D03*
X034433Y024185D03*
Y025185D03*
X035433Y024185D03*
X017811Y025185D03*
Y024185D03*
X016811Y025185D03*
Y024185D03*
X011811D03*
X012811Y025185D03*
Y024185D03*
X013811Y025185D03*
Y024185D03*
X014811D03*
Y025185D03*
X015811Y024185D03*
Y025185D03*
G54D22*
X035433Y025185D03*
X011811D03*
G54D23*
X022362Y035248D03*
Y035748D03*
Y036248D03*
Y036748D03*
Y037248D03*
G54D24*
X020827Y027165D03*
X026457Y022756D03*
X025118Y029623D03*
X021890Y034173D03*
X034528Y033701D03*
X029055Y031024D03*
Y030315D03*
Y031890D03*
X022638Y034764D03*
X030646Y026756D03*
X031673D03*
X009724Y024528D03*
X010236Y024488D03*
X010748Y032087D03*
X009893Y031654D03*
X009843Y033465D03*
X010827Y035433D03*
X011811Y021654D03*
X012795Y023622D03*
Y027559D03*
X011811Y029528D03*
X012795Y031496D03*
Y035433D03*
X011811Y037402D03*
X013780Y021654D03*
X014764Y023622D03*
X013780Y029528D03*
X014764Y031496D03*
Y035433D03*
X013780Y037402D03*
X015748Y021654D03*
Y029528D03*
X016732Y031496D03*
Y035433D03*
X015748Y037402D03*
X017717Y021654D03*
X018701Y023622D03*
Y027559D03*
X017717Y033465D03*
Y037402D03*
X019685Y021654D03*
X020669Y023622D03*
X019685Y025591D03*
Y033465D03*
Y037402D03*
X021654Y021654D03*
X022638Y023622D03*
X021654Y025591D03*
X022638Y027559D03*
X021654Y029528D03*
X022638Y031496D03*
X021654Y037402D03*
X023622Y021654D03*
X024606Y023622D03*
X023622Y025591D03*
X024606Y027559D03*
X023622Y037402D03*
X025591Y021654D03*
Y025591D03*
X026575Y027559D03*
X025591Y029528D03*
X026575Y035433D03*
X027559Y021654D03*
X028543Y023622D03*
Y027559D03*
X027559Y029528D03*
X029528Y021654D03*
X030512Y023622D03*
X029528Y025591D03*
X030512Y027559D03*
X029528Y029528D03*
X032480Y023622D03*
Y031496D03*
X031496Y033465D03*
X032480Y035433D03*
X031496Y037402D03*
X033465Y029528D03*
X034449Y031496D03*
X033465Y037402D03*
X035433Y021654D03*
X036417Y023622D03*
Y027559D03*
X035433Y029528D03*
X036417Y031496D03*
X035433Y033465D03*
X036417Y035433D03*
X035433Y037402D03*
X037402Y021654D03*
X038386Y023622D03*
X037402Y025591D03*
X038386Y027559D03*
X037402Y029528D03*
X038386Y031496D03*
X037402Y033465D03*
X038386Y035433D03*
X037402Y037402D03*
X010236Y031654D03*
G54D25*
X029134Y032756D03*
X026181Y034331D03*
X026220Y035118D03*
X029213Y033504D03*
M02*