G04 #@! TF.FileFunction,Legend,Top*
%FSLAX46Y46*%
G04 Gerber Fmt 4.6, Leading zero omitted, Abs format (unit mm)*
G04 Created by KiCad (PCBNEW 4.0.5+dfsg1-4) date Wed May  3 19:23:34 2017*
%MOMM*%
%LPD*%
G01*
G04 APERTURE LIST*
%ADD10C,0.100000*%
%ADD11C,0.300000*%
%ADD12C,0.150000*%
G04 APERTURE END LIST*
D10*
D11*
X130017286Y-124122571D02*
X130017286Y-122622571D01*
X130660143Y-124122571D02*
X130660143Y-123336857D01*
X130588714Y-123194000D01*
X130445857Y-123122571D01*
X130231572Y-123122571D01*
X130088714Y-123194000D01*
X130017286Y-123265429D01*
X131374429Y-124122571D02*
X131374429Y-123122571D01*
X131374429Y-122622571D02*
X131303000Y-122694000D01*
X131374429Y-122765429D01*
X131445857Y-122694000D01*
X131374429Y-122622571D01*
X131374429Y-122765429D01*
X132731572Y-123122571D02*
X132731572Y-124336857D01*
X132660143Y-124479714D01*
X132588715Y-124551143D01*
X132445858Y-124622571D01*
X132231572Y-124622571D01*
X132088715Y-124551143D01*
X132731572Y-124051143D02*
X132588715Y-124122571D01*
X132303001Y-124122571D01*
X132160143Y-124051143D01*
X132088715Y-123979714D01*
X132017286Y-123836857D01*
X132017286Y-123408286D01*
X132088715Y-123265429D01*
X132160143Y-123194000D01*
X132303001Y-123122571D01*
X132588715Y-123122571D01*
X132731572Y-123194000D01*
X133445858Y-124122571D02*
X133445858Y-122622571D01*
X134088715Y-124122571D02*
X134088715Y-123336857D01*
X134017286Y-123194000D01*
X133874429Y-123122571D01*
X133660144Y-123122571D01*
X133517286Y-123194000D01*
X133445858Y-123265429D01*
X135374429Y-124051143D02*
X135231572Y-124122571D01*
X134945858Y-124122571D01*
X134803001Y-124051143D01*
X134731572Y-123908286D01*
X134731572Y-123336857D01*
X134803001Y-123194000D01*
X134945858Y-123122571D01*
X135231572Y-123122571D01*
X135374429Y-123194000D01*
X135445858Y-123336857D01*
X135445858Y-123479714D01*
X134731572Y-123622571D01*
X136017286Y-124051143D02*
X136160143Y-124122571D01*
X136445858Y-124122571D01*
X136588715Y-124051143D01*
X136660143Y-123908286D01*
X136660143Y-123836857D01*
X136588715Y-123694000D01*
X136445858Y-123622571D01*
X136231572Y-123622571D01*
X136088715Y-123551143D01*
X136017286Y-123408286D01*
X136017286Y-123336857D01*
X136088715Y-123194000D01*
X136231572Y-123122571D01*
X136445858Y-123122571D01*
X136588715Y-123194000D01*
X137088715Y-123122571D02*
X137660144Y-123122571D01*
X137303001Y-122622571D02*
X137303001Y-123908286D01*
X137374429Y-124051143D01*
X137517287Y-124122571D01*
X137660144Y-124122571D01*
X139945858Y-124051143D02*
X139803001Y-124122571D01*
X139517287Y-124122571D01*
X139374429Y-124051143D01*
X139303001Y-123979714D01*
X139231572Y-123836857D01*
X139231572Y-123408286D01*
X139303001Y-123265429D01*
X139374429Y-123194000D01*
X139517287Y-123122571D01*
X139803001Y-123122571D01*
X139945858Y-123194000D01*
X141231572Y-123122571D02*
X141231572Y-124122571D01*
X140588715Y-123122571D02*
X140588715Y-123908286D01*
X140660143Y-124051143D01*
X140803001Y-124122571D01*
X141017286Y-124122571D01*
X141160143Y-124051143D01*
X141231572Y-123979714D01*
X141945858Y-124122571D02*
X141945858Y-123122571D01*
X141945858Y-123408286D02*
X142017286Y-123265429D01*
X142088715Y-123194000D01*
X142231572Y-123122571D01*
X142374429Y-123122571D01*
X142874429Y-124122571D02*
X142874429Y-123122571D01*
X142874429Y-123408286D02*
X142945857Y-123265429D01*
X143017286Y-123194000D01*
X143160143Y-123122571D01*
X143303000Y-123122571D01*
X144374428Y-124051143D02*
X144231571Y-124122571D01*
X143945857Y-124122571D01*
X143803000Y-124051143D01*
X143731571Y-123908286D01*
X143731571Y-123336857D01*
X143803000Y-123194000D01*
X143945857Y-123122571D01*
X144231571Y-123122571D01*
X144374428Y-123194000D01*
X144445857Y-123336857D01*
X144445857Y-123479714D01*
X143731571Y-123622571D01*
X145088714Y-123122571D02*
X145088714Y-124122571D01*
X145088714Y-123265429D02*
X145160142Y-123194000D01*
X145303000Y-123122571D01*
X145517285Y-123122571D01*
X145660142Y-123194000D01*
X145731571Y-123336857D01*
X145731571Y-124122571D01*
X146231571Y-123122571D02*
X146803000Y-123122571D01*
X146445857Y-122622571D02*
X146445857Y-123908286D01*
X146517285Y-124051143D01*
X146660143Y-124122571D01*
X146803000Y-124122571D01*
X130144286Y-101389571D02*
X130144286Y-99889571D01*
X130787143Y-101389571D02*
X130787143Y-100603857D01*
X130715714Y-100461000D01*
X130572857Y-100389571D01*
X130358572Y-100389571D01*
X130215714Y-100461000D01*
X130144286Y-100532429D01*
X131501429Y-101389571D02*
X131501429Y-100389571D01*
X131501429Y-99889571D02*
X131430000Y-99961000D01*
X131501429Y-100032429D01*
X131572857Y-99961000D01*
X131501429Y-99889571D01*
X131501429Y-100032429D01*
X132858572Y-100389571D02*
X132858572Y-101603857D01*
X132787143Y-101746714D01*
X132715715Y-101818143D01*
X132572858Y-101889571D01*
X132358572Y-101889571D01*
X132215715Y-101818143D01*
X132858572Y-101318143D02*
X132715715Y-101389571D01*
X132430001Y-101389571D01*
X132287143Y-101318143D01*
X132215715Y-101246714D01*
X132144286Y-101103857D01*
X132144286Y-100675286D01*
X132215715Y-100532429D01*
X132287143Y-100461000D01*
X132430001Y-100389571D01*
X132715715Y-100389571D01*
X132858572Y-100461000D01*
X133572858Y-101389571D02*
X133572858Y-99889571D01*
X134215715Y-101389571D02*
X134215715Y-100603857D01*
X134144286Y-100461000D01*
X134001429Y-100389571D01*
X133787144Y-100389571D01*
X133644286Y-100461000D01*
X133572858Y-100532429D01*
X135501429Y-101318143D02*
X135358572Y-101389571D01*
X135072858Y-101389571D01*
X134930001Y-101318143D01*
X134858572Y-101175286D01*
X134858572Y-100603857D01*
X134930001Y-100461000D01*
X135072858Y-100389571D01*
X135358572Y-100389571D01*
X135501429Y-100461000D01*
X135572858Y-100603857D01*
X135572858Y-100746714D01*
X134858572Y-100889571D01*
X136144286Y-101318143D02*
X136287143Y-101389571D01*
X136572858Y-101389571D01*
X136715715Y-101318143D01*
X136787143Y-101175286D01*
X136787143Y-101103857D01*
X136715715Y-100961000D01*
X136572858Y-100889571D01*
X136358572Y-100889571D01*
X136215715Y-100818143D01*
X136144286Y-100675286D01*
X136144286Y-100603857D01*
X136215715Y-100461000D01*
X136358572Y-100389571D01*
X136572858Y-100389571D01*
X136715715Y-100461000D01*
X137215715Y-100389571D02*
X137787144Y-100389571D01*
X137430001Y-99889571D02*
X137430001Y-101175286D01*
X137501429Y-101318143D01*
X137644287Y-101389571D01*
X137787144Y-101389571D01*
X140072858Y-101318143D02*
X139930001Y-101389571D01*
X139644287Y-101389571D01*
X139501429Y-101318143D01*
X139430001Y-101246714D01*
X139358572Y-101103857D01*
X139358572Y-100675286D01*
X139430001Y-100532429D01*
X139501429Y-100461000D01*
X139644287Y-100389571D01*
X139930001Y-100389571D01*
X140072858Y-100461000D01*
X141358572Y-100389571D02*
X141358572Y-101389571D01*
X140715715Y-100389571D02*
X140715715Y-101175286D01*
X140787143Y-101318143D01*
X140930001Y-101389571D01*
X141144286Y-101389571D01*
X141287143Y-101318143D01*
X141358572Y-101246714D01*
X142072858Y-101389571D02*
X142072858Y-100389571D01*
X142072858Y-100675286D02*
X142144286Y-100532429D01*
X142215715Y-100461000D01*
X142358572Y-100389571D01*
X142501429Y-100389571D01*
X143001429Y-101389571D02*
X143001429Y-100389571D01*
X143001429Y-100675286D02*
X143072857Y-100532429D01*
X143144286Y-100461000D01*
X143287143Y-100389571D01*
X143430000Y-100389571D01*
X144501428Y-101318143D02*
X144358571Y-101389571D01*
X144072857Y-101389571D01*
X143930000Y-101318143D01*
X143858571Y-101175286D01*
X143858571Y-100603857D01*
X143930000Y-100461000D01*
X144072857Y-100389571D01*
X144358571Y-100389571D01*
X144501428Y-100461000D01*
X144572857Y-100603857D01*
X144572857Y-100746714D01*
X143858571Y-100889571D01*
X145215714Y-100389571D02*
X145215714Y-101389571D01*
X145215714Y-100532429D02*
X145287142Y-100461000D01*
X145430000Y-100389571D01*
X145644285Y-100389571D01*
X145787142Y-100461000D01*
X145858571Y-100603857D01*
X145858571Y-101389571D01*
X146358571Y-100389571D02*
X146930000Y-100389571D01*
X146572857Y-99889571D02*
X146572857Y-101175286D01*
X146644285Y-101318143D01*
X146787143Y-101389571D01*
X146930000Y-101389571D01*
X122404715Y-110763857D02*
X122619001Y-110835286D01*
X122690429Y-110906714D01*
X122761858Y-111049571D01*
X122761858Y-111263857D01*
X122690429Y-111406714D01*
X122619001Y-111478143D01*
X122476143Y-111549571D01*
X121904715Y-111549571D01*
X121904715Y-110049571D01*
X122404715Y-110049571D01*
X122547572Y-110121000D01*
X122619001Y-110192429D01*
X122690429Y-110335286D01*
X122690429Y-110478143D01*
X122619001Y-110621000D01*
X122547572Y-110692429D01*
X122404715Y-110763857D01*
X121904715Y-110763857D01*
X123404715Y-111549571D02*
X123404715Y-110049571D01*
X123976143Y-110049571D01*
X124119001Y-110121000D01*
X124190429Y-110192429D01*
X124261858Y-110335286D01*
X124261858Y-110549571D01*
X124190429Y-110692429D01*
X124119001Y-110763857D01*
X123976143Y-110835286D01*
X123404715Y-110835286D01*
X124761858Y-110049571D02*
X125119001Y-111549571D01*
X125404715Y-110478143D01*
X125690429Y-111549571D01*
X126047572Y-110049571D01*
X126476144Y-110049571D02*
X127404715Y-110049571D01*
X126904715Y-110621000D01*
X127119001Y-110621000D01*
X127261858Y-110692429D01*
X127333287Y-110763857D01*
X127404715Y-110906714D01*
X127404715Y-111263857D01*
X127333287Y-111406714D01*
X127261858Y-111478143D01*
X127119001Y-111549571D01*
X126690429Y-111549571D01*
X126547572Y-111478143D01*
X126476144Y-111406714D01*
X128690429Y-110549571D02*
X128690429Y-111549571D01*
X128333286Y-109978143D02*
X127976143Y-111049571D01*
X128904715Y-111049571D01*
X129976143Y-110763857D02*
X129476143Y-110763857D01*
X129476143Y-111549571D02*
X129476143Y-110049571D01*
X130190429Y-110049571D01*
X130690428Y-111121000D02*
X131404714Y-111121000D01*
X130547571Y-111549571D02*
X131047571Y-110049571D01*
X131547571Y-111549571D01*
X110624857Y-116013571D02*
X110910571Y-116013571D01*
X111053429Y-116085000D01*
X111196286Y-116227857D01*
X111267714Y-116513571D01*
X111267714Y-117013571D01*
X111196286Y-117299286D01*
X111053429Y-117442143D01*
X110910571Y-117513571D01*
X110624857Y-117513571D01*
X110482000Y-117442143D01*
X110339143Y-117299286D01*
X110267714Y-117013571D01*
X110267714Y-116513571D01*
X110339143Y-116227857D01*
X110482000Y-116085000D01*
X110624857Y-116013571D01*
X112553429Y-116513571D02*
X112553429Y-117513571D01*
X111910572Y-116513571D02*
X111910572Y-117299286D01*
X111982000Y-117442143D01*
X112124858Y-117513571D01*
X112339143Y-117513571D01*
X112482000Y-117442143D01*
X112553429Y-117370714D01*
X113053429Y-116513571D02*
X113624858Y-116513571D01*
X113267715Y-116013571D02*
X113267715Y-117299286D01*
X113339143Y-117442143D01*
X113482001Y-117513571D01*
X113624858Y-117513571D01*
X114124858Y-116513571D02*
X114124858Y-118013571D01*
X114124858Y-116585000D02*
X114267715Y-116513571D01*
X114553429Y-116513571D01*
X114696286Y-116585000D01*
X114767715Y-116656429D01*
X114839144Y-116799286D01*
X114839144Y-117227857D01*
X114767715Y-117370714D01*
X114696286Y-117442143D01*
X114553429Y-117513571D01*
X114267715Y-117513571D01*
X114124858Y-117442143D01*
X116124858Y-116513571D02*
X116124858Y-117513571D01*
X115482001Y-116513571D02*
X115482001Y-117299286D01*
X115553429Y-117442143D01*
X115696287Y-117513571D01*
X115910572Y-117513571D01*
X116053429Y-117442143D01*
X116124858Y-117370714D01*
X116624858Y-116513571D02*
X117196287Y-116513571D01*
X116839144Y-116013571D02*
X116839144Y-117299286D01*
X116910572Y-117442143D01*
X117053430Y-117513571D01*
X117196287Y-117513571D01*
X119053430Y-117513571D02*
X118910572Y-117442143D01*
X118839144Y-117370714D01*
X118767715Y-117227857D01*
X118767715Y-116799286D01*
X118839144Y-116656429D01*
X118910572Y-116585000D01*
X119053430Y-116513571D01*
X119267715Y-116513571D01*
X119410572Y-116585000D01*
X119482001Y-116656429D01*
X119553430Y-116799286D01*
X119553430Y-117227857D01*
X119482001Y-117370714D01*
X119410572Y-117442143D01*
X119267715Y-117513571D01*
X119053430Y-117513571D01*
X119982001Y-116513571D02*
X120553430Y-116513571D01*
X120196287Y-117513571D02*
X120196287Y-116227857D01*
X120267715Y-116085000D01*
X120410573Y-116013571D01*
X120553430Y-116013571D01*
X121982001Y-116513571D02*
X122553430Y-116513571D01*
X122196287Y-116013571D02*
X122196287Y-117299286D01*
X122267715Y-117442143D01*
X122410573Y-117513571D01*
X122553430Y-117513571D01*
X123053430Y-117513571D02*
X123053430Y-116013571D01*
X123696287Y-117513571D02*
X123696287Y-116727857D01*
X123624858Y-116585000D01*
X123482001Y-116513571D01*
X123267716Y-116513571D01*
X123124858Y-116585000D01*
X123053430Y-116656429D01*
X124982001Y-117442143D02*
X124839144Y-117513571D01*
X124553430Y-117513571D01*
X124410573Y-117442143D01*
X124339144Y-117299286D01*
X124339144Y-116727857D01*
X124410573Y-116585000D01*
X124553430Y-116513571D01*
X124839144Y-116513571D01*
X124982001Y-116585000D01*
X125053430Y-116727857D01*
X125053430Y-116870714D01*
X124339144Y-117013571D01*
X127339144Y-116727857D02*
X127553430Y-116799286D01*
X127624858Y-116870714D01*
X127696287Y-117013571D01*
X127696287Y-117227857D01*
X127624858Y-117370714D01*
X127553430Y-117442143D01*
X127410572Y-117513571D01*
X126839144Y-117513571D01*
X126839144Y-116013571D01*
X127339144Y-116013571D01*
X127482001Y-116085000D01*
X127553430Y-116156429D01*
X127624858Y-116299286D01*
X127624858Y-116442143D01*
X127553430Y-116585000D01*
X127482001Y-116656429D01*
X127339144Y-116727857D01*
X126839144Y-116727857D01*
X128339144Y-117513571D02*
X128339144Y-116013571D01*
X128910572Y-116013571D01*
X129053430Y-116085000D01*
X129124858Y-116156429D01*
X129196287Y-116299286D01*
X129196287Y-116513571D01*
X129124858Y-116656429D01*
X129053430Y-116727857D01*
X128910572Y-116799286D01*
X128339144Y-116799286D01*
X129696287Y-116013571D02*
X130053430Y-117513571D01*
X130339144Y-116442143D01*
X130624858Y-117513571D01*
X130982001Y-116013571D01*
X131410573Y-116013571D02*
X132339144Y-116013571D01*
X131839144Y-116585000D01*
X132053430Y-116585000D01*
X132196287Y-116656429D01*
X132267716Y-116727857D01*
X132339144Y-116870714D01*
X132339144Y-117227857D01*
X132267716Y-117370714D01*
X132196287Y-117442143D01*
X132053430Y-117513571D01*
X131624858Y-117513571D01*
X131482001Y-117442143D01*
X131410573Y-117370714D01*
X133624858Y-116513571D02*
X133624858Y-117513571D01*
X133267715Y-115942143D02*
X132910572Y-117013571D01*
X133839144Y-117013571D01*
X110339143Y-120063571D02*
X110339143Y-119063571D01*
X110339143Y-118563571D02*
X110267714Y-118635000D01*
X110339143Y-118706429D01*
X110410571Y-118635000D01*
X110339143Y-118563571D01*
X110339143Y-118706429D01*
X110982000Y-119992143D02*
X111124857Y-120063571D01*
X111410572Y-120063571D01*
X111553429Y-119992143D01*
X111624857Y-119849286D01*
X111624857Y-119777857D01*
X111553429Y-119635000D01*
X111410572Y-119563571D01*
X111196286Y-119563571D01*
X111053429Y-119492143D01*
X110982000Y-119349286D01*
X110982000Y-119277857D01*
X111053429Y-119135000D01*
X111196286Y-119063571D01*
X111410572Y-119063571D01*
X111553429Y-119135000D01*
X113624858Y-120063571D02*
X113482000Y-119992143D01*
X113410572Y-119920714D01*
X113339143Y-119777857D01*
X113339143Y-119349286D01*
X113410572Y-119206429D01*
X113482000Y-119135000D01*
X113624858Y-119063571D01*
X113839143Y-119063571D01*
X113982000Y-119135000D01*
X114053429Y-119206429D01*
X114124858Y-119349286D01*
X114124858Y-119777857D01*
X114053429Y-119920714D01*
X113982000Y-119992143D01*
X113839143Y-120063571D01*
X113624858Y-120063571D01*
X114767715Y-119063571D02*
X114767715Y-120063571D01*
X114767715Y-119206429D02*
X114839143Y-119135000D01*
X114982001Y-119063571D01*
X115196286Y-119063571D01*
X115339143Y-119135000D01*
X115410572Y-119277857D01*
X115410572Y-120063571D01*
X117053429Y-119063571D02*
X117624858Y-119063571D01*
X117267715Y-118563571D02*
X117267715Y-119849286D01*
X117339143Y-119992143D01*
X117482001Y-120063571D01*
X117624858Y-120063571D01*
X118124858Y-120063571D02*
X118124858Y-118563571D01*
X118767715Y-120063571D02*
X118767715Y-119277857D01*
X118696286Y-119135000D01*
X118553429Y-119063571D01*
X118339144Y-119063571D01*
X118196286Y-119135000D01*
X118124858Y-119206429D01*
X119482001Y-120063571D02*
X119482001Y-119063571D01*
X119482001Y-118563571D02*
X119410572Y-118635000D01*
X119482001Y-118706429D01*
X119553429Y-118635000D01*
X119482001Y-118563571D01*
X119482001Y-118706429D01*
X120124858Y-119992143D02*
X120267715Y-120063571D01*
X120553430Y-120063571D01*
X120696287Y-119992143D01*
X120767715Y-119849286D01*
X120767715Y-119777857D01*
X120696287Y-119635000D01*
X120553430Y-119563571D01*
X120339144Y-119563571D01*
X120196287Y-119492143D01*
X120124858Y-119349286D01*
X120124858Y-119277857D01*
X120196287Y-119135000D01*
X120339144Y-119063571D01*
X120553430Y-119063571D01*
X120696287Y-119135000D01*
X122482001Y-119992143D02*
X122624858Y-120063571D01*
X122910573Y-120063571D01*
X123053430Y-119992143D01*
X123124858Y-119849286D01*
X123124858Y-119777857D01*
X123053430Y-119635000D01*
X122910573Y-119563571D01*
X122696287Y-119563571D01*
X122553430Y-119492143D01*
X122482001Y-119349286D01*
X122482001Y-119277857D01*
X122553430Y-119135000D01*
X122696287Y-119063571D01*
X122910573Y-119063571D01*
X123053430Y-119135000D01*
X123767716Y-120063571D02*
X123767716Y-119063571D01*
X123767716Y-118563571D02*
X123696287Y-118635000D01*
X123767716Y-118706429D01*
X123839144Y-118635000D01*
X123767716Y-118563571D01*
X123767716Y-118706429D01*
X125124859Y-120063571D02*
X125124859Y-118563571D01*
X125124859Y-119992143D02*
X124982002Y-120063571D01*
X124696288Y-120063571D01*
X124553430Y-119992143D01*
X124482002Y-119920714D01*
X124410573Y-119777857D01*
X124410573Y-119349286D01*
X124482002Y-119206429D01*
X124553430Y-119135000D01*
X124696288Y-119063571D01*
X124982002Y-119063571D01*
X125124859Y-119135000D01*
X126410573Y-119992143D02*
X126267716Y-120063571D01*
X125982002Y-120063571D01*
X125839145Y-119992143D01*
X125767716Y-119849286D01*
X125767716Y-119277857D01*
X125839145Y-119135000D01*
X125982002Y-119063571D01*
X126267716Y-119063571D01*
X126410573Y-119135000D01*
X126482002Y-119277857D01*
X126482002Y-119420714D01*
X125767716Y-119563571D01*
X128696287Y-120635000D02*
X128624859Y-120563571D01*
X128482002Y-120349286D01*
X128410573Y-120206429D01*
X128339144Y-119992143D01*
X128267716Y-119635000D01*
X128267716Y-119349286D01*
X128339144Y-118992143D01*
X128410573Y-118777857D01*
X128482002Y-118635000D01*
X128624859Y-118420714D01*
X128696287Y-118349286D01*
X129053430Y-118563571D02*
X129910573Y-118563571D01*
X129482002Y-120063571D02*
X129482002Y-118563571D01*
X130410573Y-120063571D02*
X130410573Y-118563571D01*
X130982001Y-118563571D01*
X131124859Y-118635000D01*
X131196287Y-118706429D01*
X131267716Y-118849286D01*
X131267716Y-119063571D01*
X131196287Y-119206429D01*
X131124859Y-119277857D01*
X130982001Y-119349286D01*
X130410573Y-119349286D01*
X132553430Y-119063571D02*
X132553430Y-120063571D01*
X132196287Y-118492143D02*
X131839144Y-119563571D01*
X132767716Y-119563571D01*
X133196287Y-120635000D02*
X133267715Y-120563571D01*
X133410572Y-120349286D01*
X133482001Y-120206429D01*
X133553430Y-119992143D01*
X133624858Y-119635000D01*
X133624858Y-119349286D01*
X133553430Y-118992143D01*
X133482001Y-118777857D01*
X133410572Y-118635000D01*
X133267715Y-118420714D01*
X133196287Y-118349286D01*
X134339144Y-119920714D02*
X134410572Y-119992143D01*
X134339144Y-120063571D01*
X134267715Y-119992143D01*
X134339144Y-119920714D01*
X134339144Y-120063571D01*
D12*
X142317500Y-104803500D02*
X142317500Y-103603500D01*
X144067500Y-103603500D02*
X144067500Y-104803500D01*
X151765000Y-91085000D02*
X150215000Y-91085000D01*
X150215000Y-91085000D02*
X150215000Y-87985000D01*
X150215000Y-87985000D02*
X151765000Y-87985000D01*
X153035000Y-88265000D02*
X163195000Y-88265000D01*
X163195000Y-88265000D02*
X163195000Y-90805000D01*
X163195000Y-90805000D02*
X153035000Y-90805000D01*
X153035000Y-88265000D02*
X153035000Y-90805000D01*
X151765000Y-93625000D02*
X150215000Y-93625000D01*
X150215000Y-93625000D02*
X150215000Y-90525000D01*
X150215000Y-90525000D02*
X151765000Y-90525000D01*
X153035000Y-90805000D02*
X163195000Y-90805000D01*
X163195000Y-90805000D02*
X163195000Y-93345000D01*
X163195000Y-93345000D02*
X153035000Y-93345000D01*
X153035000Y-90805000D02*
X153035000Y-93345000D01*
X177520000Y-93980000D02*
X177520000Y-92430000D01*
X177520000Y-92430000D02*
X180620000Y-92430000D01*
X180620000Y-92430000D02*
X180620000Y-93980000D01*
X180340000Y-95250000D02*
X180340000Y-105410000D01*
X180340000Y-105410000D02*
X177800000Y-105410000D01*
X177800000Y-105410000D02*
X177800000Y-95250000D01*
X180340000Y-95250000D02*
X177800000Y-95250000D01*
X180060000Y-93980000D02*
X180060000Y-92430000D01*
X180060000Y-92430000D02*
X183160000Y-92430000D01*
X183160000Y-92430000D02*
X183160000Y-93980000D01*
X182880000Y-95250000D02*
X182880000Y-105410000D01*
X182880000Y-105410000D02*
X180340000Y-105410000D01*
X180340000Y-105410000D02*
X180340000Y-95250000D01*
X182880000Y-95250000D02*
X180340000Y-95250000D01*
X128200000Y-105200000D02*
X128100000Y-105400000D01*
X128200000Y-105200000D02*
X128500000Y-105200000D01*
X127800000Y-105500000D02*
X128000000Y-105500000D01*
X128000000Y-105500000D02*
X127800000Y-105500000D01*
X127800000Y-105500000D02*
X127700000Y-105700000D01*
X127800000Y-105500000D02*
X128300000Y-106300000D01*
X128200000Y-105200000D02*
X128700000Y-106000000D01*
X127900000Y-104900000D02*
X126100000Y-104900000D01*
X127000000Y-104900000D02*
X126100000Y-106600000D01*
X127000000Y-106600000D02*
X126100000Y-106600000D01*
X127900000Y-106600000D02*
X127000000Y-106600000D01*
X127000000Y-104900000D02*
X127900000Y-106600000D01*
X127000000Y-104400000D02*
X127000000Y-107500000D01*
X127000000Y-107500000D02*
X127000000Y-107600000D01*
X126000000Y-108000000D02*
X125000000Y-108000000D01*
X129000000Y-108000000D02*
X128000000Y-108000000D01*
X126000000Y-104000000D02*
X125000000Y-104000000D01*
X129000000Y-104000000D02*
X129000000Y-108000000D01*
X125000000Y-104000000D02*
X125000000Y-108000000D01*
X129000000Y-104000000D02*
X128000000Y-104000000D01*
X136582000Y-105372000D02*
X136482000Y-105572000D01*
X136582000Y-105372000D02*
X136882000Y-105372000D01*
X136182000Y-105672000D02*
X136382000Y-105672000D01*
X136382000Y-105672000D02*
X136182000Y-105672000D01*
X136182000Y-105672000D02*
X136082000Y-105872000D01*
X136182000Y-105672000D02*
X136682000Y-106472000D01*
X136582000Y-105372000D02*
X137082000Y-106172000D01*
X136282000Y-105072000D02*
X134482000Y-105072000D01*
X135382000Y-105072000D02*
X134482000Y-106772000D01*
X135382000Y-106772000D02*
X134482000Y-106772000D01*
X136282000Y-106772000D02*
X135382000Y-106772000D01*
X135382000Y-105072000D02*
X136282000Y-106772000D01*
X135382000Y-104572000D02*
X135382000Y-107672000D01*
X135382000Y-107672000D02*
X135382000Y-107772000D01*
X134382000Y-108172000D02*
X133382000Y-108172000D01*
X137382000Y-108172000D02*
X136382000Y-108172000D01*
X134382000Y-104172000D02*
X133382000Y-104172000D01*
X137382000Y-104172000D02*
X137382000Y-108172000D01*
X133382000Y-104172000D02*
X133382000Y-108172000D01*
X137382000Y-104172000D02*
X136382000Y-104172000D01*
X180077000Y-110252000D02*
X180077000Y-108702000D01*
X180077000Y-108702000D02*
X183177000Y-108702000D01*
X183177000Y-108702000D02*
X183177000Y-110252000D01*
X182897000Y-111522000D02*
X182897000Y-121682000D01*
X182897000Y-121682000D02*
X180357000Y-121682000D01*
X180357000Y-121682000D02*
X180357000Y-111522000D01*
X182897000Y-111522000D02*
X180357000Y-111522000D01*
X177537000Y-110252000D02*
X177537000Y-108702000D01*
X177537000Y-108702000D02*
X180637000Y-108702000D01*
X180637000Y-108702000D02*
X180637000Y-110252000D01*
X180357000Y-111522000D02*
X180357000Y-121682000D01*
X180357000Y-121682000D02*
X177817000Y-121682000D01*
X177817000Y-121682000D02*
X177817000Y-111522000D01*
X180357000Y-111522000D02*
X177817000Y-111522000D01*
X152146000Y-112802000D02*
X150596000Y-112802000D01*
X150596000Y-112802000D02*
X150596000Y-109702000D01*
X150596000Y-109702000D02*
X152146000Y-109702000D01*
X153416000Y-109982000D02*
X163576000Y-109982000D01*
X163576000Y-109982000D02*
X163576000Y-112522000D01*
X163576000Y-112522000D02*
X153416000Y-112522000D01*
X153416000Y-109982000D02*
X153416000Y-112522000D01*
X152146000Y-115342000D02*
X150596000Y-115342000D01*
X150596000Y-115342000D02*
X150596000Y-112242000D01*
X150596000Y-112242000D02*
X152146000Y-112242000D01*
X153416000Y-112522000D02*
X163576000Y-112522000D01*
X163576000Y-112522000D02*
X163576000Y-115062000D01*
X163576000Y-115062000D02*
X153416000Y-115062000D01*
X153416000Y-112522000D02*
X153416000Y-115062000D01*
X167669000Y-127281000D02*
X167669000Y-126081000D01*
X169419000Y-126081000D02*
X169419000Y-127281000D01*
X170257500Y-104803500D02*
X170257500Y-103603500D01*
X172007500Y-103603500D02*
X172007500Y-104803500D01*
X161367500Y-104803500D02*
X161367500Y-103603500D01*
X163117500Y-103603500D02*
X163117500Y-104803500D01*
X155017500Y-104803500D02*
X155017500Y-103603500D01*
X156767500Y-103603500D02*
X156767500Y-104803500D01*
X148667500Y-104803500D02*
X148667500Y-103603500D01*
X150417500Y-103603500D02*
X150417500Y-104803500D01*
X142269000Y-127281000D02*
X142269000Y-126081000D01*
X144019000Y-126081000D02*
X144019000Y-127281000D01*
X151159000Y-127281000D02*
X151159000Y-126081000D01*
X152909000Y-126081000D02*
X152909000Y-127281000D01*
X157509000Y-127281000D02*
X157509000Y-126081000D01*
X159259000Y-126081000D02*
X159259000Y-127281000D01*
X163859000Y-127281000D02*
X163859000Y-126081000D01*
X165609000Y-126081000D02*
X165609000Y-127281000D01*
X167717500Y-104803500D02*
X167717500Y-103603500D01*
X169467500Y-103603500D02*
X169467500Y-104803500D01*
X163907500Y-104803500D02*
X163907500Y-103603500D01*
X165657500Y-103603500D02*
X165657500Y-104803500D01*
X157557500Y-104803500D02*
X157557500Y-103603500D01*
X159307500Y-103603500D02*
X159307500Y-104803500D01*
X151207500Y-104803500D02*
X151207500Y-103603500D01*
X152957500Y-103603500D02*
X152957500Y-104803500D01*
X144857500Y-104803500D02*
X144857500Y-103603500D01*
X146607500Y-103603500D02*
X146607500Y-104803500D01*
X144809000Y-127281000D02*
X144809000Y-126081000D01*
X146559000Y-126081000D02*
X146559000Y-127281000D01*
X148619000Y-127281000D02*
X148619000Y-126081000D01*
X150369000Y-126081000D02*
X150369000Y-127281000D01*
X161319000Y-127281000D02*
X161319000Y-126081000D01*
X163069000Y-126081000D02*
X163069000Y-127281000D01*
X170209000Y-127281000D02*
X170209000Y-126081000D01*
X171959000Y-126081000D02*
X171959000Y-127281000D01*
X132461000Y-87630000D02*
X132461000Y-92710000D01*
X132461000Y-92710000D02*
X127889000Y-92710000D01*
X127889000Y-92710000D02*
X127889000Y-87630000D01*
X127889000Y-87630000D02*
X132461000Y-87630000D01*
X130937000Y-87630000D02*
X130937000Y-88138000D01*
X130937000Y-88138000D02*
X129667000Y-88138000D01*
X129667000Y-88138000D02*
X129667000Y-87630000D01*
X154964000Y-127266000D02*
X154964000Y-126066000D01*
X156714000Y-126066000D02*
X156714000Y-127266000D01*
X142994834Y-107260881D02*
X142661500Y-106784690D01*
X142423405Y-107260881D02*
X142423405Y-106260881D01*
X142804358Y-106260881D01*
X142899596Y-106308500D01*
X142947215Y-106356119D01*
X142994834Y-106451357D01*
X142994834Y-106594214D01*
X142947215Y-106689452D01*
X142899596Y-106737071D01*
X142804358Y-106784690D01*
X142423405Y-106784690D01*
X143899596Y-106260881D02*
X143423405Y-106260881D01*
X143375786Y-106737071D01*
X143423405Y-106689452D01*
X143518643Y-106641833D01*
X143756739Y-106641833D01*
X143851977Y-106689452D01*
X143899596Y-106737071D01*
X143947215Y-106832310D01*
X143947215Y-107070405D01*
X143899596Y-107165643D01*
X143851977Y-107213262D01*
X143756739Y-107260881D01*
X143518643Y-107260881D01*
X143423405Y-107213262D01*
X143375786Y-107165643D01*
X148105905Y-89860381D02*
X148105905Y-88860381D01*
X148486858Y-88860381D01*
X148582096Y-88908000D01*
X148629715Y-88955619D01*
X148677334Y-89050857D01*
X148677334Y-89193714D01*
X148629715Y-89288952D01*
X148582096Y-89336571D01*
X148486858Y-89384190D01*
X148105905Y-89384190D01*
X149629715Y-89860381D02*
X149058286Y-89860381D01*
X149344000Y-89860381D02*
X149344000Y-88860381D01*
X149248762Y-89003238D01*
X149153524Y-89098476D01*
X149058286Y-89146095D01*
X148105905Y-92908381D02*
X148105905Y-91908381D01*
X148486858Y-91908381D01*
X148582096Y-91956000D01*
X148629715Y-92003619D01*
X148677334Y-92098857D01*
X148677334Y-92241714D01*
X148629715Y-92336952D01*
X148582096Y-92384571D01*
X148486858Y-92432190D01*
X148105905Y-92432190D01*
X149058286Y-92003619D02*
X149105905Y-91956000D01*
X149201143Y-91908381D01*
X149439239Y-91908381D01*
X149534477Y-91956000D01*
X149582096Y-92003619D01*
X149629715Y-92098857D01*
X149629715Y-92194095D01*
X149582096Y-92336952D01*
X149010667Y-92908381D01*
X149629715Y-92908381D01*
X178331905Y-91892381D02*
X178331905Y-90892381D01*
X178712858Y-90892381D01*
X178808096Y-90940000D01*
X178855715Y-90987619D01*
X178903334Y-91082857D01*
X178903334Y-91225714D01*
X178855715Y-91320952D01*
X178808096Y-91368571D01*
X178712858Y-91416190D01*
X178331905Y-91416190D01*
X179236667Y-90892381D02*
X179855715Y-90892381D01*
X179522381Y-91273333D01*
X179665239Y-91273333D01*
X179760477Y-91320952D01*
X179808096Y-91368571D01*
X179855715Y-91463810D01*
X179855715Y-91701905D01*
X179808096Y-91797143D01*
X179760477Y-91844762D01*
X179665239Y-91892381D01*
X179379524Y-91892381D01*
X179284286Y-91844762D01*
X179236667Y-91797143D01*
X180871905Y-91892381D02*
X180871905Y-90892381D01*
X181252858Y-90892381D01*
X181348096Y-90940000D01*
X181395715Y-90987619D01*
X181443334Y-91082857D01*
X181443334Y-91225714D01*
X181395715Y-91320952D01*
X181348096Y-91368571D01*
X181252858Y-91416190D01*
X180871905Y-91416190D01*
X182300477Y-91225714D02*
X182300477Y-91892381D01*
X182062381Y-90844762D02*
X181824286Y-91559048D01*
X182443334Y-91559048D01*
X122451905Y-106452381D02*
X122451905Y-105452381D01*
X122690000Y-105452381D01*
X122832858Y-105500000D01*
X122928096Y-105595238D01*
X122975715Y-105690476D01*
X123023334Y-105880952D01*
X123023334Y-106023810D01*
X122975715Y-106214286D01*
X122928096Y-106309524D01*
X122832858Y-106404762D01*
X122690000Y-106452381D01*
X122451905Y-106452381D01*
X123975715Y-106452381D02*
X123404286Y-106452381D01*
X123690000Y-106452381D02*
X123690000Y-105452381D01*
X123594762Y-105595238D01*
X123499524Y-105690476D01*
X123404286Y-105738095D01*
X130833905Y-106624381D02*
X130833905Y-105624381D01*
X131072000Y-105624381D01*
X131214858Y-105672000D01*
X131310096Y-105767238D01*
X131357715Y-105862476D01*
X131405334Y-106052952D01*
X131405334Y-106195810D01*
X131357715Y-106386286D01*
X131310096Y-106481524D01*
X131214858Y-106576762D01*
X131072000Y-106624381D01*
X130833905Y-106624381D01*
X131786286Y-105719619D02*
X131833905Y-105672000D01*
X131929143Y-105624381D01*
X132167239Y-105624381D01*
X132262477Y-105672000D01*
X132310096Y-105719619D01*
X132357715Y-105814857D01*
X132357715Y-105910095D01*
X132310096Y-106052952D01*
X131738667Y-106624381D01*
X132357715Y-106624381D01*
X181125905Y-108148381D02*
X181125905Y-107148381D01*
X181506858Y-107148381D01*
X181602096Y-107196000D01*
X181649715Y-107243619D01*
X181697334Y-107338857D01*
X181697334Y-107481714D01*
X181649715Y-107576952D01*
X181602096Y-107624571D01*
X181506858Y-107672190D01*
X181125905Y-107672190D01*
X182602096Y-107148381D02*
X182125905Y-107148381D01*
X182078286Y-107624571D01*
X182125905Y-107576952D01*
X182221143Y-107529333D01*
X182459239Y-107529333D01*
X182554477Y-107576952D01*
X182602096Y-107624571D01*
X182649715Y-107719810D01*
X182649715Y-107957905D01*
X182602096Y-108053143D01*
X182554477Y-108100762D01*
X182459239Y-108148381D01*
X182221143Y-108148381D01*
X182125905Y-108100762D01*
X182078286Y-108053143D01*
X178331905Y-108148381D02*
X178331905Y-107148381D01*
X178712858Y-107148381D01*
X178808096Y-107196000D01*
X178855715Y-107243619D01*
X178903334Y-107338857D01*
X178903334Y-107481714D01*
X178855715Y-107576952D01*
X178808096Y-107624571D01*
X178712858Y-107672190D01*
X178331905Y-107672190D01*
X179760477Y-107148381D02*
X179570000Y-107148381D01*
X179474762Y-107196000D01*
X179427143Y-107243619D01*
X179331905Y-107386476D01*
X179284286Y-107576952D01*
X179284286Y-107957905D01*
X179331905Y-108053143D01*
X179379524Y-108100762D01*
X179474762Y-108148381D01*
X179665239Y-108148381D01*
X179760477Y-108100762D01*
X179808096Y-108053143D01*
X179855715Y-107957905D01*
X179855715Y-107719810D01*
X179808096Y-107624571D01*
X179760477Y-107576952D01*
X179665239Y-107529333D01*
X179474762Y-107529333D01*
X179379524Y-107576952D01*
X179331905Y-107624571D01*
X179284286Y-107719810D01*
X148359905Y-111704381D02*
X148359905Y-110704381D01*
X148740858Y-110704381D01*
X148836096Y-110752000D01*
X148883715Y-110799619D01*
X148931334Y-110894857D01*
X148931334Y-111037714D01*
X148883715Y-111132952D01*
X148836096Y-111180571D01*
X148740858Y-111228190D01*
X148359905Y-111228190D01*
X149264667Y-110704381D02*
X149931334Y-110704381D01*
X149502762Y-111704381D01*
X148359905Y-114498381D02*
X148359905Y-113498381D01*
X148740858Y-113498381D01*
X148836096Y-113546000D01*
X148883715Y-113593619D01*
X148931334Y-113688857D01*
X148931334Y-113831714D01*
X148883715Y-113926952D01*
X148836096Y-113974571D01*
X148740858Y-114022190D01*
X148359905Y-114022190D01*
X149502762Y-113926952D02*
X149407524Y-113879333D01*
X149359905Y-113831714D01*
X149312286Y-113736476D01*
X149312286Y-113688857D01*
X149359905Y-113593619D01*
X149407524Y-113546000D01*
X149502762Y-113498381D01*
X149693239Y-113498381D01*
X149788477Y-113546000D01*
X149836096Y-113593619D01*
X149883715Y-113688857D01*
X149883715Y-113736476D01*
X149836096Y-113831714D01*
X149788477Y-113879333D01*
X149693239Y-113926952D01*
X149502762Y-113926952D01*
X149407524Y-113974571D01*
X149359905Y-114022190D01*
X149312286Y-114117429D01*
X149312286Y-114307905D01*
X149359905Y-114403143D01*
X149407524Y-114450762D01*
X149502762Y-114498381D01*
X149693239Y-114498381D01*
X149788477Y-114450762D01*
X149836096Y-114403143D01*
X149883715Y-114307905D01*
X149883715Y-114117429D01*
X149836096Y-114022190D01*
X149788477Y-113974571D01*
X149693239Y-113926952D01*
X167632143Y-129738381D02*
X167298809Y-129262190D01*
X167060714Y-129738381D02*
X167060714Y-128738381D01*
X167441667Y-128738381D01*
X167536905Y-128786000D01*
X167584524Y-128833619D01*
X167632143Y-128928857D01*
X167632143Y-129071714D01*
X167584524Y-129166952D01*
X167536905Y-129214571D01*
X167441667Y-129262190D01*
X167060714Y-129262190D01*
X168584524Y-129738381D02*
X168013095Y-129738381D01*
X168298809Y-129738381D02*
X168298809Y-128738381D01*
X168203571Y-128881238D01*
X168108333Y-128976476D01*
X168013095Y-129024095D01*
X169203571Y-128738381D02*
X169298810Y-128738381D01*
X169394048Y-128786000D01*
X169441667Y-128833619D01*
X169489286Y-128928857D01*
X169536905Y-129119333D01*
X169536905Y-129357429D01*
X169489286Y-129547905D01*
X169441667Y-129643143D01*
X169394048Y-129690762D01*
X169298810Y-129738381D01*
X169203571Y-129738381D01*
X169108333Y-129690762D01*
X169060714Y-129643143D01*
X169013095Y-129547905D01*
X168965476Y-129357429D01*
X168965476Y-129119333D01*
X169013095Y-128928857D01*
X169060714Y-128833619D01*
X169108333Y-128786000D01*
X169203571Y-128738381D01*
X171188834Y-107006881D02*
X170855500Y-106530690D01*
X170617405Y-107006881D02*
X170617405Y-106006881D01*
X170998358Y-106006881D01*
X171093596Y-106054500D01*
X171141215Y-106102119D01*
X171188834Y-106197357D01*
X171188834Y-106340214D01*
X171141215Y-106435452D01*
X171093596Y-106483071D01*
X170998358Y-106530690D01*
X170617405Y-106530690D01*
X172141215Y-107006881D02*
X171569786Y-107006881D01*
X171855500Y-107006881D02*
X171855500Y-106006881D01*
X171760262Y-106149738D01*
X171665024Y-106244976D01*
X171569786Y-106292595D01*
X162044834Y-107006881D02*
X161711500Y-106530690D01*
X161473405Y-107006881D02*
X161473405Y-106006881D01*
X161854358Y-106006881D01*
X161949596Y-106054500D01*
X161997215Y-106102119D01*
X162044834Y-106197357D01*
X162044834Y-106340214D01*
X161997215Y-106435452D01*
X161949596Y-106483071D01*
X161854358Y-106530690D01*
X161473405Y-106530690D01*
X162425786Y-106102119D02*
X162473405Y-106054500D01*
X162568643Y-106006881D01*
X162806739Y-106006881D01*
X162901977Y-106054500D01*
X162949596Y-106102119D01*
X162997215Y-106197357D01*
X162997215Y-106292595D01*
X162949596Y-106435452D01*
X162378167Y-107006881D01*
X162997215Y-107006881D01*
X155694834Y-107260881D02*
X155361500Y-106784690D01*
X155123405Y-107260881D02*
X155123405Y-106260881D01*
X155504358Y-106260881D01*
X155599596Y-106308500D01*
X155647215Y-106356119D01*
X155694834Y-106451357D01*
X155694834Y-106594214D01*
X155647215Y-106689452D01*
X155599596Y-106737071D01*
X155504358Y-106784690D01*
X155123405Y-106784690D01*
X156028167Y-106260881D02*
X156647215Y-106260881D01*
X156313881Y-106641833D01*
X156456739Y-106641833D01*
X156551977Y-106689452D01*
X156599596Y-106737071D01*
X156647215Y-106832310D01*
X156647215Y-107070405D01*
X156599596Y-107165643D01*
X156551977Y-107213262D01*
X156456739Y-107260881D01*
X156171024Y-107260881D01*
X156075786Y-107213262D01*
X156028167Y-107165643D01*
X149344834Y-107260881D02*
X149011500Y-106784690D01*
X148773405Y-107260881D02*
X148773405Y-106260881D01*
X149154358Y-106260881D01*
X149249596Y-106308500D01*
X149297215Y-106356119D01*
X149344834Y-106451357D01*
X149344834Y-106594214D01*
X149297215Y-106689452D01*
X149249596Y-106737071D01*
X149154358Y-106784690D01*
X148773405Y-106784690D01*
X150201977Y-106594214D02*
X150201977Y-107260881D01*
X149963881Y-106213262D02*
X149725786Y-106927548D01*
X150344834Y-106927548D01*
X142962334Y-129738381D02*
X142629000Y-129262190D01*
X142390905Y-129738381D02*
X142390905Y-128738381D01*
X142771858Y-128738381D01*
X142867096Y-128786000D01*
X142914715Y-128833619D01*
X142962334Y-128928857D01*
X142962334Y-129071714D01*
X142914715Y-129166952D01*
X142867096Y-129214571D01*
X142771858Y-129262190D01*
X142390905Y-129262190D01*
X143819477Y-128738381D02*
X143629000Y-128738381D01*
X143533762Y-128786000D01*
X143486143Y-128833619D01*
X143390905Y-128976476D01*
X143343286Y-129166952D01*
X143343286Y-129547905D01*
X143390905Y-129643143D01*
X143438524Y-129690762D01*
X143533762Y-129738381D01*
X143724239Y-129738381D01*
X143819477Y-129690762D01*
X143867096Y-129643143D01*
X143914715Y-129547905D01*
X143914715Y-129309810D01*
X143867096Y-129214571D01*
X143819477Y-129166952D01*
X143724239Y-129119333D01*
X143533762Y-129119333D01*
X143438524Y-129166952D01*
X143390905Y-129214571D01*
X143343286Y-129309810D01*
X151852334Y-129738381D02*
X151519000Y-129262190D01*
X151280905Y-129738381D02*
X151280905Y-128738381D01*
X151661858Y-128738381D01*
X151757096Y-128786000D01*
X151804715Y-128833619D01*
X151852334Y-128928857D01*
X151852334Y-129071714D01*
X151804715Y-129166952D01*
X151757096Y-129214571D01*
X151661858Y-129262190D01*
X151280905Y-129262190D01*
X152185667Y-128738381D02*
X152852334Y-128738381D01*
X152423762Y-129738381D01*
X158202334Y-129738381D02*
X157869000Y-129262190D01*
X157630905Y-129738381D02*
X157630905Y-128738381D01*
X158011858Y-128738381D01*
X158107096Y-128786000D01*
X158154715Y-128833619D01*
X158202334Y-128928857D01*
X158202334Y-129071714D01*
X158154715Y-129166952D01*
X158107096Y-129214571D01*
X158011858Y-129262190D01*
X157630905Y-129262190D01*
X158773762Y-129166952D02*
X158678524Y-129119333D01*
X158630905Y-129071714D01*
X158583286Y-128976476D01*
X158583286Y-128928857D01*
X158630905Y-128833619D01*
X158678524Y-128786000D01*
X158773762Y-128738381D01*
X158964239Y-128738381D01*
X159059477Y-128786000D01*
X159107096Y-128833619D01*
X159154715Y-128928857D01*
X159154715Y-128976476D01*
X159107096Y-129071714D01*
X159059477Y-129119333D01*
X158964239Y-129166952D01*
X158773762Y-129166952D01*
X158678524Y-129214571D01*
X158630905Y-129262190D01*
X158583286Y-129357429D01*
X158583286Y-129547905D01*
X158630905Y-129643143D01*
X158678524Y-129690762D01*
X158773762Y-129738381D01*
X158964239Y-129738381D01*
X159059477Y-129690762D01*
X159107096Y-129643143D01*
X159154715Y-129547905D01*
X159154715Y-129357429D01*
X159107096Y-129262190D01*
X159059477Y-129214571D01*
X158964239Y-129166952D01*
X164552334Y-129738381D02*
X164219000Y-129262190D01*
X163980905Y-129738381D02*
X163980905Y-128738381D01*
X164361858Y-128738381D01*
X164457096Y-128786000D01*
X164504715Y-128833619D01*
X164552334Y-128928857D01*
X164552334Y-129071714D01*
X164504715Y-129166952D01*
X164457096Y-129214571D01*
X164361858Y-129262190D01*
X163980905Y-129262190D01*
X165028524Y-129738381D02*
X165219000Y-129738381D01*
X165314239Y-129690762D01*
X165361858Y-129643143D01*
X165457096Y-129500286D01*
X165504715Y-129309810D01*
X165504715Y-128928857D01*
X165457096Y-128833619D01*
X165409477Y-128786000D01*
X165314239Y-128738381D01*
X165123762Y-128738381D01*
X165028524Y-128786000D01*
X164980905Y-128833619D01*
X164933286Y-128928857D01*
X164933286Y-129166952D01*
X164980905Y-129262190D01*
X165028524Y-129309810D01*
X165123762Y-129357429D01*
X165314239Y-129357429D01*
X165409477Y-129309810D01*
X165457096Y-129262190D01*
X165504715Y-129166952D01*
X168394834Y-106911643D02*
X168347215Y-106959262D01*
X168204358Y-107006881D01*
X168109120Y-107006881D01*
X167966262Y-106959262D01*
X167871024Y-106864024D01*
X167823405Y-106768786D01*
X167775786Y-106578310D01*
X167775786Y-106435452D01*
X167823405Y-106244976D01*
X167871024Y-106149738D01*
X167966262Y-106054500D01*
X168109120Y-106006881D01*
X168204358Y-106006881D01*
X168347215Y-106054500D01*
X168394834Y-106102119D01*
X169347215Y-107006881D02*
X168775786Y-107006881D01*
X169061500Y-107006881D02*
X169061500Y-106006881D01*
X168966262Y-106149738D01*
X168871024Y-106244976D01*
X168775786Y-106292595D01*
X164584834Y-106911643D02*
X164537215Y-106959262D01*
X164394358Y-107006881D01*
X164299120Y-107006881D01*
X164156262Y-106959262D01*
X164061024Y-106864024D01*
X164013405Y-106768786D01*
X163965786Y-106578310D01*
X163965786Y-106435452D01*
X164013405Y-106244976D01*
X164061024Y-106149738D01*
X164156262Y-106054500D01*
X164299120Y-106006881D01*
X164394358Y-106006881D01*
X164537215Y-106054500D01*
X164584834Y-106102119D01*
X164965786Y-106102119D02*
X165013405Y-106054500D01*
X165108643Y-106006881D01*
X165346739Y-106006881D01*
X165441977Y-106054500D01*
X165489596Y-106102119D01*
X165537215Y-106197357D01*
X165537215Y-106292595D01*
X165489596Y-106435452D01*
X164918167Y-107006881D01*
X165537215Y-107006881D01*
X158234834Y-107165643D02*
X158187215Y-107213262D01*
X158044358Y-107260881D01*
X157949120Y-107260881D01*
X157806262Y-107213262D01*
X157711024Y-107118024D01*
X157663405Y-107022786D01*
X157615786Y-106832310D01*
X157615786Y-106689452D01*
X157663405Y-106498976D01*
X157711024Y-106403738D01*
X157806262Y-106308500D01*
X157949120Y-106260881D01*
X158044358Y-106260881D01*
X158187215Y-106308500D01*
X158234834Y-106356119D01*
X158568167Y-106260881D02*
X159187215Y-106260881D01*
X158853881Y-106641833D01*
X158996739Y-106641833D01*
X159091977Y-106689452D01*
X159139596Y-106737071D01*
X159187215Y-106832310D01*
X159187215Y-107070405D01*
X159139596Y-107165643D01*
X159091977Y-107213262D01*
X158996739Y-107260881D01*
X158711024Y-107260881D01*
X158615786Y-107213262D01*
X158568167Y-107165643D01*
X151884834Y-107165643D02*
X151837215Y-107213262D01*
X151694358Y-107260881D01*
X151599120Y-107260881D01*
X151456262Y-107213262D01*
X151361024Y-107118024D01*
X151313405Y-107022786D01*
X151265786Y-106832310D01*
X151265786Y-106689452D01*
X151313405Y-106498976D01*
X151361024Y-106403738D01*
X151456262Y-106308500D01*
X151599120Y-106260881D01*
X151694358Y-106260881D01*
X151837215Y-106308500D01*
X151884834Y-106356119D01*
X152741977Y-106594214D02*
X152741977Y-107260881D01*
X152503881Y-106213262D02*
X152265786Y-106927548D01*
X152884834Y-106927548D01*
X145534834Y-107165643D02*
X145487215Y-107213262D01*
X145344358Y-107260881D01*
X145249120Y-107260881D01*
X145106262Y-107213262D01*
X145011024Y-107118024D01*
X144963405Y-107022786D01*
X144915786Y-106832310D01*
X144915786Y-106689452D01*
X144963405Y-106498976D01*
X145011024Y-106403738D01*
X145106262Y-106308500D01*
X145249120Y-106260881D01*
X145344358Y-106260881D01*
X145487215Y-106308500D01*
X145534834Y-106356119D01*
X146439596Y-106260881D02*
X145963405Y-106260881D01*
X145915786Y-106737071D01*
X145963405Y-106689452D01*
X146058643Y-106641833D01*
X146296739Y-106641833D01*
X146391977Y-106689452D01*
X146439596Y-106737071D01*
X146487215Y-106832310D01*
X146487215Y-107070405D01*
X146439596Y-107165643D01*
X146391977Y-107213262D01*
X146296739Y-107260881D01*
X146058643Y-107260881D01*
X145963405Y-107213262D01*
X145915786Y-107165643D01*
X145502334Y-129643143D02*
X145454715Y-129690762D01*
X145311858Y-129738381D01*
X145216620Y-129738381D01*
X145073762Y-129690762D01*
X144978524Y-129595524D01*
X144930905Y-129500286D01*
X144883286Y-129309810D01*
X144883286Y-129166952D01*
X144930905Y-128976476D01*
X144978524Y-128881238D01*
X145073762Y-128786000D01*
X145216620Y-128738381D01*
X145311858Y-128738381D01*
X145454715Y-128786000D01*
X145502334Y-128833619D01*
X146359477Y-128738381D02*
X146169000Y-128738381D01*
X146073762Y-128786000D01*
X146026143Y-128833619D01*
X145930905Y-128976476D01*
X145883286Y-129166952D01*
X145883286Y-129547905D01*
X145930905Y-129643143D01*
X145978524Y-129690762D01*
X146073762Y-129738381D01*
X146264239Y-129738381D01*
X146359477Y-129690762D01*
X146407096Y-129643143D01*
X146454715Y-129547905D01*
X146454715Y-129309810D01*
X146407096Y-129214571D01*
X146359477Y-129166952D01*
X146264239Y-129119333D01*
X146073762Y-129119333D01*
X145978524Y-129166952D01*
X145930905Y-129214571D01*
X145883286Y-129309810D01*
X149312334Y-129643143D02*
X149264715Y-129690762D01*
X149121858Y-129738381D01*
X149026620Y-129738381D01*
X148883762Y-129690762D01*
X148788524Y-129595524D01*
X148740905Y-129500286D01*
X148693286Y-129309810D01*
X148693286Y-129166952D01*
X148740905Y-128976476D01*
X148788524Y-128881238D01*
X148883762Y-128786000D01*
X149026620Y-128738381D01*
X149121858Y-128738381D01*
X149264715Y-128786000D01*
X149312334Y-128833619D01*
X149645667Y-128738381D02*
X150312334Y-128738381D01*
X149883762Y-129738381D01*
X162012334Y-129643143D02*
X161964715Y-129690762D01*
X161821858Y-129738381D01*
X161726620Y-129738381D01*
X161583762Y-129690762D01*
X161488524Y-129595524D01*
X161440905Y-129500286D01*
X161393286Y-129309810D01*
X161393286Y-129166952D01*
X161440905Y-128976476D01*
X161488524Y-128881238D01*
X161583762Y-128786000D01*
X161726620Y-128738381D01*
X161821858Y-128738381D01*
X161964715Y-128786000D01*
X162012334Y-128833619D01*
X162488524Y-129738381D02*
X162679000Y-129738381D01*
X162774239Y-129690762D01*
X162821858Y-129643143D01*
X162917096Y-129500286D01*
X162964715Y-129309810D01*
X162964715Y-128928857D01*
X162917096Y-128833619D01*
X162869477Y-128786000D01*
X162774239Y-128738381D01*
X162583762Y-128738381D01*
X162488524Y-128786000D01*
X162440905Y-128833619D01*
X162393286Y-128928857D01*
X162393286Y-129166952D01*
X162440905Y-129262190D01*
X162488524Y-129309810D01*
X162583762Y-129357429D01*
X162774239Y-129357429D01*
X162869477Y-129309810D01*
X162917096Y-129262190D01*
X162964715Y-129166952D01*
X170426143Y-129643143D02*
X170378524Y-129690762D01*
X170235667Y-129738381D01*
X170140429Y-129738381D01*
X169997571Y-129690762D01*
X169902333Y-129595524D01*
X169854714Y-129500286D01*
X169807095Y-129309810D01*
X169807095Y-129166952D01*
X169854714Y-128976476D01*
X169902333Y-128881238D01*
X169997571Y-128786000D01*
X170140429Y-128738381D01*
X170235667Y-128738381D01*
X170378524Y-128786000D01*
X170426143Y-128833619D01*
X171378524Y-129738381D02*
X170807095Y-129738381D01*
X171092809Y-129738381D02*
X171092809Y-128738381D01*
X170997571Y-128881238D01*
X170902333Y-128976476D01*
X170807095Y-129024095D01*
X171997571Y-128738381D02*
X172092810Y-128738381D01*
X172188048Y-128786000D01*
X172235667Y-128833619D01*
X172283286Y-128928857D01*
X172330905Y-129119333D01*
X172330905Y-129357429D01*
X172283286Y-129547905D01*
X172235667Y-129643143D01*
X172188048Y-129690762D01*
X172092810Y-129738381D01*
X171997571Y-129738381D01*
X171902333Y-129690762D01*
X171854714Y-129643143D01*
X171807095Y-129547905D01*
X171759476Y-129357429D01*
X171759476Y-129119333D01*
X171807095Y-128928857D01*
X171854714Y-128833619D01*
X171902333Y-128786000D01*
X171997571Y-128738381D01*
X127889095Y-85812381D02*
X127889095Y-86621905D01*
X127936714Y-86717143D01*
X127984333Y-86764762D01*
X128079571Y-86812381D01*
X128270048Y-86812381D01*
X128365286Y-86764762D01*
X128412905Y-86717143D01*
X128460524Y-86621905D01*
X128460524Y-85812381D01*
X129460524Y-86812381D02*
X128889095Y-86812381D01*
X129174809Y-86812381D02*
X129174809Y-85812381D01*
X129079571Y-85955238D01*
X128984333Y-86050476D01*
X128889095Y-86098095D01*
X183396095Y-100925381D02*
X183967524Y-100925381D01*
X183681809Y-101925381D02*
X183681809Y-100925381D01*
X184300857Y-101925381D02*
X184300857Y-100925381D01*
X184681810Y-100925381D01*
X184777048Y-100973000D01*
X184824667Y-101020619D01*
X184872286Y-101115857D01*
X184872286Y-101258714D01*
X184824667Y-101353952D01*
X184777048Y-101401571D01*
X184681810Y-101449190D01*
X184300857Y-101449190D01*
X185824667Y-101925381D02*
X185253238Y-101925381D01*
X185538952Y-101925381D02*
X185538952Y-100925381D01*
X185443714Y-101068238D01*
X185348476Y-101163476D01*
X185253238Y-101211095D01*
X136461524Y-82256381D02*
X135985333Y-82256381D01*
X135937714Y-82732571D01*
X135985333Y-82684952D01*
X136080571Y-82637333D01*
X136318667Y-82637333D01*
X136413905Y-82684952D01*
X136461524Y-82732571D01*
X136509143Y-82827810D01*
X136509143Y-83065905D01*
X136461524Y-83161143D01*
X136413905Y-83208762D01*
X136318667Y-83256381D01*
X136080571Y-83256381D01*
X135985333Y-83208762D01*
X135937714Y-83161143D01*
X136794857Y-82256381D02*
X137128190Y-83256381D01*
X137461524Y-82256381D01*
X111252096Y-97290000D02*
X111156858Y-97242381D01*
X111014001Y-97242381D01*
X110871143Y-97290000D01*
X110775905Y-97385238D01*
X110728286Y-97480476D01*
X110680667Y-97670952D01*
X110680667Y-97813810D01*
X110728286Y-98004286D01*
X110775905Y-98099524D01*
X110871143Y-98194762D01*
X111014001Y-98242381D01*
X111109239Y-98242381D01*
X111252096Y-98194762D01*
X111299715Y-98147143D01*
X111299715Y-97813810D01*
X111109239Y-97813810D01*
X111728286Y-98242381D02*
X111728286Y-97242381D01*
X112299715Y-98242381D01*
X112299715Y-97242381D01*
X112775905Y-98242381D02*
X112775905Y-97242381D01*
X113014000Y-97242381D01*
X113156858Y-97290000D01*
X113252096Y-97385238D01*
X113299715Y-97480476D01*
X113347334Y-97670952D01*
X113347334Y-97813810D01*
X113299715Y-98004286D01*
X113252096Y-98099524D01*
X113156858Y-98194762D01*
X113014000Y-98242381D01*
X112775905Y-98242381D01*
X183523095Y-112355381D02*
X184094524Y-112355381D01*
X183808809Y-113355381D02*
X183808809Y-112355381D01*
X184427857Y-113355381D02*
X184427857Y-112355381D01*
X184808810Y-112355381D01*
X184904048Y-112403000D01*
X184951667Y-112450619D01*
X184999286Y-112545857D01*
X184999286Y-112688714D01*
X184951667Y-112783952D01*
X184904048Y-112831571D01*
X184808810Y-112879190D01*
X184427857Y-112879190D01*
X185856429Y-112688714D02*
X185856429Y-113355381D01*
X185618333Y-112307762D02*
X185380238Y-113022048D01*
X185999286Y-113022048D01*
X155789334Y-129643143D02*
X155741715Y-129690762D01*
X155598858Y-129738381D01*
X155503620Y-129738381D01*
X155360762Y-129690762D01*
X155265524Y-129595524D01*
X155217905Y-129500286D01*
X155170286Y-129309810D01*
X155170286Y-129166952D01*
X155217905Y-128976476D01*
X155265524Y-128881238D01*
X155360762Y-128786000D01*
X155503620Y-128738381D01*
X155598858Y-128738381D01*
X155741715Y-128786000D01*
X155789334Y-128833619D01*
X156360762Y-129166952D02*
X156265524Y-129119333D01*
X156217905Y-129071714D01*
X156170286Y-128976476D01*
X156170286Y-128928857D01*
X156217905Y-128833619D01*
X156265524Y-128786000D01*
X156360762Y-128738381D01*
X156551239Y-128738381D01*
X156646477Y-128786000D01*
X156694096Y-128833619D01*
X156741715Y-128928857D01*
X156741715Y-128976476D01*
X156694096Y-129071714D01*
X156646477Y-129119333D01*
X156551239Y-129166952D01*
X156360762Y-129166952D01*
X156265524Y-129214571D01*
X156217905Y-129262190D01*
X156170286Y-129357429D01*
X156170286Y-129547905D01*
X156217905Y-129643143D01*
X156265524Y-129690762D01*
X156360762Y-129738381D01*
X156551239Y-129738381D01*
X156646477Y-129690762D01*
X156694096Y-129643143D01*
X156741715Y-129547905D01*
X156741715Y-129357429D01*
X156694096Y-129262190D01*
X156646477Y-129214571D01*
X156551239Y-129166952D01*
M02*
