solid OpenSCAD_Model
  facet normal -0.822984 0.568065 0
    outer loop
      vertex 0.916351 56.1178 0
      vertex 2.01191 57.705 50
      vertex 2.01191 57.705 0
    endloop
  endfacet
  facet normal -0.822984 0.568065 0
    outer loop
      vertex 2.01191 57.705 50
      vertex 0.916351 56.1178 0
      vertex 0.916351 56.1178 50
    endloop
  endfacet
  facet normal -0.239316 -0.970942 0
    outer loop
      vertex 5.16316 0.51987 0
      vertex 7.03571 0.0583286 50
      vertex 5.16316 0.51987 50
    endloop
  endfacet
  facet normal -0.239316 -0.970942 -0
    outer loop
      vertex 7.03571 0.0583286 50
      vertex 5.16316 0.51987 0
      vertex 7.03571 0.0583286 0
    endloop
  endfacet
  facet normal 0.992709 0.120538 0
    outer loop
      vertex 90.4 52.4 50
      vertex 90.1675 54.3145 0
      vertex 90.1675 54.3145 50
    endloop
  endfacet
  facet normal 0.992709 0.120538 0
    outer loop
      vertex 90.1675 54.3145 0
      vertex 90.4 52.4 50
      vertex 90.4 52.4 0
    endloop
  endfacet
  facet normal 0 -1 0
    outer loop
      vertex 7.03571 0.0583286 0
      vertex 83.3643 0.0583286 50
      vertex 7.03571 0.0583286 50
    endloop
  endfacet
  facet normal 0 -1 -0
    outer loop
      vertex 83.3643 0.0583286 50
      vertex 7.03571 0.0583286 0
      vertex 83.3643 0.0583286 0
    endloop
  endfacet
  facet normal 0.822983 0.568066 0
    outer loop
      vertex 89.4837 56.1178 50
      vertex 88.3881 57.705 0
      vertex 88.3881 57.705 50
    endloop
  endfacet
  facet normal 0.822983 0.568066 0
    outer loop
      vertex 88.3881 57.705 0
      vertex 89.4837 56.1178 50
      vertex 89.4837 56.1178 0
    endloop
  endfacet
  facet normal 0 0 -1
    outer loop
      vertex 83.3643 0.0583286 0
      vertex 90.4 8 0
      vertex 90.1675 6.08547 0
    endloop
  endfacet
  facet normal -0 0 -1
    outer loop
      vertex 90.4 8 0
      vertex 83.3643 0.0583286 0
      vertex 90.4 52.4 0
    endloop
  endfacet
  facet normal 0 0 -1
    outer loop
      vertex 83.3643 0.0583286 0
      vertex 90.1675 6.08547 0
      vertex 89.4837 4.28221 0
    endloop
  endfacet
  facet normal 0 0 -1
    outer loop
      vertex 83.3643 60.3417 0
      vertex 90.4 52.4 0
      vertex 83.3643 0.0583286 0
    endloop
  endfacet
  facet normal 0 0 -1
    outer loop
      vertex 83.3643 0.0583286 0
      vertex 89.4837 4.28221 0
      vertex 88.3881 2.69502 0
    endloop
  endfacet
  facet normal 0 0 -1
    outer loop
      vertex 90.4 52.4 0
      vertex 83.3643 60.3417 0
      vertex 90.1675 54.3145 0
    endloop
  endfacet
  facet normal 0 0 -1
    outer loop
      vertex 83.3643 0.0583286 0
      vertex 88.3881 2.69502 0
      vertex 86.9445 1.41613 0
    endloop
  endfacet
  facet normal 0 0 -1
    outer loop
      vertex 90.1675 54.3145 0
      vertex 83.3643 60.3417 0
      vertex 89.4837 56.1178 0
    endloop
  endfacet
  facet normal 0 0 -1
    outer loop
      vertex 83.3643 0.0583286 0
      vertex 86.9445 1.41613 0
      vertex 85.2368 0.51987 0
    endloop
  endfacet
  facet normal 0 0 -1
    outer loop
      vertex 89.4837 56.1178 0
      vertex 83.3643 60.3417 0
      vertex 88.3881 57.705 0
    endloop
  endfacet
  facet normal 0 0 -1
    outer loop
      vertex 88.3881 57.705 0
      vertex 83.3643 60.3417 0
      vertex 86.9445 58.9839 0
    endloop
  endfacet
  facet normal 0 0 -1
    outer loop
      vertex 86.9445 58.9839 0
      vertex 83.3643 60.3417 0
      vertex 85.2368 59.8801 0
    endloop
  endfacet
  facet normal 0 0 -1
    outer loop
      vertex 7.03571 0.0583286 0
      vertex 83.3643 60.3417 0
      vertex 83.3643 0.0583286 0
    endloop
  endfacet
  facet normal 0 0 -1
    outer loop
      vertex 7.03571 0.0583286 0
      vertex 7.03571 60.3417 0
      vertex 83.3643 60.3417 0
    endloop
  endfacet
  facet normal 0 0 -1
    outer loop
      vertex 0 8 0
      vertex 7.03571 0.0583286 0
      vertex 5.16316 0.51987 0
    endloop
  endfacet
  facet normal 0 0 -1
    outer loop
      vertex 7.03571 0.0583286 0
      vertex 0 8 0
      vertex 7.03571 60.3417 0
    endloop
  endfacet
  facet normal 0 0 -1
    outer loop
      vertex 0 8 0
      vertex 5.16316 0.51987 0
      vertex 3.45548 1.41613 0
    endloop
  endfacet
  facet normal 0 0 -1
    outer loop
      vertex 0 52.4 0
      vertex 7.03571 60.3417 0
      vertex 0 8 0
    endloop
  endfacet
  facet normal 0 0 -1
    outer loop
      vertex 0 8 0
      vertex 3.45548 1.41613 0
      vertex 2.01191 2.69502 0
    endloop
  endfacet
  facet normal 0 0 -1
    outer loop
      vertex 7.03571 60.3417 0
      vertex 0 52.4 0
      vertex 5.16316 59.8801 0
    endloop
  endfacet
  facet normal 0 0 -1
    outer loop
      vertex 0 8 0
      vertex 2.01191 2.69502 0
      vertex 0.916351 4.28221 0
    endloop
  endfacet
  facet normal 0 0 -1
    outer loop
      vertex 5.16316 59.8801 0
      vertex 0 52.4 0
      vertex 3.45548 58.9839 0
    endloop
  endfacet
  facet normal 0 0 -1
    outer loop
      vertex 0 8 0
      vertex 0.916351 4.28221 0
      vertex 0.232465 6.08547 0
    endloop
  endfacet
  facet normal 0 0 -1
    outer loop
      vertex 3.45548 58.9839 0
      vertex 0 52.4 0
      vertex 2.01191 57.705 0
    endloop
  endfacet
  facet normal 0 0 -1
    outer loop
      vertex 2.01191 57.705 0
      vertex 0 52.4 0
      vertex 0.916351 56.1178 0
    endloop
  endfacet
  facet normal 0 0 -1
    outer loop
      vertex 0.916351 56.1178 0
      vertex 0 52.4 0
      vertex 0.232465 54.3145 0
    endloop
  endfacet
  facet normal 0.992709 -0.120538 0
    outer loop
      vertex 90.1675 6.08547 50
      vertex 90.4 8 0
      vertex 90.4 8 50
    endloop
  endfacet
  facet normal 0.992709 -0.120538 0
    outer loop
      vertex 90.4 8 0
      vertex 90.1675 6.08547 50
      vertex 90.1675 6.08547 0
    endloop
  endfacet
  facet normal -0.663123 -0.748511 0
    outer loop
      vertex 2.01191 2.69502 0
      vertex 3.45548 1.41613 50
      vertex 2.01191 2.69502 50
    endloop
  endfacet
  facet normal -0.663123 -0.748511 -0
    outer loop
      vertex 3.45548 1.41613 50
      vertex 2.01191 2.69502 0
      vertex 3.45548 1.41613 0
    endloop
  endfacet
  facet normal -0.935016 -0.354605 0
    outer loop
      vertex 0.916351 4.28221 0
      vertex 0.232465 6.08547 50
      vertex 0.232465 6.08547 0
    endloop
  endfacet
  facet normal -0.935016 -0.354605 0
    outer loop
      vertex 0.232465 6.08547 50
      vertex 0.916351 4.28221 0
      vertex 0.916351 4.28221 50
    endloop
  endfacet
  facet normal -1 0 0
    outer loop
      vertex 0 52.4 0
      vertex 0 46.16 25
      vertex 0 52.4 50
    endloop
  endfacet
  facet normal -1 0 0
    outer loop
      vertex 0 52.4 0
      vertex 0 14.64 25
      vertex 0 46.16 25
    endloop
  endfacet
  facet normal -1 0 0
    outer loop
      vertex 0 8 50
      vertex 0 14.64 25
      vertex 0 8 0
    endloop
  endfacet
  facet normal -1 0 0
    outer loop
      vertex 0 8 0
      vertex 0 14.64 25
      vertex 0 52.4 0
    endloop
  endfacet
  facet normal -1 0 0
    outer loop
      vertex 0 46.16 31.5
      vertex 0 52.4 50
      vertex 0 46.16 25
    endloop
  endfacet
  facet normal -1 0 0
    outer loop
      vertex 0 14.64 31.5
      vertex 0 52.4 50
      vertex 0 46.16 31.5
    endloop
  endfacet
  facet normal -1 0 0
    outer loop
      vertex 0 14.64 31.5
      vertex 0 8 50
      vertex 0 52.4 50
    endloop
  endfacet
  facet normal -1 0 0
    outer loop
      vertex 0 14.64 25
      vertex 0 8 50
      vertex 0 14.64 31.5
    endloop
  endfacet
  facet normal -0.992709 -0.120536 0
    outer loop
      vertex 0.232465 6.08547 0
      vertex 0 8 50
      vertex 0 8 0
    endloop
  endfacet
  facet normal -0.992709 -0.120536 0
    outer loop
      vertex 0 8 50
      vertex 0.232465 6.08547 0
      vertex 0.232465 6.08547 50
    endloop
  endfacet
  facet normal -0.992709 0.120536 0
    outer loop
      vertex 0 52.4 0
      vertex 0.232465 54.3145 50
      vertex 0.232465 54.3145 0
    endloop
  endfacet
  facet normal -0.992709 0.120536 0
    outer loop
      vertex 0.232465 54.3145 50
      vertex 0 52.4 0
      vertex 0 52.4 50
    endloop
  endfacet
  facet normal 1 -0 0
    outer loop
      vertex 90.4 16.7634 36.3229
      vertex 90.4 17.8532 17.1771
      vertex 90.4 17.8532 37.8229
    endloop
  endfacet
  facet normal 1 0 0
    outer loop
      vertex 90.4 16.7634 36.3229
      vertex 90.4 16.7634 18.6771
      vertex 90.4 17.8532 17.1771
    endloop
  endfacet
  facet normal 1 -0 0
    outer loop
      vertex 90.4 15 35.75
      vertex 90.4 16.7634 18.6771
      vertex 90.4 16.7634 36.3229
    endloop
  endfacet
  facet normal 1 0 0
    outer loop
      vertex 90.4 15 35.75
      vertex 90.4 15 19.25
      vertex 90.4 16.7634 18.6771
    endloop
  endfacet
  facet normal 1 0 0
    outer loop
      vertex 90.4 13.2366 36.3229
      vertex 90.4 15 19.25
      vertex 90.4 15 35.75
    endloop
  endfacet
  facet normal 1 0 0
    outer loop
      vertex 90.4 13.2366 36.3229
      vertex 90.4 13.2366 18.6771
      vertex 90.4 15 19.25
    endloop
  endfacet
  facet normal 1 0 0
    outer loop
      vertex 90.4 12.1468 37.8229
      vertex 90.4 13.2366 18.6771
      vertex 90.4 13.2366 36.3229
    endloop
  endfacet
  facet normal 1 0 0
    outer loop
      vertex 90.4 13.2366 18.6771
      vertex 90.4 12.1468 37.8229
      vertex 90.4 12.1468 17.1771
    endloop
  endfacet
  facet normal 1 0 0
    outer loop
      vertex 90.4 17.8532 37.8229
      vertex 90.4 52.4 50
      vertex 90.4 17.8532 39.6771
    endloop
  endfacet
  facet normal 1 0 0
    outer loop
      vertex 90.4 52.4 50
      vertex 90.4 16.7634 41.1771
      vertex 90.4 17.8532 39.6771
    endloop
  endfacet
  facet normal 1 -0 0
    outer loop
      vertex 90.4 8 50
      vertex 90.4 16.7634 41.1771
      vertex 90.4 52.4 50
    endloop
  endfacet
  facet normal 1 0 0
    outer loop
      vertex 90.4 8 50
      vertex 90.4 12.1468 37.8229
      vertex 90.4 12.1468 39.6771
    endloop
  endfacet
  facet normal 1 0 0
    outer loop
      vertex 90.4 12.1468 37.8229
      vertex 90.4 8 50
      vertex 90.4 12.1468 17.1771
    endloop
  endfacet
  facet normal 1 0 0
    outer loop
      vertex 90.4 8 0
      vertex 90.4 12.1468 17.1771
      vertex 90.4 8 50
    endloop
  endfacet
  facet normal 1 0 0
    outer loop
      vertex 90.4 13.2366 41.1771
      vertex 90.4 8 50
      vertex 90.4 12.1468 39.6771
    endloop
  endfacet
  facet normal 1 0 0
    outer loop
      vertex 90.4 15 41.75
      vertex 90.4 8 50
      vertex 90.4 13.2366 41.1771
    endloop
  endfacet
  facet normal 1 0 0
    outer loop
      vertex 90.4 16.7634 41.1771
      vertex 90.4 8 50
      vertex 90.4 15 41.75
    endloop
  endfacet
  facet normal 1 0 0
    outer loop
      vertex 90.4 17.8532 17.1771
      vertex 90.4 52.4 50
      vertex 90.4 17.8532 37.8229
    endloop
  endfacet
  facet normal 1 0 0
    outer loop
      vertex 90.4 52.4 50
      vertex 90.4 17.8532 17.1771
      vertex 90.4 52.4 0
    endloop
  endfacet
  facet normal 1 -0 0
    outer loop
      vertex 90.4 17.8532 15.3229
      vertex 90.4 52.4 0
      vertex 90.4 17.8532 17.1771
    endloop
  endfacet
  facet normal 1 -0 0
    outer loop
      vertex 90.4 16.7634 13.8229
      vertex 90.4 52.4 0
      vertex 90.4 17.8532 15.3229
    endloop
  endfacet
  facet normal 1 0 0
    outer loop
      vertex 90.4 8 0
      vertex 90.4 16.7634 13.8229
      vertex 90.4 15 13.25
    endloop
  endfacet
  facet normal 1 0 0
    outer loop
      vertex 90.4 8 0
      vertex 90.4 15 13.25
      vertex 90.4 13.2366 13.8229
    endloop
  endfacet
  facet normal 1 0 0
    outer loop
      vertex 90.4 16.7634 13.8229
      vertex 90.4 8 0
      vertex 90.4 52.4 0
    endloop
  endfacet
  facet normal 1 0 0
    outer loop
      vertex 90.4 12.1468 15.3229
      vertex 90.4 8 0
      vertex 90.4 13.2366 13.8229
    endloop
  endfacet
  facet normal 1 0 0
    outer loop
      vertex 90.4 12.1468 17.1771
      vertex 90.4 8 0
      vertex 90.4 12.1468 15.3229
    endloop
  endfacet
  facet normal 0.935017 -0.354604 0
    outer loop
      vertex 89.4837 4.28221 50
      vertex 90.1675 6.08547 0
      vertex 90.1675 6.08547 50
    endloop
  endfacet
  facet normal 0.935017 -0.354604 0
    outer loop
      vertex 90.1675 6.08547 0
      vertex 89.4837 4.28221 50
      vertex 89.4837 4.28221 0
    endloop
  endfacet
  facet normal 0.822983 -0.568066 0
    outer loop
      vertex 88.3881 2.69502 50
      vertex 89.4837 4.28221 0
      vertex 89.4837 4.28221 50
    endloop
  endfacet
  facet normal 0.822983 -0.568066 0
    outer loop
      vertex 89.4837 4.28221 0
      vertex 88.3881 2.69502 50
      vertex 88.3881 2.69502 0
    endloop
  endfacet
  facet normal -0.464723 -0.885456 0
    outer loop
      vertex 3.45548 1.41613 0
      vertex 5.16316 0.51987 50
      vertex 3.45548 1.41613 50
    endloop
  endfacet
  facet normal -0.464723 -0.885456 -0
    outer loop
      vertex 5.16316 0.51987 50
      vertex 3.45548 1.41613 0
      vertex 5.16316 0.51987 0
    endloop
  endfacet
  facet normal -0.822984 -0.568065 0
    outer loop
      vertex 2.01191 2.69502 0
      vertex 0.916351 4.28221 50
      vertex 0.916351 4.28221 0
    endloop
  endfacet
  facet normal -0.822984 -0.568065 0
    outer loop
      vertex 0.916351 4.28221 50
      vertex 2.01191 2.69502 0
      vertex 2.01191 2.69502 50
    endloop
  endfacet
  facet normal 0 0 1
    outer loop
      vertex 87.9 55.4 50
      vertex 90.4 52.4 50
      vertex 90.1675 54.3145 50
    endloop
  endfacet
  facet normal 0 0 1
    outer loop
      vertex 90.4 52.4 50
      vertex 87.9 55.4 50
      vertex 90.4 8 50
    endloop
  endfacet
  facet normal -0 0 1
    outer loop
      vertex 87.9 55.4 50
      vertex 90.1675 54.3145 50
      vertex 89.4837 56.1178 50
    endloop
  endfacet
  facet normal 0 0 1
    outer loop
      vertex 87.9 5 50
      vertex 90.4 8 50
      vertex 87.9 55.4 50
    endloop
  endfacet
  facet normal 0 0 1
    outer loop
      vertex 87.9 55.4 50
      vertex 89.4837 56.1178 50
      vertex 88.3881 57.705 50
    endloop
  endfacet
  facet normal 0 0 1
    outer loop
      vertex 90.4 8 50
      vertex 87.9 5 50
      vertex 90.1675 6.08547 50
    endloop
  endfacet
  facet normal 0 0 1
    outer loop
      vertex 90.1675 6.08547 50
      vertex 87.9 5 50
      vertex 89.4837 4.28221 50
    endloop
  endfacet
  facet normal 0 0 1
    outer loop
      vertex 88.3881 57.705 50
      vertex 87.1678 57.1678 50
      vertex 87.9 55.4 50
    endloop
  endfacet
  facet normal 0 0 1
    outer loop
      vertex 86.9445 58.9839 50
      vertex 87.1678 57.1678 50
      vertex 88.3881 57.705 50
    endloop
  endfacet
  facet normal 0 0 1
    outer loop
      vertex 86.9445 58.9839 50
      vertex 85.4 57.9 50
      vertex 87.1678 57.1678 50
    endloop
  endfacet
  facet normal 0 0 1
    outer loop
      vertex 85.2368 59.8801 50
      vertex 85.4 57.9 50
      vertex 86.9445 58.9839 50
    endloop
  endfacet
  facet normal 0 0 1
    outer loop
      vertex 83.3643 60.3417 50
      vertex 85.4 57.9 50
      vertex 85.2368 59.8801 50
    endloop
  endfacet
  facet normal -0 0 1
    outer loop
      vertex 7.03571 60.3417 50
      vertex 85.4 57.9 50
      vertex 83.3643 60.3417 50
    endloop
  endfacet
  facet normal 0 0 1
    outer loop
      vertex 5 57.9 50
      vertex 7.03571 60.3417 50
      vertex 5.16316 59.8801 50
    endloop
  endfacet
  facet normal 0 0 1
    outer loop
      vertex 7.03571 60.3417 50
      vertex 5 57.9 50
      vertex 85.4 57.9 50
    endloop
  endfacet
  facet normal -0 0 1
    outer loop
      vertex 3.45548 58.9839 50
      vertex 5 57.9 50
      vertex 5.16316 59.8801 50
    endloop
  endfacet
  facet normal 0 0 1
    outer loop
      vertex 3.45548 58.9839 50
      vertex 3.23223 57.1678 50
      vertex 5 57.9 50
    endloop
  endfacet
  facet normal -0 0 1
    outer loop
      vertex 2.01191 57.705 50
      vertex 3.23223 57.1678 50
      vertex 3.45548 58.9839 50
    endloop
  endfacet
  facet normal -0 0 1
    outer loop
      vertex 0.916351 56.1178 50
      vertex 2.5 55.4 50
      vertex 2.01191 57.705 50
    endloop
  endfacet
  facet normal 0 0 1
    outer loop
      vertex 3.23223 57.1678 50
      vertex 2.01191 57.705 50
      vertex 2.5 55.4 50
    endloop
  endfacet
  facet normal 0 0 1
    outer loop
      vertex 89.4837 4.28221 50
      vertex 87.9 5 50
      vertex 88.3881 2.69502 50
    endloop
  endfacet
  facet normal -0 0 1
    outer loop
      vertex 87.1678 3.23223 50
      vertex 88.3881 2.69502 50
      vertex 87.9 5 50
    endloop
  endfacet
  facet normal 0 0 1
    outer loop
      vertex 87.1678 3.23223 50
      vertex 86.9445 1.41613 50
      vertex 88.3881 2.69502 50
    endloop
  endfacet
  facet normal -0 0 1
    outer loop
      vertex 85.4 2.5 50
      vertex 86.9445 1.41613 50
      vertex 87.1678 3.23223 50
    endloop
  endfacet
  facet normal 0 0 1
    outer loop
      vertex 85.4 2.5 50
      vertex 85.2368 0.51987 50
      vertex 86.9445 1.41613 50
    endloop
  endfacet
  facet normal 0 0 1
    outer loop
      vertex 85.4 2.5 50
      vertex 83.3643 0.0583286 50
      vertex 85.2368 0.51987 50
    endloop
  endfacet
  facet normal 0 0 1
    outer loop
      vertex 85.4 2.5 50
      vertex 7.03571 0.0583286 50
      vertex 83.3643 0.0583286 50
    endloop
  endfacet
  facet normal -0 0 1
    outer loop
      vertex 5 2.5 50
      vertex 7.03571 0.0583286 50
      vertex 85.4 2.5 50
    endloop
  endfacet
  facet normal 0 0 1
    outer loop
      vertex 7.03571 0.0583286 50
      vertex 5 2.5 50
      vertex 5.16316 0.51987 50
    endloop
  endfacet
  facet normal 0 0 1
    outer loop
      vertex 5 2.5 50
      vertex 3.45548 1.41613 50
      vertex 5.16316 0.51987 50
    endloop
  endfacet
  facet normal 0 0 1
    outer loop
      vertex 3.23223 3.23223 50
      vertex 3.45548 1.41613 50
      vertex 5 2.5 50
    endloop
  endfacet
  facet normal 0 0 1
    outer loop
      vertex 2.01191 2.69502 50
      vertex 3.23223 3.23223 50
      vertex 2.5 5 50
    endloop
  endfacet
  facet normal 0 0 1
    outer loop
      vertex 3.23223 3.23223 50
      vertex 2.01191 2.69502 50
      vertex 3.45548 1.41613 50
    endloop
  endfacet
  facet normal 0 0 1
    outer loop
      vertex 2.5 55.4 50
      vertex 0 52.4 50
      vertex 2.5 5 50
    endloop
  endfacet
  facet normal 0 0 1
    outer loop
      vertex 0.232465 54.3145 50
      vertex 2.5 55.4 50
      vertex 0.916351 56.1178 50
    endloop
  endfacet
  facet normal -0 0 1
    outer loop
      vertex 0 8 50
      vertex 2.5 5 50
      vertex 0 52.4 50
    endloop
  endfacet
  facet normal 0 0 1
    outer loop
      vertex 2.5 55.4 50
      vertex 0.232465 54.3145 50
      vertex 0 52.4 50
    endloop
  endfacet
  facet normal -0 -0 1
    outer loop
      vertex 0.232465 6.08547 50
      vertex 2.5 5 50
      vertex 0 8 50
    endloop
  endfacet
  facet normal 0 0 1
    outer loop
      vertex 2.5 5 50
      vertex 0.916351 4.28221 50
      vertex 2.01191 2.69502 50
    endloop
  endfacet
  facet normal 0 0 1
    outer loop
      vertex 2.5 5 50
      vertex 0.232465 6.08547 50
      vertex 0.916351 4.28221 50
    endloop
  endfacet
  facet normal 0 1 -0
    outer loop
      vertex 83.3643 60.3417 0
      vertex 7.03571 60.3417 50
      vertex 83.3643 60.3417 50
    endloop
  endfacet
  facet normal 0 1 0
    outer loop
      vertex 7.03571 60.3417 50
      vertex 83.3643 60.3417 0
      vertex 7.03571 60.3417 0
    endloop
  endfacet
  facet normal -0.935016 0.354606 0
    outer loop
      vertex 0.232465 54.3145 0
      vertex 0.916351 56.1178 50
      vertex 0.916351 56.1178 0
    endloop
  endfacet
  facet normal -0.935016 0.354606 0
    outer loop
      vertex 0.916351 56.1178 50
      vertex 0.232465 54.3145 0
      vertex 0.232465 54.3145 50
    endloop
  endfacet
  facet normal -0.663123 0.74851 0
    outer loop
      vertex 3.45548 58.9839 0
      vertex 2.01191 57.705 50
      vertex 3.45548 58.9839 50
    endloop
  endfacet
  facet normal -0.663123 0.74851 0
    outer loop
      vertex 2.01191 57.705 50
      vertex 3.45548 58.9839 0
      vertex 2.01191 57.705 0
    endloop
  endfacet
  facet normal 0.239316 0.970942 -0
    outer loop
      vertex 85.2368 59.8801 0
      vertex 83.3643 60.3417 50
      vertex 85.2368 59.8801 50
    endloop
  endfacet
  facet normal 0.239316 0.970942 0
    outer loop
      vertex 83.3643 60.3417 50
      vertex 85.2368 59.8801 0
      vertex 83.3643 60.3417 0
    endloop
  endfacet
  facet normal 0.935017 0.354604 0
    outer loop
      vertex 90.1675 54.3145 50
      vertex 89.4837 56.1178 0
      vertex 89.4837 56.1178 50
    endloop
  endfacet
  facet normal 0.935017 0.354604 0
    outer loop
      vertex 89.4837 56.1178 0
      vertex 90.1675 54.3145 50
      vertex 90.1675 54.3145 0
    endloop
  endfacet
  facet normal 0.663123 -0.74851 0
    outer loop
      vertex 86.9445 1.41613 0
      vertex 88.3881 2.69502 50
      vertex 86.9445 1.41613 50
    endloop
  endfacet
  facet normal 0.663123 -0.74851 0
    outer loop
      vertex 88.3881 2.69502 50
      vertex 86.9445 1.41613 0
      vertex 88.3881 2.69502 0
    endloop
  endfacet
  facet normal 0.239316 -0.970942 0
    outer loop
      vertex 83.3643 0.0583286 0
      vertex 85.2368 0.51987 50
      vertex 83.3643 0.0583286 50
    endloop
  endfacet
  facet normal 0.239316 -0.970942 0
    outer loop
      vertex 85.2368 0.51987 50
      vertex 83.3643 0.0583286 0
      vertex 85.2368 0.51987 0
    endloop
  endfacet
  facet normal -0.464723 0.885456 0
    outer loop
      vertex 5.16316 59.8801 0
      vertex 3.45548 58.9839 50
      vertex 5.16316 59.8801 50
    endloop
  endfacet
  facet normal -0.464723 0.885456 0
    outer loop
      vertex 3.45548 58.9839 50
      vertex 5.16316 59.8801 0
      vertex 3.45548 58.9839 0
    endloop
  endfacet
  facet normal 0.663124 0.748509 -0
    outer loop
      vertex 88.3881 57.705 0
      vertex 86.9445 58.9839 50
      vertex 88.3881 57.705 50
    endloop
  endfacet
  facet normal 0.663124 0.748509 0
    outer loop
      vertex 86.9445 58.9839 50
      vertex 88.3881 57.705 0
      vertex 86.9445 58.9839 0
    endloop
  endfacet
  facet normal 0.464723 0.885456 -0
    outer loop
      vertex 86.9445 58.9839 0
      vertex 85.2368 59.8801 50
      vertex 86.9445 58.9839 50
    endloop
  endfacet
  facet normal 0.464723 0.885456 0
    outer loop
      vertex 85.2368 59.8801 50
      vertex 86.9445 58.9839 0
      vertex 85.2368 59.8801 0
    endloop
  endfacet
  facet normal 0.464723 -0.885456 0
    outer loop
      vertex 85.2368 0.51987 0
      vertex 86.9445 1.41613 50
      vertex 85.2368 0.51987 50
    endloop
  endfacet
  facet normal 0.464723 -0.885456 0
    outer loop
      vertex 86.9445 1.41613 50
      vertex 85.2368 0.51987 0
      vertex 86.9445 1.41613 0
    endloop
  endfacet
  facet normal -0.239315 0.970942 0
    outer loop
      vertex 7.03571 60.3417 0
      vertex 5.16316 59.8801 50
      vertex 7.03571 60.3417 50
    endloop
  endfacet
  facet normal -0.239315 0.970942 0
    outer loop
      vertex 5.16316 59.8801 50
      vertex 7.03571 60.3417 0
      vertex 5.16316 59.8801 0
    endloop
  endfacet
  facet normal 1 0 0
    outer loop
      vertex 5 46.16 25
      vertex 5 55.4 46
      vertex 5 46.16 31.5
    endloop
  endfacet
  facet normal 1 0 0
    outer loop
      vertex 5 55.4 46
      vertex 5 14.64 31.5
      vertex 5 46.16 31.5
    endloop
  endfacet
  facet normal 1 0 0
    outer loop
      vertex 5 14.64 31.5
      vertex 5 5 46
      vertex 5 14.64 25
    endloop
  endfacet
  facet normal 1 -0 0
    outer loop
      vertex 5 5 46
      vertex 5 14.64 31.5
      vertex 5 55.4 46
    endloop
  endfacet
  facet normal 1 0 0
    outer loop
      vertex 5 55.4 46
      vertex 5 46.16 25
      vertex 5 55.4 5
    endloop
  endfacet
  facet normal 1 -0 0
    outer loop
      vertex 5 14.64 25
      vertex 5 55.4 5
      vertex 5 46.16 25
    endloop
  endfacet
  facet normal 1 0 0
    outer loop
      vertex 5 14.64 25
      vertex 5 5 5
      vertex 5 55.4 5
    endloop
  endfacet
  facet normal 1 0 0
    outer loop
      vertex 5 5 5
      vertex 5 14.64 25
      vertex 5 5 46
    endloop
  endfacet
  facet normal -1 0 0
    outer loop
      vertex 85.4 17.25 29.3
      vertex 85.4 17.8532 37.8229
      vertex 85.4 43.35 29.3
    endloop
  endfacet
  facet normal -1 0 0
    outer loop
      vertex 85.4 17.25 29.3
      vertex 85.4 16.7634 36.3229
      vertex 85.4 17.8532 37.8229
    endloop
  endfacet
  facet normal -1 0 0
    outer loop
      vertex 85.4 17.25 27.2
      vertex 85.4 16.7634 36.3229
      vertex 85.4 17.25 29.3
    endloop
  endfacet
  facet normal -1 0 0
    outer loop
      vertex 85.4 13.2366 18.6771
      vertex 85.4 17.25 27.2
      vertex 85.4 15 19.25
    endloop
  endfacet
  facet normal -1 0 0
    outer loop
      vertex 85.4 17.25 27.2
      vertex 85.4 15 35.75
      vertex 85.4 16.7634 36.3229
    endloop
  endfacet
  facet normal -1 0 0
    outer loop
      vertex 85.4 13.2366 36.3229
      vertex 85.4 17.25 27.2
      vertex 85.4 13.2366 18.6771
    endloop
  endfacet
  facet normal -1 0 0
    outer loop
      vertex 85.4 17.25 27.2
      vertex 85.4 13.2366 36.3229
      vertex 85.4 15 35.75
    endloop
  endfacet
  facet normal -1 0 0
    outer loop
      vertex 85.4 12.1468 17.1771
      vertex 85.4 13.2366 36.3229
      vertex 85.4 13.2366 18.6771
    endloop
  endfacet
  facet normal -1 -0 0
    outer loop
      vertex 85.4 13.2366 36.3229
      vertex 85.4 12.1468 17.1771
      vertex 85.4 12.1468 37.8229
    endloop
  endfacet
  facet normal -1 0 0
    outer loop
      vertex 85.4 55.4 5
      vertex 85.4 43.35 27.2
      vertex 85.4 55.4 46
    endloop
  endfacet
  facet normal -1 0 0
    outer loop
      vertex 85.4 55.4 5
      vertex 85.4 17.8532 15.3229
      vertex 85.4 43.35 27.2
    endloop
  endfacet
  facet normal -1 0 0
    outer loop
      vertex 85.4 55.4 5
      vertex 85.4 16.7634 13.8229
      vertex 85.4 17.8532 15.3229
    endloop
  endfacet
  facet normal -1 0 0
    outer loop
      vertex 85.4 5 5
      vertex 85.4 16.7634 13.8229
      vertex 85.4 55.4 5
    endloop
  endfacet
  facet normal -1 0 0
    outer loop
      vertex 85.4 5 5
      vertex 85.4 12.1468 17.1771
      vertex 85.4 12.1468 15.3229
    endloop
  endfacet
  facet normal -1 0 0
    outer loop
      vertex 85.4 12.1468 17.1771
      vertex 85.4 5 46
      vertex 85.4 12.1468 37.8229
    endloop
  endfacet
  facet normal -1 -0 0
    outer loop
      vertex 85.4 12.1468 17.1771
      vertex 85.4 5 5
      vertex 85.4 5 46
    endloop
  endfacet
  facet normal -1 -0 0
    outer loop
      vertex 85.4 13.2366 13.8229
      vertex 85.4 5 5
      vertex 85.4 12.1468 15.3229
    endloop
  endfacet
  facet normal -1 -0 0
    outer loop
      vertex 85.4 15 13.25
      vertex 85.4 5 5
      vertex 85.4 13.2366 13.8229
    endloop
  endfacet
  facet normal -1 0 0
    outer loop
      vertex 85.4 16.7634 13.8229
      vertex 85.4 5 5
      vertex 85.4 15 13.25
    endloop
  endfacet
  facet normal -1 0 0
    outer loop
      vertex 85.4 43.35 29.3
      vertex 85.4 55.4 46
      vertex 85.4 43.35 27.2
    endloop
  endfacet
  facet normal -1 0 0
    outer loop
      vertex 85.4 17.8532 39.6771
      vertex 85.4 43.35 29.3
      vertex 85.4 17.8532 37.8229
    endloop
  endfacet
  facet normal -1 0 0
    outer loop
      vertex 85.4 43.35 29.3
      vertex 85.4 17.8532 39.6771
      vertex 85.4 55.4 46
    endloop
  endfacet
  facet normal -1 0 0
    outer loop
      vertex 85.4 16.7634 41.1771
      vertex 85.4 55.4 46
      vertex 85.4 17.8532 39.6771
    endloop
  endfacet
  facet normal -1 0 0
    outer loop
      vertex 85.4 15 41.75
      vertex 85.4 55.4 46
      vertex 85.4 16.7634 41.1771
    endloop
  endfacet
  facet normal -1 0 0
    outer loop
      vertex 85.4 15 41.75
      vertex 85.4 5 46
      vertex 85.4 55.4 46
    endloop
  endfacet
  facet normal -1 0 0
    outer loop
      vertex 85.4 13.2366 41.1771
      vertex 85.4 5 46
      vertex 85.4 15 41.75
    endloop
  endfacet
  facet normal -1 0 0
    outer loop
      vertex 85.4 12.1468 39.6771
      vertex 85.4 5 46
      vertex 85.4 13.2366 41.1771
    endloop
  endfacet
  facet normal -1 0 0
    outer loop
      vertex 85.4 12.1468 37.8229
      vertex 85.4 5 46
      vertex 85.4 12.1468 39.6771
    endloop
  endfacet
  facet normal -1 0 0
    outer loop
      vertex 85.4 17.8532 17.1771
      vertex 85.4 43.35 27.2
      vertex 85.4 17.8532 15.3229
    endloop
  endfacet
  facet normal -1 0 0
    outer loop
      vertex 85.4 17.8532 17.1771
      vertex 85.4 17.25 27.2
      vertex 85.4 43.35 27.2
    endloop
  endfacet
  facet normal -1 0 0
    outer loop
      vertex 85.4 15 19.25
      vertex 85.4 17.25 27.2
      vertex 85.4 16.7634 18.6771
    endloop
  endfacet
  facet normal -1 0 0
    outer loop
      vertex 85.4 16.7634 18.6771
      vertex 85.4 17.25 27.2
      vertex 85.4 17.8532 17.1771
    endloop
  endfacet
  facet normal 0 0 1
    outer loop
      vertex 12.4271 11.7634 5
      vertex 77.9729 11.7634 5
      vertex 12.4271 48.6366 5
    endloop
  endfacet
  facet normal 0 0 1
    outer loop
      vertex 77.9729 11.7634 5
      vertex 12.4271 11.7634 5
      vertex 13 10 5
    endloop
  endfacet
  facet normal -0 0 1
    outer loop
      vertex 10.9271 47.5468 5
      vertex 12.4271 11.7634 5
      vertex 12.4271 48.6366 5
    endloop
  endfacet
  facet normal 0 0 1
    outer loop
      vertex 10.9271 47.5468 5
      vertex 10.9271 12.8532 5
      vertex 12.4271 11.7634 5
    endloop
  endfacet
  facet normal -0 0 1
    outer loop
      vertex 9.07295 47.5468 5
      vertex 10.9271 12.8532 5
      vertex 10.9271 47.5468 5
    endloop
  endfacet
  facet normal 0 0 1
    outer loop
      vertex 9.07295 47.5468 5
      vertex 9.07295 12.8532 5
      vertex 10.9271 12.8532 5
    endloop
  endfacet
  facet normal 0 0 1
    outer loop
      vertex 7.57295 48.6366 5
      vertex 9.07295 12.8532 5
      vertex 9.07295 47.5468 5
    endloop
  endfacet
  facet normal 0 0 1
    outer loop
      vertex 7.57295 48.6366 5
      vertex 7.57295 11.7634 5
      vertex 9.07295 12.8532 5
    endloop
  endfacet
  facet normal 0 0 1
    outer loop
      vertex 7 50.4 5
      vertex 7.57295 11.7634 5
      vertex 7.57295 48.6366 5
    endloop
  endfacet
  facet normal 0 0 1
    outer loop
      vertex 7.57295 11.7634 5
      vertex 7 50.4 5
      vertex 7 10 5
    endloop
  endfacet
  facet normal -0 0 1
    outer loop
      vertex 82.827 48.6366 5
      vertex 83.4 10 5
      vertex 83.4 50.4 5
    endloop
  endfacet
  facet normal 0 0 1
    outer loop
      vertex 82.827 48.6366 5
      vertex 82.827 11.7634 5
      vertex 83.4 10 5
    endloop
  endfacet
  facet normal -0 0 1
    outer loop
      vertex 81.327 47.5468 5
      vertex 82.827 11.7634 5
      vertex 82.827 48.6366 5
    endloop
  endfacet
  facet normal 0 0 1
    outer loop
      vertex 81.327 47.5468 5
      vertex 81.327 12.8532 5
      vertex 82.827 11.7634 5
    endloop
  endfacet
  facet normal -0 0 1
    outer loop
      vertex 79.4729 47.5468 5
      vertex 81.327 12.8532 5
      vertex 81.327 47.5468 5
    endloop
  endfacet
  facet normal 0 0 1
    outer loop
      vertex 79.4729 47.5468 5
      vertex 79.4729 12.8532 5
      vertex 81.327 12.8532 5
    endloop
  endfacet
  facet normal 0 0 1
    outer loop
      vertex 77.9729 48.6366 5
      vertex 79.4729 12.8532 5
      vertex 79.4729 47.5468 5
    endloop
  endfacet
  facet normal 0 0 1
    outer loop
      vertex 77.9729 48.6366 5
      vertex 77.9729 11.7634 5
      vertex 79.4729 12.8532 5
    endloop
  endfacet
  facet normal -0 0 1
    outer loop
      vertex 13 50.4 5
      vertex 77.9729 48.6366 5
      vertex 77.4 50.4 5
    endloop
  endfacet
  facet normal 0 0 1
    outer loop
      vertex 12.4271 48.6366 5
      vertex 77.9729 48.6366 5
      vertex 13 50.4 5
    endloop
  endfacet
  facet normal 0 0 1
    outer loop
      vertex 85.4 55.4 5
      vertex 83.4 50.4 5
      vertex 85.4 5 5
    endloop
  endfacet
  facet normal 0 0 1
    outer loop
      vertex 85.4 55.4 5
      vertex 82.827 52.1634 5
      vertex 83.4 50.4 5
    endloop
  endfacet
  facet normal 0 0 1
    outer loop
      vertex 85.4 55.4 5
      vertex 81.327 53.2532 5
      vertex 82.827 52.1634 5
    endloop
  endfacet
  facet normal 0 0 1
    outer loop
      vertex 85.4 55.4 5
      vertex 79.4729 53.2532 5
      vertex 81.327 53.2532 5
    endloop
  endfacet
  facet normal 0 0 1
    outer loop
      vertex 77.9729 48.6366 5
      vertex 12.4271 48.6366 5
      vertex 77.9729 11.7634 5
    endloop
  endfacet
  facet normal 0 0 1
    outer loop
      vertex 77.9729 52.1634 5
      vertex 13 50.4 5
      vertex 77.4 50.4 5
    endloop
  endfacet
  facet normal 0 0 1
    outer loop
      vertex 12.4271 52.1634 5
      vertex 77.9729 52.1634 5
      vertex 79.4729 53.2532 5
    endloop
  endfacet
  facet normal 0 0 1
    outer loop
      vertex 10.9271 53.2532 5
      vertex 79.4729 53.2532 5
      vertex 85.4 55.4 5
    endloop
  endfacet
  facet normal 0 0 1
    outer loop
      vertex 77.9729 52.1634 5
      vertex 12.4271 52.1634 5
      vertex 13 50.4 5
    endloop
  endfacet
  facet normal 0 0 1
    outer loop
      vertex 79.4729 53.2532 5
      vertex 10.9271 53.2532 5
      vertex 12.4271 52.1634 5
    endloop
  endfacet
  facet normal -0 0 1
    outer loop
      vertex 5 55.4 5
      vertex 10.9271 53.2532 5
      vertex 85.4 55.4 5
    endloop
  endfacet
  facet normal 0 0 1
    outer loop
      vertex 7 50.4 5
      vertex 5 55.4 5
      vertex 7 10 5
    endloop
  endfacet
  facet normal 0 0 1
    outer loop
      vertex 7.57295 52.1634 5
      vertex 5 55.4 5
      vertex 7 50.4 5
    endloop
  endfacet
  facet normal 0 0 1
    outer loop
      vertex 9.07295 53.2532 5
      vertex 5 55.4 5
      vertex 7.57295 52.1634 5
    endloop
  endfacet
  facet normal 0 0 1
    outer loop
      vertex 10.9271 53.2532 5
      vertex 5 55.4 5
      vertex 9.07295 53.2532 5
    endloop
  endfacet
  facet normal -0 0 1
    outer loop
      vertex 83.4 10 5
      vertex 85.4 5 5
      vertex 83.4 50.4 5
    endloop
  endfacet
  facet normal -0 0 1
    outer loop
      vertex 82.827 8.23664 5
      vertex 85.4 5 5
      vertex 83.4 10 5
    endloop
  endfacet
  facet normal -0 0 1
    outer loop
      vertex 81.327 7.14683 5
      vertex 85.4 5 5
      vertex 82.827 8.23664 5
    endloop
  endfacet
  facet normal -0 0 1
    outer loop
      vertex 79.4729 7.14683 5
      vertex 85.4 5 5
      vertex 81.327 7.14683 5
    endloop
  endfacet
  facet normal 0 0 1
    outer loop
      vertex 77.9729 11.7634 5
      vertex 13 10 5
      vertex 77.4 10 5
    endloop
  endfacet
  facet normal 0 0 1
    outer loop
      vertex 77.4 10 5
      vertex 13 10 5
      vertex 77.9729 8.23664 5
    endloop
  endfacet
  facet normal 0 0 1
    outer loop
      vertex 12.4271 8.23664 5
      vertex 77.9729 8.23664 5
      vertex 13 10 5
    endloop
  endfacet
  facet normal 0 0 1
    outer loop
      vertex 77.9729 8.23664 5
      vertex 12.4271 8.23664 5
      vertex 79.4729 7.14683 5
    endloop
  endfacet
  facet normal 0 0 1
    outer loop
      vertex 10.9271 7.14683 5
      vertex 79.4729 7.14683 5
      vertex 12.4271 8.23664 5
    endloop
  endfacet
  facet normal 0 0 1
    outer loop
      vertex 79.4729 7.14683 5
      vertex 10.9271 7.14683 5
      vertex 85.4 5 5
    endloop
  endfacet
  facet normal 0 0 1
    outer loop
      vertex 5 5 5
      vertex 10.9271 7.14683 5
      vertex 9.07295 7.14683 5
    endloop
  endfacet
  facet normal 0 0 1
    outer loop
      vertex 10.9271 7.14683 5
      vertex 5 5 5
      vertex 85.4 5 5
    endloop
  endfacet
  facet normal 0 0 1
    outer loop
      vertex 7.57295 8.23664 5
      vertex 5 5 5
      vertex 9.07295 7.14683 5
    endloop
  endfacet
  facet normal 0 0 1
    outer loop
      vertex 7 10 5
      vertex 5 5 5
      vertex 7.57295 8.23664 5
    endloop
  endfacet
  facet normal 0 0 1
    outer loop
      vertex 5 5 5
      vertex 7 10 5
      vertex 5 55.4 5
    endloop
  endfacet
  facet normal 0 1 -0
    outer loop
      vertex 85.4 5 5
      vertex 5 5 46
      vertex 85.4 5 46
    endloop
  endfacet
  facet normal 0 1 0
    outer loop
      vertex 5 5 46
      vertex 85.4 5 5
      vertex 5 5 5
    endloop
  endfacet
  facet normal 0 -1 0
    outer loop
      vertex 5 55.4 5
      vertex 85.4 55.4 46
      vertex 5 55.4 46
    endloop
  endfacet
  facet normal 0 -1 -0
    outer loop
      vertex 85.4 55.4 46
      vertex 5 55.4 5
      vertex 85.4 55.4 5
    endloop
  endfacet
  facet normal -0.951056 -0.309017 0
    outer loop
      vertex 13 10 2.5
      vertex 12.4271 11.7634 5
      vertex 12.4271 11.7634 2.5
    endloop
  endfacet
  facet normal -0.951056 -0.309017 0
    outer loop
      vertex 12.4271 11.7634 5
      vertex 13 10 2.5
      vertex 13 10 5
    endloop
  endfacet
  facet normal 0.951057 0.309017 0
    outer loop
      vertex 7.57295 8.23664 5
      vertex 7 10 2.5
      vertex 7 10 5
    endloop
  endfacet
  facet normal 0.951057 0.309017 0
    outer loop
      vertex 7 10 2.5
      vertex 7.57295 8.23664 5
      vertex 7.57295 8.23664 2.5
    endloop
  endfacet
  facet normal 0 -1 0
    outer loop
      vertex 9.07295 12.8532 2.5
      vertex 10.9271 12.8532 5
      vertex 9.07295 12.8532 5
    endloop
  endfacet
  facet normal 0 -1 -0
    outer loop
      vertex 10.9271 12.8532 5
      vertex 9.07295 12.8532 2.5
      vertex 10.9271 12.8532 2.5
    endloop
  endfacet
  facet normal -0.587785 -0.809017 0
    outer loop
      vertex 10.9271 12.8532 2.5
      vertex 12.4271 11.7634 5
      vertex 10.9271 12.8532 5
    endloop
  endfacet
  facet normal -0.587785 -0.809017 -0
    outer loop
      vertex 12.4271 11.7634 5
      vertex 10.9271 12.8532 2.5
      vertex 12.4271 11.7634 2.5
    endloop
  endfacet
  facet normal 0.587785 -0.809017 0
    outer loop
      vertex 7.57295 11.7634 2.5
      vertex 9.07295 12.8532 5
      vertex 7.57295 11.7634 5
    endloop
  endfacet
  facet normal 0.587785 -0.809017 0
    outer loop
      vertex 9.07295 12.8532 5
      vertex 7.57295 11.7634 2.5
      vertex 9.07295 12.8532 2.5
    endloop
  endfacet
  facet normal -0.587785 0.809017 0
    outer loop
      vertex 12.4271 8.23664 2.5
      vertex 10.9271 7.14683 5
      vertex 12.4271 8.23664 5
    endloop
  endfacet
  facet normal -0.587785 0.809017 0
    outer loop
      vertex 10.9271 7.14683 5
      vertex 12.4271 8.23664 2.5
      vertex 10.9271 7.14683 2.5
    endloop
  endfacet
  facet normal 0.587785 0.809017 -0
    outer loop
      vertex 9.07295 7.14683 2.5
      vertex 7.57295 8.23664 5
      vertex 9.07295 7.14683 5
    endloop
  endfacet
  facet normal 0.587785 0.809017 0
    outer loop
      vertex 7.57295 8.23664 5
      vertex 9.07295 7.14683 2.5
      vertex 7.57295 8.23664 2.5
    endloop
  endfacet
  facet normal 0 0 1
    outer loop
      vertex 12.4271 11.7634 2.5
      vertex 12.4271 8.23664 2.5
      vertex 13 10 2.5
    endloop
  endfacet
  facet normal 0 0 1
    outer loop
      vertex 10.9271 12.8532 2.5
      vertex 12.4271 8.23664 2.5
      vertex 12.4271 11.7634 2.5
    endloop
  endfacet
  facet normal 0 0 1
    outer loop
      vertex 10.9271 12.8532 2.5
      vertex 10.9271 7.14683 2.5
      vertex 12.4271 8.23664 2.5
    endloop
  endfacet
  facet normal -0 0 1
    outer loop
      vertex 9.07295 12.8532 2.5
      vertex 10.9271 7.14683 2.5
      vertex 10.9271 12.8532 2.5
    endloop
  endfacet
  facet normal 0 0 1
    outer loop
      vertex 9.07295 12.8532 2.5
      vertex 9.07295 7.14683 2.5
      vertex 10.9271 7.14683 2.5
    endloop
  endfacet
  facet normal -0 0 1
    outer loop
      vertex 7.57295 11.7634 2.5
      vertex 9.07295 7.14683 2.5
      vertex 9.07295 12.8532 2.5
    endloop
  endfacet
  facet normal 0 0 1
    outer loop
      vertex 7.57295 11.7634 2.5
      vertex 7.57295 8.23664 2.5
      vertex 9.07295 7.14683 2.5
    endloop
  endfacet
  facet normal 0 -0 1
    outer loop
      vertex 7.57295 8.23664 2.5
      vertex 7.57295 11.7634 2.5
      vertex 7 10 2.5
    endloop
  endfacet
  facet normal 0.951057 -0.309017 0
    outer loop
      vertex 7 10 5
      vertex 7.57295 11.7634 2.5
      vertex 7.57295 11.7634 5
    endloop
  endfacet
  facet normal 0.951057 -0.309017 0
    outer loop
      vertex 7.57295 11.7634 2.5
      vertex 7 10 5
      vertex 7 10 2.5
    endloop
  endfacet
  facet normal 0 1 -0
    outer loop
      vertex 10.9271 7.14683 2.5
      vertex 9.07295 7.14683 5
      vertex 10.9271 7.14683 5
    endloop
  endfacet
  facet normal 0 1 0
    outer loop
      vertex 9.07295 7.14683 5
      vertex 10.9271 7.14683 2.5
      vertex 9.07295 7.14683 2.5
    endloop
  endfacet
  facet normal -0.951056 0.309017 0
    outer loop
      vertex 12.4271 8.23664 2.5
      vertex 13 10 5
      vertex 13 10 2.5
    endloop
  endfacet
  facet normal -0.951056 0.309017 0
    outer loop
      vertex 13 10 5
      vertex 12.4271 8.23664 2.5
      vertex 12.4271 8.23664 5
    endloop
  endfacet
  facet normal -0.951056 -0.309019 0
    outer loop
      vertex 83.4 10 2.5
      vertex 82.827 11.7634 5
      vertex 82.827 11.7634 2.5
    endloop
  endfacet
  facet normal -0.951056 -0.309019 0
    outer loop
      vertex 82.827 11.7634 5
      vertex 83.4 10 2.5
      vertex 83.4 10 5
    endloop
  endfacet
  facet normal 0 -1 0
    outer loop
      vertex 79.4729 12.8532 2.5
      vertex 81.327 12.8532 5
      vertex 79.4729 12.8532 5
    endloop
  endfacet
  facet normal 0 -1 -0
    outer loop
      vertex 81.327 12.8532 5
      vertex 79.4729 12.8532 2.5
      vertex 81.327 12.8532 2.5
    endloop
  endfacet
  facet normal -0.587785 -0.809017 0
    outer loop
      vertex 81.327 12.8532 2.5
      vertex 82.827 11.7634 5
      vertex 81.327 12.8532 5
    endloop
  endfacet
  facet normal -0.587785 -0.809017 -0
    outer loop
      vertex 82.827 11.7634 5
      vertex 81.327 12.8532 2.5
      vertex 82.827 11.7634 2.5
    endloop
  endfacet
  facet normal 0.951057 0.309015 0
    outer loop
      vertex 77.9729 8.23664 5
      vertex 77.4 10 2.5
      vertex 77.4 10 5
    endloop
  endfacet
  facet normal 0.951057 0.309015 0
    outer loop
      vertex 77.4 10 2.5
      vertex 77.9729 8.23664 5
      vertex 77.9729 8.23664 2.5
    endloop
  endfacet
  facet normal 0.587785 -0.809017 0
    outer loop
      vertex 77.9729 11.7634 2.5
      vertex 79.4729 12.8532 5
      vertex 77.9729 11.7634 5
    endloop
  endfacet
  facet normal 0.587785 -0.809017 0
    outer loop
      vertex 79.4729 12.8532 5
      vertex 77.9729 11.7634 2.5
      vertex 79.4729 12.8532 2.5
    endloop
  endfacet
  facet normal -0.951056 0.309019 0
    outer loop
      vertex 82.827 8.23664 2.5
      vertex 83.4 10 5
      vertex 83.4 10 2.5
    endloop
  endfacet
  facet normal -0.951056 0.309019 0
    outer loop
      vertex 83.4 10 5
      vertex 82.827 8.23664 2.5
      vertex 82.827 8.23664 5
    endloop
  endfacet
  facet normal -0.587785 0.809017 0
    outer loop
      vertex 82.827 8.23664 2.5
      vertex 81.327 7.14683 5
      vertex 82.827 8.23664 5
    endloop
  endfacet
  facet normal -0.587785 0.809017 0
    outer loop
      vertex 81.327 7.14683 5
      vertex 82.827 8.23664 2.5
      vertex 81.327 7.14683 2.5
    endloop
  endfacet
  facet normal 0.587785 0.809017 -0
    outer loop
      vertex 79.4729 7.14683 2.5
      vertex 77.9729 8.23664 5
      vertex 79.4729 7.14683 5
    endloop
  endfacet
  facet normal 0.587785 0.809017 0
    outer loop
      vertex 77.9729 8.23664 5
      vertex 79.4729 7.14683 2.5
      vertex 77.9729 8.23664 2.5
    endloop
  endfacet
  facet normal 0 0 1
    outer loop
      vertex 82.827 11.7634 2.5
      vertex 82.827 8.23664 2.5
      vertex 83.4 10 2.5
    endloop
  endfacet
  facet normal 0 0 1
    outer loop
      vertex 81.327 12.8532 2.5
      vertex 82.827 8.23664 2.5
      vertex 82.827 11.7634 2.5
    endloop
  endfacet
  facet normal 0 0 1
    outer loop
      vertex 81.327 12.8532 2.5
      vertex 81.327 7.14683 2.5
      vertex 82.827 8.23664 2.5
    endloop
  endfacet
  facet normal -0 0 1
    outer loop
      vertex 79.4729 12.8532 2.5
      vertex 81.327 7.14683 2.5
      vertex 81.327 12.8532 2.5
    endloop
  endfacet
  facet normal 0 0 1
    outer loop
      vertex 79.4729 12.8532 2.5
      vertex 79.4729 7.14683 2.5
      vertex 81.327 7.14683 2.5
    endloop
  endfacet
  facet normal -0 0 1
    outer loop
      vertex 77.9729 11.7634 2.5
      vertex 79.4729 7.14683 2.5
      vertex 79.4729 12.8532 2.5
    endloop
  endfacet
  facet normal 0 0 1
    outer loop
      vertex 77.9729 11.7634 2.5
      vertex 77.9729 8.23664 2.5
      vertex 79.4729 7.14683 2.5
    endloop
  endfacet
  facet normal 0 -0 1
    outer loop
      vertex 77.9729 8.23664 2.5
      vertex 77.9729 11.7634 2.5
      vertex 77.4 10 2.5
    endloop
  endfacet
  facet normal 0 1 -0
    outer loop
      vertex 81.327 7.14683 2.5
      vertex 79.4729 7.14683 5
      vertex 81.327 7.14683 5
    endloop
  endfacet
  facet normal 0 1 0
    outer loop
      vertex 79.4729 7.14683 5
      vertex 81.327 7.14683 2.5
      vertex 79.4729 7.14683 2.5
    endloop
  endfacet
  facet normal 0.951057 -0.309015 0
    outer loop
      vertex 77.4 10 5
      vertex 77.9729 11.7634 2.5
      vertex 77.9729 11.7634 5
    endloop
  endfacet
  facet normal 0.951057 -0.309015 0
    outer loop
      vertex 77.9729 11.7634 2.5
      vertex 77.4 10 5
      vertex 77.4 10 2.5
    endloop
  endfacet
  facet normal -0.951056 -0.309019 0
    outer loop
      vertex 83.4 50.4 2.5
      vertex 82.827 52.1634 5
      vertex 82.827 52.1634 2.5
    endloop
  endfacet
  facet normal -0.951056 -0.309019 0
    outer loop
      vertex 82.827 52.1634 5
      vertex 83.4 50.4 2.5
      vertex 83.4 50.4 5
    endloop
  endfacet
  facet normal -0.587785 0.809017 0
    outer loop
      vertex 82.827 48.6366 2.5
      vertex 81.327 47.5468 5
      vertex 82.827 48.6366 5
    endloop
  endfacet
  facet normal -0.587785 0.809017 0
    outer loop
      vertex 81.327 47.5468 5
      vertex 82.827 48.6366 2.5
      vertex 81.327 47.5468 2.5
    endloop
  endfacet
  facet normal 0 -1 0
    outer loop
      vertex 79.4729 53.2532 2.5
      vertex 81.327 53.2532 5
      vertex 79.4729 53.2532 5
    endloop
  endfacet
  facet normal 0 -1 -0
    outer loop
      vertex 81.327 53.2532 5
      vertex 79.4729 53.2532 2.5
      vertex 81.327 53.2532 2.5
    endloop
  endfacet
  facet normal -0.587786 -0.809016 0
    outer loop
      vertex 81.327 53.2532 2.5
      vertex 82.827 52.1634 5
      vertex 81.327 53.2532 5
    endloop
  endfacet
  facet normal -0.587786 -0.809016 -0
    outer loop
      vertex 82.827 52.1634 5
      vertex 81.327 53.2532 2.5
      vertex 82.827 52.1634 2.5
    endloop
  endfacet
  facet normal 0.587786 -0.809016 0
    outer loop
      vertex 77.9729 52.1634 2.5
      vertex 79.4729 53.2532 5
      vertex 77.9729 52.1634 5
    endloop
  endfacet
  facet normal 0.587786 -0.809016 0
    outer loop
      vertex 79.4729 53.2532 5
      vertex 77.9729 52.1634 2.5
      vertex 79.4729 53.2532 2.5
    endloop
  endfacet
  facet normal 0 0 1
    outer loop
      vertex 82.827 52.1634 2.5
      vertex 82.827 48.6366 2.5
      vertex 83.4 50.4 2.5
    endloop
  endfacet
  facet normal 0 0 1
    outer loop
      vertex 81.327 53.2532 2.5
      vertex 82.827 48.6366 2.5
      vertex 82.827 52.1634 2.5
    endloop
  endfacet
  facet normal 0 0 1
    outer loop
      vertex 81.327 53.2532 2.5
      vertex 81.327 47.5468 2.5
      vertex 82.827 48.6366 2.5
    endloop
  endfacet
  facet normal -0 0 1
    outer loop
      vertex 79.4729 53.2532 2.5
      vertex 81.327 47.5468 2.5
      vertex 81.327 53.2532 2.5
    endloop
  endfacet
  facet normal 0 0 1
    outer loop
      vertex 79.4729 53.2532 2.5
      vertex 79.4729 47.5468 2.5
      vertex 81.327 47.5468 2.5
    endloop
  endfacet
  facet normal -0 0 1
    outer loop
      vertex 77.9729 52.1634 2.5
      vertex 79.4729 47.5468 2.5
      vertex 79.4729 53.2532 2.5
    endloop
  endfacet
  facet normal 0 0 1
    outer loop
      vertex 77.9729 52.1634 2.5
      vertex 77.9729 48.6366 2.5
      vertex 79.4729 47.5468 2.5
    endloop
  endfacet
  facet normal 0 -0 1
    outer loop
      vertex 77.9729 48.6366 2.5
      vertex 77.9729 52.1634 2.5
      vertex 77.4 50.4 2.5
    endloop
  endfacet
  facet normal 0.951057 -0.309016 0
    outer loop
      vertex 77.4 50.4 5
      vertex 77.9729 52.1634 2.5
      vertex 77.9729 52.1634 5
    endloop
  endfacet
  facet normal 0.951057 -0.309016 0
    outer loop
      vertex 77.9729 52.1634 2.5
      vertex 77.4 50.4 5
      vertex 77.4 50.4 2.5
    endloop
  endfacet
  facet normal 0.587785 0.809017 -0
    outer loop
      vertex 79.4729 47.5468 2.5
      vertex 77.9729 48.6366 5
      vertex 79.4729 47.5468 5
    endloop
  endfacet
  facet normal 0.587785 0.809017 0
    outer loop
      vertex 77.9729 48.6366 5
      vertex 79.4729 47.5468 2.5
      vertex 77.9729 48.6366 2.5
    endloop
  endfacet
  facet normal -0.951056 0.309018 0
    outer loop
      vertex 82.827 48.6366 2.5
      vertex 83.4 50.4 5
      vertex 83.4 50.4 2.5
    endloop
  endfacet
  facet normal -0.951056 0.309018 0
    outer loop
      vertex 83.4 50.4 5
      vertex 82.827 48.6366 2.5
      vertex 82.827 48.6366 5
    endloop
  endfacet
  facet normal 0.951057 0.309014 0
    outer loop
      vertex 77.9729 48.6366 5
      vertex 77.4 50.4 2.5
      vertex 77.4 50.4 5
    endloop
  endfacet
  facet normal 0.951057 0.309014 0
    outer loop
      vertex 77.4 50.4 2.5
      vertex 77.9729 48.6366 5
      vertex 77.9729 48.6366 2.5
    endloop
  endfacet
  facet normal 0 1 -0
    outer loop
      vertex 81.327 47.5468 2.5
      vertex 79.4729 47.5468 5
      vertex 81.327 47.5468 5
    endloop
  endfacet
  facet normal 0 1 0
    outer loop
      vertex 79.4729 47.5468 5
      vertex 81.327 47.5468 2.5
      vertex 79.4729 47.5468 2.5
    endloop
  endfacet
  facet normal -0.951056 -0.309018 0
    outer loop
      vertex 13 50.4 2.5
      vertex 12.4271 52.1634 5
      vertex 12.4271 52.1634 2.5
    endloop
  endfacet
  facet normal -0.951056 -0.309018 0
    outer loop
      vertex 12.4271 52.1634 5
      vertex 13 50.4 2.5
      vertex 13 50.4 5
    endloop
  endfacet
  facet normal 0 -1 0
    outer loop
      vertex 9.07295 53.2532 2.5
      vertex 10.9271 53.2532 5
      vertex 9.07295 53.2532 5
    endloop
  endfacet
  facet normal 0 -1 -0
    outer loop
      vertex 10.9271 53.2532 5
      vertex 9.07295 53.2532 2.5
      vertex 10.9271 53.2532 2.5
    endloop
  endfacet
  facet normal -0.587786 -0.809016 0
    outer loop
      vertex 10.9271 53.2532 2.5
      vertex 12.4271 52.1634 5
      vertex 10.9271 53.2532 5
    endloop
  endfacet
  facet normal -0.587786 -0.809016 -0
    outer loop
      vertex 12.4271 52.1634 5
      vertex 10.9271 53.2532 2.5
      vertex 12.4271 52.1634 2.5
    endloop
  endfacet
  facet normal 0.587786 -0.809016 0
    outer loop
      vertex 7.57295 52.1634 2.5
      vertex 9.07295 53.2532 5
      vertex 7.57295 52.1634 5
    endloop
  endfacet
  facet normal 0.587786 -0.809016 0
    outer loop
      vertex 9.07295 53.2532 5
      vertex 7.57295 52.1634 2.5
      vertex 9.07295 53.2532 2.5
    endloop
  endfacet
  facet normal 0 0 1
    outer loop
      vertex 12.4271 52.1634 2.5
      vertex 12.4271 48.6366 2.5
      vertex 13 50.4 2.5
    endloop
  endfacet
  facet normal 0 0 1
    outer loop
      vertex 10.9271 53.2532 2.5
      vertex 12.4271 48.6366 2.5
      vertex 12.4271 52.1634 2.5
    endloop
  endfacet
  facet normal 0 0 1
    outer loop
      vertex 10.9271 53.2532 2.5
      vertex 10.9271 47.5468 2.5
      vertex 12.4271 48.6366 2.5
    endloop
  endfacet
  facet normal -0 0 1
    outer loop
      vertex 9.07295 53.2532 2.5
      vertex 10.9271 47.5468 2.5
      vertex 10.9271 53.2532 2.5
    endloop
  endfacet
  facet normal 0 0 1
    outer loop
      vertex 9.07295 53.2532 2.5
      vertex 9.07295 47.5468 2.5
      vertex 10.9271 47.5468 2.5
    endloop
  endfacet
  facet normal -0 0 1
    outer loop
      vertex 7.57295 52.1634 2.5
      vertex 9.07295 47.5468 2.5
      vertex 9.07295 53.2532 2.5
    endloop
  endfacet
  facet normal 0 0 1
    outer loop
      vertex 7.57295 52.1634 2.5
      vertex 7.57295 48.6366 2.5
      vertex 9.07295 47.5468 2.5
    endloop
  endfacet
  facet normal 0 -0 1
    outer loop
      vertex 7.57295 48.6366 2.5
      vertex 7.57295 52.1634 2.5
      vertex 7 50.4 2.5
    endloop
  endfacet
  facet normal 0.951056 -0.309017 0
    outer loop
      vertex 7 50.4 5
      vertex 7.57295 52.1634 2.5
      vertex 7.57295 52.1634 5
    endloop
  endfacet
  facet normal 0.951056 -0.309017 0
    outer loop
      vertex 7.57295 52.1634 2.5
      vertex 7 50.4 5
      vertex 7 50.4 2.5
    endloop
  endfacet
  facet normal 0.587785 0.809017 -0
    outer loop
      vertex 9.07295 47.5468 2.5
      vertex 7.57295 48.6366 5
      vertex 9.07295 47.5468 5
    endloop
  endfacet
  facet normal 0.587785 0.809017 0
    outer loop
      vertex 7.57295 48.6366 5
      vertex 9.07295 47.5468 2.5
      vertex 7.57295 48.6366 2.5
    endloop
  endfacet
  facet normal -0.587785 0.809017 0
    outer loop
      vertex 12.4271 48.6366 2.5
      vertex 10.9271 47.5468 5
      vertex 12.4271 48.6366 5
    endloop
  endfacet
  facet normal -0.587785 0.809017 0
    outer loop
      vertex 10.9271 47.5468 5
      vertex 12.4271 48.6366 2.5
      vertex 10.9271 47.5468 2.5
    endloop
  endfacet
  facet normal -0.951057 0.309017 0
    outer loop
      vertex 12.4271 48.6366 2.5
      vertex 13 50.4 5
      vertex 13 50.4 2.5
    endloop
  endfacet
  facet normal -0.951057 0.309017 0
    outer loop
      vertex 13 50.4 5
      vertex 12.4271 48.6366 2.5
      vertex 12.4271 48.6366 5
    endloop
  endfacet
  facet normal 0.951057 0.309016 0
    outer loop
      vertex 7.57295 48.6366 5
      vertex 7 50.4 2.5
      vertex 7 50.4 5
    endloop
  endfacet
  facet normal 0.951057 0.309016 0
    outer loop
      vertex 7 50.4 2.5
      vertex 7.57295 48.6366 5
      vertex 7.57295 48.6366 2.5
    endloop
  endfacet
  facet normal 0 1 -0
    outer loop
      vertex 10.9271 47.5468 2.5
      vertex 9.07295 47.5468 5
      vertex 10.9271 47.5468 5
    endloop
  endfacet
  facet normal 0 1 0
    outer loop
      vertex 9.07295 47.5468 5
      vertex 10.9271 47.5468 2.5
      vertex 9.07295 47.5468 2.5
    endloop
  endfacet
  facet normal 0 -0.309017 0.951057
    outer loop
      vertex 85.4 16.7634 13.8229
      vertex 90.4 15 13.25
      vertex 90.4 16.7634 13.8229
    endloop
  endfacet
  facet normal 0 -0.309017 0.951057
    outer loop
      vertex 90.4 15 13.25
      vertex 85.4 16.7634 13.8229
      vertex 85.4 15 13.25
    endloop
  endfacet
  facet normal 0 -0.309017 -0.951057
    outer loop
      vertex 85.4 15 19.25
      vertex 90.4 16.7634 18.6771
      vertex 90.4 15 19.25
    endloop
  endfacet
  facet normal -0 -0.309017 -0.951057
    outer loop
      vertex 90.4 16.7634 18.6771
      vertex 85.4 15 19.25
      vertex 85.4 16.7634 18.6771
    endloop
  endfacet
  facet normal 0 1 -0
    outer loop
      vertex 90.4 12.1468 15.3229
      vertex 85.4 12.1468 17.1771
      vertex 90.4 12.1468 17.1771
    endloop
  endfacet
  facet normal 0 1 0
    outer loop
      vertex 85.4 12.1468 17.1771
      vertex 90.4 12.1468 15.3229
      vertex 85.4 12.1468 15.3229
    endloop
  endfacet
  facet normal 0 -0.809017 0.587785
    outer loop
      vertex 85.4 16.7634 13.8229
      vertex 90.4 17.8532 15.3229
      vertex 85.4 17.8532 15.3229
    endloop
  endfacet
  facet normal 0 -0.809017 0.587785
    outer loop
      vertex 90.4 17.8532 15.3229
      vertex 85.4 16.7634 13.8229
      vertex 90.4 16.7634 13.8229
    endloop
  endfacet
  facet normal 0 -0.809017 -0.587785
    outer loop
      vertex 85.4 17.8532 17.1771
      vertex 90.4 16.7634 18.6771
      vertex 85.4 16.7634 18.6771
    endloop
  endfacet
  facet normal 0 -0.809017 -0.587785
    outer loop
      vertex 90.4 16.7634 18.6771
      vertex 85.4 17.8532 17.1771
      vertex 90.4 17.8532 17.1771
    endloop
  endfacet
  facet normal 0 -1 0
    outer loop
      vertex 85.4 17.8532 15.3229
      vertex 90.4 17.8532 17.1771
      vertex 85.4 17.8532 17.1771
    endloop
  endfacet
  facet normal 0 -1 -0
    outer loop
      vertex 90.4 17.8532 17.1771
      vertex 85.4 17.8532 15.3229
      vertex 90.4 17.8532 15.3229
    endloop
  endfacet
  facet normal -0 0.309017 0.951057
    outer loop
      vertex 85.4 15 13.25
      vertex 90.4 13.2366 13.8229
      vertex 90.4 15 13.25
    endloop
  endfacet
  facet normal 0 0.309017 0.951057
    outer loop
      vertex 90.4 13.2366 13.8229
      vertex 85.4 15 13.25
      vertex 85.4 13.2366 13.8229
    endloop
  endfacet
  facet normal 0 0.809017 0.587785
    outer loop
      vertex 90.4 13.2366 13.8229
      vertex 85.4 12.1468 15.3229
      vertex 90.4 12.1468 15.3229
    endloop
  endfacet
  facet normal 0 0.809017 0.587785
    outer loop
      vertex 85.4 12.1468 15.3229
      vertex 90.4 13.2366 13.8229
      vertex 85.4 13.2366 13.8229
    endloop
  endfacet
  facet normal 0 0.809017 -0.587785
    outer loop
      vertex 90.4 12.1468 17.1771
      vertex 85.4 13.2366 18.6771
      vertex 90.4 13.2366 18.6771
    endloop
  endfacet
  facet normal 0 0.809017 -0.587785
    outer loop
      vertex 85.4 13.2366 18.6771
      vertex 90.4 12.1468 17.1771
      vertex 85.4 12.1468 17.1771
    endloop
  endfacet
  facet normal 0 0.309017 -0.951057
    outer loop
      vertex 85.4 13.2366 18.6771
      vertex 90.4 15 19.25
      vertex 90.4 13.2366 18.6771
    endloop
  endfacet
  facet normal 0 0.309017 -0.951057
    outer loop
      vertex 90.4 15 19.25
      vertex 85.4 13.2366 18.6771
      vertex 85.4 15 19.25
    endloop
  endfacet
  facet normal 0 -0.309017 0.951057
    outer loop
      vertex 85.4 16.7634 36.3229
      vertex 90.4 15 35.75
      vertex 90.4 16.7634 36.3229
    endloop
  endfacet
  facet normal 0 -0.309017 0.951057
    outer loop
      vertex 90.4 15 35.75
      vertex 85.4 16.7634 36.3229
      vertex 85.4 15 35.75
    endloop
  endfacet
  facet normal 0 -0.309017 -0.951057
    outer loop
      vertex 85.4 15 41.75
      vertex 90.4 16.7634 41.1771
      vertex 90.4 15 41.75
    endloop
  endfacet
  facet normal -0 -0.309017 -0.951057
    outer loop
      vertex 90.4 16.7634 41.1771
      vertex 85.4 15 41.75
      vertex 85.4 16.7634 41.1771
    endloop
  endfacet
  facet normal 0 -0.809017 0.587785
    outer loop
      vertex 85.4 16.7634 36.3229
      vertex 90.4 17.8532 37.8229
      vertex 85.4 17.8532 37.8229
    endloop
  endfacet
  facet normal 0 -0.809017 0.587785
    outer loop
      vertex 90.4 17.8532 37.8229
      vertex 85.4 16.7634 36.3229
      vertex 90.4 16.7634 36.3229
    endloop
  endfacet
  facet normal 0 -0.809017 -0.587785
    outer loop
      vertex 85.4 17.8532 39.6771
      vertex 90.4 16.7634 41.1771
      vertex 85.4 16.7634 41.1771
    endloop
  endfacet
  facet normal 0 -0.809017 -0.587785
    outer loop
      vertex 90.4 16.7634 41.1771
      vertex 85.4 17.8532 39.6771
      vertex 90.4 17.8532 39.6771
    endloop
  endfacet
  facet normal 0 0.309017 -0.951057
    outer loop
      vertex 85.4 13.2366 41.1771
      vertex 90.4 15 41.75
      vertex 90.4 13.2366 41.1771
    endloop
  endfacet
  facet normal 0 0.309017 -0.951057
    outer loop
      vertex 90.4 15 41.75
      vertex 85.4 13.2366 41.1771
      vertex 85.4 15 41.75
    endloop
  endfacet
  facet normal 0 -1 0
    outer loop
      vertex 85.4 17.8532 37.8229
      vertex 90.4 17.8532 39.6771
      vertex 85.4 17.8532 39.6771
    endloop
  endfacet
  facet normal 0 -1 -0
    outer loop
      vertex 90.4 17.8532 39.6771
      vertex 85.4 17.8532 37.8229
      vertex 90.4 17.8532 37.8229
    endloop
  endfacet
  facet normal 0 1 -0
    outer loop
      vertex 90.4 12.1468 37.8229
      vertex 85.4 12.1468 39.6771
      vertex 90.4 12.1468 39.6771
    endloop
  endfacet
  facet normal 0 1 0
    outer loop
      vertex 85.4 12.1468 39.6771
      vertex 90.4 12.1468 37.8229
      vertex 85.4 12.1468 37.8229
    endloop
  endfacet
  facet normal 0 0.809017 0.587785
    outer loop
      vertex 90.4 13.2366 36.3229
      vertex 85.4 12.1468 37.8229
      vertex 90.4 12.1468 37.8229
    endloop
  endfacet
  facet normal 0 0.809017 0.587785
    outer loop
      vertex 85.4 12.1468 37.8229
      vertex 90.4 13.2366 36.3229
      vertex 85.4 13.2366 36.3229
    endloop
  endfacet
  facet normal 0 0.809017 -0.587785
    outer loop
      vertex 90.4 12.1468 39.6771
      vertex 85.4 13.2366 41.1771
      vertex 90.4 13.2366 41.1771
    endloop
  endfacet
  facet normal 0 0.809017 -0.587785
    outer loop
      vertex 85.4 13.2366 41.1771
      vertex 90.4 12.1468 39.6771
      vertex 85.4 12.1468 39.6771
    endloop
  endfacet
  facet normal -0 0.309017 0.951057
    outer loop
      vertex 85.4 15 35.75
      vertex 90.4 13.2366 36.3229
      vertex 90.4 15 35.75
    endloop
  endfacet
  facet normal 0 0.309017 0.951057
    outer loop
      vertex 90.4 13.2366 36.3229
      vertex 85.4 15 35.75
      vertex 85.4 13.2366 36.3229
    endloop
  endfacet
  facet normal 0 0 -1
    outer loop
      vertex 85.4 17.25 29.3
      vertex 88.4 43.35 29.3
      vertex 88.4 17.25 29.3
    endloop
  endfacet
  facet normal -0 0 -1
    outer loop
      vertex 88.4 43.35 29.3
      vertex 85.4 17.25 29.3
      vertex 85.4 43.35 29.3
    endloop
  endfacet
  facet normal -1 0 0
    outer loop
      vertex 88.4 17.25 27.2
      vertex 88.4 43.35 29.3
      vertex 88.4 43.35 27.2
    endloop
  endfacet
  facet normal -1 -0 0
    outer loop
      vertex 88.4 43.35 29.3
      vertex 88.4 17.25 27.2
      vertex 88.4 17.25 29.3
    endloop
  endfacet
  facet normal 0 -1 0
    outer loop
      vertex 85.4 43.35 27.2
      vertex 88.4 43.35 29.3
      vertex 85.4 43.35 29.3
    endloop
  endfacet
  facet normal 0 -1 -0
    outer loop
      vertex 88.4 43.35 29.3
      vertex 85.4 43.35 27.2
      vertex 88.4 43.35 27.2
    endloop
  endfacet
  facet normal -0 0 1
    outer loop
      vertex 85.4 43.35 27.2
      vertex 88.4 17.25 27.2
      vertex 88.4 43.35 27.2
    endloop
  endfacet
  facet normal 0 0 1
    outer loop
      vertex 88.4 17.25 27.2
      vertex 85.4 43.35 27.2
      vertex 85.4 17.25 27.2
    endloop
  endfacet
  facet normal 0 1 -0
    outer loop
      vertex 88.4 17.25 27.2
      vertex 85.4 17.25 29.3
      vertex 88.4 17.25 29.3
    endloop
  endfacet
  facet normal 0 1 0
    outer loop
      vertex 85.4 17.25 29.3
      vertex 88.4 17.25 27.2
      vertex 85.4 17.25 27.2
    endloop
  endfacet
  facet normal 0 -1 0
    outer loop
      vertex 0 46.16 25
      vertex 5 46.16 31.5
      vertex 0 46.16 31.5
    endloop
  endfacet
  facet normal 0 -1 -0
    outer loop
      vertex 5 46.16 31.5
      vertex 0 46.16 25
      vertex 5 46.16 25
    endloop
  endfacet
  facet normal 0 0 -1
    outer loop
      vertex 0 14.64 31.5
      vertex 5 46.16 31.5
      vertex 5 14.64 31.5
    endloop
  endfacet
  facet normal -0 0 -1
    outer loop
      vertex 5 46.16 31.5
      vertex 0 14.64 31.5
      vertex 0 46.16 31.5
    endloop
  endfacet
  facet normal 0 1 -0
    outer loop
      vertex 5 14.64 25
      vertex 0 14.64 31.5
      vertex 5 14.64 31.5
    endloop
  endfacet
  facet normal 0 1 0
    outer loop
      vertex 0 14.64 31.5
      vertex 5 14.64 25
      vertex 0 14.64 25
    endloop
  endfacet
  facet normal -0 0 1
    outer loop
      vertex 0 46.16 25
      vertex 5 14.64 25
      vertex 5 46.16 25
    endloop
  endfacet
  facet normal 0 0 1
    outer loop
      vertex 5 14.64 25
      vertex 0 46.16 25
      vertex 0 14.64 25
    endloop
  endfacet
  facet normal 0.382684 -0.923879 0
    outer loop
      vertex 3.23223 57.1678 46
      vertex 5 57.9 50
      vertex 3.23223 57.1678 50
    endloop
  endfacet
  facet normal 0.382684 -0.923879 0
    outer loop
      vertex 5 57.9 50
      vertex 3.23223 57.1678 46
      vertex 5 57.9 46
    endloop
  endfacet
  facet normal -0.382683 0.92388 0
    outer loop
      vertex 87.1678 3.23223 46
      vertex 85.4 2.5 50
      vertex 87.1678 3.23223 50
    endloop
  endfacet
  facet normal -0.382683 0.92388 0
    outer loop
      vertex 85.4 2.5 50
      vertex 87.1678 3.23223 46
      vertex 85.4 2.5 46
    endloop
  endfacet
  facet normal -0.382684 -0.923879 0
    outer loop
      vertex 85.4 57.9 46
      vertex 87.1678 57.1678 50
      vertex 85.4 57.9 50
    endloop
  endfacet
  facet normal -0.382684 -0.923879 -0
    outer loop
      vertex 87.1678 57.1678 50
      vertex 85.4 57.9 46
      vertex 87.1678 57.1678 46
    endloop
  endfacet
  facet normal 0 -1 0
    outer loop
      vertex 5 57.9 46
      vertex 85.4 57.9 50
      vertex 5 57.9 50
    endloop
  endfacet
  facet normal 0 -1 -0
    outer loop
      vertex 85.4 57.9 50
      vertex 5 57.9 46
      vertex 85.4 57.9 46
    endloop
  endfacet
  facet normal -0.92388 0.382682 0
    outer loop
      vertex 87.1678 3.23223 46
      vertex 87.9 5 50
      vertex 87.9 5 46
    endloop
  endfacet
  facet normal -0.92388 0.382682 0
    outer loop
      vertex 87.9 5 50
      vertex 87.1678 3.23223 46
      vertex 87.1678 3.23223 50
    endloop
  endfacet
  facet normal -0.92388 -0.382683 0
    outer loop
      vertex 87.9 55.4 46
      vertex 87.1678 57.1678 50
      vertex 87.1678 57.1678 46
    endloop
  endfacet
  facet normal -0.92388 -0.382683 0
    outer loop
      vertex 87.1678 57.1678 50
      vertex 87.9 55.4 46
      vertex 87.9 55.4 50
    endloop
  endfacet
  facet normal 0 1 -0
    outer loop
      vertex 85.4 2.5 46
      vertex 5 2.5 50
      vertex 85.4 2.5 50
    endloop
  endfacet
  facet normal 0 1 0
    outer loop
      vertex 5 2.5 50
      vertex 85.4 2.5 46
      vertex 5 2.5 46
    endloop
  endfacet
  facet normal 0.92388 0.382683 0
    outer loop
      vertex 3.23223 3.23223 50
      vertex 2.5 5 46
      vertex 2.5 5 50
    endloop
  endfacet
  facet normal 0.92388 0.382683 0
    outer loop
      vertex 2.5 5 46
      vertex 3.23223 3.23223 50
      vertex 3.23223 3.23223 46
    endloop
  endfacet
  facet normal -0 0 1
    outer loop
      vertex 5 57.9 46
      vertex 85.4 55.4 46
      vertex 85.4 57.9 46
    endloop
  endfacet
  facet normal 0 0 1
    outer loop
      vertex 5 57.9 46
      vertex 5 55.4 46
      vertex 85.4 55.4 46
    endloop
  endfacet
  facet normal -0 0 1
    outer loop
      vertex 3.23223 57.1678 46
      vertex 5 55.4 46
      vertex 5 57.9 46
    endloop
  endfacet
  facet normal 0 0 1
    outer loop
      vertex 5 55.4 46
      vertex 2.5 55.4 46
      vertex 5 5 46
    endloop
  endfacet
  facet normal 0 0 1
    outer loop
      vertex 5 55.4 46
      vertex 3.23223 57.1678 46
      vertex 2.5 55.4 46
    endloop
  endfacet
  facet normal 0 0 1
    outer loop
      vertex 2.5 5 46
      vertex 5 5 46
      vertex 2.5 55.4 46
    endloop
  endfacet
  facet normal 0 -0 1
    outer loop
      vertex 3.23223 3.23223 46
      vertex 5 5 46
      vertex 2.5 5 46
    endloop
  endfacet
  facet normal 0 0 1
    outer loop
      vertex 5 5 46
      vertex 3.23223 3.23223 46
      vertex 5 2.5 46
    endloop
  endfacet
  facet normal 0 0 1
    outer loop
      vertex 85.4 55.4 46
      vertex 87.9 55.4 46
      vertex 87.1678 57.1678 46
    endloop
  endfacet
  facet normal 0 0 1
    outer loop
      vertex 87.9 55.4 46
      vertex 85.4 55.4 46
      vertex 87.9 5 46
    endloop
  endfacet
  facet normal 0 0 1
    outer loop
      vertex 85.4 55.4 46
      vertex 87.1678 57.1678 46
      vertex 85.4 57.9 46
    endloop
  endfacet
  facet normal 0 0 1
    outer loop
      vertex 85.4 5 46
      vertex 87.9 5 46
      vertex 85.4 55.4 46
    endloop
  endfacet
  facet normal 0 0 1
    outer loop
      vertex 87.9 5 46
      vertex 85.4 5 46
      vertex 87.1678 3.23223 46
    endloop
  endfacet
  facet normal 0 0 1
    outer loop
      vertex 85.4 5 46
      vertex 85.4 2.5 46
      vertex 87.1678 3.23223 46
    endloop
  endfacet
  facet normal -0 0 1
    outer loop
      vertex 5 5 46
      vertex 85.4 2.5 46
      vertex 85.4 5 46
    endloop
  endfacet
  facet normal 0 0 1
    outer loop
      vertex 85.4 2.5 46
      vertex 5 5 46
      vertex 5 2.5 46
    endloop
  endfacet
  facet normal 1 -0 0
    outer loop
      vertex 2.5 5 50
      vertex 2.5 55.4 46
      vertex 2.5 55.4 50
    endloop
  endfacet
  facet normal 1 0 0
    outer loop
      vertex 2.5 55.4 46
      vertex 2.5 5 50
      vertex 2.5 5 46
    endloop
  endfacet
  facet normal 0.92388 -0.382683 0
    outer loop
      vertex 2.5 55.4 50
      vertex 3.23223 57.1678 46
      vertex 3.23223 57.1678 50
    endloop
  endfacet
  facet normal 0.92388 -0.382683 0
    outer loop
      vertex 3.23223 57.1678 46
      vertex 2.5 55.4 50
      vertex 2.5 55.4 46
    endloop
  endfacet
  facet normal -1 0 0
    outer loop
      vertex 87.9 5 46
      vertex 87.9 55.4 50
      vertex 87.9 55.4 46
    endloop
  endfacet
  facet normal -1 -0 0
    outer loop
      vertex 87.9 55.4 50
      vertex 87.9 5 46
      vertex 87.9 5 50
    endloop
  endfacet
  facet normal 0.382683 0.92388 -0
    outer loop
      vertex 5 2.5 46
      vertex 3.23223 3.23223 50
      vertex 5 2.5 50
    endloop
  endfacet
  facet normal 0.382683 0.92388 0
    outer loop
      vertex 3.23223 3.23223 50
      vertex 5 2.5 46
      vertex 3.23223 3.23223 46
    endloop
  endfacet
endsolid OpenSCAD_Model
