solid OpenSCAD_Model
  facet normal 0 0 -1
    outer loop
      vertex 82.9 0.2 0
      vertex 85.2 2.5 0
      vertex 84.5263 0.873654 0
    endloop
  endfacet
  facet normal -0 0 -1
    outer loop
      vertex 85.2 2.5 0
      vertex 82.9 0.2 0
      vertex 85.2 52.9 0
    endloop
  endfacet
  facet normal 0 0 -1
    outer loop
      vertex 82.9 55.2 0
      vertex 85.2 52.9 0
      vertex 82.9 0.2 0
    endloop
  endfacet
  facet normal 0 0 -1
    outer loop
      vertex 85.2 52.9 0
      vertex 82.9 55.2 0
      vertex 84.5263 54.5263 0
    endloop
  endfacet
  facet normal 0 0 -1
    outer loop
      vertex 82.9 0.2 0
      vertex 2.5 55.2 0
      vertex 82.9 55.2 0
    endloop
  endfacet
  facet normal 0 0 -1
    outer loop
      vertex 2.5 0.2 0
      vertex 2.5 55.2 0
      vertex 82.9 0.2 0
    endloop
  endfacet
  facet normal 0 0 -1
    outer loop
      vertex 0.2 2.5 0
      vertex 2.5 0.2 0
      vertex 0.873654 0.873654 0
    endloop
  endfacet
  facet normal 0 0 -1
    outer loop
      vertex 2.5 0.2 0
      vertex 0.2 2.5 0
      vertex 2.5 55.2 0
    endloop
  endfacet
  facet normal 0 0 -1
    outer loop
      vertex 0.2 52.9 0
      vertex 2.5 55.2 0
      vertex 0.2 2.5 0
    endloop
  endfacet
  facet normal 0 0 -1
    outer loop
      vertex 2.5 55.2 0
      vertex 0.2 52.9 0
      vertex 0.873654 54.5263 0
    endloop
  endfacet
  facet normal -1 0 0
    outer loop
      vertex 0.2 2.5 0
      vertex 0.2 52.9 5
      vertex 0.2 52.9 0
    endloop
  endfacet
  facet normal -1 -0 0
    outer loop
      vertex 0.2 52.9 5
      vertex 0.2 2.5 0
      vertex 0.2 2.5 5
    endloop
  endfacet
  facet normal 0.92388 0.382683 0
    outer loop
      vertex 85.2 52.9 5
      vertex 84.5263 54.5263 0
      vertex 84.5263 54.5263 5
    endloop
  endfacet
  facet normal 0.92388 0.382683 0
    outer loop
      vertex 84.5263 54.5263 0
      vertex 85.2 52.9 5
      vertex 85.2 52.9 0
    endloop
  endfacet
  facet normal 0.92388 -0.382683 0
    outer loop
      vertex 84.5263 0.873654 5
      vertex 85.2 2.5 0
      vertex 85.2 2.5 5
    endloop
  endfacet
  facet normal 0.92388 -0.382683 0
    outer loop
      vertex 85.2 2.5 0
      vertex 84.5263 0.873654 5
      vertex 84.5263 0.873654 0
    endloop
  endfacet
  facet normal -0.382684 -0.923879 0
    outer loop
      vertex 0.873654 0.873654 0
      vertex 2.5 0.2 5
      vertex 0.873654 0.873654 5
    endloop
  endfacet
  facet normal -0.382684 -0.923879 -0
    outer loop
      vertex 2.5 0.2 5
      vertex 0.873654 0.873654 0
      vertex 2.5 0.2 0
    endloop
  endfacet
  facet normal 0 0 1
    outer loop
      vertex 82.9 55.2 5
      vertex 85.2 52.9 5
      vertex 84.5263 54.5263 5
    endloop
  endfacet
  facet normal 0 0 1
    outer loop
      vertex 85.2 52.9 5
      vertex 52.7 27.7 5
      vertex 85.2 2.5 5
    endloop
  endfacet
  facet normal 0 0 1
    outer loop
      vertex 51.8355 31.7674 5
      vertex 85.2 52.9 5
      vertex 82.9 55.2 5
    endloop
  endfacet
  facet normal -0 0 1
    outer loop
      vertex 52.4815 25.6209 5
      vertex 85.2 2.5 5
      vertex 52.7 27.7 5
    endloop
  endfacet
  facet normal -0 0 1
    outer loop
      vertex 51.8355 23.6326 5
      vertex 85.2 2.5 5
      vertex 52.4815 25.6209 5
    endloop
  endfacet
  facet normal 0 0 1
    outer loop
      vertex 85.2 52.9 5
      vertex 52.4815 29.7791 5
      vertex 52.7 27.7 5
    endloop
  endfacet
  facet normal 0 0 1
    outer loop
      vertex 85.2 52.9 5
      vertex 51.8355 31.7674 5
      vertex 52.4815 29.7791 5
    endloop
  endfacet
  facet normal 0 0 1
    outer loop
      vertex 82.9 55.2 5
      vertex 50.7902 33.5779 5
      vertex 51.8355 31.7674 5
    endloop
  endfacet
  facet normal 0 0 1
    outer loop
      vertex 82.9 55.2 5
      vertex 49.3913 35.1314 5
      vertex 50.7902 33.5779 5
    endloop
  endfacet
  facet normal 0 0 1
    outer loop
      vertex 82.9 55.2 5
      vertex 47.7 36.3603 5
      vertex 49.3913 35.1314 5
    endloop
  endfacet
  facet normal 0 0 1
    outer loop
      vertex 82.9 55.2 5
      vertex 45.7902 37.2106 5
      vertex 47.7 36.3603 5
    endloop
  endfacet
  facet normal 0 0 1
    outer loop
      vertex 82.9 55.2 5
      vertex 43.7453 37.6452 5
      vertex 45.7902 37.2106 5
    endloop
  endfacet
  facet normal 0 0 1
    outer loop
      vertex 82.9 55.2 5
      vertex 41.6547 37.6452 5
      vertex 43.7453 37.6452 5
    endloop
  endfacet
  facet normal -0 0 1
    outer loop
      vertex 2.5 55.2 5
      vertex 41.6547 37.6452 5
      vertex 82.9 55.2 5
    endloop
  endfacet
  facet normal 0 0 1
    outer loop
      vertex 33.5645 31.7674 5
      vertex 0.2 52.9 5
      vertex 32.9185 29.7791 5
    endloop
  endfacet
  facet normal -0 0 1
    outer loop
      vertex 0.2 52.9 5
      vertex 33.5645 31.7674 5
      vertex 2.5 55.2 5
    endloop
  endfacet
  facet normal 0 0 1
    outer loop
      vertex 34.6098 33.5779 5
      vertex 2.5 55.2 5
      vertex 33.5645 31.7674 5
    endloop
  endfacet
  facet normal 0 0 1
    outer loop
      vertex 36.0087 35.1314 5
      vertex 2.5 55.2 5
      vertex 34.6098 33.5779 5
    endloop
  endfacet
  facet normal 0 0 1
    outer loop
      vertex 37.7 36.3603 5
      vertex 2.5 55.2 5
      vertex 36.0087 35.1314 5
    endloop
  endfacet
  facet normal 0 0 1
    outer loop
      vertex 39.6098 37.2106 5
      vertex 2.5 55.2 5
      vertex 37.7 36.3603 5
    endloop
  endfacet
  facet normal 0 0 1
    outer loop
      vertex 41.6547 37.6452 5
      vertex 2.5 55.2 5
      vertex 39.6098 37.2106 5
    endloop
  endfacet
  facet normal 0 0 1
    outer loop
      vertex 85.2 2.5 5
      vertex 82.9 0.2 5
      vertex 84.5263 0.873654 5
    endloop
  endfacet
  facet normal 0 0 1
    outer loop
      vertex 85.2 2.5 5
      vertex 51.8355 23.6326 5
      vertex 82.9 0.2 5
    endloop
  endfacet
  facet normal -0 0 1
    outer loop
      vertex 50.7902 21.8221 5
      vertex 82.9 0.2 5
      vertex 51.8355 23.6326 5
    endloop
  endfacet
  facet normal -0 0 1
    outer loop
      vertex 49.3913 20.2686 5
      vertex 82.9 0.2 5
      vertex 50.7902 21.8221 5
    endloop
  endfacet
  facet normal -0 0 1
    outer loop
      vertex 47.7 19.0397 5
      vertex 82.9 0.2 5
      vertex 49.3913 20.2686 5
    endloop
  endfacet
  facet normal -0 0 1
    outer loop
      vertex 45.7902 18.1894 5
      vertex 82.9 0.2 5
      vertex 47.7 19.0397 5
    endloop
  endfacet
  facet normal -0 0 1
    outer loop
      vertex 43.7453 17.7548 5
      vertex 82.9 0.2 5
      vertex 45.7902 18.1894 5
    endloop
  endfacet
  facet normal -0 0 1
    outer loop
      vertex 41.6547 17.7548 5
      vertex 82.9 0.2 5
      vertex 43.7453 17.7548 5
    endloop
  endfacet
  facet normal 0 0 1
    outer loop
      vertex 2.5 0.2 5
      vertex 41.6547 17.7548 5
      vertex 39.6098 18.1894 5
    endloop
  endfacet
  facet normal 0 0 1
    outer loop
      vertex 32.9185 29.7791 5
      vertex 0.2 52.9 5
      vertex 32.7 27.7 5
    endloop
  endfacet
  facet normal 0 0 1
    outer loop
      vertex 0.2 2.5 5
      vertex 32.7 27.7 5
      vertex 0.2 52.9 5
    endloop
  endfacet
  facet normal 0 0 1
    outer loop
      vertex 32.7 27.7 5
      vertex 0.2 2.5 5
      vertex 32.9185 25.6209 5
    endloop
  endfacet
  facet normal 0 0 1
    outer loop
      vertex 32.9185 25.6209 5
      vertex 0.2 2.5 5
      vertex 33.5645 23.6326 5
    endloop
  endfacet
  facet normal 0 0 1
    outer loop
      vertex 41.6547 17.7548 5
      vertex 2.5 0.2 5
      vertex 82.9 0.2 5
    endloop
  endfacet
  facet normal 0 0 1
    outer loop
      vertex 37.7 19.0397 5
      vertex 2.5 0.2 5
      vertex 39.6098 18.1894 5
    endloop
  endfacet
  facet normal 0 0 1
    outer loop
      vertex 36.0087 20.2686 5
      vertex 2.5 0.2 5
      vertex 37.7 19.0397 5
    endloop
  endfacet
  facet normal 0 -0 1
    outer loop
      vertex 2.5 0.2 5
      vertex 33.5645 23.6326 5
      vertex 0.2 2.5 5
    endloop
  endfacet
  facet normal 0 0 1
    outer loop
      vertex 0.2 52.9 5
      vertex 2.5 55.2 5
      vertex 0.873654 54.5263 5
    endloop
  endfacet
  facet normal 0 0 1
    outer loop
      vertex 33.5645 23.6326 5
      vertex 2.5 0.2 5
      vertex 34.6098 21.8221 5
    endloop
  endfacet
  facet normal 0 0 1
    outer loop
      vertex 34.6098 21.8221 5
      vertex 2.5 0.2 5
      vertex 36.0087 20.2686 5
    endloop
  endfacet
  facet normal 0 0 1
    outer loop
      vertex 2.5 0.2 5
      vertex 0.2 2.5 5
      vertex 0.873654 0.873654 5
    endloop
  endfacet
  facet normal 0 -1 0
    outer loop
      vertex 2.5 0.2 0
      vertex 82.9 0.2 5
      vertex 2.5 0.2 5
    endloop
  endfacet
  facet normal 0 -1 -0
    outer loop
      vertex 82.9 0.2 5
      vertex 2.5 0.2 0
      vertex 82.9 0.2 0
    endloop
  endfacet
  facet normal -0.92388 -0.382683 0
    outer loop
      vertex 0.873654 0.873654 0
      vertex 0.2 2.5 5
      vertex 0.2 2.5 0
    endloop
  endfacet
  facet normal -0.92388 -0.382683 0
    outer loop
      vertex 0.2 2.5 5
      vertex 0.873654 0.873654 0
      vertex 0.873654 0.873654 5
    endloop
  endfacet
  facet normal -0.923879 0.382684 0
    outer loop
      vertex 0.2 52.9 0
      vertex 0.873654 54.5263 5
      vertex 0.873654 54.5263 0
    endloop
  endfacet
  facet normal -0.923879 0.382684 0
    outer loop
      vertex 0.873654 54.5263 5
      vertex 0.2 52.9 0
      vertex 0.2 52.9 5
    endloop
  endfacet
  facet normal -0.382684 0.923879 0
    outer loop
      vertex 2.5 55.2 0
      vertex 0.873654 54.5263 5
      vertex 2.5 55.2 5
    endloop
  endfacet
  facet normal -0.382684 0.923879 0
    outer loop
      vertex 0.873654 54.5263 5
      vertex 2.5 55.2 0
      vertex 0.873654 54.5263 0
    endloop
  endfacet
  facet normal 1 -0 0
    outer loop
      vertex 85.2 2.5 5
      vertex 85.2 52.9 0
      vertex 85.2 52.9 5
    endloop
  endfacet
  facet normal 1 0 0
    outer loop
      vertex 85.2 52.9 0
      vertex 85.2 2.5 5
      vertex 85.2 2.5 0
    endloop
  endfacet
  facet normal 0.382684 -0.923879 0
    outer loop
      vertex 82.9 0.2 0
      vertex 84.5263 0.873654 5
      vertex 82.9 0.2 5
    endloop
  endfacet
  facet normal 0.382684 -0.923879 0
    outer loop
      vertex 84.5263 0.873654 5
      vertex 82.9 0.2 0
      vertex 84.5263 0.873654 0
    endloop
  endfacet
  facet normal 0 1 -0
    outer loop
      vertex 82.9 55.2 0
      vertex 2.5 55.2 5
      vertex 82.9 55.2 5
    endloop
  endfacet
  facet normal 0 1 0
    outer loop
      vertex 2.5 55.2 5
      vertex 82.9 55.2 0
      vertex 2.5 55.2 0
    endloop
  endfacet
  facet normal 0.382685 0.923879 -0
    outer loop
      vertex 84.5263 54.5263 0
      vertex 82.9 55.2 5
      vertex 84.5263 54.5263 5
    endloop
  endfacet
  facet normal 0.382685 0.923879 0
    outer loop
      vertex 82.9 55.2 5
      vertex 84.5263 54.5263 0
      vertex 82.9 55.2 0
    endloop
  endfacet
  facet normal 0.994522 0.104529 0
    outer loop
      vertex 52.7 27.7 24
      vertex 52.4815 29.7791 5
      vertex 52.4815 29.7791 24
    endloop
  endfacet
  facet normal 0.994522 0.104529 0
    outer loop
      vertex 52.4815 29.7791 5
      vertex 52.7 27.7 24
      vertex 52.7 27.7 5
    endloop
  endfacet
  facet normal -0.994522 0.104529 0
    outer loop
      vertex 32.7 27.7 5
      vertex 32.9185 29.7791 24
      vertex 32.9185 29.7791 5
    endloop
  endfacet
  facet normal -0.994522 0.104529 0
    outer loop
      vertex 32.9185 29.7791 24
      vertex 32.7 27.7 5
      vertex 32.7 27.7 24
    endloop
  endfacet
  facet normal 0 1 -0
    outer loop
      vertex 43.7453 37.6452 5
      vertex 41.6547 37.6452 24
      vertex 43.7453 37.6452 24
    endloop
  endfacet
  facet normal 0 1 0
    outer loop
      vertex 41.6547 37.6452 24
      vertex 43.7453 37.6452 5
      vertex 41.6547 37.6452 5
    endloop
  endfacet
  facet normal 0 -1 0
    outer loop
      vertex 41.6547 17.7548 5
      vertex 43.7453 17.7548 24
      vertex 41.6547 17.7548 24
    endloop
  endfacet
  facet normal 0 -1 -0
    outer loop
      vertex 43.7453 17.7548 24
      vertex 41.6547 17.7548 5
      vertex 43.7453 17.7548 5
    endloop
  endfacet
  facet normal 0.743145 0.669131 0
    outer loop
      vertex 50.7902 33.5779 24
      vertex 49.3913 35.1314 5
      vertex 49.3913 35.1314 24
    endloop
  endfacet
  facet normal 0.743145 0.669131 0
    outer loop
      vertex 49.3913 35.1314 5
      vertex 50.7902 33.5779 24
      vertex 50.7902 33.5779 5
    endloop
  endfacet
  facet normal -0.743145 0.669131 0
    outer loop
      vertex 34.6098 33.5779 5
      vertex 36.0087 35.1314 24
      vertex 36.0087 35.1314 5
    endloop
  endfacet
  facet normal -0.743145 0.669131 0
    outer loop
      vertex 36.0087 35.1314 24
      vertex 34.6098 33.5779 5
      vertex 34.6098 33.5779 24
    endloop
  endfacet
  facet normal -0.866025 0.5 0
    outer loop
      vertex 33.5645 31.7674 5
      vertex 34.6098 33.5779 24
      vertex 34.6098 33.5779 5
    endloop
  endfacet
  facet normal -0.866025 0.5 0
    outer loop
      vertex 34.6098 33.5779 24
      vertex 33.5645 31.7674 5
      vertex 33.5645 31.7674 24
    endloop
  endfacet
  facet normal -0.406737 0.913545 0
    outer loop
      vertex 39.6098 37.2106 5
      vertex 37.7 36.3603 24
      vertex 39.6098 37.2106 24
    endloop
  endfacet
  facet normal -0.406737 0.913545 0
    outer loop
      vertex 37.7 36.3603 24
      vertex 39.6098 37.2106 5
      vertex 37.7 36.3603 5
    endloop
  endfacet
  facet normal 0.951056 -0.309017 0
    outer loop
      vertex 51.8355 23.6326 24
      vertex 52.4815 25.6209 5
      vertex 52.4815 25.6209 24
    endloop
  endfacet
  facet normal 0.951056 -0.309017 0
    outer loop
      vertex 52.4815 25.6209 5
      vertex 51.8355 23.6326 24
      vertex 51.8355 23.6326 5
    endloop
  endfacet
  facet normal 0.866025 0.5 0
    outer loop
      vertex 51.8355 31.7674 24
      vertex 50.7902 33.5779 5
      vertex 50.7902 33.5779 24
    endloop
  endfacet
  facet normal 0.866025 0.5 0
    outer loop
      vertex 50.7902 33.5779 5
      vertex 51.8355 31.7674 24
      vertex 51.8355 31.7674 5
    endloop
  endfacet
  facet normal 0.951056 0.309018 0
    outer loop
      vertex 52.4815 29.7791 24
      vertex 51.8355 31.7674 5
      vertex 51.8355 31.7674 24
    endloop
  endfacet
  facet normal 0.951056 0.309018 0
    outer loop
      vertex 51.8355 31.7674 5
      vertex 52.4815 29.7791 24
      vertex 52.4815 29.7791 5
    endloop
  endfacet
  facet normal 0.406736 0.913546 -0
    outer loop
      vertex 47.7 36.3603 5
      vertex 45.7902 37.2106 24
      vertex 47.7 36.3603 24
    endloop
  endfacet
  facet normal 0.406736 0.913546 0
    outer loop
      vertex 45.7902 37.2106 24
      vertex 47.7 36.3603 5
      vertex 45.7902 37.2106 5
    endloop
  endfacet
  facet normal 0.207912 0.978148 -0
    outer loop
      vertex 45.7902 37.2106 5
      vertex 43.7453 37.6452 24
      vertex 45.7902 37.2106 24
    endloop
  endfacet
  facet normal 0.207912 0.978148 0
    outer loop
      vertex 43.7453 37.6452 24
      vertex 45.7902 37.2106 5
      vertex 43.7453 37.6452 5
    endloop
  endfacet
  facet normal 0.587786 0.809017 -0
    outer loop
      vertex 49.3913 35.1314 5
      vertex 47.7 36.3603 24
      vertex 49.3913 35.1314 24
    endloop
  endfacet
  facet normal 0.587786 0.809017 0
    outer loop
      vertex 47.7 36.3603 24
      vertex 49.3913 35.1314 5
      vertex 47.7 36.3603 5
    endloop
  endfacet
  facet normal -0.951057 0.309016 0
    outer loop
      vertex 32.9185 29.7791 5
      vertex 33.5645 31.7674 24
      vertex 33.5645 31.7674 5
    endloop
  endfacet
  facet normal -0.951057 0.309016 0
    outer loop
      vertex 33.5645 31.7674 24
      vertex 32.9185 29.7791 5
      vertex 32.9185 29.7791 24
    endloop
  endfacet
  facet normal 0 0 1
    outer loop
      vertex 52.4815 29.7791 24
      vertex 52.4815 25.6209 24
      vertex 52.7 27.7 24
    endloop
  endfacet
  facet normal 0 0 1
    outer loop
      vertex 51.8355 31.7674 24
      vertex 52.4815 25.6209 24
      vertex 52.4815 29.7791 24
    endloop
  endfacet
  facet normal 0 0 1
    outer loop
      vertex 51.8355 31.7674 24
      vertex 51.8355 23.6326 24
      vertex 52.4815 25.6209 24
    endloop
  endfacet
  facet normal 0 0 1
    outer loop
      vertex 50.7902 33.5779 24
      vertex 51.8355 23.6326 24
      vertex 51.8355 31.7674 24
    endloop
  endfacet
  facet normal 0 0 1
    outer loop
      vertex 50.7902 33.5779 24
      vertex 50.7902 21.8221 24
      vertex 51.8355 23.6326 24
    endloop
  endfacet
  facet normal 0 0 1
    outer loop
      vertex 49.3913 35.1314 24
      vertex 50.7902 21.8221 24
      vertex 50.7902 33.5779 24
    endloop
  endfacet
  facet normal 0 0 1
    outer loop
      vertex 49.3913 35.1314 24
      vertex 49.3913 20.2686 24
      vertex 50.7902 21.8221 24
    endloop
  endfacet
  facet normal 0 0 1
    outer loop
      vertex 47.7 36.3603 24
      vertex 49.3913 20.2686 24
      vertex 49.3913 35.1314 24
    endloop
  endfacet
  facet normal 0 0 1
    outer loop
      vertex 47.7 36.3603 24
      vertex 47.7 19.0397 24
      vertex 49.3913 20.2686 24
    endloop
  endfacet
  facet normal 0 0 1
    outer loop
      vertex 45.7902 37.2106 24
      vertex 47.7 19.0397 24
      vertex 47.7 36.3603 24
    endloop
  endfacet
  facet normal 0 0 1
    outer loop
      vertex 45.7902 37.2106 24
      vertex 45.7902 18.1894 24
      vertex 47.7 19.0397 24
    endloop
  endfacet
  facet normal 0 0 1
    outer loop
      vertex 43.7453 37.6452 24
      vertex 45.7902 18.1894 24
      vertex 45.7902 37.2106 24
    endloop
  endfacet
  facet normal 0 0 1
    outer loop
      vertex 43.7453 37.6452 24
      vertex 43.7453 17.7548 24
      vertex 45.7902 18.1894 24
    endloop
  endfacet
  facet normal -0 0 1
    outer loop
      vertex 41.6547 37.6452 24
      vertex 43.7453 17.7548 24
      vertex 43.7453 37.6452 24
    endloop
  endfacet
  facet normal 0 0 1
    outer loop
      vertex 41.6547 37.6452 24
      vertex 41.6547 17.7548 24
      vertex 43.7453 17.7548 24
    endloop
  endfacet
  facet normal -0 0 1
    outer loop
      vertex 39.6098 37.2106 24
      vertex 41.6547 17.7548 24
      vertex 41.6547 37.6452 24
    endloop
  endfacet
  facet normal 0 0 1
    outer loop
      vertex 39.6098 37.2106 24
      vertex 39.6098 18.1894 24
      vertex 41.6547 17.7548 24
    endloop
  endfacet
  facet normal -0 0 1
    outer loop
      vertex 37.7 36.3603 24
      vertex 39.6098 18.1894 24
      vertex 39.6098 37.2106 24
    endloop
  endfacet
  facet normal 0 0 1
    outer loop
      vertex 37.7 36.3603 24
      vertex 37.7 19.0397 24
      vertex 39.6098 18.1894 24
    endloop
  endfacet
  facet normal -0 0 1
    outer loop
      vertex 36.0087 35.1314 24
      vertex 37.7 19.0397 24
      vertex 37.7 36.3603 24
    endloop
  endfacet
  facet normal 0 0 1
    outer loop
      vertex 36.0087 35.1314 24
      vertex 36.0087 20.2686 24
      vertex 37.7 19.0397 24
    endloop
  endfacet
  facet normal -0 0 1
    outer loop
      vertex 34.6098 33.5779 24
      vertex 36.0087 20.2686 24
      vertex 36.0087 35.1314 24
    endloop
  endfacet
  facet normal 0 0 1
    outer loop
      vertex 34.6098 33.5779 24
      vertex 34.6098 21.8221 24
      vertex 36.0087 20.2686 24
    endloop
  endfacet
  facet normal -0 0 1
    outer loop
      vertex 33.5645 31.7674 24
      vertex 34.6098 21.8221 24
      vertex 34.6098 33.5779 24
    endloop
  endfacet
  facet normal 0 0 1
    outer loop
      vertex 33.5645 31.7674 24
      vertex 33.5645 23.6326 24
      vertex 34.6098 21.8221 24
    endloop
  endfacet
  facet normal -0 0 1
    outer loop
      vertex 32.9185 29.7791 24
      vertex 33.5645 23.6326 24
      vertex 33.5645 31.7674 24
    endloop
  endfacet
  facet normal 0 0 1
    outer loop
      vertex 32.9185 29.7791 24
      vertex 32.9185 25.6209 24
      vertex 33.5645 23.6326 24
    endloop
  endfacet
  facet normal 0 -0 1
    outer loop
      vertex 32.9185 25.6209 24
      vertex 32.9185 29.7791 24
      vertex 32.7 27.7 24
    endloop
  endfacet
  facet normal -0.587785 0.809017 0
    outer loop
      vertex 37.7 36.3603 5
      vertex 36.0087 35.1314 24
      vertex 37.7 36.3603 24
    endloop
  endfacet
  facet normal -0.587785 0.809017 0
    outer loop
      vertex 36.0087 35.1314 24
      vertex 37.7 36.3603 5
      vertex 36.0087 35.1314 5
    endloop
  endfacet
  facet normal -0.207912 0.978148 0
    outer loop
      vertex 41.6547 37.6452 5
      vertex 39.6098 37.2106 24
      vertex 41.6547 37.6452 24
    endloop
  endfacet
  facet normal -0.207912 0.978148 0
    outer loop
      vertex 39.6098 37.2106 24
      vertex 41.6547 37.6452 5
      vertex 39.6098 37.2106 5
    endloop
  endfacet
  facet normal 0.994522 -0.104529 0
    outer loop
      vertex 52.4815 25.6209 24
      vertex 52.7 27.7 5
      vertex 52.7 27.7 24
    endloop
  endfacet
  facet normal 0.994522 -0.104529 0
    outer loop
      vertex 52.7 27.7 5
      vertex 52.4815 25.6209 24
      vertex 52.4815 25.6209 5
    endloop
  endfacet
  facet normal 0.207912 -0.978148 0
    outer loop
      vertex 43.7453 17.7548 5
      vertex 45.7902 18.1894 24
      vertex 43.7453 17.7548 24
    endloop
  endfacet
  facet normal 0.207912 -0.978148 0
    outer loop
      vertex 45.7902 18.1894 24
      vertex 43.7453 17.7548 5
      vertex 45.7902 18.1894 5
    endloop
  endfacet
  facet normal 0.866025 -0.5 0
    outer loop
      vertex 50.7902 21.8221 24
      vertex 51.8355 23.6326 5
      vertex 51.8355 23.6326 24
    endloop
  endfacet
  facet normal 0.866025 -0.5 0
    outer loop
      vertex 51.8355 23.6326 5
      vertex 50.7902 21.8221 24
      vertex 50.7902 21.8221 5
    endloop
  endfacet
  facet normal -0.587785 -0.809017 0
    outer loop
      vertex 36.0087 20.2686 5
      vertex 37.7 19.0397 24
      vertex 36.0087 20.2686 24
    endloop
  endfacet
  facet normal -0.587785 -0.809017 -0
    outer loop
      vertex 37.7 19.0397 24
      vertex 36.0087 20.2686 5
      vertex 37.7 19.0397 5
    endloop
  endfacet
  facet normal -0.866025 -0.5 0
    outer loop
      vertex 34.6098 21.8221 5
      vertex 33.5645 23.6326 24
      vertex 33.5645 23.6326 5
    endloop
  endfacet
  facet normal -0.866025 -0.5 0
    outer loop
      vertex 33.5645 23.6326 24
      vertex 34.6098 21.8221 5
      vertex 34.6098 21.8221 24
    endloop
  endfacet
  facet normal -0.743145 -0.669131 0
    outer loop
      vertex 36.0087 20.2686 5
      vertex 34.6098 21.8221 24
      vertex 34.6098 21.8221 5
    endloop
  endfacet
  facet normal -0.743145 -0.669131 0
    outer loop
      vertex 34.6098 21.8221 24
      vertex 36.0087 20.2686 5
      vertex 36.0087 20.2686 24
    endloop
  endfacet
  facet normal 0.587786 -0.809017 0
    outer loop
      vertex 47.7 19.0397 5
      vertex 49.3913 20.2686 24
      vertex 47.7 19.0397 24
    endloop
  endfacet
  facet normal 0.587786 -0.809017 0
    outer loop
      vertex 49.3913 20.2686 24
      vertex 47.7 19.0397 5
      vertex 49.3913 20.2686 5
    endloop
  endfacet
  facet normal 0.406736 -0.913546 0
    outer loop
      vertex 45.7902 18.1894 5
      vertex 47.7 19.0397 24
      vertex 45.7902 18.1894 24
    endloop
  endfacet
  facet normal 0.406736 -0.913546 0
    outer loop
      vertex 47.7 19.0397 24
      vertex 45.7902 18.1894 5
      vertex 47.7 19.0397 5
    endloop
  endfacet
  facet normal -0.207912 -0.978148 0
    outer loop
      vertex 39.6098 18.1894 5
      vertex 41.6547 17.7548 24
      vertex 39.6098 18.1894 24
    endloop
  endfacet
  facet normal -0.207912 -0.978148 -0
    outer loop
      vertex 41.6547 17.7548 24
      vertex 39.6098 18.1894 5
      vertex 41.6547 17.7548 5
    endloop
  endfacet
  facet normal -0.951057 -0.309016 0
    outer loop
      vertex 33.5645 23.6326 5
      vertex 32.9185 25.6209 24
      vertex 32.9185 25.6209 5
    endloop
  endfacet
  facet normal -0.951057 -0.309016 0
    outer loop
      vertex 32.9185 25.6209 24
      vertex 33.5645 23.6326 5
      vertex 33.5645 23.6326 24
    endloop
  endfacet
  facet normal -0.994522 -0.104529 0
    outer loop
      vertex 32.9185 25.6209 5
      vertex 32.7 27.7 24
      vertex 32.7 27.7 5
    endloop
  endfacet
  facet normal -0.994522 -0.104529 0
    outer loop
      vertex 32.7 27.7 24
      vertex 32.9185 25.6209 5
      vertex 32.9185 25.6209 24
    endloop
  endfacet
  facet normal 0.743145 -0.669131 0
    outer loop
      vertex 49.3913 20.2686 24
      vertex 50.7902 21.8221 5
      vertex 50.7902 21.8221 24
    endloop
  endfacet
  facet normal 0.743145 -0.669131 0
    outer loop
      vertex 50.7902 21.8221 5
      vertex 49.3913 20.2686 24
      vertex 49.3913 20.2686 5
    endloop
  endfacet
  facet normal -0.406737 -0.913545 0
    outer loop
      vertex 37.7 19.0397 5
      vertex 39.6098 18.1894 24
      vertex 37.7 19.0397 24
    endloop
  endfacet
  facet normal -0.406737 -0.913545 -0
    outer loop
      vertex 39.6098 18.1894 24
      vertex 37.7 19.0397 5
      vertex 39.6098 18.1894 5
    endloop
  endfacet
endsolid OpenSCAD_Model
