M48
;DRILL file {KiCad 4.0.6-e0-6349~52~ubuntu17.04.1} date Wed Jul  5 16:15:56 2017
;FORMAT={-:-/ absolute / metric / decimal}
FMAT,2
METRIC,TZ
T1C0.200
T2C0.762
T3C1.000
%
G90
G05
M71
T1
X123.Y-83.
X123.Y-84.
X123.Y-85.
X123.Y-86.
X123.Y-87.
X123.Y-88.
X123.Y-89.
X123.Y-90.
X123.Y-91.
X123.Y-92.
X123.Y-93.
X123.Y-94.
X123.Y-95.
X123.Y-96.
X123.Y-97.
X123.Y-98.
X123.Y-99.
X124.Y-83.
X124.Y-95.
X124.Y-99.
X125.Y-83.
X125.Y-95.
X125.Y-99.
X126.Y-83.
X126.Y-95.
X126.Y-99.
X127.Y-83.
X127.Y-84.
X127.Y-85.
X127.Y-86.
X127.Y-87.
X127.Y-88.
X127.Y-89.
X127.Y-90.
X127.Y-91.
X127.Y-92.
X127.Y-93.
X127.Y-94.
X127.Y-95.
X127.Y-96.
X127.Y-97.
X127.Y-98.
X127.Y-99.
T2
X125.Y-85.
X130.Y-85.
T3
X122.Y-92.5
X125.Y-92.5
X130.Y-92.5
T0
M30
