G04 #@! TF.FileFunction,Legend,Top*
%FSLAX46Y46*%
G04 Gerber Fmt 4.6, Leading zero omitted, Abs format (unit mm)*
G04 Created by KiCad (PCBNEW 4.0.6-e0-6349~52~ubuntu17.04.1) date Wed Jul  5 16:15:38 2017*
%MOMM*%
%LPD*%
G01*
G04 APERTURE LIST*
%ADD10C,0.100000*%
%ADD11C,0.120000*%
G04 APERTURE END LIST*
D10*
D11*
X131390000Y-93780000D02*
X128610000Y-93780000D01*
X128610000Y-93780000D02*
X128610000Y-96520000D01*
X128610000Y-96520000D02*
X131390000Y-96520000D01*
X131390000Y-96520000D02*
X131390000Y-93780000D01*
X131390000Y-93780000D02*
X128730000Y-93780000D01*
X128730000Y-93780000D02*
X128730000Y-96520000D01*
X128730000Y-96520000D02*
X131390000Y-96520000D01*
X131390000Y-96520000D02*
X131390000Y-93780000D01*
X130440000Y-96520000D02*
X129560000Y-96520000D01*
X129560000Y-96520000D02*
X129560000Y-102520000D01*
X129560000Y-102520000D02*
X130440000Y-102520000D01*
X130440000Y-102520000D02*
X130440000Y-96520000D01*
X130440000Y-93470000D02*
X130440000Y-93780000D01*
X129560000Y-93470000D02*
X129560000Y-93780000D01*
X130320000Y-96520000D02*
X130320000Y-102520000D01*
X130200000Y-96520000D02*
X130200000Y-102520000D01*
X130080000Y-96520000D02*
X130080000Y-102520000D01*
X129960000Y-96520000D02*
X129960000Y-102520000D01*
X129840000Y-96520000D02*
X129840000Y-102520000D01*
X129720000Y-96520000D02*
X129720000Y-102520000D01*
X129600000Y-96520000D02*
X129600000Y-102520000D01*
X130000000Y-91230000D02*
X131270000Y-91230000D01*
X131270000Y-91230000D02*
X131270000Y-92500000D01*
M02*
