G04 #@! TF.FileFunction,Copper,L2,Bot,Signal*
%FSLAX46Y46*%
G04 Gerber Fmt 4.6, Leading zero omitted, Abs format (unit mm)*
G04 Created by KiCad (PCBNEW 4.0.6-e0-6349~52~ubuntu17.04.1) date Sun Jul  9 19:34:07 2017*
%MOMM*%
%LPD*%
G01*
G04 APERTURE LIST*
%ADD10C,0.100000*%
%ADD11C,0.400000*%
%ADD12R,1.700000X1.700000*%
%ADD13C,1.524000*%
%ADD14C,0.200000*%
G04 APERTURE END LIST*
D10*
D11*
X126000000Y-99000000D03*
X125000000Y-99000000D03*
X124000000Y-99000000D03*
X127000000Y-96000000D03*
X127000000Y-97000000D03*
X127000000Y-98000000D03*
X127000000Y-99000000D03*
X123000000Y-85000000D03*
X123000000Y-84000000D03*
X123000000Y-83000000D03*
X124000000Y-83000000D03*
X125000000Y-83000000D03*
X126000000Y-83000000D03*
X127000000Y-83000000D03*
X127000000Y-84000000D03*
X127000000Y-85000000D03*
X127000000Y-86000000D03*
X127000000Y-87000000D03*
X127000000Y-88000000D03*
X127000000Y-89000000D03*
X127000000Y-90000000D03*
X127000000Y-91000000D03*
X127000000Y-92000000D03*
X127000000Y-93000000D03*
X127000000Y-94000000D03*
X127000000Y-95000000D03*
X123000000Y-86000000D03*
X123000000Y-87000000D03*
X123000000Y-88000000D03*
X123000000Y-89000000D03*
X123000000Y-90000000D03*
X123000000Y-91000000D03*
X123000000Y-92000000D03*
X123000000Y-93000000D03*
X123000000Y-94000000D03*
X123000000Y-95000000D03*
X123000000Y-96000000D03*
X123000000Y-97000000D03*
X123000000Y-98000000D03*
X123000000Y-99000000D03*
X124000000Y-95000000D03*
X125000000Y-95000000D03*
X126000000Y-95000000D03*
D12*
X130000000Y-92500000D03*
D13*
X125000000Y-85000000D03*
X130000000Y-85000000D03*
D12*
X122000000Y-92500000D03*
X125000000Y-92500000D03*
D14*
G36*
X128900000Y-83400000D02*
X128000000Y-83400000D01*
X127961094Y-83407879D01*
X127928319Y-83430273D01*
X127906839Y-83463654D01*
X127900000Y-83500000D01*
X127900000Y-86500000D01*
X127907879Y-86538906D01*
X127930273Y-86571681D01*
X127963654Y-86593161D01*
X128000000Y-86600000D01*
X128900000Y-86600000D01*
X128900000Y-90400000D01*
X128000000Y-90400000D01*
X127961094Y-90407879D01*
X127928319Y-90430273D01*
X127906839Y-90463654D01*
X127900000Y-90500000D01*
X127900000Y-94500000D01*
X127907879Y-94538906D01*
X127930273Y-94571681D01*
X127963654Y-94593161D01*
X128000000Y-94600000D01*
X128900000Y-94600000D01*
X128900000Y-99444000D01*
X122554763Y-99444000D01*
X121760230Y-99285958D01*
X121133088Y-98866914D01*
X121100000Y-98817394D01*
X121100000Y-91650000D01*
X123659577Y-91650000D01*
X123659577Y-93350000D01*
X123693117Y-93528248D01*
X123798461Y-93691958D01*
X123959198Y-93801785D01*
X124150000Y-93840423D01*
X125850000Y-93840423D01*
X126028248Y-93806883D01*
X126191958Y-93701539D01*
X126301785Y-93540802D01*
X126340423Y-93350000D01*
X126340423Y-91650000D01*
X126306883Y-91471752D01*
X126201539Y-91308042D01*
X126040802Y-91198215D01*
X125850000Y-91159577D01*
X124150000Y-91159577D01*
X123971752Y-91193117D01*
X123808042Y-91298461D01*
X123698215Y-91459198D01*
X123659577Y-91650000D01*
X121100000Y-91650000D01*
X121100000Y-85246163D01*
X123756785Y-85246163D01*
X123945621Y-85703183D01*
X124294978Y-86053150D01*
X124751667Y-86242784D01*
X125246163Y-86243215D01*
X125703183Y-86054379D01*
X126053150Y-85705022D01*
X126242784Y-85248333D01*
X126243215Y-84753837D01*
X126054379Y-84296817D01*
X125705022Y-83946850D01*
X125248333Y-83757216D01*
X124753837Y-83756785D01*
X124296817Y-83945621D01*
X123946850Y-84294978D01*
X123757216Y-84751667D01*
X123756785Y-85246163D01*
X121100000Y-85246163D01*
X121100000Y-81182606D01*
X121133088Y-81133086D01*
X121760230Y-80714042D01*
X122554763Y-80556000D01*
X128900000Y-80556000D01*
X128900000Y-83400000D01*
X128900000Y-83400000D01*
G37*
X128900000Y-83400000D02*
X128000000Y-83400000D01*
X127961094Y-83407879D01*
X127928319Y-83430273D01*
X127906839Y-83463654D01*
X127900000Y-83500000D01*
X127900000Y-86500000D01*
X127907879Y-86538906D01*
X127930273Y-86571681D01*
X127963654Y-86593161D01*
X128000000Y-86600000D01*
X128900000Y-86600000D01*
X128900000Y-90400000D01*
X128000000Y-90400000D01*
X127961094Y-90407879D01*
X127928319Y-90430273D01*
X127906839Y-90463654D01*
X127900000Y-90500000D01*
X127900000Y-94500000D01*
X127907879Y-94538906D01*
X127930273Y-94571681D01*
X127963654Y-94593161D01*
X128000000Y-94600000D01*
X128900000Y-94600000D01*
X128900000Y-99444000D01*
X122554763Y-99444000D01*
X121760230Y-99285958D01*
X121133088Y-98866914D01*
X121100000Y-98817394D01*
X121100000Y-91650000D01*
X123659577Y-91650000D01*
X123659577Y-93350000D01*
X123693117Y-93528248D01*
X123798461Y-93691958D01*
X123959198Y-93801785D01*
X124150000Y-93840423D01*
X125850000Y-93840423D01*
X126028248Y-93806883D01*
X126191958Y-93701539D01*
X126301785Y-93540802D01*
X126340423Y-93350000D01*
X126340423Y-91650000D01*
X126306883Y-91471752D01*
X126201539Y-91308042D01*
X126040802Y-91198215D01*
X125850000Y-91159577D01*
X124150000Y-91159577D01*
X123971752Y-91193117D01*
X123808042Y-91298461D01*
X123698215Y-91459198D01*
X123659577Y-91650000D01*
X121100000Y-91650000D01*
X121100000Y-85246163D01*
X123756785Y-85246163D01*
X123945621Y-85703183D01*
X124294978Y-86053150D01*
X124751667Y-86242784D01*
X125246163Y-86243215D01*
X125703183Y-86054379D01*
X126053150Y-85705022D01*
X126242784Y-85248333D01*
X126243215Y-84753837D01*
X126054379Y-84296817D01*
X125705022Y-83946850D01*
X125248333Y-83757216D01*
X124753837Y-83756785D01*
X124296817Y-83945621D01*
X123946850Y-84294978D01*
X123757216Y-84751667D01*
X123756785Y-85246163D01*
X121100000Y-85246163D01*
X121100000Y-81182606D01*
X121133088Y-81133086D01*
X121760230Y-80714042D01*
X122554763Y-80556000D01*
X128900000Y-80556000D01*
X128900000Y-83400000D01*
M02*
