%FSDAX24Y24*%
%MOIN*%
%SFA1B1*%

%IPPOS*%
%AMD10*
4,1,8,-0.025600,0.006900,-0.025600,-0.006900,-0.018700,-0.013800,0.018700,-0.013800,0.025600,-0.006900,0.025600,0.006900,0.018700,0.013800,-0.018700,0.013800,-0.025600,0.006900,0.0*
1,1,0.013800,-0.018700,0.006900*
1,1,0.013800,-0.018700,-0.006900*
1,1,0.013800,0.018700,-0.006900*
1,1,0.013800,0.018700,0.006900*
%
%AMD11*
4,1,8,-0.006900,-0.025600,0.006900,-0.025600,0.013800,-0.018700,0.013800,0.018700,0.006900,0.025600,-0.006900,0.025600,-0.013800,0.018700,-0.013800,-0.018700,-0.006900,-0.025600,0.0*
1,1,0.013800,-0.006900,-0.018700*
1,1,0.013800,0.006900,-0.018700*
1,1,0.013800,0.006900,0.018700*
1,1,0.013800,-0.006900,0.018700*
%
G04~CAMADD=10~8~0.0~0.0~276.0~512.0~69.0~0.0~15~0.0~0.0~0.0~0.0~0~0.0~0.0~0.0~0.0~0~0.0~0.0~0.0~90.0~512.0~276.0*
%ADD10D10*%
G04~CAMADD=11~8~0.0~0.0~276.0~512.0~69.0~0.0~15~0.0~0.0~0.0~0.0~0~0.0~0.0~0.0~0.0~0~0.0~0.0~0.0~180.0~276.0~512.0*
%ADD11D11*%
%ADD12R,0.055100X0.039400*%
%ADD13R,0.039400X0.055100*%
%ADD14R,0.061000X0.023600*%
%ADD15R,0.023600X0.041300*%
%ADD16C,0.010000*%
%ADD17C,0.007900*%
%ADD18C,0.055100*%
%ADD19C,0.070900*%
%ADD20C,0.252000*%
%ADD21C,0.027600*%
%LNcurrentsource-1*%
%LPD*%
G36*
X057325Y070710D02*
X057560Y070664D01*
X057786Y070587*
X058001Y070481*
X058200Y070348*
X058379Y070190*
X058537Y070011*
X058670Y069812*
X058776Y069597*
X058853Y069371*
X058899Y069136*
X058914Y068905*
X058913Y068898*
Y041339*
X058914Y041332*
X058899Y041100*
X058853Y040865*
X058776Y040639*
X058670Y040424*
X058537Y040226*
X058379Y040046*
X058200Y039888*
X058001Y039755*
X057786Y039650*
X057560Y039573*
X057325Y039526*
X057094Y039511*
X057087Y039512*
X041339*
X041332Y039511*
X041100Y039526*
X040865Y039573*
X040639Y039650*
X040424Y039755*
X040226Y039888*
X040046Y040046*
X039888Y040226*
X039755Y040424*
X039650Y040639*
X039573Y040865*
X039526Y041100*
X039511Y041332*
X039512Y041339*
Y068898*
X039511Y068904*
X039526Y069136*
X039573Y069371*
X039650Y069597*
X039755Y069812*
X039888Y070011*
X040046Y070190*
X040226Y070348*
X040424Y070481*
X040639Y070587*
X040865Y070664*
X041100Y070710*
X041332Y070725*
X041339Y070724*
X057087*
X057093Y070725*
X057325Y070710*
G37*
%LNcurrentsource-2*%
%LPC*%
G36*
X055180Y058373D02*
Y058190D01*
X055363*
X055354Y058233*
X055301Y058311*
X055223Y058364*
X055180Y058373*
G37*
G36*
X055080D02*
X055037Y058364D01*
X054959Y058311*
X054906Y058233*
X054897Y058190*
X055080*
Y058373*
G37*
G36*
X047463Y058260D02*
X047280D01*
Y058077*
X047323Y058086*
X047401Y058139*
X047454Y058217*
X047463Y058260*
G37*
G36*
X047465Y059902D02*
X046655D01*
Y059831*
X046625Y059825*
X046576Y059792*
X046476Y059692*
X046443Y059643*
X046431Y059584*
Y059059*
X046237*
Y058714*
X046231Y058683*
X046237Y058653*
Y058308*
X046831*
Y059059*
X046737*
Y059466*
X047465*
Y059902*
G37*
G36*
X049810Y059710D02*
X049455D01*
Y059542*
X049810*
Y059710*
G37*
G36*
X047280Y058543D02*
Y058360D01*
X047463*
X047454Y058403*
X047401Y058481*
X047323Y058534*
X047280Y058543*
G37*
G36*
X047180D02*
X047137Y058534D01*
X047059Y058481*
X047006Y058403*
X046997Y058360*
X047180*
Y058543*
G37*
G36*
X045560Y056803D02*
X045517Y056794D01*
X045439Y056741*
X045386Y056663*
X045377Y056620*
X045560*
Y056803*
G37*
G36*
X045843Y056520D02*
X045660D01*
Y056337*
X045703Y056346*
X045781Y056399*
X045834Y056477*
X045843Y056520*
G37*
G36*
X045560D02*
X045377D01*
X045386Y056477*
X045439Y056399*
X045517Y056346*
X045560Y056337*
Y056520*
G37*
G36*
X045660Y056803D02*
Y056620D01*
X045843*
X045834Y056663*
X045781Y056741*
X045703Y056794*
X045660Y056803*
G37*
G36*
X047180Y058260D02*
X046997D01*
X047006Y058217*
X047059Y058139*
X047137Y058086*
X047180Y058077*
Y058260*
G37*
G36*
X055363Y058090D02*
X055180D01*
Y057907*
X055223Y057916*
X055301Y057969*
X055354Y058047*
X055363Y058090*
G37*
G36*
X055080D02*
X054897D01*
X054906Y058047*
X054959Y057969*
X055037Y057916*
X055080Y057907*
Y058090*
G37*
G36*
X050265Y059710D02*
X049910D01*
Y059542*
X050265*
Y059710*
G37*
G36*
Y060710D02*
X049910D01*
Y060542*
X050265*
Y060710*
G37*
G36*
X049810D02*
X049455D01*
Y060542*
X049810*
Y060710*
G37*
G36*
X045630Y060713D02*
X045587Y060704D01*
X045509Y060651*
X045456Y060573*
X045447Y060530*
X045630*
Y060713*
G37*
G36*
X050620Y060813D02*
X050577Y060804D01*
X050499Y060751*
X050446Y060673*
X050437Y060630*
X050620*
Y060813*
G37*
G36*
X049810Y060978D02*
X049455D01*
Y060810*
X049810*
Y060978*
G37*
G36*
X048469Y060884D02*
X048160D01*
Y060693*
X048297*
X048363Y060706*
X048419Y060743*
X048456Y060799*
X048469Y060865*
Y060884*
G37*
G36*
X048060D02*
X047751D01*
Y060865*
X047764Y060799*
X047801Y060743*
X047857Y060706*
X047923Y060693*
X048060*
Y060884*
G37*
G36*
X045630Y060430D02*
X045447D01*
X045456Y060387*
X045509Y060309*
X045587Y060256*
X045630Y060247*
Y060430*
G37*
G36*
X050265Y059978D02*
X049910D01*
Y059810*
X050265*
Y059978*
G37*
G36*
X049810D02*
X049455D01*
Y059810*
X049810*
Y059978*
G37*
G36*
X045913Y060430D02*
X045730D01*
Y060247*
X045773Y060256*
X045851Y060309*
X045904Y060387*
X045913Y060430*
G37*
G36*
X045339Y060902D02*
X044529D01*
Y060466*
X045339*
Y060902*
G37*
G36*
X050903Y060530D02*
X050720D01*
Y060347*
X050763Y060356*
X050841Y060409*
X050894Y060487*
X050903Y060530*
G37*
G36*
X050620D02*
X050437D01*
X050446Y060487*
X050499Y060409*
X050577Y060356*
X050620Y060347*
Y060530*
G37*
G36*
X048100Y048553D02*
X048057Y048544D01*
X047979Y048491*
X047926Y048413*
X047917Y048370*
X048100*
Y048553*
G37*
G36*
X048383Y048270D02*
X048200D01*
Y048087*
X048243Y048096*
X048321Y048149*
X048374Y048227*
X048383Y048270*
G37*
G36*
X048100D02*
X047917D01*
X047926Y048227*
X047979Y048149*
X048057Y048096*
X048100Y048087*
Y048270*
G37*
G36*
X048200Y048553D02*
Y048370D01*
X048383*
X048374Y048413*
X048321Y048491*
X048243Y048544*
X048200Y048553*
G37*
G36*
X048780Y048990D02*
X048597D01*
X048606Y048947*
X048659Y048869*
X048737Y048816*
X048780Y048807*
Y048990*
G37*
G36*
X048509Y048996D02*
X048200D01*
Y048805*
X048337*
X048403Y048818*
X048459Y048855*
X048496Y048911*
X048509Y048977*
Y048996*
G37*
G36*
X048100D02*
X047791D01*
Y048977*
X047804Y048911*
X047841Y048855*
X047897Y048818*
X047963Y048805*
X048100*
Y048996*
G37*
G36*
X050213Y051878D02*
X050094Y051863D01*
X049983Y051817*
X049889Y051744*
X049816Y051649*
X049770Y051539*
X049754Y051420*
X049770Y051301*
X049816Y051191*
X049889Y051096*
X049983Y051023*
X049997Y051018*
Y049483*
X049604Y049091*
X049571Y049041*
X049560Y048983*
Y047587*
X049523Y047572*
X049445Y047512*
X049385Y047434*
X049347Y047342*
X049334Y047244*
X049347Y047146*
X049385Y047055*
X049445Y046976*
X049523Y046916*
X049615Y046878*
X049713Y046865*
X049811Y046878*
X049902Y046916*
X049980Y046976*
X050041Y047055*
X050079Y047146*
X050091Y047244*
X050079Y047342*
X050041Y047434*
X049980Y047512*
X049902Y047572*
X049866Y047587*
Y048919*
X050258Y049312*
X050291Y049361*
X050303Y049420*
Y050974*
X050331Y050977*
X050442Y051023*
X050537Y051096*
X050609Y051191*
X050655Y051301*
X050671Y051420*
X050655Y051539*
X050609Y051649*
X050537Y051744*
X050442Y051817*
X050331Y051863*
X050213Y051878*
G37*
G36*
X057087Y042703D02*
X056873Y042686D01*
X056665Y042636*
X056467Y042554*
X056285Y042442*
X056122Y042303*
X055983Y042140*
X055871Y041958*
X055789Y041760*
X055739Y041552*
X055723Y041339*
X055739Y041125*
X055789Y040917*
X055871Y040719*
X055983Y040537*
X056122Y040374*
X056285Y040235*
X056467Y040123*
X056665Y040041*
X056873Y039991*
X057087Y039975*
X057300Y039991*
X057508Y040041*
X057706Y040123*
X057888Y040235*
X058051Y040374*
X058190Y040537*
X058302Y040719*
X058384Y040917*
X058434Y041125*
X058451Y041339*
X058434Y041552*
X058384Y041760*
X058302Y041958*
X058190Y042140*
X058051Y042303*
X057888Y042442*
X057706Y042554*
X057508Y042636*
X057300Y042686*
X057087Y042703*
G37*
G36*
X041339D02*
X041125Y042686D01*
X040917Y042636*
X040719Y042554*
X040537Y042442*
X040374Y042303*
X040235Y042140*
X040123Y041958*
X040041Y041760*
X039991Y041552*
X039975Y041339*
X039991Y041125*
X040041Y040917*
X040123Y040719*
X040235Y040537*
X040374Y040374*
X040537Y040235*
X040719Y040123*
X040917Y040041*
X041125Y039991*
X041339Y039975*
X041552Y039991*
X041760Y040041*
X041958Y040123*
X042140Y040235*
X042303Y040374*
X042442Y040537*
X042554Y040719*
X042636Y040917*
X042686Y041125*
X042703Y041339*
X042686Y041552*
X042636Y041760*
X042554Y041958*
X042442Y042140*
X042303Y042303*
X042140Y042442*
X041958Y042554*
X041760Y042636*
X041552Y042686*
X041339Y042703*
G37*
G36*
X048663Y047194D02*
X048340D01*
X048347Y047146*
X048385Y047055*
X048445Y046976*
X048523Y046916*
X048615Y046878*
X048663Y046872*
Y047194*
G37*
G36*
X048763Y047616D02*
Y047294D01*
X049085*
X049079Y047342*
X049041Y047434*
X048980Y047512*
X048902Y047572*
X048811Y047610*
X048763Y047616*
G37*
G36*
X048663D02*
X048615Y047610D01*
X048523Y047572*
X048445Y047512*
X048385Y047434*
X048347Y047342*
X048340Y047294*
X048663*
Y047616*
G37*
G36*
X049085Y047194D02*
X048763D01*
Y046872*
X048811Y046878*
X048902Y046916*
X048980Y046976*
X049041Y047055*
X049079Y047146*
X049085Y047194*
G37*
G36*
X049063Y048990D02*
X048880D01*
Y048807*
X048923Y048816*
X049001Y048869*
X049054Y048947*
X049063Y048990*
G37*
G36*
X049240Y053748D02*
X049121Y053733D01*
X049011Y053687*
X048916Y053614*
X048843Y053519*
X048797Y053409*
X048782Y053290*
X048797Y053171*
X048843Y053061*
X048916Y052966*
X049011Y052893*
X049121Y052847*
X049240Y052832*
X049359Y052847*
X049414Y052870*
X049930Y052354*
X049407Y051831*
X049331Y051863*
X049213Y051878*
X049094Y051863*
X048983Y051817*
X048889Y051744*
X048816Y051649*
X048770Y051539*
X048754Y051420*
X048770Y051301*
X048816Y051191*
X048889Y051096*
X048983Y051023*
X049094Y050977*
X049213Y050962*
X049331Y050977*
X049442Y051023*
X049537Y051096*
X049609Y051191*
X049655Y051301*
X049671Y051420*
X049655Y051539*
X049624Y051615*
X050116Y052107*
X050967*
X051351Y051723*
X051400Y051690*
X051459Y051678*
X054592*
X054623Y051602*
X054696Y051507*
X054791Y051434*
X054901Y051389*
X055020Y051373*
X055139Y051389*
X055249Y051434*
X055344Y051507*
X055417Y051602*
X055463Y051713*
X055478Y051831*
X055463Y051950*
X055417Y052060*
X055344Y052155*
X055249Y052228*
X055139Y052274*
X055020Y052289*
X054901Y052274*
X054791Y052228*
X054696Y052155*
X054623Y052060*
X054592Y051984*
X051522*
X051141Y052365*
X051463Y052687*
X054592*
X054623Y052611*
X054696Y052516*
X054791Y052443*
X054901Y052397*
X055020Y052382*
X055139Y052397*
X055249Y052443*
X055344Y052516*
X055417Y052611*
X055463Y052721*
X055478Y052840*
X055463Y052959*
X055417Y053069*
X055344Y053164*
X055249Y053237*
X055139Y053283*
X055020Y053298*
X054901Y053283*
X054791Y053237*
X054696Y053164*
X054623Y053069*
X054592Y052993*
X051400*
X051341Y052981*
X051292Y052948*
X050957Y052613*
X050103*
X049642Y053074*
X049683Y053171*
X049698Y053290*
X049683Y053409*
X049637Y053519*
X049564Y053614*
X049469Y053687*
X049359Y053733*
X049240Y053748*
G37*
G36*
X048213Y051878D02*
X048094Y051863D01*
X047983Y051817*
X047889Y051744*
X047816Y051649*
X047770Y051539*
X047754Y051420*
X047770Y051301*
X047816Y051191*
X047889Y051096*
X047983Y051023*
X047997Y051018*
Y050035*
X047963*
X047897Y050022*
X047841Y049985*
X047804Y049929*
X047791Y049863*
Y049725*
X047804Y049659*
X047841Y049603*
X047897Y049566*
X047963Y049553*
X048337*
X048403Y049566*
X048459Y049603*
X048496Y049659*
X048509Y049725*
Y049863*
X048496Y049929*
X048459Y049985*
X048403Y050022*
X048337Y050035*
X048303*
Y050974*
X048331Y050977*
X048442Y051023*
X048537Y051096*
X048609Y051191*
X048655Y051301*
X048671Y051420*
X048655Y051539*
X048609Y051649*
X048537Y051744*
X048442Y051817*
X048331Y051863*
X048213Y051878*
G37*
G36*
X047530Y049313D02*
Y049130D01*
X047713*
X047704Y049173*
X047651Y049251*
X047573Y049304*
X047530Y049313*
G37*
G36*
X047210Y055000D02*
X047027D01*
X047036Y054957*
X047089Y054879*
X047167Y054826*
X047210Y054817*
Y055000*
G37*
G36*
X047310Y055283D02*
Y055100D01*
X047493*
X047484Y055143*
X047431Y055221*
X047353Y055274*
X047310Y055283*
G37*
G36*
X047210D02*
X047167Y055274D01*
X047089Y055221*
X047036Y055143*
X047027Y055100*
X047210*
Y055283*
G37*
G36*
X047493Y055000D02*
X047310D01*
Y054817*
X047353Y054826*
X047431Y054879*
X047484Y054957*
X047493Y055000*
G37*
G36*
X048780Y049273D02*
X048737Y049264D01*
X048659Y049211*
X048606Y049133*
X048597Y049090*
X048780*
Y049273*
G37*
G36*
X047713Y049030D02*
X047530D01*
Y048847*
X047573Y048856*
X047651Y048909*
X047704Y048987*
X047713Y049030*
G37*
G36*
X047430D02*
X047247D01*
X047256Y048987*
X047309Y048909*
X047387Y048856*
X047430Y048847*
Y049030*
G37*
G36*
X048880Y049273D02*
Y049090D01*
X049063*
X049054Y049133*
X049001Y049211*
X048923Y049264*
X048880Y049273*
G37*
G36*
X047430Y049313D02*
X047387Y049304D01*
X047309Y049251*
X047256Y049173*
X047247Y049130*
X047430*
Y049313*
G37*
G36*
X048337Y049287D02*
X048200D01*
Y049096*
X048509*
Y049115*
X048496Y049181*
X048459Y049237*
X048403Y049274*
X048337Y049287*
G37*
G36*
X048100D02*
X047963D01*
X047897Y049274*
X047841Y049237*
X047804Y049181*
X047791Y049115*
Y049096*
X048100*
Y049287*
G37*
G36*
X050265Y060978D02*
X049910D01*
Y060810*
X050265*
Y060978*
G37*
G36*
X044690Y064893D02*
Y064710D01*
X044873*
X044864Y064753*
X044811Y064831*
X044733Y064884*
X044690Y064893*
G37*
G36*
X044590D02*
X044547Y064884D01*
X044469Y064831*
X044416Y064753*
X044407Y064710*
X044590*
Y064893*
G37*
G36*
X044873Y064610D02*
X044690D01*
Y064427*
X044733Y064436*
X044811Y064489*
X044864Y064567*
X044873Y064610*
G37*
G36*
X055000Y065540D02*
X054817D01*
X054826Y065497*
X054879Y065419*
X054957Y065366*
X055000Y065357*
Y065540*
G37*
G36*
X055100Y065823D02*
Y065640D01*
X055283*
X055274Y065683*
X055221Y065761*
X055143Y065814*
X055100Y065823*
G37*
G36*
X055000D02*
X054957Y065814D01*
X054879Y065761*
X054826Y065683*
X054817Y065640*
X055000*
Y065823*
G37*
G36*
X055283Y065540D02*
X055100D01*
Y065357*
X055143Y065366*
X055221Y065419*
X055274Y065497*
X055283Y065540*
G37*
G36*
X051800Y064083D02*
Y063900D01*
X051983*
X051974Y063943*
X051921Y064021*
X051843Y064074*
X051800Y064083*
G37*
G36*
X051700D02*
X051657Y064074D01*
X051579Y064021*
X051526Y063943*
X051517Y063900*
X051700*
Y064083*
G37*
G36*
X050305Y064130D02*
X050114D01*
Y063821*
X050133*
X050199Y063834*
X050255Y063871*
X050292Y063927*
X050305Y063993*
Y064130*
G37*
G36*
X050014Y064539D02*
X049995D01*
X049929Y064526*
X049873Y064489*
X049836Y064433*
X049823Y064367*
Y064230*
X050014*
Y064539*
G37*
G36*
X044590Y064610D02*
X044407D01*
X044416Y064567*
X044469Y064489*
X044547Y064436*
X044590Y064427*
Y064610*
G37*
G36*
X049385Y064539D02*
X049247D01*
X049181Y064526*
X049125Y064489*
X049088Y064433*
X049075Y064367*
Y064333*
X048665*
Y064367*
X048652Y064433*
X048615Y064489*
X048559Y064526*
X048493Y064539*
X048355*
X048289Y064526*
X048233Y064489*
X048196Y064433*
X048183Y064367*
Y063993*
X048196Y063927*
X048233Y063871*
X048289Y063834*
X048355Y063821*
X048493*
X048559Y063834*
X048615Y063871*
X048652Y063927*
X048665Y063993*
Y064027*
X049075*
Y063993*
X049088Y063927*
X049125Y063871*
X049147Y063857*
Y063643*
X048992Y063488*
X048959Y063439*
X048947Y063380*
Y060550*
X048959Y060491*
X048992Y060442*
X049282Y060152*
X049331Y060119*
X049390Y060107*
X049455*
Y060042*
X050265*
Y060478*
X049455*
X049405Y060461*
X049253Y060613*
Y063317*
X049408Y063472*
X049441Y063521*
X049453Y063580*
Y063835*
X049507Y063871*
X049544Y063927*
X049557Y063993*
Y064367*
X049544Y064433*
X049507Y064489*
X049451Y064526*
X049385Y064539*
G37*
G36*
X050133D02*
X050114D01*
Y064230*
X050305*
Y064367*
X050292Y064433*
X050255Y064489*
X050199Y064526*
X050133Y064539*
G37*
G36*
X052150Y067387D02*
X052031Y067372D01*
X051920Y067326*
X051826Y067253*
X051753Y067158*
X051721Y067082*
X047829*
X047771Y067070*
X047721Y067037*
X045992Y065308*
X044828Y064144*
X044795Y064095*
X044783Y064036*
Y062544*
X044745Y062519*
X044708Y062463*
X044695Y062397*
Y062023*
X044708Y061957*
X044745Y061901*
X044801Y061864*
X044867Y061851*
X045005*
X045071Y061864*
X045127Y061901*
X045164Y061957*
X045177Y062023*
Y062397*
X045164Y062463*
X045127Y062519*
X045089Y062544*
Y063973*
X046100Y064984*
X047012Y064072*
X047061Y064039*
X047120Y064027*
X047435*
Y063993*
X047448Y063927*
X047485Y063871*
X047541Y063834*
X047607Y063821*
X047745*
X047811Y063834*
X047867Y063871*
X047904Y063927*
X047917Y063993*
Y064367*
X047904Y064433*
X047867Y064489*
X047811Y064526*
X047745Y064539*
X047607*
X047541Y064526*
X047485Y064489*
X047448Y064433*
X047435Y064367*
Y064333*
X047183*
X046316Y065200*
X047892Y066776*
X051721*
X051753Y066700*
X051826Y066605*
X051920Y066532*
X052031Y066487*
X052150Y066471*
X052268Y066487*
X052379Y066532*
X052474Y066605*
X052546Y066700*
X052592Y066811*
X052608Y066929*
X052592Y067048*
X052546Y067158*
X052474Y067253*
X052379Y067326*
X052268Y067372*
X052150Y067387*
G37*
G36*
X057087Y070262D02*
X056873Y070245D01*
X056665Y070195*
X056467Y070113*
X056285Y070001*
X056122Y069862*
X055983Y069699*
X055871Y069517*
X055789Y069319*
X055739Y069111*
X055723Y068898*
X055739Y068684*
X055789Y068476*
X055871Y068278*
X055983Y068096*
X056122Y067933*
X056285Y067794*
X056467Y067682*
X056665Y067600*
X056873Y067550*
X057087Y067534*
X057300Y067550*
X057508Y067600*
X057706Y067682*
X057888Y067794*
X058051Y067933*
X058190Y068096*
X058302Y068278*
X058384Y068476*
X058434Y068684*
X058451Y068898*
X058434Y069111*
X058384Y069319*
X058302Y069517*
X058190Y069699*
X058051Y069862*
X057888Y070001*
X057706Y070113*
X057508Y070195*
X057300Y070245*
X057087Y070262*
G37*
G36*
X041339D02*
X041125Y070245D01*
X040917Y070195*
X040719Y070113*
X040537Y070001*
X040374Y069862*
X040235Y069699*
X040123Y069517*
X040041Y069319*
X039991Y069111*
X039975Y068898*
X039991Y068684*
X040041Y068476*
X040123Y068278*
X040235Y068096*
X040374Y067933*
X040537Y067794*
X040719Y067682*
X040917Y067600*
X041125Y067550*
X041339Y067534*
X041552Y067550*
X041760Y067600*
X041958Y067682*
X042140Y067794*
X042303Y067933*
X042442Y068096*
X042554Y068278*
X042636Y068476*
X042686Y068684*
X042703Y068898*
X042686Y069111*
X042636Y069319*
X042554Y069517*
X042442Y069699*
X042303Y069862*
X042140Y070001*
X041958Y070113*
X041760Y070195*
X041552Y070245*
X041339Y070262*
G37*
G36*
X053208Y067381D02*
Y066979D01*
X053610*
X053601Y067048*
X053555Y067158*
X053482Y067253*
X053388Y067326*
X053277Y067372*
X053208Y067381*
G37*
G36*
X048570Y067740D02*
X048387D01*
X048396Y067697*
X048449Y067619*
X048527Y067566*
X048570Y067557*
Y067740*
G37*
G36*
X048670Y068023D02*
Y067840D01*
X048853*
X048844Y067883*
X048791Y067961*
X048713Y068014*
X048670Y068023*
G37*
G36*
X048570D02*
X048527Y068014D01*
X048449Y067961*
X048396Y067883*
X048387Y067840*
X048570*
Y068023*
G37*
G36*
X048853Y067740D02*
X048670D01*
Y067557*
X048713Y067566*
X048791Y067619*
X048844Y067697*
X048853Y067740*
G37*
G36*
X053108Y066879D02*
X052707D01*
X052716Y066811*
X052762Y066700*
X052834Y066605*
X052929Y066532*
X053040Y066487*
X053108Y066477*
Y066879*
G37*
G36*
X046736D02*
X046334D01*
Y066477*
X046403Y066487*
X046514Y066532*
X046608Y066605*
X046681Y066700*
X046727Y066811*
X046736Y066879*
G37*
G36*
X046234D02*
X045833D01*
X045842Y066811*
X045888Y066700*
X045960Y066605*
X046055Y066532*
X046166Y066487*
X046234Y066477*
Y066879*
G37*
G36*
X053610D02*
X053208D01*
Y066477*
X053277Y066487*
X053388Y066532*
X053482Y066605*
X053555Y066700*
X053601Y066811*
X053610Y066879*
G37*
G36*
X053108Y067381D02*
X053040Y067372D01*
X052929Y067326*
X052834Y067253*
X052762Y067158*
X052716Y067048*
X052707Y066979*
X053108*
Y067381*
G37*
G36*
X046334D02*
Y066979D01*
X046736*
X046727Y067048*
X046681Y067158*
X046608Y067253*
X046514Y067326*
X046403Y067372*
X046334Y067381*
G37*
G36*
X046234D02*
X046166Y067372D01*
X046055Y067326*
X045960Y067253*
X045888Y067158*
X045842Y067048*
X045833Y066979*
X046234*
Y067381*
G37*
G36*
X048010Y061460D02*
X047827D01*
X047836Y061417*
X047889Y061339*
X047967Y061286*
X048010Y061277*
Y061460*
G37*
G36*
X047465Y061402D02*
X047110D01*
Y061234*
X047465*
Y061402*
G37*
G36*
X047010D02*
X046655D01*
Y061234*
X047010*
Y061402*
G37*
G36*
X048293Y061460D02*
X048110D01*
Y061277*
X048153Y061286*
X048231Y061339*
X048284Y061417*
X048293Y061460*
G37*
G36*
X047934Y062160D02*
X047743D01*
Y062023*
X047756Y061957*
X047793Y061901*
X047849Y061864*
X047915Y061851*
X047934*
Y062160*
G37*
G36*
X048110Y061743D02*
Y061560D01*
X048293*
X048284Y061603*
X048231Y061681*
X048153Y061734*
X048110Y061743*
G37*
G36*
X048010D02*
X047967Y061734D01*
X047889Y061681*
X047836Y061603*
X047827Y061560*
X048010*
Y061743*
G37*
G36*
X047010Y061134D02*
X046655D01*
Y060966*
X047010*
Y061134*
G37*
G36*
X045339Y061402D02*
X044529D01*
Y060966*
X045339*
Y061402*
G37*
G36*
X053410Y068693D02*
X046886D01*
X046828Y068681*
X046778Y068648*
X045470Y067340*
X045394Y067372*
X045276Y067387*
X045157Y067372*
X045046Y067326*
X044952Y067253*
X044879Y067158*
X044833Y067048*
X044817Y066929*
X044833Y066811*
X044865Y066734*
X044012Y065882*
X043979Y065832*
X043967Y065774*
Y060450*
X043979Y060391*
X044012Y060342*
X044278Y060076*
X044327Y060043*
X044386Y060031*
X044529*
Y059966*
X045257*
Y059902*
X044529*
Y059466*
X045257*
Y058210*
X045269Y058151*
X045302Y058102*
X045695Y057709*
X045744Y057676*
X045803Y057664*
X045863*
Y057442*
X046457*
Y057664*
X046990*
X048087Y056567*
Y053718*
X048011Y053687*
X047916Y053614*
X047843Y053519*
X047797Y053409*
X047782Y053290*
X047797Y053171*
X047843Y053061*
X047916Y052966*
X048011Y052893*
X048121Y052847*
X048240Y052832*
X048359Y052847*
X048469Y052893*
X048564Y052966*
X048637Y053061*
X048683Y053171*
X048698Y053290*
X048683Y053409*
X048637Y053519*
X048564Y053614*
X048469Y053687*
X048393Y053718*
Y056630*
X048381Y056689*
X048348Y056738*
X047161Y057925*
X047111Y057958*
X047053Y057970*
X046457*
Y058193*
X045863*
Y058038*
X045817Y058019*
X045579Y058258*
X045599Y058308*
X046083*
Y059059*
X045939*
Y059623*
X046323Y060007*
X046655*
Y059966*
X047465*
Y060031*
X047777*
X047801Y059995*
X047857Y059958*
X047923Y059945*
X048297*
X048363Y059958*
X048419Y059995*
X048456Y060051*
X048469Y060117*
Y060255*
X048456Y060321*
X048419Y060377*
X048363Y060414*
X048297Y060427*
X047923*
X047857Y060414*
X047801Y060377*
X047775Y060337*
X047465*
Y060402*
X046655*
Y060313*
X046260*
X046201Y060301*
X046152Y060268*
X045678Y059794*
X045645Y059745*
X045633Y059686*
Y059059*
X045563*
Y060060*
X045551Y060119*
X045518Y060168*
X045394Y060292*
X045345Y060325*
X045339Y060326*
Y060402*
X044529*
Y060337*
X044449*
X044273Y060513*
Y065710*
X045081Y066518*
X045157Y066487*
X045276Y066471*
X045394Y066487*
X045505Y066532*
X045600Y066605*
X045672Y066700*
X045718Y066811*
X045734Y066929*
X045718Y067048*
X045687Y067124*
X046950Y068387*
X053347*
X053897Y067837*
Y066473*
X052809Y065385*
X052776Y065336*
X052764Y065277*
Y061057*
X052541*
Y060913*
X052391*
Y060978*
X051581*
Y060807*
X051390Y060616*
X051340Y060637*
Y060663*
X051328Y060722*
X051295Y060772*
X050698Y061368*
X050649Y061401*
X050590Y061413*
X050265*
Y061478*
X049455*
Y061042*
X050265*
Y061107*
X050527*
X050771Y060862*
X050770Y060853*
X050720Y060819*
Y060630*
X050909*
X050943Y060680*
X050952Y060681*
X051034Y060600*
Y059278*
X050863*
Y058972*
X050763*
Y059278*
X050220*
Y058665*
X050228*
X050249Y058615*
X050002Y058368*
X049969Y058319*
X049957Y058260*
Y057700*
X049969Y057642*
X050002Y057592*
X050222Y057372*
X050272Y057339*
X050330Y057327*
X050445*
X050465Y057281*
X050132Y056948*
X050099Y056899*
X050087Y056840*
Y053718*
X050011Y053687*
X049916Y053614*
X049843Y053519*
X049797Y053409*
X049782Y053290*
X049797Y053171*
X049843Y053061*
X049916Y052966*
X050011Y052893*
X050121Y052847*
X050240Y052832*
X050359Y052847*
X050469Y052893*
X050564Y052966*
X050637Y053061*
X050683Y053171*
X050698Y053290*
X050683Y053409*
X050637Y053519*
X050564Y053614*
X050469Y053687*
X050393Y053718*
Y056777*
X050943Y057327*
X051710*
X051769Y057339*
X051818Y057372*
X051832Y057393*
X052218Y057779*
X052251Y057829*
X052263Y057887*
Y057895*
X052297*
X052363Y057908*
X052419Y057945*
X052456Y058001*
X052469Y058067*
Y058205*
X052456Y058271*
X052419Y058327*
X052363Y058364*
X052297Y058377*
X051923*
X051857Y058364*
X051801Y058327*
X051764Y058271*
X051751Y058205*
Y058067*
X051764Y058001*
X051801Y057945*
X051849Y057913*
X051866Y057859*
X051640Y057633*
X051405*
Y058215*
X051438Y058249*
X051568Y058379*
X051601Y058429*
X051613Y058487*
Y059542*
X051833*
Y059374*
X051845Y059315*
X051878Y059266*
X051957Y059187*
Y059125*
X051923*
X051857Y059112*
X051801Y059075*
X051764Y059019*
X051751Y058953*
Y058815*
X051764Y058749*
X051801Y058693*
X051857Y058656*
X051923Y058643*
X052297*
X052363Y058656*
X052419Y058693*
X052456Y058749*
X052469Y058815*
Y058953*
X052456Y059019*
X052419Y059075*
X052363Y059112*
X052297Y059125*
X052263*
Y059250*
X052251Y059309*
X052218Y059358*
X052139Y059437*
Y059542*
X052391*
Y059607*
X054200*
X054259Y059619*
X054308Y059652*
X054568Y059912*
X054601Y059961*
X054613Y060020*
Y060900*
X054601Y060959*
X054568Y061008*
X054334Y061242*
X054285Y061275*
X054226Y061287*
X054159*
Y061431*
X053408*
Y060837*
X054159*
Y060914*
X054209Y060935*
X054307Y060837*
Y060083*
X054137Y059913*
X052391*
Y059978*
X051613*
Y060042*
X052391*
Y060107*
X053408*
Y060089*
X054159*
Y060683*
X053408*
Y060413*
X052391*
Y060478*
X051793*
X051768Y060528*
X051777Y060542*
X052391*
Y060607*
X052541*
Y060463*
X053293*
Y061057*
X053070*
Y065214*
X054158Y066302*
X054191Y066351*
X054203Y066410*
Y067900*
X054191Y067959*
X054158Y068008*
X053518Y068648*
X053469Y068681*
X053410Y068693*
G37*
G36*
X047465Y061134D02*
X047110D01*
Y060966*
X047465*
Y061134*
G37*
G36*
X052391Y061478D02*
X051581D01*
Y061042*
X052391*
Y061478*
G37*
G36*
X048297Y061175D02*
X048160D01*
Y060984*
X048469*
Y061003*
X048456Y061069*
X048419Y061125*
X048363Y061162*
X048297Y061175*
G37*
G36*
X048060D02*
X047923D01*
X047857Y061162*
X047801Y061125*
X047764Y061069*
X047751Y061003*
Y060984*
X048060*
Y061175*
G37*
G36*
X048225Y062160D02*
X048034D01*
Y061851*
X048053*
X048119Y061864*
X048175Y061901*
X048212Y061957*
X048225Y062023*
Y062160*
G37*
G36*
X055510Y063703D02*
X055467Y063694D01*
X055389Y063641*
X055336Y063563*
X055327Y063520*
X055510*
Y063703*
G37*
G36*
X046340D02*
Y063520D01*
X046523*
X046514Y063563*
X046461Y063641*
X046383Y063694*
X046340Y063703*
G37*
G36*
X046240D02*
X046197Y063694D01*
X046119Y063641*
X046066Y063563*
X046057Y063520*
X046240*
Y063703*
G37*
G36*
X055610D02*
Y063520D01*
X055793*
X055784Y063563*
X055731Y063641*
X055653Y063694*
X055610Y063703*
G37*
G36*
X050014Y064130D02*
X049823D01*
Y063993*
X049836Y063927*
X049873Y063871*
X049929Y063834*
X049995Y063821*
X050014*
Y064130*
G37*
G36*
X051983Y063800D02*
X051800D01*
Y063617*
X051843Y063626*
X051921Y063679*
X051974Y063757*
X051983Y063800*
G37*
G36*
X051700D02*
X051517D01*
X051526Y063757*
X051579Y063679*
X051657Y063626*
X051700Y063617*
Y063800*
G37*
G36*
X047305Y062569D02*
X047167D01*
X047101Y062556*
X047045Y062519*
X047008Y062463*
X046995Y062397*
Y062363*
X045925*
Y062397*
X045912Y062463*
X045875Y062519*
X045819Y062556*
X045753Y062569*
X045615*
X045549Y062556*
X045493Y062519*
X045456Y062463*
X045443Y062397*
Y062023*
X045456Y061957*
X045493Y061901*
X045531Y061876*
Y061086*
X045543Y061027*
X045576Y060978*
X045823Y060730*
X045792Y060691*
X045773Y060704*
X045730Y060713*
Y060530*
X045913*
X045904Y060573*
X045891Y060592*
X045930Y060623*
X045962Y060592*
X046011Y060559*
X046070Y060547*
X046655*
Y060466*
X047465*
Y060902*
X046655*
Y060853*
X046133*
X045837Y061149*
Y061876*
X045875Y061901*
X045912Y061957*
X045925Y062023*
Y062057*
X046995*
Y062023*
X047008Y061957*
X047045Y061901*
X047101Y061864*
X047167Y061851*
X047305*
X047371Y061864*
X047427Y061901*
X047464Y061957*
X047477Y062023*
Y062397*
X047464Y062463*
X047427Y062519*
X047371Y062556*
X047305Y062569*
G37*
G36*
X048053D02*
X048034D01*
Y062260*
X048225*
Y062397*
X048212Y062463*
X048175Y062519*
X048119Y062556*
X048053Y062569*
G37*
G36*
X047934D02*
X047915D01*
X047849Y062556*
X047793Y062519*
X047756Y062463*
X047743Y062397*
Y062260*
X047934*
Y062569*
G37*
G36*
X046240Y063420D02*
X046057D01*
X046066Y063377*
X046119Y063299*
X046197Y063246*
X046240Y063237*
Y063420*
G37*
G36*
X055793D02*
X055610D01*
Y063237*
X055653Y063246*
X055731Y063299*
X055784Y063377*
X055793Y063420*
G37*
G36*
X055510D02*
X055327D01*
X055336Y063377*
X055389Y063299*
X055467Y063246*
X055510Y063237*
Y063420*
G37*
G36*
X046523D02*
X046340D01*
Y063237*
X046383Y063246*
X046461Y063299*
X046514Y063377*
X046523Y063420*
G37*
%LNcurrentsource-3*%
%LPD*%
G54D10*
X048110Y060934D03*
Y060186D03*
X052110Y058884D03*
Y058136D03*
X048150Y049046D03*
Y049794D03*
G54D11*
X047236Y062210D03*
X047984D03*
X045684D03*
X044936D03*
X047676Y064180D03*
X048424D03*
X049316D03*
X050064D03*
G54D12*
X053783Y061134D03*
Y060386D03*
X052917Y060760D03*
G54D13*
X045786Y058683D03*
X046534D03*
X046160Y057817D03*
G54D14*
X049860Y060760D03*
Y061260D03*
Y060260D03*
Y059760D03*
X051986Y061260D03*
Y060760D03*
Y059760D03*
Y060260D03*
X047060Y060184D03*
Y059684D03*
Y060684D03*
Y061184D03*
X044934Y059684D03*
Y060184D03*
Y061184D03*
Y060684D03*
G54D15*
X050439Y057909D03*
X051187D03*
X050439Y058972D03*
X050813D03*
X051187D03*
G54D16*
X049300Y064164D02*
X049316Y064180D01*
X049300Y063580D02*
Y064164D01*
X049100Y063380D02*
X049300Y063580D01*
X049100Y060550D02*
Y063380D01*
Y060550D02*
X049390Y060260D01*
X049860*
X048424Y064180D02*
X049316D01*
X046100Y065200D02*
X047829Y066929D01*
X044936Y064036D02*
X046100Y065200D01*
X047120Y064180D02*
X047676D01*
X046100Y065200D02*
X047120Y064180D01*
X044936Y062210D02*
Y064036D01*
X046886Y068540D02*
X053410D01*
X045276Y066929D02*
X046886Y068540D01*
X053410D02*
X054050Y067900D01*
Y066410D02*
Y067900D01*
X052917Y065277D02*
X054050Y066410D01*
X052917Y060760D02*
Y065277D01*
X047829Y066929D02*
X052150D01*
X044120Y060450D02*
Y065774D01*
X045276Y066929*
X047053Y057817D02*
X048240Y056630D01*
Y053290D02*
Y056630D01*
X051703Y057480D02*
X051710D01*
X050880D02*
X051703D01*
X050330D02*
X050880D01*
X050240Y056840D02*
X050880Y057480D01*
X050240Y053290D02*
Y056840D01*
X050150Y049420D02*
Y051420D01*
X049713Y048983D02*
X050150Y049420D01*
X049713Y047244D02*
Y048983D01*
X051030Y052260D02*
X051459Y051831D01*
X050053Y052260D02*
X051030D01*
X049213Y051420D02*
X050053Y052260D01*
X051459Y051831D02*
X055020D01*
X049240Y053260D02*
Y053290D01*
Y053260D02*
X050040Y052460D01*
X051020*
X051400Y052840*
X055020*
X044120Y060450D02*
X044386Y060184D01*
X044934*
X050110Y057700D02*
Y058260D01*
Y057700D02*
X050330Y057480D01*
X050110Y058260D02*
X050439Y058589D01*
Y058972*
X051460Y060470D02*
X051750Y060760D01*
X051187Y058214D02*
X051460Y058487D01*
Y060470*
X051750Y060760D02*
X051986D01*
X051187Y057909D02*
Y058214D01*
X051180Y058965D02*
X051187Y058972D01*
X051180Y058490D02*
Y058965D01*
X051120Y058430D02*
X051180Y058490D01*
X050600Y058430D02*
X051120D01*
X050440Y058270D02*
X050600Y058430D01*
X050440Y057910D02*
Y058270D01*
X050439Y057909D02*
X050440Y057910D01*
X051187Y058972D02*
Y060663D01*
X050590Y061260D02*
X051187Y060663D01*
X051986Y059760D02*
X054200D01*
X054460Y060020*
Y060900*
X054226Y061134D02*
X054460Y060900D01*
X053783Y061134D02*
X054226D01*
X051986Y060260D02*
X053657D01*
X053783Y060386*
X051986Y060760D02*
X052917D01*
X051986Y059374D02*
Y059760D01*
Y059374D02*
X052110Y059250D01*
Y058884D02*
Y059250D01*
X051703Y057480D02*
X052110Y057887D01*
Y058136*
X049860Y061260D02*
X050590D01*
X045684Y062210D02*
X047236D01*
X047044Y060700D02*
X047060Y060684D01*
X046070Y060700D02*
X047044D01*
X045684Y061086D02*
X046070Y060700D01*
X045684Y061086D02*
Y062210D01*
X045803Y057817D02*
X046160D01*
X045410Y058210D02*
X045803Y057817D01*
X046160D02*
X047053D01*
X048150Y049794D02*
Y051420D01*
X045410Y058210D02*
Y060060D01*
X045286Y060184D02*
X045410Y060060D01*
X044934Y060184D02*
X045286D01*
X045636Y058683D02*
X045786Y058833D01*
Y059686*
X046260Y060160*
X046584Y058883D02*
Y059584D01*
X046684Y059684*
X047060*
X046384Y058683D02*
X046584Y058883D01*
X048108Y060184D02*
X048110Y060186D01*
X047060Y060184D02*
X048108D01*
X047036Y060160D02*
X047060Y060184D01*
X046260Y060160D02*
X047036D01*
G54D17*
X039370Y041340D02*
D01*
X039374Y041202*
X039389Y041065*
X039413Y040930*
X039446Y040797*
X039488Y040666*
X039540Y040539*
X039600Y040415*
X039669Y040296*
X039746Y040182*
X039830Y040074*
X039922Y039972*
X040021Y039876*
X040126Y039788*
X040237Y039707*
X040354Y039634*
X040475Y039570*
X040601Y039514*
X040730Y039467*
X040862Y039429*
X040997Y039400*
X041133Y039381*
X041270Y039372*
X041339Y039371*
X057087D02*
D01*
X057224Y039375*
X057361Y039390*
X057496Y039414*
X057629Y039447*
X057760Y039489*
X057887Y039541*
X058011Y039601*
X058130Y039670*
X058244Y039747*
X058352Y039831*
X058454Y039923*
X058550Y040022*
X058638Y040127*
X058719Y040238*
X058792Y040355*
X058856Y040476*
X058912Y040602*
X058959Y040731*
X058997Y040863*
X059026Y040998*
X059045Y041134*
X059054Y041271*
X059055Y041340*
Y068899D02*
D01*
X059050Y069036*
X059035Y069173*
X059011Y069308*
X058978Y069441*
X058936Y069572*
X058884Y069699*
X058824Y069823*
X058755Y069942*
X058678Y070056*
X058594Y070164*
X058502Y070266*
X058403Y070362*
X058298Y070450*
X058187Y070531*
X058070Y070604*
X057949Y070668*
X057823Y070724*
X057694Y070771*
X057562Y070809*
X057427Y070838*
X057291Y070857*
X057154Y070866*
X057087Y070868*
X041339D02*
D01*
X041201Y070863*
X041064Y070848*
X040929Y070824*
X040796Y070791*
X040665Y070749*
X040538Y070697*
X040414Y070637*
X040295Y070568*
X040181Y070491*
X040073Y070407*
X039971Y070315*
X039875Y070216*
X039787Y070111*
X039706Y070000*
X039633Y069883*
X039569Y069762*
X039513Y069636*
X039466Y069507*
X039428Y069375*
X039399Y069240*
X039380Y069104*
X039371Y068967*
X039370Y068899*
Y041340D02*
Y068899D01*
X041339Y039371D02*
X057087Y039372D01*
X059055Y068899D02*
Y041340D01*
X041339Y070868D02*
X057087D01*
G54D18*
X048713Y047244D03*
X049713D03*
G54D19*
X048213Y051420D03*
X049213D03*
X050213D03*
X045276Y066929D03*
X046284D03*
X052150D03*
X053158D03*
X050240Y053290D03*
X049240D03*
X048240D03*
X055020Y052840D03*
Y051831D03*
G54D20*
X041339Y068898D03*
X057087D03*
Y041339D03*
X041339D03*
G54D21*
X045680Y060480D03*
X050670Y060580D03*
X048060Y061510D03*
X047230Y058310D03*
X047480Y049080D03*
X048150Y048320D03*
X048830Y049040D03*
X047260Y055050D03*
X045610Y056570D03*
X046290Y063470D03*
X044640Y064660D03*
X048620Y067790D03*
X051750Y063850D03*
X055130Y058140D03*
X055560Y063470D03*
X055050Y065590D03*
M02*